M48
;Layer_Color=9474304
;FILE_FORMAT=2:5
INCH,LZ
;TYPE=PLATED
T1F00S00C0.01181
T2F00S00C0.02000
T4F00S00C0.02756
T5F00S00C0.03150
T6F00S00C0.03740
T7F00S00C0.04331
T8F00S00C0.04331
T9F00S00C0.04724
T10F00S00C0.11811
T11F00S00C0.39370
T12F00S00C0.55118
;TYPE=NON_PLATED
T13F00S00C0.02559
%
T01
X0339Y01515
X034Y01575
X035Y01625
X0332Y01425
X0329Y01395
X03255Y0134
X0318Y0139235
Y0143565
X03Y01545
X0296Y01625
X0293Y01655
X0304456Y01625
X02825Y0152
X0241Y01635
X02295Y01556
X0227Y0158
X0219Y0153
X0216Y01685
X01895
X01795Y0119
X0182Y010801
X0226Y01415
X0235Y01465
X0176Y01415
X01725Y0145
X0165Y01525
X01365Y0153
X0144378Y01344
X0154378Y01304
X0176Y01308
X0169Y0107
X01405Y0118
X0136Y01185
X0134Y01225
X013Y01235
X01265Y0126
X01225Y0124
X0119868Y01405
X0107Y0114
X01035Y01165
X00985Y0119
X01Y0197
X01115Y0207
X01365
X0134Y0204
X0144Y02015
X016
X0157Y02105
X0154Y02195
X01475Y0228
Y02565
X01405Y02625
X01225Y02535
X0115Y0275
X013Y02815
X01545
X01695Y0259
X0174Y02464
X01725Y02335
X0171Y02125
X0174Y0209
X01785Y02155
X01765Y01915
X01715Y019
X0134Y01745
X0087Y02125
X00895Y02235
X00921Y02335
X00985Y02455
X00615Y027
X0061626Y0211874
X01895Y0207
X01825Y0197
Y01935
X01795Y01855
X01925Y0222
X01965Y0241
X01989Y02436
X0202Y02435
Y02535
X01935Y02495
X0194Y02461
X01835Y02505
Y0273
X0199Y02645
X01965Y02615
X02185Y0253
X0214Y02404
X023Y0242
Y02335
X0245Y02235
Y02446
X025Y0242
Y0259
X02365
X0237Y0286
X02435Y0292
Y0299207
X0242914Y0307
X02675Y0297
X02765Y02825
X0283Y02785
X0289Y02735
X02865Y0267
Y02635
X0288144Y0258356
X02865Y0253
X02905Y02535
X0301Y0248
X03045Y0239
X0306Y02255
X02955Y0221
X0284Y02295
X02735Y0222
X02625Y0248
X0271Y0265
X03025Y02635
X0307Y0267
X03115Y0273
X03065Y0283
X03035Y02905
X03135Y0286586
X03245Y03
X02885Y03075
X0288Y02885
X02545Y02835
X0221504Y0286081
X0227Y0197
X0225209Y01935
X02295Y0191
X0232Y0188
X0332Y02005
Y0225
X0313Y0258
X0338Y0256
X03445Y02575
X0358
X03565Y02635
X03545Y02685
X03495Y02785
X03445Y02835
X03405Y02935
X0335Y03035
X03375Y0267
X03705Y02585
X03661Y024
X03585Y02365
X0348Y02355
X0345Y023
X0352
X0342Y02245
Y02155
X0352Y021
X0348Y0192
X03555Y01875
X0335Y0187
X0366Y0225
T02
X03355Y015
X03745Y0145
X02225Y0149
Y01337
X02165Y01615
X02055Y016
X0191Y0159
X0195Y0118
X0203
X01655Y01337
X0051Y01555
X0057Y00815
X0056Y0239828
Y02915
X01305Y0294
X01265Y03075
X01685Y0182
X0212Y0183
X02145Y01735
X02355
X0239Y0212
Y02335
X02285Y0225
X0195933Y02745
X0196Y0294
X0277Y02715
X03295Y0234
X032Y0211
X036Y0209
Y0184259
X0335Y0182
X0237Y03405
T04
X0337Y011
X0349Y01235
X0331Y01245
X0308Y0121
X03105Y0132
X0305Y0136
X0117Y0147
Y0101
X0136
X0151Y0082
X0095Y0055
X0117Y0022
X0059Y0018
Y0035
X0015Y0134626
Y01425
Y0150374
Y0158248
Y0166122
Y0173996
Y018187
Y0189744
Y0197618
Y0205492
X0013Y0289463
Y0297337
X0095Y032
X01175Y018
X02295Y0289
T05
X0195905Y0005197
Y0029803
X0107Y0151
Y0158874
Y0166748
Y0174622
T06
X0013059Y0326424
X0023059
X0258Y0234
X0268
X0278
T07
X00425Y01075
Y01175
Y01275
Y01375
Y01475
Y01575
Y01675
Y01775
Y01875
Y01975
Y02075
Y02175
X0377Y02144
Y02244
Y02344
Y02444
Y02544
Y02644
Y02744
Y02844
Y02944
Y03044
Y03144
Y02044
T08
X0262Y01494
X0272
T09
X0018Y02314
Y02414
Y02514
Y02614
T10
X0371252Y0110201
X0164Y0034
X0068Y03344
T11
X0266886Y0322707
T12
X0266885Y0190943
T13
X019311Y0101122
Y0123878
M30
