G04*
G04 #@! TF.GenerationSoftware,Altium Limited,Altium Designer,22.7.1 (60)*
G04*
G04 Layer_Color=8421631*
%FSLAX44Y44*%
%MOMM*%
G71*
G04*
G04 #@! TF.SameCoordinates,D08EC4CB-3731-4FB6-A323-C4F571B0A5DD*
G04*
G04*
G04 #@! TF.FilePolarity,Positive*
G04*
G01*
G75*
%ADD10C,0.5080*%
%ADD11C,0.2540*%
G36*
X261837Y807854D02*
X267676Y796301D01*
X274320Y783310D01*
X272543D01*
X266322Y796259D01*
X255108D01*
X254939Y795794D01*
X254770Y795328D01*
X254389Y794270D01*
X253966Y793128D01*
X253585Y792070D01*
X253416Y791562D01*
X253246Y791097D01*
X253120Y790673D01*
X252992Y790293D01*
X252866Y789996D01*
X252823Y789785D01*
X252739Y789615D01*
Y789573D01*
X252442Y788769D01*
X252188Y788050D01*
X251977Y787373D01*
X251765Y786738D01*
X251554Y786188D01*
X251385Y785680D01*
X251215Y785215D01*
X251088Y784791D01*
X250961Y784453D01*
X250877Y784157D01*
X250792Y783903D01*
X250750Y783691D01*
X250665Y783522D01*
Y783395D01*
X250623Y783353D01*
Y783310D01*
X248803D01*
X254643Y799433D01*
X258494Y810351D01*
X258874Y810308D01*
X259975D01*
X260313Y810351D01*
X260652D01*
X261837Y807854D01*
D02*
G37*
G36*
X228872Y809631D02*
Y808996D01*
X228830Y808404D01*
Y807896D01*
Y807473D01*
Y807134D01*
Y806965D01*
Y806881D01*
Y805611D01*
X228872Y805019D01*
Y804469D01*
X228915Y804003D01*
Y803665D01*
X228957Y803411D01*
Y803368D01*
Y803326D01*
X229846Y803453D01*
X230650Y803580D01*
X231411Y803665D01*
X232088Y803707D01*
X232638Y803749D01*
X233400D01*
X234289Y803707D01*
X235177Y803665D01*
X235981Y803538D01*
X236658Y803411D01*
X237251Y803284D01*
X237716Y803199D01*
X237886Y803157D01*
X238013Y803114D01*
X238055Y803072D01*
X238097D01*
X238901Y802776D01*
X239663Y802437D01*
X240340Y802099D01*
X240932Y801718D01*
X241440Y801379D01*
X241821Y801083D01*
X242033Y800914D01*
X242117Y800829D01*
X242752Y800195D01*
X243302Y799518D01*
X243768Y798883D01*
X244148Y798248D01*
X244445Y797698D01*
X244656Y797275D01*
X244741Y797105D01*
X244783Y796979D01*
X244825Y796936D01*
Y796894D01*
X245122Y796005D01*
X245333Y795159D01*
X245502Y794355D01*
X245587Y793593D01*
X245672Y793001D01*
Y792705D01*
X245714Y792493D01*
Y792324D01*
Y792197D01*
Y792112D01*
Y792070D01*
X245672Y791393D01*
X245630Y790716D01*
X245545Y790123D01*
X245460Y789615D01*
X245376Y789150D01*
X245333Y788811D01*
X245249Y788600D01*
Y788515D01*
X245037Y787923D01*
X244783Y787373D01*
X244487Y786865D01*
X244233Y786400D01*
X243979Y786061D01*
X243768Y785765D01*
X243641Y785595D01*
X243598Y785553D01*
X243133Y785088D01*
X242667Y784707D01*
X242160Y784368D01*
X241736Y784114D01*
X241355Y783903D01*
X241017Y783734D01*
X240848Y783649D01*
X240763Y783607D01*
X240128Y783395D01*
X239494Y783226D01*
X238859Y783099D01*
X238309Y783014D01*
X237843Y782972D01*
X237505Y782930D01*
X237166D01*
X236235Y782972D01*
X235854Y783014D01*
X235473Y783099D01*
X235177Y783141D01*
X234966Y783183D01*
X234797Y783226D01*
X234754D01*
X233908Y783480D01*
X233569Y783607D01*
X233273Y783734D01*
X233019Y783860D01*
X232850Y783945D01*
X232723Y784030D01*
X232681D01*
X232088Y784453D01*
X231623Y784834D01*
X231453Y785003D01*
X231284Y785088D01*
X231242Y785172D01*
X231200Y785215D01*
X230776Y785680D01*
X230438Y786103D01*
X230311Y786273D01*
X230226Y786400D01*
X230142Y786484D01*
Y786526D01*
X229972Y786780D01*
X229803Y787119D01*
X229549Y787711D01*
X229422Y787965D01*
X229338Y788177D01*
X229256Y788300D01*
X229549Y783310D01*
X227983D01*
Y785722D01*
Y786103D01*
Y786526D01*
Y787034D01*
X227941Y787584D01*
Y788769D01*
X227899Y789996D01*
Y790589D01*
Y791139D01*
Y791647D01*
X227857Y792070D01*
Y792451D01*
Y792705D01*
Y792916D01*
Y792959D01*
X227560Y802564D01*
X227518Y804088D01*
X227476Y805484D01*
X227433Y806796D01*
X227391Y807431D01*
X227349Y807981D01*
Y808489D01*
X227306Y808954D01*
X227264Y809377D01*
Y809716D01*
Y809970D01*
X227222Y810181D01*
Y810308D01*
Y810351D01*
X227560Y810308D01*
X228322D01*
X228618Y810351D01*
X228915D01*
X228872Y809631D01*
D02*
G37*
G36*
X156807Y808827D02*
X156850Y807262D01*
Y805738D01*
X156892Y805019D01*
Y804342D01*
Y803707D01*
X156934Y803114D01*
Y802607D01*
Y802141D01*
X156977Y801803D01*
Y801506D01*
Y801337D01*
Y801295D01*
X157358Y791435D01*
X157442Y789700D01*
X157484Y788896D01*
X157527Y788134D01*
X157569Y787415D01*
X157611Y786780D01*
X157654Y786146D01*
Y785595D01*
X157696Y785088D01*
X157738Y784622D01*
Y784241D01*
X157781Y783903D01*
Y783649D01*
X157823Y783480D01*
Y783353D01*
Y783310D01*
X155961D01*
X156003Y785384D01*
Y785553D01*
Y785765D01*
Y786230D01*
X155961Y786865D01*
Y787627D01*
Y788431D01*
X155919Y789277D01*
X155876Y791054D01*
X155834Y791943D01*
Y792789D01*
X155792Y793551D01*
Y794228D01*
Y794820D01*
X155749Y795244D01*
Y795413D01*
Y795540D01*
Y795582D01*
Y795624D01*
X155707Y797233D01*
X155623Y798714D01*
X155580Y800110D01*
X155538Y801422D01*
X155496Y802649D01*
X155411Y803749D01*
X155369Y804765D01*
X155326Y805653D01*
X155284Y806457D01*
Y807177D01*
X155242Y807769D01*
X155199Y808235D01*
Y808616D01*
X155157Y808912D01*
Y809081D01*
Y809123D01*
X154015Y809081D01*
X148175D01*
X147498Y809039D01*
X146905Y808996D01*
X146440Y808912D01*
X146101Y808869D01*
X145847Y808785D01*
X145721Y808743D01*
X145678D01*
X145001Y808489D01*
X144747Y808319D01*
X144493Y808150D01*
X144324Y808023D01*
X144197Y807896D01*
X144112Y807854D01*
X144070Y807812D01*
X143647Y807346D01*
X143308Y806838D01*
X143224Y806627D01*
X143139Y806457D01*
X143055Y806330D01*
Y806288D01*
X142843Y805569D01*
X142758Y805230D01*
X142716Y804934D01*
X142674Y804680D01*
Y804469D01*
Y804342D01*
Y804299D01*
X142716Y803749D01*
X142758Y803241D01*
X142885Y802734D01*
X142970Y802310D01*
X143097Y801930D01*
X143224Y801676D01*
X143266Y801506D01*
X143308Y801422D01*
X143562Y800956D01*
X143858Y800491D01*
X144155Y800110D01*
X144409Y799814D01*
X144663Y799518D01*
X144874Y799348D01*
X145001Y799221D01*
X145043Y799179D01*
X145467Y798883D01*
X145890Y798587D01*
X146355Y798375D01*
X146736Y798206D01*
X147117Y798079D01*
X147413Y797994D01*
X147582Y797909D01*
X147667D01*
X148852Y797698D01*
X149402Y797613D01*
X149867Y797571D01*
X150291D01*
X150629Y797529D01*
X150925D01*
X152153Y797571D01*
X152745Y797656D01*
X153295Y797698D01*
X153718Y797783D01*
X154099Y797825D01*
X154311Y797867D01*
X154395D01*
X154226Y797402D01*
X154141Y797021D01*
X154057Y796725D01*
X154015Y796682D01*
Y796640D01*
X153337Y796513D01*
X152703Y796429D01*
X152153Y796386D01*
X151645Y796344D01*
X151264Y796301D01*
X150672D01*
X149698Y796344D01*
X148767Y796429D01*
X147963Y796598D01*
X147244Y796767D01*
X146651Y796936D01*
X146228Y797105D01*
X146059Y797148D01*
X145932Y797190D01*
X145890Y797233D01*
X145847D01*
X145086Y797613D01*
X144409Y798079D01*
X143858Y798544D01*
X143351Y798967D01*
X142970Y799391D01*
X142674Y799729D01*
X142504Y799941D01*
X142462Y800025D01*
X142039Y800745D01*
X141743Y801506D01*
X141489Y802226D01*
X141362Y802903D01*
X141277Y803495D01*
X141193Y803961D01*
Y804130D01*
Y804257D01*
Y804342D01*
Y804384D01*
Y804892D01*
X141277Y805357D01*
X141362Y805780D01*
X141447Y806204D01*
X141531Y806500D01*
X141616Y806754D01*
X141658Y806923D01*
X141700Y806965D01*
X141912Y807388D01*
X142124Y807812D01*
X142378Y808150D01*
X142631Y808446D01*
X142843Y808700D01*
X143012Y808869D01*
X143139Y808996D01*
X143181Y809039D01*
X143562Y809335D01*
X143943Y809547D01*
X144282Y809758D01*
X144620Y809885D01*
X144916Y809970D01*
X145128Y810054D01*
X145297Y810097D01*
X145340D01*
X145805Y810181D01*
X146313Y810266D01*
X146863Y810308D01*
X147329D01*
X147794Y810351D01*
X148471D01*
X152872Y810308D01*
X156807Y810351D01*
Y808827D01*
D02*
G37*
G36*
X101585Y808404D02*
X99596D01*
X99553Y810351D01*
X99892Y810308D01*
X100950D01*
X101246Y810351D01*
X101585D01*
Y808404D01*
D02*
G37*
G36*
X101542Y801591D02*
Y801422D01*
Y801083D01*
Y800702D01*
X101585Y800195D01*
Y799644D01*
Y799052D01*
X101627Y797740D01*
Y797105D01*
X101669Y796513D01*
Y795921D01*
Y795413D01*
X101711Y794990D01*
Y794694D01*
Y794482D01*
Y794397D01*
X101754Y793339D01*
X101796Y792366D01*
Y791520D01*
X101838Y790716D01*
X101881Y790039D01*
Y789404D01*
Y788896D01*
X101923Y788388D01*
Y788008D01*
Y787669D01*
X101965Y787415D01*
Y787161D01*
Y787034D01*
Y786907D01*
Y786865D01*
Y786823D01*
X102008Y785892D01*
X102050Y785088D01*
X102092Y784326D01*
X102135Y783607D01*
X102177Y783014D01*
X102219Y782464D01*
X102261Y781999D01*
Y781575D01*
X102304Y781237D01*
Y780941D01*
X102346Y780687D01*
Y780518D01*
X102388Y780348D01*
Y780264D01*
Y780179D01*
X102473Y779629D01*
X102558Y779121D01*
X102642Y778698D01*
X102685Y778359D01*
X102769Y778063D01*
X102854Y777809D01*
X102896Y777682D01*
Y777640D01*
X103108Y777090D01*
X103319Y776709D01*
X103489Y776497D01*
X103531Y776413D01*
X103785Y776117D01*
X104081Y775863D01*
X104293Y775693D01*
X104335Y775651D01*
X104377D01*
X104801Y775397D01*
X105181Y775228D01*
X105393Y775143D01*
X105520Y775101D01*
X105604Y775059D01*
X105647D01*
X106239Y774932D01*
X106747Y774847D01*
X106959Y774805D01*
X107297D01*
X108144Y774847D01*
X108990Y774974D01*
X109836Y775143D01*
X110555Y775313D01*
X111233Y775482D01*
X111487Y775566D01*
X111698Y775651D01*
X111910Y775736D01*
X112037Y775778D01*
X112121Y775820D01*
X112164D01*
X112079Y775228D01*
X112037Y774720D01*
Y774551D01*
Y774424D01*
Y774339D01*
Y774297D01*
X111148Y774085D01*
X110302Y773958D01*
X109540Y773831D01*
X108863Y773789D01*
X108355Y773747D01*
X107932Y773705D01*
X107043D01*
X106578Y773747D01*
X106155Y773789D01*
X105774Y773874D01*
X105478Y773916D01*
X105266Y773958D01*
X105139Y774001D01*
X105097D01*
X104547Y774212D01*
X104039Y774424D01*
X103869Y774509D01*
X103700Y774593D01*
X103616Y774678D01*
X103573D01*
X103108Y775016D01*
X102727Y775313D01*
X102473Y775566D01*
X102431Y775609D01*
X102388Y775651D01*
X102092Y776074D01*
X101838Y776497D01*
X101754Y776667D01*
X101711Y776751D01*
X101669Y776836D01*
Y776878D01*
X101542Y777217D01*
X101415Y777640D01*
X101246Y778402D01*
X101204Y778740D01*
X101161Y778994D01*
X101119Y779163D01*
Y779248D01*
X101077Y779544D01*
X101034Y779883D01*
X100992Y780306D01*
X100950Y780814D01*
X100907Y781872D01*
X100823Y782972D01*
X100780Y784030D01*
X100738Y784495D01*
Y784918D01*
X100696Y785257D01*
Y785553D01*
Y785722D01*
Y785765D01*
X100357Y794609D01*
X99934Y803326D01*
X100273Y803284D01*
X100950D01*
X101246Y803326D01*
X101542D01*
Y801591D01*
D02*
G37*
G36*
X215458Y803707D02*
X216008Y803665D01*
X216431D01*
X216854Y803622D01*
X217150Y803580D01*
X217320Y803538D01*
X217404D01*
X217997Y803453D01*
X218589Y803326D01*
X219139Y803199D01*
X219690Y803072D01*
X220155Y802945D01*
X220536Y802860D01*
X220790Y802818D01*
X220832Y802776D01*
X220874D01*
X220959Y802184D01*
X221001Y801676D01*
X221044Y801506D01*
Y801379D01*
X221086Y801295D01*
Y801253D01*
X220620Y801422D01*
X220197Y801591D01*
X219816Y801718D01*
X219520Y801845D01*
X219266Y801930D01*
X219097Y801972D01*
X218970Y802014D01*
X218928D01*
X218209Y802184D01*
X217531Y802310D01*
X217235Y802353D01*
X216981Y802395D01*
X216812Y802437D01*
X216770D01*
X215796Y802564D01*
X215331Y802607D01*
X214908D01*
X214569Y802649D01*
X214019D01*
X213130Y802607D01*
X212750Y802564D01*
X212369Y802522D01*
X212073Y802480D01*
X211861Y802437D01*
X211692Y802395D01*
X211649D01*
X211226Y802310D01*
X210888Y802184D01*
X210549Y802057D01*
X210253Y801930D01*
X210041Y801803D01*
X209872Y801718D01*
X209788Y801676D01*
X209745Y801633D01*
X209491Y801422D01*
X209237Y801210D01*
X208941Y800829D01*
X208814Y800660D01*
X208730Y800575D01*
X208687Y800491D01*
Y800449D01*
X208518Y799983D01*
X208433Y799560D01*
X208391Y799433D01*
Y799306D01*
Y799221D01*
Y799179D01*
X208433Y798840D01*
X208476Y798502D01*
X208603Y798163D01*
X208687Y797909D01*
X208814Y797656D01*
X208941Y797486D01*
X208983Y797359D01*
X209026Y797317D01*
X209280Y797021D01*
X209576Y796725D01*
X210168Y796301D01*
X210422Y796132D01*
X210634Y796005D01*
X210803Y795963D01*
X210845Y795921D01*
X211692Y795582D01*
X212115Y795413D01*
X212496Y795328D01*
X212792Y795201D01*
X213046Y795117D01*
X213215Y795074D01*
X213257D01*
X213765Y794947D01*
X214231Y794820D01*
X214612Y794736D01*
X214992Y794651D01*
X215289Y794566D01*
X215543Y794482D01*
X215966Y794397D01*
X216262Y794313D01*
X216389Y794270D01*
X216474Y794228D01*
X216516D01*
X217066Y794059D01*
X217616Y793889D01*
X218081Y793763D01*
X218505Y793593D01*
X218843Y793466D01*
X219139Y793382D01*
X219309Y793339D01*
X219351Y793297D01*
X220155Y792916D01*
X220494Y792747D01*
X220832Y792578D01*
X221086Y792408D01*
X221255Y792324D01*
X221382Y792239D01*
X221425Y792197D01*
X221975Y791816D01*
X222355Y791477D01*
X222609Y791181D01*
X222652Y791139D01*
X222694Y791097D01*
X223075Y790546D01*
X223329Y790081D01*
X223413Y789869D01*
X223498Y789700D01*
X223540Y789615D01*
Y789573D01*
X223667Y789023D01*
X223752Y788515D01*
X223794Y788304D01*
Y788134D01*
Y788050D01*
Y788008D01*
X223710Y787204D01*
X223667Y786865D01*
X223583Y786526D01*
X223498Y786273D01*
X223456Y786061D01*
X223371Y785934D01*
Y785892D01*
X223160Y785553D01*
X222948Y785215D01*
X222736Y784918D01*
X222482Y784665D01*
X222313Y784453D01*
X222144Y784284D01*
X222017Y784199D01*
X221975Y784157D01*
X221594Y783903D01*
X221213Y783691D01*
X220790Y783522D01*
X220409Y783395D01*
X220113Y783310D01*
X219816Y783226D01*
X219647Y783183D01*
X219605D01*
X218505Y783056D01*
X217997Y782972D01*
X217531D01*
X217108Y782930D01*
X216516D01*
X215839Y782972D01*
X215246Y783014D01*
X214992D01*
X214781Y783056D01*
X214612D01*
X214188Y783099D01*
X213765Y783141D01*
X213342Y783226D01*
X212919Y783268D01*
X212538Y783353D01*
X212242Y783395D01*
X212073Y783437D01*
X211988D01*
X211903Y783987D01*
X211819Y784495D01*
X211776Y784665D01*
X211734Y784834D01*
X211692Y784918D01*
Y784961D01*
X212157Y784791D01*
X212538Y784665D01*
X212877Y784538D01*
X213173Y784453D01*
X213384Y784411D01*
X213554Y784368D01*
X213638Y784326D01*
X213681D01*
X214188Y784241D01*
X214654Y784157D01*
X214865D01*
X215035Y784114D01*
X215162D01*
X215712Y784072D01*
X216262Y784030D01*
X217362D01*
X217912Y784072D01*
X218378Y784157D01*
X218801Y784241D01*
X219139Y784284D01*
X219393Y784368D01*
X219563Y784411D01*
X219605D01*
X220028Y784580D01*
X220409Y784791D01*
X220747Y785003D01*
X221001Y785215D01*
X221255Y785426D01*
X221425Y785553D01*
X221509Y785680D01*
X221551Y785722D01*
X221805Y786103D01*
X221975Y786484D01*
X222144Y786865D01*
X222229Y787204D01*
X222271Y787500D01*
X222313Y787754D01*
Y787923D01*
Y787965D01*
X222271Y788558D01*
X222144Y789108D01*
X222102Y789277D01*
X222059Y789446D01*
X222017Y789531D01*
Y789573D01*
X221763Y790039D01*
X221467Y790419D01*
X221340Y790589D01*
X221213Y790716D01*
X221171Y790758D01*
X221128Y790800D01*
X220578Y791266D01*
X220028Y791647D01*
X219816Y791774D01*
X219647Y791901D01*
X219520Y791943D01*
X219478Y791985D01*
X219097Y792154D01*
X218674Y792324D01*
X218209Y792493D01*
X217785Y792662D01*
X217404Y792789D01*
X217108Y792916D01*
X216897Y792959D01*
X216812Y793001D01*
X216474Y793085D01*
X216093Y793212D01*
X215289Y793466D01*
X214908Y793551D01*
X214612Y793636D01*
X214400Y793720D01*
X214315D01*
X213723Y793889D01*
X213215Y794016D01*
X212834Y794101D01*
X212538Y794186D01*
X212327Y794270D01*
X212199D01*
X212115Y794313D01*
X211776Y794440D01*
X211438Y794566D01*
X211184Y794651D01*
X211142Y794694D01*
X211099D01*
X210718Y794863D01*
X210422Y794990D01*
X210253Y795074D01*
X210168Y795117D01*
X209914Y795286D01*
X209660Y795413D01*
X209491Y795498D01*
X209449Y795540D01*
X209153Y795794D01*
X208857Y796048D01*
X208603Y796259D01*
X208560Y796301D01*
X208518Y796344D01*
X208603Y794905D01*
X208645Y794228D01*
X208687Y793593D01*
Y793043D01*
X208730Y792620D01*
Y792451D01*
Y792324D01*
Y792281D01*
Y792239D01*
Y791435D01*
X208772Y790716D01*
X208814Y789996D01*
Y789404D01*
X208857Y788896D01*
Y788515D01*
X208899Y788261D01*
Y788219D01*
Y788177D01*
X208941Y787415D01*
X208983Y786653D01*
X209026Y785807D01*
X209110Y785045D01*
X209153Y784368D01*
X209195Y784072D01*
Y783818D01*
Y783607D01*
X209237Y783437D01*
Y783353D01*
Y783310D01*
X207587D01*
Y784961D01*
Y785469D01*
Y786019D01*
X207545Y786653D01*
Y787246D01*
Y787796D01*
X207502Y788261D01*
Y788431D01*
Y788558D01*
Y788642D01*
Y788685D01*
X207460Y789615D01*
X207418Y790462D01*
Y791224D01*
X207376Y791858D01*
X207333Y792366D01*
X207291Y792747D01*
Y792959D01*
Y793043D01*
X207248Y793678D01*
X207206Y794313D01*
X207164Y794863D01*
X207122Y795370D01*
Y795751D01*
X207079Y796090D01*
Y796259D01*
Y796344D01*
X207037Y796894D01*
Y797359D01*
X206995Y797825D01*
Y798163D01*
Y798460D01*
Y798671D01*
Y798798D01*
Y798840D01*
X207037Y799560D01*
X207079Y799856D01*
X207164Y800152D01*
X207206Y800406D01*
X207291Y800575D01*
X207333Y800702D01*
Y800745D01*
X207460Y801083D01*
X207672Y801379D01*
X207883Y801676D01*
X208095Y801930D01*
X208264Y802099D01*
X208433Y802268D01*
X208560Y802353D01*
X208603Y802395D01*
X208983Y802649D01*
X209407Y802860D01*
X209830Y803030D01*
X210211Y803157D01*
X210549Y803284D01*
X210845Y803368D01*
X211015Y803411D01*
X211099D01*
X212242Y803622D01*
X212792Y803665D01*
X213300Y803707D01*
X213723Y803749D01*
X214358D01*
X215458Y803707D01*
D02*
G37*
G36*
X193750D02*
X194173Y803622D01*
X194511Y803580D01*
X194850Y803495D01*
X195061Y803411D01*
X195231Y803368D01*
X195273D01*
X196077Y803072D01*
X196416Y802903D01*
X196754Y802776D01*
X197008Y802607D01*
X197177Y802522D01*
X197304Y802437D01*
X197346Y802395D01*
X197939Y801930D01*
X198404Y801464D01*
X198574Y801295D01*
X198701Y801168D01*
X198743Y801083D01*
X198785Y801041D01*
X198997Y800787D01*
X199166Y800449D01*
X199547Y799856D01*
X199716Y799560D01*
X199801Y799348D01*
X199886Y799179D01*
X199928Y799137D01*
X199716Y803326D01*
X200012Y803284D01*
X200774D01*
X201028Y803326D01*
X201282D01*
Y802480D01*
Y802057D01*
Y801676D01*
Y801337D01*
Y801083D01*
Y800914D01*
Y800829D01*
X201790Y787627D01*
X201832Y787034D01*
Y786484D01*
X201874Y786273D01*
Y786103D01*
Y786019D01*
Y785976D01*
X202086Y783310D01*
X200520D01*
Y784495D01*
X200478Y785765D01*
Y786992D01*
X200436Y788177D01*
Y788727D01*
X200393Y789192D01*
Y789658D01*
Y790039D01*
X200351Y790335D01*
Y790546D01*
Y790716D01*
Y790758D01*
X200309Y791477D01*
X200266Y792112D01*
X200224Y792747D01*
X200182Y793297D01*
X200139Y793763D01*
X200097Y794228D01*
X200055Y794651D01*
X200012Y794990D01*
Y795286D01*
X199970Y795540D01*
X199928Y795794D01*
X199886Y795963D01*
X199843Y796175D01*
Y796259D01*
X199674Y796894D01*
X199547Y797444D01*
X199378Y797952D01*
X199208Y798333D01*
X199081Y798671D01*
X198955Y798883D01*
X198912Y799052D01*
X198870Y799094D01*
X198616Y799475D01*
X198404Y799856D01*
X198151Y800152D01*
X197897Y800406D01*
X197685Y800618D01*
X197516Y800787D01*
X197431Y800872D01*
X197389Y800914D01*
X196712Y801422D01*
X196077Y801803D01*
X195781Y801930D01*
X195569Y802014D01*
X195442Y802099D01*
X195400D01*
X194554Y802353D01*
X194130Y802437D01*
X193792Y802480D01*
X193496Y802522D01*
X193030D01*
X192226Y802480D01*
X191888Y802395D01*
X191591Y802353D01*
X191338Y802268D01*
X191168Y802184D01*
X191041Y802141D01*
X190999D01*
X190322Y801845D01*
X190068Y801676D01*
X189814Y801549D01*
X189645Y801379D01*
X189518Y801295D01*
X189433Y801210D01*
X189391Y801168D01*
X188968Y800702D01*
X188714Y800237D01*
X188629Y800068D01*
X188545Y799898D01*
X188502Y799814D01*
Y799771D01*
X188418Y799475D01*
X188333Y799094D01*
X188248Y798375D01*
X188206Y798036D01*
Y797783D01*
Y797613D01*
Y797529D01*
Y796894D01*
Y796259D01*
X188248Y795582D01*
Y794990D01*
X188291Y794440D01*
Y793974D01*
X188333Y793805D01*
Y793720D01*
Y793636D01*
Y793593D01*
X188587Y788600D01*
X188629Y787627D01*
X188672Y786696D01*
X188714Y785807D01*
X188756Y785003D01*
X188799Y784284D01*
Y784030D01*
Y783776D01*
X188841Y783564D01*
Y783437D01*
Y783353D01*
Y783310D01*
X187275D01*
X187064Y791224D01*
X187021Y791901D01*
Y792535D01*
X186979Y793128D01*
X186937Y793678D01*
X186894Y794143D01*
X186852Y794566D01*
X186810Y794947D01*
X186767Y795286D01*
X186725Y795582D01*
Y795836D01*
X186640Y796217D01*
X186598Y796429D01*
Y796513D01*
X186471Y797148D01*
X186302Y797698D01*
X186175Y798163D01*
X186006Y798544D01*
X185921Y798883D01*
X185794Y799094D01*
X185752Y799221D01*
X185709Y799264D01*
X185244Y799983D01*
X184990Y800279D01*
X184778Y800533D01*
X184567Y800702D01*
X184398Y800872D01*
X184313Y800956D01*
X184271Y800999D01*
X183594Y801464D01*
X182959Y801803D01*
X182705Y801930D01*
X182493Y802014D01*
X182367Y802099D01*
X182324D01*
X181478Y802353D01*
X181097Y802437D01*
X180716Y802480D01*
X180378Y802522D01*
X179912D01*
X179277Y802480D01*
X178770Y802437D01*
X178558Y802395D01*
X178389Y802353D01*
X178304Y802310D01*
X178262D01*
X177712Y802141D01*
X177288Y802014D01*
X177119Y801930D01*
X176992Y801845D01*
X176950Y801803D01*
X176908D01*
X176485Y801549D01*
X176188Y801295D01*
X176019Y801126D01*
X175934Y801041D01*
X175681Y800702D01*
X175511Y800406D01*
X175384Y800195D01*
X175342Y800152D01*
Y800110D01*
X175215Y799771D01*
X175130Y799433D01*
X175088Y799221D01*
Y799179D01*
Y799137D01*
X175046Y798756D01*
X175003Y798375D01*
Y798206D01*
Y798079D01*
Y797994D01*
Y797952D01*
Y797402D01*
Y796852D01*
X175046Y796301D01*
Y795751D01*
X175088Y795286D01*
Y794905D01*
X175130Y794651D01*
Y794609D01*
Y794566D01*
X175384Y789108D01*
X175427Y787880D01*
X175511Y786780D01*
X175553Y785807D01*
X175596Y784961D01*
X175638Y784580D01*
Y784241D01*
X175681Y783987D01*
Y783734D01*
X175723Y783564D01*
Y783437D01*
Y783353D01*
Y783310D01*
X174157D01*
Y784411D01*
X174115Y785511D01*
Y786611D01*
X174072Y787627D01*
Y788050D01*
X174030Y788473D01*
Y788854D01*
Y789192D01*
X173988Y789446D01*
Y789615D01*
Y789743D01*
Y789785D01*
X173946Y791054D01*
X173861Y792197D01*
X173818Y793170D01*
X173776Y793593D01*
Y793974D01*
Y794313D01*
X173734Y794609D01*
Y794863D01*
X173692Y795032D01*
Y795201D01*
Y795328D01*
Y795370D01*
Y795413D01*
X173649Y796132D01*
X173607Y796725D01*
X173565Y797233D01*
X173522Y797656D01*
Y797952D01*
Y798206D01*
Y798333D01*
Y798375D01*
X173565Y799010D01*
X173649Y799560D01*
X173776Y800068D01*
X173903Y800491D01*
X174072Y800872D01*
X174199Y801126D01*
X174284Y801295D01*
X174326Y801337D01*
X174665Y801760D01*
X175003Y802141D01*
X175384Y802480D01*
X175765Y802734D01*
X176104Y802903D01*
X176357Y803072D01*
X176527Y803114D01*
X176611Y803157D01*
X177162Y803368D01*
X177712Y803495D01*
X178262Y803622D01*
X178727Y803665D01*
X179150Y803707D01*
X179447Y803749D01*
X179743D01*
X180504Y803707D01*
X180843Y803665D01*
X181182Y803622D01*
X181436Y803538D01*
X181647Y803495D01*
X181774Y803453D01*
X181816D01*
X182536Y803241D01*
X182832Y803114D01*
X183128Y802988D01*
X183340Y802903D01*
X183509Y802818D01*
X183636Y802776D01*
X183678Y802734D01*
X184228Y802395D01*
X184694Y802057D01*
X184863Y801930D01*
X184990Y801803D01*
X185075Y801760D01*
X185117Y801718D01*
X185498Y801295D01*
X185836Y800914D01*
X186006Y800618D01*
X186090Y800575D01*
Y800533D01*
X186344Y800110D01*
X186556Y799687D01*
X186683Y799475D01*
X186725Y799348D01*
X186810Y799264D01*
Y799221D01*
X186894Y799560D01*
X186979Y799856D01*
X187064Y800152D01*
X187148Y800364D01*
X187233Y800533D01*
X187275Y800660D01*
X187318Y800702D01*
Y800745D01*
X187529Y801126D01*
X187783Y801464D01*
X187952Y801718D01*
X187994Y801760D01*
X188037Y801803D01*
X188375Y802184D01*
X188756Y802480D01*
X188925Y802564D01*
X189053Y802649D01*
X189137Y802734D01*
X189179D01*
X189729Y803030D01*
X190237Y803241D01*
X190491Y803326D01*
X190660Y803411D01*
X190787Y803453D01*
X190830D01*
X191549Y803622D01*
X191888Y803665D01*
X192226Y803707D01*
X192480Y803749D01*
X192861D01*
X193750Y803707D01*
D02*
G37*
G36*
X87112Y803665D02*
X88170Y803495D01*
X89101Y803241D01*
X89863Y802945D01*
X90498Y802649D01*
X90794Y802522D01*
X91005Y802395D01*
X91175Y802310D01*
X91302Y802226D01*
X91344Y802141D01*
X91386D01*
X92148Y801506D01*
X92783Y800872D01*
X93290Y800195D01*
X93756Y799560D01*
X94052Y799010D01*
X94306Y798587D01*
X94391Y798417D01*
X94433Y798290D01*
X94475Y798206D01*
Y798163D01*
X94771Y797233D01*
X95025Y796344D01*
X95195Y795455D01*
X95279Y794694D01*
X95364Y794016D01*
Y793720D01*
X95406Y793466D01*
Y793255D01*
Y793128D01*
Y793043D01*
Y793001D01*
X95364Y792239D01*
X95322Y791477D01*
X95237Y790800D01*
X95110Y790208D01*
X95025Y789743D01*
X94941Y789362D01*
X94899Y789108D01*
X94856Y789065D01*
Y789023D01*
X94602Y788346D01*
X94348Y787754D01*
X94052Y787161D01*
X93756Y786653D01*
X93460Y786273D01*
X93248Y785934D01*
X93079Y785765D01*
X93036Y785680D01*
X92529Y785172D01*
X91979Y784707D01*
X91471Y784368D01*
X90963Y784072D01*
X90540Y783860D01*
X90201Y783691D01*
X89990Y783607D01*
X89905Y783564D01*
X89186Y783353D01*
X88466Y783183D01*
X87747Y783099D01*
X87070Y783014D01*
X86520Y782972D01*
X86054Y782930D01*
X85674D01*
X84700Y782972D01*
X84235Y783014D01*
X83812Y783056D01*
X83473D01*
X83219Y783099D01*
X83050Y783141D01*
X83008D01*
X81992Y783310D01*
X81484Y783437D01*
X81019Y783522D01*
X80638Y783607D01*
X80342Y783691D01*
X80130Y783776D01*
X80045D01*
X79961Y784326D01*
X79876Y784834D01*
X79834Y785003D01*
Y785172D01*
X79791Y785257D01*
Y785299D01*
X80976Y784876D01*
X82077Y784580D01*
X83092Y784326D01*
X83981Y784199D01*
X84362Y784157D01*
X84700Y784114D01*
X84996Y784072D01*
X85250D01*
X85462Y784030D01*
X85716D01*
X86351Y784072D01*
X86943Y784114D01*
X87535Y784199D01*
X88001Y784326D01*
X88424Y784411D01*
X88763Y784495D01*
X88932Y784538D01*
X89017Y784580D01*
X89567Y784834D01*
X90117Y785130D01*
X90540Y785384D01*
X90963Y785680D01*
X91259Y785934D01*
X91513Y786146D01*
X91682Y786315D01*
X91725Y786357D01*
X92106Y786823D01*
X92444Y787330D01*
X92740Y787796D01*
X92952Y788261D01*
X93121Y788685D01*
X93290Y788981D01*
X93333Y789192D01*
X93375Y789277D01*
X93544Y789954D01*
X93671Y790589D01*
X93798Y791224D01*
X93841Y791774D01*
X93883Y792281D01*
X93925Y792620D01*
Y792874D01*
Y792959D01*
Y793212D01*
Y793551D01*
X93883Y794186D01*
Y794440D01*
X93841Y794694D01*
Y794863D01*
Y794905D01*
X78141D01*
X78099Y795244D01*
Y795498D01*
Y795709D01*
Y795794D01*
X78141Y796725D01*
X78268Y797571D01*
X78437Y798333D01*
X78607Y798967D01*
X78776Y799518D01*
X78945Y799898D01*
X79072Y800152D01*
X79114Y800237D01*
X79538Y800872D01*
X80003Y801422D01*
X80469Y801887D01*
X80892Y802268D01*
X81315Y802564D01*
X81653Y802734D01*
X81865Y802860D01*
X81907Y802903D01*
X81950D01*
X82627Y803199D01*
X83304Y803411D01*
X83981Y803538D01*
X84616Y803665D01*
X85123Y803707D01*
X85547Y803749D01*
X85927D01*
X87112Y803665D01*
D02*
G37*
G36*
X66377D02*
X67520Y803495D01*
X68493Y803284D01*
X68916Y803114D01*
X69339Y802988D01*
X69678Y802860D01*
X69974Y802691D01*
X70270Y802564D01*
X70482Y802480D01*
X70651Y802353D01*
X70778Y802310D01*
X70820Y802226D01*
X70863D01*
X71624Y801591D01*
X72259Y800956D01*
X72809Y800237D01*
X73232Y799602D01*
X73571Y799010D01*
X73825Y798502D01*
X73910Y798333D01*
X73952Y798206D01*
X73994Y798121D01*
Y798079D01*
X74333Y797105D01*
X74544Y796132D01*
X74714Y795201D01*
X74840Y794355D01*
X74925Y793636D01*
Y793339D01*
X74967Y793085D01*
Y792874D01*
Y792705D01*
Y792620D01*
Y792578D01*
X74925Y791816D01*
X74883Y791054D01*
X74798Y790377D01*
X74671Y789743D01*
X74544Y789235D01*
X74460Y788854D01*
X74417Y788600D01*
X74375Y788558D01*
Y788515D01*
X74121Y787838D01*
X73825Y787204D01*
X73486Y786696D01*
X73190Y786230D01*
X72894Y785849D01*
X72682Y785553D01*
X72513Y785384D01*
X72471Y785342D01*
X71963Y784918D01*
X71413Y784538D01*
X70905Y784199D01*
X70440Y783945D01*
X70016Y783734D01*
X69678Y783607D01*
X69466Y783522D01*
X69382Y783480D01*
X68705Y783310D01*
X68028Y783183D01*
X67393Y783056D01*
X66800Y783014D01*
X66293Y782972D01*
X65869Y782930D01*
X65531D01*
X64727Y782972D01*
X63881Y783014D01*
X63077Y783099D01*
X62357Y783183D01*
X61765Y783268D01*
X61469Y783310D01*
X61257Y783353D01*
X61088Y783395D01*
X60961Y783437D01*
X60834D01*
X60749Y783945D01*
X60665Y784453D01*
X60622Y784665D01*
X60580Y784834D01*
X60538Y784918D01*
Y784961D01*
X61172Y784791D01*
X61722Y784622D01*
X62188Y784495D01*
X62611Y784368D01*
X62950Y784284D01*
X63161Y784241D01*
X63330Y784199D01*
X63373D01*
X64177Y784114D01*
X64515Y784072D01*
X64812D01*
X65065Y784030D01*
X65446D01*
X66081Y784072D01*
X66716Y784114D01*
X67266Y784199D01*
X67774Y784326D01*
X68197Y784411D01*
X68493Y784495D01*
X68705Y784538D01*
X68789Y784580D01*
X69339Y784791D01*
X69847Y785045D01*
X70313Y785342D01*
X70693Y785595D01*
X71032Y785807D01*
X71244Y786019D01*
X71413Y786146D01*
X71455Y786188D01*
X71836Y786611D01*
X72132Y787076D01*
X72428Y787542D01*
X72640Y788008D01*
X72809Y788388D01*
X72936Y788685D01*
X72979Y788896D01*
X73021Y788981D01*
X73190Y789615D01*
X73275Y790293D01*
X73359Y790885D01*
X73444Y791477D01*
Y791943D01*
X73486Y792324D01*
Y792578D01*
Y792620D01*
Y792662D01*
Y793339D01*
X73402Y793974D01*
X73359Y794609D01*
X73275Y795159D01*
X73190Y795582D01*
X73148Y795963D01*
X73063Y796175D01*
Y796259D01*
X72852Y796936D01*
X72640Y797529D01*
X72386Y798121D01*
X72132Y798587D01*
X71878Y799010D01*
X71709Y799306D01*
X71582Y799475D01*
X71540Y799560D01*
X71117Y800068D01*
X70693Y800533D01*
X70228Y800914D01*
X69847Y801253D01*
X69466Y801506D01*
X69170Y801718D01*
X69001Y801803D01*
X68916Y801845D01*
X68281Y802099D01*
X67647Y802310D01*
X67012Y802437D01*
X66462Y802564D01*
X65954Y802607D01*
X65531Y802649D01*
X65192D01*
X64431Y802607D01*
X64092Y802564D01*
X63754D01*
X63500Y802522D01*
X63288Y802480D01*
X63119Y802437D01*
X63077D01*
X62611Y802353D01*
X62061Y802226D01*
X61511Y802099D01*
X61003Y801972D01*
X60538Y801845D01*
X60157Y801718D01*
X59903Y801676D01*
X59861Y801633D01*
X59818D01*
X59903Y802141D01*
X59945Y802607D01*
Y802776D01*
Y802903D01*
Y802988D01*
Y803030D01*
X60876Y803284D01*
X61765Y803453D01*
X62653Y803580D01*
X63415Y803665D01*
X64092Y803707D01*
X64388Y803749D01*
X65065D01*
X66377Y803665D01*
D02*
G37*
G36*
X53428Y807177D02*
X53852Y807134D01*
X54063Y807092D01*
X54190Y807050D01*
X54317D01*
Y806161D01*
X54359Y805399D01*
X54402Y804765D01*
Y804257D01*
X54444Y803834D01*
Y803538D01*
X54486Y803368D01*
Y803326D01*
X56856D01*
X56898Y802903D01*
Y802564D01*
X56941Y802310D01*
Y802268D01*
Y802226D01*
X54529D01*
X55206Y789108D01*
Y788727D01*
X55248Y788388D01*
Y788134D01*
Y787923D01*
Y787796D01*
Y787711D01*
Y787627D01*
Y787415D01*
Y787246D01*
Y787161D01*
Y787119D01*
X55206Y786484D01*
X55163Y785976D01*
X55121Y785765D01*
Y785595D01*
X55079Y785511D01*
Y785469D01*
X54910Y784918D01*
X54656Y784453D01*
X54529Y784284D01*
X54444Y784157D01*
X54402Y784072D01*
X54359Y784030D01*
X53894Y783649D01*
X53471Y783353D01*
X53259Y783268D01*
X53090Y783226D01*
X53005Y783183D01*
X52963D01*
X52286Y783056D01*
X51609Y782972D01*
X51355Y782930D01*
X50932D01*
X49916Y782972D01*
X49408Y783056D01*
X48943Y783141D01*
X48562Y783183D01*
X48224Y783268D01*
X48054Y783310D01*
X47970D01*
X47885Y783776D01*
X47800Y784199D01*
X47758Y784326D01*
Y784453D01*
X47716Y784538D01*
Y784580D01*
X48224Y784453D01*
X48689Y784368D01*
X49028Y784284D01*
X49324Y784199D01*
X49535Y784157D01*
X49704Y784114D01*
X49832D01*
X50255Y784072D01*
X50593Y784030D01*
X50932D01*
X51482Y784072D01*
X51947Y784199D01*
X52159Y784241D01*
X52286Y784284D01*
X52371Y784326D01*
X52413D01*
X52878Y784622D01*
X53217Y785003D01*
X53344Y785172D01*
X53428Y785299D01*
X53513Y785384D01*
Y785426D01*
X53640Y785765D01*
X53725Y786146D01*
X53852Y786907D01*
Y787288D01*
X53894Y787584D01*
Y787754D01*
Y787838D01*
X53852Y788642D01*
X53175Y802226D01*
X47292D01*
X47250Y802649D01*
X47208Y802988D01*
X47166Y803241D01*
Y803284D01*
Y803326D01*
X53132D01*
Y803495D01*
Y803707D01*
X53090Y804257D01*
Y804934D01*
X53047Y805611D01*
X53005Y806246D01*
Y806796D01*
X52963Y807008D01*
Y807177D01*
Y807262D01*
Y807304D01*
X53428Y807177D01*
D02*
G37*
G36*
X130444Y803707D02*
X130783Y803665D01*
X131121Y803622D01*
X131375Y803580D01*
X131587Y803538D01*
X131714Y803495D01*
X131756D01*
X132475Y803284D01*
X132772Y803157D01*
X133026Y803030D01*
X133279Y802945D01*
X133449Y802860D01*
X133533Y802818D01*
X133576Y802776D01*
X134126Y802395D01*
X134549Y802014D01*
X134718Y801845D01*
X134803Y801718D01*
X134888Y801633D01*
X134930Y801591D01*
X135141Y801295D01*
X135353Y800999D01*
X135734Y800322D01*
X135903Y800025D01*
X136030Y799771D01*
X136115Y799602D01*
X136157Y799560D01*
X135945Y803326D01*
X136242Y803284D01*
X136961D01*
X137215Y803326D01*
X137469D01*
X137426Y801506D01*
Y800956D01*
Y800364D01*
Y799729D01*
X137469Y799052D01*
X137511Y797656D01*
Y796259D01*
X137553Y795624D01*
Y795032D01*
X137596Y794482D01*
Y794016D01*
X137638Y793636D01*
Y793339D01*
Y793170D01*
Y793085D01*
X137680Y792070D01*
X137723Y791054D01*
X137765Y790081D01*
X137807Y789192D01*
X137850Y788346D01*
Y787500D01*
X137892Y786780D01*
X137934Y786103D01*
X137977Y785469D01*
Y784918D01*
X138019Y784453D01*
Y784030D01*
Y783734D01*
X138061Y783522D01*
Y783353D01*
Y783310D01*
X136496D01*
Y783734D01*
Y784199D01*
Y785215D01*
X136453Y786273D01*
Y787330D01*
Y787838D01*
Y788304D01*
X136411Y788685D01*
Y789065D01*
Y789362D01*
Y789573D01*
Y789743D01*
Y789785D01*
X136369Y790970D01*
X136326Y792028D01*
X136284Y793001D01*
X136242Y793889D01*
X136199Y794228D01*
Y794566D01*
X136157Y794863D01*
Y795074D01*
Y795286D01*
X136115Y795413D01*
Y795498D01*
Y795540D01*
X136072Y796132D01*
X135988Y796682D01*
X135903Y797148D01*
X135818Y797529D01*
X135734Y797867D01*
X135649Y798079D01*
X135607Y798248D01*
Y798290D01*
X135311Y798967D01*
X135141Y799306D01*
X134972Y799560D01*
X134845Y799771D01*
X134718Y799983D01*
X134676Y800068D01*
X134634Y800110D01*
X134168Y800702D01*
X133745Y801126D01*
X133618Y801253D01*
X133491Y801379D01*
X133406Y801464D01*
X133364D01*
X132856Y801803D01*
X132391Y802057D01*
X132221Y802141D01*
X132052Y802184D01*
X131968Y802226D01*
X131925D01*
X131333Y802395D01*
X130783Y802480D01*
X130529Y802522D01*
X130190D01*
X129429Y802480D01*
X129005Y802437D01*
X128667Y802353D01*
X128328Y802310D01*
X128075Y802226D01*
X127905Y802184D01*
X127863D01*
X127905Y802691D01*
X127948Y803114D01*
Y803284D01*
Y803411D01*
Y803495D01*
Y803538D01*
X128582Y803665D01*
X129090Y803707D01*
X129344Y803749D01*
X129640D01*
X130444Y803707D01*
D02*
G37*
G36*
X116988D02*
X117919Y803538D01*
X118807Y803368D01*
X119569Y803114D01*
X120204Y802903D01*
X120458Y802776D01*
X120669Y802691D01*
X120838Y802607D01*
X120965Y802522D01*
X121050Y802480D01*
X121092D01*
X121896Y801972D01*
X122616Y801337D01*
X123208Y800702D01*
X123716Y800068D01*
X124097Y799475D01*
X124393Y799010D01*
X124478Y798840D01*
X124562Y798714D01*
X124605Y798629D01*
Y798587D01*
X124985Y797571D01*
X125282Y796555D01*
X125493Y795582D01*
X125620Y794694D01*
X125705Y793889D01*
X125747Y793593D01*
X125789Y793297D01*
Y793043D01*
Y792874D01*
Y792789D01*
Y792747D01*
Y792070D01*
X125705Y791435D01*
X125662Y790843D01*
X125578Y790293D01*
X125493Y789869D01*
X125451Y789531D01*
X125366Y789319D01*
Y789235D01*
X125155Y788642D01*
X124943Y788092D01*
X124732Y787584D01*
X124520Y787161D01*
X124308Y786823D01*
X124139Y786526D01*
X124054Y786357D01*
X124012Y786315D01*
X123674Y785892D01*
X123293Y785469D01*
X122912Y785130D01*
X122616Y784876D01*
X122319Y784622D01*
X122108Y784453D01*
X121939Y784368D01*
X121896Y784326D01*
X121431Y784072D01*
X120965Y783860D01*
X120542Y783649D01*
X120161Y783522D01*
X119823Y783395D01*
X119527Y783310D01*
X119357Y783268D01*
X119315D01*
X118299Y783056D01*
X117834Y783014D01*
X117411Y782972D01*
X117030Y782930D01*
X116522D01*
X115760Y782972D01*
X115041Y783014D01*
X114406Y783099D01*
X113814Y783226D01*
X113348Y783353D01*
X112968Y783437D01*
X112756Y783480D01*
X112671Y783522D01*
X111994Y783776D01*
X111402Y784114D01*
X110852Y784453D01*
X110386Y784834D01*
X110005Y785130D01*
X109752Y785384D01*
X109540Y785553D01*
X109498Y785638D01*
X109032Y786230D01*
X108609Y786823D01*
X108228Y787457D01*
X107932Y788050D01*
X107720Y788558D01*
X107551Y788939D01*
X107509Y789108D01*
X107466Y789235D01*
X107424Y789277D01*
Y789319D01*
X107170Y790166D01*
X107001Y791012D01*
X106832Y791774D01*
X106747Y792493D01*
X106705Y793085D01*
X106662Y793551D01*
Y793720D01*
Y793847D01*
Y793932D01*
Y793974D01*
X106705Y794820D01*
X106789Y795582D01*
X106874Y796301D01*
X107001Y796936D01*
X107170Y797444D01*
X107255Y797867D01*
X107339Y798121D01*
X107382Y798163D01*
Y798206D01*
X107678Y798925D01*
X107974Y799560D01*
X108313Y800110D01*
X108609Y800618D01*
X108905Y800956D01*
X109159Y801253D01*
X109328Y801422D01*
X109371Y801464D01*
X109879Y801887D01*
X110386Y802268D01*
X110894Y802564D01*
X111402Y802776D01*
X111783Y802988D01*
X112121Y803114D01*
X112333Y803157D01*
X112417Y803199D01*
X113052Y803368D01*
X113687Y803538D01*
X114322Y803622D01*
X114830Y803665D01*
X115295Y803707D01*
X115676Y803749D01*
X115972D01*
X116988Y803707D01*
D02*
G37*
G36*
X273304Y766350D02*
X273347Y764784D01*
Y763261D01*
X273389Y762542D01*
Y761864D01*
Y761230D01*
X273431Y760637D01*
Y760129D01*
Y759664D01*
X273474Y759325D01*
Y759029D01*
Y758860D01*
Y758818D01*
X273855Y748958D01*
X273939Y747223D01*
X273981Y746419D01*
X274024Y745657D01*
X274066Y744938D01*
X274108Y744303D01*
X274151Y743668D01*
Y743118D01*
X274193Y742610D01*
X274235Y742145D01*
Y741764D01*
X274278Y741426D01*
Y741172D01*
X274320Y741002D01*
Y740875D01*
Y740833D01*
X272458D01*
X272500Y742907D01*
Y743076D01*
Y743288D01*
Y743753D01*
X272458Y744388D01*
Y745149D01*
Y745953D01*
X272416Y746800D01*
X272373Y748577D01*
X272331Y749466D01*
Y750312D01*
X272289Y751074D01*
Y751751D01*
Y752343D01*
X272246Y752766D01*
Y752936D01*
Y753063D01*
Y753105D01*
Y753147D01*
X272204Y754755D01*
X272120Y756236D01*
X272077Y757633D01*
X272035Y758945D01*
X271993Y760172D01*
X271908Y761272D01*
X271866Y762288D01*
X271823Y763176D01*
X271781Y763980D01*
Y764700D01*
X271739Y765292D01*
X271696Y765758D01*
Y766138D01*
X271654Y766435D01*
Y766604D01*
Y766646D01*
X270511Y766604D01*
X264672D01*
X263995Y766562D01*
X263402Y766519D01*
X262937Y766435D01*
X262598Y766392D01*
X262344Y766308D01*
X262218Y766265D01*
X262175D01*
X261498Y766011D01*
X261244Y765842D01*
X260990Y765673D01*
X260821Y765546D01*
X260694Y765419D01*
X260609Y765377D01*
X260567Y765334D01*
X260144Y764869D01*
X259806Y764361D01*
X259721Y764149D01*
X259636Y763980D01*
X259552Y763853D01*
Y763811D01*
X259340Y763092D01*
X259255Y762753D01*
X259213Y762457D01*
X259171Y762203D01*
Y761991D01*
Y761864D01*
Y761822D01*
X259213Y761272D01*
X259255Y760764D01*
X259382Y760256D01*
X259467Y759833D01*
X259594Y759452D01*
X259721Y759199D01*
X259763Y759029D01*
X259806Y758945D01*
X260059Y758479D01*
X260356Y758014D01*
X260652Y757633D01*
X260906Y757337D01*
X261160Y757040D01*
X261371Y756871D01*
X261498Y756744D01*
X261540Y756702D01*
X261964Y756406D01*
X262387Y756109D01*
X262852Y755898D01*
X263233Y755729D01*
X263614Y755602D01*
X263910Y755517D01*
X264079Y755432D01*
X264164D01*
X265349Y755221D01*
X265899Y755136D01*
X266364Y755094D01*
X266788D01*
X267126Y755051D01*
X267422D01*
X268650Y755094D01*
X269242Y755178D01*
X269792Y755221D01*
X270215Y755305D01*
X270596Y755348D01*
X270808Y755390D01*
X270892D01*
X270723Y754924D01*
X270639Y754544D01*
X270554Y754248D01*
X270511Y754205D01*
Y754163D01*
X269834Y754036D01*
X269200Y753951D01*
X268650Y753909D01*
X268142Y753867D01*
X267761Y753824D01*
X267169D01*
X266195Y753867D01*
X265264Y753951D01*
X264460Y754120D01*
X263741Y754290D01*
X263148Y754459D01*
X262725Y754628D01*
X262556Y754671D01*
X262429Y754713D01*
X262387Y754755D01*
X262344D01*
X261583Y755136D01*
X260906Y755602D01*
X260356Y756067D01*
X259848Y756490D01*
X259467Y756913D01*
X259171Y757252D01*
X259002Y757464D01*
X258959Y757548D01*
X258536Y758268D01*
X258240Y759029D01*
X257986Y759749D01*
X257859Y760426D01*
X257774Y761018D01*
X257690Y761484D01*
Y761653D01*
Y761780D01*
Y761864D01*
Y761907D01*
Y762414D01*
X257774Y762880D01*
X257859Y763303D01*
X257944Y763726D01*
X258028Y764023D01*
X258113Y764276D01*
X258155Y764446D01*
X258197Y764488D01*
X258409Y764911D01*
X258621Y765334D01*
X258874Y765673D01*
X259128Y765969D01*
X259340Y766223D01*
X259509Y766392D01*
X259636Y766519D01*
X259678Y766562D01*
X260059Y766858D01*
X260440Y767069D01*
X260779Y767281D01*
X261117Y767408D01*
X261413Y767493D01*
X261625Y767577D01*
X261794Y767619D01*
X261837D01*
X262302Y767704D01*
X262810Y767789D01*
X263360Y767831D01*
X263825D01*
X264291Y767873D01*
X264968D01*
X269369Y767831D01*
X273304Y767873D01*
Y766350D01*
D02*
G37*
G36*
X129810Y747604D02*
X129513Y746800D01*
X129302Y746123D01*
X129090Y745573D01*
X128921Y745149D01*
X128836Y744811D01*
X128752Y744557D01*
X128667Y744430D01*
Y744388D01*
X128498Y743880D01*
X128371Y743457D01*
X128328Y743288D01*
X128286Y743161D01*
X128244Y743076D01*
Y743034D01*
X127567Y740833D01*
X125324D01*
X124689Y742187D01*
X124012Y743584D01*
X123335Y744938D01*
X122743Y746207D01*
X122446Y746758D01*
X122192Y747265D01*
X121981Y747731D01*
X121769Y748112D01*
X121600Y748450D01*
X121473Y748662D01*
X121431Y748831D01*
X121389Y748873D01*
X116184Y758987D01*
X115676Y760003D01*
X115168Y761018D01*
X114703Y761907D01*
X114279Y762753D01*
X113856Y763557D01*
X113475Y764276D01*
X113095Y764954D01*
X112798Y765546D01*
X112502Y766096D01*
X112248Y766562D01*
X112037Y766942D01*
X111867Y767281D01*
X111698Y767535D01*
X111613Y767746D01*
X111529Y767831D01*
Y767873D01*
X111867Y767831D01*
X112798D01*
X113095Y767873D01*
X113391D01*
X113645Y767323D01*
X113898Y766815D01*
X114068Y766350D01*
X114237Y766011D01*
X114406Y765715D01*
X114491Y765504D01*
X114533Y765377D01*
X114576Y765334D01*
X115591Y763176D01*
X126340Y742018D01*
X134210Y764192D01*
X135353Y767873D01*
X135691Y767831D01*
X136538D01*
X136834Y767873D01*
X137130D01*
X129810Y747604D01*
D02*
G37*
G36*
X101585Y767493D02*
X102092Y767154D01*
X102558Y766858D01*
X102896Y766604D01*
X103193Y766435D01*
X103362Y766308D01*
X103489Y766265D01*
X103531Y766223D01*
Y765673D01*
X103573Y765207D01*
Y765038D01*
X103616Y764869D01*
Y764784D01*
Y764742D01*
X103023Y765123D01*
X102558Y765419D01*
X102177Y765715D01*
X101838Y765884D01*
X101627Y766054D01*
X101500Y766138D01*
X101415Y766223D01*
X101373D01*
Y765673D01*
Y765080D01*
X101415Y763769D01*
X101458Y762414D01*
Y761103D01*
X101500Y760468D01*
Y759918D01*
X101542Y759410D01*
Y758987D01*
X101585Y758606D01*
Y758352D01*
Y758141D01*
Y758098D01*
X101965Y748408D01*
X102008Y746842D01*
X102092Y745403D01*
Y744726D01*
X102135Y744091D01*
X102177Y743499D01*
X102219Y742991D01*
Y742526D01*
X102261Y742103D01*
Y741722D01*
X102304Y741426D01*
Y741172D01*
X102346Y740960D01*
Y740875D01*
Y740833D01*
X100611D01*
Y741383D01*
X100653Y741891D01*
Y742357D01*
Y742737D01*
Y743034D01*
Y743288D01*
Y743415D01*
Y743457D01*
Y744091D01*
Y744642D01*
Y744853D01*
Y745023D01*
Y745107D01*
Y745149D01*
X100569Y748746D01*
X99680Y767873D01*
X99934Y767831D01*
X100527D01*
X100738Y767873D01*
X100950D01*
X101585Y767493D01*
D02*
G37*
G36*
X159981Y768254D02*
X161251Y768170D01*
X162435Y768085D01*
X163493Y767958D01*
X164001Y767873D01*
X164424Y767789D01*
X164763Y767746D01*
X165101Y767704D01*
X165355Y767662D01*
X165525Y767619D01*
X165651Y767577D01*
X165694D01*
X165778Y767027D01*
X165863Y766519D01*
X165905Y766350D01*
Y766181D01*
X165948Y766096D01*
Y766054D01*
X164382Y766435D01*
X162943Y766689D01*
X162266Y766815D01*
X161674Y766900D01*
X161081Y766942D01*
X160574Y767027D01*
X160108Y767069D01*
X159685Y767112D01*
X159346D01*
X159050Y767154D01*
X158500D01*
X157611Y767112D01*
X157188Y767069D01*
X156850Y767027D01*
X156511Y766942D01*
X156300Y766900D01*
X156130Y766858D01*
X156088D01*
X155242Y766604D01*
X154903Y766435D01*
X154565Y766308D01*
X154311Y766138D01*
X154099Y766054D01*
X153972Y765969D01*
X153930Y765927D01*
X153591Y765673D01*
X153253Y765419D01*
X152999Y765165D01*
X152787Y764911D01*
X152660Y764700D01*
X152533Y764530D01*
X152449Y764446D01*
Y764403D01*
X152280Y764065D01*
X152195Y763726D01*
X152026Y763134D01*
Y762838D01*
X151983Y762626D01*
Y762499D01*
Y762457D01*
X152026Y761949D01*
X152068Y761484D01*
X152110Y761314D01*
Y761187D01*
X152153Y761103D01*
Y761060D01*
X152322Y760553D01*
X152576Y760003D01*
X152703Y759749D01*
X152787Y759579D01*
X152830Y759452D01*
X152872Y759410D01*
X153168Y758860D01*
X153507Y758352D01*
X153845Y757802D01*
X154141Y757337D01*
X154438Y756913D01*
X154691Y756575D01*
X154861Y756363D01*
X154903Y756279D01*
X155411Y755602D01*
X155919Y754967D01*
X156426Y754332D01*
X156892Y753740D01*
X157273Y753232D01*
X157611Y752809D01*
X157823Y752555D01*
X157908Y752513D01*
Y752470D01*
X158585Y751666D01*
X159346Y750820D01*
X160108Y749974D01*
X160827Y749169D01*
X161504Y748450D01*
X161758Y748112D01*
X162012Y747858D01*
X162224Y747646D01*
X162351Y747477D01*
X162435Y747392D01*
X162478Y747350D01*
X163282Y746504D01*
X164086Y745615D01*
X164890Y744769D01*
X165609Y744007D01*
X166286Y743330D01*
X166540Y743034D01*
X166794Y742780D01*
X167006Y742568D01*
X167133Y742441D01*
X167217Y742357D01*
X167260Y742314D01*
Y741806D01*
Y741468D01*
Y741129D01*
X167302Y740918D01*
Y740875D01*
Y740833D01*
X151645D01*
Y741341D01*
X151602Y741764D01*
Y741933D01*
X151560Y742060D01*
Y742103D01*
Y742145D01*
X151899Y742103D01*
X152407D01*
X152576Y742060D01*
X152830D01*
X153718Y742018D01*
X154268Y741976D01*
X155326D01*
X157358Y741933D01*
X159896D01*
X162181Y741891D01*
X163493D01*
X164128Y741933D01*
X165186D01*
X165525Y741976D01*
X165863D01*
X164720Y743118D01*
X163663Y744219D01*
X162689Y745192D01*
X161885Y746080D01*
X161504Y746461D01*
X161208Y746758D01*
X160912Y747054D01*
X160700Y747308D01*
X160531Y747519D01*
X160404Y747646D01*
X160320Y747731D01*
X160277Y747773D01*
X159389Y748789D01*
X158542Y749720D01*
X157738Y750651D01*
X157061Y751455D01*
X156469Y752132D01*
X156257Y752385D01*
X156046Y752639D01*
X155876Y752851D01*
X155749Y752978D01*
X155707Y753063D01*
X155665Y753105D01*
X154903Y754078D01*
X154268Y754882D01*
X153718Y755602D01*
X153295Y756152D01*
X152957Y756617D01*
X152745Y756913D01*
X152618Y757125D01*
X152576Y757167D01*
X152237Y757675D01*
X151983Y758141D01*
X151729Y758606D01*
X151518Y758987D01*
X151391Y759283D01*
X151264Y759537D01*
X151179Y759706D01*
Y759749D01*
X150968Y760256D01*
X150841Y760680D01*
X150798Y760849D01*
X150756Y760976D01*
X150714Y761060D01*
Y761103D01*
X150629Y761653D01*
X150545Y762118D01*
Y762330D01*
Y762499D01*
Y762584D01*
Y762626D01*
X150587Y763092D01*
X150629Y763557D01*
X150714Y763938D01*
X150841Y764319D01*
X150968Y764573D01*
X151052Y764827D01*
X151095Y764954D01*
X151137Y764996D01*
X151391Y765377D01*
X151645Y765758D01*
X151941Y766054D01*
X152237Y766350D01*
X152491Y766562D01*
X152703Y766731D01*
X152830Y766815D01*
X152872Y766858D01*
X153761Y767365D01*
X154226Y767535D01*
X154649Y767704D01*
X154988Y767831D01*
X155284Y767916D01*
X155453Y767958D01*
X155538D01*
X156680Y768170D01*
X157188Y768212D01*
X157654Y768254D01*
X158077Y768297D01*
X158669D01*
X159981Y768254D01*
D02*
G37*
G36*
X148132Y751412D02*
X148175Y750947D01*
Y750778D01*
X148217Y750608D01*
Y750524D01*
Y750481D01*
X147371Y750524D01*
X146524Y750566D01*
X145763D01*
X145043Y750608D01*
X141658D01*
X140854Y750566D01*
X140135D01*
X139542Y750524D01*
X139119D01*
X138950Y750481D01*
X138738D01*
X138696Y750947D01*
X138654Y751412D01*
Y751624D01*
X138611Y751793D01*
Y751878D01*
Y751920D01*
X139458Y751878D01*
X141108D01*
X141870Y751835D01*
X145213D01*
X146017Y751878D01*
X147329D01*
X147752Y751920D01*
X148132D01*
Y751412D01*
D02*
G37*
G36*
X246349Y768212D02*
X246772Y768170D01*
X247195Y768085D01*
X247534Y768000D01*
X247788Y767958D01*
X247957Y767873D01*
X247999D01*
X248465Y767704D01*
X248930Y767493D01*
X249311Y767239D01*
X249692Y767027D01*
X249988Y766815D01*
X250200Y766646D01*
X250369Y766519D01*
X250411Y766477D01*
X250792Y766096D01*
X251173Y765758D01*
X251469Y765377D01*
X251723Y765038D01*
X251935Y764742D01*
X252104Y764488D01*
X252188Y764319D01*
X252231Y764276D01*
X252696Y763303D01*
X252908Y762838D01*
X253077Y762414D01*
X253246Y762034D01*
X253373Y761738D01*
X253416Y761568D01*
X253458Y761484D01*
X253797Y760256D01*
X253966Y759664D01*
X254050Y759114D01*
X254177Y758648D01*
X254262Y758268D01*
X254304Y758014D01*
Y757971D01*
Y757929D01*
X254431Y756871D01*
X254558Y755855D01*
X254643Y754882D01*
X254685Y754036D01*
Y753274D01*
X254727Y752978D01*
Y752724D01*
Y752513D01*
Y752343D01*
Y752259D01*
Y752216D01*
Y751455D01*
X254685Y750693D01*
X254601Y750016D01*
X254558Y749423D01*
X254474Y748873D01*
X254431Y748492D01*
X254389Y748239D01*
Y748196D01*
Y748154D01*
X254262Y747434D01*
X254093Y746758D01*
X253881Y746123D01*
X253712Y745615D01*
X253543Y745192D01*
X253416Y744853D01*
X253331Y744642D01*
X253289Y744557D01*
X252992Y744007D01*
X252654Y743499D01*
X252316Y743034D01*
X252019Y742695D01*
X251765Y742399D01*
X251511Y742187D01*
X251385Y742060D01*
X251342Y742018D01*
X250919Y741680D01*
X250496Y741426D01*
X250115Y741214D01*
X249734Y741045D01*
X249438Y740918D01*
X249226Y740833D01*
X249057Y740749D01*
X249015D01*
X248084Y740537D01*
X247661Y740495D01*
X247280Y740452D01*
X246941Y740410D01*
X246476D01*
X245630Y740452D01*
X244868Y740579D01*
X244148Y740749D01*
X243556Y740918D01*
X243048Y741087D01*
X242667Y741256D01*
X242456Y741383D01*
X242371Y741426D01*
X241736Y741891D01*
X241144Y742399D01*
X240636Y742949D01*
X240213Y743499D01*
X239874Y744007D01*
X239621Y744388D01*
X239536Y744557D01*
X239451Y744684D01*
X239409Y744726D01*
Y744769D01*
X238986Y745657D01*
X238647Y746546D01*
X238351Y747434D01*
X238139Y748239D01*
X237970Y748916D01*
X237886Y749212D01*
X237801Y749466D01*
X237759Y749677D01*
Y749847D01*
X237716Y749931D01*
Y749974D01*
X237547Y751074D01*
X237378Y752132D01*
X237293Y753147D01*
X237251Y754036D01*
X237208Y754459D01*
Y754798D01*
X237166Y755136D01*
Y755390D01*
Y755602D01*
Y755771D01*
Y755855D01*
Y755898D01*
Y756702D01*
X237208Y757464D01*
X237251Y758141D01*
X237335Y758775D01*
X237378Y759283D01*
X237462Y759664D01*
X237505Y759918D01*
Y760003D01*
X237632Y760722D01*
X237801Y761399D01*
X237970Y762034D01*
X238139Y762584D01*
X238266Y763007D01*
X238393Y763345D01*
X238478Y763557D01*
X238520Y763642D01*
X238817Y764234D01*
X239113Y764784D01*
X239409Y765250D01*
X239705Y765631D01*
X239959Y765927D01*
X240171Y766181D01*
X240298Y766308D01*
X240340Y766350D01*
X240721Y766689D01*
X241144Y767027D01*
X241525Y767281D01*
X241863Y767493D01*
X242160Y767619D01*
X242413Y767746D01*
X242583Y767831D01*
X242625D01*
X243090Y768000D01*
X243556Y768085D01*
X244021Y768170D01*
X244445Y768254D01*
X244783D01*
X245079Y768297D01*
X245333D01*
X246349Y768212D01*
D02*
G37*
G36*
X224598D02*
X225021Y768170D01*
X225445Y768085D01*
X225783Y768000D01*
X226037Y767958D01*
X226206Y767873D01*
X226249D01*
X226714Y767704D01*
X227180Y767493D01*
X227560Y767239D01*
X227941Y767027D01*
X228237Y766815D01*
X228449Y766646D01*
X228618Y766519D01*
X228661Y766477D01*
X229042Y766096D01*
X229422Y765758D01*
X229718Y765377D01*
X229972Y765038D01*
X230184Y764742D01*
X230353Y764488D01*
X230438Y764319D01*
X230480Y764276D01*
X230946Y763303D01*
X231157Y762838D01*
X231327Y762414D01*
X231496Y762034D01*
X231623Y761738D01*
X231665Y761568D01*
X231707Y761484D01*
X232046Y760256D01*
X232215Y759664D01*
X232300Y759114D01*
X232427Y758648D01*
X232511Y758268D01*
X232554Y758014D01*
Y757971D01*
Y757929D01*
X232681Y756871D01*
X232808Y755855D01*
X232892Y754882D01*
X232935Y754036D01*
Y753274D01*
X232977Y752978D01*
Y752724D01*
Y752513D01*
Y752343D01*
Y752259D01*
Y752216D01*
Y751455D01*
X232935Y750693D01*
X232850Y750016D01*
X232808Y749423D01*
X232723Y748873D01*
X232681Y748492D01*
X232638Y748239D01*
Y748196D01*
Y748154D01*
X232511Y747434D01*
X232342Y746758D01*
X232131Y746123D01*
X231961Y745615D01*
X231792Y745192D01*
X231665Y744853D01*
X231580Y744642D01*
X231538Y744557D01*
X231242Y744007D01*
X230903Y743499D01*
X230565Y743034D01*
X230269Y742695D01*
X230015Y742399D01*
X229761Y742187D01*
X229634Y742060D01*
X229592Y742018D01*
X229168Y741680D01*
X228745Y741426D01*
X228364Y741214D01*
X227983Y741045D01*
X227687Y740918D01*
X227476Y740833D01*
X227306Y740749D01*
X227264D01*
X226333Y740537D01*
X225910Y740495D01*
X225529Y740452D01*
X225191Y740410D01*
X224725D01*
X223879Y740452D01*
X223117Y740579D01*
X222398Y740749D01*
X221805Y740918D01*
X221298Y741087D01*
X220917Y741256D01*
X220705Y741383D01*
X220620Y741426D01*
X219986Y741891D01*
X219393Y742399D01*
X218885Y742949D01*
X218462Y743499D01*
X218124Y744007D01*
X217870Y744388D01*
X217785Y744557D01*
X217701Y744684D01*
X217658Y744726D01*
Y744769D01*
X217235Y745657D01*
X216897Y746546D01*
X216600Y747434D01*
X216389Y748239D01*
X216220Y748916D01*
X216135Y749212D01*
X216050Y749466D01*
X216008Y749677D01*
Y749847D01*
X215966Y749931D01*
Y749974D01*
X215796Y751074D01*
X215627Y752132D01*
X215543Y753147D01*
X215500Y754036D01*
X215458Y754459D01*
Y754798D01*
X215416Y755136D01*
Y755390D01*
Y755602D01*
Y755771D01*
Y755855D01*
Y755898D01*
Y756702D01*
X215458Y757464D01*
X215500Y758141D01*
X215585Y758775D01*
X215627Y759283D01*
X215712Y759664D01*
X215754Y759918D01*
Y760003D01*
X215881Y760722D01*
X216050Y761399D01*
X216220Y762034D01*
X216389Y762584D01*
X216516Y763007D01*
X216643Y763345D01*
X216727Y763557D01*
X216770Y763642D01*
X217066Y764234D01*
X217362Y764784D01*
X217658Y765250D01*
X217955Y765631D01*
X218209Y765927D01*
X218420Y766181D01*
X218547Y766308D01*
X218589Y766350D01*
X218970Y766689D01*
X219393Y767027D01*
X219774Y767281D01*
X220113Y767493D01*
X220409Y767619D01*
X220663Y767746D01*
X220832Y767831D01*
X220874D01*
X221340Y768000D01*
X221805Y768085D01*
X222271Y768170D01*
X222694Y768254D01*
X223032D01*
X223329Y768297D01*
X223583D01*
X224598Y768212D01*
D02*
G37*
G36*
X202848D02*
X203271Y768170D01*
X203694Y768085D01*
X204032Y768000D01*
X204286Y767958D01*
X204456Y767873D01*
X204498D01*
X204963Y767704D01*
X205429Y767493D01*
X205810Y767239D01*
X206191Y767027D01*
X206487Y766815D01*
X206698Y766646D01*
X206868Y766519D01*
X206910Y766477D01*
X207291Y766096D01*
X207672Y765758D01*
X207968Y765377D01*
X208222Y765038D01*
X208433Y764742D01*
X208603Y764488D01*
X208687Y764319D01*
X208730Y764276D01*
X209195Y763303D01*
X209407Y762838D01*
X209576Y762414D01*
X209745Y762034D01*
X209872Y761738D01*
X209914Y761568D01*
X209957Y761484D01*
X210295Y760256D01*
X210465Y759664D01*
X210549Y759114D01*
X210676Y758648D01*
X210761Y758268D01*
X210803Y758014D01*
Y757971D01*
Y757929D01*
X210930Y756871D01*
X211057Y755855D01*
X211142Y754882D01*
X211184Y754036D01*
Y753274D01*
X211226Y752978D01*
Y752724D01*
Y752513D01*
Y752343D01*
Y752259D01*
Y752216D01*
Y751455D01*
X211184Y750693D01*
X211099Y750016D01*
X211057Y749423D01*
X210972Y748873D01*
X210930Y748492D01*
X210888Y748239D01*
Y748196D01*
Y748154D01*
X210761Y747434D01*
X210592Y746758D01*
X210380Y746123D01*
X210211Y745615D01*
X210041Y745192D01*
X209914Y744853D01*
X209830Y744642D01*
X209788Y744557D01*
X209491Y744007D01*
X209153Y743499D01*
X208814Y743034D01*
X208518Y742695D01*
X208264Y742399D01*
X208010Y742187D01*
X207883Y742060D01*
X207841Y742018D01*
X207418Y741680D01*
X206995Y741426D01*
X206614Y741214D01*
X206233Y741045D01*
X205937Y740918D01*
X205725Y740833D01*
X205556Y740749D01*
X205513D01*
X204583Y740537D01*
X204159Y740495D01*
X203779Y740452D01*
X203440Y740410D01*
X202974D01*
X202128Y740452D01*
X201367Y740579D01*
X200647Y740749D01*
X200055Y740918D01*
X199547Y741087D01*
X199166Y741256D01*
X198955Y741383D01*
X198870Y741426D01*
X198235Y741891D01*
X197643Y742399D01*
X197135Y742949D01*
X196712Y743499D01*
X196373Y744007D01*
X196119Y744388D01*
X196035Y744557D01*
X195950Y744684D01*
X195908Y744726D01*
Y744769D01*
X195485Y745657D01*
X195146Y746546D01*
X194850Y747434D01*
X194638Y748239D01*
X194469Y748916D01*
X194384Y749212D01*
X194300Y749466D01*
X194257Y749677D01*
Y749847D01*
X194215Y749931D01*
Y749974D01*
X194046Y751074D01*
X193876Y752132D01*
X193792Y753147D01*
X193750Y754036D01*
X193707Y754459D01*
Y754798D01*
X193665Y755136D01*
Y755390D01*
Y755602D01*
Y755771D01*
Y755855D01*
Y755898D01*
Y756702D01*
X193707Y757464D01*
X193750Y758141D01*
X193834Y758775D01*
X193876Y759283D01*
X193961Y759664D01*
X194004Y759918D01*
Y760003D01*
X194130Y760722D01*
X194300Y761399D01*
X194469Y762034D01*
X194638Y762584D01*
X194765Y763007D01*
X194892Y763345D01*
X194977Y763557D01*
X195019Y763642D01*
X195315Y764234D01*
X195611Y764784D01*
X195908Y765250D01*
X196204Y765631D01*
X196458Y765927D01*
X196669Y766181D01*
X196796Y766308D01*
X196839Y766350D01*
X197220Y766689D01*
X197643Y767027D01*
X198023Y767281D01*
X198362Y767493D01*
X198658Y767619D01*
X198912Y767746D01*
X199081Y767831D01*
X199124D01*
X199589Y768000D01*
X200055Y768085D01*
X200520Y768170D01*
X200943Y768254D01*
X201282D01*
X201578Y768297D01*
X201832D01*
X202848Y768212D01*
D02*
G37*
G36*
X181097D02*
X181520Y768170D01*
X181943Y768085D01*
X182282Y768000D01*
X182536Y767958D01*
X182705Y767873D01*
X182747D01*
X183213Y767704D01*
X183678Y767493D01*
X184059Y767239D01*
X184440Y767027D01*
X184736Y766815D01*
X184948Y766646D01*
X185117Y766519D01*
X185159Y766477D01*
X185540Y766096D01*
X185921Y765758D01*
X186217Y765377D01*
X186471Y765038D01*
X186683Y764742D01*
X186852Y764488D01*
X186937Y764319D01*
X186979Y764276D01*
X187444Y763303D01*
X187656Y762838D01*
X187825Y762414D01*
X187994Y762034D01*
X188121Y761738D01*
X188164Y761568D01*
X188206Y761484D01*
X188545Y760256D01*
X188714Y759664D01*
X188799Y759114D01*
X188925Y758648D01*
X189010Y758268D01*
X189053Y758014D01*
Y757971D01*
Y757929D01*
X189179Y756871D01*
X189306Y755855D01*
X189391Y754882D01*
X189433Y754036D01*
Y753274D01*
X189476Y752978D01*
Y752724D01*
Y752513D01*
Y752343D01*
Y752259D01*
Y752216D01*
Y751455D01*
X189433Y750693D01*
X189349Y750016D01*
X189306Y749423D01*
X189222Y748873D01*
X189179Y748492D01*
X189137Y748239D01*
Y748196D01*
Y748154D01*
X189010Y747434D01*
X188841Y746758D01*
X188629Y746123D01*
X188460Y745615D01*
X188291Y745192D01*
X188164Y744853D01*
X188079Y744642D01*
X188037Y744557D01*
X187741Y744007D01*
X187402Y743499D01*
X187064Y743034D01*
X186767Y742695D01*
X186514Y742399D01*
X186260Y742187D01*
X186133Y742060D01*
X186090Y742018D01*
X185667Y741680D01*
X185244Y741426D01*
X184863Y741214D01*
X184482Y741045D01*
X184186Y740918D01*
X183974Y740833D01*
X183805Y740749D01*
X183763D01*
X182832Y740537D01*
X182409Y740495D01*
X182028Y740452D01*
X181689Y740410D01*
X181224D01*
X180378Y740452D01*
X179616Y740579D01*
X178897Y740749D01*
X178304Y740918D01*
X177796Y741087D01*
X177415Y741256D01*
X177204Y741383D01*
X177119Y741426D01*
X176485Y741891D01*
X175892Y742399D01*
X175384Y742949D01*
X174961Y743499D01*
X174623Y744007D01*
X174369Y744388D01*
X174284Y744557D01*
X174199Y744684D01*
X174157Y744726D01*
Y744769D01*
X173734Y745657D01*
X173395Y746546D01*
X173099Y747434D01*
X172888Y748239D01*
X172718Y748916D01*
X172634Y749212D01*
X172549Y749466D01*
X172507Y749677D01*
Y749847D01*
X172464Y749931D01*
Y749974D01*
X172295Y751074D01*
X172126Y752132D01*
X172041Y753147D01*
X171999Y754036D01*
X171957Y754459D01*
Y754798D01*
X171914Y755136D01*
Y755390D01*
Y755602D01*
Y755771D01*
Y755855D01*
Y755898D01*
Y756702D01*
X171957Y757464D01*
X171999Y758141D01*
X172084Y758775D01*
X172126Y759283D01*
X172211Y759664D01*
X172253Y759918D01*
Y760003D01*
X172380Y760722D01*
X172549Y761399D01*
X172718Y762034D01*
X172888Y762584D01*
X173015Y763007D01*
X173141Y763345D01*
X173226Y763557D01*
X173268Y763642D01*
X173565Y764234D01*
X173861Y764784D01*
X174157Y765250D01*
X174453Y765631D01*
X174707Y765927D01*
X174919Y766181D01*
X175046Y766308D01*
X175088Y766350D01*
X175469Y766689D01*
X175892Y767027D01*
X176273Y767281D01*
X176611Y767493D01*
X176908Y767619D01*
X177162Y767746D01*
X177331Y767831D01*
X177373D01*
X177839Y768000D01*
X178304Y768085D01*
X178770Y768170D01*
X179193Y768254D01*
X179531D01*
X179827Y768297D01*
X180081D01*
X181097Y768212D01*
D02*
G37*
%LPC*%
G36*
X259721Y809123D02*
X255574Y797529D01*
X265645D01*
X259721Y809123D01*
D02*
G37*
G36*
X229253Y788346D02*
Y788304D01*
X229256Y788300D01*
X229253Y788346D01*
D02*
G37*
G36*
X233739Y802649D02*
X232638D01*
X232342Y802607D01*
X232046D01*
X231792Y802564D01*
X231580D01*
X231453Y802522D01*
X231411D01*
X230607Y802395D01*
X230184Y802310D01*
X229803Y802184D01*
X229465Y802099D01*
X229211Y802057D01*
X228999Y801972D01*
X228957D01*
X229168Y795328D01*
X229211Y794313D01*
X229295Y793466D01*
X229338Y792705D01*
X229422Y792112D01*
X229465Y791647D01*
X229507Y791308D01*
X229549Y791139D01*
Y791054D01*
X229761Y790081D01*
X229930Y789658D01*
X230057Y789277D01*
X230184Y788981D01*
X230269Y788727D01*
X230311Y788558D01*
X230353Y788515D01*
X230776Y787711D01*
X230988Y787330D01*
X231200Y787034D01*
X231369Y786780D01*
X231496Y786611D01*
X231580Y786484D01*
X231623Y786442D01*
X232173Y785892D01*
X232638Y785469D01*
X232850Y785299D01*
X233019Y785172D01*
X233104Y785130D01*
X233146Y785088D01*
X233739Y784749D01*
X234331Y784495D01*
X234543Y784411D01*
X234754Y784326D01*
X234881Y784284D01*
X234923D01*
X235685Y784157D01*
X236066Y784072D01*
X236404D01*
X236701Y784030D01*
X237124D01*
X237843Y784072D01*
X238563Y784157D01*
X239197Y784326D01*
X239705Y784495D01*
X240171Y784622D01*
X240509Y784791D01*
X240721Y784876D01*
X240805Y784918D01*
X241398Y785299D01*
X241906Y785765D01*
X242329Y786230D01*
X242710Y786696D01*
X242964Y787119D01*
X243175Y787457D01*
X243302Y787669D01*
X243344Y787754D01*
X243641Y788515D01*
X243852Y789235D01*
X244021Y789954D01*
X244106Y790631D01*
X244191Y791181D01*
X244233Y791647D01*
Y791816D01*
Y791943D01*
Y791985D01*
Y792028D01*
X244191Y792832D01*
X244106Y793593D01*
X243979Y794313D01*
X243810Y794947D01*
X243683Y795498D01*
X243556Y795921D01*
X243514Y796090D01*
X243471Y796217D01*
X243429Y796259D01*
Y796301D01*
X243090Y797105D01*
X242752Y797783D01*
X242371Y798417D01*
X241990Y798967D01*
X241652Y799391D01*
X241398Y799687D01*
X241229Y799856D01*
X241144Y799941D01*
X240551Y800449D01*
X239959Y800872D01*
X239367Y801210D01*
X238774Y801506D01*
X238309Y801718D01*
X237928Y801887D01*
X237674Y801972D01*
X237632Y802014D01*
X237589D01*
X236828Y802226D01*
X236066Y802395D01*
X235347Y802480D01*
X234712Y802564D01*
X234162Y802607D01*
X233739Y802649D01*
D02*
G37*
G36*
X86181D02*
X85800D01*
X85123Y802607D01*
X84785Y802564D01*
X84531D01*
X84319Y802522D01*
X84108Y802480D01*
X84023Y802437D01*
X83981D01*
X83346Y802268D01*
X82881Y802057D01*
X82669Y801972D01*
X82542Y801930D01*
X82457Y801845D01*
X82415D01*
X81907Y801549D01*
X81526Y801210D01*
X81273Y800956D01*
X81230Y800914D01*
X81188Y800872D01*
X80807Y800449D01*
X80511Y800025D01*
X80426Y799814D01*
X80342Y799687D01*
X80257Y799602D01*
Y799560D01*
X80003Y799010D01*
X79876Y798502D01*
X79791Y798333D01*
Y798163D01*
X79749Y798079D01*
Y798036D01*
X79707Y797740D01*
X79665Y797402D01*
X79622Y796725D01*
X79580Y796429D01*
Y796175D01*
Y796005D01*
Y795963D01*
X93629Y796005D01*
X93544Y796429D01*
X93460Y796809D01*
X93375Y797105D01*
X93290Y797402D01*
X93206Y797571D01*
X93163Y797740D01*
X93121Y797825D01*
Y797867D01*
X92910Y798375D01*
X92656Y798840D01*
X92571Y799010D01*
X92486Y799137D01*
X92402Y799221D01*
Y799264D01*
X92021Y799814D01*
X91640Y800237D01*
X91471Y800406D01*
X91344Y800533D01*
X91259Y800618D01*
X91217Y800660D01*
X90667Y801126D01*
X90201Y801464D01*
X89990Y801549D01*
X89820Y801633D01*
X89736Y801718D01*
X89693D01*
X89059Y802014D01*
X88424Y802226D01*
X88212Y802310D01*
X88001Y802353D01*
X87874Y802395D01*
X87832D01*
X87070Y802564D01*
X86731Y802607D01*
X86435D01*
X86181Y802649D01*
D02*
G37*
G36*
X116395D02*
X115464D01*
X114914Y802564D01*
X114406Y802522D01*
X113941Y802437D01*
X113602Y802353D01*
X113306Y802268D01*
X113095Y802226D01*
X113052Y802184D01*
X112502Y802014D01*
X112037Y801760D01*
X111571Y801506D01*
X111190Y801253D01*
X110852Y801041D01*
X110640Y800829D01*
X110471Y800702D01*
X110429Y800660D01*
X110005Y800237D01*
X109667Y799771D01*
X109371Y799306D01*
X109117Y798840D01*
X108947Y798417D01*
X108778Y798079D01*
X108736Y797867D01*
X108694Y797825D01*
Y797783D01*
X108524Y797105D01*
X108355Y796429D01*
X108270Y795794D01*
X108228Y795201D01*
X108186Y794694D01*
X108144Y794313D01*
Y794059D01*
Y794016D01*
Y793974D01*
X108186Y793170D01*
X108228Y792408D01*
X108313Y791689D01*
X108440Y791054D01*
X108567Y790546D01*
X108651Y790123D01*
X108694Y789869D01*
X108736Y789827D01*
Y789785D01*
X108947Y789065D01*
X109244Y788431D01*
X109540Y787880D01*
X109794Y787415D01*
X110048Y787034D01*
X110259Y786738D01*
X110429Y786526D01*
X110471Y786484D01*
X110894Y786019D01*
X111360Y785638D01*
X111825Y785299D01*
X112248Y785045D01*
X112629Y784834D01*
X112925Y784707D01*
X113095Y784622D01*
X113179Y784580D01*
X113772Y784411D01*
X114322Y784284D01*
X114872Y784157D01*
X115380Y784114D01*
X115845Y784072D01*
X116184Y784030D01*
X116480D01*
X117072Y784072D01*
X117622Y784114D01*
X118088Y784199D01*
X118553Y784284D01*
X118934Y784368D01*
X119188Y784411D01*
X119357Y784495D01*
X119442D01*
X119950Y784707D01*
X120458Y784961D01*
X120881Y785215D01*
X121262Y785511D01*
X121600Y785765D01*
X121854Y785934D01*
X122023Y786103D01*
X122066Y786146D01*
X122489Y786611D01*
X122827Y787119D01*
X123124Y787584D01*
X123377Y788050D01*
X123547Y788473D01*
X123674Y788769D01*
X123758Y788981D01*
X123801Y789065D01*
X123970Y789743D01*
X124097Y790419D01*
X124181Y791012D01*
X124224Y791604D01*
X124266Y792070D01*
X124308Y792451D01*
Y792705D01*
Y792789D01*
X124266Y793847D01*
X124181Y794778D01*
X124012Y795667D01*
X123843Y796429D01*
X123674Y797063D01*
X123589Y797317D01*
X123504Y797529D01*
X123462Y797740D01*
X123420Y797867D01*
X123377Y797909D01*
Y797952D01*
X122997Y798798D01*
X122531Y799518D01*
X122023Y800110D01*
X121558Y800618D01*
X121092Y800999D01*
X120754Y801253D01*
X120500Y801422D01*
X120458Y801464D01*
X120415D01*
X119654Y801845D01*
X118849Y802141D01*
X118130Y802353D01*
X117453Y802522D01*
X116861Y802607D01*
X116395Y802649D01*
D02*
G37*
G36*
X245630Y767154D02*
X245333D01*
X244783Y767112D01*
X244233Y767027D01*
X243768Y766900D01*
X243344Y766773D01*
X243006Y766604D01*
X242752Y766477D01*
X242583Y766392D01*
X242540Y766350D01*
X242117Y766054D01*
X241694Y765715D01*
X241355Y765377D01*
X241102Y765038D01*
X240848Y764742D01*
X240679Y764530D01*
X240594Y764361D01*
X240551Y764319D01*
X240255Y763811D01*
X240001Y763303D01*
X239790Y762753D01*
X239578Y762245D01*
X239451Y761780D01*
X239324Y761441D01*
X239282Y761187D01*
X239240Y761145D01*
Y761103D01*
X239070Y760299D01*
X238944Y759495D01*
X238859Y758648D01*
X238774Y757844D01*
Y757125D01*
X238732Y756829D01*
Y756575D01*
Y756363D01*
Y756194D01*
Y756109D01*
Y756067D01*
Y755051D01*
X238817Y754078D01*
X238859Y753190D01*
X238944Y752385D01*
X239028Y751666D01*
X239070Y751412D01*
Y751158D01*
X239113Y750947D01*
X239155Y750820D01*
Y750735D01*
Y750693D01*
X239324Y749720D01*
X239536Y748789D01*
X239748Y747985D01*
X240001Y747223D01*
X240213Y746630D01*
X240382Y746165D01*
X240467Y745996D01*
X240509Y745869D01*
X240551Y745826D01*
Y745784D01*
X240932Y745023D01*
X241355Y744345D01*
X241779Y743795D01*
X242160Y743372D01*
X242498Y742991D01*
X242794Y742780D01*
X242964Y742610D01*
X243048Y742568D01*
X243598Y742230D01*
X244191Y741976D01*
X244741Y741806D01*
X245291Y741680D01*
X245714Y741595D01*
X246095Y741553D01*
X246391D01*
X246984Y741595D01*
X247576Y741680D01*
X248084Y741806D01*
X248549Y741976D01*
X248930Y742145D01*
X249226Y742272D01*
X249396Y742357D01*
X249480Y742399D01*
X249988Y742737D01*
X250411Y743118D01*
X250792Y743541D01*
X251131Y743922D01*
X251385Y744261D01*
X251554Y744557D01*
X251681Y744726D01*
X251723Y744811D01*
X252019Y745403D01*
X252273Y745996D01*
X252442Y746588D01*
X252612Y747096D01*
X252739Y747519D01*
X252823Y747900D01*
X252866Y748112D01*
Y748196D01*
X253035Y749593D01*
X253077Y750270D01*
X253120Y750862D01*
X253162Y751412D01*
Y751793D01*
Y751962D01*
Y752089D01*
Y752132D01*
Y752174D01*
Y753190D01*
X253120Y754163D01*
X253035Y755094D01*
X252992Y755898D01*
X252908Y756617D01*
Y756871D01*
X252866Y757125D01*
Y757337D01*
X252823Y757464D01*
Y757548D01*
Y757590D01*
X252654Y758564D01*
X252485Y759495D01*
X252273Y760341D01*
X252019Y761103D01*
X251850Y761695D01*
X251681Y762161D01*
X251596Y762330D01*
X251554Y762457D01*
X251511Y762499D01*
Y762542D01*
X251088Y763345D01*
X250665Y764023D01*
X250200Y764615D01*
X249776Y765123D01*
X249438Y765504D01*
X249099Y765758D01*
X248930Y765927D01*
X248846Y765969D01*
X248211Y766350D01*
X247618Y766646D01*
X247026Y766858D01*
X246476Y767027D01*
X246010Y767112D01*
X245630Y767154D01*
D02*
G37*
G36*
X223879D02*
X223583D01*
X223032Y767112D01*
X222482Y767027D01*
X222017Y766900D01*
X221594Y766773D01*
X221255Y766604D01*
X221001Y766477D01*
X220832Y766392D01*
X220790Y766350D01*
X220367Y766054D01*
X219943Y765715D01*
X219605Y765377D01*
X219351Y765038D01*
X219097Y764742D01*
X218928Y764530D01*
X218843Y764361D01*
X218801Y764319D01*
X218505Y763811D01*
X218251Y763303D01*
X218039Y762753D01*
X217828Y762245D01*
X217701Y761780D01*
X217574Y761441D01*
X217531Y761187D01*
X217489Y761145D01*
Y761103D01*
X217320Y760299D01*
X217193Y759495D01*
X217108Y758648D01*
X217024Y757844D01*
Y757125D01*
X216981Y756829D01*
Y756575D01*
Y756363D01*
Y756194D01*
Y756109D01*
Y756067D01*
Y755051D01*
X217066Y754078D01*
X217108Y753190D01*
X217193Y752385D01*
X217278Y751666D01*
X217320Y751412D01*
Y751158D01*
X217362Y750947D01*
X217404Y750820D01*
Y750735D01*
Y750693D01*
X217574Y749720D01*
X217785Y748789D01*
X217997Y747985D01*
X218251Y747223D01*
X218462Y746630D01*
X218632Y746165D01*
X218716Y745996D01*
X218759Y745869D01*
X218801Y745826D01*
Y745784D01*
X219182Y745023D01*
X219605Y744345D01*
X220028Y743795D01*
X220409Y743372D01*
X220747Y742991D01*
X221044Y742780D01*
X221213Y742610D01*
X221298Y742568D01*
X221848Y742230D01*
X222440Y741976D01*
X222990Y741806D01*
X223540Y741680D01*
X223964Y741595D01*
X224344Y741553D01*
X224641D01*
X225233Y741595D01*
X225825Y741680D01*
X226333Y741806D01*
X226799Y741976D01*
X227180Y742145D01*
X227476Y742272D01*
X227645Y742357D01*
X227730Y742399D01*
X228237Y742737D01*
X228661Y743118D01*
X229042Y743541D01*
X229380Y743922D01*
X229634Y744261D01*
X229803Y744557D01*
X229930Y744726D01*
X229972Y744811D01*
X230269Y745403D01*
X230522Y745996D01*
X230692Y746588D01*
X230861Y747096D01*
X230988Y747519D01*
X231073Y747900D01*
X231115Y748112D01*
Y748196D01*
X231284Y749593D01*
X231327Y750270D01*
X231369Y750862D01*
X231411Y751412D01*
Y751793D01*
Y751962D01*
Y752089D01*
Y752132D01*
Y752174D01*
Y753190D01*
X231369Y754163D01*
X231284Y755094D01*
X231242Y755898D01*
X231157Y756617D01*
Y756871D01*
X231115Y757125D01*
Y757337D01*
X231073Y757464D01*
Y757548D01*
Y757590D01*
X230903Y758564D01*
X230734Y759495D01*
X230522Y760341D01*
X230269Y761103D01*
X230099Y761695D01*
X229930Y762161D01*
X229846Y762330D01*
X229803Y762457D01*
X229761Y762499D01*
Y762542D01*
X229338Y763345D01*
X228915Y764023D01*
X228449Y764615D01*
X228026Y765123D01*
X227687Y765504D01*
X227349Y765758D01*
X227180Y765927D01*
X227095Y765969D01*
X226460Y766350D01*
X225868Y766646D01*
X225275Y766858D01*
X224725Y767027D01*
X224260Y767112D01*
X223879Y767154D01*
D02*
G37*
G36*
X202128D02*
X201832D01*
X201282Y767112D01*
X200732Y767027D01*
X200266Y766900D01*
X199843Y766773D01*
X199505Y766604D01*
X199251Y766477D01*
X199081Y766392D01*
X199039Y766350D01*
X198616Y766054D01*
X198193Y765715D01*
X197854Y765377D01*
X197600Y765038D01*
X197346Y764742D01*
X197177Y764530D01*
X197093Y764361D01*
X197050Y764319D01*
X196754Y763811D01*
X196500Y763303D01*
X196289Y762753D01*
X196077Y762245D01*
X195950Y761780D01*
X195823Y761441D01*
X195781Y761187D01*
X195738Y761145D01*
Y761103D01*
X195569Y760299D01*
X195442Y759495D01*
X195358Y758648D01*
X195273Y757844D01*
Y757125D01*
X195231Y756829D01*
Y756575D01*
Y756363D01*
Y756194D01*
Y756109D01*
Y756067D01*
Y755051D01*
X195315Y754078D01*
X195358Y753190D01*
X195442Y752385D01*
X195527Y751666D01*
X195569Y751412D01*
Y751158D01*
X195611Y750947D01*
X195654Y750820D01*
Y750735D01*
Y750693D01*
X195823Y749720D01*
X196035Y748789D01*
X196246Y747985D01*
X196500Y747223D01*
X196712Y746630D01*
X196881Y746165D01*
X196966Y745996D01*
X197008Y745869D01*
X197050Y745826D01*
Y745784D01*
X197431Y745023D01*
X197854Y744345D01*
X198277Y743795D01*
X198658Y743372D01*
X198997Y742991D01*
X199293Y742780D01*
X199462Y742610D01*
X199547Y742568D01*
X200097Y742230D01*
X200690Y741976D01*
X201240Y741806D01*
X201790Y741680D01*
X202213Y741595D01*
X202594Y741553D01*
X202890D01*
X203482Y741595D01*
X204075Y741680D01*
X204583Y741806D01*
X205048Y741976D01*
X205429Y742145D01*
X205725Y742272D01*
X205894Y742357D01*
X205979Y742399D01*
X206487Y742737D01*
X206910Y743118D01*
X207291Y743541D01*
X207629Y743922D01*
X207883Y744261D01*
X208053Y744557D01*
X208179Y744726D01*
X208222Y744811D01*
X208518Y745403D01*
X208772Y745996D01*
X208941Y746588D01*
X209110Y747096D01*
X209237Y747519D01*
X209322Y747900D01*
X209364Y748112D01*
Y748196D01*
X209534Y749593D01*
X209576Y750270D01*
X209618Y750862D01*
X209660Y751412D01*
Y751793D01*
Y751962D01*
Y752089D01*
Y752132D01*
Y752174D01*
Y753190D01*
X209618Y754163D01*
X209534Y755094D01*
X209491Y755898D01*
X209407Y756617D01*
Y756871D01*
X209364Y757125D01*
Y757337D01*
X209322Y757464D01*
Y757548D01*
Y757590D01*
X209153Y758564D01*
X208983Y759495D01*
X208772Y760341D01*
X208518Y761103D01*
X208349Y761695D01*
X208179Y762161D01*
X208095Y762330D01*
X208053Y762457D01*
X208010Y762499D01*
Y762542D01*
X207587Y763345D01*
X207164Y764023D01*
X206698Y764615D01*
X206275Y765123D01*
X205937Y765504D01*
X205598Y765758D01*
X205429Y765927D01*
X205344Y765969D01*
X204709Y766350D01*
X204117Y766646D01*
X203525Y766858D01*
X202974Y767027D01*
X202509Y767112D01*
X202128Y767154D01*
D02*
G37*
G36*
X180378D02*
X180081D01*
X179531Y767112D01*
X178981Y767027D01*
X178516Y766900D01*
X178092Y766773D01*
X177754Y766604D01*
X177500Y766477D01*
X177331Y766392D01*
X177288Y766350D01*
X176865Y766054D01*
X176442Y765715D01*
X176104Y765377D01*
X175850Y765038D01*
X175596Y764742D01*
X175427Y764530D01*
X175342Y764361D01*
X175300Y764319D01*
X175003Y763811D01*
X174750Y763303D01*
X174538Y762753D01*
X174326Y762245D01*
X174199Y761780D01*
X174072Y761441D01*
X174030Y761187D01*
X173988Y761145D01*
Y761103D01*
X173818Y760299D01*
X173692Y759495D01*
X173607Y758648D01*
X173522Y757844D01*
Y757125D01*
X173480Y756829D01*
Y756575D01*
Y756363D01*
Y756194D01*
Y756109D01*
Y756067D01*
Y755051D01*
X173565Y754078D01*
X173607Y753190D01*
X173692Y752385D01*
X173776Y751666D01*
X173818Y751412D01*
Y751158D01*
X173861Y750947D01*
X173903Y750820D01*
Y750735D01*
Y750693D01*
X174072Y749720D01*
X174284Y748789D01*
X174496Y747985D01*
X174750Y747223D01*
X174961Y746630D01*
X175130Y746165D01*
X175215Y745996D01*
X175257Y745869D01*
X175300Y745826D01*
Y745784D01*
X175681Y745023D01*
X176104Y744345D01*
X176527Y743795D01*
X176908Y743372D01*
X177246Y742991D01*
X177542Y742780D01*
X177712Y742610D01*
X177796Y742568D01*
X178346Y742230D01*
X178939Y741976D01*
X179489Y741806D01*
X180039Y741680D01*
X180462Y741595D01*
X180843Y741553D01*
X181139D01*
X181732Y741595D01*
X182324Y741680D01*
X182832Y741806D01*
X183297Y741976D01*
X183678Y742145D01*
X183974Y742272D01*
X184144Y742357D01*
X184228Y742399D01*
X184736Y742737D01*
X185159Y743118D01*
X185540Y743541D01*
X185879Y743922D01*
X186133Y744261D01*
X186302Y744557D01*
X186429Y744726D01*
X186471Y744811D01*
X186767Y745403D01*
X187021Y745996D01*
X187190Y746588D01*
X187360Y747096D01*
X187487Y747519D01*
X187571Y747900D01*
X187614Y748112D01*
Y748196D01*
X187783Y749593D01*
X187825Y750270D01*
X187868Y750862D01*
X187910Y751412D01*
Y751793D01*
Y751962D01*
Y752089D01*
Y752132D01*
Y752174D01*
Y753190D01*
X187868Y754163D01*
X187783Y755094D01*
X187741Y755898D01*
X187656Y756617D01*
Y756871D01*
X187614Y757125D01*
Y757337D01*
X187571Y757464D01*
Y757548D01*
Y757590D01*
X187402Y758564D01*
X187233Y759495D01*
X187021Y760341D01*
X186767Y761103D01*
X186598Y761695D01*
X186429Y762161D01*
X186344Y762330D01*
X186302Y762457D01*
X186260Y762499D01*
Y762542D01*
X185836Y763345D01*
X185413Y764023D01*
X184948Y764615D01*
X184525Y765123D01*
X184186Y765504D01*
X183848Y765758D01*
X183678Y765927D01*
X183594Y765969D01*
X182959Y766350D01*
X182367Y766646D01*
X181774Y766858D01*
X181224Y767027D01*
X180758Y767112D01*
X180378Y767154D01*
D02*
G37*
%LPD*%
D10*
X746200Y808866D02*
G03*
X746200Y808866I-3810J0D01*
G01*
D11*
X23434Y724236D02*
G03*
X23434Y724236I-1414J0D01*
G01*
X28514Y330950D02*
G03*
X28514Y330950I-1414J0D01*
G01*
M02*
