G04*
G04 #@! TF.GenerationSoftware,Altium Limited,Altium Designer,22.7.1 (60)*
G04*
G04 Layer_Color=8421631*
%FSLAX44Y44*%
%MOMM*%
G71*
G04*
G04 #@! TF.SameCoordinates,19F2358B-4240-49B2-A54B-8FB7877D19E4*
G04*
G04*
G04 #@! TF.FilePolarity,Positive*
G04*
G01*
G75*
%ADD12C,0.2540*%
G36*
X500597Y609223D02*
X506436Y597671D01*
X513080Y584679D01*
X511303D01*
X505082Y597628D01*
X493868D01*
X493699Y597163D01*
X493530Y596697D01*
X493149Y595639D01*
X492726Y594497D01*
X492345Y593439D01*
X492176Y592931D01*
X492006Y592466D01*
X491880Y592043D01*
X491753Y591662D01*
X491626Y591365D01*
X491583Y591154D01*
X491499Y590985D01*
Y590942D01*
X491202Y590138D01*
X490948Y589419D01*
X490737Y588742D01*
X490525Y588107D01*
X490314Y587557D01*
X490145Y587049D01*
X489975Y586584D01*
X489848Y586161D01*
X489721Y585822D01*
X489637Y585526D01*
X489552Y585272D01*
X489510Y585060D01*
X489425Y584891D01*
Y584764D01*
X489383Y584722D01*
Y584679D01*
X487563D01*
X493403Y600802D01*
X497254Y611720D01*
X497635Y611677D01*
X498735D01*
X499073Y611720D01*
X499412D01*
X500597Y609223D01*
D02*
G37*
G36*
X467632Y611000D02*
Y610365D01*
X467590Y609773D01*
Y609265D01*
Y608842D01*
Y608504D01*
Y608334D01*
Y608250D01*
Y606980D01*
X467632Y606388D01*
Y605838D01*
X467674Y605372D01*
Y605034D01*
X467717Y604780D01*
Y604737D01*
Y604695D01*
X468605Y604822D01*
X469409Y604949D01*
X470171Y605034D01*
X470848Y605076D01*
X471398Y605118D01*
X472160D01*
X473049Y605076D01*
X473937Y605034D01*
X474741Y604907D01*
X475418Y604780D01*
X476011Y604653D01*
X476476Y604568D01*
X476646Y604526D01*
X476772Y604483D01*
X476815Y604441D01*
X476857D01*
X477661Y604145D01*
X478423Y603806D01*
X479100Y603468D01*
X479692Y603087D01*
X480200Y602749D01*
X480581Y602452D01*
X480793Y602283D01*
X480877Y602198D01*
X481512Y601564D01*
X482062Y600887D01*
X482528Y600252D01*
X482908Y599617D01*
X483205Y599067D01*
X483416Y598644D01*
X483501Y598475D01*
X483543Y598348D01*
X483586Y598305D01*
Y598263D01*
X483882Y597374D01*
X484093Y596528D01*
X484263Y595724D01*
X484347Y594962D01*
X484432Y594370D01*
Y594074D01*
X484474Y593862D01*
Y593693D01*
Y593566D01*
Y593481D01*
Y593439D01*
X484432Y592762D01*
X484389Y592085D01*
X484305Y591492D01*
X484220Y590985D01*
X484136Y590519D01*
X484093Y590181D01*
X484009Y589969D01*
Y589884D01*
X483797Y589292D01*
X483543Y588742D01*
X483247Y588234D01*
X482993Y587769D01*
X482739Y587430D01*
X482528Y587134D01*
X482401Y586964D01*
X482358Y586922D01*
X481893Y586457D01*
X481427Y586076D01*
X480919Y585737D01*
X480496Y585484D01*
X480116Y585272D01*
X479777Y585103D01*
X479608Y585018D01*
X479523Y584976D01*
X478888Y584764D01*
X478254Y584595D01*
X477619Y584468D01*
X477069Y584383D01*
X476603Y584341D01*
X476265Y584299D01*
X475926D01*
X474995Y584341D01*
X474614Y584383D01*
X474234Y584468D01*
X473937Y584510D01*
X473726Y584552D01*
X473557Y584595D01*
X473514D01*
X472668Y584849D01*
X472329Y584976D01*
X472033Y585103D01*
X471779Y585230D01*
X471610Y585314D01*
X471483Y585399D01*
X471441D01*
X470848Y585822D01*
X470383Y586203D01*
X470214Y586372D01*
X470044Y586457D01*
X470002Y586541D01*
X469960Y586584D01*
X469536Y587049D01*
X469198Y587472D01*
X469071Y587642D01*
X468986Y587769D01*
X468902Y587853D01*
Y587896D01*
X468732Y588149D01*
X468563Y588488D01*
X468309Y589080D01*
X468182Y589334D01*
X468098Y589546D01*
X468016Y589669D01*
X468309Y584679D01*
X466744D01*
Y587091D01*
Y587472D01*
Y587896D01*
Y588403D01*
X466701Y588953D01*
Y590138D01*
X466659Y591365D01*
Y591958D01*
Y592508D01*
Y593016D01*
X466617Y593439D01*
Y593820D01*
Y594074D01*
Y594285D01*
Y594328D01*
X466320Y603933D01*
X466278Y605457D01*
X466236Y606853D01*
X466193Y608165D01*
X466151Y608800D01*
X466109Y609350D01*
Y609858D01*
X466067Y610323D01*
X466024Y610746D01*
Y611085D01*
Y611339D01*
X465982Y611550D01*
Y611677D01*
Y611720D01*
X466320Y611677D01*
X467082D01*
X467378Y611720D01*
X467674D01*
X467632Y611000D01*
D02*
G37*
G36*
X454218Y605076D02*
X454768Y605034D01*
X455191D01*
X455614Y604991D01*
X455910Y604949D01*
X456080Y604907D01*
X456164D01*
X456757Y604822D01*
X457349Y604695D01*
X457899Y604568D01*
X458450Y604441D01*
X458915Y604314D01*
X459296Y604230D01*
X459550Y604187D01*
X459592Y604145D01*
X459634D01*
X459719Y603553D01*
X459761Y603045D01*
X459804Y602876D01*
Y602749D01*
X459846Y602664D01*
Y602622D01*
X459380Y602791D01*
X458957Y602960D01*
X458577Y603087D01*
X458280Y603214D01*
X458026Y603299D01*
X457857Y603341D01*
X457730Y603383D01*
X457688D01*
X456968Y603553D01*
X456291Y603680D01*
X455995Y603722D01*
X455741Y603764D01*
X455572Y603806D01*
X455530D01*
X454556Y603933D01*
X454091Y603976D01*
X453668D01*
X453329Y604018D01*
X452779D01*
X451890Y603976D01*
X451510Y603933D01*
X451129Y603891D01*
X450833Y603849D01*
X450621Y603806D01*
X450452Y603764D01*
X450409D01*
X449986Y603680D01*
X449648Y603553D01*
X449309Y603426D01*
X449013Y603299D01*
X448801Y603172D01*
X448632Y603087D01*
X448548Y603045D01*
X448505Y603003D01*
X448251Y602791D01*
X447997Y602579D01*
X447701Y602198D01*
X447574Y602029D01*
X447490Y601945D01*
X447447Y601860D01*
Y601818D01*
X447278Y601352D01*
X447193Y600929D01*
X447151Y600802D01*
Y600675D01*
Y600590D01*
Y600548D01*
X447193Y600210D01*
X447236Y599871D01*
X447363Y599533D01*
X447447Y599279D01*
X447574Y599025D01*
X447701Y598855D01*
X447743Y598728D01*
X447786Y598686D01*
X448040Y598390D01*
X448336Y598094D01*
X448928Y597671D01*
X449182Y597501D01*
X449394Y597374D01*
X449563Y597332D01*
X449605Y597290D01*
X450452Y596951D01*
X450875Y596782D01*
X451256Y596697D01*
X451552Y596570D01*
X451806Y596486D01*
X451975Y596443D01*
X452017D01*
X452525Y596316D01*
X452991Y596189D01*
X453372Y596105D01*
X453752Y596020D01*
X454049Y595936D01*
X454302Y595851D01*
X454726Y595766D01*
X455022Y595682D01*
X455149Y595639D01*
X455233Y595597D01*
X455276D01*
X455826Y595428D01*
X456376Y595259D01*
X456842Y595132D01*
X457265Y594962D01*
X457603Y594835D01*
X457899Y594751D01*
X458069Y594708D01*
X458111Y594666D01*
X458915Y594285D01*
X459254Y594116D01*
X459592Y593947D01*
X459846Y593778D01*
X460015Y593693D01*
X460142Y593608D01*
X460185Y593566D01*
X460735Y593185D01*
X461115Y592846D01*
X461369Y592550D01*
X461412Y592508D01*
X461454Y592466D01*
X461835Y591916D01*
X462089Y591450D01*
X462173Y591239D01*
X462258Y591069D01*
X462300Y590985D01*
Y590942D01*
X462427Y590392D01*
X462512Y589884D01*
X462554Y589673D01*
Y589504D01*
Y589419D01*
Y589377D01*
X462470Y588573D01*
X462427Y588234D01*
X462343Y587896D01*
X462258Y587642D01*
X462216Y587430D01*
X462131Y587303D01*
Y587261D01*
X461920Y586922D01*
X461708Y586584D01*
X461496Y586287D01*
X461242Y586034D01*
X461073Y585822D01*
X460904Y585653D01*
X460777Y585568D01*
X460735Y585526D01*
X460354Y585272D01*
X459973Y585060D01*
X459550Y584891D01*
X459169Y584764D01*
X458873Y584679D01*
X458577Y584595D01*
X458407Y584552D01*
X458365D01*
X457265Y584426D01*
X456757Y584341D01*
X456291D01*
X455868Y584299D01*
X455276D01*
X454599Y584341D01*
X454006Y584383D01*
X453752D01*
X453541Y584426D01*
X453372D01*
X452948Y584468D01*
X452525Y584510D01*
X452102Y584595D01*
X451679Y584637D01*
X451298Y584722D01*
X451002Y584764D01*
X450833Y584806D01*
X450748D01*
X450663Y585356D01*
X450579Y585864D01*
X450536Y586034D01*
X450494Y586203D01*
X450452Y586287D01*
Y586330D01*
X450917Y586161D01*
X451298Y586034D01*
X451637Y585907D01*
X451933Y585822D01*
X452144Y585780D01*
X452314Y585737D01*
X452398Y585695D01*
X452441D01*
X452948Y585610D01*
X453414Y585526D01*
X453625D01*
X453795Y585484D01*
X453922D01*
X454472Y585441D01*
X455022Y585399D01*
X456122D01*
X456672Y585441D01*
X457138Y585526D01*
X457561Y585610D01*
X457899Y585653D01*
X458153Y585737D01*
X458323Y585780D01*
X458365D01*
X458788Y585949D01*
X459169Y586161D01*
X459507Y586372D01*
X459761Y586584D01*
X460015Y586795D01*
X460185Y586922D01*
X460269Y587049D01*
X460311Y587091D01*
X460565Y587472D01*
X460735Y587853D01*
X460904Y588234D01*
X460989Y588573D01*
X461031Y588869D01*
X461073Y589123D01*
Y589292D01*
Y589334D01*
X461031Y589927D01*
X460904Y590477D01*
X460862Y590646D01*
X460819Y590815D01*
X460777Y590900D01*
Y590942D01*
X460523Y591408D01*
X460227Y591789D01*
X460100Y591958D01*
X459973Y592085D01*
X459931Y592127D01*
X459888Y592169D01*
X459338Y592635D01*
X458788Y593016D01*
X458577Y593143D01*
X458407Y593270D01*
X458280Y593312D01*
X458238Y593354D01*
X457857Y593524D01*
X457434Y593693D01*
X456968Y593862D01*
X456545Y594031D01*
X456164Y594158D01*
X455868Y594285D01*
X455657Y594328D01*
X455572Y594370D01*
X455233Y594454D01*
X454853Y594581D01*
X454049Y594835D01*
X453668Y594920D01*
X453372Y595005D01*
X453160Y595089D01*
X453075D01*
X452483Y595259D01*
X451975Y595386D01*
X451594Y595470D01*
X451298Y595555D01*
X451087Y595639D01*
X450960D01*
X450875Y595682D01*
X450536Y595809D01*
X450198Y595936D01*
X449944Y596020D01*
X449902Y596063D01*
X449859D01*
X449478Y596232D01*
X449182Y596359D01*
X449013Y596443D01*
X448928Y596486D01*
X448674Y596655D01*
X448420Y596782D01*
X448251Y596867D01*
X448209Y596909D01*
X447913Y597163D01*
X447617Y597417D01*
X447363Y597628D01*
X447320Y597671D01*
X447278Y597713D01*
X447363Y596274D01*
X447405Y595597D01*
X447447Y594962D01*
Y594412D01*
X447490Y593989D01*
Y593820D01*
Y593693D01*
Y593651D01*
Y593608D01*
Y592804D01*
X447532Y592085D01*
X447574Y591365D01*
Y590773D01*
X447617Y590265D01*
Y589884D01*
X447659Y589631D01*
Y589588D01*
Y589546D01*
X447701Y588784D01*
X447743Y588022D01*
X447786Y587176D01*
X447870Y586414D01*
X447913Y585737D01*
X447955Y585441D01*
Y585187D01*
Y584976D01*
X447997Y584806D01*
Y584722D01*
Y584679D01*
X446347D01*
Y586330D01*
Y586838D01*
Y587388D01*
X446305Y588022D01*
Y588615D01*
Y589165D01*
X446262Y589631D01*
Y589800D01*
Y589927D01*
Y590011D01*
Y590054D01*
X446220Y590985D01*
X446178Y591831D01*
Y592593D01*
X446135Y593227D01*
X446093Y593735D01*
X446051Y594116D01*
Y594328D01*
Y594412D01*
X446008Y595047D01*
X445966Y595682D01*
X445924Y596232D01*
X445882Y596740D01*
Y597121D01*
X445839Y597459D01*
Y597628D01*
Y597713D01*
X445797Y598263D01*
Y598728D01*
X445755Y599194D01*
Y599533D01*
Y599829D01*
Y600040D01*
Y600167D01*
Y600210D01*
X445797Y600929D01*
X445839Y601225D01*
X445924Y601521D01*
X445966Y601775D01*
X446051Y601945D01*
X446093Y602071D01*
Y602114D01*
X446220Y602452D01*
X446432Y602749D01*
X446643Y603045D01*
X446855Y603299D01*
X447024Y603468D01*
X447193Y603637D01*
X447320Y603722D01*
X447363Y603764D01*
X447743Y604018D01*
X448167Y604230D01*
X448590Y604399D01*
X448971Y604526D01*
X449309Y604653D01*
X449605Y604737D01*
X449775Y604780D01*
X449859D01*
X451002Y604991D01*
X451552Y605034D01*
X452060Y605076D01*
X452483Y605118D01*
X453118D01*
X454218Y605076D01*
D02*
G37*
G36*
X432510D02*
X432933Y604991D01*
X433271Y604949D01*
X433610Y604864D01*
X433821Y604780D01*
X433991Y604737D01*
X434033D01*
X434837Y604441D01*
X435176Y604272D01*
X435514Y604145D01*
X435768Y603976D01*
X435937Y603891D01*
X436064Y603806D01*
X436106Y603764D01*
X436699Y603299D01*
X437164Y602833D01*
X437334Y602664D01*
X437461Y602537D01*
X437503Y602452D01*
X437545Y602410D01*
X437757Y602156D01*
X437926Y601818D01*
X438307Y601225D01*
X438476Y600929D01*
X438561Y600717D01*
X438646Y600548D01*
X438688Y600506D01*
X438476Y604695D01*
X438772Y604653D01*
X439534D01*
X439788Y604695D01*
X440042D01*
Y603849D01*
Y603426D01*
Y603045D01*
Y602706D01*
Y602452D01*
Y602283D01*
Y602198D01*
X440550Y588996D01*
X440592Y588403D01*
Y587853D01*
X440634Y587642D01*
Y587472D01*
Y587388D01*
Y587345D01*
X440846Y584679D01*
X439280D01*
Y585864D01*
X439238Y587134D01*
Y588361D01*
X439196Y589546D01*
Y590096D01*
X439153Y590561D01*
Y591027D01*
Y591408D01*
X439111Y591704D01*
Y591916D01*
Y592085D01*
Y592127D01*
X439069Y592846D01*
X439026Y593481D01*
X438984Y594116D01*
X438942Y594666D01*
X438899Y595132D01*
X438857Y595597D01*
X438815Y596020D01*
X438772Y596359D01*
Y596655D01*
X438730Y596909D01*
X438688Y597163D01*
X438646Y597332D01*
X438603Y597544D01*
Y597628D01*
X438434Y598263D01*
X438307Y598813D01*
X438138Y599321D01*
X437968Y599702D01*
X437841Y600040D01*
X437715Y600252D01*
X437672Y600421D01*
X437630Y600463D01*
X437376Y600844D01*
X437164Y601225D01*
X436911Y601521D01*
X436657Y601775D01*
X436445Y601987D01*
X436276Y602156D01*
X436191Y602241D01*
X436149Y602283D01*
X435472Y602791D01*
X434837Y603172D01*
X434541Y603299D01*
X434329Y603383D01*
X434202Y603468D01*
X434160D01*
X433314Y603722D01*
X432890Y603806D01*
X432552Y603849D01*
X432256Y603891D01*
X431790D01*
X430986Y603849D01*
X430648Y603764D01*
X430351Y603722D01*
X430098Y603637D01*
X429928Y603553D01*
X429801Y603510D01*
X429759D01*
X429082Y603214D01*
X428828Y603045D01*
X428574Y602918D01*
X428405Y602749D01*
X428278Y602664D01*
X428193Y602579D01*
X428151Y602537D01*
X427728Y602071D01*
X427474Y601606D01*
X427389Y601437D01*
X427305Y601268D01*
X427262Y601183D01*
Y601141D01*
X427178Y600844D01*
X427093Y600463D01*
X427008Y599744D01*
X426966Y599406D01*
Y599152D01*
Y598982D01*
Y598898D01*
Y598263D01*
Y597628D01*
X427008Y596951D01*
Y596359D01*
X427051Y595809D01*
Y595343D01*
X427093Y595174D01*
Y595089D01*
Y595005D01*
Y594962D01*
X427347Y589969D01*
X427389Y588996D01*
X427432Y588065D01*
X427474Y587176D01*
X427516Y586372D01*
X427559Y585653D01*
Y585399D01*
Y585145D01*
X427601Y584933D01*
Y584806D01*
Y584722D01*
Y584679D01*
X426035D01*
X425824Y592593D01*
X425781Y593270D01*
Y593904D01*
X425739Y594497D01*
X425697Y595047D01*
X425654Y595512D01*
X425612Y595936D01*
X425570Y596316D01*
X425527Y596655D01*
X425485Y596951D01*
Y597205D01*
X425400Y597586D01*
X425358Y597798D01*
Y597882D01*
X425231Y598517D01*
X425062Y599067D01*
X424935Y599533D01*
X424766Y599913D01*
X424681Y600252D01*
X424554Y600463D01*
X424512Y600590D01*
X424469Y600633D01*
X424004Y601352D01*
X423750Y601648D01*
X423539Y601902D01*
X423327Y602071D01*
X423158Y602241D01*
X423073Y602325D01*
X423031Y602368D01*
X422354Y602833D01*
X421719Y603172D01*
X421465Y603299D01*
X421253Y603383D01*
X421127Y603468D01*
X421084D01*
X420238Y603722D01*
X419857Y603806D01*
X419476Y603849D01*
X419138Y603891D01*
X418672D01*
X418037Y603849D01*
X417530Y603806D01*
X417318Y603764D01*
X417149Y603722D01*
X417064Y603680D01*
X417022D01*
X416472Y603510D01*
X416049Y603383D01*
X415879Y603299D01*
X415752Y603214D01*
X415710Y603172D01*
X415668D01*
X415244Y602918D01*
X414948Y602664D01*
X414779Y602495D01*
X414694Y602410D01*
X414440Y602071D01*
X414271Y601775D01*
X414144Y601564D01*
X414102Y601521D01*
Y601479D01*
X413975Y601141D01*
X413890Y600802D01*
X413848Y600590D01*
Y600548D01*
Y600506D01*
X413806Y600125D01*
X413763Y599744D01*
Y599575D01*
Y599448D01*
Y599363D01*
Y599321D01*
Y598771D01*
Y598221D01*
X413806Y597671D01*
Y597121D01*
X413848Y596655D01*
Y596274D01*
X413890Y596020D01*
Y595978D01*
Y595936D01*
X414144Y590477D01*
X414187Y589250D01*
X414271Y588149D01*
X414314Y587176D01*
X414356Y586330D01*
X414398Y585949D01*
Y585610D01*
X414440Y585356D01*
Y585103D01*
X414483Y584933D01*
Y584806D01*
Y584722D01*
Y584679D01*
X412917D01*
Y585780D01*
X412875Y586880D01*
Y587980D01*
X412832Y588996D01*
Y589419D01*
X412790Y589842D01*
Y590223D01*
Y590561D01*
X412748Y590815D01*
Y590985D01*
Y591111D01*
Y591154D01*
X412705Y592423D01*
X412621Y593566D01*
X412579Y594539D01*
X412536Y594962D01*
Y595343D01*
Y595682D01*
X412494Y595978D01*
Y596232D01*
X412452Y596401D01*
Y596570D01*
Y596697D01*
Y596740D01*
Y596782D01*
X412409Y597501D01*
X412367Y598094D01*
X412325Y598601D01*
X412282Y599025D01*
Y599321D01*
Y599575D01*
Y599702D01*
Y599744D01*
X412325Y600379D01*
X412409Y600929D01*
X412536Y601437D01*
X412663Y601860D01*
X412832Y602241D01*
X412959Y602495D01*
X413044Y602664D01*
X413086Y602706D01*
X413425Y603129D01*
X413763Y603510D01*
X414144Y603849D01*
X414525Y604103D01*
X414864Y604272D01*
X415117Y604441D01*
X415287Y604483D01*
X415371Y604526D01*
X415922Y604737D01*
X416472Y604864D01*
X417022Y604991D01*
X417487Y605034D01*
X417910Y605076D01*
X418207Y605118D01*
X418503D01*
X419264Y605076D01*
X419603Y605034D01*
X419942Y604991D01*
X420196Y604907D01*
X420407Y604864D01*
X420534Y604822D01*
X420576D01*
X421296Y604610D01*
X421592Y604483D01*
X421888Y604357D01*
X422100Y604272D01*
X422269Y604187D01*
X422396Y604145D01*
X422438Y604103D01*
X422988Y603764D01*
X423454Y603426D01*
X423623Y603299D01*
X423750Y603172D01*
X423835Y603129D01*
X423877Y603087D01*
X424258Y602664D01*
X424596Y602283D01*
X424766Y601987D01*
X424850Y601945D01*
Y601902D01*
X425104Y601479D01*
X425316Y601056D01*
X425443Y600844D01*
X425485Y600717D01*
X425570Y600633D01*
Y600590D01*
X425654Y600929D01*
X425739Y601225D01*
X425824Y601521D01*
X425908Y601733D01*
X425993Y601902D01*
X426035Y602029D01*
X426077Y602071D01*
Y602114D01*
X426289Y602495D01*
X426543Y602833D01*
X426712Y603087D01*
X426754Y603129D01*
X426797Y603172D01*
X427135Y603553D01*
X427516Y603849D01*
X427686Y603933D01*
X427812Y604018D01*
X427897Y604103D01*
X427939D01*
X428489Y604399D01*
X428997Y604610D01*
X429251Y604695D01*
X429421Y604780D01*
X429547Y604822D01*
X429590D01*
X430309Y604991D01*
X430648Y605034D01*
X430986Y605076D01*
X431240Y605118D01*
X431621D01*
X432510Y605076D01*
D02*
G37*
G36*
X512064Y577367D02*
X512107Y575802D01*
Y574278D01*
X512149Y573559D01*
Y572882D01*
Y572247D01*
X512191Y571655D01*
Y571147D01*
Y570681D01*
X512234Y570343D01*
Y570046D01*
Y569877D01*
Y569835D01*
X512615Y559975D01*
X512699Y558240D01*
X512742Y557436D01*
X512784Y556674D01*
X512826Y555955D01*
X512868Y555320D01*
X512911Y554686D01*
Y554136D01*
X512953Y553628D01*
X512995Y553162D01*
Y552781D01*
X513038Y552443D01*
Y552189D01*
X513080Y552020D01*
Y551893D01*
Y551850D01*
X511218D01*
X511260Y553924D01*
Y554093D01*
Y554305D01*
Y554770D01*
X511218Y555405D01*
Y556167D01*
Y556971D01*
X511176Y557817D01*
X511133Y559594D01*
X511091Y560483D01*
Y561329D01*
X511049Y562091D01*
Y562768D01*
Y563360D01*
X511007Y563784D01*
Y563953D01*
Y564080D01*
Y564122D01*
Y564165D01*
X510964Y565773D01*
X510880Y567254D01*
X510837Y568650D01*
X510795Y569962D01*
X510753Y571189D01*
X510668Y572289D01*
X510626Y573305D01*
X510583Y574193D01*
X510541Y574997D01*
Y575717D01*
X510499Y576309D01*
X510456Y576775D01*
Y577156D01*
X510414Y577452D01*
Y577621D01*
Y577663D01*
X509272Y577621D01*
X503432D01*
X502755Y577579D01*
X502162Y577536D01*
X501697Y577452D01*
X501358Y577410D01*
X501105Y577325D01*
X500978Y577282D01*
X500935D01*
X500258Y577029D01*
X500004Y576859D01*
X499750Y576690D01*
X499581Y576563D01*
X499454Y576436D01*
X499370Y576394D01*
X499327Y576352D01*
X498904Y575886D01*
X498565Y575378D01*
X498481Y575167D01*
X498396Y574997D01*
X498312Y574870D01*
Y574828D01*
X498100Y574109D01*
X498015Y573770D01*
X497973Y573474D01*
X497931Y573220D01*
Y573009D01*
Y572882D01*
Y572839D01*
X497973Y572289D01*
X498015Y571781D01*
X498142Y571274D01*
X498227Y570850D01*
X498354Y570470D01*
X498481Y570216D01*
X498523Y570046D01*
X498565Y569962D01*
X498819Y569496D01*
X499116Y569031D01*
X499412Y568650D01*
X499666Y568354D01*
X499920Y568058D01*
X500131Y567888D01*
X500258Y567761D01*
X500300Y567719D01*
X500724Y567423D01*
X501147Y567127D01*
X501612Y566915D01*
X501993Y566746D01*
X502374Y566619D01*
X502670Y566534D01*
X502839Y566450D01*
X502924D01*
X504109Y566238D01*
X504659Y566153D01*
X505125Y566111D01*
X505548D01*
X505886Y566069D01*
X506182D01*
X507410Y566111D01*
X508002Y566196D01*
X508552Y566238D01*
X508975Y566323D01*
X509356Y566365D01*
X509568Y566407D01*
X509652D01*
X509483Y565942D01*
X509398Y565561D01*
X509314Y565265D01*
X509272Y565222D01*
Y565180D01*
X508595Y565053D01*
X507960Y564968D01*
X507410Y564926D01*
X506902Y564884D01*
X506521Y564841D01*
X505928D01*
X504955Y564884D01*
X504024Y564968D01*
X503220Y565138D01*
X502501Y565307D01*
X501908Y565476D01*
X501485Y565645D01*
X501316Y565688D01*
X501189Y565730D01*
X501147Y565773D01*
X501105D01*
X500343Y566153D01*
X499666Y566619D01*
X499116Y567084D01*
X498608Y567508D01*
X498227Y567931D01*
X497931Y568269D01*
X497761Y568481D01*
X497719Y568565D01*
X497296Y569285D01*
X497000Y570046D01*
X496746Y570766D01*
X496619Y571443D01*
X496534Y572035D01*
X496450Y572501D01*
Y572670D01*
Y572797D01*
Y572882D01*
Y572924D01*
Y573432D01*
X496534Y573897D01*
X496619Y574320D01*
X496704Y574744D01*
X496788Y575040D01*
X496873Y575294D01*
X496915Y575463D01*
X496958Y575505D01*
X497169Y575928D01*
X497381Y576352D01*
X497635Y576690D01*
X497888Y576986D01*
X498100Y577240D01*
X498269Y577410D01*
X498396Y577536D01*
X498438Y577579D01*
X498819Y577875D01*
X499200Y578087D01*
X499539Y578298D01*
X499877Y578425D01*
X500173Y578510D01*
X500385Y578594D01*
X500554Y578637D01*
X500597D01*
X501062Y578721D01*
X501570Y578806D01*
X502120Y578848D01*
X502585D01*
X503051Y578891D01*
X503728D01*
X508129Y578848D01*
X512064Y578891D01*
Y577367D01*
D02*
G37*
G36*
X456842Y576944D02*
X454853D01*
X454810Y578891D01*
X455149Y578848D01*
X456207D01*
X456503Y578891D01*
X456842D01*
Y576944D01*
D02*
G37*
G36*
X456799Y570131D02*
Y569962D01*
Y569623D01*
Y569242D01*
X456842Y568735D01*
Y568185D01*
Y567592D01*
X456884Y566280D01*
Y565645D01*
X456926Y565053D01*
Y564461D01*
Y563953D01*
X456968Y563530D01*
Y563233D01*
Y563022D01*
Y562937D01*
X457011Y561879D01*
X457053Y560906D01*
Y560060D01*
X457095Y559256D01*
X457138Y558579D01*
Y557944D01*
Y557436D01*
X457180Y556928D01*
Y556548D01*
Y556209D01*
X457222Y555955D01*
Y555701D01*
Y555574D01*
Y555447D01*
Y555405D01*
Y555363D01*
X457265Y554432D01*
X457307Y553628D01*
X457349Y552866D01*
X457392Y552147D01*
X457434Y551554D01*
X457476Y551004D01*
X457519Y550539D01*
Y550115D01*
X457561Y549777D01*
Y549481D01*
X457603Y549227D01*
Y549058D01*
X457645Y548888D01*
Y548804D01*
Y548719D01*
X457730Y548169D01*
X457815Y547661D01*
X457899Y547238D01*
X457942Y546899D01*
X458026Y546603D01*
X458111Y546349D01*
X458153Y546222D01*
Y546180D01*
X458365Y545630D01*
X458577Y545249D01*
X458746Y545037D01*
X458788Y544953D01*
X459042Y544657D01*
X459338Y544403D01*
X459550Y544233D01*
X459592Y544191D01*
X459634D01*
X460058Y543937D01*
X460438Y543768D01*
X460650Y543683D01*
X460777Y543641D01*
X460862Y543599D01*
X460904D01*
X461496Y543472D01*
X462004Y543387D01*
X462216Y543345D01*
X462554D01*
X463400Y543387D01*
X464247Y543514D01*
X465093Y543683D01*
X465813Y543853D01*
X466490Y544022D01*
X466744Y544106D01*
X466955Y544191D01*
X467167Y544276D01*
X467294Y544318D01*
X467378Y544360D01*
X467421D01*
X467336Y543768D01*
X467294Y543260D01*
Y543091D01*
Y542964D01*
Y542879D01*
Y542837D01*
X466405Y542625D01*
X465559Y542499D01*
X464797Y542371D01*
X464120Y542329D01*
X463612Y542287D01*
X463189Y542245D01*
X462300D01*
X461835Y542287D01*
X461412Y542329D01*
X461031Y542414D01*
X460735Y542456D01*
X460523Y542499D01*
X460396Y542541D01*
X460354D01*
X459804Y542752D01*
X459296Y542964D01*
X459127Y543049D01*
X458957Y543133D01*
X458873Y543218D01*
X458830D01*
X458365Y543556D01*
X457984Y543853D01*
X457730Y544106D01*
X457688Y544149D01*
X457645Y544191D01*
X457349Y544614D01*
X457095Y545037D01*
X457011Y545207D01*
X456968Y545291D01*
X456926Y545376D01*
Y545418D01*
X456799Y545757D01*
X456672Y546180D01*
X456503Y546942D01*
X456461Y547280D01*
X456418Y547534D01*
X456376Y547703D01*
Y547788D01*
X456334Y548084D01*
X456291Y548423D01*
X456249Y548846D01*
X456207Y549354D01*
X456164Y550412D01*
X456080Y551512D01*
X456037Y552570D01*
X455995Y553035D01*
Y553458D01*
X455953Y553797D01*
Y554093D01*
Y554262D01*
Y554305D01*
X455614Y563149D01*
X455191Y571866D01*
X455530Y571824D01*
X456207D01*
X456503Y571866D01*
X456799D01*
Y570131D01*
D02*
G37*
G36*
X442369Y572205D02*
X443427Y572035D01*
X444358Y571781D01*
X445120Y571485D01*
X445755Y571189D01*
X446051Y571062D01*
X446262Y570935D01*
X446432Y570850D01*
X446559Y570766D01*
X446601Y570681D01*
X446643D01*
X447405Y570046D01*
X448040Y569412D01*
X448548Y568735D01*
X449013Y568100D01*
X449309Y567550D01*
X449563Y567127D01*
X449648Y566957D01*
X449690Y566830D01*
X449732Y566746D01*
Y566703D01*
X450029Y565773D01*
X450283Y564884D01*
X450452Y563995D01*
X450536Y563233D01*
X450621Y562556D01*
Y562260D01*
X450663Y562006D01*
Y561795D01*
Y561668D01*
Y561583D01*
Y561541D01*
X450621Y560779D01*
X450579Y560017D01*
X450494Y559340D01*
X450367Y558748D01*
X450283Y558283D01*
X450198Y557902D01*
X450155Y557648D01*
X450113Y557605D01*
Y557563D01*
X449859Y556886D01*
X449605Y556294D01*
X449309Y555701D01*
X449013Y555193D01*
X448717Y554813D01*
X448505Y554474D01*
X448336Y554305D01*
X448294Y554220D01*
X447786Y553712D01*
X447236Y553247D01*
X446728Y552908D01*
X446220Y552612D01*
X445797Y552401D01*
X445458Y552231D01*
X445247Y552147D01*
X445162Y552104D01*
X444443Y551893D01*
X443723Y551723D01*
X443004Y551639D01*
X442327Y551554D01*
X441777Y551512D01*
X441311Y551469D01*
X440930D01*
X439957Y551512D01*
X439492Y551554D01*
X439069Y551596D01*
X438730D01*
X438476Y551639D01*
X438307Y551681D01*
X438265D01*
X437249Y551850D01*
X436741Y551977D01*
X436276Y552062D01*
X435895Y552147D01*
X435599Y552231D01*
X435387Y552316D01*
X435303D01*
X435218Y552866D01*
X435133Y553374D01*
X435091Y553543D01*
Y553712D01*
X435049Y553797D01*
Y553839D01*
X436233Y553416D01*
X437334Y553120D01*
X438349Y552866D01*
X439238Y552739D01*
X439619Y552697D01*
X439957Y552654D01*
X440253Y552612D01*
X440507D01*
X440719Y552570D01*
X440973D01*
X441608Y552612D01*
X442200Y552654D01*
X442793Y552739D01*
X443258Y552866D01*
X443681Y552951D01*
X444020Y553035D01*
X444189Y553078D01*
X444273Y553120D01*
X444824Y553374D01*
X445374Y553670D01*
X445797Y553924D01*
X446220Y554220D01*
X446516Y554474D01*
X446770Y554686D01*
X446940Y554855D01*
X446982Y554897D01*
X447363Y555363D01*
X447701Y555870D01*
X447997Y556336D01*
X448209Y556801D01*
X448378Y557225D01*
X448548Y557521D01*
X448590Y557732D01*
X448632Y557817D01*
X448801Y558494D01*
X448928Y559129D01*
X449055Y559763D01*
X449098Y560314D01*
X449140Y560821D01*
X449182Y561160D01*
Y561414D01*
Y561498D01*
Y561752D01*
Y562091D01*
X449140Y562726D01*
Y562980D01*
X449098Y563233D01*
Y563403D01*
Y563445D01*
X433398D01*
X433356Y563784D01*
Y564038D01*
Y564249D01*
Y564334D01*
X433398Y565265D01*
X433525Y566111D01*
X433694Y566873D01*
X433864Y567508D01*
X434033Y568058D01*
X434202Y568438D01*
X434329Y568692D01*
X434371Y568777D01*
X434795Y569412D01*
X435260Y569962D01*
X435726Y570427D01*
X436149Y570808D01*
X436572Y571104D01*
X436911Y571274D01*
X437122Y571401D01*
X437164Y571443D01*
X437207D01*
X437884Y571739D01*
X438561Y571951D01*
X439238Y572078D01*
X439873Y572205D01*
X440380Y572247D01*
X440804Y572289D01*
X441184D01*
X442369Y572205D01*
D02*
G37*
G36*
X421634D02*
X422777Y572035D01*
X423750Y571824D01*
X424173Y571655D01*
X424596Y571527D01*
X424935Y571401D01*
X425231Y571231D01*
X425527Y571104D01*
X425739Y571020D01*
X425908Y570893D01*
X426035Y570850D01*
X426077Y570766D01*
X426120D01*
X426881Y570131D01*
X427516Y569496D01*
X428066Y568777D01*
X428489Y568142D01*
X428828Y567550D01*
X429082Y567042D01*
X429167Y566873D01*
X429209Y566746D01*
X429251Y566661D01*
Y566619D01*
X429590Y565645D01*
X429801Y564672D01*
X429971Y563741D01*
X430098Y562895D01*
X430182Y562176D01*
Y561879D01*
X430224Y561626D01*
Y561414D01*
Y561245D01*
Y561160D01*
Y561118D01*
X430182Y560356D01*
X430140Y559594D01*
X430055Y558917D01*
X429928Y558283D01*
X429801Y557775D01*
X429717Y557394D01*
X429674Y557140D01*
X429632Y557098D01*
Y557055D01*
X429378Y556378D01*
X429082Y555743D01*
X428743Y555236D01*
X428447Y554770D01*
X428151Y554389D01*
X427939Y554093D01*
X427770Y553924D01*
X427728Y553882D01*
X427220Y553458D01*
X426670Y553078D01*
X426162Y552739D01*
X425697Y552485D01*
X425274Y552273D01*
X424935Y552147D01*
X424723Y552062D01*
X424639Y552020D01*
X423962Y551850D01*
X423285Y551723D01*
X422650Y551596D01*
X422057Y551554D01*
X421550Y551512D01*
X421127Y551469D01*
X420788D01*
X419984Y551512D01*
X419138Y551554D01*
X418334Y551639D01*
X417614Y551723D01*
X417022Y551808D01*
X416726Y551850D01*
X416514Y551893D01*
X416345Y551935D01*
X416218Y551977D01*
X416091D01*
X416006Y552485D01*
X415922Y552993D01*
X415879Y553204D01*
X415837Y553374D01*
X415795Y553458D01*
Y553501D01*
X416429Y553331D01*
X416979Y553162D01*
X417445Y553035D01*
X417868Y552908D01*
X418207Y552824D01*
X418418Y552781D01*
X418587Y552739D01*
X418630D01*
X419434Y552654D01*
X419772Y552612D01*
X420069D01*
X420322Y552570D01*
X420703D01*
X421338Y552612D01*
X421973Y552654D01*
X422523Y552739D01*
X423031Y552866D01*
X423454Y552951D01*
X423750Y553035D01*
X423962Y553078D01*
X424046Y553120D01*
X424596Y553331D01*
X425104Y553585D01*
X425570Y553882D01*
X425951Y554136D01*
X426289Y554347D01*
X426501Y554559D01*
X426670Y554686D01*
X426712Y554728D01*
X427093Y555151D01*
X427389Y555616D01*
X427686Y556082D01*
X427897Y556548D01*
X428066Y556928D01*
X428193Y557225D01*
X428236Y557436D01*
X428278Y557521D01*
X428447Y558156D01*
X428532Y558833D01*
X428616Y559425D01*
X428701Y560017D01*
Y560483D01*
X428743Y560864D01*
Y561118D01*
Y561160D01*
Y561202D01*
Y561879D01*
X428659Y562514D01*
X428616Y563149D01*
X428532Y563699D01*
X428447Y564122D01*
X428405Y564503D01*
X428320Y564715D01*
Y564799D01*
X428109Y565476D01*
X427897Y566069D01*
X427643Y566661D01*
X427389Y567127D01*
X427135Y567550D01*
X426966Y567846D01*
X426839Y568015D01*
X426797Y568100D01*
X426374Y568608D01*
X425951Y569073D01*
X425485Y569454D01*
X425104Y569793D01*
X424723Y570046D01*
X424427Y570258D01*
X424258Y570343D01*
X424173Y570385D01*
X423539Y570639D01*
X422904Y570850D01*
X422269Y570977D01*
X421719Y571104D01*
X421211Y571147D01*
X420788Y571189D01*
X420449D01*
X419688Y571147D01*
X419349Y571104D01*
X419011D01*
X418757Y571062D01*
X418545Y571020D01*
X418376Y570977D01*
X418334D01*
X417868Y570893D01*
X417318Y570766D01*
X416768Y570639D01*
X416260Y570512D01*
X415795Y570385D01*
X415414Y570258D01*
X415160Y570216D01*
X415117Y570173D01*
X415075D01*
X415160Y570681D01*
X415202Y571147D01*
Y571316D01*
Y571443D01*
Y571527D01*
Y571570D01*
X416133Y571824D01*
X417022Y571993D01*
X417910Y572120D01*
X418672Y572205D01*
X419349Y572247D01*
X419645Y572289D01*
X420322D01*
X421634Y572205D01*
D02*
G37*
G36*
X408685Y575717D02*
X409109Y575675D01*
X409320Y575632D01*
X409447Y575590D01*
X409574D01*
Y574701D01*
X409616Y573940D01*
X409659Y573305D01*
Y572797D01*
X409701Y572374D01*
Y572078D01*
X409743Y571908D01*
Y571866D01*
X412113D01*
X412155Y571443D01*
Y571104D01*
X412198Y570850D01*
Y570808D01*
Y570766D01*
X409786D01*
X410463Y557648D01*
Y557267D01*
X410505Y556928D01*
Y556674D01*
Y556463D01*
Y556336D01*
Y556251D01*
Y556167D01*
Y555955D01*
Y555786D01*
Y555701D01*
Y555659D01*
X410463Y555024D01*
X410420Y554516D01*
X410378Y554305D01*
Y554136D01*
X410336Y554051D01*
Y554008D01*
X410167Y553458D01*
X409913Y552993D01*
X409786Y552824D01*
X409701Y552697D01*
X409659Y552612D01*
X409616Y552570D01*
X409151Y552189D01*
X408728Y551893D01*
X408516Y551808D01*
X408347Y551766D01*
X408262Y551723D01*
X408220D01*
X407543Y551596D01*
X406866Y551512D01*
X406612Y551469D01*
X406189D01*
X405173Y551512D01*
X404665Y551596D01*
X404200Y551681D01*
X403819Y551723D01*
X403480Y551808D01*
X403311Y551850D01*
X403227D01*
X403142Y552316D01*
X403057Y552739D01*
X403015Y552866D01*
Y552993D01*
X402973Y553078D01*
Y553120D01*
X403480Y552993D01*
X403946Y552908D01*
X404285Y552824D01*
X404581Y552739D01*
X404792Y552697D01*
X404962Y552654D01*
X405089D01*
X405512Y552612D01*
X405850Y552570D01*
X406189D01*
X406739Y552612D01*
X407204Y552739D01*
X407416Y552781D01*
X407543Y552824D01*
X407627Y552866D01*
X407670D01*
X408135Y553162D01*
X408474Y553543D01*
X408601Y553712D01*
X408685Y553839D01*
X408770Y553924D01*
Y553966D01*
X408897Y554305D01*
X408982Y554686D01*
X409109Y555447D01*
Y555828D01*
X409151Y556124D01*
Y556294D01*
Y556378D01*
X409109Y557182D01*
X408432Y570766D01*
X402550D01*
X402507Y571189D01*
X402465Y571527D01*
X402423Y571781D01*
Y571824D01*
Y571866D01*
X408389D01*
Y572035D01*
Y572247D01*
X408347Y572797D01*
Y573474D01*
X408305Y574151D01*
X408262Y574786D01*
Y575336D01*
X408220Y575548D01*
Y575717D01*
Y575802D01*
Y575844D01*
X408685Y575717D01*
D02*
G37*
G36*
X485701Y572247D02*
X486040Y572205D01*
X486378Y572162D01*
X486632Y572120D01*
X486844Y572078D01*
X486971Y572035D01*
X487013D01*
X487733Y571824D01*
X488029Y571697D01*
X488283Y571570D01*
X488536Y571485D01*
X488706Y571401D01*
X488790Y571358D01*
X488833Y571316D01*
X489383Y570935D01*
X489806Y570554D01*
X489975Y570385D01*
X490060Y570258D01*
X490145Y570173D01*
X490187Y570131D01*
X490398Y569835D01*
X490610Y569539D01*
X490991Y568862D01*
X491160Y568565D01*
X491287Y568312D01*
X491372Y568142D01*
X491414Y568100D01*
X491202Y571866D01*
X491499Y571824D01*
X492218D01*
X492472Y571866D01*
X492726D01*
X492683Y570046D01*
Y569496D01*
Y568904D01*
Y568269D01*
X492726Y567592D01*
X492768Y566196D01*
Y564799D01*
X492810Y564165D01*
Y563572D01*
X492853Y563022D01*
Y562556D01*
X492895Y562176D01*
Y561879D01*
Y561710D01*
Y561626D01*
X492937Y560610D01*
X492980Y559594D01*
X493022Y558621D01*
X493064Y557732D01*
X493107Y556886D01*
Y556040D01*
X493149Y555320D01*
X493191Y554643D01*
X493234Y554008D01*
Y553458D01*
X493276Y552993D01*
Y552570D01*
Y552273D01*
X493318Y552062D01*
Y551893D01*
Y551850D01*
X491753D01*
Y552273D01*
Y552739D01*
Y553755D01*
X491710Y554813D01*
Y555870D01*
Y556378D01*
Y556844D01*
X491668Y557225D01*
Y557605D01*
Y557902D01*
Y558113D01*
Y558283D01*
Y558325D01*
X491626Y559510D01*
X491583Y560568D01*
X491541Y561541D01*
X491499Y562430D01*
X491456Y562768D01*
Y563106D01*
X491414Y563403D01*
Y563614D01*
Y563826D01*
X491372Y563953D01*
Y564038D01*
Y564080D01*
X491329Y564672D01*
X491245Y565222D01*
X491160Y565688D01*
X491076Y566069D01*
X490991Y566407D01*
X490906Y566619D01*
X490864Y566788D01*
Y566830D01*
X490568Y567508D01*
X490398Y567846D01*
X490229Y568100D01*
X490102Y568312D01*
X489975Y568523D01*
X489933Y568608D01*
X489891Y568650D01*
X489425Y569242D01*
X489002Y569666D01*
X488875Y569793D01*
X488748Y569920D01*
X488663Y570004D01*
X488621D01*
X488113Y570343D01*
X487648Y570597D01*
X487479Y570681D01*
X487309Y570723D01*
X487225Y570766D01*
X487182D01*
X486590Y570935D01*
X486040Y571020D01*
X485786Y571062D01*
X485447D01*
X484686Y571020D01*
X484263Y570977D01*
X483924Y570893D01*
X483586Y570850D01*
X483332Y570766D01*
X483162Y570723D01*
X483120D01*
X483162Y571231D01*
X483205Y571655D01*
Y571824D01*
Y571951D01*
Y572035D01*
Y572078D01*
X483839Y572205D01*
X484347Y572247D01*
X484601Y572289D01*
X484897D01*
X485701Y572247D01*
D02*
G37*
G36*
X472245D02*
X473176Y572078D01*
X474064Y571908D01*
X474826Y571655D01*
X475461Y571443D01*
X475715Y571316D01*
X475926Y571231D01*
X476096Y571147D01*
X476222Y571062D01*
X476307Y571020D01*
X476349D01*
X477153Y570512D01*
X477873Y569877D01*
X478465Y569242D01*
X478973Y568608D01*
X479354Y568015D01*
X479650Y567550D01*
X479735Y567380D01*
X479819Y567254D01*
X479862Y567169D01*
Y567127D01*
X480243Y566111D01*
X480539Y565095D01*
X480750Y564122D01*
X480877Y563233D01*
X480962Y562430D01*
X481004Y562133D01*
X481046Y561837D01*
Y561583D01*
Y561414D01*
Y561329D01*
Y561287D01*
Y560610D01*
X480962Y559975D01*
X480919Y559383D01*
X480835Y558833D01*
X480750Y558409D01*
X480708Y558071D01*
X480623Y557859D01*
Y557775D01*
X480412Y557182D01*
X480200Y556632D01*
X479989Y556124D01*
X479777Y555701D01*
X479565Y555363D01*
X479396Y555066D01*
X479311Y554897D01*
X479269Y554855D01*
X478931Y554432D01*
X478550Y554008D01*
X478169Y553670D01*
X477873Y553416D01*
X477576Y553162D01*
X477365Y552993D01*
X477196Y552908D01*
X477153Y552866D01*
X476688Y552612D01*
X476222Y552401D01*
X475799Y552189D01*
X475418Y552062D01*
X475080Y551935D01*
X474784Y551850D01*
X474614Y551808D01*
X474572D01*
X473557Y551596D01*
X473091Y551554D01*
X472668Y551512D01*
X472287Y551469D01*
X471779D01*
X471017Y551512D01*
X470298Y551554D01*
X469663Y551639D01*
X469071Y551766D01*
X468605Y551893D01*
X468225Y551977D01*
X468013Y552020D01*
X467928Y552062D01*
X467251Y552316D01*
X466659Y552654D01*
X466109Y552993D01*
X465643Y553374D01*
X465262Y553670D01*
X465009Y553924D01*
X464797Y554093D01*
X464755Y554178D01*
X464289Y554770D01*
X463866Y555363D01*
X463485Y555997D01*
X463189Y556590D01*
X462977Y557098D01*
X462808Y557478D01*
X462766Y557648D01*
X462724Y557775D01*
X462681Y557817D01*
Y557859D01*
X462427Y558706D01*
X462258Y559552D01*
X462089Y560314D01*
X462004Y561033D01*
X461962Y561626D01*
X461920Y562091D01*
Y562260D01*
Y562387D01*
Y562472D01*
Y562514D01*
X461962Y563360D01*
X462046Y564122D01*
X462131Y564841D01*
X462258Y565476D01*
X462427Y565984D01*
X462512Y566407D01*
X462597Y566661D01*
X462639Y566703D01*
Y566746D01*
X462935Y567465D01*
X463231Y568100D01*
X463570Y568650D01*
X463866Y569158D01*
X464162Y569496D01*
X464416Y569793D01*
X464585Y569962D01*
X464628Y570004D01*
X465135Y570427D01*
X465643Y570808D01*
X466151Y571104D01*
X466659Y571316D01*
X467040Y571527D01*
X467378Y571655D01*
X467590Y571697D01*
X467674Y571739D01*
X468309Y571908D01*
X468944Y572078D01*
X469579Y572162D01*
X470087Y572205D01*
X470552Y572247D01*
X470933Y572289D01*
X471229D01*
X472245Y572247D01*
D02*
G37*
G36*
X512064Y534890D02*
X512107Y533324D01*
Y531801D01*
X512149Y531082D01*
Y530404D01*
Y529770D01*
X512191Y529177D01*
Y528670D01*
Y528204D01*
X512234Y527865D01*
Y527569D01*
Y527400D01*
Y527358D01*
X512615Y517498D01*
X512699Y515763D01*
X512742Y514959D01*
X512784Y514197D01*
X512826Y513478D01*
X512868Y512843D01*
X512911Y512208D01*
Y511658D01*
X512953Y511151D01*
X512995Y510685D01*
Y510304D01*
X513038Y509966D01*
Y509712D01*
X513080Y509542D01*
Y509416D01*
Y509373D01*
X511218D01*
X511260Y511447D01*
Y511616D01*
Y511828D01*
Y512293D01*
X511218Y512928D01*
Y513689D01*
Y514493D01*
X511176Y515340D01*
X511133Y517117D01*
X511091Y518006D01*
Y518852D01*
X511049Y519614D01*
Y520291D01*
Y520883D01*
X511007Y521306D01*
Y521476D01*
Y521603D01*
Y521645D01*
Y521687D01*
X510964Y523295D01*
X510880Y524776D01*
X510837Y526173D01*
X510795Y527485D01*
X510753Y528712D01*
X510668Y529812D01*
X510626Y530828D01*
X510583Y531716D01*
X510541Y532520D01*
Y533240D01*
X510499Y533832D01*
X510456Y534297D01*
Y534678D01*
X510414Y534975D01*
Y535144D01*
Y535186D01*
X509272Y535144D01*
X503432D01*
X502755Y535102D01*
X502162Y535059D01*
X501697Y534975D01*
X501358Y534932D01*
X501105Y534848D01*
X500978Y534805D01*
X500935D01*
X500258Y534551D01*
X500004Y534382D01*
X499750Y534213D01*
X499581Y534086D01*
X499454Y533959D01*
X499370Y533917D01*
X499327Y533874D01*
X498904Y533409D01*
X498565Y532901D01*
X498481Y532690D01*
X498396Y532520D01*
X498312Y532393D01*
Y532351D01*
X498100Y531632D01*
X498015Y531293D01*
X497973Y530997D01*
X497931Y530743D01*
Y530531D01*
Y530404D01*
Y530362D01*
X497973Y529812D01*
X498015Y529304D01*
X498142Y528796D01*
X498227Y528373D01*
X498354Y527992D01*
X498481Y527738D01*
X498523Y527569D01*
X498565Y527485D01*
X498819Y527019D01*
X499116Y526554D01*
X499412Y526173D01*
X499666Y525877D01*
X499920Y525580D01*
X500131Y525411D01*
X500258Y525284D01*
X500300Y525242D01*
X500724Y524946D01*
X501147Y524649D01*
X501612Y524438D01*
X501993Y524268D01*
X502374Y524142D01*
X502670Y524057D01*
X502839Y523972D01*
X502924D01*
X504109Y523761D01*
X504659Y523676D01*
X505125Y523634D01*
X505548D01*
X505886Y523591D01*
X506182D01*
X507410Y523634D01*
X508002Y523718D01*
X508552Y523761D01*
X508975Y523845D01*
X509356Y523888D01*
X509568Y523930D01*
X509652D01*
X509483Y523465D01*
X509398Y523084D01*
X509314Y522788D01*
X509272Y522745D01*
Y522703D01*
X508595Y522576D01*
X507960Y522491D01*
X507410Y522449D01*
X506902Y522407D01*
X506521Y522364D01*
X505928D01*
X504955Y522407D01*
X504024Y522491D01*
X503220Y522660D01*
X502501Y522830D01*
X501908Y522999D01*
X501485Y523168D01*
X501316Y523211D01*
X501189Y523253D01*
X501147Y523295D01*
X501105D01*
X500343Y523676D01*
X499666Y524142D01*
X499116Y524607D01*
X498608Y525030D01*
X498227Y525453D01*
X497931Y525792D01*
X497761Y526003D01*
X497719Y526088D01*
X497296Y526808D01*
X497000Y527569D01*
X496746Y528289D01*
X496619Y528966D01*
X496534Y529558D01*
X496450Y530024D01*
Y530193D01*
Y530320D01*
Y530404D01*
Y530447D01*
Y530955D01*
X496534Y531420D01*
X496619Y531843D01*
X496704Y532266D01*
X496788Y532563D01*
X496873Y532817D01*
X496915Y532986D01*
X496958Y533028D01*
X497169Y533451D01*
X497381Y533874D01*
X497635Y534213D01*
X497888Y534509D01*
X498100Y534763D01*
X498269Y534932D01*
X498396Y535059D01*
X498438Y535102D01*
X498819Y535398D01*
X499200Y535609D01*
X499539Y535821D01*
X499877Y535948D01*
X500173Y536032D01*
X500385Y536117D01*
X500554Y536160D01*
X500597D01*
X501062Y536244D01*
X501570Y536329D01*
X502120Y536371D01*
X502585D01*
X503051Y536413D01*
X503728D01*
X508129Y536371D01*
X512064Y536413D01*
Y534890D01*
D02*
G37*
G36*
X397641Y536032D02*
X398149Y535694D01*
X398614Y535398D01*
X398953Y535144D01*
X399249Y534975D01*
X399418Y534848D01*
X399545Y534805D01*
X399587Y534763D01*
Y534213D01*
X399630Y533747D01*
Y533578D01*
X399672Y533409D01*
Y533324D01*
Y533282D01*
X399080Y533663D01*
X398614Y533959D01*
X398233Y534255D01*
X397895Y534425D01*
X397683Y534594D01*
X397556Y534678D01*
X397472Y534763D01*
X397429D01*
Y534213D01*
Y533620D01*
X397472Y532309D01*
X397514Y530955D01*
Y529643D01*
X397556Y529008D01*
Y528458D01*
X397598Y527950D01*
Y527527D01*
X397641Y527146D01*
Y526892D01*
Y526681D01*
Y526638D01*
X398022Y516948D01*
X398064Y515382D01*
X398149Y513943D01*
Y513266D01*
X398191Y512631D01*
X398233Y512039D01*
X398276Y511531D01*
Y511066D01*
X398318Y510643D01*
Y510262D01*
X398360Y509966D01*
Y509712D01*
X398403Y509500D01*
Y509416D01*
Y509373D01*
X396668D01*
Y509923D01*
X396710Y510431D01*
Y510897D01*
Y511277D01*
Y511574D01*
Y511828D01*
Y511954D01*
Y511997D01*
Y512631D01*
Y513182D01*
Y513393D01*
Y513563D01*
Y513647D01*
Y513689D01*
X396625Y517286D01*
X395737Y536413D01*
X395990Y536371D01*
X396583D01*
X396795Y536413D01*
X397006D01*
X397641Y536032D01*
D02*
G37*
G36*
X368569Y516144D02*
X368273Y515340D01*
X368062Y514663D01*
X367850Y514113D01*
X367681Y513689D01*
X367596Y513351D01*
X367512Y513097D01*
X367427Y512970D01*
Y512928D01*
X367258Y512420D01*
X367131Y511997D01*
X367088Y511828D01*
X367046Y511701D01*
X367004Y511616D01*
Y511574D01*
X366327Y509373D01*
X364084D01*
X363449Y510727D01*
X362772Y512124D01*
X362095Y513478D01*
X361503Y514747D01*
X361206Y515298D01*
X360952Y515805D01*
X360741Y516271D01*
X360529Y516652D01*
X360360Y516990D01*
X360233Y517202D01*
X360191Y517371D01*
X360149Y517413D01*
X354944Y527527D01*
X354436Y528543D01*
X353928Y529558D01*
X353462Y530447D01*
X353039Y531293D01*
X352616Y532097D01*
X352235Y532817D01*
X351855Y533493D01*
X351558Y534086D01*
X351262Y534636D01*
X351008Y535102D01*
X350797Y535482D01*
X350627Y535821D01*
X350458Y536075D01*
X350373Y536286D01*
X350289Y536371D01*
Y536413D01*
X350627Y536371D01*
X351558D01*
X351855Y536413D01*
X352151D01*
X352405Y535863D01*
X352659Y535355D01*
X352828Y534890D01*
X352997Y534551D01*
X353166Y534255D01*
X353251Y534044D01*
X353293Y533917D01*
X353336Y533874D01*
X354351Y531716D01*
X365099Y510558D01*
X372970Y532732D01*
X374113Y536413D01*
X374451Y536371D01*
X375298D01*
X375594Y536413D01*
X375890D01*
X368569Y516144D01*
D02*
G37*
G36*
X340345Y536032D02*
X340852Y535694D01*
X341318Y535398D01*
X341656Y535144D01*
X341953Y534975D01*
X342122Y534848D01*
X342249Y534805D01*
X342291Y534763D01*
Y534213D01*
X342333Y533747D01*
Y533578D01*
X342376Y533409D01*
Y533324D01*
Y533282D01*
X341783Y533663D01*
X341318Y533959D01*
X340937Y534255D01*
X340598Y534425D01*
X340387Y534594D01*
X340260Y534678D01*
X340175Y534763D01*
X340133D01*
Y534213D01*
Y533620D01*
X340175Y532309D01*
X340218Y530955D01*
Y529643D01*
X340260Y529008D01*
Y528458D01*
X340302Y527950D01*
Y527527D01*
X340345Y527146D01*
Y526892D01*
Y526681D01*
Y526638D01*
X340725Y516948D01*
X340768Y515382D01*
X340852Y513943D01*
Y513266D01*
X340895Y512631D01*
X340937Y512039D01*
X340979Y511531D01*
Y511066D01*
X341021Y510643D01*
Y510262D01*
X341064Y509966D01*
Y509712D01*
X341106Y509500D01*
Y509416D01*
Y509373D01*
X339371D01*
Y509923D01*
X339413Y510431D01*
Y510897D01*
Y511277D01*
Y511574D01*
Y511828D01*
Y511954D01*
Y511997D01*
Y512631D01*
Y513182D01*
Y513393D01*
Y513563D01*
Y513647D01*
Y513689D01*
X339329Y517286D01*
X338440Y536413D01*
X338694Y536371D01*
X339286D01*
X339498Y536413D01*
X339710D01*
X340345Y536032D01*
D02*
G37*
G36*
X386893Y519952D02*
X386935Y519487D01*
Y519318D01*
X386977Y519148D01*
Y519064D01*
Y519021D01*
X386131Y519064D01*
X385285Y519106D01*
X384523D01*
X383803Y519148D01*
X380418D01*
X379614Y519106D01*
X378895D01*
X378302Y519064D01*
X377879D01*
X377710Y519021D01*
X377498D01*
X377456Y519487D01*
X377414Y519952D01*
Y520164D01*
X377371Y520333D01*
Y520418D01*
Y520460D01*
X378218Y520418D01*
X379868D01*
X380630Y520375D01*
X383973D01*
X384777Y520418D01*
X386088D01*
X386512Y520460D01*
X386893D01*
Y519952D01*
D02*
G37*
G36*
X485109Y536752D02*
X485532Y536710D01*
X485955Y536625D01*
X486294Y536540D01*
X486548Y536498D01*
X486717Y536413D01*
X486759D01*
X487225Y536244D01*
X487690Y536032D01*
X488071Y535779D01*
X488452Y535567D01*
X488748Y535355D01*
X488960Y535186D01*
X489129Y535059D01*
X489171Y535017D01*
X489552Y534636D01*
X489933Y534297D01*
X490229Y533917D01*
X490483Y533578D01*
X490695Y533282D01*
X490864Y533028D01*
X490948Y532859D01*
X490991Y532817D01*
X491456Y531843D01*
X491668Y531378D01*
X491837Y530955D01*
X492006Y530574D01*
X492133Y530277D01*
X492176Y530108D01*
X492218Y530024D01*
X492556Y528796D01*
X492726Y528204D01*
X492810Y527654D01*
X492937Y527188D01*
X493022Y526808D01*
X493064Y526554D01*
Y526511D01*
Y526469D01*
X493191Y525411D01*
X493318Y524395D01*
X493403Y523422D01*
X493445Y522576D01*
Y521814D01*
X493488Y521518D01*
Y521264D01*
Y521053D01*
Y520883D01*
Y520799D01*
Y520756D01*
Y519995D01*
X493445Y519233D01*
X493361Y518556D01*
X493318Y517963D01*
X493234Y517413D01*
X493191Y517032D01*
X493149Y516778D01*
Y516736D01*
Y516694D01*
X493022Y515975D01*
X492853Y515298D01*
X492641Y514663D01*
X492472Y514155D01*
X492303Y513732D01*
X492176Y513393D01*
X492091Y513182D01*
X492049Y513097D01*
X491753Y512547D01*
X491414Y512039D01*
X491076Y511574D01*
X490779Y511235D01*
X490525Y510939D01*
X490271Y510727D01*
X490145Y510600D01*
X490102Y510558D01*
X489679Y510219D01*
X489256Y509966D01*
X488875Y509754D01*
X488494Y509585D01*
X488198Y509458D01*
X487986Y509373D01*
X487817Y509288D01*
X487775D01*
X486844Y509077D01*
X486421Y509035D01*
X486040Y508992D01*
X485701Y508950D01*
X485236D01*
X484389Y508992D01*
X483628Y509119D01*
X482908Y509288D01*
X482316Y509458D01*
X481808Y509627D01*
X481427Y509796D01*
X481216Y509923D01*
X481131Y509966D01*
X480496Y510431D01*
X479904Y510939D01*
X479396Y511489D01*
X478973Y512039D01*
X478634Y512547D01*
X478381Y512928D01*
X478296Y513097D01*
X478211Y513224D01*
X478169Y513266D01*
Y513309D01*
X477746Y514197D01*
X477407Y515086D01*
X477111Y515975D01*
X476899Y516778D01*
X476730Y517456D01*
X476646Y517752D01*
X476561Y518006D01*
X476519Y518217D01*
Y518387D01*
X476476Y518471D01*
Y518513D01*
X476307Y519614D01*
X476138Y520672D01*
X476053Y521687D01*
X476011Y522576D01*
X475969Y522999D01*
Y523338D01*
X475926Y523676D01*
Y523930D01*
Y524142D01*
Y524311D01*
Y524395D01*
Y524438D01*
Y525242D01*
X475969Y526003D01*
X476011Y526681D01*
X476096Y527315D01*
X476138Y527823D01*
X476222Y528204D01*
X476265Y528458D01*
Y528543D01*
X476392Y529262D01*
X476561Y529939D01*
X476730Y530574D01*
X476899Y531124D01*
X477026Y531547D01*
X477153Y531885D01*
X477238Y532097D01*
X477280Y532182D01*
X477576Y532774D01*
X477873Y533324D01*
X478169Y533790D01*
X478465Y534171D01*
X478719Y534467D01*
X478931Y534721D01*
X479058Y534848D01*
X479100Y534890D01*
X479481Y535229D01*
X479904Y535567D01*
X480285Y535821D01*
X480623Y536032D01*
X480919Y536160D01*
X481173Y536286D01*
X481343Y536371D01*
X481385D01*
X481851Y536540D01*
X482316Y536625D01*
X482781Y536710D01*
X483205Y536794D01*
X483543D01*
X483839Y536837D01*
X484093D01*
X485109Y536752D01*
D02*
G37*
G36*
X463358D02*
X463781Y536710D01*
X464205Y536625D01*
X464543Y536540D01*
X464797Y536498D01*
X464966Y536413D01*
X465009D01*
X465474Y536244D01*
X465939Y536032D01*
X466320Y535779D01*
X466701Y535567D01*
X466997Y535355D01*
X467209Y535186D01*
X467378Y535059D01*
X467421Y535017D01*
X467802Y534636D01*
X468182Y534297D01*
X468479Y533917D01*
X468732Y533578D01*
X468944Y533282D01*
X469113Y533028D01*
X469198Y532859D01*
X469240Y532817D01*
X469706Y531843D01*
X469917Y531378D01*
X470087Y530955D01*
X470256Y530574D01*
X470383Y530277D01*
X470425Y530108D01*
X470467Y530024D01*
X470806Y528796D01*
X470975Y528204D01*
X471060Y527654D01*
X471187Y527188D01*
X471271Y526808D01*
X471314Y526554D01*
Y526511D01*
Y526469D01*
X471441Y525411D01*
X471568Y524395D01*
X471652Y523422D01*
X471695Y522576D01*
Y521814D01*
X471737Y521518D01*
Y521264D01*
Y521053D01*
Y520883D01*
Y520799D01*
Y520756D01*
Y519995D01*
X471695Y519233D01*
X471610Y518556D01*
X471568Y517963D01*
X471483Y517413D01*
X471441Y517032D01*
X471398Y516778D01*
Y516736D01*
Y516694D01*
X471271Y515975D01*
X471102Y515298D01*
X470891Y514663D01*
X470721Y514155D01*
X470552Y513732D01*
X470425Y513393D01*
X470340Y513182D01*
X470298Y513097D01*
X470002Y512547D01*
X469663Y512039D01*
X469325Y511574D01*
X469029Y511235D01*
X468775Y510939D01*
X468521Y510727D01*
X468394Y510600D01*
X468352Y510558D01*
X467928Y510219D01*
X467505Y509966D01*
X467124Y509754D01*
X466744Y509585D01*
X466447Y509458D01*
X466236Y509373D01*
X466067Y509288D01*
X466024D01*
X465093Y509077D01*
X464670Y509035D01*
X464289Y508992D01*
X463951Y508950D01*
X463485D01*
X462639Y508992D01*
X461877Y509119D01*
X461158Y509288D01*
X460565Y509458D01*
X460058Y509627D01*
X459677Y509796D01*
X459465Y509923D01*
X459380Y509966D01*
X458746Y510431D01*
X458153Y510939D01*
X457645Y511489D01*
X457222Y512039D01*
X456884Y512547D01*
X456630Y512928D01*
X456545Y513097D01*
X456461Y513224D01*
X456418Y513266D01*
Y513309D01*
X455995Y514197D01*
X455657Y515086D01*
X455360Y515975D01*
X455149Y516778D01*
X454980Y517456D01*
X454895Y517752D01*
X454810Y518006D01*
X454768Y518217D01*
Y518387D01*
X454726Y518471D01*
Y518513D01*
X454556Y519614D01*
X454387Y520672D01*
X454302Y521687D01*
X454260Y522576D01*
X454218Y522999D01*
Y523338D01*
X454176Y523676D01*
Y523930D01*
Y524142D01*
Y524311D01*
Y524395D01*
Y524438D01*
Y525242D01*
X454218Y526003D01*
X454260Y526681D01*
X454345Y527315D01*
X454387Y527823D01*
X454472Y528204D01*
X454514Y528458D01*
Y528543D01*
X454641Y529262D01*
X454810Y529939D01*
X454980Y530574D01*
X455149Y531124D01*
X455276Y531547D01*
X455403Y531885D01*
X455487Y532097D01*
X455530Y532182D01*
X455826Y532774D01*
X456122Y533324D01*
X456418Y533790D01*
X456715Y534171D01*
X456968Y534467D01*
X457180Y534721D01*
X457307Y534848D01*
X457349Y534890D01*
X457730Y535229D01*
X458153Y535567D01*
X458534Y535821D01*
X458873Y536032D01*
X459169Y536160D01*
X459423Y536286D01*
X459592Y536371D01*
X459634D01*
X460100Y536540D01*
X460565Y536625D01*
X461031Y536710D01*
X461454Y536794D01*
X461792D01*
X462089Y536837D01*
X462343D01*
X463358Y536752D01*
D02*
G37*
G36*
X441608D02*
X442031Y536710D01*
X442454Y536625D01*
X442793Y536540D01*
X443046Y536498D01*
X443216Y536413D01*
X443258D01*
X443723Y536244D01*
X444189Y536032D01*
X444570Y535779D01*
X444951Y535567D01*
X445247Y535355D01*
X445458Y535186D01*
X445628Y535059D01*
X445670Y535017D01*
X446051Y534636D01*
X446432Y534297D01*
X446728Y533917D01*
X446982Y533578D01*
X447193Y533282D01*
X447363Y533028D01*
X447447Y532859D01*
X447490Y532817D01*
X447955Y531843D01*
X448167Y531378D01*
X448336Y530955D01*
X448505Y530574D01*
X448632Y530277D01*
X448674Y530108D01*
X448717Y530024D01*
X449055Y528796D01*
X449225Y528204D01*
X449309Y527654D01*
X449436Y527188D01*
X449521Y526808D01*
X449563Y526554D01*
Y526511D01*
Y526469D01*
X449690Y525411D01*
X449817Y524395D01*
X449902Y523422D01*
X449944Y522576D01*
Y521814D01*
X449986Y521518D01*
Y521264D01*
Y521053D01*
Y520883D01*
Y520799D01*
Y520756D01*
Y519995D01*
X449944Y519233D01*
X449859Y518556D01*
X449817Y517963D01*
X449732Y517413D01*
X449690Y517032D01*
X449648Y516778D01*
Y516736D01*
Y516694D01*
X449521Y515975D01*
X449352Y515298D01*
X449140Y514663D01*
X448971Y514155D01*
X448801Y513732D01*
X448674Y513393D01*
X448590Y513182D01*
X448548Y513097D01*
X448251Y512547D01*
X447913Y512039D01*
X447574Y511574D01*
X447278Y511235D01*
X447024Y510939D01*
X446770Y510727D01*
X446643Y510600D01*
X446601Y510558D01*
X446178Y510219D01*
X445755Y509966D01*
X445374Y509754D01*
X444993Y509585D01*
X444697Y509458D01*
X444485Y509373D01*
X444316Y509288D01*
X444273D01*
X443343Y509077D01*
X442919Y509035D01*
X442539Y508992D01*
X442200Y508950D01*
X441735D01*
X440888Y508992D01*
X440126Y509119D01*
X439407Y509288D01*
X438815Y509458D01*
X438307Y509627D01*
X437926Y509796D01*
X437715Y509923D01*
X437630Y509966D01*
X436995Y510431D01*
X436403Y510939D01*
X435895Y511489D01*
X435472Y512039D01*
X435133Y512547D01*
X434879Y512928D01*
X434795Y513097D01*
X434710Y513224D01*
X434668Y513266D01*
Y513309D01*
X434244Y514197D01*
X433906Y515086D01*
X433610Y515975D01*
X433398Y516778D01*
X433229Y517456D01*
X433144Y517752D01*
X433060Y518006D01*
X433017Y518217D01*
Y518387D01*
X432975Y518471D01*
Y518513D01*
X432806Y519614D01*
X432636Y520672D01*
X432552Y521687D01*
X432510Y522576D01*
X432467Y522999D01*
Y523338D01*
X432425Y523676D01*
Y523930D01*
Y524142D01*
Y524311D01*
Y524395D01*
Y524438D01*
Y525242D01*
X432467Y526003D01*
X432510Y526681D01*
X432594Y527315D01*
X432636Y527823D01*
X432721Y528204D01*
X432763Y528458D01*
Y528543D01*
X432890Y529262D01*
X433060Y529939D01*
X433229Y530574D01*
X433398Y531124D01*
X433525Y531547D01*
X433652Y531885D01*
X433737Y532097D01*
X433779Y532182D01*
X434075Y532774D01*
X434371Y533324D01*
X434668Y533790D01*
X434964Y534171D01*
X435218Y534467D01*
X435429Y534721D01*
X435556Y534848D01*
X435599Y534890D01*
X435979Y535229D01*
X436403Y535567D01*
X436783Y535821D01*
X437122Y536032D01*
X437418Y536160D01*
X437672Y536286D01*
X437841Y536371D01*
X437884D01*
X438349Y536540D01*
X438815Y536625D01*
X439280Y536710D01*
X439703Y536794D01*
X440042D01*
X440338Y536837D01*
X440592D01*
X441608Y536752D01*
D02*
G37*
G36*
X419857D02*
X420280Y536710D01*
X420703Y536625D01*
X421042Y536540D01*
X421296Y536498D01*
X421465Y536413D01*
X421507D01*
X421973Y536244D01*
X422438Y536032D01*
X422819Y535779D01*
X423200Y535567D01*
X423496Y535355D01*
X423708Y535186D01*
X423877Y535059D01*
X423919Y535017D01*
X424300Y534636D01*
X424681Y534297D01*
X424977Y533917D01*
X425231Y533578D01*
X425443Y533282D01*
X425612Y533028D01*
X425697Y532859D01*
X425739Y532817D01*
X426204Y531843D01*
X426416Y531378D01*
X426585Y530955D01*
X426754Y530574D01*
X426881Y530277D01*
X426924Y530108D01*
X426966Y530024D01*
X427305Y528796D01*
X427474Y528204D01*
X427559Y527654D01*
X427686Y527188D01*
X427770Y526808D01*
X427812Y526554D01*
Y526511D01*
Y526469D01*
X427939Y525411D01*
X428066Y524395D01*
X428151Y523422D01*
X428193Y522576D01*
Y521814D01*
X428236Y521518D01*
Y521264D01*
Y521053D01*
Y520883D01*
Y520799D01*
Y520756D01*
Y519995D01*
X428193Y519233D01*
X428109Y518556D01*
X428066Y517963D01*
X427982Y517413D01*
X427939Y517032D01*
X427897Y516778D01*
Y516736D01*
Y516694D01*
X427770Y515975D01*
X427601Y515298D01*
X427389Y514663D01*
X427220Y514155D01*
X427051Y513732D01*
X426924Y513393D01*
X426839Y513182D01*
X426797Y513097D01*
X426501Y512547D01*
X426162Y512039D01*
X425824Y511574D01*
X425527Y511235D01*
X425274Y510939D01*
X425020Y510727D01*
X424893Y510600D01*
X424850Y510558D01*
X424427Y510219D01*
X424004Y509966D01*
X423623Y509754D01*
X423242Y509585D01*
X422946Y509458D01*
X422734Y509373D01*
X422565Y509288D01*
X422523D01*
X421592Y509077D01*
X421169Y509035D01*
X420788Y508992D01*
X420449Y508950D01*
X419984D01*
X419138Y508992D01*
X418376Y509119D01*
X417657Y509288D01*
X417064Y509458D01*
X416556Y509627D01*
X416175Y509796D01*
X415964Y509923D01*
X415879Y509966D01*
X415244Y510431D01*
X414652Y510939D01*
X414144Y511489D01*
X413721Y512039D01*
X413383Y512547D01*
X413129Y512928D01*
X413044Y513097D01*
X412959Y513224D01*
X412917Y513266D01*
Y513309D01*
X412494Y514197D01*
X412155Y515086D01*
X411859Y515975D01*
X411648Y516778D01*
X411478Y517456D01*
X411394Y517752D01*
X411309Y518006D01*
X411267Y518217D01*
Y518387D01*
X411224Y518471D01*
Y518513D01*
X411055Y519614D01*
X410886Y520672D01*
X410801Y521687D01*
X410759Y522576D01*
X410717Y522999D01*
Y523338D01*
X410674Y523676D01*
Y523930D01*
Y524142D01*
Y524311D01*
Y524395D01*
Y524438D01*
Y525242D01*
X410717Y526003D01*
X410759Y526681D01*
X410844Y527315D01*
X410886Y527823D01*
X410970Y528204D01*
X411013Y528458D01*
Y528543D01*
X411140Y529262D01*
X411309Y529939D01*
X411478Y530574D01*
X411648Y531124D01*
X411774Y531547D01*
X411902Y531885D01*
X411986Y532097D01*
X412028Y532182D01*
X412325Y532774D01*
X412621Y533324D01*
X412917Y533790D01*
X413213Y534171D01*
X413467Y534467D01*
X413679Y534721D01*
X413806Y534848D01*
X413848Y534890D01*
X414229Y535229D01*
X414652Y535567D01*
X415033Y535821D01*
X415371Y536032D01*
X415668Y536160D01*
X415922Y536286D01*
X416091Y536371D01*
X416133D01*
X416599Y536540D01*
X417064Y536625D01*
X417530Y536710D01*
X417953Y536794D01*
X418291D01*
X418587Y536837D01*
X418841D01*
X419857Y536752D01*
D02*
G37*
%LPC*%
G36*
X498481Y610493D02*
X494334Y598898D01*
X504405D01*
X498481Y610493D01*
D02*
G37*
G36*
X468013Y589715D02*
Y589673D01*
X468016Y589669D01*
X468013Y589715D01*
D02*
G37*
G36*
X472499Y604018D02*
X471398D01*
X471102Y603976D01*
X470806D01*
X470552Y603933D01*
X470340D01*
X470214Y603891D01*
X470171D01*
X469367Y603764D01*
X468944Y603680D01*
X468563Y603553D01*
X468225Y603468D01*
X467971Y603426D01*
X467759Y603341D01*
X467717D01*
X467928Y596697D01*
X467971Y595682D01*
X468055Y594835D01*
X468098Y594074D01*
X468182Y593481D01*
X468225Y593016D01*
X468267Y592677D01*
X468309Y592508D01*
Y592423D01*
X468521Y591450D01*
X468690Y591027D01*
X468817Y590646D01*
X468944Y590350D01*
X469029Y590096D01*
X469071Y589927D01*
X469113Y589884D01*
X469536Y589080D01*
X469748Y588699D01*
X469960Y588403D01*
X470129Y588149D01*
X470256Y587980D01*
X470340Y587853D01*
X470383Y587811D01*
X470933Y587261D01*
X471398Y586838D01*
X471610Y586668D01*
X471779Y586541D01*
X471864Y586499D01*
X471906Y586457D01*
X472499Y586118D01*
X473091Y585864D01*
X473303Y585780D01*
X473514Y585695D01*
X473641Y585653D01*
X473683D01*
X474445Y585526D01*
X474826Y585441D01*
X475164D01*
X475461Y585399D01*
X475884D01*
X476603Y585441D01*
X477323Y585526D01*
X477957Y585695D01*
X478465Y585864D01*
X478931Y585991D01*
X479269Y586161D01*
X479481Y586245D01*
X479565Y586287D01*
X480158Y586668D01*
X480666Y587134D01*
X481089Y587599D01*
X481470Y588065D01*
X481724Y588488D01*
X481935Y588826D01*
X482062Y589038D01*
X482104Y589123D01*
X482401Y589884D01*
X482612Y590604D01*
X482781Y591323D01*
X482866Y592000D01*
X482951Y592550D01*
X482993Y593016D01*
Y593185D01*
Y593312D01*
Y593354D01*
Y593397D01*
X482951Y594201D01*
X482866Y594962D01*
X482739Y595682D01*
X482570Y596316D01*
X482443Y596867D01*
X482316Y597290D01*
X482274Y597459D01*
X482231Y597586D01*
X482189Y597628D01*
Y597671D01*
X481851Y598475D01*
X481512Y599152D01*
X481131Y599786D01*
X480750Y600336D01*
X480412Y600760D01*
X480158Y601056D01*
X479989Y601225D01*
X479904Y601310D01*
X479311Y601818D01*
X478719Y602241D01*
X478127Y602579D01*
X477534Y602876D01*
X477069Y603087D01*
X476688Y603256D01*
X476434Y603341D01*
X476392Y603383D01*
X476349D01*
X475588Y603595D01*
X474826Y603764D01*
X474107Y603849D01*
X473472Y603933D01*
X472922Y603976D01*
X472499Y604018D01*
D02*
G37*
G36*
X441438Y571189D02*
X441058D01*
X440380Y571147D01*
X440042Y571104D01*
X439788D01*
X439576Y571062D01*
X439365Y571020D01*
X439280Y570977D01*
X439238D01*
X438603Y570808D01*
X438138Y570597D01*
X437926Y570512D01*
X437799Y570470D01*
X437715Y570385D01*
X437672D01*
X437164Y570089D01*
X436783Y569750D01*
X436530Y569496D01*
X436487Y569454D01*
X436445Y569412D01*
X436064Y568988D01*
X435768Y568565D01*
X435683Y568354D01*
X435599Y568227D01*
X435514Y568142D01*
Y568100D01*
X435260Y567550D01*
X435133Y567042D01*
X435049Y566873D01*
Y566703D01*
X435006Y566619D01*
Y566576D01*
X434964Y566280D01*
X434922Y565942D01*
X434879Y565265D01*
X434837Y564968D01*
Y564715D01*
Y564545D01*
Y564503D01*
X448886Y564545D01*
X448801Y564968D01*
X448717Y565349D01*
X448632Y565645D01*
X448548Y565942D01*
X448463Y566111D01*
X448420Y566280D01*
X448378Y566365D01*
Y566407D01*
X448167Y566915D01*
X447913Y567380D01*
X447828Y567550D01*
X447743Y567677D01*
X447659Y567761D01*
Y567804D01*
X447278Y568354D01*
X446897Y568777D01*
X446728Y568946D01*
X446601Y569073D01*
X446516Y569158D01*
X446474Y569200D01*
X445924Y569666D01*
X445458Y570004D01*
X445247Y570089D01*
X445078Y570173D01*
X444993Y570258D01*
X444951D01*
X444316Y570554D01*
X443681Y570766D01*
X443470Y570850D01*
X443258Y570893D01*
X443131Y570935D01*
X443089D01*
X442327Y571104D01*
X441988Y571147D01*
X441692D01*
X441438Y571189D01*
D02*
G37*
G36*
X471652D02*
X470721D01*
X470171Y571104D01*
X469663Y571062D01*
X469198Y570977D01*
X468859Y570893D01*
X468563Y570808D01*
X468352Y570766D01*
X468309Y570723D01*
X467759Y570554D01*
X467294Y570300D01*
X466828Y570046D01*
X466447Y569793D01*
X466109Y569581D01*
X465897Y569369D01*
X465728Y569242D01*
X465686Y569200D01*
X465262Y568777D01*
X464924Y568312D01*
X464628Y567846D01*
X464374Y567380D01*
X464205Y566957D01*
X464035Y566619D01*
X463993Y566407D01*
X463951Y566365D01*
Y566323D01*
X463781Y565645D01*
X463612Y564968D01*
X463527Y564334D01*
X463485Y563741D01*
X463443Y563233D01*
X463400Y562853D01*
Y562599D01*
Y562556D01*
Y562514D01*
X463443Y561710D01*
X463485Y560948D01*
X463570Y560229D01*
X463697Y559594D01*
X463824Y559086D01*
X463908Y558663D01*
X463951Y558409D01*
X463993Y558367D01*
Y558325D01*
X464205Y557605D01*
X464501Y556971D01*
X464797Y556421D01*
X465051Y555955D01*
X465305Y555574D01*
X465516Y555278D01*
X465686Y555066D01*
X465728Y555024D01*
X466151Y554559D01*
X466617Y554178D01*
X467082Y553839D01*
X467505Y553585D01*
X467886Y553374D01*
X468182Y553247D01*
X468352Y553162D01*
X468436Y553120D01*
X469029Y552951D01*
X469579Y552824D01*
X470129Y552697D01*
X470637Y552654D01*
X471102Y552612D01*
X471441Y552570D01*
X471737D01*
X472329Y552612D01*
X472879Y552654D01*
X473345Y552739D01*
X473810Y552824D01*
X474191Y552908D01*
X474445Y552951D01*
X474614Y553035D01*
X474699D01*
X475207Y553247D01*
X475715Y553501D01*
X476138Y553755D01*
X476519Y554051D01*
X476857Y554305D01*
X477111Y554474D01*
X477280Y554643D01*
X477323Y554686D01*
X477746Y555151D01*
X478084Y555659D01*
X478381Y556124D01*
X478634Y556590D01*
X478804Y557013D01*
X478931Y557309D01*
X479015Y557521D01*
X479058Y557605D01*
X479227Y558283D01*
X479354Y558960D01*
X479439Y559552D01*
X479481Y560144D01*
X479523Y560610D01*
X479565Y560991D01*
Y561245D01*
Y561329D01*
X479523Y562387D01*
X479439Y563318D01*
X479269Y564207D01*
X479100Y564968D01*
X478931Y565603D01*
X478846Y565857D01*
X478761Y566069D01*
X478719Y566280D01*
X478677Y566407D01*
X478634Y566450D01*
Y566492D01*
X478254Y567338D01*
X477788Y568058D01*
X477280Y568650D01*
X476815Y569158D01*
X476349Y569539D01*
X476011Y569793D01*
X475757Y569962D01*
X475715Y570004D01*
X475672D01*
X474911Y570385D01*
X474107Y570681D01*
X473387Y570893D01*
X472710Y571062D01*
X472118Y571147D01*
X471652Y571189D01*
D02*
G37*
G36*
X484389Y535694D02*
X484093D01*
X483543Y535652D01*
X482993Y535567D01*
X482528Y535440D01*
X482104Y535313D01*
X481766Y535144D01*
X481512Y535017D01*
X481343Y534932D01*
X481300Y534890D01*
X480877Y534594D01*
X480454Y534255D01*
X480116Y533917D01*
X479862Y533578D01*
X479608Y533282D01*
X479439Y533070D01*
X479354Y532901D01*
X479311Y532859D01*
X479015Y532351D01*
X478761Y531843D01*
X478550Y531293D01*
X478338Y530785D01*
X478211Y530320D01*
X478084Y529981D01*
X478042Y529727D01*
X478000Y529685D01*
Y529643D01*
X477830Y528839D01*
X477704Y528035D01*
X477619Y527188D01*
X477534Y526384D01*
Y525665D01*
X477492Y525369D01*
Y525115D01*
Y524903D01*
Y524734D01*
Y524649D01*
Y524607D01*
Y523591D01*
X477576Y522618D01*
X477619Y521730D01*
X477704Y520926D01*
X477788Y520206D01*
X477830Y519952D01*
Y519698D01*
X477873Y519487D01*
X477915Y519360D01*
Y519275D01*
Y519233D01*
X478084Y518260D01*
X478296Y517329D01*
X478507Y516525D01*
X478761Y515763D01*
X478973Y515171D01*
X479142Y514705D01*
X479227Y514536D01*
X479269Y514409D01*
X479311Y514366D01*
Y514324D01*
X479692Y513563D01*
X480116Y512885D01*
X480539Y512335D01*
X480919Y511912D01*
X481258Y511531D01*
X481554Y511320D01*
X481724Y511151D01*
X481808Y511108D01*
X482358Y510770D01*
X482951Y510516D01*
X483501Y510346D01*
X484051Y510219D01*
X484474Y510135D01*
X484855Y510093D01*
X485151D01*
X485744Y510135D01*
X486336Y510219D01*
X486844Y510346D01*
X487309Y510516D01*
X487690Y510685D01*
X487986Y510812D01*
X488156Y510897D01*
X488240Y510939D01*
X488748Y511277D01*
X489171Y511658D01*
X489552Y512081D01*
X489891Y512462D01*
X490145Y512801D01*
X490314Y513097D01*
X490441Y513266D01*
X490483Y513351D01*
X490779Y513943D01*
X491033Y514536D01*
X491202Y515128D01*
X491372Y515636D01*
X491499Y516059D01*
X491583Y516440D01*
X491626Y516652D01*
Y516736D01*
X491795Y518133D01*
X491837Y518810D01*
X491880Y519402D01*
X491922Y519952D01*
Y520333D01*
Y520502D01*
Y520629D01*
Y520672D01*
Y520714D01*
Y521730D01*
X491880Y522703D01*
X491795Y523634D01*
X491753Y524438D01*
X491668Y525157D01*
Y525411D01*
X491626Y525665D01*
Y525877D01*
X491583Y526003D01*
Y526088D01*
Y526130D01*
X491414Y527104D01*
X491245Y528035D01*
X491033Y528881D01*
X490779Y529643D01*
X490610Y530235D01*
X490441Y530701D01*
X490356Y530870D01*
X490314Y530997D01*
X490271Y531039D01*
Y531082D01*
X489848Y531885D01*
X489425Y532563D01*
X488960Y533155D01*
X488536Y533663D01*
X488198Y534044D01*
X487859Y534297D01*
X487690Y534467D01*
X487606Y534509D01*
X486971Y534890D01*
X486378Y535186D01*
X485786Y535398D01*
X485236Y535567D01*
X484770Y535652D01*
X484389Y535694D01*
D02*
G37*
G36*
X462639D02*
X462343D01*
X461792Y535652D01*
X461242Y535567D01*
X460777Y535440D01*
X460354Y535313D01*
X460015Y535144D01*
X459761Y535017D01*
X459592Y534932D01*
X459550Y534890D01*
X459127Y534594D01*
X458703Y534255D01*
X458365Y533917D01*
X458111Y533578D01*
X457857Y533282D01*
X457688Y533070D01*
X457603Y532901D01*
X457561Y532859D01*
X457265Y532351D01*
X457011Y531843D01*
X456799Y531293D01*
X456588Y530785D01*
X456461Y530320D01*
X456334Y529981D01*
X456291Y529727D01*
X456249Y529685D01*
Y529643D01*
X456080Y528839D01*
X455953Y528035D01*
X455868Y527188D01*
X455784Y526384D01*
Y525665D01*
X455741Y525369D01*
Y525115D01*
Y524903D01*
Y524734D01*
Y524649D01*
Y524607D01*
Y523591D01*
X455826Y522618D01*
X455868Y521730D01*
X455953Y520926D01*
X456037Y520206D01*
X456080Y519952D01*
Y519698D01*
X456122Y519487D01*
X456164Y519360D01*
Y519275D01*
Y519233D01*
X456334Y518260D01*
X456545Y517329D01*
X456757Y516525D01*
X457011Y515763D01*
X457222Y515171D01*
X457392Y514705D01*
X457476Y514536D01*
X457519Y514409D01*
X457561Y514366D01*
Y514324D01*
X457942Y513563D01*
X458365Y512885D01*
X458788Y512335D01*
X459169Y511912D01*
X459507Y511531D01*
X459804Y511320D01*
X459973Y511151D01*
X460058Y511108D01*
X460608Y510770D01*
X461200Y510516D01*
X461750Y510346D01*
X462300Y510219D01*
X462724Y510135D01*
X463104Y510093D01*
X463400D01*
X463993Y510135D01*
X464585Y510219D01*
X465093Y510346D01*
X465559Y510516D01*
X465939Y510685D01*
X466236Y510812D01*
X466405Y510897D01*
X466490Y510939D01*
X466997Y511277D01*
X467421Y511658D01*
X467802Y512081D01*
X468140Y512462D01*
X468394Y512801D01*
X468563Y513097D01*
X468690Y513266D01*
X468732Y513351D01*
X469029Y513943D01*
X469282Y514536D01*
X469452Y515128D01*
X469621Y515636D01*
X469748Y516059D01*
X469833Y516440D01*
X469875Y516652D01*
Y516736D01*
X470044Y518133D01*
X470087Y518810D01*
X470129Y519402D01*
X470171Y519952D01*
Y520333D01*
Y520502D01*
Y520629D01*
Y520672D01*
Y520714D01*
Y521730D01*
X470129Y522703D01*
X470044Y523634D01*
X470002Y524438D01*
X469917Y525157D01*
Y525411D01*
X469875Y525665D01*
Y525877D01*
X469833Y526003D01*
Y526088D01*
Y526130D01*
X469663Y527104D01*
X469494Y528035D01*
X469282Y528881D01*
X469029Y529643D01*
X468859Y530235D01*
X468690Y530701D01*
X468605Y530870D01*
X468563Y530997D01*
X468521Y531039D01*
Y531082D01*
X468098Y531885D01*
X467674Y532563D01*
X467209Y533155D01*
X466786Y533663D01*
X466447Y534044D01*
X466109Y534297D01*
X465939Y534467D01*
X465855Y534509D01*
X465220Y534890D01*
X464628Y535186D01*
X464035Y535398D01*
X463485Y535567D01*
X463020Y535652D01*
X462639Y535694D01*
D02*
G37*
G36*
X440888D02*
X440592D01*
X440042Y535652D01*
X439492Y535567D01*
X439026Y535440D01*
X438603Y535313D01*
X438265Y535144D01*
X438011Y535017D01*
X437841Y534932D01*
X437799Y534890D01*
X437376Y534594D01*
X436953Y534255D01*
X436614Y533917D01*
X436360Y533578D01*
X436106Y533282D01*
X435937Y533070D01*
X435853Y532901D01*
X435810Y532859D01*
X435514Y532351D01*
X435260Y531843D01*
X435049Y531293D01*
X434837Y530785D01*
X434710Y530320D01*
X434583Y529981D01*
X434541Y529727D01*
X434498Y529685D01*
Y529643D01*
X434329Y528839D01*
X434202Y528035D01*
X434118Y527188D01*
X434033Y526384D01*
Y525665D01*
X433991Y525369D01*
Y525115D01*
Y524903D01*
Y524734D01*
Y524649D01*
Y524607D01*
Y523591D01*
X434075Y522618D01*
X434118Y521730D01*
X434202Y520926D01*
X434287Y520206D01*
X434329Y519952D01*
Y519698D01*
X434371Y519487D01*
X434414Y519360D01*
Y519275D01*
Y519233D01*
X434583Y518260D01*
X434795Y517329D01*
X435006Y516525D01*
X435260Y515763D01*
X435472Y515171D01*
X435641Y514705D01*
X435726Y514536D01*
X435768Y514409D01*
X435810Y514366D01*
Y514324D01*
X436191Y513563D01*
X436614Y512885D01*
X437037Y512335D01*
X437418Y511912D01*
X437757Y511531D01*
X438053Y511320D01*
X438222Y511151D01*
X438307Y511108D01*
X438857Y510770D01*
X439450Y510516D01*
X440000Y510346D01*
X440550Y510219D01*
X440973Y510135D01*
X441354Y510093D01*
X441650D01*
X442242Y510135D01*
X442835Y510219D01*
X443343Y510346D01*
X443808Y510516D01*
X444189Y510685D01*
X444485Y510812D01*
X444654Y510897D01*
X444739Y510939D01*
X445247Y511277D01*
X445670Y511658D01*
X446051Y512081D01*
X446389Y512462D01*
X446643Y512801D01*
X446813Y513097D01*
X446940Y513266D01*
X446982Y513351D01*
X447278Y513943D01*
X447532Y514536D01*
X447701Y515128D01*
X447870Y515636D01*
X447997Y516059D01*
X448082Y516440D01*
X448124Y516652D01*
Y516736D01*
X448294Y518133D01*
X448336Y518810D01*
X448378Y519402D01*
X448420Y519952D01*
Y520333D01*
Y520502D01*
Y520629D01*
Y520672D01*
Y520714D01*
Y521730D01*
X448378Y522703D01*
X448294Y523634D01*
X448251Y524438D01*
X448167Y525157D01*
Y525411D01*
X448124Y525665D01*
Y525877D01*
X448082Y526003D01*
Y526088D01*
Y526130D01*
X447913Y527104D01*
X447743Y528035D01*
X447532Y528881D01*
X447278Y529643D01*
X447109Y530235D01*
X446940Y530701D01*
X446855Y530870D01*
X446813Y530997D01*
X446770Y531039D01*
Y531082D01*
X446347Y531885D01*
X445924Y532563D01*
X445458Y533155D01*
X445035Y533663D01*
X444697Y534044D01*
X444358Y534297D01*
X444189Y534467D01*
X444104Y534509D01*
X443470Y534890D01*
X442877Y535186D01*
X442285Y535398D01*
X441735Y535567D01*
X441269Y535652D01*
X440888Y535694D01*
D02*
G37*
G36*
X419138D02*
X418841D01*
X418291Y535652D01*
X417741Y535567D01*
X417276Y535440D01*
X416852Y535313D01*
X416514Y535144D01*
X416260Y535017D01*
X416091Y534932D01*
X416049Y534890D01*
X415625Y534594D01*
X415202Y534255D01*
X414864Y533917D01*
X414610Y533578D01*
X414356Y533282D01*
X414187Y533070D01*
X414102Y532901D01*
X414060Y532859D01*
X413763Y532351D01*
X413509Y531843D01*
X413298Y531293D01*
X413086Y530785D01*
X412959Y530320D01*
X412832Y529981D01*
X412790Y529727D01*
X412748Y529685D01*
Y529643D01*
X412579Y528839D01*
X412452Y528035D01*
X412367Y527188D01*
X412282Y526384D01*
Y525665D01*
X412240Y525369D01*
Y525115D01*
Y524903D01*
Y524734D01*
Y524649D01*
Y524607D01*
Y523591D01*
X412325Y522618D01*
X412367Y521730D01*
X412452Y520926D01*
X412536Y520206D01*
X412579Y519952D01*
Y519698D01*
X412621Y519487D01*
X412663Y519360D01*
Y519275D01*
Y519233D01*
X412832Y518260D01*
X413044Y517329D01*
X413256Y516525D01*
X413509Y515763D01*
X413721Y515171D01*
X413890Y514705D01*
X413975Y514536D01*
X414017Y514409D01*
X414060Y514366D01*
Y514324D01*
X414440Y513563D01*
X414864Y512885D01*
X415287Y512335D01*
X415668Y511912D01*
X416006Y511531D01*
X416302Y511320D01*
X416472Y511151D01*
X416556Y511108D01*
X417106Y510770D01*
X417699Y510516D01*
X418249Y510346D01*
X418799Y510219D01*
X419222Y510135D01*
X419603Y510093D01*
X419899D01*
X420492Y510135D01*
X421084Y510219D01*
X421592Y510346D01*
X422057Y510516D01*
X422438Y510685D01*
X422734Y510812D01*
X422904Y510897D01*
X422988Y510939D01*
X423496Y511277D01*
X423919Y511658D01*
X424300Y512081D01*
X424639Y512462D01*
X424893Y512801D01*
X425062Y513097D01*
X425189Y513266D01*
X425231Y513351D01*
X425527Y513943D01*
X425781Y514536D01*
X425951Y515128D01*
X426120Y515636D01*
X426247Y516059D01*
X426331Y516440D01*
X426374Y516652D01*
Y516736D01*
X426543Y518133D01*
X426585Y518810D01*
X426628Y519402D01*
X426670Y519952D01*
Y520333D01*
Y520502D01*
Y520629D01*
Y520672D01*
Y520714D01*
Y521730D01*
X426628Y522703D01*
X426543Y523634D01*
X426501Y524438D01*
X426416Y525157D01*
Y525411D01*
X426374Y525665D01*
Y525877D01*
X426331Y526003D01*
Y526088D01*
Y526130D01*
X426162Y527104D01*
X425993Y528035D01*
X425781Y528881D01*
X425527Y529643D01*
X425358Y530235D01*
X425189Y530701D01*
X425104Y530870D01*
X425062Y530997D01*
X425020Y531039D01*
Y531082D01*
X424596Y531885D01*
X424173Y532563D01*
X423708Y533155D01*
X423285Y533663D01*
X422946Y534044D01*
X422607Y534297D01*
X422438Y534467D01*
X422354Y534509D01*
X421719Y534890D01*
X421127Y535186D01*
X420534Y535398D01*
X419984Y535567D01*
X419518Y535652D01*
X419138Y535694D01*
D02*
G37*
%LPD*%
D12*
X444514Y34400D02*
G03*
X444514Y34400I-1414J0D01*
G01*
X521364D02*
G03*
X521364Y34400I-1414J0D01*
G01*
M02*
