G04*
G04 #@! TF.GenerationSoftware,Altium Limited,Altium Designer,22.7.1 (60)*
G04*
G04 Layer_Physical_Order=2*
G04 Layer_Color=16711680*
%FSLAX44Y44*%
%MOMM*%
G71*
G04*
G04 #@! TF.SameCoordinates,19F2358B-4240-49B2-A54B-8FB7877D19E4*
G04*
G04*
G04 #@! TF.FilePolarity,Positive*
G04*
G01*
G75*
%ADD12C,0.2540*%
%ADD64C,0.5080*%
%ADD66C,2.0000*%
%ADD67R,2.0000X2.0000*%
%ADD68C,8.0000*%
%ADD69R,2.5000X1.7500*%
%ADD70O,2.5000X1.7500*%
%ADD71O,1.7500X2.5000*%
%ADD72R,1.7500X2.5000*%
%ADD73O,1.5000X2.5000*%
%ADD74R,1.5000X2.5000*%
%ADD75C,1.3000*%
%ADD76O,6.5000X4.0000*%
%ADD77O,1.6000X2.2500*%
%ADD78R,1.6000X2.2500*%
%ADD79C,0.9652*%
%ADD80C,0.6096*%
G36*
X569582Y568375D02*
X569291Y567139D01*
X562500D01*
X558181Y566713D01*
X554028Y565453D01*
X550200Y563408D01*
X546846Y560654D01*
X544092Y557299D01*
X542047Y553472D01*
X540787Y549319D01*
X540361Y545000D01*
X540787Y540681D01*
X542047Y536528D01*
X544092Y532701D01*
X546846Y529346D01*
X550200Y526592D01*
X554028Y524547D01*
X558181Y523287D01*
X562500Y522861D01*
X587500D01*
X591819Y523287D01*
X595972Y524547D01*
X599799Y526592D01*
X603154Y529346D01*
X605908Y532701D01*
X607953Y536528D01*
X609213Y540681D01*
X609639Y545000D01*
X609421Y547212D01*
X610467Y547932D01*
X618933Y543699D01*
X618933Y10987D01*
X10987D01*
Y74908D01*
X12257Y75651D01*
X14210Y75394D01*
X16437Y75688D01*
X18513Y76547D01*
X20295Y77915D01*
X21663Y79697D01*
X22522Y81773D01*
X22816Y84000D01*
X22522Y86227D01*
X21663Y88303D01*
X20295Y90085D01*
X18513Y91453D01*
X16437Y92312D01*
X14210Y92606D01*
X12257Y92348D01*
X10987Y93092D01*
Y137408D01*
X12257Y138152D01*
X14210Y137894D01*
X16437Y138188D01*
X18513Y139047D01*
X20295Y140415D01*
X21663Y142197D01*
X22522Y144273D01*
X22816Y146500D01*
X22522Y148727D01*
X21663Y150803D01*
X20295Y152585D01*
X18513Y153953D01*
X16437Y154812D01*
X14210Y155106D01*
X12257Y154848D01*
X10987Y155592D01*
X10987Y543699D01*
X19537Y547975D01*
X20584Y547255D01*
X20361Y545000D01*
X20787Y540681D01*
X22047Y536528D01*
X24092Y532701D01*
X26846Y529346D01*
X30200Y526592D01*
X34028Y524547D01*
X38181Y523287D01*
X42500Y522861D01*
X67500D01*
X71819Y523287D01*
X75972Y524547D01*
X79799Y526592D01*
X83154Y529346D01*
X85907Y532701D01*
X87953Y536528D01*
X89213Y540681D01*
X89318Y541750D01*
X90588Y541687D01*
Y444782D01*
X83218D01*
Y437412D01*
X79250D01*
X77466Y437057D01*
X75954Y436046D01*
X68673Y428766D01*
X67663Y427253D01*
X67308Y425470D01*
Y169056D01*
X67078Y168879D01*
X65979Y167447D01*
X65288Y165779D01*
X65052Y163988D01*
X65288Y162198D01*
X65979Y160530D01*
X67078Y159097D01*
X67308Y158921D01*
Y91540D01*
X67663Y89757D01*
X68673Y88244D01*
X74174Y82744D01*
X75686Y81733D01*
X77470Y81378D01*
X113203D01*
X115988Y78593D01*
Y58889D01*
X115212Y58568D01*
X112960Y56840D01*
X111232Y54587D01*
X110146Y51965D01*
X109775Y49150D01*
Y41650D01*
X110146Y38835D01*
X111232Y36212D01*
X112960Y33960D01*
X115212Y32232D01*
X117835Y31146D01*
X120650Y30775D01*
X123465Y31146D01*
X126088Y32232D01*
X128340Y33960D01*
X130068Y36212D01*
X131154Y38835D01*
X131525Y41650D01*
Y49150D01*
X131154Y51965D01*
X130068Y54587D01*
X128340Y56840D01*
X126088Y58568D01*
X125312Y58889D01*
Y80524D01*
X124957Y82308D01*
X123946Y83820D01*
X124854Y84695D01*
X129699Y79849D01*
X130792Y79120D01*
X132080Y78863D01*
X368176D01*
X368733Y78305D01*
Y59323D01*
X367293Y58726D01*
X365302Y57198D01*
X363774Y55207D01*
X362813Y52888D01*
X362741Y52335D01*
X361460D01*
X361387Y52888D01*
X360426Y55207D01*
X358898Y57198D01*
X356907Y58726D01*
X354588Y59687D01*
X352100Y60014D01*
X349612Y59687D01*
X347293Y58726D01*
X345302Y57198D01*
X343774Y55207D01*
X342813Y52888D01*
X342741Y52335D01*
X341460D01*
X341387Y52888D01*
X340426Y55207D01*
X338898Y57198D01*
X336907Y58726D01*
X334588Y59687D01*
X332100Y60014D01*
X329612Y59687D01*
X327293Y58726D01*
X325302Y57198D01*
X323774Y55207D01*
X322813Y52888D01*
X322741Y52335D01*
X321460D01*
X321387Y52888D01*
X320426Y55207D01*
X318898Y57198D01*
X316907Y58726D01*
X314588Y59687D01*
X312100Y60014D01*
X309612Y59687D01*
X307293Y58726D01*
X305302Y57198D01*
X303774Y55207D01*
X302813Y52888D01*
X302740Y52335D01*
X301460D01*
X301387Y52888D01*
X300426Y55207D01*
X298898Y57198D01*
X296907Y58726D01*
X294588Y59687D01*
X292100Y60014D01*
X289612Y59687D01*
X287293Y58726D01*
X285302Y57198D01*
X283774Y55207D01*
X282813Y52888D01*
X282740Y52335D01*
X281460D01*
X281387Y52888D01*
X280426Y55207D01*
X278898Y57198D01*
X276907Y58726D01*
X274588Y59687D01*
X272100Y60014D01*
X269612Y59687D01*
X267293Y58726D01*
X265302Y57198D01*
X263774Y55207D01*
X262813Y52888D01*
X262740Y52335D01*
X261460D01*
X261387Y52888D01*
X260426Y55207D01*
X258898Y57198D01*
X256907Y58726D01*
X254588Y59687D01*
X253116Y59880D01*
Y45400D01*
Y30919D01*
X254588Y31113D01*
X256907Y32074D01*
X258898Y33602D01*
X260426Y35593D01*
X261387Y37912D01*
X261460Y38465D01*
X262740D01*
X262813Y37912D01*
X263774Y35593D01*
X265302Y33602D01*
X267293Y32074D01*
X269612Y31113D01*
X272100Y30786D01*
X274588Y31113D01*
X276907Y32074D01*
X278898Y33602D01*
X280426Y35593D01*
X281387Y37912D01*
X281460Y38465D01*
X282740D01*
X282813Y37912D01*
X283774Y35593D01*
X285302Y33602D01*
X287293Y32074D01*
X289612Y31113D01*
X292100Y30786D01*
X294588Y31113D01*
X296907Y32074D01*
X298898Y33602D01*
X300426Y35593D01*
X301387Y37912D01*
X301460Y38465D01*
X302740D01*
X302813Y37912D01*
X303774Y35593D01*
X305302Y33602D01*
X307293Y32074D01*
X309612Y31113D01*
X312100Y30786D01*
X314588Y31113D01*
X316907Y32074D01*
X318898Y33602D01*
X320426Y35593D01*
X321387Y37912D01*
X321460Y38465D01*
X322741D01*
X322813Y37912D01*
X323774Y35593D01*
X325302Y33602D01*
X327293Y32074D01*
X329612Y31113D01*
X332100Y30786D01*
X334588Y31113D01*
X336907Y32074D01*
X338898Y33602D01*
X340426Y35593D01*
X341387Y37912D01*
X341460Y38465D01*
X342741D01*
X342813Y37912D01*
X343774Y35593D01*
X345302Y33602D01*
X347293Y32074D01*
X349612Y31113D01*
X352100Y30786D01*
X354588Y31113D01*
X356907Y32074D01*
X358898Y33602D01*
X360426Y35593D01*
X361387Y37912D01*
X361460Y38465D01*
X362741D01*
X362813Y37912D01*
X363774Y35593D01*
X365302Y33602D01*
X367293Y32074D01*
X369612Y31113D01*
X372100Y30786D01*
X374588Y31113D01*
X376907Y32074D01*
X378898Y33602D01*
X380426Y35593D01*
X381387Y37912D01*
X381460Y38465D01*
X382741D01*
X382813Y37912D01*
X383774Y35593D01*
X385302Y33602D01*
X387293Y32074D01*
X389612Y31113D01*
X392100Y30786D01*
X394588Y31113D01*
X396907Y32074D01*
X398898Y33602D01*
X400426Y35593D01*
X401387Y37912D01*
X401460Y38465D01*
X402741D01*
X402813Y37912D01*
X403774Y35593D01*
X405302Y33602D01*
X407293Y32074D01*
X409612Y31113D01*
X412100Y30786D01*
X414588Y31113D01*
X416907Y32074D01*
X418898Y33602D01*
X420426Y35593D01*
X421387Y37912D01*
X422568Y37611D01*
Y30868D01*
X441632D01*
Y59932D01*
X422568D01*
Y53189D01*
X421387Y52888D01*
X420426Y55207D01*
X418898Y57198D01*
X416907Y58726D01*
X414588Y59687D01*
X412100Y60014D01*
X411823Y59978D01*
X400877Y70925D01*
Y91954D01*
X400620Y93243D01*
X399891Y94335D01*
X393105Y101121D01*
X392013Y101850D01*
X390724Y102107D01*
X228724D01*
X223550Y107281D01*
X223619Y107630D01*
X223225Y109612D01*
X222103Y111292D01*
X220422Y112415D01*
X218440Y112809D01*
X216458Y112415D01*
X214778Y111292D01*
X213655Y109612D01*
X213260Y107630D01*
X213655Y105648D01*
X214778Y103968D01*
X216458Y102845D01*
X218440Y102451D01*
X218789Y102520D01*
X223109Y98200D01*
X222623Y97027D01*
X179106D01*
X177899Y97470D01*
X177505Y99452D01*
X176383Y101132D01*
X174702Y102255D01*
X172720Y102649D01*
X170738Y102255D01*
X169058Y101132D01*
X167935Y99452D01*
X167540Y97470D01*
X167935Y95488D01*
X169058Y93807D01*
X170738Y92685D01*
X172720Y92290D01*
X173069Y92360D01*
X174149Y91279D01*
X175242Y90550D01*
X176530Y90293D01*
X387225D01*
X388733Y88785D01*
Y59323D01*
X387293Y58726D01*
X385302Y57198D01*
X383774Y55207D01*
X382813Y52888D01*
X382741Y52335D01*
X381460D01*
X381387Y52888D01*
X380426Y55207D01*
X378898Y57198D01*
X376907Y58726D01*
X375467Y59323D01*
Y79700D01*
X375210Y80988D01*
X374481Y82081D01*
X371951Y84611D01*
X370858Y85340D01*
X369570Y85597D01*
X133475D01*
X127911Y91160D01*
X127988Y92448D01*
X128123Y92537D01*
X129245Y94218D01*
X129640Y96200D01*
X129245Y98182D01*
X128123Y99862D01*
X126442Y100985D01*
X124460Y101379D01*
X122478Y100985D01*
X120798Y99862D01*
X119675Y98182D01*
X119281Y96200D01*
X119675Y94218D01*
X120798Y92537D01*
X121093Y92340D01*
Y89850D01*
X121350Y88562D01*
X122079Y87469D01*
X121172Y86595D01*
X118430Y89336D01*
X116918Y90347D01*
X115134Y90702D01*
X79401D01*
X76631Y93471D01*
Y158921D01*
X76861Y159097D01*
X77960Y160530D01*
X78651Y162198D01*
X78887Y163988D01*
X78651Y165779D01*
X77960Y167447D01*
X76861Y168879D01*
X76631Y169056D01*
Y423539D01*
X81181Y428088D01*
X83218D01*
Y420718D01*
X94879D01*
X94963Y419448D01*
X94327Y419364D01*
X92109Y419072D01*
X89182Y417860D01*
X86669Y415931D01*
X84740Y413418D01*
X83528Y410491D01*
X83114Y407350D01*
X83528Y404209D01*
X84740Y401282D01*
X86669Y398769D01*
X89182Y396840D01*
X92109Y395628D01*
X94565Y395304D01*
X94670Y395290D01*
Y394010D01*
X94565Y393996D01*
X92109Y393672D01*
X89182Y392460D01*
X86669Y390531D01*
X84740Y388018D01*
X83528Y385091D01*
X83114Y381950D01*
X83528Y378809D01*
X84740Y375882D01*
X86669Y373369D01*
X89182Y371440D01*
X92109Y370228D01*
X94670Y369891D01*
Y368610D01*
X92109Y368272D01*
X89182Y367060D01*
X86669Y365131D01*
X84740Y362618D01*
X83528Y359691D01*
X83114Y356550D01*
X83528Y353409D01*
X84740Y350482D01*
X86669Y347969D01*
X89182Y346040D01*
X92109Y344828D01*
X94670Y344491D01*
Y343209D01*
X92109Y342872D01*
X89182Y341660D01*
X86669Y339731D01*
X84740Y337218D01*
X83528Y334291D01*
X83114Y331150D01*
X83528Y328009D01*
X84740Y325082D01*
X86669Y322569D01*
X89182Y320640D01*
X92109Y319428D01*
X94670Y319090D01*
Y317810D01*
X92109Y317472D01*
X89182Y316260D01*
X86669Y314331D01*
X84740Y311818D01*
X83528Y308891D01*
X83114Y305750D01*
X83528Y302609D01*
X84740Y299682D01*
X86669Y297169D01*
X89182Y295240D01*
X92109Y294028D01*
X94670Y293690D01*
Y292409D01*
X92109Y292072D01*
X89182Y290860D01*
X86669Y288931D01*
X84740Y286418D01*
X83528Y283491D01*
X83114Y280350D01*
X83528Y277209D01*
X84740Y274282D01*
X86669Y271769D01*
X89182Y269840D01*
X92109Y268628D01*
X94565Y268304D01*
X94670Y268290D01*
Y267010D01*
X94565Y266996D01*
X92109Y266672D01*
X89182Y265460D01*
X86669Y263531D01*
X84740Y261018D01*
X83528Y258091D01*
X83114Y254950D01*
X83528Y251809D01*
X84740Y248882D01*
X86669Y246369D01*
X89182Y244440D01*
X92109Y243228D01*
X94565Y242904D01*
X94670Y242890D01*
Y241610D01*
X94565Y241596D01*
X92109Y241272D01*
X89182Y240060D01*
X86669Y238131D01*
X84740Y235618D01*
X83528Y232691D01*
X83114Y229550D01*
X83528Y226409D01*
X84740Y223482D01*
X86669Y220969D01*
X89182Y219040D01*
X92109Y217828D01*
X94565Y217504D01*
X94670Y217490D01*
Y216210D01*
X94565Y216196D01*
X92109Y215872D01*
X89182Y214660D01*
X86669Y212731D01*
X84740Y210218D01*
X83528Y207291D01*
X83114Y204150D01*
X83528Y201009D01*
X84740Y198082D01*
X86669Y195569D01*
X89182Y193640D01*
X92109Y192428D01*
X94565Y192104D01*
X94670Y192090D01*
Y190810D01*
X94565Y190796D01*
X92109Y190472D01*
X89182Y189260D01*
X86669Y187331D01*
X84740Y184818D01*
X83528Y181891D01*
X83114Y178750D01*
X83528Y175609D01*
X84740Y172682D01*
X86669Y170169D01*
X89182Y168240D01*
X92109Y167028D01*
X94565Y166704D01*
X94670Y166690D01*
Y165410D01*
X94565Y165396D01*
X92109Y165072D01*
X89182Y163860D01*
X86669Y161931D01*
X84740Y159418D01*
X83528Y156491D01*
X83248Y154366D01*
X107252D01*
X106972Y156491D01*
X105760Y159418D01*
X103831Y161931D01*
X101318Y163860D01*
X98391Y165072D01*
X95935Y165396D01*
X95830Y165410D01*
Y166690D01*
X95935Y166704D01*
X98391Y167028D01*
X101318Y168240D01*
X103831Y170169D01*
X105760Y172682D01*
X106972Y175609D01*
X107059Y176264D01*
X218727D01*
X220268Y175235D01*
X222250Y174841D01*
X224232Y175235D01*
X225912Y176357D01*
X227035Y178038D01*
X227430Y180020D01*
X227035Y182002D01*
X225912Y183682D01*
X224232Y184805D01*
X222250Y185200D01*
X220268Y184805D01*
X218587Y183682D01*
X218130Y182998D01*
X106514D01*
X105760Y184818D01*
X103831Y187331D01*
X101318Y189260D01*
X98391Y190472D01*
X95935Y190796D01*
X95830Y190810D01*
Y192090D01*
X95935Y192104D01*
X98391Y192428D01*
X101318Y193640D01*
X103831Y195569D01*
X105760Y198082D01*
X106879Y200783D01*
X231090D01*
X231287Y200487D01*
X232968Y199365D01*
X234950Y198971D01*
X236932Y199365D01*
X238612Y200487D01*
X238810Y200783D01*
X366980D01*
X367178Y200487D01*
X368858Y199365D01*
X370840Y198971D01*
X372822Y199365D01*
X374502Y200487D01*
X375625Y202168D01*
X376020Y204150D01*
X375625Y206132D01*
X374502Y207812D01*
X372822Y208935D01*
X370840Y209329D01*
X368858Y208935D01*
X367178Y207812D01*
X366980Y207517D01*
X238810D01*
X238612Y207812D01*
X236932Y208935D01*
X234950Y209329D01*
X232968Y208935D01*
X231287Y207812D01*
X231090Y207517D01*
X106879D01*
X105760Y210218D01*
X103831Y212731D01*
X101318Y214660D01*
X98391Y215872D01*
X95935Y216196D01*
X95830Y216210D01*
Y217490D01*
X95935Y217504D01*
X98391Y217828D01*
X101318Y219040D01*
X103831Y220969D01*
X105760Y223482D01*
X106879Y226183D01*
X377140D01*
X377337Y225888D01*
X379018Y224765D01*
X381000Y224370D01*
X382982Y224765D01*
X384663Y225888D01*
X385785Y227568D01*
X386180Y229550D01*
X385785Y231532D01*
X384663Y233213D01*
X382982Y234335D01*
X381000Y234729D01*
X379018Y234335D01*
X377337Y233213D01*
X377140Y232917D01*
X106879D01*
X105760Y235618D01*
X103831Y238131D01*
X101318Y240060D01*
X98391Y241272D01*
X95935Y241596D01*
X95830Y241610D01*
Y242890D01*
X95935Y242904D01*
X98391Y243228D01*
X101318Y244440D01*
X103831Y246369D01*
X105760Y248882D01*
X106879Y251583D01*
X317376D01*
X326549Y242409D01*
X327642Y241680D01*
X328930Y241423D01*
X383490D01*
X383688Y241127D01*
X385368Y240005D01*
X387350Y239611D01*
X389332Y240005D01*
X391012Y241127D01*
X392135Y242808D01*
X392529Y244790D01*
X392135Y246772D01*
X391012Y248452D01*
X389332Y249575D01*
X387350Y249970D01*
X385368Y249575D01*
X383688Y248452D01*
X383490Y248157D01*
X330325D01*
X321151Y257331D01*
X320058Y258060D01*
X318770Y258317D01*
X106879D01*
X105760Y261018D01*
X103831Y263531D01*
X101318Y265460D01*
X98391Y266672D01*
X95935Y266996D01*
X95830Y267010D01*
Y268290D01*
X95935Y268304D01*
X98391Y268628D01*
X101318Y269840D01*
X103831Y271769D01*
X105760Y274282D01*
X106879Y276983D01*
X326675D01*
X327354Y275713D01*
X326685Y274712D01*
X326291Y272730D01*
X326685Y270748D01*
X327808Y269067D01*
X328103Y268870D01*
Y262570D01*
X328360Y261282D01*
X329089Y260189D01*
X335439Y253839D01*
X336532Y253110D01*
X337820Y252853D01*
X511685D01*
X522797Y241742D01*
X521678Y239041D01*
X521264Y235900D01*
X521678Y232759D01*
X522890Y229832D01*
X524819Y227319D01*
X527332Y225390D01*
X530259Y224178D01*
X532715Y223854D01*
X532820Y223840D01*
Y222560D01*
X532715Y222546D01*
X530259Y222222D01*
X527332Y221010D01*
X524819Y219081D01*
X522890Y216568D01*
X521678Y213641D01*
X521398Y211516D01*
X545402D01*
X545122Y213641D01*
X543910Y216568D01*
X541981Y219081D01*
X539468Y221010D01*
X536541Y222222D01*
X534085Y222546D01*
X533980Y222560D01*
Y223840D01*
X534085Y223854D01*
X536541Y224178D01*
X539468Y225390D01*
X541981Y227319D01*
X543910Y229832D01*
X545029Y232533D01*
X568960D01*
X570248Y232790D01*
X571341Y233519D01*
X575769Y237948D01*
X577014Y237700D01*
X577382Y236812D01*
X579110Y234560D01*
X581362Y232832D01*
X583985Y231745D01*
X586800Y231375D01*
X594300D01*
X597115Y231745D01*
X599738Y232832D01*
X601990Y234560D01*
X603718Y236812D01*
X604804Y239435D01*
X605175Y242250D01*
X604804Y245065D01*
X603718Y247687D01*
X601990Y249940D01*
X599738Y251668D01*
X597115Y252754D01*
X594300Y253125D01*
X586800D01*
X583985Y252754D01*
X581362Y251668D01*
X579110Y249940D01*
X577382Y247687D01*
X576524Y245617D01*
X575310D01*
X574022Y245360D01*
X572929Y244631D01*
X567565Y239267D01*
X545029D01*
X543910Y241968D01*
X541981Y244481D01*
X539468Y246410D01*
X536541Y247622D01*
X533980Y247959D01*
Y249240D01*
X536541Y249578D01*
X539468Y250790D01*
X541981Y252719D01*
X543910Y255232D01*
X545029Y257933D01*
X552450D01*
X553738Y258190D01*
X554831Y258919D01*
X560195Y264283D01*
X576018D01*
Y256868D01*
X605082D01*
Y278432D01*
X576018D01*
Y271017D01*
X558800D01*
X557512Y270760D01*
X556419Y270031D01*
X551055Y264667D01*
X545029D01*
X543910Y267368D01*
X541981Y269881D01*
X539468Y271810D01*
X536541Y273022D01*
X533980Y273360D01*
Y274641D01*
X536541Y274978D01*
X539468Y276190D01*
X541981Y278119D01*
X543910Y280632D01*
X545122Y283559D01*
X545536Y286700D01*
X545122Y289841D01*
X543910Y292768D01*
X541981Y295281D01*
X539468Y297210D01*
X536541Y298422D01*
X533980Y298759D01*
Y300040D01*
X536541Y300378D01*
X539468Y301590D01*
X541981Y303519D01*
X543910Y306032D01*
X545029Y308733D01*
X601880D01*
X603169Y308990D01*
X604261Y309719D01*
X606711Y312169D01*
X607060Y312100D01*
X609042Y312494D01*
X610723Y313617D01*
X611845Y315297D01*
X612239Y317279D01*
X611845Y319262D01*
X610723Y320942D01*
X609042Y322065D01*
X607060Y322459D01*
X605078Y322065D01*
X603397Y320942D01*
X602275Y319262D01*
X601880Y317279D01*
X601950Y316931D01*
X600486Y315467D01*
X545029D01*
X543910Y318168D01*
X541981Y320681D01*
X539468Y322610D01*
X536541Y323822D01*
X533980Y324160D01*
Y325440D01*
X536541Y325778D01*
X539468Y326990D01*
X541981Y328919D01*
X543910Y331432D01*
X545122Y334359D01*
X545536Y337500D01*
X545122Y340641D01*
X543910Y343568D01*
X541981Y346081D01*
X539468Y348010D01*
X536541Y349222D01*
X533980Y349560D01*
Y350840D01*
X536541Y351178D01*
X539468Y352390D01*
X541981Y354319D01*
X543910Y356832D01*
X545122Y359759D01*
X545536Y362900D01*
X545122Y366041D01*
X543910Y368968D01*
X541981Y371481D01*
X539468Y373410D01*
X536541Y374622D01*
X533980Y374959D01*
Y376241D01*
X536541Y376578D01*
X539468Y377790D01*
X541981Y379719D01*
X543910Y382232D01*
X545122Y385159D01*
X545536Y388300D01*
X545122Y391441D01*
X543910Y394368D01*
X541981Y396881D01*
X539468Y398810D01*
X536541Y400022D01*
X534085Y400346D01*
X533980Y400360D01*
Y401640D01*
X534085Y401654D01*
X536541Y401978D01*
X539468Y403190D01*
X541981Y405119D01*
X543910Y407632D01*
X545122Y410559D01*
X545536Y413700D01*
X545122Y416841D01*
X543910Y419768D01*
X541981Y422281D01*
X539468Y424210D01*
X536541Y425422D01*
X534085Y425746D01*
X533980Y425760D01*
Y427040D01*
X534085Y427054D01*
X536541Y427378D01*
X539468Y428590D01*
X541981Y430519D01*
X543910Y433032D01*
X544756Y435074D01*
X560044D01*
X565568Y429549D01*
Y406080D01*
X565923Y404296D01*
X566934Y402784D01*
X570744Y398974D01*
X572256Y397963D01*
X574040Y397608D01*
X576535D01*
X577382Y395563D01*
X579110Y393310D01*
X581362Y391582D01*
X583985Y390495D01*
X586800Y390125D01*
X594300D01*
X597115Y390495D01*
X599738Y391582D01*
X601990Y393310D01*
X603718Y395563D01*
X604804Y398185D01*
X605175Y401000D01*
X604804Y403815D01*
X603718Y406437D01*
X601990Y408690D01*
X599738Y410418D01*
X597115Y411505D01*
X594300Y411875D01*
X586800D01*
X583985Y411505D01*
X581362Y410418D01*
X579110Y408690D01*
X577761Y406932D01*
X575971D01*
X574892Y408011D01*
Y415271D01*
X576018Y415618D01*
X576162Y415618D01*
X605082D01*
Y437182D01*
X593917D01*
Y437830D01*
X593660Y439118D01*
X592931Y440211D01*
X581501Y451641D01*
X580408Y452370D01*
X579120Y452627D01*
X561465D01*
X554547Y459544D01*
Y461960D01*
X554290Y463248D01*
X553561Y464341D01*
X551021Y466881D01*
X549928Y467610D01*
X548640Y467867D01*
X545029D01*
X543910Y470568D01*
X541981Y473081D01*
X539468Y475010D01*
X536541Y476222D01*
X534323Y476514D01*
X533688Y476598D01*
X533771Y477868D01*
X545432D01*
Y501932D01*
X521368D01*
Y477868D01*
X533029D01*
X533112Y476598D01*
X532477Y476514D01*
X530259Y476222D01*
X527332Y475010D01*
X524819Y473081D01*
X522890Y470568D01*
X521771Y467867D01*
X265980D01*
X264692Y467610D01*
X263735Y466971D01*
X262890Y467140D01*
X260908Y466745D01*
X259228Y465622D01*
X258105Y463942D01*
X257710Y461960D01*
X258105Y459978D01*
X259228Y458298D01*
X260908Y457175D01*
X262890Y456781D01*
X264872Y457175D01*
X266553Y458298D01*
X267675Y459978D01*
X267905Y461133D01*
X521771D01*
X522890Y458432D01*
X524819Y455919D01*
X527332Y453990D01*
X530259Y452778D01*
X532820Y452440D01*
Y451160D01*
X530259Y450822D01*
X527332Y449610D01*
X524819Y447681D01*
X522890Y445168D01*
X522308Y443762D01*
X462267D01*
X462091Y443991D01*
X460659Y445090D01*
X458990Y445782D01*
X457200Y446017D01*
X455410Y445782D01*
X453741Y445090D01*
X452309Y443991D01*
X452133Y443762D01*
X259067D01*
X258891Y443991D01*
X257459Y445090D01*
X255790Y445782D01*
X254000Y446017D01*
X252210Y445782D01*
X250541Y445090D01*
X249109Y443991D01*
X248009Y442559D01*
X247318Y440890D01*
X247083Y439100D01*
X247318Y437310D01*
X248009Y435641D01*
X249109Y434209D01*
X250541Y433110D01*
X252210Y432419D01*
X254000Y432183D01*
X255790Y432419D01*
X257459Y433110D01*
X258891Y434209D01*
X259067Y434439D01*
X452133D01*
X452309Y434209D01*
X453741Y433110D01*
X455410Y432419D01*
X457200Y432183D01*
X458990Y432419D01*
X460659Y433110D01*
X462091Y434209D01*
X462267Y434439D01*
X522308D01*
X522890Y433032D01*
X524819Y430519D01*
X527332Y428590D01*
X530259Y427378D01*
X532715Y427054D01*
X532820Y427040D01*
Y425760D01*
X532715Y425746D01*
X530259Y425422D01*
X527332Y424210D01*
X524819Y422281D01*
X522890Y419768D01*
X521771Y417067D01*
X430580D01*
X430382Y417363D01*
X428702Y418485D01*
X426720Y418880D01*
X424738Y418485D01*
X423058Y417363D01*
X421935Y415682D01*
X421540Y413700D01*
X421935Y411718D01*
X423058Y410037D01*
X424738Y408915D01*
X426720Y408521D01*
X428702Y408915D01*
X430382Y410037D01*
X430580Y410333D01*
X521771D01*
X522890Y407632D01*
X524819Y405119D01*
X527332Y403190D01*
X530259Y401978D01*
X532715Y401654D01*
X532820Y401640D01*
Y400360D01*
X532715Y400346D01*
X530259Y400022D01*
X527332Y398810D01*
X524819Y396881D01*
X522890Y394368D01*
X521771Y391667D01*
X515745D01*
X502761Y404651D01*
X501668Y405380D01*
X500380Y405637D01*
X392877D01*
X392189Y406907D01*
X392529Y408620D01*
X392135Y410602D01*
X391012Y412282D01*
X389332Y413405D01*
X387350Y413800D01*
X385368Y413405D01*
X383688Y412282D01*
X383490Y411987D01*
X259080D01*
X257792Y411730D01*
X256699Y411001D01*
X231015Y385317D01*
X106879D01*
X105760Y388018D01*
X103831Y390531D01*
X101318Y392460D01*
X98391Y393672D01*
X95935Y393996D01*
X95830Y394010D01*
Y395290D01*
X95935Y395304D01*
X98391Y395628D01*
X101318Y396840D01*
X103831Y398769D01*
X105760Y401282D01*
X106972Y404209D01*
X107386Y407350D01*
X106972Y410491D01*
X105760Y413418D01*
X103831Y415931D01*
X101318Y417860D01*
X98391Y419072D01*
X96173Y419364D01*
X95538Y419448D01*
X95621Y420718D01*
X107282D01*
Y428088D01*
X115570D01*
X117354Y428443D01*
X118866Y429454D01*
X129026Y439614D01*
X130037Y441126D01*
X130392Y442910D01*
Y481619D01*
X134011Y485238D01*
X161303D01*
X161479Y485009D01*
X162911Y483909D01*
X164580Y483218D01*
X166370Y482983D01*
X168160Y483218D01*
X169829Y483909D01*
X171261Y485009D01*
X171437Y485238D01*
X238773D01*
X238949Y485009D01*
X240381Y483909D01*
X242050Y483218D01*
X243840Y482983D01*
X245630Y483218D01*
X247299Y483909D01*
X248731Y485009D01*
X248907Y485238D01*
X311163D01*
X311339Y485009D01*
X312771Y483909D01*
X314440Y483218D01*
X316230Y482983D01*
X318020Y483218D01*
X319689Y483909D01*
X321121Y485009D01*
X321297Y485238D01*
X351790D01*
X351790Y485238D01*
X464833D01*
X465009Y485009D01*
X466441Y483909D01*
X468110Y483218D01*
X469900Y482983D01*
X471690Y483218D01*
X473359Y483909D01*
X474791Y485009D01*
X475891Y486441D01*
X476581Y488110D01*
X476817Y489900D01*
X476581Y491690D01*
X475891Y493359D01*
X474791Y494791D01*
X473359Y495891D01*
X471690Y496581D01*
X469900Y496817D01*
X468110Y496581D01*
X466441Y495891D01*
X465009Y494791D01*
X464833Y494562D01*
X351790D01*
X351790Y494562D01*
X321297D01*
X321121Y494791D01*
X319689Y495890D01*
X318020Y496581D01*
X316230Y496817D01*
X314440Y496581D01*
X312771Y495890D01*
X311339Y494791D01*
X311163Y494562D01*
X248907D01*
X248731Y494791D01*
X247299Y495891D01*
X245630Y496581D01*
X243840Y496817D01*
X242050Y496581D01*
X240381Y495891D01*
X238949Y494791D01*
X238773Y494562D01*
X171437D01*
X171261Y494791D01*
X169829Y495891D01*
X168160Y496581D01*
X166370Y496817D01*
X164580Y496581D01*
X162911Y495891D01*
X161479Y494791D01*
X161303Y494562D01*
X132080D01*
X130296Y494207D01*
X128784Y493196D01*
X122434Y486846D01*
X121423Y485334D01*
X121068Y483550D01*
Y444841D01*
X113639Y437412D01*
X107282D01*
Y444782D01*
X99912D01*
Y560359D01*
X107342Y567789D01*
X150528D01*
Y562008D01*
X174592D01*
Y570329D01*
X182131D01*
X183915Y570684D01*
X185427Y571695D01*
X186437Y573207D01*
X186792Y574991D01*
X186437Y576775D01*
X185427Y578287D01*
X183915Y579297D01*
X182131Y579652D01*
X174592D01*
Y586072D01*
X150528D01*
Y577112D01*
X105411D01*
X103627Y576758D01*
X102115Y575747D01*
X91954Y565586D01*
X90943Y564074D01*
X90588Y562290D01*
Y548313D01*
X89318Y548250D01*
X89213Y549319D01*
X87953Y553472D01*
X85907Y557299D01*
X83154Y560654D01*
X79799Y563408D01*
X75972Y565453D01*
X71819Y566713D01*
X67500Y567139D01*
X60629D01*
X60337Y568375D01*
X160815Y618613D01*
X469105D01*
X569582Y568375D01*
D02*
G37*
G36*
X511969Y385919D02*
X513062Y385190D01*
X514350Y384933D01*
X521771D01*
X522890Y382232D01*
X524819Y379719D01*
X527332Y377790D01*
X530259Y376578D01*
X532820Y376241D01*
Y374959D01*
X530259Y374622D01*
X527332Y373410D01*
X524819Y371481D01*
X522890Y368968D01*
X521678Y366041D01*
X521264Y362900D01*
X521364Y362141D01*
X520527Y361187D01*
X305247D01*
X304559Y362457D01*
X304900Y364170D01*
X304505Y366152D01*
X303382Y367832D01*
X301702Y368955D01*
X299720Y369350D01*
X297738Y368955D01*
X296057Y367832D01*
X295860Y367537D01*
X226110D01*
X225912Y367832D01*
X224232Y368955D01*
X222250Y369350D01*
X220268Y368955D01*
X218587Y367832D01*
X217465Y366152D01*
X217071Y364170D01*
X217465Y362188D01*
X218587Y360508D01*
X220268Y359385D01*
X222250Y358991D01*
X224232Y359385D01*
X225912Y360508D01*
X226110Y360803D01*
X272603D01*
X273291Y359533D01*
X272950Y357820D01*
X273345Y355838D01*
X274468Y354157D01*
X276148Y353035D01*
X278130Y352640D01*
X280112Y353035D01*
X281793Y354157D01*
X281990Y354453D01*
X294193D01*
X294881Y353183D01*
X294541Y351470D01*
X294935Y349488D01*
X296057Y347808D01*
X297738Y346685D01*
X299720Y346291D01*
X301702Y346685D01*
X303382Y347808D01*
X303580Y348103D01*
X383490D01*
X383688Y347808D01*
X385368Y346685D01*
X387350Y346291D01*
X389332Y346685D01*
X391012Y347808D01*
X392135Y349488D01*
X392529Y351470D01*
X392189Y353183D01*
X392877Y354453D01*
X524715D01*
X524819Y354319D01*
X527332Y352390D01*
X530259Y351178D01*
X532820Y350840D01*
Y349560D01*
X530259Y349222D01*
X527332Y348010D01*
X524819Y346081D01*
X522890Y343568D01*
X521771Y340867D01*
X507950D01*
X506662Y340610D01*
X505569Y339881D01*
X501809Y336121D01*
X501080Y335028D01*
X500823Y333740D01*
Y298255D01*
X500256Y297687D01*
X442010D01*
X441813Y297983D01*
X440132Y299105D01*
X438150Y299499D01*
X436168Y299105D01*
X434487Y297983D01*
X433365Y296302D01*
X432971Y294320D01*
X433365Y292338D01*
X434487Y290658D01*
X436168Y289535D01*
X438150Y289140D01*
X440132Y289535D01*
X441813Y290658D01*
X442010Y290953D01*
X501650D01*
X502938Y291210D01*
X504031Y291939D01*
X506571Y294479D01*
X507300Y295572D01*
X507557Y296860D01*
Y332346D01*
X509344Y334133D01*
X521771D01*
X522890Y331432D01*
X524819Y328919D01*
X527332Y326990D01*
X530259Y325778D01*
X532820Y325440D01*
Y324160D01*
X530259Y323822D01*
X527332Y322610D01*
X524819Y320681D01*
X522890Y318168D01*
X521678Y315241D01*
X521264Y312100D01*
X521678Y308959D01*
X522890Y306032D01*
X524819Y303519D01*
X527332Y301590D01*
X530259Y300378D01*
X532820Y300040D01*
Y298759D01*
X530259Y298422D01*
X527332Y297210D01*
X524819Y295281D01*
X522890Y292768D01*
X521678Y289841D01*
X521264Y286700D01*
X521657Y283717D01*
X521518Y283229D01*
X520995Y282447D01*
X398904D01*
X378301Y303051D01*
X377208Y303780D01*
X375920Y304037D01*
X335330D01*
X335132Y304333D01*
X333452Y305455D01*
X331470Y305849D01*
X329488Y305455D01*
X327808Y304333D01*
X326685Y302652D01*
X326291Y300670D01*
X326685Y298688D01*
X327808Y297008D01*
X329488Y295885D01*
X331470Y295490D01*
X333452Y295885D01*
X335132Y297008D01*
X335330Y297303D01*
X374525D01*
X395129Y276699D01*
X396222Y275970D01*
X397510Y275713D01*
X525780D01*
X527068Y275970D01*
X527373Y276173D01*
X530259Y274978D01*
X532820Y274641D01*
Y273360D01*
X530259Y273022D01*
X527332Y271810D01*
X524819Y269881D01*
X522890Y267368D01*
X522297Y265937D01*
X440740D01*
X440542Y266232D01*
X438862Y267355D01*
X436880Y267750D01*
X434898Y267355D01*
X433218Y266232D01*
X432095Y264552D01*
X431701Y262570D01*
X432041Y260857D01*
X431353Y259587D01*
X339215D01*
X334837Y263965D01*
Y268870D01*
X335132Y269067D01*
X336255Y270748D01*
X336650Y272730D01*
X336255Y274712D01*
X335586Y275713D01*
X336265Y276983D01*
X340310D01*
X340508Y276688D01*
X342188Y275565D01*
X344170Y275170D01*
X346152Y275565D01*
X347832Y276688D01*
X348955Y278368D01*
X349350Y280350D01*
X348955Y282332D01*
X347832Y284013D01*
X346152Y285135D01*
X344170Y285529D01*
X342188Y285135D01*
X340508Y284013D01*
X340310Y283717D01*
X106879D01*
X105760Y286418D01*
X103831Y288931D01*
X101318Y290860D01*
X98391Y292072D01*
X95830Y292409D01*
Y293690D01*
X98391Y294028D01*
X101318Y295240D01*
X103831Y297169D01*
X105760Y299682D01*
X106972Y302609D01*
X107386Y305750D01*
X106972Y308891D01*
X105760Y311818D01*
X103831Y314331D01*
X101318Y316260D01*
X98391Y317472D01*
X95830Y317810D01*
Y319090D01*
X98391Y319428D01*
X101318Y320640D01*
X103831Y322569D01*
X105760Y325082D01*
X106879Y327783D01*
X389840D01*
X390037Y327487D01*
X391718Y326365D01*
X393700Y325970D01*
X395682Y326365D01*
X397363Y327487D01*
X398485Y329168D01*
X398880Y331150D01*
X398485Y333132D01*
X397363Y334813D01*
X397142Y334960D01*
Y336230D01*
X397363Y336377D01*
X398485Y338058D01*
X398880Y340040D01*
X398485Y342022D01*
X397363Y343703D01*
X395682Y344825D01*
X393700Y345219D01*
X391718Y344825D01*
X390037Y343703D01*
X389840Y343407D01*
X118160D01*
X117963Y343703D01*
X116282Y344825D01*
X114300Y345219D01*
X112318Y344825D01*
X110638Y343703D01*
X109515Y342022D01*
X109121Y340040D01*
X109515Y338058D01*
X110638Y336377D01*
X111522Y335787D01*
X111137Y334517D01*
X106879D01*
X105760Y337218D01*
X103831Y339731D01*
X101318Y341660D01*
X98391Y342872D01*
X95830Y343209D01*
Y344491D01*
X98391Y344828D01*
X101318Y346040D01*
X103831Y347969D01*
X105760Y350482D01*
X106879Y353183D01*
X111760D01*
X113048Y353440D01*
X114141Y354169D01*
X118797Y358825D01*
X119527Y359918D01*
X119783Y361206D01*
Y372233D01*
X233680D01*
X234968Y372490D01*
X236061Y373219D01*
X255577Y392736D01*
X294375D01*
X295064Y391466D01*
X294723Y389753D01*
X295117Y387771D01*
X296240Y386090D01*
X297921Y384967D01*
X299903Y384573D01*
X301885Y384967D01*
X303565Y386090D01*
X303763Y386386D01*
X376201D01*
X376215Y386318D01*
X377337Y384637D01*
X379018Y383515D01*
X381000Y383120D01*
X382982Y383515D01*
X384663Y384637D01*
X385785Y386318D01*
X386180Y388300D01*
X385785Y390282D01*
X384994Y391466D01*
X385617Y392736D01*
X387774D01*
X390225Y390284D01*
X390156Y389935D01*
X390550Y387953D01*
X391673Y386273D01*
X393353Y385150D01*
X395335Y384756D01*
X397318Y385150D01*
X398998Y386273D01*
X400121Y387953D01*
X400515Y389935D01*
X400121Y391917D01*
X398998Y393598D01*
X397318Y394721D01*
X395335Y395115D01*
X394986Y395046D01*
X392399Y397633D01*
X392925Y398903D01*
X498985D01*
X511969Y385919D01*
D02*
G37*
%LPC*%
G36*
X338836Y579692D02*
Y568706D01*
X349822D01*
X349542Y570831D01*
X348330Y573758D01*
X346401Y576271D01*
X343888Y578200D01*
X340961Y579412D01*
X338836Y579692D01*
D02*
G37*
G36*
X336804D02*
X334679Y579412D01*
X331752Y578200D01*
X329239Y576271D01*
X327310Y573758D01*
X326098Y570831D01*
X325818Y568706D01*
X336804D01*
Y579692D01*
D02*
G37*
G36*
X237490Y586176D02*
X234349Y585762D01*
X231422Y584550D01*
X228909Y582621D01*
X226980Y580108D01*
X225768Y577181D01*
X225354Y574040D01*
X225768Y570899D01*
X226980Y567972D01*
X228909Y565459D01*
X231422Y563530D01*
X234349Y562318D01*
X237490Y561904D01*
X240631Y562318D01*
X243558Y563530D01*
X246071Y565459D01*
X248000Y567972D01*
X249212Y570899D01*
X249626Y574040D01*
X249212Y577181D01*
X248000Y580108D01*
X246071Y582621D01*
X243558Y584550D01*
X240631Y585762D01*
X237490Y586176D01*
D02*
G37*
G36*
X336804Y566674D02*
X325818D01*
X326098Y564549D01*
X327310Y561622D01*
X329239Y559109D01*
X331752Y557180D01*
X334679Y555968D01*
X336804Y555688D01*
Y566674D01*
D02*
G37*
G36*
X349822D02*
X338836D01*
Y555688D01*
X340961Y555968D01*
X343888Y557180D01*
X346401Y559109D01*
X348330Y561622D01*
X349542Y564549D01*
X349822Y566674D01*
D02*
G37*
G36*
X287020Y579826D02*
X283879Y579412D01*
X280952Y578200D01*
X278439Y576271D01*
X276510Y573758D01*
X275298Y570831D01*
X274884Y567690D01*
X275298Y564549D01*
X276510Y561622D01*
X278439Y559109D01*
X280952Y557180D01*
X283879Y555968D01*
X287020Y555554D01*
X290161Y555968D01*
X293088Y557180D01*
X295601Y559109D01*
X297530Y561622D01*
X298742Y564549D01*
X299156Y567690D01*
X298742Y570831D01*
X297530Y573758D01*
X295601Y576271D01*
X293088Y578200D01*
X290161Y579412D01*
X287020Y579826D01*
D02*
G37*
G36*
X234950Y514129D02*
X232968Y513735D01*
X231287Y512612D01*
X231090Y512317D01*
X111302D01*
X111104Y512612D01*
X109424Y513735D01*
X107442Y514129D01*
X105460Y513735D01*
X103779Y512612D01*
X102657Y510932D01*
X102262Y508950D01*
X102657Y506968D01*
X103779Y505288D01*
X105460Y504165D01*
X107442Y503770D01*
X109424Y504165D01*
X111104Y505288D01*
X111302Y505583D01*
X231090D01*
X231287Y505288D01*
X232968Y504165D01*
X234950Y503770D01*
X236932Y504165D01*
X238612Y505288D01*
X239735Y506968D01*
X240130Y508950D01*
X239735Y510932D01*
X238612Y512612D01*
X236932Y513735D01*
X234950Y514129D01*
D02*
G37*
G36*
X139700Y552229D02*
X137718Y551835D01*
X136038Y550713D01*
X134915Y549032D01*
X134521Y547050D01*
X134915Y545068D01*
X136038Y543387D01*
X137718Y542265D01*
X139700Y541870D01*
X141682Y542265D01*
X143363Y543387D01*
X143560Y543683D01*
X306266D01*
X327217Y522732D01*
X326098Y520031D01*
X325684Y516890D01*
X326098Y513749D01*
X327310Y510822D01*
X329239Y508309D01*
X331752Y506380D01*
X334679Y505168D01*
X337820Y504754D01*
X340961Y505168D01*
X343888Y506380D01*
X346401Y508309D01*
X348330Y510822D01*
X349542Y513749D01*
X349956Y516890D01*
X349542Y520031D01*
X348330Y522958D01*
X346401Y525471D01*
X343888Y527400D01*
X340961Y528612D01*
X337820Y529026D01*
X334679Y528612D01*
X331978Y527493D01*
X310041Y549431D01*
X308948Y550160D01*
X307660Y550417D01*
X143560D01*
X143363Y550713D01*
X141682Y551835D01*
X139700Y552229D01*
D02*
G37*
G36*
X287020Y529026D02*
X283879Y528612D01*
X280952Y527400D01*
X278439Y525471D01*
X276510Y522958D01*
X275298Y520031D01*
X274884Y516890D01*
X275298Y513749D01*
X276510Y510822D01*
X278439Y508309D01*
X280952Y506380D01*
X283879Y505168D01*
X287020Y504754D01*
X290161Y505168D01*
X293088Y506380D01*
X295601Y508309D01*
X297530Y510822D01*
X298742Y513749D01*
X299156Y516890D01*
X298742Y520031D01*
X297530Y522958D01*
X295601Y525471D01*
X293088Y527400D01*
X290161Y528612D01*
X287020Y529026D01*
D02*
G37*
G36*
X190000Y482122D02*
X184502Y481762D01*
X179098Y480687D01*
X173881Y478916D01*
X168939Y476479D01*
X164358Y473418D01*
X160215Y469785D01*
X156582Y465642D01*
X153521Y461061D01*
X151084Y456119D01*
X149313Y450902D01*
X148238Y445498D01*
X147878Y440000D01*
X148238Y434502D01*
X149313Y429098D01*
X151084Y423881D01*
X153521Y418939D01*
X156582Y414358D01*
X160215Y410215D01*
X164358Y406582D01*
X168939Y403521D01*
X173881Y401084D01*
X179098Y399313D01*
X184502Y398238D01*
X190000Y397878D01*
X195498Y398238D01*
X200902Y399313D01*
X206119Y401084D01*
X211061Y403521D01*
X215642Y406582D01*
X219785Y410215D01*
X223418Y414358D01*
X226479Y418939D01*
X228916Y423881D01*
X230687Y429098D01*
X231762Y434502D01*
X232122Y440000D01*
X231762Y445498D01*
X230687Y450902D01*
X228916Y456119D01*
X226479Y461061D01*
X223418Y465642D01*
X219785Y469785D01*
X215642Y473418D01*
X211061Y476479D01*
X206119Y478916D01*
X200902Y480687D01*
X195498Y481762D01*
X190000Y482122D01*
D02*
G37*
G36*
X545402Y209484D02*
X534416D01*
Y198498D01*
X536541Y198778D01*
X539468Y199990D01*
X541981Y201919D01*
X543910Y204432D01*
X545122Y207359D01*
X545402Y209484D01*
D02*
G37*
G36*
X532384D02*
X521398D01*
X521678Y207359D01*
X522890Y204432D01*
X524819Y201919D01*
X527332Y199990D01*
X530259Y198778D01*
X532384Y198498D01*
Y209484D01*
D02*
G37*
G36*
X107252Y152334D02*
X96266D01*
Y141348D01*
X98391Y141628D01*
X101318Y142840D01*
X103831Y144769D01*
X105760Y147282D01*
X106972Y150209D01*
X107252Y152334D01*
D02*
G37*
G36*
X94234D02*
X83248D01*
X83528Y150209D01*
X84740Y147282D01*
X86669Y144769D01*
X89182Y142840D01*
X92109Y141628D01*
X94234Y141348D01*
Y152334D01*
D02*
G37*
G36*
X440000Y202122D02*
X434502Y201762D01*
X429098Y200687D01*
X423881Y198916D01*
X418939Y196479D01*
X414358Y193418D01*
X410215Y189785D01*
X406582Y185642D01*
X403521Y181061D01*
X401084Y176119D01*
X399313Y170902D01*
X398238Y165498D01*
X397878Y160000D01*
X398238Y154502D01*
X399313Y149098D01*
X401084Y143881D01*
X403521Y138939D01*
X406582Y134358D01*
X410215Y130215D01*
X414358Y126582D01*
X418939Y123521D01*
X423881Y121084D01*
X429098Y119313D01*
X434502Y118238D01*
X440000Y117878D01*
X445498Y118238D01*
X450902Y119313D01*
X456119Y121084D01*
X461061Y123521D01*
X465642Y126582D01*
X469785Y130215D01*
X473418Y134358D01*
X476479Y138939D01*
X478916Y143881D01*
X480687Y149098D01*
X481762Y154502D01*
X482122Y160000D01*
X481762Y165498D01*
X480687Y170902D01*
X478916Y176119D01*
X476479Y181061D01*
X473418Y185642D01*
X469785Y189785D01*
X465642Y193418D01*
X461061Y196479D01*
X456119Y198916D01*
X450902Y200687D01*
X445498Y201762D01*
X440000Y202122D01*
D02*
G37*
G36*
X378460Y185902D02*
X251460D01*
X250667Y185744D01*
X249995Y185295D01*
X249546Y184623D01*
X249388Y183830D01*
Y110170D01*
X249546Y109377D01*
X249995Y108705D01*
X250667Y108256D01*
X251460Y108098D01*
X378460D01*
X379253Y108256D01*
X379925Y108705D01*
X380374Y109377D01*
X380532Y110170D01*
Y183830D01*
X380374Y184623D01*
X379925Y185295D01*
X379253Y185744D01*
X378460Y185902D01*
D02*
G37*
G36*
X609600Y120897D02*
X607810Y120661D01*
X606141Y119971D01*
X604709Y118871D01*
X604533Y118642D01*
X516890D01*
X515106Y118287D01*
X513594Y117276D01*
X476859Y80542D01*
X436867D01*
X436691Y80771D01*
X435259Y81870D01*
X433590Y82562D01*
X431800Y82797D01*
X430010Y82562D01*
X428341Y81870D01*
X426909Y80771D01*
X425810Y79339D01*
X425118Y77670D01*
X424883Y75880D01*
X425118Y74090D01*
X425810Y72421D01*
X426909Y70989D01*
X428341Y69889D01*
X430010Y69198D01*
X431800Y68963D01*
X433590Y69198D01*
X435259Y69889D01*
X436691Y70989D01*
X436867Y71219D01*
X478790D01*
X480574Y71573D01*
X482086Y72584D01*
X518821Y109319D01*
X604533D01*
X604709Y109089D01*
X606141Y107990D01*
X607810Y107298D01*
X609600Y107063D01*
X611390Y107298D01*
X613059Y107990D01*
X614491Y109089D01*
X615591Y110521D01*
X616282Y112190D01*
X616517Y113980D01*
X616282Y115770D01*
X615591Y117439D01*
X614491Y118871D01*
X613059Y119971D01*
X611390Y120661D01*
X609600Y120897D01*
D02*
G37*
G36*
X594381Y103192D02*
X574318D01*
Y76628D01*
X594381D01*
Y103192D01*
D02*
G37*
G36*
X558950Y103279D02*
X556331Y102934D01*
X553890Y101923D01*
X551795Y100315D01*
X550187Y98219D01*
X549176Y95779D01*
X548831Y93160D01*
Y86660D01*
X549176Y84041D01*
X550187Y81601D01*
X551795Y79505D01*
X553890Y77897D01*
X556331Y76886D01*
X558950Y76542D01*
X561568Y76886D01*
X564009Y77897D01*
X566105Y79505D01*
X567713Y81601D01*
X568723Y84041D01*
X569068Y86660D01*
Y93160D01*
X568723Y95779D01*
X567713Y98219D01*
X566105Y100315D01*
X564009Y101923D01*
X561568Y102934D01*
X558950Y103279D01*
D02*
G37*
G36*
X251084Y59880D02*
X249612Y59687D01*
X247293Y58726D01*
X245302Y57198D01*
X243774Y55207D01*
X242813Y52888D01*
X242486Y50400D01*
Y46416D01*
X251084D01*
Y59880D01*
D02*
G37*
G36*
Y44384D02*
X242486D01*
Y40400D01*
X242813Y37912D01*
X243774Y35593D01*
X245302Y33602D01*
X247293Y32074D01*
X249612Y31113D01*
X251084Y30919D01*
Y44384D01*
D02*
G37*
G36*
X488950Y60014D02*
X486462Y59687D01*
X484143Y58726D01*
X482152Y57198D01*
X480624Y55207D01*
X479663Y52888D01*
X479336Y50400D01*
Y40400D01*
X479663Y37912D01*
X480624Y35593D01*
X482152Y33602D01*
X484143Y32074D01*
X486462Y31113D01*
X488950Y30786D01*
X491438Y31113D01*
X493757Y32074D01*
X495748Y33602D01*
X497276Y35593D01*
X498237Y37912D01*
X499418Y37611D01*
Y30868D01*
X518482D01*
Y59932D01*
X499418D01*
Y53189D01*
X498237Y52888D01*
X497276Y55207D01*
X495748Y57198D01*
X493757Y58726D01*
X491438Y59687D01*
X488950Y60014D01*
D02*
G37*
G36*
X207632Y59932D02*
X186068D01*
Y30868D01*
X207632D01*
Y59932D01*
D02*
G37*
G36*
X171450Y60025D02*
X168635Y59654D01*
X166012Y58568D01*
X163760Y56840D01*
X162032Y54587D01*
X160945Y51965D01*
X160575Y49150D01*
Y41650D01*
X160945Y38835D01*
X162032Y36212D01*
X163760Y33960D01*
X166012Y32232D01*
X168635Y31146D01*
X171450Y30775D01*
X174265Y31146D01*
X176887Y32232D01*
X179140Y33960D01*
X180868Y36212D01*
X181954Y38835D01*
X182325Y41650D01*
Y49150D01*
X181954Y51965D01*
X180868Y54587D01*
X179140Y56840D01*
X176887Y58568D01*
X174265Y59654D01*
X171450Y60025D01*
D02*
G37*
G36*
X146050D02*
X143235Y59654D01*
X140612Y58568D01*
X138360Y56840D01*
X136632Y54587D01*
X135546Y51965D01*
X135175Y49150D01*
Y41650D01*
X135546Y38835D01*
X136632Y36212D01*
X138360Y33960D01*
X140612Y32232D01*
X143235Y31146D01*
X146050Y30775D01*
X148865Y31146D01*
X151488Y32232D01*
X153740Y33960D01*
X155468Y36212D01*
X156554Y38835D01*
X156925Y41650D01*
Y49150D01*
X156554Y51965D01*
X155468Y54587D01*
X153740Y56840D01*
X151488Y58568D01*
X148865Y59654D01*
X146050Y60025D01*
D02*
G37*
G36*
X587500Y67139D02*
X562500D01*
X558181Y66713D01*
X554028Y65453D01*
X550200Y63408D01*
X546846Y60654D01*
X544092Y57300D01*
X542047Y53472D01*
X540787Y49319D01*
X540361Y45000D01*
X540787Y40681D01*
X542047Y36528D01*
X544092Y32701D01*
X546846Y29346D01*
X550200Y26593D01*
X554028Y24547D01*
X558181Y23287D01*
X562500Y22861D01*
X587500D01*
X591819Y23287D01*
X595972Y24547D01*
X599799Y26593D01*
X603154Y29346D01*
X605908Y32701D01*
X607953Y36528D01*
X609213Y40681D01*
X609639Y45000D01*
X609213Y49319D01*
X607953Y53472D01*
X605908Y57300D01*
X603154Y60654D01*
X599799Y63408D01*
X595972Y65453D01*
X591819Y66713D01*
X587500Y67139D01*
D02*
G37*
G36*
X67500D02*
X42500D01*
X38181Y66713D01*
X34028Y65453D01*
X30200Y63408D01*
X26846Y60654D01*
X24092Y57300D01*
X22047Y53472D01*
X20787Y49319D01*
X20361Y45000D01*
X20787Y40681D01*
X22047Y36528D01*
X24092Y32701D01*
X26846Y29346D01*
X30200Y26593D01*
X34028Y24547D01*
X38181Y23287D01*
X42500Y22861D01*
X67500D01*
X71819Y23287D01*
X75972Y24547D01*
X79799Y26593D01*
X83154Y29346D01*
X85907Y32701D01*
X87953Y36528D01*
X89213Y40681D01*
X89639Y45000D01*
X89213Y49319D01*
X87953Y53472D01*
X85907Y57300D01*
X83154Y60654D01*
X79799Y63408D01*
X75972Y65453D01*
X71819Y66713D01*
X67500Y67139D01*
D02*
G37*
G36*
X374650Y382049D02*
X372668Y381655D01*
X370988Y380532D01*
X370790Y380237D01*
X303580D01*
X303382Y380532D01*
X301702Y381655D01*
X299720Y382049D01*
X297738Y381655D01*
X296057Y380532D01*
X294935Y378852D01*
X294541Y376870D01*
X294935Y374888D01*
X296057Y373208D01*
X297738Y372085D01*
X299720Y371690D01*
X301702Y372085D01*
X303382Y373208D01*
X303580Y373503D01*
X370790D01*
X370988Y373208D01*
X372668Y372085D01*
X374650Y371690D01*
X376632Y372085D01*
X378312Y373208D01*
X379435Y374888D01*
X379829Y376870D01*
X379435Y378852D01*
X378312Y380532D01*
X376632Y381655D01*
X374650Y382049D01*
D02*
G37*
%LPD*%
D12*
X139700Y547050D02*
X307660D01*
X337820Y516890D01*
X533400Y312100D02*
X601880D01*
X607060Y317279D01*
X334283Y396103D02*
X389168D01*
X334100Y395920D02*
X334283Y396103D01*
X328840Y395920D02*
X334100D01*
X328657Y396103D02*
X328840Y395920D01*
X254183Y396103D02*
X328657D01*
X389168D02*
X395335Y389935D01*
X378585Y389753D02*
X380038Y388300D01*
X299903Y389753D02*
X378585D01*
X380038Y388300D02*
X381000D01*
X233680Y375600D02*
X254183Y396103D01*
X259080Y408620D02*
X387350D01*
X525792Y357820D02*
X530872Y362900D01*
X265980Y464500D02*
X548640D01*
X328930Y244790D02*
X387350D01*
X438150Y294320D02*
X501650D01*
X172720Y97470D02*
X176530Y93660D01*
X218440Y107630D02*
X227330Y98740D01*
X530872Y362900D02*
X533400D01*
X501650Y294320D02*
X504190Y296860D01*
X227330Y98740D02*
X390724D01*
X234950Y204150D02*
X370840D01*
X263440Y461960D02*
X265980Y464500D01*
X262890Y461960D02*
X263440D01*
X318770Y254950D02*
X328930Y244790D01*
X426720Y413700D02*
X533400D01*
X299720Y351470D02*
X387350D01*
X337820Y256220D02*
X513080D01*
X124460Y89850D02*
X132080Y82230D01*
X114300Y340040D02*
X393700D01*
X331470Y262570D02*
Y272730D01*
X107442Y508950D02*
X234950D01*
X221861Y179631D02*
X222250Y180020D01*
X95250Y204150D02*
X234950D01*
X331470Y402270D02*
X500380D01*
X176530Y93660D02*
X388620D01*
X222250Y364170D02*
X299720D01*
X95250Y178750D02*
X96131Y179631D01*
X124460Y89850D02*
Y96200D01*
X436880Y262570D02*
X523240D01*
X96131Y179631D02*
X221861D01*
X331470Y262570D02*
X337820Y256220D01*
X95250Y331150D02*
X393700D01*
X299720Y376870D02*
X374650D01*
X95250Y229550D02*
X381000D01*
X95250Y280350D02*
X344170D01*
X278130Y357820D02*
X525792D01*
X331470Y300670D02*
X375920D01*
X524510Y261300D02*
X533400D01*
X523240Y262570D02*
X524510Y261300D01*
X533400D02*
X552450D01*
X560070Y449260D02*
X579120D01*
X551180Y458150D02*
X560070Y449260D01*
X551180Y458150D02*
Y461960D01*
X579120Y449260D02*
X590550Y437830D01*
X388620Y93660D02*
X392100Y90180D01*
X552450Y261300D02*
X558800Y267650D01*
X590550D01*
X548640Y464500D02*
X551180Y461960D01*
X590550Y426400D02*
Y437830D01*
X390724Y98740D02*
X397510Y91954D01*
Y69530D02*
Y91954D01*
Y69530D02*
X412100Y54940D01*
Y45400D02*
Y54940D01*
X95250Y356550D02*
X111760D01*
X116416Y374112D02*
X117904Y375600D01*
X116416Y361206D02*
Y374112D01*
X117904Y375600D02*
X233680D01*
X111760Y356550D02*
X116416Y361206D01*
X232410Y381950D02*
X259080Y408620D01*
X500380Y402270D02*
X514350Y388300D01*
X95250Y381950D02*
X232410D01*
X397510Y279080D02*
X525780D01*
X375920Y300670D02*
X397510Y279080D01*
X504190Y296860D02*
Y333740D01*
X525780Y279080D02*
X533400Y286700D01*
X95250Y254950D02*
X318770D01*
X132080Y82230D02*
X369570D01*
X513080Y256220D02*
X533400Y235900D01*
X372100Y45400D02*
Y79700D01*
X369570Y82230D02*
X372100Y79700D01*
X392100Y45400D02*
Y90180D01*
X504190Y333740D02*
X507950Y337500D01*
X575310Y242250D02*
X590550D01*
X568960Y235900D02*
X575310Y242250D01*
X533400Y235900D02*
X568960D01*
X514350Y388300D02*
X533400D01*
X507950Y337500D02*
X533400D01*
D64*
X162560Y574991D02*
X182131D01*
X105411Y572451D02*
X151130D01*
X71969Y425470D02*
X79250Y432750D01*
X71969Y163988D02*
Y425470D01*
Y91540D02*
Y163988D01*
Y91540D02*
X77470Y86040D01*
X254000Y439100D02*
X532765D01*
X533400Y439735D02*
X561975D01*
X532765Y439100D02*
X533400Y439735D01*
X95250Y562290D02*
X105411Y572451D01*
X561975Y439735D02*
X570230Y431480D01*
X125730Y442910D02*
Y483550D01*
X166370Y489900D02*
X243840D01*
X132080D02*
X166370D01*
X115570Y432750D02*
X125730Y442910D01*
X79250Y432750D02*
X95250D01*
X77470Y86040D02*
X115134D01*
X316230Y489900D02*
X351790D01*
X243840D02*
X316230D01*
X125730Y483550D02*
X132080Y489900D01*
X243840D02*
X243840Y489900D01*
X570230Y406080D02*
Y431480D01*
X589280Y402270D02*
X590550Y401000D01*
X574040Y402270D02*
X589280D01*
X570230Y406080D02*
X574040Y402270D01*
X351790Y489900D02*
X469900D01*
X351790Y489900D02*
X351790Y489900D01*
X95250Y432750D02*
X115570D01*
X95250D02*
Y562290D01*
X115134Y86040D02*
X120650Y80524D01*
Y45400D02*
Y80524D01*
X516890Y113980D02*
X609600D01*
X478790Y75880D02*
X516890Y113980D01*
X431800Y75880D02*
X478790D01*
D66*
X337820Y516890D02*
D03*
Y567690D02*
D03*
X287020D02*
D03*
Y516890D02*
D03*
X237490Y574040D02*
D03*
X533400Y210500D02*
D03*
Y235900D02*
D03*
Y261300D02*
D03*
Y286700D02*
D03*
Y312100D02*
D03*
Y337500D02*
D03*
Y362900D02*
D03*
Y388300D02*
D03*
Y413700D02*
D03*
Y439100D02*
D03*
Y464500D02*
D03*
X95250Y153350D02*
D03*
Y178750D02*
D03*
Y204150D02*
D03*
Y229550D02*
D03*
Y254950D02*
D03*
Y280350D02*
D03*
Y305750D02*
D03*
Y331150D02*
D03*
Y356550D02*
D03*
Y381950D02*
D03*
Y407350D02*
D03*
D67*
X162560Y574040D02*
D03*
X533400Y489900D02*
D03*
X95250Y432750D02*
D03*
D68*
X440000Y160000D02*
D03*
X190000Y440000D02*
D03*
D69*
X590550Y267650D02*
D03*
Y426400D02*
D03*
D70*
Y242250D02*
D03*
Y401000D02*
D03*
D71*
X146050Y45400D02*
D03*
X171450D02*
D03*
X120650D02*
D03*
D72*
X196850D02*
D03*
D73*
X292100D02*
D03*
X352100D02*
D03*
X372100D02*
D03*
X392100D02*
D03*
X412100D02*
D03*
X332100D02*
D03*
X312100D02*
D03*
X272100D02*
D03*
X252100D02*
D03*
X488950D02*
D03*
D74*
X432100D02*
D03*
X508950D02*
D03*
D75*
X14210Y146500D02*
D03*
Y84000D02*
D03*
D76*
X575000Y545000D02*
D03*
X55000D02*
D03*
Y45000D02*
D03*
X575000D02*
D03*
D77*
X558950Y89910D02*
D03*
D78*
X584350D02*
D03*
D79*
X71969Y163988D02*
D03*
X457200Y439100D02*
D03*
X166370Y489900D02*
D03*
X243840D02*
D03*
X254000Y439100D02*
D03*
X152400Y301940D02*
D03*
X469900Y489900D02*
D03*
X316230Y489900D02*
D03*
X431800Y75880D02*
D03*
X609600Y113980D02*
D03*
D80*
X607060Y317279D02*
D03*
X299903Y389753D02*
D03*
X139700Y547050D02*
D03*
X331470Y272730D02*
D03*
X218440Y107630D02*
D03*
X331470Y300670D02*
D03*
X387350Y408620D02*
D03*
X344170Y280350D02*
D03*
X299720Y376870D02*
D03*
X381000Y229550D02*
D03*
X234950Y508950D02*
D03*
X172720Y97470D02*
D03*
X381000Y388300D02*
D03*
X436880Y262570D02*
D03*
X370840Y204150D02*
D03*
X438150Y294320D02*
D03*
X393700Y340040D02*
D03*
X387350Y244790D02*
D03*
X262890Y461960D02*
D03*
X107442Y508950D02*
D03*
X114300Y340040D02*
D03*
X278130Y357820D02*
D03*
X395335Y389935D02*
D03*
X299720Y351470D02*
D03*
X234950Y204150D02*
D03*
X393700Y331150D02*
D03*
X331470Y402270D02*
D03*
X387350Y351470D02*
D03*
X299720Y364170D02*
D03*
X426720Y413700D02*
D03*
X222250Y180020D02*
D03*
X124460Y96200D02*
D03*
X374650Y376870D02*
D03*
X222250Y364170D02*
D03*
M02*
