G04*
G04 #@! TF.GenerationSoftware,Altium Limited,Altium Designer,22.7.1 (60)*
G04*
G04 Layer_Color=32639*
%FSLAX44Y44*%
%MOMM*%
G71*
G04*
G04 #@! TF.SameCoordinates,19F2358B-4240-49B2-A54B-8FB7877D19E4*
G04*
G04*
G04 #@! TF.FilePolarity,Negative*
G04*
G01*
G75*
%ADD49C,2.1500*%
%ADD50R,2.1500X2.1500*%
%ADD51C,8.1500*%
%ADD52R,2.6500X1.9000*%
%ADD53O,2.6500X1.9000*%
%ADD54O,1.9000X2.6500*%
%ADD55R,1.9000X2.6500*%
%ADD56O,1.6500X2.6500*%
%ADD57R,1.6500X2.6500*%
%ADD58C,1.4500*%
%ADD59O,6.6500X4.1500*%
%ADD60O,1.7500X2.4000*%
%ADD61R,1.7500X2.4000*%
%ADD62C,1.1152*%
%ADD63C,0.7596*%
D49*
X337820Y516890D02*
D03*
Y567690D02*
D03*
X287020D02*
D03*
Y516890D02*
D03*
X237490Y574040D02*
D03*
X533400Y210500D02*
D03*
Y235900D02*
D03*
Y261300D02*
D03*
Y286700D02*
D03*
Y312100D02*
D03*
Y337500D02*
D03*
Y362900D02*
D03*
Y388300D02*
D03*
Y413700D02*
D03*
Y439100D02*
D03*
Y464500D02*
D03*
X95250Y153350D02*
D03*
Y178750D02*
D03*
Y204150D02*
D03*
Y229550D02*
D03*
Y254950D02*
D03*
Y280350D02*
D03*
Y305750D02*
D03*
Y331150D02*
D03*
Y356550D02*
D03*
Y381950D02*
D03*
Y407350D02*
D03*
D50*
X162560Y574040D02*
D03*
X533400Y489900D02*
D03*
X95250Y432750D02*
D03*
D51*
X440000Y160000D02*
D03*
X190000Y440000D02*
D03*
D52*
X590550Y267650D02*
D03*
Y426400D02*
D03*
D53*
Y242250D02*
D03*
Y401000D02*
D03*
D54*
X146050Y45400D02*
D03*
X171450D02*
D03*
X120650D02*
D03*
D55*
X196850D02*
D03*
D56*
X292100D02*
D03*
X352100D02*
D03*
X372100D02*
D03*
X392100D02*
D03*
X412100D02*
D03*
X332100D02*
D03*
X312100D02*
D03*
X272100D02*
D03*
X252100D02*
D03*
X488950D02*
D03*
D57*
X432100D02*
D03*
X508950D02*
D03*
D58*
X14210Y146500D02*
D03*
Y84000D02*
D03*
D59*
X575000Y545000D02*
D03*
X55000D02*
D03*
Y45000D02*
D03*
X575000D02*
D03*
D60*
X558950Y89910D02*
D03*
D61*
X584350D02*
D03*
D62*
X71969Y163988D02*
D03*
X457200Y439100D02*
D03*
X166370Y489900D02*
D03*
X243840D02*
D03*
X254000Y439100D02*
D03*
X152400Y301940D02*
D03*
X469900Y489900D02*
D03*
X316230Y489900D02*
D03*
X431800Y75880D02*
D03*
X609600Y113980D02*
D03*
D63*
X607060Y317279D02*
D03*
X299903Y389753D02*
D03*
X139700Y547050D02*
D03*
X331470Y272730D02*
D03*
X218440Y107630D02*
D03*
X331470Y300670D02*
D03*
X387350Y408620D02*
D03*
X344170Y280350D02*
D03*
X299720Y376870D02*
D03*
X381000Y229550D02*
D03*
X234950Y508950D02*
D03*
X172720Y97470D02*
D03*
X381000Y388300D02*
D03*
X436880Y262570D02*
D03*
X370840Y204150D02*
D03*
X438150Y294320D02*
D03*
X393700Y340040D02*
D03*
X387350Y244790D02*
D03*
X262890Y461960D02*
D03*
X107442Y508950D02*
D03*
X114300Y340040D02*
D03*
X278130Y357820D02*
D03*
X395335Y389935D02*
D03*
X299720Y351470D02*
D03*
X234950Y204150D02*
D03*
X393700Y331150D02*
D03*
X331470Y402270D02*
D03*
X387350Y351470D02*
D03*
X299720Y364170D02*
D03*
X426720Y413700D02*
D03*
X222250Y180020D02*
D03*
X124460Y96200D02*
D03*
X374650Y376870D02*
D03*
X222250Y364170D02*
D03*
M02*
