M48
;Layer_Color=9474304
;FILE_FORMAT=4:4
METRIC,LZ
;TYPE=PLATED
T1F00S00C0.3048
T2F00S00C0.5080
T3F00S00C0.7000
T4F00S00C0.7500
T5F00S00C0.8000
T6F00S00C0.9500
T7F00S00C1.1000
T8F00S00C1.1000
T9F00S00C3.0000
%
T01
X0012446Y000962
X0017272Y0009747
X0021844Y0010763
X0060706Y00317279
X0043815Y0029432
X0043688Y0026257
X0038735Y0024479
X00381Y0022955
X0037084Y0020415
X0034417Y0028035
X0033147Y0027273
Y0030067
X0029972Y0035147
Y0036417
Y0037687
X00299903Y00389753
X0033147Y0040227
X0038735Y0040862
X00381Y003883
X00395335Y00389935
X0037465Y0037687
X0038735Y0035147
X003937Y0034004
Y0033115
X0042672Y004137
X0027813Y0035782
X0022225Y0036417
X0026289Y0046196
X0023495Y0050895
Y0020415
X0022225Y0018002
X001143Y0034004
X00107442Y0050895
X001397Y0054705
T02
X004318Y0007588
X006096Y0011398
X004572Y004391
X004699Y004899
X0031623Y004899
X0024384Y004899
X00254Y004391
X0016637Y004899
X001524Y0030194
X00071969Y00163988
T03
X002521Y000454
X002721
X002921
X003121
X003321
X003521
X003721
X003921
X004121
X004321
X0048895
X0050895
T04
X0016256Y0057404
X0023749
T05
X0001421Y00084
Y001465
X0028702Y0051689
X0033782
Y0056769
X0028702
T06
X0055895Y0008991
X0058435
T07
X0009525Y0015335
X005334Y002105
Y002359
Y002613
Y002867
Y003121
Y003375
Y003629
Y003883
Y004137
Y004391
Y004645
Y004899
X0009525Y0043275
Y0040735
Y0038195
Y0035655
Y0033115
Y0030575
Y0028035
Y0025495
Y0022955
Y0020415
Y0017875
T08
X0012065Y000454
X0014605
X0017145
X0019685
X0059055Y0024225
Y0026765
Y00401
Y004264
T09
X00055Y00045
X0044Y0016
X00575Y00045
Y00545
X0019Y0044
X00055Y00545
M30
