G04*
G04 #@! TF.GenerationSoftware,Altium Limited,Altium Designer,22.7.1 (60)*
G04*
G04 Layer_Color=8454143*
%FSLAX44Y44*%
%MOMM*%
G71*
G04*
G04 #@! TF.SameCoordinates,19F2358B-4240-49B2-A54B-8FB7877D19E4*
G04*
G04*
G04 #@! TF.FilePolarity,Positive*
G04*
G01*
G75*
%ADD10C,0.2000*%
%ADD11C,0.0000*%
%ADD12C,0.2540*%
%ADD13C,0.1500*%
%ADD14C,0.1270*%
%ADD15C,0.1000*%
%ADD16C,0.2032*%
G36*
X82950Y447350D02*
Y438350D01*
X91950Y447350D01*
X82950D01*
D02*
G37*
G36*
X599650Y77210D02*
X596250D01*
Y78910D01*
X598250Y80910D01*
X599650D01*
Y77210D01*
D02*
G37*
G36*
X521100Y504500D02*
Y495500D01*
X530100Y504500D01*
X521100D01*
D02*
G37*
D10*
X259391Y574041D02*
G03*
X259391Y574041I-60000J0D01*
G01*
X44183Y220618D02*
G03*
X44183Y220618I-1000J0D01*
G01*
Y271418D02*
G03*
X44183Y271418I-1000J0D01*
G01*
X44177Y365482D02*
G03*
X44177Y365482I-1000J0D01*
G01*
X591553Y487318D02*
G03*
X591553Y487318I-1000J0D01*
G01*
X44183Y322218D02*
G03*
X44183Y322218I-1000J0D01*
G01*
X477253Y538118D02*
G03*
X477253Y538118I-1000J0D01*
G01*
X599650Y80910D02*
G03*
X596250Y77510I0J-3400D01*
G01*
X297420Y529290D02*
X327420D01*
X351420Y524290D02*
X361420D01*
Y610290D01*
X343420D02*
X361420D01*
X343420D02*
Y655290D01*
X281420D02*
X343420D01*
X281420Y610290D02*
Y655290D01*
X263420Y610290D02*
X281420D01*
X263420Y524290D02*
Y610290D01*
Y524290D02*
X273420D01*
X125901Y564041D02*
Y584041D01*
X115901Y574041D02*
X135901D01*
X142320Y503650D02*
X152320D01*
X147320D02*
X151320Y510650D01*
X142320D02*
X147320Y503650D01*
X142320Y510650D02*
X151320D01*
X147320Y501650D02*
Y503650D01*
Y510650D02*
Y513650D01*
X38433Y218618D02*
X43183Y213118D01*
X33182Y208118D02*
X53183D01*
X43183D02*
Y213118D01*
Y220618D02*
Y225618D01*
X33182D02*
X53183D01*
X31182Y202868D02*
X55182D01*
X31182Y230868D02*
X55182D01*
X38433Y269418D02*
X43183Y263918D01*
X33182Y258918D02*
X53183D01*
X43183D02*
Y263918D01*
Y271418D02*
Y276418D01*
X33182D02*
X53183D01*
X31182Y253668D02*
X55182D01*
X31182Y281668D02*
X55182D01*
X123698Y538970D02*
X131840D01*
Y529176D02*
Y538970D01*
X101840D02*
X109840D01*
X101840Y529176D02*
Y538970D01*
X558550Y280950D02*
Y281950D01*
X622550D01*
Y227950D02*
Y281950D01*
X558550Y227950D02*
X622550D01*
X558550D02*
Y280950D01*
X619760Y261300D02*
Y274000D01*
Y261300D02*
X622550Y258760D01*
X619760Y274000D02*
X622550Y276540D01*
X619760Y248600D02*
X622550Y251140D01*
X619760Y235900D02*
X622550Y233360D01*
X619760Y235900D02*
Y248600D01*
X520700Y504200D02*
X546100D01*
Y196200D02*
Y504200D01*
X520700Y196200D02*
X546100D01*
X520700D02*
Y504200D01*
X558550Y439700D02*
Y440700D01*
X622550D01*
Y386700D02*
Y440700D01*
X558550Y386700D02*
X622550D01*
X558550D02*
Y439700D01*
X619760Y420050D02*
Y432750D01*
Y420050D02*
X622550Y417510D01*
X619760Y432750D02*
X622550Y435290D01*
X619760Y407350D02*
X622550Y409890D01*
X619760Y394650D02*
X622550Y392110D01*
X619760Y394650D02*
Y407350D01*
X82550Y447050D02*
X107950D01*
Y139050D02*
Y447050D01*
X82550Y139050D02*
X107950D01*
X82550D02*
Y447050D01*
X43177Y372982D02*
X47927Y367482D01*
X33177Y377982D02*
X53177D01*
X43177Y372982D02*
Y377982D01*
Y360482D02*
Y365482D01*
X33177Y360482D02*
X53177D01*
X31177Y383232D02*
X55177D01*
X31177Y355232D02*
X55177D01*
X585802Y485318D02*
X590552Y479818D01*
X580552Y474818D02*
X600552D01*
X590552D02*
Y479818D01*
Y487318D02*
Y492318D01*
X580552D02*
X600552D01*
X578553Y469568D02*
X602552D01*
X578553Y497568D02*
X602552D01*
X349260Y487590D02*
X387260D01*
X349260Y444590D02*
X387260D01*
X344260Y482590D02*
X349260Y487590D01*
X344260Y449590D02*
X349260Y444590D01*
X387260Y475590D02*
Y487590D01*
Y444590D02*
Y456590D01*
X344260Y475590D02*
Y482590D01*
Y449590D02*
Y456590D01*
X472450Y359000D02*
X510450D01*
X472450Y316000D02*
X510450D01*
X467450Y354000D02*
X472450Y359000D01*
X467450Y321000D02*
X472450Y316000D01*
X510450Y347000D02*
Y359000D01*
Y316000D02*
Y328000D01*
X467450Y347000D02*
Y354000D01*
Y321000D02*
Y328000D01*
X31182Y332468D02*
X55182D01*
X31182Y304468D02*
X55182D01*
X33182Y327218D02*
X53183D01*
X43183Y322218D02*
Y327218D01*
Y309718D02*
Y314718D01*
X33182Y309718D02*
X53183D01*
X38433Y320218D02*
X43183Y314718D01*
X464253Y548368D02*
X488252D01*
X464253Y520368D02*
X488252D01*
X466253Y543118D02*
X486253D01*
X476253Y538118D02*
Y543118D01*
Y525618D02*
Y530618D01*
X466253Y525618D02*
X486253D01*
X471502Y536118D02*
X476253Y530618D01*
X491400Y252500D02*
Y290500D01*
X448400Y252500D02*
Y290500D01*
X486400Y295500D02*
X491400Y290500D01*
X448400D02*
X453400Y295500D01*
X479400Y252500D02*
X491400D01*
X448400D02*
X460400D01*
X479400Y295500D02*
X486400D01*
X453400D02*
X460400D01*
X284490Y242160D02*
X322490D01*
X284490Y199160D02*
X322490D01*
X279490Y237160D02*
X284490Y242160D01*
X279490Y204160D02*
X284490Y199160D01*
X322490Y230160D02*
Y242160D01*
Y199160D02*
Y211160D01*
X279490Y230160D02*
Y237160D01*
Y204160D02*
Y211160D01*
X550000Y314650D02*
Y352650D01*
X593000Y314650D02*
Y352650D01*
X550000Y314650D02*
X555000Y309650D01*
X588000D02*
X593000Y314650D01*
X550000Y352650D02*
X562000D01*
X581000D02*
X593000D01*
X555000Y309650D02*
X562000D01*
X581000D02*
X588000D01*
X211240Y91900D02*
Y101694D01*
X203240Y91900D02*
X211240D01*
X181240D02*
Y101694D01*
Y91900D02*
X189382D01*
X167400Y92850D02*
Y102644D01*
X159400Y92850D02*
X167400D01*
X137400D02*
Y102644D01*
Y92850D02*
X145542D01*
X122950D02*
Y102644D01*
X114950Y92850D02*
X122950D01*
X92950D02*
Y102644D01*
Y92850D02*
X101092D01*
X152400Y16190D02*
X154940Y13400D01*
X137160D02*
X139700Y16190D01*
X152400D01*
X165100D02*
X177800D01*
X162560Y13400D02*
X165100Y16190D01*
X177800D02*
X180340Y13400D01*
X203200Y16190D02*
X205740Y13400D01*
X187960D02*
X190500Y16190D01*
X203200D01*
X106350Y77400D02*
X210150D01*
X106350Y13400D02*
Y77400D01*
Y13400D02*
X211150D01*
Y77400D01*
X210150D02*
X211150D01*
X114300Y16190D02*
X127000D01*
X111760Y13400D02*
X114300Y16190D01*
X127000D02*
X129540Y13400D01*
X232100Y28400D02*
X452100D01*
X232100D02*
Y73400D01*
X452100D01*
Y28400D02*
Y73400D01*
X528450Y28400D02*
Y73400D01*
X469450D02*
X528450D01*
X469450Y28400D02*
Y73400D01*
Y28400D02*
X528450D01*
X14210Y71750D02*
Y74750D01*
Y93250D02*
Y117750D01*
Y132750D02*
Y137250D01*
Y155750D02*
Y158750D01*
X44210Y71750D02*
Y97250D01*
Y153250D02*
Y158750D01*
X-5790Y117750D02*
X14210D01*
X-5790D02*
Y132750D01*
X14210D01*
Y158750D02*
X44210D01*
X14210Y71750D02*
X44210D01*
X543650Y77210D02*
X599650D01*
X543650D02*
Y102610D01*
X599650D01*
Y77210D02*
Y102610D01*
X596250Y77210D02*
Y77510D01*
D11*
X300749Y433835D02*
G03*
X300749Y433835I-2000J0D01*
G01*
D12*
X36718Y171638D02*
X39441Y174361D01*
X36718Y171638D02*
X39441Y169296D01*
X40386Y193444D02*
X43142Y190688D01*
X40386Y187894D02*
X43142Y190650D01*
Y190688D01*
X36718Y171638D02*
X41148D01*
X39878Y190688D02*
X43142D01*
X188699Y184667D02*
X186159Y187206D01*
X181081D01*
X178542Y184667D01*
Y174510D01*
X181081Y171971D01*
X186159D01*
X188699Y174510D01*
X193777Y187206D02*
Y171971D01*
X203934D01*
X209012Y187206D02*
Y171971D01*
Y177050D01*
X219169Y187206D01*
X211551Y179589D01*
X219169Y171971D01*
X178348Y221222D02*
Y236458D01*
X183426Y231379D01*
X188505Y236458D01*
Y221222D01*
X193583Y236458D02*
X198662D01*
X196122D01*
Y221222D01*
X193583D01*
X198662D01*
X177804Y196532D02*
Y211768D01*
X182882Y206689D01*
X187961Y211768D01*
Y196532D01*
X200657Y211768D02*
X195578D01*
X193039Y209228D01*
Y199072D01*
X195578Y196532D01*
X200657D01*
X203196Y199072D01*
Y209228D01*
X200657Y211768D01*
X187961Y262568D02*
X177804D01*
Y247332D01*
X187961D01*
X177804Y254950D02*
X182882D01*
X193039Y247332D02*
Y262568D01*
X203196Y247332D01*
Y262568D01*
X130813Y453394D02*
X146047D01*
Y461012D01*
X143508Y463551D01*
X133352D01*
X130813Y461012D01*
Y453394D01*
X146047Y478786D02*
Y468629D01*
X135891Y478786D01*
X133352D01*
X130813Y476247D01*
Y471168D01*
X133352Y468629D01*
D13*
X149860Y484790D02*
X157480D01*
X149860Y483520D02*
Y484790D01*
Y483520D02*
X157480D01*
Y484790D01*
X137160Y483520D02*
Y484790D01*
Y483520D02*
X144780D01*
Y484790D01*
X137160D02*
X144780D01*
X157480D02*
Y531780D01*
X137160Y484790D02*
Y531780D01*
X154070D02*
X157480D01*
X137160D02*
X140570D01*
X22710Y164130D02*
Y178130D01*
X35410Y164130D02*
Y166050D01*
X10010Y164130D02*
X35410D01*
X10010D02*
Y166050D01*
Y176210D02*
Y178130D01*
X35410D01*
Y176210D02*
Y178130D01*
X279426Y257237D02*
Y269737D01*
X267426Y267987D02*
Y269737D01*
X291426D01*
Y267987D02*
Y269737D01*
Y257237D02*
Y258987D01*
X267426Y257237D02*
X291426D01*
X267426D02*
Y258987D01*
X114300Y501330D02*
Y503250D01*
X88900D02*
X114300D01*
X88900Y501330D02*
Y503250D01*
Y489250D02*
Y491170D01*
Y489250D02*
X114300D01*
Y491170D01*
X101600Y489250D02*
Y503250D01*
X431900Y360930D02*
X433650D01*
X431900Y336930D02*
Y360930D01*
Y336930D02*
X433650D01*
X442650D02*
X444400D01*
Y360930D01*
X442650D02*
X444400D01*
X431900Y348930D02*
X444400D01*
X296600Y437260D02*
X298350D01*
Y461260D01*
X296600D02*
X298350D01*
X285850D02*
X287600D01*
X285850Y437260D02*
Y461260D01*
Y437260D02*
X287600D01*
X285850Y449260D02*
X298350D01*
X267400Y396350D02*
Y398100D01*
Y396350D02*
X291400D01*
Y398100D01*
Y407100D02*
Y408850D01*
X267400D02*
X291400D01*
X267400Y407100D02*
Y408850D01*
X279400Y396350D02*
Y408850D01*
X278208Y460754D02*
X280128D01*
Y430513D02*
Y460754D01*
X275668Y431544D02*
X280128D01*
X266128D02*
X270588D01*
X266128Y430513D02*
Y460754D01*
X268048D01*
X266128Y445513D02*
X269628D01*
X276628D02*
X280128D01*
X457200Y331656D02*
Y333576D01*
X431800D02*
X457200D01*
X431800Y331656D02*
Y333576D01*
Y319576D02*
Y321496D01*
Y319576D02*
X457200D01*
Y321496D01*
X444500Y319576D02*
Y333576D01*
X44450Y183180D02*
Y185100D01*
Y183180D02*
X69850D01*
Y185100D01*
Y195260D02*
Y197180D01*
X44450D02*
X69850D01*
X44450Y195260D02*
Y197180D01*
X57150Y183180D02*
Y197180D01*
X292100Y422590D02*
Y424510D01*
X266700D02*
X292100D01*
X266700Y422590D02*
Y424510D01*
Y410510D02*
Y412430D01*
Y410510D02*
X292100D01*
Y412430D01*
X279400Y410510D02*
Y424510D01*
X457200Y382456D02*
Y384376D01*
X431800D02*
X457200D01*
X431800Y382456D02*
Y384376D01*
Y370376D02*
Y372296D01*
Y370376D02*
X457200D01*
Y372296D01*
X444500Y370376D02*
Y384376D01*
X291426Y318787D02*
Y320537D01*
X267426D02*
X291426D01*
X267426Y318787D02*
Y320537D01*
Y308037D02*
Y309787D01*
Y308037D02*
X291426D01*
Y309787D01*
X279426Y308037D02*
Y320537D01*
X291400Y303900D02*
Y305650D01*
X267400D02*
X291400D01*
X267400Y303900D02*
Y305650D01*
Y293150D02*
Y294900D01*
Y293150D02*
X291400D01*
Y294900D01*
X279400Y293150D02*
Y305650D01*
X590550Y292400D02*
Y294320D01*
Y292400D02*
X615950D01*
Y294320D01*
Y304480D02*
Y306400D01*
X590550D02*
X615950D01*
X590550Y304480D02*
Y306400D01*
X603250Y292400D02*
Y306400D01*
X615950Y367980D02*
Y369900D01*
X590550D02*
X615950D01*
X590550Y367980D02*
Y369900D01*
Y355900D02*
Y357820D01*
Y355900D02*
X615950D01*
Y357820D01*
X603250Y355900D02*
Y369900D01*
X202550Y147000D02*
X204470D01*
X202550Y121600D02*
Y147000D01*
Y121600D02*
X204470D01*
X214630D02*
X216550D01*
Y147000D01*
X214630D02*
X216550D01*
X202550Y134300D02*
X216550D01*
X158100Y147000D02*
X160020D01*
X158100Y121600D02*
Y147000D01*
Y121600D02*
X160020D01*
X170180D02*
X172100D01*
Y147000D01*
X170180D02*
X172100D01*
X158100Y134300D02*
X172100D01*
X113650Y147000D02*
X115570D01*
X113650Y121600D02*
Y147000D01*
Y121600D02*
X115570D01*
X125730D02*
X127650D01*
Y147000D01*
X125730D02*
X127650D01*
X113650Y134300D02*
X127650D01*
D14*
X325624Y435160D02*
X400674D01*
X325624Y255810D02*
X400674D01*
D15*
X273128Y443764D02*
X275628Y447263D01*
X273128D02*
X275628D01*
X273128Y443764D02*
X275378D01*
X270878D02*
X273128D01*
X270628Y447263D02*
X273128D01*
X270628D02*
X273128Y443764D01*
D16*
X412245Y453320D02*
Y443163D01*
X414276Y441132D01*
X418339D01*
X420370Y443163D01*
Y453320D01*
X424433Y441132D02*
X428495D01*
X426464D01*
Y453320D01*
X424433Y451289D01*
X398275Y609533D02*
X396243Y611564D01*
X392181D01*
X390149Y609533D01*
Y601407D01*
X392181Y599376D01*
X396243D01*
X398275Y601407D01*
Y605470D01*
X394212D01*
X402337Y599376D02*
Y611564D01*
X410463Y599376D01*
Y611564D01*
X414525D02*
Y599376D01*
X420619D01*
X422651Y601407D01*
Y609533D01*
X420619Y611564D01*
X414525D01*
X14483Y474912D02*
Y466787D01*
X18546Y462724D01*
X22609Y466787D01*
Y474912D01*
X34797Y472881D02*
X32765Y474912D01*
X28703D01*
X26671Y472881D01*
Y464755D01*
X28703Y462724D01*
X32765D01*
X34797Y464755D01*
X46985Y472881D02*
X44953Y474912D01*
X40891D01*
X38859Y472881D01*
Y464755D01*
X40891Y462724D01*
X44953D01*
X46985Y464755D01*
X569469Y513013D02*
X567437Y515044D01*
X563375D01*
X561343Y513013D01*
Y510981D01*
X563375Y508950D01*
X567437D01*
X569469Y506919D01*
Y504887D01*
X567437Y502856D01*
X563375D01*
X561343Y504887D01*
X573531Y513013D02*
X575563Y515044D01*
X579625D01*
X581657Y513013D01*
Y510981D01*
X579625Y508950D01*
X581657Y506919D01*
Y504887D01*
X579625Y502856D01*
X575563D01*
X573531Y504887D01*
Y506919D01*
X575563Y508950D01*
X573531Y510981D01*
Y513013D01*
X575563Y508950D02*
X579625D01*
X61709Y81713D02*
X59677Y83744D01*
X55615D01*
X53583Y81713D01*
Y79681D01*
X55615Y77650D01*
X59677D01*
X61709Y75619D01*
Y73587D01*
X59677Y71556D01*
X55615D01*
X53583Y73587D01*
X65771Y83744D02*
X73897D01*
Y81713D01*
X65771Y73587D01*
Y71556D01*
X22099Y246313D02*
X20067Y248344D01*
X16005D01*
X13973Y246313D01*
Y244281D01*
X16005Y242250D01*
X20067D01*
X22099Y240219D01*
Y238187D01*
X20067Y236156D01*
X16005D01*
X13973Y238187D01*
X34287Y248344D02*
X30224Y246313D01*
X26161Y242250D01*
Y238187D01*
X28193Y236156D01*
X32255D01*
X34287Y238187D01*
Y240219D01*
X32255Y242250D01*
X26161D01*
X22099Y297113D02*
X20067Y299144D01*
X16005D01*
X13973Y297113D01*
Y295081D01*
X16005Y293050D01*
X20067D01*
X22099Y291019D01*
Y288987D01*
X20067Y286956D01*
X16005D01*
X13973Y288987D01*
X34287Y299144D02*
X26161D01*
Y293050D01*
X30224Y295081D01*
X32255D01*
X34287Y293050D01*
Y288987D01*
X32255Y286956D01*
X28193D01*
X26161Y288987D01*
X455169Y563813D02*
X453137Y565844D01*
X449075D01*
X447043Y563813D01*
Y561781D01*
X449075Y559750D01*
X453137D01*
X455169Y557719D01*
Y555687D01*
X453137Y553656D01*
X449075D01*
X447043Y555687D01*
X465325Y553656D02*
Y565844D01*
X459231Y559750D01*
X467357D01*
X22099Y347913D02*
X20067Y349944D01*
X16005D01*
X13973Y347913D01*
Y345881D01*
X16005Y343850D01*
X20067D01*
X22099Y341819D01*
Y339787D01*
X20067Y337756D01*
X16005D01*
X13973Y339787D01*
X26161Y347913D02*
X28193Y349944D01*
X32255D01*
X34287Y347913D01*
Y345881D01*
X32255Y343850D01*
X30224D01*
X32255D01*
X34287Y341819D01*
Y339787D01*
X32255Y337756D01*
X28193D01*
X26161Y339787D01*
X22099Y398713D02*
X20067Y400744D01*
X16005D01*
X13973Y398713D01*
Y396681D01*
X16005Y394650D01*
X20067D01*
X22099Y392619D01*
Y390587D01*
X20067Y388556D01*
X16005D01*
X13973Y390587D01*
X34287Y388556D02*
X26161D01*
X34287Y396681D01*
Y398713D01*
X32255Y400744D01*
X28193D01*
X26161Y398713D01*
X240030Y524763D02*
X237999Y526794D01*
X233936D01*
X231905Y524763D01*
Y522731D01*
X233936Y520700D01*
X237999D01*
X240030Y518669D01*
Y516637D01*
X237999Y514606D01*
X233936D01*
X231905Y516637D01*
X244093Y514606D02*
X248155D01*
X246124D01*
Y526794D01*
X244093Y524763D01*
X43438Y166306D02*
Y178494D01*
X49532D01*
X51564Y176463D01*
Y172400D01*
X49532Y170369D01*
X43438D01*
X47501D02*
X51564Y166306D01*
X55626D02*
X59689D01*
X57658D01*
Y178494D01*
X55626Y176463D01*
X65783Y166306D02*
X69846D01*
X67814D01*
Y178494D01*
X65783Y176463D01*
X6355Y185356D02*
Y197544D01*
X12449D01*
X14480Y195513D01*
Y191450D01*
X12449Y189419D01*
X6355D01*
X10418D02*
X14480Y185356D01*
X18543D02*
X22606D01*
X20574D01*
Y197544D01*
X18543Y195513D01*
X28700D02*
X30731Y197544D01*
X34794D01*
X36825Y195513D01*
Y187387D01*
X34794Y185356D01*
X30731D01*
X28700Y187387D01*
Y195513D01*
X434343Y299656D02*
Y311844D01*
X440437D01*
X442469Y309813D01*
Y305750D01*
X440437Y303719D01*
X434343D01*
X438406D02*
X442469Y299656D01*
X446531Y301687D02*
X448563Y299656D01*
X452625D01*
X454657Y301687D01*
Y309813D01*
X452625Y311844D01*
X448563D01*
X446531Y309813D01*
Y307781D01*
X448563Y305750D01*
X454657D01*
X237493Y415990D02*
Y428178D01*
X243587D01*
X245619Y426147D01*
Y422084D01*
X243587Y420053D01*
X237493D01*
X241556D02*
X245619Y415990D01*
X249681Y426147D02*
X251713Y428178D01*
X255775D01*
X257807Y426147D01*
Y424115D01*
X255775Y422084D01*
X257807Y420053D01*
Y418021D01*
X255775Y415990D01*
X251713D01*
X249681Y418021D01*
Y420053D01*
X251713Y422084D01*
X249681Y424115D01*
Y426147D01*
X251713Y422084D02*
X255775D01*
X434343Y388556D02*
Y400744D01*
X440437D01*
X442469Y398713D01*
Y394650D01*
X440437Y392619D01*
X434343D01*
X438406D02*
X442469Y388556D01*
X446531Y400744D02*
X454657D01*
Y398713D01*
X446531Y390587D01*
Y388556D01*
X561343Y363156D02*
Y375344D01*
X567437D01*
X569469Y373313D01*
Y369250D01*
X567437Y367219D01*
X561343D01*
X565406D02*
X569469Y363156D01*
X581657Y375344D02*
X577594Y373313D01*
X573531Y369250D01*
Y365187D01*
X575563Y363156D01*
X579625D01*
X581657Y365187D01*
Y367219D01*
X579625Y369250D01*
X573531D01*
X561343Y286956D02*
Y299144D01*
X567437D01*
X569469Y297113D01*
Y293050D01*
X567437Y291019D01*
X561343D01*
X565406D02*
X569469Y286956D01*
X581657Y299144D02*
X573531D01*
Y293050D01*
X577594Y295081D01*
X579625D01*
X581657Y293050D01*
Y288987D01*
X579625Y286956D01*
X575563D01*
X573531Y288987D01*
X59439Y490410D02*
Y502598D01*
X65533D01*
X67565Y500567D01*
Y496504D01*
X65533Y494473D01*
X59439D01*
X63502D02*
X67565Y490410D01*
X77721D02*
Y502598D01*
X71627Y496504D01*
X79753D01*
X132083Y135826D02*
Y148014D01*
X138177D01*
X140209Y145983D01*
Y141920D01*
X138177Y139889D01*
X132083D01*
X136146D02*
X140209Y135826D01*
X144271Y145983D02*
X146303Y148014D01*
X150365D01*
X152397Y145983D01*
Y143951D01*
X150365Y141920D01*
X148334D01*
X150365D01*
X152397Y139889D01*
Y137857D01*
X150365Y135826D01*
X146303D01*
X144271Y137857D01*
X177803Y135826D02*
Y148014D01*
X183897D01*
X185929Y145983D01*
Y141920D01*
X183897Y139889D01*
X177803D01*
X181866D02*
X185929Y135826D01*
X198117D02*
X189991D01*
X198117Y143951D01*
Y145983D01*
X196085Y148014D01*
X192023D01*
X189991Y145983D01*
X223015Y135826D02*
Y148014D01*
X229109D01*
X231140Y145983D01*
Y141920D01*
X229109Y139889D01*
X223015D01*
X227077D02*
X231140Y135826D01*
X235203D02*
X239265D01*
X237234D01*
Y148014D01*
X235203Y145983D01*
X86869Y517587D02*
Y525713D01*
X84837Y527744D01*
X80775D01*
X78743Y525713D01*
Y517587D01*
X80775Y515556D01*
X84837D01*
X82806Y519619D02*
X86869Y515556D01*
X84837D02*
X86869Y517587D01*
X97025Y515556D02*
Y527744D01*
X90931Y521650D01*
X99057D01*
X97029Y120077D02*
Y128203D01*
X94997Y130234D01*
X90935D01*
X88903Y128203D01*
Y120077D01*
X90935Y118046D01*
X94997D01*
X92966Y122109D02*
X97029Y118046D01*
X94997D02*
X97029Y120077D01*
X101091Y128203D02*
X103123Y130234D01*
X107185D01*
X109217Y128203D01*
Y126171D01*
X107185Y124140D01*
X105154D01*
X107185D01*
X109217Y122109D01*
Y120077D01*
X107185Y118046D01*
X103123D01*
X101091Y120077D01*
X140209D02*
Y128203D01*
X138177Y130234D01*
X134115D01*
X132083Y128203D01*
Y120077D01*
X134115Y118046D01*
X138177D01*
X136146Y122109D02*
X140209Y118046D01*
X138177D02*
X140209Y120077D01*
X152397Y118046D02*
X144271D01*
X152397Y126171D01*
Y128203D01*
X150365Y130234D01*
X146303D01*
X144271Y128203D01*
X185420Y120077D02*
Y128203D01*
X183389Y130234D01*
X179326D01*
X177295Y128203D01*
Y120077D01*
X179326Y118046D01*
X183389D01*
X181357Y122109D02*
X185420Y118046D01*
X183389D02*
X185420Y120077D01*
X189483Y118046D02*
X193545D01*
X191514D01*
Y130234D01*
X189483Y128203D01*
X93219Y470594D02*
X89156D01*
X91187D01*
Y460437D01*
X89156Y458406D01*
X87125D01*
X85093Y460437D01*
X97281Y468563D02*
X99313Y470594D01*
X103375D01*
X105407Y468563D01*
Y466531D01*
X103375Y464500D01*
X105407Y462469D01*
Y460437D01*
X103375Y458406D01*
X99313D01*
X97281Y460437D01*
Y462469D01*
X99313Y464500D01*
X97281Y466531D01*
Y468563D01*
X99313Y464500D02*
X103375D01*
X525019Y522144D02*
X520956D01*
X522987D01*
Y511987D01*
X520956Y509956D01*
X518925D01*
X516893Y511987D01*
X529081Y522144D02*
X537207D01*
Y520113D01*
X529081Y511987D01*
Y509956D01*
X569469Y216594D02*
X565406D01*
X567437D01*
Y206437D01*
X565406Y204406D01*
X563375D01*
X561343Y206437D01*
X581657Y216594D02*
X577594Y214563D01*
X573531Y210500D01*
Y206437D01*
X575563Y204406D01*
X579625D01*
X581657Y206437D01*
Y208469D01*
X579625Y210500D01*
X573531D01*
X563119Y464244D02*
X559056D01*
X561087D01*
Y454087D01*
X559056Y452056D01*
X557025D01*
X554993Y454087D01*
X575307Y464244D02*
X567181D01*
Y458150D01*
X571244Y460181D01*
X573275D01*
X575307Y458150D01*
Y454087D01*
X573275Y452056D01*
X569213D01*
X567181Y454087D01*
X81789Y23554D02*
X77726D01*
X79757D01*
Y13397D01*
X77726Y11366D01*
X75695D01*
X73663Y13397D01*
X91945Y11366D02*
Y23554D01*
X85851Y17460D01*
X93977D01*
X547875Y128200D02*
X543813D01*
X545844D01*
Y118043D01*
X543813Y116012D01*
X541781D01*
X539750Y118043D01*
X551938Y126169D02*
X553969Y128200D01*
X558032D01*
X560063Y126169D01*
Y124137D01*
X558032Y122106D01*
X556001D01*
X558032D01*
X560063Y120075D01*
Y118043D01*
X558032Y116012D01*
X553969D01*
X551938Y118043D01*
X474215Y97720D02*
X470153D01*
X472184D01*
Y87563D01*
X470153Y85532D01*
X468121D01*
X466090Y87563D01*
X486403Y85532D02*
X478278D01*
X486403Y93657D01*
Y95689D01*
X484372Y97720D01*
X480309D01*
X478278Y95689D01*
X237233Y97720D02*
X233171D01*
X235202D01*
Y87563D01*
X233171Y85532D01*
X231139D01*
X229108Y87563D01*
X241296Y85532D02*
X245359D01*
X243327D01*
Y97720D01*
X241296Y95689D01*
X242065Y459164D02*
Y446976D01*
X248159D01*
X250190Y449007D01*
Y457133D01*
X248159Y459164D01*
X242065D01*
X254253Y446976D02*
X258315D01*
X256284D01*
Y459164D01*
X254253Y457133D01*
X242598Y405474D02*
X240566Y407505D01*
X236504D01*
X234472Y405474D01*
Y397348D01*
X236504Y395317D01*
X240566D01*
X242598Y397348D01*
X246660Y395317D02*
X250723D01*
X248692D01*
Y407505D01*
X246660Y405474D01*
X256817Y395317D02*
X260880D01*
X258848D01*
Y407505D01*
X256817Y405474D01*
X361190Y508253D02*
X359159Y510284D01*
X355096D01*
X353065Y508253D01*
Y500127D01*
X355096Y498096D01*
X359159D01*
X361190Y500127D01*
X365253Y498096D02*
X369316D01*
X367284D01*
Y510284D01*
X365253Y508253D01*
X375410D02*
X377441Y510284D01*
X381504D01*
X383535Y508253D01*
Y500127D01*
X381504Y498096D01*
X377441D01*
X375410Y500127D01*
Y508253D01*
X245645Y265774D02*
X243613Y267805D01*
X239551D01*
X237519Y265774D01*
Y257648D01*
X239551Y255617D01*
X243613D01*
X245645Y257648D01*
X249708D02*
X251739Y255617D01*
X255802D01*
X257833Y257648D01*
Y265774D01*
X255802Y267805D01*
X251739D01*
X249708Y265774D01*
Y263742D01*
X251739Y261711D01*
X257833D01*
X241809Y229297D02*
X239777Y231328D01*
X235715D01*
X233683Y229297D01*
Y221171D01*
X235715Y219140D01*
X239777D01*
X241809Y221171D01*
X245871Y229297D02*
X247903Y231328D01*
X251965D01*
X253997Y229297D01*
Y227265D01*
X251965Y225234D01*
X253997Y223203D01*
Y221171D01*
X251965Y219140D01*
X247903D01*
X245871Y221171D01*
Y223203D01*
X247903Y225234D01*
X245871Y227265D01*
Y229297D01*
X247903Y225234D02*
X251965D01*
X315469Y459673D02*
X313437Y461704D01*
X309375D01*
X307343Y459673D01*
Y451547D01*
X309375Y449516D01*
X313437D01*
X315469Y451547D01*
X319531Y461704D02*
X327657D01*
Y459673D01*
X319531Y451547D01*
Y449516D01*
X474219Y373313D02*
X472187Y375344D01*
X468125D01*
X466093Y373313D01*
Y365187D01*
X468125Y363156D01*
X472187D01*
X474219Y365187D01*
X486407Y375344D02*
X482344Y373313D01*
X478281Y369250D01*
Y365187D01*
X480313Y363156D01*
X484375D01*
X486407Y365187D01*
Y367219D01*
X484375Y369250D01*
X478281D01*
X450597Y354519D02*
X448566Y352487D01*
Y348425D01*
X450597Y346393D01*
X458723D01*
X460754Y348425D01*
Y352487D01*
X458723Y354519D01*
X448566Y366707D02*
Y358581D01*
X454660D01*
X452629Y362644D01*
Y364675D01*
X454660Y366707D01*
X458723D01*
X460754Y364675D01*
Y360613D01*
X458723Y358581D01*
X455169Y239963D02*
X453137Y241994D01*
X449075D01*
X447043Y239963D01*
Y231837D01*
X449075Y229806D01*
X453137D01*
X455169Y231837D01*
X465325Y229806D02*
Y241994D01*
X459231Y235900D01*
X467357D01*
X245619Y301687D02*
X243587Y303718D01*
X239525D01*
X237493Y301687D01*
Y293561D01*
X239525Y291530D01*
X243587D01*
X245619Y293561D01*
X249681Y301687D02*
X251713Y303718D01*
X255775D01*
X257807Y301687D01*
Y299655D01*
X255775Y297624D01*
X253744D01*
X255775D01*
X257807Y295593D01*
Y293561D01*
X255775Y291530D01*
X251713D01*
X249681Y293561D01*
X245645Y322924D02*
X243613Y324955D01*
X239551D01*
X237519Y322924D01*
Y314798D01*
X239551Y312767D01*
X243613D01*
X245645Y314798D01*
X257833Y312767D02*
X249708D01*
X257833Y320892D01*
Y322924D01*
X255802Y324955D01*
X251739D01*
X249708Y322924D01*
X609600Y335213D02*
X607569Y337244D01*
X603506D01*
X601475Y335213D01*
Y327087D01*
X603506Y325056D01*
X607569D01*
X609600Y327087D01*
X613663Y325056D02*
X617725D01*
X615694D01*
Y337244D01*
X613663Y335213D01*
X183901Y510284D02*
Y498096D01*
X189995D01*
X192026Y500127D01*
Y502159D01*
X189995Y504190D01*
X183901D01*
X189995D01*
X192026Y506221D01*
Y508253D01*
X189995Y510284D01*
X183901D01*
X196089D02*
X204214D01*
Y508253D01*
X196089Y500127D01*
Y498096D01*
X204214D01*
X208277D02*
X212339D01*
X210308D01*
Y510284D01*
X208277Y508253D01*
M02*
