G04*
G04 #@! TF.GenerationSoftware,Altium Limited,Altium Designer,23.3.1 (30)*
G04*
G04 Layer_Color=32639*
%FSLAX44Y44*%
%MOMM*%
G71*
G04*
G04 #@! TF.SameCoordinates,21713941-C728-493B-82DC-0AA0DF36458C*
G04*
G04*
G04 #@! TF.FilePolarity,Negative*
G04*
G01*
G75*
%ADD54C,2.2032*%
%ADD55C,1.9812*%
%ADD56C,1.5032*%
%ADD57C,5.2832*%
%ADD58C,1.7780*%
%ADD59R,1.7780X1.7780*%
%ADD60R,2.2032X2.2032*%
%ADD61R,2.2032X2.2032*%
%ADD62O,1.8032X2.4532*%
%ADD63R,1.8032X2.4532*%
%ADD64C,1.7018*%
%ADD65O,1.9558X1.2700*%
%ADD66C,1.3970*%
%ADD67C,0.7112*%
%ADD68C,1.4732*%
D54*
X626200Y20000D02*
D03*
X600800D02*
D03*
X575400D02*
D03*
X550000D02*
D03*
X524600D02*
D03*
X499200D02*
D03*
X20579Y748081D02*
D03*
Y722681D02*
D03*
Y697281D02*
D03*
Y671881D02*
D03*
Y646481D02*
D03*
Y621081D02*
D03*
Y595681D02*
D03*
Y570281D02*
D03*
Y544881D02*
D03*
Y519481D02*
D03*
Y494081D02*
D03*
X456343Y754041D02*
D03*
Y728641D02*
D03*
Y703241D02*
D03*
Y677841D02*
D03*
Y652441D02*
D03*
Y627041D02*
D03*
Y601641D02*
D03*
Y576241D02*
D03*
Y550841D02*
D03*
Y525441D02*
D03*
Y500041D02*
D03*
X893300Y332500D02*
D03*
X867900D02*
D03*
X842500D02*
D03*
X817100D02*
D03*
X791700D02*
D03*
X766300D02*
D03*
X740900D02*
D03*
X715500D02*
D03*
X690100D02*
D03*
X664700D02*
D03*
X639300D02*
D03*
X790000Y70000D02*
D03*
D55*
X940000Y101154D02*
D03*
X965400D02*
D03*
X940000Y126554D02*
D03*
X965400D02*
D03*
X940000Y151954D02*
D03*
X965400D02*
D03*
X940000Y177354D02*
D03*
X965400D02*
D03*
X940000Y202754D02*
D03*
X965400D02*
D03*
X940000Y228154D02*
D03*
X965400D02*
D03*
X940000Y253554D02*
D03*
X965400D02*
D03*
X940000Y278954D02*
D03*
X965400D02*
D03*
X940000Y304354D02*
D03*
X965400D02*
D03*
X940000Y329754D02*
D03*
X965400D02*
D03*
X940000Y355154D02*
D03*
X965400D02*
D03*
X940000Y380554D02*
D03*
X965400D02*
D03*
X940000Y405954D02*
D03*
X965400D02*
D03*
X940000Y431354D02*
D03*
X965400D02*
D03*
X940000Y456754D02*
D03*
X965400D02*
D03*
X940000Y482154D02*
D03*
X965400D02*
D03*
X940000Y507554D02*
D03*
X965400D02*
D03*
X940000Y532954D02*
D03*
X965400D02*
D03*
X940000Y558354D02*
D03*
X965400D02*
D03*
X940000Y583754D02*
D03*
X965400D02*
D03*
D56*
X1050411Y766475D02*
D03*
Y703975D02*
D03*
D57*
X83000Y37500D02*
D03*
X855000D02*
D03*
X83000Y661500D02*
D03*
D58*
X795400Y520000D02*
D03*
Y494600D02*
D03*
X770000Y520000D02*
D03*
Y494600D02*
D03*
X744600Y520000D02*
D03*
D59*
Y494600D02*
D03*
D60*
X20579Y468681D02*
D03*
X456343Y474641D02*
D03*
D61*
X613900Y332500D02*
D03*
D62*
X567450Y700060D02*
D03*
Y640060D02*
D03*
D63*
X592850Y700060D02*
D03*
Y640060D02*
D03*
D64*
X709600Y68990D02*
D03*
D65*
X33000Y230000D02*
D03*
Y300000D02*
D03*
D66*
X60000Y240000D02*
D03*
Y290000D02*
D03*
D67*
X367500Y430000D02*
D03*
X372500Y422500D02*
D03*
X353060Y420279D02*
D03*
X162560Y441960D02*
D03*
X172720Y436880D02*
D03*
Y449580D02*
D03*
X162560Y457200D02*
D03*
Y467360D02*
D03*
X172720D02*
D03*
X258486Y482600D02*
D03*
X172720Y477520D02*
D03*
X162560Y490220D02*
D03*
Y500380D02*
D03*
Y510540D02*
D03*
X175260D02*
D03*
X327806Y360890D02*
D03*
X271658Y409082D02*
D03*
X196332Y421575D02*
D03*
X248920Y281940D02*
D03*
X252730Y237490D02*
D03*
X153124Y684654D02*
D03*
X519434Y668541D02*
D03*
X924089Y406304D02*
D03*
X908908Y434302D02*
D03*
X914400Y480060D02*
D03*
X918865Y376800D02*
D03*
X907233Y383046D02*
D03*
X924560Y386080D02*
D03*
X531943Y395531D02*
D03*
X918930Y396883D02*
D03*
X155815Y634142D02*
D03*
X230000Y670000D02*
D03*
X210000Y650000D02*
D03*
X196501Y518111D02*
D03*
X250000Y510000D02*
D03*
X120000Y650000D02*
D03*
X283158Y298662D02*
D03*
X275088Y303575D02*
D03*
X980000Y717500D02*
D03*
X828829Y720109D02*
D03*
X387500Y620000D02*
D03*
Y562500D02*
D03*
X390000Y550000D02*
D03*
X380000Y410000D02*
D03*
X675000Y632500D02*
D03*
X692500Y702500D02*
D03*
X690000Y690000D02*
D03*
X705281Y682050D02*
D03*
X827500Y792500D02*
D03*
X608000Y787000D02*
D03*
X837498Y587499D02*
D03*
X829998Y644999D02*
D03*
X857500Y692500D02*
D03*
X572500Y444920D02*
D03*
X642282Y457262D02*
D03*
X562610Y445190D02*
D03*
X524778Y390576D02*
D03*
X514839Y410074D02*
D03*
X530728Y384538D02*
D03*
X373102Y667495D02*
D03*
X367030Y658685D02*
D03*
X295910Y431545D02*
D03*
X279400Y425195D02*
D03*
X414999Y469999D02*
D03*
X437499D02*
D03*
X346710Y503920D02*
D03*
X360000Y515000D02*
D03*
X129820Y651631D02*
D03*
X134620Y572770D02*
D03*
X162500Y614999D02*
D03*
X162192Y643039D02*
D03*
X857500Y727500D02*
D03*
X849558Y706844D02*
D03*
X872182Y720874D02*
D03*
X826647Y682090D02*
D03*
X850000Y612500D02*
D03*
X897500Y532500D02*
D03*
X895000Y477500D02*
D03*
X697500Y490000D02*
D03*
X705000Y482500D02*
D03*
X649754Y477690D02*
D03*
X712500Y472500D02*
D03*
X720000Y540000D02*
D03*
X692500Y360000D02*
D03*
X673633Y236958D02*
D03*
X706223Y247007D02*
D03*
X726448Y242493D02*
D03*
X750000Y237500D02*
D03*
X792500Y260000D02*
D03*
X782500Y257500D02*
D03*
X785714Y216981D02*
D03*
X902500Y442500D02*
D03*
X887500Y274669D02*
D03*
X459000Y249000D02*
D03*
X427000Y241000D02*
D03*
X169438Y38016D02*
D03*
X365000Y262500D02*
D03*
X608000Y727000D02*
D03*
X593827Y793130D02*
D03*
X593000Y728000D02*
D03*
X516250Y678195D02*
D03*
X446000Y335000D02*
D03*
X358000Y67000D02*
D03*
X367000Y206000D02*
D03*
X385000Y583000D02*
D03*
X478000Y439000D02*
D03*
X499480Y427915D02*
D03*
X393067Y468461D02*
D03*
X411554Y363779D02*
D03*
X406320Y375918D02*
D03*
X412640Y272398D02*
D03*
X396000Y232000D02*
D03*
X418999Y235000D02*
D03*
X308000Y173000D02*
D03*
X330061Y390000D02*
D03*
X874000Y631000D02*
D03*
X857190Y541000D02*
D03*
X868000Y527000D02*
D03*
X859000Y712000D02*
D03*
X615174Y608848D02*
D03*
X645000Y629000D02*
D03*
X671000Y610000D02*
D03*
X634000Y595000D02*
D03*
X927709Y617709D02*
D03*
X696000Y713000D02*
D03*
X981000Y747000D02*
D03*
X408210Y632460D02*
D03*
X382523Y669036D02*
D03*
X369570Y699770D02*
D03*
X993140Y787400D02*
D03*
X96790Y558800D02*
D03*
X160020Y547370D02*
D03*
X269240Y419100D02*
D03*
X124065Y586054D02*
D03*
X135890Y623570D02*
D03*
X118650Y596900D02*
D03*
X186690Y519430D02*
D03*
X125208Y663237D02*
D03*
X203861Y550571D02*
D03*
X210820Y571500D02*
D03*
X417830Y631190D02*
D03*
X436880Y556260D02*
D03*
X298812Y400003D02*
D03*
X297069Y390267D02*
D03*
X238199Y37733D02*
D03*
X189230Y123190D02*
D03*
D68*
X76971Y298084D02*
D03*
X119674Y705236D02*
D03*
X111891Y452917D02*
D03*
X407499Y687499D02*
D03*
X690000Y542500D02*
D03*
X142261Y153085D02*
D03*
X82500Y467500D02*
D03*
X128520Y64174D02*
D03*
X273050Y87630D02*
D03*
X256857Y61178D02*
D03*
X611000Y300000D02*
D03*
X372000Y164000D02*
D03*
X312513Y281783D02*
D03*
X231000Y167910D02*
D03*
X176000Y152000D02*
D03*
X269814Y175102D02*
D03*
X659000Y741000D02*
D03*
X318770Y698500D02*
D03*
X163830Y252730D02*
D03*
X100036Y198996D02*
D03*
M02*
