G04*
G04 #@! TF.GenerationSoftware,Altium Limited,Altium Designer,23.3.1 (30)*
G04*
G04 Layer_Color=8454143*
%FSLAX44Y44*%
%MOMM*%
G71*
G04*
G04 #@! TF.SameCoordinates,21713941-C728-493B-82DC-0AA0DF36458C*
G04*
G04*
G04 #@! TF.FilePolarity,Positive*
G04*
G01*
G75*
%ADD10C,0.1524*%
%ADD11C,0.0000*%
%ADD12C,0.5080*%
%ADD13C,0.2000*%
%ADD14C,0.2540*%
%ADD15C,0.1500*%
%ADD16C,0.1270*%
%ADD17C,0.1000*%
%ADD18C,0.2032*%
G36*
X32879Y454081D02*
Y463081D01*
X23879Y454081D01*
X32879D01*
D02*
G37*
G36*
X334466Y363457D02*
X330656D01*
Y360917D01*
X334466D01*
Y363457D01*
D02*
G37*
G36*
X339467Y416543D02*
X335657D01*
Y419083D01*
X339467D01*
Y416543D01*
D02*
G37*
G36*
X599300Y320200D02*
X608300D01*
X599300Y329200D01*
Y320200D01*
D02*
G37*
G36*
X468643Y460041D02*
Y469041D01*
X459643Y460041D01*
X468643D01*
D02*
G37*
G36*
X608150Y627360D02*
X604750D01*
Y629060D01*
X606750Y631060D01*
X608150D01*
Y627360D01*
D02*
G37*
G36*
Y687360D02*
X604750D01*
Y689060D01*
X606750Y691060D01*
X608150D01*
Y687360D01*
D02*
G37*
D10*
X226307Y404153D02*
G03*
X226307Y404153I-762J0D01*
G01*
X334767Y192939D02*
G03*
X334767Y192939I-762J0D01*
G01*
X160072Y403869D02*
G03*
X160072Y403869I-762J0D01*
G01*
X522859Y292227D02*
G03*
X522859Y292227I-1270J0D01*
G01*
X234773Y289230D02*
G03*
X234773Y289230I-1270J0D01*
G01*
X351270Y407101D02*
Y411209D01*
X347161Y368791D02*
X351270D01*
X308852D02*
Y372900D01*
Y407101D02*
Y411209D01*
X347161D02*
X351270D01*
Y368791D02*
Y372900D01*
X308852Y368791D02*
X312960D01*
X308852Y411209D02*
X312960D01*
X252977Y399628D02*
Y403793D01*
X247561Y418678D02*
X252977D01*
Y414512D02*
Y418678D01*
X247561Y399628D02*
X252977D01*
X327241Y227483D02*
X337884D01*
X340126Y210719D02*
X347884D01*
X360769D02*
Y227483D01*
X350126D02*
X360769D01*
X327241Y210719D02*
Y227483D01*
X186742Y399344D02*
Y403510D01*
X181326Y418394D02*
X186742D01*
Y414228D02*
Y418394D01*
X181326Y399344D02*
X186742D01*
X500761Y303657D02*
X516699D01*
X500761Y320319D02*
Y326263D01*
X516699D01*
X520319Y313819D02*
Y316101D01*
X500761Y303657D02*
Y309601D01*
X265380Y274537D02*
Y277800D01*
X236932Y274537D02*
Y277800D01*
Y229286D02*
X265380D01*
Y232548D01*
X236932Y277800D02*
X265380D01*
X236932Y259918D02*
Y262548D01*
Y244537D02*
Y247167D01*
Y229286D02*
Y232548D01*
X270673Y155408D02*
X289215D01*
Y136282D02*
Y143039D01*
X270673Y123912D02*
X289215D01*
X329922Y526885D02*
X356313D01*
Y720472D02*
Y784441D01*
X173687Y526885D02*
Y539827D01*
Y720472D02*
Y784441D01*
X356313D01*
Y526885D02*
Y539827D01*
X173687Y526885D02*
X200077D01*
X683281Y32378D02*
Y57709D01*
X834919Y102011D02*
Y157646D01*
X683281Y32378D02*
X834919D01*
Y57709D01*
X809984Y183000D02*
X824764D01*
X683281Y102011D02*
Y157646D01*
X43796Y223725D02*
X65770D01*
X6334Y306275D02*
X22204D01*
X65770Y298547D02*
Y306275D01*
X43796D02*
X65770D01*
Y223725D02*
Y231453D01*
X6334Y223725D02*
X22204D01*
X6334D02*
Y306275D01*
X94323Y118280D02*
Y121720D01*
Y138280D02*
Y160767D01*
X42398D02*
X94323D01*
Y79233D02*
Y101720D01*
X42398Y79233D02*
X94323D01*
X5677Y97320D02*
Y142680D01*
X178788Y210795D02*
X209268D01*
X178788Y189205D02*
X209268D01*
X239623Y188024D02*
X270103D01*
X239623Y209614D02*
X270103D01*
X688350Y217649D02*
Y222346D01*
X697494Y217649D02*
Y222346D01*
X755428Y218621D02*
Y223317D01*
X764572Y218621D02*
Y223317D01*
X710428Y217652D02*
Y222348D01*
X719572Y217652D02*
Y222348D01*
X732928Y218621D02*
Y223317D01*
X742072Y218621D02*
Y223317D01*
X86868Y287212D02*
Y291908D01*
X96012Y287212D02*
Y291908D01*
X88040Y243117D02*
Y247814D01*
X78896Y243117D02*
Y247814D01*
D11*
X704500Y763900D02*
G03*
X704500Y763900I-2000J0D01*
G01*
D12*
X164861Y715596D02*
G03*
X164861Y709804I2475J-2896D01*
G01*
X796285Y182398D02*
G03*
X796285Y176622I-2485J-2888D01*
G01*
X63810Y312625D02*
G03*
X63810Y312625I-3810J0D01*
G01*
D13*
X955052Y699979D02*
G03*
X955052Y699979I-1000J0D01*
G01*
X310063Y35156D02*
G03*
X310063Y35156I-1000J0D01*
G01*
X33531Y395000D02*
G03*
X33531Y395000I-1000J0D01*
G01*
X203368Y35404D02*
G03*
X203368Y35404I-1000J0D01*
G01*
X608150Y691060D02*
G03*
X604750Y687660I0J-3400D01*
G01*
X608150Y631060D02*
G03*
X604750Y627660I0J-3400D01*
G01*
X668110Y7300D02*
Y210500D01*
X389980Y7300D02*
X668110D01*
X389980Y210500D02*
X668110D01*
X389980Y7300D02*
Y210500D01*
X956052Y695229D02*
X961552Y699979D01*
X966552Y689979D02*
Y709979D01*
X961552Y699979D02*
X966552D01*
X949052D02*
X954052D01*
X949052Y689979D02*
Y709979D01*
X971802Y687979D02*
Y711979D01*
X943802Y687979D02*
Y711979D01*
X1020411Y778725D02*
X1050411D01*
X1020411Y691725D02*
X1050411D01*
Y717725D02*
X1070411D01*
Y732725D01*
X1050411D02*
X1070411D01*
X1020411Y691725D02*
Y697225D01*
Y753225D02*
Y778725D01*
X1050411Y691725D02*
Y694725D01*
Y713225D02*
Y717725D01*
Y732725D02*
Y757225D01*
Y775725D02*
Y778725D01*
X309063Y42656D02*
X313813Y37156D01*
X299063Y47656D02*
X319063D01*
X309063Y42656D02*
Y47656D01*
Y30156D02*
Y35156D01*
X299063Y30156D02*
X319063D01*
X297063Y52906D02*
X321063D01*
X297063Y24906D02*
X321063D01*
X25031Y395000D02*
X30531Y399750D01*
X20031Y385000D02*
Y405000D01*
Y395000D02*
X25031D01*
X32531D02*
X37531D01*
Y385000D02*
Y405000D01*
X14782Y383000D02*
Y407000D01*
X42781Y383000D02*
Y407000D01*
X202369Y42904D02*
X207118Y37404D01*
X192369Y47904D02*
X212369D01*
X202369Y42904D02*
Y47904D01*
Y30404D02*
Y35404D01*
X192369Y30404D02*
X212369D01*
X190368Y53154D02*
X214368D01*
X190368Y25154D02*
X214368D01*
X7879Y454381D02*
X33279D01*
X7879D02*
Y762381D01*
X33279D01*
Y454381D02*
Y762381D01*
X443643Y460341D02*
X469043D01*
X443643D02*
Y768341D01*
X469043D01*
Y460341D02*
Y768341D01*
X599600Y319800D02*
Y345200D01*
X907600D01*
Y319800D02*
Y345200D01*
X599600Y319800D02*
X907600D01*
X552150Y687360D02*
X608150D01*
X552150D02*
Y712760D01*
X608150D01*
Y687360D02*
Y712760D01*
X604750Y687360D02*
Y687660D01*
X552150Y627360D02*
X608150D01*
X552150D02*
Y652760D01*
X608150D01*
Y627360D02*
Y652760D01*
X604750Y627360D02*
Y627660D01*
X122000Y167750D02*
X138000D01*
X122000Y182250D02*
X138000D01*
X855141Y554112D02*
Y561112D01*
Y580112D02*
Y587112D01*
X898141Y549112D02*
Y561112D01*
Y580112D02*
Y592112D01*
X855141Y554112D02*
X860141Y549112D01*
X855141Y587112D02*
X860141Y592112D01*
Y549112D02*
X898141D01*
X860141Y592112D02*
X898141D01*
X638500Y548500D02*
X676500D01*
X638500Y591500D02*
X676500D01*
Y548500D02*
X681500Y553500D01*
X676500Y591500D02*
X681500Y586500D01*
X638500Y548500D02*
Y560500D01*
Y579500D02*
Y591500D01*
X681500Y553500D02*
Y560500D01*
Y579500D02*
Y586500D01*
X638500Y738500D02*
X676500D01*
X638500Y781500D02*
X676500D01*
Y738500D02*
X681500Y743500D01*
X676500Y781500D02*
X681500Y776500D01*
X638500Y738500D02*
Y750500D01*
Y769500D02*
Y781500D01*
X681500Y743500D02*
Y750500D01*
Y769500D02*
Y776500D01*
X853530Y743996D02*
Y750996D01*
Y769996D02*
Y776996D01*
X896530Y738996D02*
Y750996D01*
Y769996D02*
Y781996D01*
X853530Y743996D02*
X858530Y738996D01*
X853530Y776996D02*
X858530Y781996D01*
Y738996D02*
X896530D01*
X858530Y781996D02*
X896530D01*
X589912Y556680D02*
X596912D01*
X563913D02*
X570913D01*
X589912Y599680D02*
X601912D01*
X558913D02*
X570913D01*
X596912Y556680D02*
X601912Y561680D01*
X558913D02*
X563913Y556680D01*
X601912Y561680D02*
Y599680D01*
X558913Y561680D02*
Y599680D01*
D14*
X731900Y488250D02*
X738250Y481900D01*
X731900Y488250D02*
Y532700D01*
X738250Y481900D02*
X808100D01*
X978100Y88454D02*
Y596454D01*
X927300Y88454D02*
X978100D01*
X927300D02*
Y596454D01*
X978100D01*
X808100Y481900D02*
Y532700D01*
X731900D02*
X808100D01*
D15*
X358583Y27058D02*
X360333D01*
Y51058D01*
X358583D02*
X360333D01*
X347833D02*
X349583D01*
X347833Y27058D02*
Y51058D01*
Y27058D02*
X349583D01*
X347833Y39058D02*
X360333D01*
X71281Y333514D02*
X73031D01*
X71281Y309514D02*
Y333514D01*
Y309514D02*
X73031D01*
X82031D02*
X83781D01*
Y333514D01*
X82031D02*
X83781D01*
X71281Y321514D02*
X83781D01*
X186842Y219626D02*
Y233626D01*
X199543Y219626D02*
Y221546D01*
X174142Y219626D02*
X199543D01*
X174142D02*
Y221546D01*
Y231706D02*
Y233626D01*
X199543D01*
Y231706D02*
Y233626D01*
X214212Y249221D02*
X215962D01*
Y273221D01*
X214212D02*
X215962D01*
X203462D02*
X205212D01*
X203462Y249221D02*
Y273221D01*
Y249221D02*
X205212D01*
X203462Y261221D02*
X215962D01*
X349080Y246800D02*
X351000D01*
Y272200D01*
X349080D02*
X351000D01*
X337000D02*
X338920D01*
X337000Y246800D02*
Y272200D01*
Y246800D02*
X338920D01*
X337000Y259500D02*
X351000D01*
X135080Y24800D02*
X137000D01*
Y50200D01*
X135080D02*
X137000D01*
X123000D02*
X124920D01*
X123000Y24800D02*
Y50200D01*
Y24800D02*
X124920D01*
X123000Y37500D02*
X137000D01*
X973002Y649357D02*
Y651277D01*
X947602D02*
X973002D01*
X947602Y649357D02*
Y651277D01*
Y637277D02*
Y639197D01*
Y637277D02*
X973002D01*
Y639197D01*
X960302Y637277D02*
Y651277D01*
X971645Y614116D02*
Y616036D01*
X946245D02*
X971645D01*
X946245Y614116D02*
Y616036D01*
Y602036D02*
Y603956D01*
Y602036D02*
X971645D01*
Y603956D01*
X958944Y602036D02*
Y616036D01*
X903296Y649357D02*
Y651277D01*
X877896D02*
X903296D01*
X877896Y649357D02*
Y651277D01*
Y637277D02*
Y639197D01*
Y637277D02*
X903296D01*
Y639197D01*
X890596Y637277D02*
Y651277D01*
X657134Y716705D02*
Y718625D01*
X631734D02*
X657134D01*
X631734Y716705D02*
Y718625D01*
Y704625D02*
Y706545D01*
Y704625D02*
X657134D01*
Y706545D01*
X644434Y704625D02*
Y718625D01*
X906376Y615533D02*
Y617453D01*
X880976D02*
X906376D01*
X880976Y615533D02*
Y617453D01*
Y603453D02*
Y605373D01*
Y603453D02*
X906376D01*
Y605373D01*
X893676Y603453D02*
Y617453D01*
X613424Y601967D02*
X615344D01*
X613424Y576567D02*
Y601967D01*
Y576567D02*
X615344D01*
X625504D02*
X627424D01*
Y601967D01*
X625504D02*
X627424D01*
X613424Y589267D02*
X627424D01*
X538000Y589700D02*
X539920D01*
X538000Y564300D02*
Y589700D01*
Y564300D02*
X539920D01*
X550080D02*
X552000D01*
Y589700D01*
X550080D02*
X552000D01*
X538000Y577000D02*
X552000D01*
X506080Y751800D02*
X508000D01*
Y777200D01*
X506080D02*
X508000D01*
X494000D02*
X495920D01*
X494000Y751800D02*
Y777200D01*
Y751800D02*
X495920D01*
X494000Y764500D02*
X508000D01*
X536080Y751800D02*
X538000D01*
Y777200D01*
X536080D02*
X538000D01*
X524000D02*
X525920D01*
X524000Y751800D02*
Y777200D01*
Y751800D02*
X525920D01*
X524000Y764500D02*
X538000D01*
X261421Y26358D02*
X263341D01*
Y51758D01*
X261421D02*
X263341D01*
X249341D02*
X251261D01*
X249341Y26358D02*
Y51758D01*
Y26358D02*
X251261D01*
X249341Y39058D02*
X263341D01*
X376324Y639967D02*
Y641887D01*
Y639967D02*
X401724D01*
Y641887D01*
Y652047D02*
Y653967D01*
X376324D02*
X401724D01*
X376324Y652047D02*
Y653967D01*
X389024Y639967D02*
Y653967D01*
X376324Y693132D02*
Y695052D01*
Y693132D02*
X401724D01*
Y695052D01*
Y705212D02*
Y707132D01*
X376324D02*
X401724D01*
X376324Y705212D02*
Y707132D01*
X389024Y693132D02*
Y707132D01*
X208280Y120000D02*
Y121920D01*
Y120000D02*
X233680D01*
Y121920D01*
Y132080D02*
Y134000D01*
X208280D02*
X233680D01*
X208280Y132080D02*
Y134000D01*
X220980Y120000D02*
Y134000D01*
X233698Y154044D02*
Y155964D01*
X208298D02*
X233698D01*
X208298Y154044D02*
Y155964D01*
Y141964D02*
Y143884D01*
Y141964D02*
X233698D01*
Y143884D01*
X220998Y141964D02*
Y155964D01*
X199543Y346404D02*
Y348325D01*
X174142D02*
X199543D01*
X174142Y346404D02*
Y348325D01*
Y334324D02*
Y336245D01*
Y334324D02*
X199543D01*
Y336245D01*
X186842Y334324D02*
Y348325D01*
X231021Y335075D02*
Y336995D01*
Y335075D02*
X256421D01*
Y336995D01*
Y347155D02*
Y349075D01*
X231021D02*
X256421D01*
X231021Y347155D02*
Y349075D01*
X243721Y335075D02*
Y349075D01*
X74917Y396296D02*
X76837D01*
Y421696D01*
X74917D02*
X76837D01*
X62837D02*
X64757D01*
X62837Y396296D02*
Y421696D01*
Y396296D02*
X64757D01*
X62837Y408996D02*
X76837D01*
X35586Y193467D02*
Y195387D01*
X10186D02*
X35586D01*
X10186Y193467D02*
Y195387D01*
Y181387D02*
Y183307D01*
Y181387D02*
X35586D01*
Y183307D01*
X22886Y181387D02*
Y195387D01*
X185923Y248716D02*
X187843D01*
Y274116D01*
X185923D02*
X187843D01*
X173843D02*
X175763D01*
X173843Y248716D02*
Y274116D01*
Y248716D02*
X175763D01*
X173843Y261416D02*
X187843D01*
X405747Y348830D02*
X407667D01*
X405747Y323430D02*
Y348830D01*
Y323430D02*
X407667D01*
X417827D02*
X419747D01*
Y348830D01*
X417827D02*
X419747D01*
X405747Y336130D02*
X419747D01*
X406014Y310128D02*
X407934D01*
X406014Y284728D02*
Y310128D01*
Y284728D02*
X407934D01*
X418094D02*
X420014D01*
Y310128D01*
X418094D02*
X420014D01*
X406014Y297428D02*
X420014D01*
X970423Y767595D02*
X973923D01*
X959923D02*
X963423D01*
X959923Y782835D02*
X961843D01*
X959923Y752595D02*
Y782835D01*
Y753625D02*
X964383D01*
X969463D02*
X973923D01*
Y752595D02*
Y782835D01*
X972003D02*
X973923D01*
X959923Y752355D02*
Y753625D01*
Y752355D02*
X964383D01*
Y753625D01*
X973923Y752355D02*
Y753625D01*
X969463Y752355D02*
X973923D01*
X969463D02*
Y753625D01*
X504500Y709015D02*
X508000D01*
X494000D02*
X497500D01*
X494000Y724255D02*
X495920D01*
X494000Y694015D02*
Y724255D01*
Y695045D02*
X498460D01*
X503540D02*
X508000D01*
Y694015D02*
Y724255D01*
X506080D02*
X508000D01*
X494000Y693775D02*
Y695045D01*
Y693775D02*
X498460D01*
Y695045D01*
X508000Y693775D02*
Y695045D01*
X503540Y693775D02*
X508000D01*
X503540D02*
Y695045D01*
X534500Y709210D02*
X538000D01*
X524000D02*
X527500D01*
X533540Y693970D02*
Y695240D01*
Y693970D02*
X538000D01*
Y695240D01*
X528460Y693970D02*
Y695240D01*
X524000Y693970D02*
X528460D01*
X524000D02*
Y695240D01*
X536080Y724450D02*
X538000D01*
Y694210D02*
Y724450D01*
X533540Y695240D02*
X538000D01*
X524000D02*
X528460D01*
X524000Y694210D02*
Y724450D01*
X525920D01*
X144405Y52687D02*
X146325D01*
X144405Y23447D02*
Y52687D01*
Y23477D02*
X148865D01*
X153945D02*
X158405D01*
Y22448D02*
Y52687D01*
X156485D02*
X158405D01*
X154905Y37447D02*
X158405D01*
X144405Y22207D02*
Y23477D01*
Y22207D02*
X148865D01*
Y23477D01*
X158405Y22207D02*
Y23477D01*
X153945Y22207D02*
X158405D01*
X153945D02*
Y23477D01*
X144405Y37447D02*
X147905D01*
X61597Y181387D02*
Y184887D01*
Y191887D02*
Y195387D01*
X76837Y193467D02*
Y195387D01*
X46597D02*
X76837D01*
X47627Y190927D02*
Y195387D01*
Y181387D02*
Y185847D01*
X46597Y181387D02*
X76837D01*
Y183307D01*
X643734Y671000D02*
Y683500D01*
X655734Y671000D02*
Y672750D01*
X631734Y671000D02*
X655734D01*
X631734D02*
Y672750D01*
Y681750D02*
Y683500D01*
X655734D01*
Y681750D02*
Y683500D01*
X891296Y704923D02*
Y717423D01*
X879296Y715673D02*
Y717423D01*
X903296D01*
Y715673D02*
Y717423D01*
Y704923D02*
Y706673D01*
X879296Y704923D02*
X903296D01*
X879296D02*
Y706673D01*
X891296Y671099D02*
Y683599D01*
X903296Y671099D02*
Y672849D01*
X879296Y671099D02*
X903296D01*
X879296D02*
Y672849D01*
Y681849D02*
Y683599D01*
X903296D01*
Y681849D02*
Y683599D01*
X741680Y565250D02*
Y577750D01*
X753680Y565250D02*
Y567000D01*
X729680Y565250D02*
X753680D01*
X729680D02*
Y567000D01*
Y576000D02*
Y577750D01*
X753680D01*
Y576000D02*
Y577750D01*
X643734Y603750D02*
Y616250D01*
X655734Y603750D02*
Y605500D01*
X631734Y603750D02*
X655734D01*
X631734D02*
Y605500D01*
Y614500D02*
Y616250D01*
X655734D01*
Y614500D02*
Y616250D01*
X643734Y637375D02*
Y649875D01*
X631734Y648125D02*
Y649875D01*
X655734D01*
Y648125D02*
Y649875D01*
Y637375D02*
Y639125D01*
X631734Y637375D02*
X655734D01*
X631734D02*
Y639125D01*
X132378Y705866D02*
X144878D01*
X143128Y717866D02*
X144878D01*
Y693866D02*
Y717866D01*
X143128Y693866D02*
X144878D01*
X132378D02*
X134128D01*
X132378D02*
Y717866D01*
X134128D01*
X389024Y600155D02*
Y612655D01*
X377024Y610905D02*
Y612655D01*
X401024D01*
Y610905D02*
Y612655D01*
Y600155D02*
Y601905D01*
X377024Y600155D02*
X401024D01*
X377024D02*
Y601905D01*
X290385Y101477D02*
X302885D01*
X290385Y89477D02*
X292134D01*
X290385D02*
Y113477D01*
X292134D01*
X301134D02*
X302885D01*
Y89477D02*
Y113477D01*
X301134Y89477D02*
X302885D01*
X135876Y678766D02*
Y691266D01*
X123876Y689516D02*
Y691266D01*
X147876D01*
Y689516D02*
Y691266D01*
Y678766D02*
Y680516D01*
X123876Y678766D02*
X147876D01*
X123876D02*
Y680516D01*
X344598Y346529D02*
Y359029D01*
X356598Y346529D02*
Y348279D01*
X332598Y346529D02*
X356598D01*
X332598D02*
Y348279D01*
Y357279D02*
Y359029D01*
X356598D01*
Y357279D02*
Y359029D01*
X305008Y346514D02*
Y359014D01*
X293008Y357264D02*
Y359014D01*
X317008D01*
Y357264D02*
Y359014D01*
Y346514D02*
Y348264D01*
X293008Y346514D02*
X317008D01*
X293008D02*
Y348264D01*
X291135Y227724D02*
X303635D01*
X301885Y239723D02*
X303635D01*
Y215723D02*
Y239723D01*
X301885Y215723D02*
X303635D01*
X291135D02*
X292885D01*
X291135D02*
Y239723D01*
X292885D01*
X291135Y262416D02*
X303635D01*
X291135Y250417D02*
X292885D01*
X291135D02*
Y274417D01*
X292885D01*
X301885D02*
X303635D01*
Y250417D02*
Y274417D01*
X301885Y250417D02*
X303635D01*
D16*
X729375Y765225D02*
X804425D01*
X729375Y585875D02*
X804425D01*
D17*
X964423Y769345D02*
X966923Y765845D01*
X964423Y769345D02*
X966923D01*
X964673Y765845D02*
X966923D01*
X969173D01*
X966923Y769345D02*
X969423D01*
X966923Y765845D02*
X969423Y769345D01*
X498500Y710765D02*
X501000Y707265D01*
X498500Y710765D02*
X501000D01*
X498750Y707265D02*
X501000D01*
X503250D01*
X501000Y710765D02*
X503500D01*
X501000Y707265D02*
X503500Y710765D01*
X528500Y710960D02*
X531000Y707460D01*
X528500Y710960D02*
X531000D01*
X528750Y707460D02*
X531000D01*
X533250D01*
X531000Y710960D02*
X533500D01*
X531000Y707460D02*
X533500Y710960D01*
X148905Y39197D02*
X151405Y35697D01*
X148905Y39197D02*
X151405D01*
X149155Y35697D02*
X151405D01*
X153655D01*
X151405Y39197D02*
X153905D01*
X151405Y35697D02*
X153905Y39197D01*
X59847Y188387D02*
X63347Y190887D01*
Y188387D02*
Y190887D01*
X59847Y188387D02*
Y190637D01*
Y186137D02*
Y188387D01*
X63347Y185887D02*
Y188387D01*
X59847D02*
X63347Y185887D01*
D18*
X354190Y19448D02*
X351990Y21649D01*
X347589D01*
X345388Y19448D01*
Y10646D01*
X347589Y8445D01*
X351990D01*
X354190Y10646D01*
X358592Y8445D02*
X362993D01*
X360792D01*
Y21649D01*
X358592Y19448D01*
X104315Y6098D02*
Y19302D01*
X110917D01*
X113118Y17101D01*
Y12700D01*
X110917Y10499D01*
X104315D01*
X108716D02*
X113118Y6098D01*
X126321D02*
X117519D01*
X126321Y14901D01*
Y17101D01*
X124121Y19302D01*
X119719D01*
X117519Y17101D01*
X130723D02*
X132923Y19302D01*
X137324D01*
X139525Y17101D01*
Y14901D01*
X137324Y12700D01*
X135124D01*
X137324D01*
X139525Y10499D01*
Y8299D01*
X137324Y6098D01*
X132923D01*
X130723Y8299D01*
X303196Y433738D02*
Y422734D01*
X305397Y420534D01*
X309798D01*
X311999Y422734D01*
Y433738D01*
X325203Y420534D02*
X316400D01*
X325203Y429336D01*
Y431537D01*
X323002Y433738D01*
X318601D01*
X316400Y431537D01*
X296533Y409657D02*
X305335Y400854D01*
X296533D02*
X305335Y409657D01*
X296533Y405256D02*
X305335D01*
X300934Y400854D02*
Y409657D01*
X71197Y349349D02*
X68997Y351549D01*
X64595D01*
X62395Y349349D01*
Y340546D01*
X64595Y338345D01*
X68997D01*
X71197Y340546D01*
X75599Y338345D02*
X80000D01*
X77799D01*
Y351549D01*
X75599Y349349D01*
X86602Y338345D02*
X91003D01*
X88802D01*
Y351549D01*
X86602Y349349D01*
X215159Y412534D02*
Y421336D01*
X212958Y423537D01*
X208557D01*
X206357Y421336D01*
Y412534D01*
X208557Y410333D01*
X212958D01*
X210758Y414734D02*
X215159Y410333D01*
X212958D02*
X215159Y412534D01*
X228363Y410333D02*
X219560D01*
X228363Y419136D01*
Y421336D01*
X226162Y423537D01*
X221761D01*
X219560Y421336D01*
X263277Y164482D02*
X272079Y155679D01*
X263277D02*
X272079Y164482D01*
X263277Y160080D02*
X272079D01*
X267678Y155679D02*
Y164482D01*
X697575Y235238D02*
X688772Y226435D01*
Y235238D02*
X697575Y226435D01*
X693174Y235238D02*
Y226435D01*
X688772Y230836D02*
X697575D01*
X764653Y236209D02*
X755851Y227407D01*
Y236209D02*
X764653Y227407D01*
X760252Y236209D02*
Y227407D01*
X755851Y231808D02*
X764653D01*
X719653Y235240D02*
X710851Y226437D01*
Y235240D02*
X719653Y226437D01*
X715252Y235240D02*
Y226437D01*
X710851Y230839D02*
X719653D01*
X742153Y236209D02*
X733351Y227407D01*
Y236209D02*
X742153Y227407D01*
X737752Y236209D02*
Y227407D01*
X733351Y231808D02*
X742153D01*
X96093Y304800D02*
X87291Y295998D01*
Y304800D02*
X96093Y295998D01*
X91692Y304800D02*
Y295998D01*
X87291Y300399D02*
X96093D01*
X78815Y230226D02*
X87617Y239028D01*
Y230226D02*
X78815Y239028D01*
X83216Y230226D02*
Y239028D01*
X87617Y234627D02*
X78815D01*
X399709Y231898D02*
X395307D01*
X397508D01*
Y220895D01*
X395307Y218694D01*
X393107D01*
X390906Y220895D01*
X404110Y218694D02*
Y231898D01*
X410712D01*
X412912Y229697D01*
Y225296D01*
X410712Y223095D01*
X404110D01*
X417313Y218694D02*
X421715D01*
X419514D01*
Y231898D01*
X417313Y229697D01*
X505118Y337481D02*
Y346283D01*
X502918Y348484D01*
X498517D01*
X496316Y346283D01*
Y337481D01*
X498517Y335280D01*
X502918D01*
X500717Y339681D02*
X505118Y335280D01*
X502918D02*
X505118Y337481D01*
X516122Y335280D02*
Y348484D01*
X509520Y341882D01*
X518322D01*
X130308Y202717D02*
X121505D01*
Y196115D01*
X125906D01*
X121505D01*
Y189513D01*
X134709D02*
X139110D01*
X136910D01*
Y202717D01*
X134709Y200516D01*
X688521Y251195D02*
X686320Y248995D01*
Y244593D01*
X688521Y242393D01*
X697323D01*
X699524Y244593D01*
Y248995D01*
X697323Y251195D01*
X699524Y255596D02*
X686320D01*
Y262198D01*
X688521Y264399D01*
X692922D01*
X695122Y262198D01*
Y255596D01*
Y259998D02*
X699524Y264399D01*
X686320Y277603D02*
X688521Y273201D01*
X692922Y268800D01*
X697323D01*
X699524Y271001D01*
Y275402D01*
X697323Y277603D01*
X695122D01*
X692922Y275402D01*
Y268800D01*
X755599Y252167D02*
X753398Y249966D01*
Y245565D01*
X755599Y243364D01*
X764401D01*
X766602Y245565D01*
Y249966D01*
X764401Y252167D01*
X766602Y256568D02*
X753398D01*
Y263170D01*
X755599Y265370D01*
X760000D01*
X762201Y263170D01*
Y256568D01*
Y260969D02*
X766602Y265370D01*
X753398Y278574D02*
Y269771D01*
X760000D01*
X757799Y274173D01*
Y276373D01*
X760000Y278574D01*
X764401D01*
X766602Y276373D01*
Y271972D01*
X764401Y269771D01*
X710599Y251197D02*
X708398Y248997D01*
Y244596D01*
X710599Y242395D01*
X719401D01*
X721602Y244596D01*
Y248997D01*
X719401Y251197D01*
X721602Y255599D02*
X708398D01*
Y262201D01*
X710599Y264401D01*
X715000D01*
X717201Y262201D01*
Y255599D01*
Y260000D02*
X721602Y264401D01*
Y275404D02*
X708398D01*
X715000Y268803D01*
Y277605D01*
X733099Y252167D02*
X730898Y249966D01*
Y245565D01*
X733099Y243364D01*
X741901D01*
X744102Y245565D01*
Y249966D01*
X741901Y252167D01*
X744102Y256568D02*
X730898D01*
Y263170D01*
X733099Y265370D01*
X737500D01*
X739701Y263170D01*
Y256568D01*
Y260969D02*
X744102Y265370D01*
X733099Y269771D02*
X730898Y271972D01*
Y276373D01*
X733099Y278574D01*
X735299D01*
X737500Y276373D01*
Y274173D01*
Y276373D01*
X739701Y278574D01*
X741901D01*
X744102Y276373D01*
Y271972D01*
X741901Y269771D01*
X108115Y296054D02*
X105915Y298255D01*
X101514D01*
X99313Y296054D01*
Y287252D01*
X101514Y285051D01*
X105915D01*
X108115Y287252D01*
X112517Y285051D02*
Y298255D01*
X119118D01*
X121319Y296054D01*
Y291653D01*
X119118Y289452D01*
X112517D01*
X116918D02*
X121319Y285051D01*
X134523D02*
X125720D01*
X134523Y293853D01*
Y296054D01*
X132322Y298255D01*
X127921D01*
X125720Y296054D01*
X100220Y246236D02*
X98019Y248436D01*
X93618D01*
X91417Y246236D01*
Y237433D01*
X93618Y235232D01*
X98019D01*
X100220Y237433D01*
X104621Y235232D02*
Y248436D01*
X111223D01*
X113424Y246236D01*
Y241834D01*
X111223Y239634D01*
X104621D01*
X109022D02*
X113424Y235232D01*
X117825D02*
X122226D01*
X120026D01*
Y248436D01*
X117825Y246236D01*
X338328Y280416D02*
Y293620D01*
X344930D01*
X347131Y291419D01*
Y287018D01*
X344930Y284817D01*
X338328D01*
X342729D02*
X347131Y280416D01*
X360334D02*
X351532D01*
X360334Y289219D01*
Y291419D01*
X358134Y293620D01*
X353732D01*
X351532Y291419D01*
X371337Y280416D02*
Y293620D01*
X364735Y287018D01*
X373538D01*
X348968Y181476D02*
Y190278D01*
X346767Y192479D01*
X342366D01*
X340165Y190278D01*
Y181476D01*
X342366Y179275D01*
X346767D01*
X344566Y183677D02*
X348968Y179275D01*
X346767D02*
X348968Y181476D01*
X353369Y190278D02*
X355570Y192479D01*
X359971D01*
X362172Y190278D01*
Y188078D01*
X359971Y185877D01*
X357770D01*
X359971D01*
X362172Y183677D01*
Y181476D01*
X359971Y179275D01*
X355570D01*
X353369Y181476D01*
X178403Y184335D02*
Y171132D01*
X185005D01*
X187206Y173332D01*
Y182135D01*
X185005Y184335D01*
X178403D01*
X191607Y182135D02*
X193808Y184335D01*
X198209D01*
X200409Y182135D01*
Y179934D01*
X198209Y177734D01*
X196008D01*
X198209D01*
X200409Y175533D01*
Y173332D01*
X198209Y171132D01*
X193808D01*
X191607Y173332D01*
X189072Y67917D02*
X186871Y70118D01*
X182470D01*
X180269Y67917D01*
Y65717D01*
X182470Y63516D01*
X186871D01*
X189072Y61315D01*
Y59115D01*
X186871Y56914D01*
X182470D01*
X180269Y59115D01*
X193473Y56914D02*
X197874D01*
X195674D01*
Y70118D01*
X193473Y67917D01*
X718997Y786602D02*
Y775599D01*
X721198Y773398D01*
X725599D01*
X727799Y775599D01*
Y786602D01*
X741003D02*
X732201D01*
Y780000D01*
X736602Y782201D01*
X738802D01*
X741003Y780000D01*
Y775599D01*
X738802Y773398D01*
X734401D01*
X732201Y775599D01*
X279423Y172147D02*
Y161144D01*
X281624Y158944D01*
X286025D01*
X288226Y161144D01*
Y172147D01*
X299229Y158944D02*
Y172147D01*
X292627Y165546D01*
X301430D01*
X138997Y539302D02*
Y528299D01*
X141197Y526098D01*
X145599D01*
X147799Y528299D01*
Y539302D01*
X152200Y537101D02*
X154401Y539302D01*
X158802D01*
X161003Y537101D01*
Y534901D01*
X158802Y532700D01*
X156602D01*
X158802D01*
X161003Y530499D01*
Y528299D01*
X158802Y526098D01*
X154401D01*
X152200Y528299D01*
X268331Y288458D02*
Y277455D01*
X270531Y275255D01*
X274932D01*
X277133Y277455D01*
Y288458D01*
X281534Y275255D02*
X285936D01*
X283735D01*
Y288458D01*
X281534Y286258D01*
X925799Y722401D02*
X923599Y724602D01*
X919197D01*
X916997Y722401D01*
Y720201D01*
X919197Y718000D01*
X923599D01*
X925799Y715799D01*
Y713599D01*
X923599Y711398D01*
X919197D01*
X916997Y713599D01*
X939003Y724602D02*
X930201D01*
Y718000D01*
X934602Y720201D01*
X936803D01*
X939003Y718000D01*
Y713599D01*
X936803Y711398D01*
X932401D01*
X930201Y713599D01*
X1016238Y792752D02*
X1014038Y794952D01*
X1009636D01*
X1007436Y792752D01*
Y790551D01*
X1009636Y788351D01*
X1014038D01*
X1016238Y786150D01*
Y783949D01*
X1014038Y781749D01*
X1009636D01*
X1007436Y783949D01*
X1027241Y781749D02*
Y794952D01*
X1020639Y788351D01*
X1029442D01*
X292026Y71658D02*
X289825Y73858D01*
X285424D01*
X283223Y71658D01*
Y69457D01*
X285424Y67256D01*
X289825D01*
X292026Y65056D01*
Y62855D01*
X289825Y60655D01*
X285424D01*
X283223Y62855D01*
X296427Y71658D02*
X298628Y73858D01*
X303029D01*
X305229Y71658D01*
Y69457D01*
X303029Y67256D01*
X300828D01*
X303029D01*
X305229Y65056D01*
Y62855D01*
X303029Y60655D01*
X298628D01*
X296427Y62855D01*
X23280Y441279D02*
X21080Y443480D01*
X16679D01*
X14478Y441279D01*
Y439078D01*
X16679Y436878D01*
X21080D01*
X23280Y434677D01*
Y432477D01*
X21080Y430276D01*
X16679D01*
X14478Y432477D01*
X36484Y430276D02*
X27682D01*
X36484Y439078D01*
Y441279D01*
X34284Y443480D01*
X29882D01*
X27682Y441279D01*
X940566Y656590D02*
Y669793D01*
X947168D01*
X949369Y667593D01*
Y663192D01*
X947168Y660991D01*
X940566D01*
X944967D02*
X949369Y656590D01*
X962572D02*
X953770D01*
X962572Y665392D01*
Y667593D01*
X960372Y669793D01*
X955970D01*
X953770Y667593D01*
X975776Y656590D02*
X966973D01*
X975776Y665392D01*
Y667593D01*
X973575Y669793D01*
X969174D01*
X966973Y667593D01*
X940596Y620398D02*
Y633602D01*
X947197D01*
X949398Y631401D01*
Y627000D01*
X947197Y624799D01*
X940596D01*
X944997D02*
X949398Y620398D01*
X962602D02*
X953799D01*
X962602Y629201D01*
Y631401D01*
X960401Y633602D01*
X956000D01*
X953799Y631401D01*
X967003Y620398D02*
X971404D01*
X969204D01*
Y633602D01*
X967003Y631401D01*
X836739Y637319D02*
Y650523D01*
X843341D01*
X845542Y648322D01*
Y643921D01*
X843341Y641721D01*
X836739D01*
X841141D02*
X845542Y637319D01*
X858745D02*
X849943D01*
X858745Y646122D01*
Y648322D01*
X856545Y650523D01*
X852144D01*
X849943Y648322D01*
X863147D02*
X865347Y650523D01*
X869749D01*
X871949Y648322D01*
Y639520D01*
X869749Y637319D01*
X865347D01*
X863147Y639520D01*
Y648322D01*
X661725Y705675D02*
Y718879D01*
X668327D01*
X670528Y716678D01*
Y712277D01*
X668327Y710076D01*
X661725D01*
X666126D02*
X670528Y705675D01*
X674929D02*
X679330D01*
X677130D01*
Y718879D01*
X674929Y716678D01*
X685932Y707876D02*
X688133Y705675D01*
X692534D01*
X694734Y707876D01*
Y716678D01*
X692534Y718879D01*
X688133D01*
X685932Y716678D01*
Y714478D01*
X688133Y712277D01*
X694734D01*
X841370Y603319D02*
Y616522D01*
X847971D01*
X850172Y614322D01*
Y609921D01*
X847971Y607720D01*
X841370D01*
X845771D02*
X850172Y603319D01*
X854573D02*
X858975D01*
X856774D01*
Y616522D01*
X854573Y614322D01*
X865576D02*
X867777Y616522D01*
X872178D01*
X874379Y614322D01*
Y612121D01*
X872178Y609921D01*
X874379Y607720D01*
Y605519D01*
X872178Y603319D01*
X867777D01*
X865576Y605519D01*
Y607720D01*
X867777Y609921D01*
X865576Y612121D01*
Y614322D01*
X867777Y609921D02*
X872178D01*
X627838Y537905D02*
X614634D01*
Y544506D01*
X616835Y546707D01*
X621236D01*
X623437Y544506D01*
Y537905D01*
Y542306D02*
X627838Y546707D01*
Y551108D02*
Y555510D01*
Y553309D01*
X614634D01*
X616835Y551108D01*
X614634Y562111D02*
Y570914D01*
X616835D01*
X625638Y562111D01*
X627838D01*
X498683Y575775D02*
Y588979D01*
X505285D01*
X507486Y586778D01*
Y582377D01*
X505285Y580176D01*
X498683D01*
X503085D02*
X507486Y575775D01*
X511887D02*
X516288D01*
X514088D01*
Y588979D01*
X511887Y586778D01*
X531693Y588979D02*
X527291Y586778D01*
X522890Y582377D01*
Y577976D01*
X525091Y575775D01*
X529492D01*
X531693Y577976D01*
Y580176D01*
X529492Y582377D01*
X522890D01*
X483495Y733398D02*
Y746602D01*
X490097D01*
X492298Y744401D01*
Y740000D01*
X490097Y737799D01*
X483495D01*
X487897D02*
X492298Y733398D01*
X496699D02*
X501100D01*
X498900D01*
Y746602D01*
X496699Y744401D01*
X516505Y746602D02*
X507702D01*
Y740000D01*
X512103Y742201D01*
X514304D01*
X516505Y740000D01*
Y735599D01*
X514304Y733398D01*
X509903D01*
X507702Y735599D01*
X523542Y731699D02*
Y744902D01*
X530144D01*
X532344Y742702D01*
Y738300D01*
X530144Y736100D01*
X523542D01*
X527943D02*
X532344Y731699D01*
X536746D02*
X541147D01*
X538946D01*
Y744902D01*
X536746Y742702D01*
X554351Y731699D02*
Y744902D01*
X547749Y738300D01*
X556551D01*
X237985Y8213D02*
Y21417D01*
X244587D01*
X246787Y19217D01*
Y14815D01*
X244587Y12615D01*
X237985D01*
X242386D02*
X246787Y8213D01*
X251189D02*
X255590D01*
X253389D01*
Y21417D01*
X251189Y19217D01*
X262192D02*
X264392Y21417D01*
X268794D01*
X270994Y19217D01*
Y17016D01*
X268794Y14815D01*
X266593D01*
X268794D01*
X270994Y12615D01*
Y10414D01*
X268794Y8213D01*
X264392D01*
X262192Y10414D01*
X405241Y637793D02*
Y650997D01*
X411842D01*
X414043Y648796D01*
Y644395D01*
X411842Y642194D01*
X405241D01*
X409642D02*
X414043Y637793D01*
X418444D02*
X422846D01*
X420645D01*
Y650997D01*
X418444Y648796D01*
X438250Y637793D02*
X429448D01*
X438250Y646596D01*
Y648796D01*
X436049Y650997D01*
X431648D01*
X429448Y648796D01*
X409010Y692863D02*
Y706066D01*
X415611D01*
X417812Y703866D01*
Y699464D01*
X415611Y697264D01*
X409010D01*
X413411D02*
X417812Y692863D01*
X422213D02*
X426614D01*
X424414D01*
Y706066D01*
X422213Y703866D01*
X433216Y692863D02*
X437618D01*
X435417D01*
Y706066D01*
X433216Y703866D01*
X169972Y120856D02*
Y134060D01*
X176574D01*
X178774Y131859D01*
Y127458D01*
X176574Y125257D01*
X169972D01*
X174373D02*
X178774Y120856D01*
X183176D02*
X187577D01*
X185376D01*
Y134060D01*
X183176Y131859D01*
X194179D02*
X196379Y134060D01*
X200781D01*
X202981Y131859D01*
Y123057D01*
X200781Y120856D01*
X196379D01*
X194179Y123057D01*
Y131859D01*
X181567Y141833D02*
Y155037D01*
X188169D01*
X190370Y152837D01*
Y148435D01*
X188169Y146235D01*
X181567D01*
X185969D02*
X190370Y141833D01*
X194771Y144034D02*
X196972Y141833D01*
X201373D01*
X203574Y144034D01*
Y152837D01*
X201373Y155037D01*
X196972D01*
X194771Y152837D01*
Y150636D01*
X196972Y148435D01*
X203574D01*
X175839Y314723D02*
Y327926D01*
X182441D01*
X184642Y325726D01*
Y321325D01*
X182441Y319124D01*
X175839D01*
X180241D02*
X184642Y314723D01*
X189043Y325726D02*
X191244Y327926D01*
X195645D01*
X197846Y325726D01*
Y323525D01*
X195645Y321325D01*
X197846Y319124D01*
Y316923D01*
X195645Y314723D01*
X191244D01*
X189043Y316923D01*
Y319124D01*
X191244Y321325D01*
X189043Y323525D01*
Y325726D01*
X191244Y321325D02*
X195645D01*
X232718Y315473D02*
Y328677D01*
X239319D01*
X241520Y326476D01*
Y322075D01*
X239319Y319874D01*
X232718D01*
X237119D02*
X241520Y315473D01*
X245921Y328677D02*
X254724D01*
Y326476D01*
X245921Y317674D01*
Y315473D01*
X55719Y426440D02*
Y439644D01*
X62320D01*
X64521Y437443D01*
Y433042D01*
X62320Y430841D01*
X55719D01*
X60120D02*
X64521Y426440D01*
X77725Y439644D02*
X73324Y437443D01*
X68922Y433042D01*
Y428640D01*
X71123Y426440D01*
X75524D01*
X77725Y428640D01*
Y430841D01*
X75524Y433042D01*
X68922D01*
X204617Y220024D02*
Y233228D01*
X211219D01*
X213419Y231027D01*
Y226626D01*
X211219Y224426D01*
X204617D01*
X209018D02*
X213419Y220024D01*
X226623Y233228D02*
X217821D01*
Y226626D01*
X222222Y228827D01*
X224422D01*
X226623Y226626D01*
Y222225D01*
X224422Y220024D01*
X220021D01*
X217821Y222225D01*
X11176Y203200D02*
Y216404D01*
X17778D01*
X19978Y214203D01*
Y209802D01*
X17778Y207601D01*
X11176D01*
X15577D02*
X19978Y203200D01*
X30982D02*
Y216404D01*
X24380Y209802D01*
X33182D01*
X166341Y278428D02*
Y291632D01*
X172943D01*
X175144Y289431D01*
Y285030D01*
X172943Y282830D01*
X166341D01*
X170742D02*
X175144Y278428D01*
X179545Y289431D02*
X181745Y291632D01*
X186147D01*
X188347Y289431D01*
Y287231D01*
X186147Y285030D01*
X183946D01*
X186147D01*
X188347Y282830D01*
Y280629D01*
X186147Y278428D01*
X181745D01*
X179545Y280629D01*
X378354Y333241D02*
Y346445D01*
X384956D01*
X387156Y344244D01*
Y339843D01*
X384956Y337642D01*
X378354D01*
X382755D02*
X387156Y333241D01*
X400360D02*
X391558D01*
X400360Y342044D01*
Y344244D01*
X398159Y346445D01*
X393758D01*
X391558Y344244D01*
X381486Y301336D02*
Y314540D01*
X388088D01*
X390289Y312339D01*
Y307938D01*
X388088Y305737D01*
X381486D01*
X385887D02*
X390289Y301336D01*
X394690D02*
X399091D01*
X396891D01*
Y314540D01*
X394690Y312339D01*
X152006Y410888D02*
Y419691D01*
X149805Y421891D01*
X145404D01*
X143204Y419691D01*
Y410888D01*
X145404Y408687D01*
X149805D01*
X147605Y413089D02*
X152006Y408687D01*
X149805D02*
X152006Y410888D01*
X156407Y408687D02*
X160809D01*
X158608D01*
Y421891D01*
X156407Y419691D01*
X699203Y528893D02*
X694802D01*
X697003D01*
Y517890D01*
X694802Y515689D01*
X692602D01*
X690401Y517890D01*
X703605Y515689D02*
Y528893D01*
X710207D01*
X712407Y526692D01*
Y522291D01*
X710207Y520090D01*
X703605D01*
X716808Y528893D02*
X725611D01*
Y526692D01*
X716808Y517890D01*
Y515689D01*
X14390Y786634D02*
X9989D01*
X12190D01*
Y775631D01*
X9989Y773430D01*
X7789D01*
X5588Y775631D01*
X18792Y773430D02*
Y786634D01*
X25394D01*
X27594Y784433D01*
Y780032D01*
X25394Y777831D01*
X18792D01*
X40798Y786634D02*
X36397Y784433D01*
X31995Y780032D01*
Y775631D01*
X34196Y773430D01*
X38597D01*
X40798Y775631D01*
Y777831D01*
X38597Y780032D01*
X31995D01*
X997239Y589266D02*
X992838D01*
X995039D01*
Y578263D01*
X992838Y576062D01*
X990637D01*
X988437Y578263D01*
X1001640Y576062D02*
Y589266D01*
X1008242D01*
X1010443Y587065D01*
Y582664D01*
X1008242Y580463D01*
X1001640D01*
X1023647Y589266D02*
X1014844D01*
Y582664D01*
X1019245Y584865D01*
X1021446D01*
X1023647Y582664D01*
Y578263D01*
X1021446Y576062D01*
X1017045D01*
X1014844Y578263D01*
X450255Y792730D02*
X445853D01*
X448054D01*
Y781727D01*
X445853Y779526D01*
X443653D01*
X441452Y781727D01*
X454656Y779526D02*
Y792730D01*
X461258D01*
X463458Y790529D01*
Y786128D01*
X461258Y783927D01*
X454656D01*
X474461Y779526D02*
Y792730D01*
X467859Y786128D01*
X476662D01*
X606465Y369820D02*
X602063D01*
X604264D01*
Y358817D01*
X602063Y356616D01*
X599863D01*
X597662Y358817D01*
X610866Y356616D02*
Y369820D01*
X617468D01*
X619668Y367619D01*
Y363218D01*
X617468Y361017D01*
X610866D01*
X624070Y367619D02*
X626270Y369820D01*
X630671D01*
X632872Y367619D01*
Y365419D01*
X630671Y363218D01*
X628471D01*
X630671D01*
X632872Y361017D01*
Y358817D01*
X630671Y356616D01*
X626270D01*
X624070Y358817D01*
X571839Y730502D02*
X567438D01*
X569639D01*
Y719499D01*
X567438Y717298D01*
X565238D01*
X563037Y719499D01*
X585043Y730502D02*
X576241D01*
Y723900D01*
X580642Y726101D01*
X582842D01*
X585043Y723900D01*
Y719499D01*
X582842Y717298D01*
X578441D01*
X576241Y719499D01*
X571839Y672082D02*
X567438D01*
X569639D01*
Y661079D01*
X567438Y658878D01*
X565238D01*
X563037Y661079D01*
X582842Y658878D02*
Y672082D01*
X576241Y665480D01*
X585043D01*
X666437Y201343D02*
X662036D01*
X664236D01*
Y190340D01*
X662036Y188140D01*
X659835D01*
X657635Y190340D01*
X670838Y199143D02*
X673039Y201343D01*
X677440D01*
X679641Y199143D01*
Y196942D01*
X677440Y194741D01*
X675239D01*
X677440D01*
X679641Y192541D01*
Y190340D01*
X677440Y188140D01*
X673039D01*
X670838Y190340D01*
X12731Y327631D02*
X8330D01*
X10530D01*
Y316628D01*
X8330Y314427D01*
X6129D01*
X3929Y316628D01*
X25935Y314427D02*
X17132D01*
X25935Y323229D01*
Y325430D01*
X23734Y327631D01*
X19333D01*
X17132Y325430D01*
X103899Y82533D02*
X99498D01*
X101698D01*
Y71530D01*
X99498Y69330D01*
X97297D01*
X95097Y71530D01*
X108300Y69330D02*
X112702D01*
X110501D01*
Y82533D01*
X108300Y80333D01*
X979997Y780602D02*
Y767398D01*
X986599D01*
X988799Y769599D01*
Y778401D01*
X986599Y780602D01*
X979997D01*
X993201D02*
X1002003D01*
Y778401D01*
X993201Y769599D01*
Y767398D01*
X491997Y687602D02*
Y674398D01*
X498599D01*
X500799Y676599D01*
Y685401D01*
X498599Y687602D01*
X491997D01*
X514003D02*
X509602Y685401D01*
X505201Y681000D01*
Y676599D01*
X507401Y674398D01*
X511802D01*
X514003Y676599D01*
Y678799D01*
X511802Y681000D01*
X505201D01*
X520247Y688797D02*
Y675593D01*
X526849D01*
X529049Y677794D01*
Y686596D01*
X526849Y688797D01*
X520247D01*
X542253D02*
X533451D01*
Y682195D01*
X537852Y684396D01*
X540053D01*
X542253Y682195D01*
Y677794D01*
X540053Y675593D01*
X535651D01*
X533451Y677794D01*
X141734Y70416D02*
Y57212D01*
X148336D01*
X150536Y59413D01*
Y68215D01*
X148336Y70416D01*
X141734D01*
X161539Y57212D02*
Y70416D01*
X154937Y63814D01*
X163740D01*
X47752Y216404D02*
Y203200D01*
X54354D01*
X56554Y205401D01*
Y214203D01*
X54354Y216404D01*
X47752D01*
X69758Y203200D02*
X60956D01*
X69758Y212003D01*
Y214203D01*
X67558Y216404D01*
X63156D01*
X60956Y214203D01*
X238849Y184218D02*
Y171014D01*
X245450D01*
X247651Y173215D01*
Y182018D01*
X245450Y184218D01*
X238849D01*
X252052Y171014D02*
X256454D01*
X254253D01*
Y184218D01*
X252052Y182018D01*
X667863Y681930D02*
X665663Y684131D01*
X661261D01*
X659061Y681930D01*
Y673128D01*
X661261Y670927D01*
X665663D01*
X667863Y673128D01*
X681067Y670927D02*
X672264D01*
X681067Y679730D01*
Y681930D01*
X678866Y684131D01*
X674465D01*
X672264Y681930D01*
X694271Y670927D02*
X685468D01*
X694271Y679730D01*
Y681930D01*
X692070Y684131D01*
X687669D01*
X685468Y681930D01*
X873636Y542733D02*
X871436Y544934D01*
X867035D01*
X864834Y542733D01*
Y533931D01*
X867035Y531730D01*
X871436D01*
X873636Y533931D01*
X886840Y531730D02*
X878038D01*
X886840Y540533D01*
Y542733D01*
X884640Y544934D01*
X880238D01*
X878038Y542733D01*
X891241Y531730D02*
X895643D01*
X893442D01*
Y544934D01*
X891241Y542733D01*
X848249Y715769D02*
X846049Y717970D01*
X841647D01*
X839447Y715769D01*
Y706967D01*
X841647Y704766D01*
X846049D01*
X848249Y706967D01*
X861453Y704766D02*
X852651D01*
X861453Y713568D01*
Y715769D01*
X859252Y717970D01*
X854851D01*
X852651Y715769D01*
X865854D02*
X868055Y717970D01*
X872456D01*
X874657Y715769D01*
Y706967D01*
X872456Y704766D01*
X868055D01*
X865854Y706967D01*
Y715769D01*
X649559Y538119D02*
X647358Y540319D01*
X642957D01*
X640756Y538119D01*
Y529316D01*
X642957Y527116D01*
X647358D01*
X649559Y529316D01*
X653960Y527116D02*
X658361D01*
X656161D01*
Y540319D01*
X653960Y538119D01*
X664963Y529316D02*
X667164Y527116D01*
X671565D01*
X673765Y529316D01*
Y538119D01*
X671565Y540319D01*
X667164D01*
X664963Y538119D01*
Y535918D01*
X667164Y533717D01*
X673765D01*
X845738Y682581D02*
X843537Y684782D01*
X839136D01*
X836935Y682581D01*
Y673779D01*
X839136Y671578D01*
X843537D01*
X845738Y673779D01*
X850139Y671578D02*
X854540D01*
X852340D01*
Y684782D01*
X850139Y682581D01*
X861142D02*
X863343Y684782D01*
X867744D01*
X869945Y682581D01*
Y680381D01*
X867744Y678180D01*
X869945Y675979D01*
Y673779D01*
X867744Y671578D01*
X863343D01*
X861142Y673779D01*
Y675979D01*
X863343Y678180D01*
X861142Y680381D01*
Y682581D01*
X863343Y678180D02*
X867744D01*
X607298Y780401D02*
X605097Y782602D01*
X600696D01*
X598495Y780401D01*
Y771599D01*
X600696Y769398D01*
X605097D01*
X607298Y771599D01*
X611699Y769398D02*
X616100D01*
X613900D01*
Y782602D01*
X611699Y780401D01*
X622702Y782602D02*
X631505D01*
Y780401D01*
X622702Y771599D01*
Y769398D01*
X769538Y575901D02*
X767337Y578102D01*
X762936D01*
X760735Y575901D01*
Y567099D01*
X762936Y564898D01*
X767337D01*
X769538Y567099D01*
X773939Y564898D02*
X778340D01*
X776140D01*
Y578102D01*
X773939Y575901D01*
X793745Y578102D02*
X789343Y575901D01*
X784942Y571500D01*
Y567099D01*
X787143Y564898D01*
X791544D01*
X793745Y567099D01*
Y569299D01*
X791544Y571500D01*
X784942D01*
X912298Y783401D02*
X910097Y785602D01*
X905696D01*
X903495Y783401D01*
Y774599D01*
X905696Y772398D01*
X910097D01*
X912298Y774599D01*
X916699Y772398D02*
X921100D01*
X918900D01*
Y785602D01*
X916699Y783401D01*
X936505Y785602D02*
X927702D01*
Y779000D01*
X932103Y781201D01*
X934304D01*
X936505Y779000D01*
Y774599D01*
X934304Y772398D01*
X929903D01*
X927702Y774599D01*
X670298Y615401D02*
X668097Y617602D01*
X663696D01*
X661495Y615401D01*
Y606599D01*
X663696Y604398D01*
X668097D01*
X670298Y606599D01*
X674699Y604398D02*
X679100D01*
X676900D01*
Y617602D01*
X674699Y615401D01*
X692304Y604398D02*
Y617602D01*
X685702Y611000D01*
X694505D01*
X669019Y646910D02*
X666819Y649110D01*
X662417D01*
X660217Y646910D01*
Y638107D01*
X662417Y635907D01*
X666819D01*
X669019Y638107D01*
X673420Y635907D02*
X677822D01*
X675621D01*
Y649110D01*
X673420Y646910D01*
X684424D02*
X686624Y649110D01*
X691025D01*
X693226Y646910D01*
Y644709D01*
X691025Y642508D01*
X688825D01*
X691025D01*
X693226Y640308D01*
Y638107D01*
X691025Y635907D01*
X686624D01*
X684424Y638107D01*
X572749Y543328D02*
X570548Y545529D01*
X566147D01*
X563946Y543328D01*
Y534525D01*
X566147Y532325D01*
X570548D01*
X572749Y534525D01*
X577150Y532325D02*
X581551D01*
X579351D01*
Y545529D01*
X577150Y543328D01*
X596955Y532325D02*
X588153D01*
X596955Y541127D01*
Y543328D01*
X594755Y545529D01*
X590354D01*
X588153Y543328D01*
X137195Y734856D02*
X134994Y737057D01*
X130593D01*
X128392Y734856D01*
Y726053D01*
X130593Y723853D01*
X134994D01*
X137195Y726053D01*
X141596Y723853D02*
X145997D01*
X143797D01*
Y737057D01*
X141596Y734856D01*
X152599D02*
X154800Y737057D01*
X159201D01*
X161402Y734856D01*
Y726053D01*
X159201Y723853D01*
X154800D01*
X152599Y726053D01*
Y734856D01*
X419529Y611597D02*
X417329Y613798D01*
X412927D01*
X410727Y611597D01*
Y602795D01*
X412927Y600594D01*
X417329D01*
X419529Y602795D01*
X423931D02*
X426131Y600594D01*
X430532D01*
X432733Y602795D01*
Y611597D01*
X430532Y613798D01*
X426131D01*
X423931Y611597D01*
Y609397D01*
X426131Y607196D01*
X432733D01*
X316569Y100921D02*
X314369Y103122D01*
X309967D01*
X307767Y100921D01*
Y92119D01*
X309967Y89918D01*
X314369D01*
X316569Y92119D01*
X320971Y100921D02*
X323171Y103122D01*
X327573D01*
X329773Y100921D01*
Y98721D01*
X327573Y96520D01*
X329773Y94319D01*
Y92119D01*
X327573Y89918D01*
X323171D01*
X320971Y92119D01*
Y94319D01*
X323171Y96520D01*
X320971Y98721D01*
Y100921D01*
X323171Y96520D02*
X327573D01*
X137499Y672421D02*
X135299Y674622D01*
X130898D01*
X128697Y672421D01*
Y663619D01*
X130898Y661418D01*
X135299D01*
X137499Y663619D01*
X141901Y674622D02*
X150703D01*
Y672421D01*
X141901Y663619D01*
Y661418D01*
X343793Y338728D02*
X341592Y340929D01*
X337191D01*
X334990Y338728D01*
Y329926D01*
X337191Y327725D01*
X341592D01*
X343793Y329926D01*
X356996Y340929D02*
X352595Y338728D01*
X348194Y334327D01*
Y329926D01*
X350395Y327725D01*
X354796D01*
X356996Y329926D01*
Y332127D01*
X354796Y334327D01*
X348194D01*
X301365Y337942D02*
X299165Y340142D01*
X294763D01*
X292563Y337942D01*
Y329139D01*
X294763Y326938D01*
X299165D01*
X301365Y329139D01*
X314569Y340142D02*
X305767D01*
Y333540D01*
X310168Y335741D01*
X312368D01*
X314569Y333540D01*
Y329139D01*
X312368Y326938D01*
X307967D01*
X305767Y329139D01*
X209688Y289060D02*
X207488Y291261D01*
X203086D01*
X200886Y289060D01*
Y280258D01*
X203086Y278057D01*
X207488D01*
X209688Y280258D01*
X220692Y278057D02*
Y291261D01*
X214090Y284659D01*
X222892D01*
X315824Y242725D02*
X313623Y244925D01*
X309222D01*
X307021Y242725D01*
Y233922D01*
X309222Y231722D01*
X313623D01*
X315824Y233922D01*
X320225Y242725D02*
X322426Y244925D01*
X326827D01*
X329028Y242725D01*
Y240524D01*
X326827Y238323D01*
X324626D01*
X326827D01*
X329028Y236123D01*
Y233922D01*
X326827Y231722D01*
X322426D01*
X320225Y233922D01*
X315316Y270210D02*
X313115Y272410D01*
X308714D01*
X306514Y270210D01*
Y261407D01*
X308714Y259207D01*
X313115D01*
X315316Y261407D01*
X328520Y259207D02*
X319717D01*
X328520Y268009D01*
Y270210D01*
X326319Y272410D01*
X321918D01*
X319717Y270210D01*
M02*
