M48
;Layer_Color=9474304
;FILE_FORMAT=4:4
METRIC,LZ
;TYPE=PLATED
T1F00S00C0.2540
T3F00S00C0.7112
T4F00S00C0.8890
T5F00S00C0.9906
T6F00S00C1.0922
T7F00S00C1.0922
T8F00S00C1.5000
T9F00S00C2.7940
%
T01
X00169438Y00038016
X00238199Y00037733
X0018923Y0012319
X00308Y00173
X00367Y00206
X00396Y00232
X00365Y002625
X00283158Y00298662
X00275088Y00303575
X0024892Y0028194
X0025273Y0023749
X00297069Y00390267
X00330061Y0039
X00327806Y0036089
X00358Y00067
X00418999Y00235
X00427Y00241
X00459Y00249
X0041264Y00272398
X00411554Y00363779
X0040632Y00375918
X00446Y00335
X00530728Y00384538
X00524778Y00390576
X00531943Y00395531
X006925Y0036
X00706223Y00247007
X00726448Y00242493
X0075Y002375
X007825Y002575
X007925Y0026
X00785714Y00216981
X00673633Y00236958
X008875Y00274669
X00907233Y00383046
X00918865Y003768
X0092456Y0038608
X0091893Y00396883
X00924089Y00406304
X00908908Y00434302
X009025Y004425
X00895Y004775
X009144Y0048006
X008975Y005325
X00868Y00527
X0085719Y00541
X00837498Y00587499
X0085Y006125
X00874Y00631
X00829998Y00644999
X00826647Y0068209
X00828829Y00720109
X00849558Y00706844
X00859Y00712
X008575Y007275
X00872182Y00720874
X008575Y006925
X008275Y007925
X0099314Y007874
X00981Y00747
X0098Y007175
X00927709Y00617709
X00671Y0061
X00675Y006325
X00645Y00629
X00634Y00595
X00615174Y00608848
X00608Y00727
X00593Y00728
X00593827Y0079313
X00608Y00787
X00696Y00713
X006925Y007025
X0069Y0069
X00705281Y0068205
X0072Y0054
X006975Y0049
X00705Y004825
X007125Y004725
X00649754Y0047769
X00642282Y00457262
X005725Y0044492
X0056261Y0044519
X0049948Y00427915
X00478Y00439
X00514839Y00410074
X00437499Y00469999
X00414999
X0043688Y0055626
X0041783Y0063119
X0040821Y0063246
X00519434Y00668541
X0051625Y00678195
X00382523Y00669036
X00373102Y00667495
X0036703Y00658685
X0036957Y0069977
X003875Y0062
X00385Y00583
X003875Y005625
X0039Y0055
X0036Y00515
X0034671Y0050392
X00393067Y00468461
X003675Y0043
X003725Y004225
X0038Y0041
X0035306Y00420279
X0029591Y00431545
X002794Y00425195
X0026924Y004191
X00271658Y00409082
X00298812Y00400003
X00258486Y004826
X0025Y0051
X00196501Y00518111
X0018669Y0051943
X0017526Y0051054
X0016256
Y0050038
Y0049022
Y0046736
Y004572
Y0044196
X0017272Y0043688
Y0044958
Y0046736
Y0047752
X00196332Y00421575
X00203861Y00550571
X0021082Y005715
X0016002Y0054737
X0013462Y0057277
X00124065Y00586054
X0011865Y005969
X0013589Y0062357
X00155815Y00634142
X00162192Y00643039
X001625Y00614999
X0012982Y00651631
X0012Y0065
X00125208Y00663237
X00153124Y00684654
X0023Y0067
X0021Y0065
X0009679Y005588
T03
X0012852Y00064174
X00142261Y00153085
X00176Y00152
X00231Y0016791
X00269814Y00175102
X0027305Y0008763
X00256857Y00061178
X00372Y00164
X00312513Y00281783
X0016383Y0025273
X00100036Y00198996
X00076971Y00298084
X00611Y003
X0069Y005425
X00659Y00741
X00407499Y00687499
X0031877Y006985
X00119674Y00705236
X00111891Y00452917
X000825Y004675
T04
X0006Y0024
Y0029
T05
X007096Y0006899
T06
X004992Y0002
X005246
X0055
X005754
X006008
X006262
X006139Y003325
X006393
X006647
X006901
X007155
X007409
X007663
X007917
X008171
X008425
X008679
X008933
X00456343Y00474641
Y00500041
Y00525441
Y00550841
Y00576241
Y00601641
Y00627041
Y00652441
Y00677841
Y00703241
Y00728641
Y00754041
X00020579Y00748081
Y00722681
Y00697281
Y00671881
Y00646481
Y00621081
Y00595681
Y00570281
Y00544881
Y00519481
Y00494081
Y00468681
T07
X0094Y00101154
X009654
Y00126554
X0094
Y00151954
X009654
Y00177354
X0094
Y00202754
X009654
Y00228154
X0094
Y00253554
X009654
Y00278954
X0094
Y00304354
X009654
Y00329754
X0094
Y00355154
X009654
Y00380554
X0094
Y00405954
X009654
Y00431354
X0094
Y00456754
X009654
Y00482154
X0094
Y00507554
X009654
Y00532954
X0094
Y00558354
X009654
Y00583754
X0094
X007954Y0052
Y004946
X01050411Y00703975
Y00766475
X0059285Y0070006
X0056745
Y0064006
X0059285
X007446Y0052
X0077
Y004946
X007446
T08
X0079Y0007
T09
X00083Y000375
X00855
X00083Y006615
M30
