G04*
G04 #@! TF.GenerationSoftware,Altium Limited,Altium Designer,22.7.1 (60)*
G04*
G04 Layer_Physical_Order=1*
G04 Layer_Color=255*
%FSLAX25Y25*%
%MOIN*%
G70*
G04*
G04 #@! TF.SameCoordinates,3A20C243-D036-4456-A015-6CD0820CEA74*
G04*
G04*
G04 #@! TF.FilePolarity,Positive*
G04*
G01*
G75*
%ADD10C,0.02000*%
%ADD12C,0.01000*%
%ADD20R,0.03347X0.03740*%
%ADD21R,0.09843X0.06693*%
%ADD22R,0.05200X0.05200*%
%ADD23R,0.03500X0.07900*%
%ADD24R,0.07900X0.03500*%
%ADD25R,0.06299X0.09843*%
%ADD26R,0.13400X0.05900*%
%ADD27R,0.13800X0.03900*%
%ADD28R,0.13780X0.07480*%
%ADD29R,0.03150X0.03543*%
%ADD30R,0.16929X0.07087*%
%ADD31R,0.03740X0.03347*%
%ADD32R,0.01063X0.02047*%
%ADD33R,0.01417X0.02047*%
%ADD34R,0.05906X0.04331*%
%ADD35R,0.04528X0.02362*%
%ADD36R,0.04528X0.01181*%
%ADD37R,0.03543X0.03150*%
%ADD38R,0.02913X0.01102*%
G04:AMPARAMS|DCode=39|XSize=29.13mil|YSize=11.02mil|CornerRadius=2.48mil|HoleSize=0mil|Usage=FLASHONLY|Rotation=0.000|XOffset=0mil|YOffset=0mil|HoleType=Round|Shape=RoundedRectangle|*
%AMROUNDEDRECTD39*
21,1,0.02913,0.00606,0,0,0.0*
21,1,0.02417,0.01102,0,0,0.0*
1,1,0.00496,0.01209,-0.00303*
1,1,0.00496,-0.01209,-0.00303*
1,1,0.00496,-0.01209,0.00303*
1,1,0.00496,0.01209,0.00303*
%
%ADD39ROUNDEDRECTD39*%
%ADD40R,0.04921X0.06496*%
%ADD41R,0.07480X0.13780*%
%ADD42R,0.01181X0.03347*%
G04:AMPARAMS|DCode=43|XSize=33.47mil|YSize=11.81mil|CornerRadius=2.95mil|HoleSize=0mil|Usage=FLASHONLY|Rotation=90.000|XOffset=0mil|YOffset=0mil|HoleType=Round|Shape=RoundedRectangle|*
%AMROUNDEDRECTD43*
21,1,0.03347,0.00591,0,0,90.0*
21,1,0.02756,0.01181,0,0,90.0*
1,1,0.00591,0.00295,0.01378*
1,1,0.00591,0.00295,-0.01378*
1,1,0.00591,-0.00295,-0.01378*
1,1,0.00591,-0.00295,0.01378*
%
%ADD43ROUNDEDRECTD43*%
G04:AMPARAMS|DCode=44|XSize=33.47mil|YSize=11.81mil|CornerRadius=2.95mil|HoleSize=0mil|Usage=FLASHONLY|Rotation=180.000|XOffset=0mil|YOffset=0mil|HoleType=Round|Shape=RoundedRectangle|*
%AMROUNDEDRECTD44*
21,1,0.03347,0.00591,0,0,180.0*
21,1,0.02756,0.01181,0,0,180.0*
1,1,0.00591,-0.01378,0.00295*
1,1,0.00591,0.01378,0.00295*
1,1,0.00591,0.01378,-0.00295*
1,1,0.00591,-0.01378,-0.00295*
%
%ADD44ROUNDEDRECTD44*%
G04:AMPARAMS|DCode=45|XSize=100.39mil|YSize=100.39mil|CornerRadius=25.1mil|HoleSize=0mil|Usage=FLASHONLY|Rotation=180.000|XOffset=0mil|YOffset=0mil|HoleType=Round|Shape=RoundedRectangle|*
%AMROUNDEDRECTD45*
21,1,0.10039,0.05020,0,0,180.0*
21,1,0.05020,0.10039,0,0,180.0*
1,1,0.05020,-0.02510,0.02510*
1,1,0.05020,0.02510,0.02510*
1,1,0.05020,0.02510,-0.02510*
1,1,0.05020,-0.02510,-0.02510*
%
%ADD45ROUNDEDRECTD45*%
%ADD46R,0.03150X0.03150*%
G04:AMPARAMS|DCode=47|XSize=23.23mil|YSize=51.18mil|CornerRadius=1.74mil|HoleSize=0mil|Usage=FLASHONLY|Rotation=0.000|XOffset=0mil|YOffset=0mil|HoleType=Round|Shape=RoundedRectangle|*
%AMROUNDEDRECTD47*
21,1,0.02323,0.04770,0,0,0.0*
21,1,0.01974,0.05118,0,0,0.0*
1,1,0.00348,0.00987,-0.02385*
1,1,0.00348,-0.00987,-0.02385*
1,1,0.00348,-0.00987,0.02385*
1,1,0.00348,0.00987,0.02385*
%
%ADD47ROUNDEDRECTD47*%
G04:AMPARAMS|DCode=48|XSize=38.98mil|YSize=51.18mil|CornerRadius=2.92mil|HoleSize=0mil|Usage=FLASHONLY|Rotation=0.000|XOffset=0mil|YOffset=0mil|HoleType=Round|Shape=RoundedRectangle|*
%AMROUNDEDRECTD48*
21,1,0.03898,0.04534,0,0,0.0*
21,1,0.03313,0.05118,0,0,0.0*
1,1,0.00585,0.01657,-0.02267*
1,1,0.00585,-0.01657,-0.02267*
1,1,0.00585,-0.01657,0.02267*
1,1,0.00585,0.01657,0.02267*
%
%ADD48ROUNDEDRECTD48*%
%ADD49R,0.02756X0.01378*%
%ADD50R,0.01378X0.02756*%
%ADD51R,0.03543X0.03937*%
%ADD52R,0.03543X0.03150*%
%ADD53R,0.07480X0.03937*%
%ADD54R,0.07874X0.07087*%
%ADD55R,0.07087X0.16929*%
G04:AMPARAMS|DCode=56|XSize=55.12mil|YSize=13.78mil|CornerRadius=3.45mil|HoleSize=0mil|Usage=FLASHONLY|Rotation=90.000|XOffset=0mil|YOffset=0mil|HoleType=Round|Shape=RoundedRectangle|*
%AMROUNDEDRECTD56*
21,1,0.05512,0.00689,0,0,90.0*
21,1,0.04823,0.01378,0,0,90.0*
1,1,0.00689,0.00345,0.02411*
1,1,0.00689,0.00345,-0.02411*
1,1,0.00689,-0.00345,-0.02411*
1,1,0.00689,-0.00345,0.02411*
%
%ADD56ROUNDEDRECTD56*%
G04:AMPARAMS|DCode=57|XSize=35.43mil|YSize=13.78mil|CornerRadius=3.45mil|HoleSize=0mil|Usage=FLASHONLY|Rotation=90.000|XOffset=0mil|YOffset=0mil|HoleType=Round|Shape=RoundedRectangle|*
%AMROUNDEDRECTD57*
21,1,0.03543,0.00689,0,0,90.0*
21,1,0.02854,0.01378,0,0,90.0*
1,1,0.00689,0.00345,0.01427*
1,1,0.00689,0.00345,-0.01427*
1,1,0.00689,-0.00345,-0.01427*
1,1,0.00689,-0.00345,0.01427*
%
%ADD57ROUNDEDRECTD57*%
G04:AMPARAMS|DCode=58|XSize=35.43mil|YSize=13.78mil|CornerRadius=3.45mil|HoleSize=0mil|Usage=FLASHONLY|Rotation=180.000|XOffset=0mil|YOffset=0mil|HoleType=Round|Shape=RoundedRectangle|*
%AMROUNDEDRECTD58*
21,1,0.03543,0.00689,0,0,180.0*
21,1,0.02854,0.01378,0,0,180.0*
1,1,0.00689,-0.01427,0.00345*
1,1,0.00689,0.01427,0.00345*
1,1,0.00689,0.01427,-0.00345*
1,1,0.00689,-0.01427,-0.00345*
%
%ADD58ROUNDEDRECTD58*%
%ADD59R,0.04331X0.01378*%
%ADD60R,0.14961X0.07874*%
%ADD61R,0.05906X0.07874*%
%ADD62R,0.03150X0.03150*%
%ADD63R,0.01378X0.01968*%
%ADD64R,0.01968X0.01378*%
%ADD65R,0.01968X0.01968*%
%ADD66R,0.01575X0.01968*%
%ADD116C,0.06693*%
%ADD117R,0.06693X0.06693*%
%ADD131R,0.03543X0.06299*%
%ADD132C,0.04000*%
%ADD133C,0.01200*%
%ADD134C,0.03000*%
%ADD135C,0.01400*%
%ADD136C,0.01500*%
%ADD137C,0.01968*%
%ADD138C,0.39370*%
%ADD139C,0.55118*%
%ADD140C,0.27559*%
%ADD141O,0.08268X0.04134*%
%ADD142C,0.02559*%
%ADD143O,0.07874X0.05906*%
%ADD144R,0.07874X0.05906*%
%ADD145C,0.05118*%
%ADD146C,0.05906*%
%ADD147R,0.05906X0.05906*%
%ADD148O,0.11811X0.07874*%
%ADD149R,0.09843X0.05906*%
%ADD150O,0.09843X0.05906*%
%ADD151R,0.06299X0.08858*%
%ADD152O,0.06299X0.08858*%
%ADD153C,0.07874*%
%ADD154R,0.07874X0.07874*%
%ADD155C,0.03600*%
%ADD156C,0.05000*%
G36*
X270188Y343025D02*
X269802Y342708D01*
X269526Y342762D01*
X266886Y342935D01*
X264246Y342762D01*
X261650Y342246D01*
X259145Y341396D01*
X256772Y340225D01*
X254572Y338755D01*
X252582Y337011D01*
X250838Y335021D01*
X249368Y332821D01*
X248197Y330448D01*
X247347Y327943D01*
X246831Y325347D01*
X246657Y322707D01*
X246831Y320067D01*
X247347Y317472D01*
X248197Y314966D01*
X249368Y312593D01*
X250838Y310393D01*
X252582Y308403D01*
X254572Y306659D01*
X256772Y305189D01*
X259145Y304018D01*
X261650Y303168D01*
X264246Y302652D01*
X266886Y302479D01*
X269526Y302652D01*
X272121Y303168D01*
X274627Y304018D01*
X277000Y305189D01*
X279200Y306659D01*
X281189Y308403D01*
X282934Y310393D01*
X284404Y312593D01*
X285574Y314966D01*
X286425Y317472D01*
X286941Y320067D01*
X286958Y320328D01*
X287474Y320549D01*
X287610Y320458D01*
X288000Y320380D01*
X292315D01*
Y318951D01*
X302215D01*
Y320380D01*
X359244D01*
Y318951D01*
X369144D01*
Y320380D01*
X382980D01*
X382980Y161524D01*
X382480Y161139D01*
X375503D01*
Y157189D01*
Y153239D01*
X382480D01*
X382703Y153239D01*
X382980Y152854D01*
Y135146D01*
X382480Y134761D01*
X375503D01*
Y130811D01*
Y126861D01*
X382480D01*
X382703Y126861D01*
X382980Y126476D01*
Y119226D01*
X382480Y119041D01*
X381380Y120329D01*
X379671Y121789D01*
X377755Y122963D01*
X375678Y123823D01*
X373493Y124348D01*
X371252Y124524D01*
X369011Y124348D01*
X366826Y123823D01*
X364749Y122963D01*
X362833Y121789D01*
X361124Y120329D01*
X359664Y118620D01*
X358489Y116704D01*
X357629Y114627D01*
X357105Y112442D01*
X356928Y110201D01*
X357105Y107960D01*
X357629Y105774D01*
X358489Y103698D01*
X359664Y101781D01*
X361124Y100072D01*
X362833Y98613D01*
X364749Y97438D01*
X366826Y96578D01*
X369011Y96053D01*
X371252Y95877D01*
X373493Y96053D01*
X375678Y96578D01*
X377755Y97438D01*
X379671Y98613D01*
X381380Y100072D01*
X382480Y101360D01*
X382980Y101176D01*
Y94520D01*
X304420Y94520D01*
Y121100D01*
X304342Y121490D01*
X304121Y121821D01*
X303790Y122042D01*
X303400Y122120D01*
X218600Y122120D01*
X218210Y122042D01*
X217879Y121821D01*
X217658Y121490D01*
X217580Y121100D01*
Y94520D01*
X212878D01*
X212520Y94992D01*
X207598D01*
X202677D01*
X202319Y94520D01*
X198900D01*
X198510Y94442D01*
X198179Y94221D01*
X197958Y93890D01*
X197880Y93500D01*
Y88139D01*
X191503D01*
Y84189D01*
Y80239D01*
X197880D01*
Y61761D01*
X191503D01*
Y57811D01*
Y53861D01*
X197880D01*
Y32696D01*
X197380Y32503D01*
X196704Y32783D01*
X195905Y32889D01*
X195107Y32783D01*
X194363Y32475D01*
X193724Y31985D01*
X193233Y31346D01*
X192925Y30602D01*
X192820Y29803D01*
X192925Y29005D01*
X193233Y28260D01*
X193724Y27621D01*
X194363Y27131D01*
X195107Y26823D01*
X195905Y26718D01*
X196704Y26823D01*
X197380Y27103D01*
X197880Y26910D01*
Y8090D01*
X197380Y7897D01*
X196704Y8177D01*
X195905Y8282D01*
X195107Y8177D01*
X194363Y7869D01*
X193724Y7379D01*
X193233Y6740D01*
X192925Y5995D01*
X192820Y5197D01*
X192909Y4520D01*
X192610Y4020D01*
X184201D01*
Y8157D01*
X182771D01*
X182475Y8355D01*
X181500Y8549D01*
X176056D01*
X172802Y11802D01*
X171976Y12355D01*
X171000Y12549D01*
X161390D01*
Y14240D01*
X146610D01*
Y12647D01*
X87508D01*
Y14535D01*
X86549D01*
Y16944D01*
X89802Y20198D01*
X90355Y21024D01*
X90549Y22000D01*
Y45000D01*
X90355Y45976D01*
X89802Y46802D01*
X86549Y50056D01*
Y50661D01*
X87508D01*
Y52451D01*
X93394D01*
X93487Y52380D01*
X94217Y52077D01*
X95000Y51974D01*
X95783Y52077D01*
X96513Y52380D01*
X97140Y52860D01*
X97620Y53487D01*
X97923Y54217D01*
X98026Y55000D01*
X97923Y55783D01*
X97620Y56513D01*
X97140Y57140D01*
X96513Y57621D01*
X95783Y57923D01*
X95000Y58026D01*
X94217Y57923D01*
X93487Y57621D01*
X93394Y57549D01*
X87508D01*
Y59535D01*
X80602D01*
Y50661D01*
X81451D01*
Y49000D01*
X81645Y48024D01*
X82198Y47198D01*
X85451Y43944D01*
Y23056D01*
X84000Y21605D01*
X79802Y25802D01*
X78975Y26355D01*
X78000Y26549D01*
X50500D01*
X50471Y26543D01*
X47903D01*
Y63457D01*
X54319D01*
Y71543D01*
X36390D01*
Y63457D01*
X42805D01*
Y26543D01*
X36390D01*
Y18457D01*
X54319D01*
Y21451D01*
X58398D01*
X58431Y20951D01*
X58217Y20923D01*
X57487Y20620D01*
X56860Y20140D01*
X56379Y19513D01*
X56077Y18783D01*
X55974Y18000D01*
X56077Y17217D01*
X56379Y16487D01*
X56860Y15860D01*
X57487Y15380D01*
X58217Y15077D01*
X59000Y14974D01*
X59783Y15077D01*
X60513Y15380D01*
X61140Y15860D01*
X61608Y16471D01*
X73195D01*
X73471Y16195D01*
Y14535D01*
X71547D01*
Y5661D01*
X78453D01*
Y14535D01*
X76529D01*
Y16828D01*
X76413Y17414D01*
X76081Y17910D01*
X74910Y19081D01*
X74414Y19413D01*
X73828Y19529D01*
X61608D01*
X61140Y20140D01*
X60513Y20620D01*
X59783Y20923D01*
X59569Y20951D01*
X59601Y21451D01*
X76944D01*
X81451Y16944D01*
Y14535D01*
X80602D01*
Y5661D01*
X87508D01*
Y7549D01*
X146610D01*
Y5760D01*
X161390D01*
Y7451D01*
X169944D01*
X172876Y4520D01*
X172669Y4020D01*
X4020D01*
X4020Y350280D01*
X133459D01*
Y321000D01*
X133617Y320617D01*
X134000Y320459D01*
X144459D01*
Y315833D01*
X142370D01*
Y316732D01*
X137630D01*
Y316088D01*
X124529D01*
Y317689D01*
X126650D01*
Y328532D01*
X119350D01*
Y317689D01*
X121471D01*
Y316088D01*
X117559D01*
X116974Y315972D01*
X116478Y315640D01*
X114919Y314081D01*
X114587Y313585D01*
X114471Y313000D01*
Y304633D01*
X113366Y303529D01*
X107529D01*
Y318828D01*
X107413Y319414D01*
X107081Y319910D01*
X105910Y321081D01*
X105414Y321413D01*
X104828Y321529D01*
X97608D01*
X97140Y322140D01*
X96513Y322621D01*
X95783Y322923D01*
X95000Y323026D01*
X94217Y322923D01*
X93487Y322621D01*
X92860Y322140D01*
X92379Y321513D01*
X92077Y320783D01*
X91974Y320000D01*
X92077Y319217D01*
X92379Y318487D01*
X92860Y317860D01*
X93487Y317379D01*
X94217Y317077D01*
X95000Y316974D01*
X95783Y317077D01*
X96513Y317379D01*
X97140Y317860D01*
X97608Y318471D01*
X104195D01*
X104471Y318195D01*
Y303214D01*
X104273Y303081D01*
X104247Y303043D01*
X96390D01*
Y294957D01*
X114319D01*
Y300534D01*
X114585Y300587D01*
X115081Y300919D01*
X117081Y302919D01*
X117413Y303415D01*
X117529Y304000D01*
Y312367D01*
X118193Y313030D01*
X137630D01*
Y312386D01*
X142370D01*
Y313285D01*
X144093D01*
X144226Y313153D01*
Y307000D01*
X144323Y306512D01*
X144599Y306099D01*
X146423Y304275D01*
X146417Y304176D01*
X146260Y303774D01*
X142035D01*
Y304772D01*
X141255D01*
Y307268D01*
X142370D01*
Y311614D01*
X137630D01*
Y307268D01*
X138706D01*
Y305125D01*
X138358Y304777D01*
X137865Y304802D01*
X137614Y305159D01*
Y305272D01*
X135539D01*
Y302500D01*
X135039D01*
D01*
X135539D01*
Y299728D01*
X137614D01*
Y299841D01*
X137886Y300228D01*
X138114Y300228D01*
X142035D01*
Y301225D01*
X151921D01*
X154948Y298199D01*
X155361Y297922D01*
X155849Y297826D01*
X156105Y297877D01*
X162740D01*
X162941Y297632D01*
X165853D01*
Y297131D01*
X166353D01*
Y295416D01*
X166892D01*
X167297Y295332D01*
X167382Y294927D01*
Y294387D01*
X169097D01*
Y293887D01*
X169597D01*
Y291120D01*
X169966Y291194D01*
X170078Y291269D01*
X170196Y291190D01*
X170565Y291116D01*
Y294868D01*
Y298619D01*
X170196Y298546D01*
X169752Y298249D01*
X169454Y297804D01*
X169350Y297279D01*
Y297101D01*
X169199Y296994D01*
X168721Y297152D01*
X168651Y297217D01*
Y297476D01*
X168546Y298001D01*
X168249Y298445D01*
X168099Y298546D01*
X168141Y298756D01*
Y299445D01*
X168099Y299654D01*
X168249Y299755D01*
X168546Y300199D01*
X168620Y300569D01*
X165853D01*
Y301569D01*
X168678D01*
X168908Y301848D01*
X168908D01*
Y303997D01*
X169441D01*
X169860Y303570D01*
Y302889D01*
X169925Y302560D01*
X170112Y302280D01*
X170391Y302094D01*
X170721Y302028D01*
X171410D01*
X171739Y302094D01*
X172019Y302280D01*
X172081D01*
X172360Y302094D01*
X172689Y302028D01*
X173378D01*
X173708Y302094D01*
X173987Y302280D01*
X174174Y302560D01*
X174239Y302889D01*
Y303570D01*
X174658Y303997D01*
X175347D01*
X175676Y304062D01*
X175827Y304163D01*
X176187Y303802D01*
X176126Y303711D01*
X176061Y303381D01*
Y302693D01*
X176102Y302483D01*
X175952Y302382D01*
X175655Y301938D01*
X175582Y301569D01*
X178349D01*
X181274D01*
X181434Y301763D01*
X194471D01*
Y295744D01*
X194342Y295658D01*
X193833Y294897D01*
X193655Y294000D01*
X193833Y293103D01*
X194342Y292342D01*
X194437Y292278D01*
Y276267D01*
X194275Y276158D01*
X193766Y275397D01*
X193588Y274500D01*
X193766Y273603D01*
X194275Y272842D01*
X195036Y272333D01*
X195933Y272155D01*
X196085Y272185D01*
X197852Y270419D01*
X198348Y270087D01*
X198933Y269971D01*
X275256D01*
X275342Y269842D01*
X276103Y269333D01*
X277000Y269155D01*
X277897Y269333D01*
X278658Y269842D01*
X279167Y270603D01*
X279345Y271500D01*
X279167Y272397D01*
X278658Y273158D01*
X277897Y273667D01*
X277000Y273845D01*
X276103Y273667D01*
X275342Y273158D01*
X275256Y273029D01*
X242505D01*
Y274465D01*
X243247D01*
Y278386D01*
X243247Y278614D01*
X243635Y278886D01*
X243747D01*
Y280961D01*
X240976D01*
X238204D01*
Y278886D01*
X238316D01*
X238704Y278614D01*
X238704Y278386D01*
Y274465D01*
X239446D01*
Y273609D01*
X238866Y273029D01*
X235481D01*
Y274465D01*
X236223D01*
Y278614D01*
X236610Y278886D01*
X236723D01*
Y280961D01*
X233951D01*
X231180D01*
Y278886D01*
X231292D01*
X231680Y278614D01*
Y274465D01*
X232422D01*
Y273085D01*
X232366Y273029D01*
X227505D01*
Y274465D01*
X228223D01*
Y278614D01*
X228610Y278886D01*
X228723D01*
Y280961D01*
X225951D01*
X223180D01*
Y278886D01*
X223292D01*
X223680Y278614D01*
Y274465D01*
X224446D01*
Y273029D01*
X219481D01*
Y274465D01*
X220223D01*
Y278386D01*
X220223Y278614D01*
X220610Y278886D01*
X220723D01*
Y280961D01*
X215180D01*
Y278886D01*
X215292D01*
X215680Y278614D01*
X215680Y278386D01*
Y274465D01*
X216422D01*
Y273585D01*
X215866Y273029D01*
X211481D01*
Y274465D01*
X212223D01*
Y278386D01*
X212223Y278614D01*
X212610Y278886D01*
X212723D01*
Y280961D01*
X207180D01*
Y278886D01*
X207292D01*
X207680Y278614D01*
X207680Y278386D01*
Y274465D01*
X208422D01*
Y273585D01*
X207867Y273029D01*
X203791D01*
X203474Y273416D01*
X203481Y273451D01*
Y274465D01*
X204223D01*
Y278386D01*
X204223Y278614D01*
X204610Y278886D01*
X204723D01*
Y280961D01*
X199180D01*
Y278886D01*
X199292D01*
X199680Y278614D01*
X199680Y278386D01*
Y274465D01*
X200132D01*
X200302Y273965D01*
X199467Y273129D01*
X198248Y274348D01*
X198278Y274500D01*
X198100Y275397D01*
X197591Y276158D01*
X197496Y276222D01*
Y292233D01*
X197658Y292342D01*
X198167Y293103D01*
X198345Y294000D01*
X198167Y294897D01*
X197658Y295658D01*
X197529Y295744D01*
Y304867D01*
X207081Y314419D01*
X207413Y314915D01*
X207529Y315500D01*
Y326195D01*
X207805Y326471D01*
X208981D01*
Y318890D01*
X217068D01*
Y326726D01*
X235472D01*
X236226Y325972D01*
Y322173D01*
X235130D01*
Y317827D01*
X239870D01*
Y322173D01*
X238774D01*
Y326500D01*
X238678Y326988D01*
X238401Y327401D01*
X236901Y328901D01*
X236488Y329177D01*
X236000Y329275D01*
X217068D01*
Y336819D01*
X208981D01*
Y329529D01*
X207172D01*
X207041Y329503D01*
X206549Y329887D01*
X206541Y329914D01*
Y350280D01*
X270188D01*
Y343025D01*
D02*
G37*
G36*
X171630Y309263D02*
X171565Y309211D01*
Y305301D01*
X170565D01*
Y309052D01*
X170196Y308979D01*
X169752Y308682D01*
X169651Y308531D01*
X169441Y308573D01*
X168752D01*
X168423Y308508D01*
X168143Y308321D01*
X168013Y308125D01*
X159986D01*
X158378Y309734D01*
Y310565D01*
X159120D01*
Y314486D01*
X159120Y314714D01*
X159508Y314986D01*
X159620D01*
Y317061D01*
X154077D01*
Y314986D01*
X154190D01*
X154577Y314714D01*
X154577Y314486D01*
Y310565D01*
X155319D01*
Y309100D01*
X155436Y308515D01*
X155767Y308019D01*
X158271Y305515D01*
X158293Y305500D01*
X158142Y305000D01*
X155302D01*
X154248Y306054D01*
X153835Y306330D01*
X153347Y306427D01*
X147875D01*
X146774Y307528D01*
Y313680D01*
X146677Y314168D01*
X146401Y314582D01*
X145522Y315460D01*
X145109Y315737D01*
X145000Y315758D01*
Y321000D01*
X134000D01*
Y350280D01*
X171630D01*
Y309263D01*
D02*
G37*
G36*
X206000Y328991D02*
X204919Y327910D01*
X204587Y327414D01*
X204471Y326828D01*
Y316133D01*
X194919Y306581D01*
X194587Y306085D01*
X194471Y305500D01*
Y304773D01*
X194198Y304500D01*
X188757D01*
X188605Y305000D01*
X188910Y305204D01*
X190081Y306375D01*
X190413Y306871D01*
X190529Y307457D01*
Y310465D01*
X191272D01*
Y314386D01*
X191272Y314614D01*
X191659Y314886D01*
X191772D01*
Y316961D01*
X186228D01*
Y314886D01*
X186341D01*
X186728Y314614D01*
X186728Y314386D01*
Y310465D01*
X187471D01*
Y308090D01*
X187195Y307814D01*
X176188D01*
X176142Y308042D01*
X175956Y308321D01*
X175676Y308508D01*
X175347Y308573D01*
X174658D01*
X174448Y308531D01*
X174348Y308682D01*
X173903Y308979D01*
X173534Y309052D01*
Y305301D01*
X172534D01*
Y309211D01*
X172500Y309238D01*
Y350280D01*
X206000D01*
Y328991D01*
D02*
G37*
%LPC*%
G36*
X127150Y342811D02*
X123500D01*
Y337390D01*
X127150D01*
Y342811D01*
D02*
G37*
G36*
X122500D02*
X118850D01*
Y337390D01*
X122500D01*
Y342811D01*
D02*
G37*
G36*
X127150Y336390D02*
X123500D01*
Y330968D01*
X127150D01*
Y336390D01*
D02*
G37*
G36*
X122500D02*
X118850D01*
Y330968D01*
X122500D01*
Y336390D01*
D02*
G37*
G36*
X26708Y331353D02*
X19409D01*
Y321495D01*
X26708D01*
Y331353D01*
D02*
G37*
G36*
X13059Y331384D02*
X12106Y331259D01*
X11218Y330891D01*
X10456Y330306D01*
X9871Y329544D01*
X9503Y328656D01*
X9378Y327703D01*
Y325144D01*
X9503Y324191D01*
X9871Y323304D01*
X10456Y322541D01*
X11218Y321956D01*
X12106Y321588D01*
X13059Y321463D01*
X14012Y321588D01*
X14899Y321956D01*
X15662Y322541D01*
X16247Y323304D01*
X16614Y324191D01*
X16740Y325144D01*
Y327703D01*
X16614Y328656D01*
X16247Y329544D01*
X15662Y330306D01*
X14899Y330891D01*
X14012Y331259D01*
X13059Y331384D01*
D02*
G37*
G36*
X68000Y348724D02*
X65759Y348547D01*
X63574Y348023D01*
X61497Y347163D01*
X59581Y345988D01*
X57872Y344528D01*
X56412Y342819D01*
X55238Y340903D01*
X54377Y338826D01*
X53853Y336641D01*
X53676Y334400D01*
X53853Y332159D01*
X54377Y329974D01*
X55238Y327897D01*
X56412Y325981D01*
X57872Y324272D01*
X59581Y322812D01*
X61497Y321638D01*
X63574Y320777D01*
X65759Y320253D01*
X68000Y320076D01*
X70241Y320253D01*
X72426Y320777D01*
X74503Y321638D01*
X76419Y322812D01*
X78128Y324272D01*
X79588Y325981D01*
X80762Y327897D01*
X81623Y329974D01*
X82147Y332159D01*
X82324Y334400D01*
X82147Y336641D01*
X81623Y338826D01*
X80762Y340903D01*
X79588Y342819D01*
X78128Y344528D01*
X76419Y345988D01*
X74503Y347163D01*
X72426Y348023D01*
X70241Y348547D01*
X68000Y348724D01*
D02*
G37*
G36*
X381437Y318837D02*
X372563D01*
Y315420D01*
X370900D01*
X370510Y315342D01*
X370179Y315121D01*
X369529Y314471D01*
X368644D01*
Y315701D01*
X369144D01*
Y317951D01*
X359244D01*
Y315701D01*
X359744D01*
Y311201D01*
X368644D01*
Y312432D01*
X369951D01*
X370341Y312509D01*
X370672Y312730D01*
X371322Y313380D01*
X372563D01*
Y310194D01*
X372563Y310194D01*
X372563D01*
X372554Y309732D01*
X372544Y309471D01*
X372456Y309471D01*
X368644D01*
Y310701D01*
X359744D01*
Y309520D01*
X314086D01*
X313696Y309442D01*
X313365Y309221D01*
X312779Y308635D01*
X312558Y308304D01*
X312480Y307914D01*
Y287690D01*
X312430Y287656D01*
X312102Y287165D01*
X311987Y286586D01*
X312102Y286007D01*
X312430Y285516D01*
X312921Y285188D01*
X313500Y285072D01*
X314079Y285188D01*
X314570Y285516D01*
X314898Y286007D01*
X315013Y286586D01*
X314898Y287165D01*
X314570Y287656D01*
X314520Y287690D01*
Y307480D01*
X359744D01*
Y306201D01*
X368644D01*
Y307432D01*
X372527D01*
X373209Y306749D01*
X373124Y306638D01*
X372677Y305558D01*
X372525Y304400D01*
X372677Y303242D01*
X373124Y302162D01*
X373835Y301236D01*
X374762Y300524D01*
X375842Y300077D01*
X377000Y299925D01*
X378158Y300077D01*
X379238Y300524D01*
X380165Y301236D01*
X380876Y302162D01*
X381323Y303242D01*
X381475Y304400D01*
X381323Y305558D01*
X380876Y306638D01*
X380165Y307564D01*
X379238Y308276D01*
X378158Y308723D01*
X377000Y308875D01*
X375842Y308723D01*
X374762Y308276D01*
X374651Y308191D01*
X373670Y309172D01*
X373339Y309393D01*
X373044Y309452D01*
X372949Y309471D01*
X372968Y309963D01*
X373060Y309963D01*
X373063Y309963D01*
X381437D01*
Y318837D01*
D02*
G37*
G36*
X302215Y317951D02*
X292315D01*
Y315701D01*
X292815D01*
Y314726D01*
X289951D01*
X289463Y314629D01*
X289050Y314352D01*
X279099Y304401D01*
X278822Y303988D01*
X278726Y303500D01*
Y302035D01*
X277728D01*
Y301490D01*
X267119D01*
X266921Y301529D01*
X251500D01*
X250915Y301413D01*
X250419Y301081D01*
X245919Y296581D01*
X245587Y296085D01*
X245471Y295500D01*
Y292264D01*
X244971Y292215D01*
X244898Y292579D01*
X244570Y293070D01*
X244520Y293104D01*
Y298103D01*
X244570Y298137D01*
X244898Y298628D01*
X245013Y299207D01*
X244898Y299786D01*
X244570Y300277D01*
X244079Y300605D01*
X243500Y300720D01*
X242921Y300605D01*
X242430Y300277D01*
X242102Y299786D01*
X241987Y299207D01*
X242102Y298628D01*
X242430Y298137D01*
X242480Y298103D01*
Y293104D01*
X242430Y293070D01*
X242102Y292579D01*
X241987Y292000D01*
X242102Y291421D01*
X242363Y291029D01*
X242246Y290673D01*
X242142Y290529D01*
X232108D01*
X231640Y291140D01*
X231013Y291620D01*
X230283Y291923D01*
X229500Y292026D01*
X228717Y291923D01*
X227987Y291620D01*
X227360Y291140D01*
X226880Y290513D01*
X226577Y289783D01*
X226474Y289000D01*
X226577Y288217D01*
X226880Y287487D01*
X227360Y286860D01*
X227804Y286520D01*
X227635Y286020D01*
X224827D01*
X224197Y286649D01*
X223866Y286870D01*
X223476Y286948D01*
X222710D01*
X222574Y287152D01*
X222083Y287480D01*
X221504Y287595D01*
X220925Y287480D01*
X220434Y287152D01*
X220106Y286661D01*
X219991Y286081D01*
X220106Y285502D01*
X220434Y285011D01*
X220925Y284683D01*
X221504Y284568D01*
X222083Y284683D01*
X222421Y284909D01*
X223054D01*
X223427Y284535D01*
X223220Y284035D01*
X223180D01*
Y281961D01*
X225951D01*
X228723D01*
Y283980D01*
X231180D01*
Y281961D01*
X233951D01*
X236723D01*
Y284035D01*
X236723Y284035D01*
X236903Y284461D01*
X236940Y284499D01*
X237000Y284487D01*
X237579Y284602D01*
X238070Y284930D01*
X238398Y285421D01*
X238513Y286000D01*
X238398Y286579D01*
X238137Y286971D01*
X238254Y287327D01*
X238358Y287471D01*
X264729D01*
X265626Y286573D01*
X265435Y286111D01*
X262298D01*
Y284662D01*
X255432D01*
X255079Y284898D01*
X254500Y285013D01*
X253921Y284898D01*
X253430Y284570D01*
X253396Y284520D01*
X250700D01*
Y286111D01*
X246157D01*
Y281174D01*
X250700D01*
Y282480D01*
X253396D01*
X253430Y282430D01*
X253921Y282102D01*
X254500Y281987D01*
X255079Y282102D01*
X255570Y282430D01*
X255699Y282623D01*
X262298D01*
Y281174D01*
X265900D01*
X266300Y280774D01*
X266108Y280312D01*
X265070D01*
Y277343D01*
Y274375D01*
X267341D01*
Y277120D01*
X267587Y277257D01*
X267842Y277302D01*
X268365Y276779D01*
X268696Y276558D01*
X269086Y276480D01*
X269630D01*
Y275268D01*
X274370D01*
Y276421D01*
X275414D01*
X275804Y276499D01*
X276135Y276720D01*
X281221Y281806D01*
X281442Y282137D01*
X281520Y282527D01*
Y289414D01*
X281442Y289804D01*
X281221Y290135D01*
X280635Y290721D01*
X280304Y290942D01*
X279914Y291020D01*
X278422D01*
X277477Y291965D01*
X277684Y292465D01*
X279500D01*
Y295039D01*
X280000D01*
Y295539D01*
X282772D01*
Y297614D01*
X282659D01*
X282272Y297886D01*
X282272Y298114D01*
Y302035D01*
X282693Y302225D01*
X285307D01*
X285728Y302035D01*
Y298114D01*
X285728Y297886D01*
X285341Y297614D01*
X285228D01*
Y295539D01*
X288000D01*
X290772D01*
Y297614D01*
X290659D01*
X290272Y297886D01*
X290272Y298114D01*
Y302035D01*
X289275D01*
Y302621D01*
X289177Y303109D01*
X288901Y303522D01*
X288022Y304401D01*
X287609Y304678D01*
X287121Y304774D01*
X283730D01*
X283539Y305236D01*
X286740Y308438D01*
X287128Y308119D01*
X287102Y308079D01*
X286987Y307500D01*
X287102Y306921D01*
X287430Y306430D01*
X287921Y306102D01*
X288500Y305987D01*
X289079Y306102D01*
X289570Y306430D01*
X289898Y306921D01*
X289977Y307319D01*
X290090Y307432D01*
X292815D01*
Y306201D01*
X301715D01*
Y310701D01*
X292815D01*
Y309471D01*
X289668D01*
X289277Y309393D01*
X288947Y309172D01*
X288740Y308966D01*
X288500Y309013D01*
X287921Y308898D01*
X287881Y308872D01*
X287562Y309260D01*
X290479Y312177D01*
X292815D01*
Y311201D01*
X301715D01*
Y315701D01*
X302215D01*
Y317951D01*
D02*
G37*
G36*
X239870Y317055D02*
X235130D01*
Y312709D01*
X236226D01*
Y309673D01*
X235130D01*
Y305555D01*
X235130Y305327D01*
X234742Y305055D01*
X234630D01*
Y302882D01*
X237500D01*
X240370D01*
Y305055D01*
X240258D01*
X239870Y305327D01*
X239870Y305480D01*
X240051Y305980D01*
X241810D01*
X241844Y305930D01*
X242335Y305602D01*
X242914Y305487D01*
X243493Y305602D01*
X243984Y305930D01*
X244312Y306421D01*
X244427Y307000D01*
X244312Y307579D01*
X243984Y308070D01*
X243493Y308398D01*
X242914Y308513D01*
X242335Y308398D01*
X241844Y308070D01*
X241810Y308020D01*
X239870D01*
Y309673D01*
X238774D01*
Y312709D01*
X239870D01*
Y317055D01*
D02*
G37*
G36*
X368644Y305701D02*
X359744D01*
Y304520D01*
X336104D01*
X336070Y304570D01*
X335579Y304898D01*
X335000Y305013D01*
X334421Y304898D01*
X333930Y304570D01*
X333602Y304079D01*
X333487Y303500D01*
X333602Y302921D01*
X333930Y302430D01*
X334421Y302102D01*
X335000Y301987D01*
X335579Y302102D01*
X336070Y302430D01*
X336104Y302480D01*
X359744D01*
Y301201D01*
X368644D01*
Y301761D01*
X369106Y301952D01*
X373687Y297371D01*
X373124Y296638D01*
X372677Y295558D01*
X372525Y294400D01*
X372677Y293242D01*
X373124Y292162D01*
X373835Y291235D01*
X374762Y290524D01*
X375842Y290077D01*
X377000Y289925D01*
X378158Y290077D01*
X379238Y290524D01*
X380165Y291235D01*
X380876Y292162D01*
X381323Y293242D01*
X381475Y294400D01*
X381323Y295558D01*
X380876Y296638D01*
X380165Y297565D01*
X379238Y298276D01*
X378158Y298723D01*
X377000Y298875D01*
X375842Y298723D01*
X375401Y298540D01*
X369779Y304163D01*
X369448Y304384D01*
X369058Y304461D01*
X368644D01*
Y305701D01*
D02*
G37*
G36*
X134539Y305272D02*
X132465D01*
Y303000D01*
X134539D01*
Y305272D01*
D02*
G37*
G36*
X301715Y305701D02*
X292815D01*
Y301201D01*
X301715D01*
Y305701D01*
D02*
G37*
G36*
X134539Y302000D02*
X132465D01*
Y299728D01*
X134539D01*
Y302000D01*
D02*
G37*
G36*
X240370Y301882D02*
X238000D01*
Y299709D01*
X240370D01*
Y301882D01*
D02*
G37*
G36*
X237000D02*
X234630D01*
Y299709D01*
X237000D01*
Y301882D01*
D02*
G37*
G36*
X181116Y300569D02*
X178349D01*
X175582D01*
X175655Y300199D01*
X175732Y300084D01*
X175655Y299969D01*
X175582Y299600D01*
X178349D01*
X181116D01*
X181042Y299969D01*
X180965Y300084D01*
X181042Y300199D01*
X181116Y300569D01*
D02*
G37*
G36*
X84110Y303543D02*
X75146D01*
Y299500D01*
X84110D01*
Y303543D01*
D02*
G37*
G36*
X74146D02*
X65181D01*
Y299500D01*
X74146D01*
Y303543D01*
D02*
G37*
G36*
X217568Y306610D02*
X213524D01*
Y297646D01*
X217568D01*
Y306610D01*
D02*
G37*
G36*
X212524D02*
X208481D01*
Y297646D01*
X212524D01*
Y306610D01*
D02*
G37*
G36*
X181116Y298600D02*
X178349D01*
X175582D01*
X175655Y298231D01*
X175952Y297786D01*
X176189Y297628D01*
X176159Y297476D01*
Y296990D01*
X176087Y296888D01*
X175797Y296659D01*
X175683Y296619D01*
X175502Y296655D01*
Y293887D01*
Y291120D01*
X175871Y291194D01*
X176316Y291491D01*
X176613Y291936D01*
X176718Y292460D01*
Y293960D01*
X176935Y294033D01*
X177218Y294043D01*
X177448Y293699D01*
X179574Y291572D01*
Y286600D01*
X179671Y286112D01*
X179948Y285699D01*
X181448Y284199D01*
X181861Y283923D01*
X182349Y283825D01*
X184313D01*
Y282828D01*
X188235D01*
X188463Y282828D01*
X188735Y282441D01*
Y282328D01*
X190809D01*
Y285100D01*
Y287872D01*
X188735D01*
Y287759D01*
X188463Y287372D01*
X188235Y287372D01*
X184313D01*
Y286374D01*
X182877D01*
X182123Y287128D01*
Y292100D01*
X182026Y292588D01*
X181750Y293001D01*
X179623Y295128D01*
Y295926D01*
X179874D01*
X180204Y295991D01*
X180483Y296178D01*
X180670Y296458D01*
X180735Y296787D01*
Y297476D01*
X180682Y297744D01*
X180745Y297786D01*
X181042Y298231D01*
X181116Y298600D01*
D02*
G37*
G36*
X301715Y300701D02*
X292815D01*
Y296201D01*
X301715D01*
Y300701D01*
D02*
G37*
G36*
X165353Y296632D02*
X163086D01*
X163159Y296262D01*
X163456Y295818D01*
X163901Y295520D01*
X164426Y295416D01*
X165353D01*
Y296632D01*
D02*
G37*
G36*
X334500Y298000D02*
Y294900D01*
X337600D01*
Y298000D01*
X334500D01*
D02*
G37*
G36*
X319051D02*
X315951D01*
Y294900D01*
X319051D01*
Y298000D01*
D02*
G37*
G36*
X84110Y298500D02*
X75146D01*
Y294457D01*
X84110D01*
Y298500D01*
D02*
G37*
G36*
X74146D02*
X65181D01*
Y294457D01*
X74146D01*
Y298500D01*
D02*
G37*
G36*
X324500Y301513D02*
X323921Y301398D01*
X323430Y301070D01*
X323102Y300579D01*
X322987Y300000D01*
X323102Y299421D01*
X323430Y298930D01*
X323921Y298602D01*
X324433Y298500D01*
X324384Y298000D01*
X323176Y298000D01*
X322676Y298000D01*
X320051D01*
Y294400D01*
X319551D01*
Y293900D01*
X315951D01*
Y291276D01*
X315951Y290800D01*
X315951Y290300D01*
Y287676D01*
X319551D01*
Y286676D01*
X315951D01*
Y284051D01*
X315951Y283576D01*
X315951Y283076D01*
Y280451D01*
X319551D01*
Y279951D01*
X320051D01*
Y276351D01*
X322676D01*
X323151Y276351D01*
X323651Y276351D01*
X326276D01*
Y279951D01*
X327276D01*
Y276351D01*
X329900D01*
X330376Y276351D01*
X330876Y276351D01*
X333500D01*
Y279951D01*
X334000D01*
Y280451D01*
X337600D01*
Y283076D01*
X337600Y283551D01*
X337600Y284051D01*
Y286676D01*
X334000D01*
Y287676D01*
X337600D01*
Y290300D01*
X337600Y290776D01*
X337600Y291276D01*
Y293900D01*
X334000D01*
Y294400D01*
X333500D01*
Y298000D01*
X330876D01*
X330400Y298000D01*
X329900Y298000D01*
X327276D01*
Y294400D01*
X326276D01*
Y298000D01*
X324616D01*
X324567Y298500D01*
X325079Y298602D01*
X325570Y298930D01*
X325604Y298980D01*
X353578D01*
X354828Y297730D01*
X355159Y297509D01*
X355549Y297431D01*
X359744D01*
Y296201D01*
X368644D01*
Y297431D01*
X369980D01*
Y294536D01*
X369480Y294324D01*
X369304Y294442D01*
X368914Y294520D01*
X368644D01*
Y295701D01*
X359744D01*
Y294471D01*
X341636D01*
X341570Y294570D01*
X341079Y294898D01*
X340500Y295013D01*
X339921Y294898D01*
X339430Y294570D01*
X339102Y294079D01*
X338987Y293500D01*
X339102Y292921D01*
X339430Y292430D01*
X339921Y292102D01*
X340500Y291987D01*
X341079Y292102D01*
X341570Y292430D01*
X341571Y292431D01*
X359744D01*
Y291201D01*
X368480D01*
Y290701D01*
X359744D01*
Y286201D01*
X364973D01*
X364752Y285701D01*
X359744D01*
Y284471D01*
X345637D01*
X345570Y284570D01*
X345079Y284898D01*
X344500Y285013D01*
X343921Y284898D01*
X343430Y284570D01*
X343102Y284079D01*
X342987Y283500D01*
X343102Y282921D01*
X343430Y282430D01*
X343921Y282102D01*
X344500Y281987D01*
X345079Y282102D01*
X345570Y282430D01*
X345571Y282432D01*
X359744D01*
Y281201D01*
X368480D01*
Y280701D01*
X359744D01*
Y279471D01*
X350672D01*
X350630Y279533D01*
X350581Y279581D01*
X350085Y279913D01*
X349500Y280029D01*
X348915Y279913D01*
X348419Y279581D01*
X348087Y279085D01*
X347971Y278500D01*
X348087Y277915D01*
X348419Y277419D01*
X348467Y277370D01*
X348964Y277038D01*
X349549Y276922D01*
X350134Y277038D01*
X350630Y277370D01*
X350672Y277432D01*
X359744D01*
Y276201D01*
X368480D01*
Y275701D01*
X359744D01*
Y274471D01*
X311951D01*
X311833Y274447D01*
X311500Y274513D01*
X310921Y274398D01*
X310430Y274070D01*
X310102Y273579D01*
X309987Y273000D01*
X310102Y272421D01*
X310430Y271930D01*
X310921Y271602D01*
X311500Y271487D01*
X312079Y271602D01*
X312570Y271930D01*
X312898Y272421D01*
X312900Y272431D01*
X359744D01*
Y271201D01*
X368644D01*
Y271707D01*
X369144Y271914D01*
X373687Y267371D01*
X373124Y266638D01*
X372677Y265558D01*
X372525Y264400D01*
X372677Y263242D01*
X373124Y262162D01*
X373835Y261235D01*
X374762Y260524D01*
X375842Y260077D01*
X377000Y259925D01*
X378158Y260077D01*
X379238Y260524D01*
X380165Y261235D01*
X380876Y262162D01*
X381323Y263242D01*
X381475Y264400D01*
X381323Y265558D01*
X380876Y266638D01*
X380165Y267565D01*
X379238Y268276D01*
X378158Y268723D01*
X377000Y268875D01*
X375842Y268723D01*
X375401Y268541D01*
X370520Y273422D01*
Y278785D01*
X370982Y278976D01*
X373209Y276749D01*
X373124Y276638D01*
X372677Y275558D01*
X372525Y274400D01*
X372677Y273242D01*
X373124Y272162D01*
X373835Y271235D01*
X374762Y270524D01*
X375842Y270077D01*
X377000Y269925D01*
X378158Y270077D01*
X379238Y270524D01*
X380165Y271235D01*
X380876Y272162D01*
X381323Y273242D01*
X381475Y274400D01*
X381323Y275558D01*
X380876Y276638D01*
X380165Y277565D01*
X379238Y278276D01*
X378158Y278723D01*
X377000Y278875D01*
X375842Y278723D01*
X374762Y278276D01*
X374651Y278191D01*
X372020Y280822D01*
Y287881D01*
X372520Y288088D01*
X373492Y287116D01*
X373124Y286638D01*
X372677Y285558D01*
X372525Y284400D01*
X372677Y283242D01*
X373124Y282162D01*
X373835Y281236D01*
X374762Y280524D01*
X375842Y280077D01*
X377000Y279925D01*
X378158Y280077D01*
X379238Y280524D01*
X380165Y281236D01*
X380876Y282162D01*
X381323Y283242D01*
X381475Y284400D01*
X381323Y285558D01*
X380876Y286638D01*
X380165Y287564D01*
X379238Y288276D01*
X378158Y288723D01*
X377000Y288875D01*
X375842Y288723D01*
X375083Y288409D01*
X372020Y291472D01*
Y297865D01*
X371942Y298255D01*
X371721Y298586D01*
X371135Y299172D01*
X370804Y299393D01*
X370414Y299471D01*
X368644D01*
Y300701D01*
X359744D01*
Y299471D01*
X355971D01*
X354721Y300721D01*
X354390Y300942D01*
X354000Y301020D01*
X325604D01*
X325570Y301070D01*
X325079Y301398D01*
X324500Y301513D01*
D02*
G37*
G36*
X14968Y300819D02*
X11032D01*
X10130Y300701D01*
X9290Y300353D01*
X8569Y299799D01*
X8016Y299078D01*
X7668Y298238D01*
X7549Y297337D01*
X7668Y296436D01*
X8016Y295596D01*
X8569Y294875D01*
X9290Y294321D01*
X10130Y293973D01*
X11032Y293854D01*
X14968D01*
X15870Y293973D01*
X16710Y294321D01*
X17431Y294875D01*
X17985Y295596D01*
X18332Y296436D01*
X18451Y297337D01*
X18332Y298238D01*
X17985Y299078D01*
X17431Y299799D01*
X16710Y300353D01*
X15870Y300701D01*
X14968Y300819D01*
D02*
G37*
G36*
X126740Y298890D02*
X118260D01*
Y293029D01*
X57744D01*
X57658Y293158D01*
X56897Y293667D01*
X56000Y293845D01*
X55103Y293667D01*
X54342Y293158D01*
X53834Y292397D01*
X53655Y291500D01*
X53834Y290603D01*
X54342Y289842D01*
X55103Y289333D01*
X56000Y289155D01*
X56897Y289333D01*
X57658Y289842D01*
X57744Y289971D01*
X118260D01*
Y284110D01*
X126740D01*
Y292471D01*
X128756D01*
X128842Y292342D01*
X129603Y291833D01*
X130500Y291655D01*
X131397Y291833D01*
X132158Y292342D01*
X132667Y293103D01*
X132845Y294000D01*
X132667Y294897D01*
X132158Y295658D01*
X131397Y296167D01*
X130500Y296345D01*
X129603Y296167D01*
X128842Y295658D01*
X128756Y295529D01*
X126740D01*
Y298890D01*
D02*
G37*
G36*
X290772Y294539D02*
X288500D01*
Y292465D01*
X290772D01*
Y294539D01*
D02*
G37*
G36*
X287500D02*
X285228D01*
Y292465D01*
X287500D01*
Y294539D01*
D02*
G37*
G36*
X282772D02*
X280500D01*
Y292465D01*
X282772D01*
Y294539D01*
D02*
G37*
G36*
X168597Y293387D02*
X167382D01*
Y292460D01*
X167486Y291936D01*
X167783Y291491D01*
X168228Y291194D01*
X168597Y291120D01*
Y293387D01*
D02*
G37*
G36*
X217568Y296646D02*
X213524D01*
Y287681D01*
X217568D01*
Y296646D01*
D02*
G37*
G36*
X212524D02*
X208481D01*
Y287681D01*
X212524D01*
Y296646D01*
D02*
G37*
G36*
X18421Y292916D02*
X7579D01*
Y286010D01*
X18421D01*
Y292916D01*
D02*
G37*
G36*
X193884Y287872D02*
X191809D01*
Y285600D01*
X193884D01*
Y287872D01*
D02*
G37*
G36*
X154500Y283013D02*
X153921Y282898D01*
X153430Y282570D01*
X153396Y282520D01*
X131104D01*
X131070Y282570D01*
X130579Y282898D01*
X130000Y283013D01*
X129421Y282898D01*
X128930Y282570D01*
X128602Y282079D01*
X128487Y281500D01*
X128602Y280921D01*
X128930Y280430D01*
X129421Y280102D01*
X130000Y279987D01*
X130579Y280102D01*
X131070Y280430D01*
X131104Y280480D01*
X153396D01*
X153430Y280430D01*
X153921Y280102D01*
X154500Y279987D01*
X155079Y280102D01*
X155570Y280430D01*
X155898Y280921D01*
X156013Y281500D01*
X155898Y282079D01*
X155570Y282570D01*
X155079Y282898D01*
X154500Y283013D01*
D02*
G37*
G36*
X193884Y284600D02*
X191809D01*
Y282328D01*
X193884D01*
Y284600D01*
D02*
G37*
G36*
X243747Y284035D02*
X241476D01*
Y281961D01*
X243747D01*
Y284035D01*
D02*
G37*
G36*
X240476D02*
X238204D01*
Y281961D01*
X240476D01*
Y284035D01*
D02*
G37*
G36*
X220723D02*
X218451D01*
Y281961D01*
X220723D01*
Y284035D01*
D02*
G37*
G36*
X217451D02*
X215180D01*
Y281961D01*
X217451D01*
Y284035D01*
D02*
G37*
G36*
X212723D02*
X210451D01*
Y281961D01*
X212723D01*
Y284035D01*
D02*
G37*
G36*
X209451D02*
X207180D01*
Y281961D01*
X209451D01*
Y284035D01*
D02*
G37*
G36*
X204723D02*
X202451D01*
Y281961D01*
X204723D01*
Y284035D01*
D02*
G37*
G36*
X201451D02*
X199180D01*
Y281961D01*
X201451D01*
Y284035D01*
D02*
G37*
G36*
X301715Y295701D02*
X292815D01*
Y291201D01*
X301116D01*
X301332Y291025D01*
X301407Y290810D01*
X301357Y290701D01*
X292815D01*
Y289471D01*
X289137D01*
X289070Y289570D01*
X288579Y289898D01*
X288000Y290013D01*
X287421Y289898D01*
X286930Y289570D01*
X286602Y289079D01*
X286487Y288500D01*
X286602Y287921D01*
X286930Y287430D01*
X287421Y287102D01*
X288000Y286987D01*
X288579Y287102D01*
X289070Y287430D01*
X289071Y287432D01*
X292815D01*
Y286201D01*
X301715D01*
Y289484D01*
X302197Y289643D01*
X302480Y289372D01*
Y285042D01*
X302203Y284823D01*
X301715Y285033D01*
Y285701D01*
X292815D01*
Y281201D01*
X301715D01*
Y282480D01*
X302500D01*
X302890Y282558D01*
X303221Y282779D01*
X304221Y283779D01*
X304442Y284110D01*
X304520Y284500D01*
Y289396D01*
X304570Y289430D01*
X304898Y289921D01*
X304952Y290191D01*
X304980Y290335D01*
X305445Y290289D01*
X305480Y290212D01*
Y284104D01*
X305430Y284070D01*
X305102Y283579D01*
X304987Y283000D01*
X305102Y282421D01*
X305430Y281930D01*
X305921Y281602D01*
X306500Y281487D01*
X307079Y281602D01*
X307570Y281930D01*
X307898Y282421D01*
X308013Y283000D01*
X307898Y283579D01*
X307570Y284070D01*
X307520Y284104D01*
Y292865D01*
X307442Y293255D01*
X307221Y293586D01*
X306635Y294172D01*
X306304Y294393D01*
X305914Y294471D01*
X301715D01*
Y295701D01*
D02*
G37*
G36*
Y280701D02*
X292815D01*
Y279520D01*
X284104D01*
X284070Y279570D01*
X283579Y279898D01*
X283000Y280013D01*
X282421Y279898D01*
X281930Y279570D01*
X281602Y279079D01*
X281487Y278500D01*
X281602Y277921D01*
X281930Y277430D01*
X282421Y277102D01*
X283000Y276987D01*
X283579Y277102D01*
X284070Y277430D01*
X284104Y277480D01*
X292815D01*
Y276201D01*
X301715D01*
Y280701D01*
D02*
G37*
G36*
X171565Y298619D02*
Y294868D01*
Y291064D01*
X172014Y290696D01*
Y288774D01*
X167520D01*
X167033Y288678D01*
X166619Y288401D01*
X165448Y287230D01*
X165171Y286816D01*
X165074Y286328D01*
Y284332D01*
X163979D01*
Y280214D01*
X163979Y279986D01*
X163591Y279714D01*
X163479D01*
Y277541D01*
X166349D01*
X169219D01*
Y279714D01*
X169106D01*
X168719Y279986D01*
X168719Y280214D01*
Y284332D01*
X167623D01*
Y285801D01*
X168048Y286226D01*
X171759D01*
Y284535D01*
X170728D01*
Y280614D01*
X170728Y280386D01*
X170341Y280114D01*
X170228D01*
Y278039D01*
X173000D01*
X175772D01*
Y280114D01*
X175659D01*
X175272Y280386D01*
X175272Y280614D01*
Y284535D01*
X174308D01*
Y288034D01*
X174211Y288522D01*
X174053Y288758D01*
Y290700D01*
X174502Y291068D01*
Y293887D01*
Y296780D01*
X174239Y296996D01*
Y297279D01*
X174174Y297609D01*
X173987Y297888D01*
X173708Y298075D01*
X173378Y298140D01*
X172689D01*
X172479Y298098D01*
X172379Y298249D01*
X171934Y298546D01*
X171565Y298619D01*
D02*
G37*
G36*
X251200Y280312D02*
X248928D01*
Y277843D01*
X251200D01*
Y280312D01*
D02*
G37*
G36*
X264070D02*
X261798D01*
Y277843D01*
X264070D01*
Y280312D01*
D02*
G37*
G36*
X247928D02*
X245656D01*
Y277843D01*
X247928D01*
Y280312D01*
D02*
G37*
G36*
X337600Y279451D02*
X334500D01*
Y276351D01*
X337600D01*
Y279451D01*
D02*
G37*
G36*
X319051D02*
X315951D01*
Y276351D01*
X319051D01*
Y279451D01*
D02*
G37*
G36*
X175772Y277039D02*
X173500D01*
Y274965D01*
X175772D01*
Y277039D01*
D02*
G37*
G36*
X172500D02*
X170228D01*
Y274965D01*
X172500D01*
Y277039D01*
D02*
G37*
G36*
X264070Y276843D02*
X261798D01*
Y274375D01*
X264070D01*
Y276843D01*
D02*
G37*
G36*
X251200D02*
X248928D01*
Y274375D01*
X251200D01*
Y276843D01*
D02*
G37*
G36*
X247928D02*
X245656D01*
Y274375D01*
X247928D01*
Y276843D01*
D02*
G37*
G36*
X169219Y276541D02*
X166349D01*
X163479D01*
Y274520D01*
X163479Y274368D01*
X163123Y274020D01*
X159922D01*
X158221Y275721D01*
X157890Y275942D01*
X157500Y276020D01*
X116104D01*
X116070Y276070D01*
X115579Y276398D01*
X115000Y276513D01*
X114421Y276398D01*
X113930Y276070D01*
X113896Y276020D01*
X66500D01*
X66110Y275942D01*
X65779Y275721D01*
X61560Y271501D01*
X61500Y271513D01*
X60921Y271398D01*
X60430Y271070D01*
X60396Y271020D01*
X19500D01*
X19110Y270942D01*
X18779Y270721D01*
X17279Y269221D01*
X17058Y268890D01*
X16980Y268500D01*
Y265875D01*
X16032D01*
X14873Y265723D01*
X13794Y265276D01*
X12867Y264564D01*
X12156Y263638D01*
X11709Y262558D01*
X11556Y261400D01*
X11709Y260242D01*
X12156Y259162D01*
X12867Y258236D01*
X13794Y257524D01*
X14873Y257077D01*
X16032Y256925D01*
X19969D01*
X21127Y257077D01*
X22206Y257524D01*
X23133Y258236D01*
X23844Y259162D01*
X24291Y260242D01*
X24444Y261400D01*
X24291Y262558D01*
X23844Y263638D01*
X23133Y264564D01*
X22206Y265276D01*
X21127Y265723D01*
X19969Y265875D01*
X19020D01*
Y268078D01*
X19922Y268980D01*
X60396D01*
X60430Y268930D01*
X60921Y268602D01*
X61500Y268487D01*
X62079Y268602D01*
X62570Y268930D01*
X62898Y269421D01*
X63013Y270000D01*
X63002Y270060D01*
X66922Y273980D01*
X113896D01*
X113930Y273930D01*
X114421Y273602D01*
X115000Y273487D01*
X115477Y273582D01*
X115980Y273078D01*
Y272390D01*
X112760D01*
Y257610D01*
X121240D01*
Y272390D01*
X118020D01*
Y273500D01*
X118434Y273980D01*
X157078D01*
X158779Y272279D01*
X159110Y272058D01*
X159500Y271980D01*
X182396D01*
X182430Y271930D01*
X182921Y271602D01*
X183500Y271487D01*
X184079Y271602D01*
X184570Y271930D01*
X184898Y272421D01*
X185013Y273000D01*
X184898Y273579D01*
X184570Y274070D01*
X184079Y274398D01*
X183500Y274513D01*
X182921Y274398D01*
X182430Y274070D01*
X182396Y274020D01*
X169575D01*
X169219Y274368D01*
X169219Y274520D01*
Y276541D01*
D02*
G37*
G36*
X301715Y275701D02*
X292815D01*
Y274471D01*
X292451D01*
X292061Y274393D01*
X291730Y274172D01*
X290997Y273439D01*
X290867Y273455D01*
X290486Y273635D01*
X290398Y274079D01*
X290070Y274570D01*
X289579Y274898D01*
X289000Y275013D01*
X288421Y274898D01*
X287930Y274570D01*
X287602Y274079D01*
X287487Y273500D01*
X287602Y272921D01*
X287930Y272430D01*
X287980Y272396D01*
Y268352D01*
X287808Y268233D01*
X287480Y268130D01*
X287079Y268398D01*
X286500Y268513D01*
X285921Y268398D01*
X285430Y268070D01*
X285396Y268020D01*
X275922D01*
X275021Y268921D01*
X274690Y269142D01*
X274300Y269220D01*
X141200D01*
X140810Y269142D01*
X140479Y268921D01*
X139779Y268221D01*
X139558Y267890D01*
X139480Y267500D01*
Y263604D01*
X139430Y263570D01*
X139102Y263079D01*
X138987Y262500D01*
X139102Y261921D01*
X139430Y261430D01*
X139921Y261102D01*
X140500Y260987D01*
X141079Y261102D01*
X141570Y261430D01*
X141898Y261921D01*
X142013Y262500D01*
X141898Y263079D01*
X141570Y263570D01*
X141520Y263604D01*
Y267078D01*
X141622Y267180D01*
X273878D01*
X274779Y266279D01*
X275110Y266058D01*
X275500Y265980D01*
X285396D01*
X285430Y265930D01*
X285921Y265602D01*
X286500Y265487D01*
X287079Y265602D01*
X287480Y265870D01*
X287808Y265767D01*
X287980Y265649D01*
Y264851D01*
X287808Y264733D01*
X287480Y264630D01*
X287079Y264898D01*
X286500Y265013D01*
X285921Y264898D01*
X285430Y264570D01*
X285396Y264520D01*
X277000D01*
X276610Y264442D01*
X276279Y264221D01*
X274578Y262520D01*
X199215Y262520D01*
X199165Y263020D01*
X199309Y263048D01*
X199579Y263102D01*
X200070Y263430D01*
X200104Y263480D01*
X270284D01*
X270657Y263555D01*
X271000Y263487D01*
X271579Y263602D01*
X272070Y263930D01*
X272398Y264421D01*
X272513Y265000D01*
X272398Y265579D01*
X272070Y266070D01*
X271579Y266398D01*
X271000Y266513D01*
X270421Y266398D01*
X269930Y266070D01*
X269602Y265579D01*
X269590Y265520D01*
X200104D01*
X200070Y265570D01*
X199579Y265898D01*
X199000Y266013D01*
X198421Y265898D01*
X197930Y265570D01*
X197602Y265079D01*
X197487Y264500D01*
X197602Y263921D01*
X197930Y263430D01*
X198421Y263102D01*
X198691Y263048D01*
X198835Y263020D01*
X198785Y262520D01*
X197604D01*
X197570Y262570D01*
X197079Y262898D01*
X196500Y263013D01*
X195921Y262898D01*
X195430Y262570D01*
X195102Y262079D01*
X194987Y261500D01*
X195102Y260921D01*
X195370Y260520D01*
X195267Y260192D01*
X195149Y260020D01*
X170604D01*
X170570Y260070D01*
X170079Y260398D01*
X169500Y260513D01*
X168921Y260398D01*
X168430Y260070D01*
X168102Y259579D01*
X167987Y259000D01*
X168102Y258421D01*
X168370Y258020D01*
X168267Y257692D01*
X168149Y257520D01*
X148604D01*
X148570Y257570D01*
X148079Y257898D01*
X147500Y258013D01*
X146921Y257898D01*
X146430Y257570D01*
X146102Y257079D01*
X145987Y256500D01*
X146102Y255921D01*
X146430Y255430D01*
X146921Y255102D01*
X147191Y255048D01*
X147335Y255020D01*
X147289Y254555D01*
X147212Y254520D01*
X123604D01*
X123570Y254570D01*
X123079Y254898D01*
X122500Y255013D01*
X121921Y254898D01*
X121430Y254570D01*
X121396Y254520D01*
X101020D01*
Y257610D01*
X104240D01*
Y272390D01*
X95760D01*
Y266020D01*
X62798D01*
X62407Y265942D01*
X62077Y265721D01*
X60905Y264549D01*
X60684Y264219D01*
X60606Y263828D01*
Y256347D01*
X56205D01*
Y252420D01*
X24310D01*
X24291Y252558D01*
X23844Y253638D01*
X23133Y254564D01*
X22206Y255276D01*
X21127Y255723D01*
X19969Y255875D01*
X16032D01*
X14873Y255723D01*
X13794Y255276D01*
X12867Y254564D01*
X12156Y253638D01*
X11709Y252558D01*
X11556Y251400D01*
X11709Y250242D01*
X12156Y249162D01*
X12867Y248236D01*
X13794Y247524D01*
X14873Y247077D01*
X16032Y246925D01*
X19969D01*
X21127Y247077D01*
X22206Y247524D01*
X23133Y248236D01*
X23844Y249162D01*
X24291Y250242D01*
X24310Y250380D01*
X30428D01*
X32730Y248078D01*
Y209250D01*
X32808Y208860D01*
X33029Y208529D01*
X34779Y206779D01*
X35110Y206558D01*
X35500Y206480D01*
X38159D01*
X38177Y206342D01*
X38624Y205262D01*
X39336Y204335D01*
X40262Y203624D01*
X41342Y203177D01*
X42500Y203025D01*
X43658Y203177D01*
X44738Y203624D01*
X45665Y204335D01*
X46376Y205262D01*
X46823Y206342D01*
X46975Y207500D01*
X46823Y208658D01*
X46376Y209738D01*
X45665Y210665D01*
X44738Y211376D01*
X43658Y211823D01*
X42500Y211975D01*
X41342Y211823D01*
X40262Y211376D01*
X39336Y210665D01*
X38624Y209738D01*
X38177Y208658D01*
X38159Y208520D01*
X35922D01*
X34770Y209672D01*
Y248500D01*
X34692Y248890D01*
X34471Y249221D01*
X33773Y249919D01*
X33965Y250380D01*
X56205D01*
Y248654D01*
X67047D01*
Y256347D01*
X62646D01*
Y263406D01*
X63220Y263980D01*
X95760D01*
Y257610D01*
X98980D01*
Y254086D01*
X99058Y253696D01*
X99279Y253365D01*
X99865Y252779D01*
X100196Y252558D01*
X100586Y252480D01*
X121396D01*
X121430Y252430D01*
X121921Y252102D01*
X122500Y251987D01*
X123079Y252102D01*
X123570Y252430D01*
X123604Y252480D01*
X170453D01*
X170500Y252000D01*
X170500D01*
Y246520D01*
X99604D01*
X99570Y246570D01*
X99079Y246898D01*
X98500Y247013D01*
X97921Y246898D01*
X97430Y246570D01*
X97102Y246079D01*
X96987Y245500D01*
X97102Y244921D01*
X97430Y244430D01*
X97921Y244102D01*
X98500Y243987D01*
X99079Y244102D01*
X99570Y244430D01*
X99604Y244480D01*
X170500D01*
Y243272D01*
X168184Y243272D01*
X167913Y243659D01*
Y243772D01*
X165838D01*
Y241000D01*
Y238228D01*
X167913D01*
Y238341D01*
X168184Y238728D01*
X168413Y238728D01*
X170500D01*
Y238228D01*
X170772Y238500D01*
X181303D01*
X181352Y238000D01*
X180915Y237913D01*
X180419Y237581D01*
X179717Y236880D01*
X179385Y236384D01*
X179269Y235798D01*
Y234535D01*
X178527D01*
Y230614D01*
X178527Y230386D01*
X178139Y230114D01*
X178027D01*
Y228039D01*
X180798D01*
Y227539D01*
X181298D01*
Y224965D01*
X183527D01*
X183570Y224965D01*
X184027D01*
X184070Y224965D01*
X186298D01*
Y227539D01*
X187298D01*
Y224965D01*
X189527D01*
X189570Y224965D01*
X190027D01*
X190070Y224965D01*
X192298D01*
Y227539D01*
X192798D01*
Y228039D01*
X195570D01*
Y230114D01*
X195457D01*
X195070Y230386D01*
X195070Y230614D01*
Y234535D01*
X195070D01*
X195227Y234971D01*
X204704D01*
X204754Y234471D01*
X204610Y234442D01*
X204279Y234221D01*
X198779Y228721D01*
X198558Y228390D01*
X198480Y228000D01*
Y221922D01*
X197078Y220520D01*
X193851D01*
X193733Y220692D01*
X193630Y221020D01*
X193898Y221421D01*
X194013Y222000D01*
X193898Y222579D01*
X193570Y223070D01*
X193079Y223398D01*
X192500Y223513D01*
X191921Y223398D01*
X191430Y223070D01*
X191396Y223020D01*
X142000D01*
X141610Y222942D01*
X141553Y222904D01*
X141234Y223292D01*
X141485Y223543D01*
X141706Y223874D01*
X141783Y224264D01*
Y225425D01*
X142839D01*
Y226480D01*
X144500D01*
X144890Y226558D01*
X145221Y226779D01*
X145422Y226980D01*
X146396D01*
X146430Y226930D01*
X146921Y226602D01*
X147500Y226487D01*
X148079Y226602D01*
X148570Y226930D01*
X148898Y227421D01*
X149013Y228000D01*
X148898Y228579D01*
X148570Y229070D01*
X148079Y229398D01*
X147500Y229513D01*
X146921Y229398D01*
X146430Y229070D01*
X146396Y229020D01*
X145000D01*
X144610Y228942D01*
X144279Y228721D01*
X144078Y228520D01*
X142839D01*
Y229575D01*
X138689D01*
Y225425D01*
X139744D01*
Y224686D01*
X139578Y224520D01*
X90604D01*
X90570Y224570D01*
X90079Y224898D01*
X89500Y225013D01*
X88921Y224898D01*
X88430Y224570D01*
X88102Y224079D01*
X87987Y223500D01*
X88102Y222921D01*
X88430Y222430D01*
X88921Y222102D01*
X89500Y221987D01*
X90079Y222102D01*
X90570Y222430D01*
X90604Y222480D01*
X140000D01*
X140390Y222558D01*
X140447Y222596D01*
X140766Y222207D01*
X139779Y221221D01*
X139558Y220890D01*
X139480Y220500D01*
Y219575D01*
X138378D01*
Y215425D01*
X139433D01*
Y213875D01*
X139078Y213520D01*
X88104D01*
X88070Y213570D01*
X87579Y213898D01*
X87000Y214013D01*
X86421Y213898D01*
X85930Y213570D01*
X85602Y213079D01*
X85487Y212500D01*
X85602Y211921D01*
X85930Y211430D01*
X86421Y211102D01*
X87000Y210987D01*
X87579Y211102D01*
X88070Y211430D01*
X88104Y211480D01*
X109831D01*
X110038Y210980D01*
X104279Y205221D01*
X104058Y204890D01*
X103980Y204500D01*
Y186922D01*
X101078Y184020D01*
X95240D01*
Y190390D01*
X86760D01*
Y183520D01*
X65500D01*
X65110Y183442D01*
X64779Y183221D01*
X60779Y179221D01*
X60558Y178890D01*
X60549Y178847D01*
X56205D01*
Y176020D01*
X51922D01*
X49721Y178221D01*
X49390Y178442D01*
X49000Y178520D01*
X46841D01*
X46823Y178658D01*
X46376Y179738D01*
X45665Y180665D01*
X44738Y181376D01*
X43658Y181823D01*
X42500Y181975D01*
X41342Y181823D01*
X40262Y181376D01*
X39336Y180665D01*
X38624Y179738D01*
X38177Y178658D01*
X38159Y178520D01*
X35922D01*
X32221Y182221D01*
X31890Y182442D01*
X31500Y182520D01*
X20366D01*
X20332Y182772D01*
X19985Y183611D01*
X19431Y184333D01*
X18710Y184886D01*
X17870Y185234D01*
X16969Y185353D01*
X13032D01*
X12130Y185234D01*
X11290Y184886D01*
X10569Y184333D01*
X10016Y183611D01*
X9668Y182772D01*
X9549Y181870D01*
X9668Y180969D01*
X10016Y180129D01*
X10569Y179408D01*
X11290Y178854D01*
X12130Y178506D01*
X13032Y178388D01*
X16969D01*
X17870Y178506D01*
X18710Y178854D01*
X19431Y179408D01*
X19985Y180129D01*
X20130Y180480D01*
X31078D01*
X34779Y176779D01*
X35110Y176558D01*
X35500Y176480D01*
X38159D01*
X38177Y176342D01*
X38624Y175262D01*
X39336Y174336D01*
X40262Y173624D01*
X41342Y173177D01*
X42500Y173025D01*
X43658Y173177D01*
X44738Y173624D01*
X45665Y174336D01*
X46376Y175262D01*
X46823Y176342D01*
X46841Y176480D01*
X48578D01*
X50779Y174279D01*
X51110Y174058D01*
X51500Y173980D01*
X56205D01*
Y171153D01*
X67047D01*
Y178847D01*
X63942D01*
X63750Y179308D01*
X65922Y181480D01*
X86760D01*
Y175610D01*
X95240D01*
Y181980D01*
X101500D01*
X101890Y182058D01*
X102221Y182279D01*
X105721Y185779D01*
X105942Y186110D01*
X105980Y186303D01*
X106480Y186254D01*
Y184000D01*
X106558Y183610D01*
X106779Y183279D01*
X111516Y178542D01*
X111276Y178075D01*
X111004Y178075D01*
X102563D01*
Y176020D01*
X101500D01*
X101110Y175942D01*
X100779Y175721D01*
X99279Y174221D01*
X99058Y173890D01*
X98980Y173500D01*
Y148000D01*
X99058Y147610D01*
X99279Y147279D01*
X104779Y141779D01*
X105110Y141558D01*
X105500Y141480D01*
X108578D01*
X110432Y139626D01*
X110763Y139405D01*
X111153Y139327D01*
X118951D01*
X119289Y139102D01*
X119868Y138987D01*
X120268Y139066D01*
X120768Y138761D01*
Y136630D01*
X122941D01*
Y139500D01*
X123941D01*
Y136630D01*
X126114D01*
Y136742D01*
X126386Y137130D01*
X130732D01*
Y141870D01*
X129579D01*
Y145130D01*
X130732D01*
Y149870D01*
X126386D01*
Y145130D01*
X127540D01*
Y144020D01*
X118865D01*
X118695Y144520D01*
X119140Y144860D01*
X119621Y145487D01*
X119717Y145721D01*
X121268D01*
Y145130D01*
X125614D01*
Y149870D01*
X121268D01*
Y148779D01*
X119416D01*
X119140Y149140D01*
X118513Y149620D01*
X117783Y149923D01*
X117000Y150026D01*
X116217Y149923D01*
X115487Y149620D01*
X114860Y149140D01*
X114380Y148513D01*
X114077Y147783D01*
X113974Y147000D01*
X114077Y146217D01*
X114380Y145487D01*
X114860Y144860D01*
X115305Y144520D01*
X115135Y144020D01*
X111922D01*
X108768Y147174D01*
X108976Y147673D01*
X109725Y147984D01*
X110447Y148538D01*
X111000Y149259D01*
X111348Y150099D01*
X111467Y151000D01*
X111348Y151901D01*
X111000Y152741D01*
X110447Y153463D01*
X109725Y154016D01*
X108886Y154364D01*
X107984Y154482D01*
X106016D01*
X105114Y154364D01*
X104274Y154016D01*
X103553Y153463D01*
X103000Y152741D01*
X102652Y151901D01*
X102533Y151000D01*
X102652Y150099D01*
X103000Y149259D01*
X103553Y148538D01*
X104274Y147984D01*
X105114Y147636D01*
X105980Y147522D01*
Y147500D01*
X106058Y147110D01*
X106279Y146779D01*
X109056Y144002D01*
X109052Y143965D01*
X108831Y143520D01*
X105922D01*
X101020Y148422D01*
Y173078D01*
X101922Y173980D01*
X102563D01*
Y171169D01*
X111437D01*
Y177377D01*
X111869Y177650D01*
X111937Y177657D01*
X111980Y177631D01*
Y168105D01*
X111159D01*
X111000Y168489D01*
X110447Y169211D01*
X109725Y169764D01*
X108886Y170112D01*
X107984Y170231D01*
X106016D01*
X105114Y170112D01*
X104274Y169764D01*
X103553Y169211D01*
X103000Y168489D01*
X102652Y167649D01*
X102533Y166748D01*
X102652Y165847D01*
X103000Y165007D01*
X103553Y164286D01*
X104274Y163732D01*
X105114Y163384D01*
X106016Y163266D01*
X107984D01*
X108886Y163384D01*
X109725Y163732D01*
X110447Y164286D01*
X111000Y165007D01*
X111348Y165847D01*
X111377Y166066D01*
X112414D01*
X112804Y166144D01*
X113135Y166365D01*
X113721Y166951D01*
X113942Y167281D01*
X114020Y167672D01*
Y178500D01*
X113942Y178890D01*
X113721Y179221D01*
X108520Y184422D01*
Y202578D01*
X108922Y202980D01*
X132896D01*
X132930Y202930D01*
X133421Y202602D01*
X134000Y202487D01*
X134579Y202602D01*
X135070Y202930D01*
X135398Y203421D01*
X135513Y204000D01*
X135398Y204579D01*
X135070Y205070D01*
X134579Y205398D01*
X134309Y205452D01*
X134166Y205480D01*
X134211Y205945D01*
X134288Y205980D01*
X135396D01*
X135430Y205930D01*
X135921Y205602D01*
X136500Y205487D01*
X137079Y205602D01*
X137570Y205930D01*
X137898Y206421D01*
X138013Y207000D01*
X137898Y207579D01*
X137570Y208070D01*
X137079Y208398D01*
X136500Y208513D01*
X135921Y208398D01*
X135430Y208070D01*
X135396Y208020D01*
X112604D01*
X112570Y208070D01*
X112079Y208398D01*
X111500Y208513D01*
X111079Y208430D01*
X110832Y208890D01*
X111422Y209480D01*
X155896D01*
X155930Y209430D01*
X156421Y209102D01*
X157000Y208987D01*
X157579Y209102D01*
X158070Y209430D01*
X158398Y209921D01*
X158513Y210500D01*
X158398Y211079D01*
X158070Y211570D01*
X157579Y211898D01*
X157000Y212013D01*
X156421Y211898D01*
X155930Y211570D01*
X155896Y211520D01*
X140669D01*
X140462Y212020D01*
X141174Y212732D01*
X141395Y213063D01*
X141472Y213453D01*
Y215425D01*
X142528D01*
Y219575D01*
X141520D01*
Y220078D01*
X142422Y220980D01*
X152648D01*
X152767Y220808D01*
X152870Y220480D01*
X152602Y220079D01*
X152487Y219500D01*
X152602Y218921D01*
X152930Y218430D01*
X153421Y218102D01*
X154000Y217987D01*
X154579Y218102D01*
X155070Y218430D01*
X155104Y218480D01*
X197500D01*
X197890Y218558D01*
X198221Y218779D01*
X200221Y220779D01*
X200442Y221110D01*
X200520Y221500D01*
Y227578D01*
X205422Y232480D01*
X228896D01*
X228930Y232430D01*
X229421Y232102D01*
X230000Y231987D01*
X230579Y232102D01*
X231070Y232430D01*
X231398Y232921D01*
X231513Y233500D01*
X231398Y234079D01*
X231137Y234471D01*
X231254Y234826D01*
X231358Y234971D01*
X235164D01*
X236660Y233475D01*
X236833Y232603D01*
X237342Y231842D01*
X237471Y231756D01*
Y228000D01*
X237587Y227415D01*
X237919Y226919D01*
X239419Y225419D01*
X239915Y225087D01*
X240500Y224971D01*
X243642D01*
X243746Y224827D01*
X243863Y224471D01*
X243602Y224079D01*
X243487Y223500D01*
X243602Y222921D01*
X243930Y222430D01*
X244421Y222102D01*
X245000Y221987D01*
X245579Y222102D01*
X246070Y222430D01*
X246104Y222480D01*
X259405D01*
X259795Y222558D01*
X260126Y222779D01*
X260728Y223380D01*
X272063D01*
X272303Y222880D01*
X272102Y222579D01*
X271987Y222000D01*
X272102Y221421D01*
X272430Y220930D01*
X272921Y220602D01*
X273500Y220487D01*
X274079Y220602D01*
X274570Y220930D01*
X274604Y220980D01*
X293861D01*
X294023Y220819D01*
X294102Y220421D01*
X294430Y219930D01*
X294921Y219602D01*
X295500Y219487D01*
X296079Y219602D01*
X296570Y219930D01*
X296898Y220421D01*
X297013Y221000D01*
X296930Y221422D01*
X297390Y221668D01*
X303882Y215176D01*
Y193598D01*
X303960Y193208D01*
X304181Y192877D01*
X305779Y191279D01*
X306110Y191058D01*
X306500Y190980D01*
X346896D01*
X346930Y190930D01*
X347421Y190602D01*
X348000Y190487D01*
X348579Y190602D01*
X349070Y190930D01*
X349104Y190980D01*
X373578D01*
X373980Y190578D01*
Y189732D01*
X372630D01*
Y185386D01*
X377370D01*
Y189732D01*
X376020D01*
Y191000D01*
X375942Y191390D01*
X375721Y191721D01*
X374721Y192721D01*
X374390Y192942D01*
X374000Y193020D01*
X349104D01*
X349070Y193070D01*
X348579Y193398D01*
X348000Y193513D01*
X347421Y193398D01*
X346930Y193070D01*
X346896Y193020D01*
X306922D01*
X305921Y194021D01*
Y214579D01*
X309724D01*
Y212933D01*
X316630D01*
Y218264D01*
X309724D01*
Y216618D01*
X305324D01*
X297747Y224195D01*
X297918Y224731D01*
X298078Y224759D01*
X303419Y219419D01*
X303915Y219087D01*
X304500Y218971D01*
X357926D01*
X358530Y218367D01*
Y217370D01*
X357886D01*
Y212630D01*
X358530D01*
Y210784D01*
X358342Y210658D01*
X357833Y209897D01*
X357655Y209000D01*
X357833Y208103D01*
X358342Y207342D01*
X359103Y206833D01*
X360000Y206655D01*
X360897Y206833D01*
X361658Y207342D01*
X362167Y208103D01*
X362345Y209000D01*
X362167Y209897D01*
X361658Y210658D01*
X361588Y210705D01*
Y212630D01*
X362232D01*
Y217370D01*
X361588D01*
Y222630D01*
X362232D01*
Y227370D01*
X357886D01*
Y222630D01*
X358530D01*
Y222029D01*
X305134D01*
X299581Y227581D01*
X299085Y227913D01*
X298500Y228029D01*
X285358D01*
X285254Y228173D01*
X285137Y228529D01*
X285398Y228921D01*
X285513Y229500D01*
X285398Y230079D01*
X285070Y230570D01*
X284579Y230898D01*
X284000Y231013D01*
X283421Y230898D01*
X282930Y230570D01*
X282896Y230520D01*
X279927D01*
X279789Y230864D01*
X279788Y231020D01*
X280463Y231538D01*
X281016Y232259D01*
X281104Y232471D01*
X327756D01*
X327842Y232342D01*
X328603Y231833D01*
X329500Y231655D01*
X330397Y231833D01*
X331158Y232342D01*
X331667Y233103D01*
X331845Y234000D01*
X331667Y234897D01*
X331158Y235658D01*
X330397Y236167D01*
X329500Y236345D01*
X328603Y236167D01*
X327842Y235658D01*
X327756Y235529D01*
X281104D01*
X281016Y235741D01*
X280463Y236462D01*
X279741Y237016D01*
X279299Y237199D01*
Y241375D01*
X279643Y241719D01*
X280138Y241694D01*
X280386Y241341D01*
Y241228D01*
X282461D01*
Y244000D01*
X282961D01*
D01*
X282461D01*
Y246772D01*
X280386D01*
Y246659D01*
X280114Y246272D01*
X279886Y246272D01*
X275965D01*
Y241728D01*
X276240D01*
Y237002D01*
X275537Y236462D01*
X274984Y235741D01*
X274636Y234901D01*
X274517Y234000D01*
X274636Y233099D01*
X274984Y232259D01*
X275537Y231538D01*
X276212Y231020D01*
X276211Y230864D01*
X276073Y230520D01*
X270779D01*
X270609Y231020D01*
X270819Y231181D01*
X271453Y232007D01*
X271851Y232968D01*
X271921Y233500D01*
X264079D01*
X264149Y232968D01*
X264547Y232007D01*
X265181Y231181D01*
X265391Y231020D01*
X265221Y230520D01*
X261941D01*
X261453Y230547D01*
Y237453D01*
X254547D01*
Y230547D01*
X256980D01*
Y230086D01*
X257058Y229696D01*
X257279Y229365D01*
X257865Y228779D01*
X258196Y228558D01*
X258340Y228529D01*
X258290Y228029D01*
X241133D01*
X240529Y228633D01*
Y231756D01*
X240658Y231842D01*
X241167Y232603D01*
X241345Y233500D01*
X241167Y234397D01*
X240658Y235158D01*
X239897Y235667D01*
X239000Y235845D01*
X238679Y235781D01*
X236879Y237581D01*
X236383Y237913D01*
X236044Y237980D01*
X236093Y238480D01*
X252500D01*
X252890Y238558D01*
X253221Y238779D01*
X257422Y242980D01*
X261894D01*
X262284Y243058D01*
X262615Y243279D01*
X267316Y247980D01*
X294500D01*
X294890Y248058D01*
X295221Y248279D01*
X297986Y251044D01*
X298091Y251201D01*
X301480D01*
X301715Y251201D01*
X301980Y250811D01*
Y250422D01*
X301060Y249501D01*
X301000Y249513D01*
X300421Y249398D01*
X299930Y249070D01*
X299602Y248579D01*
X299487Y248000D01*
X299602Y247421D01*
X299930Y246930D01*
X300421Y246602D01*
X301000Y246487D01*
X301579Y246602D01*
X302070Y246930D01*
X302398Y247421D01*
X302513Y248000D01*
X302502Y248060D01*
X303018Y248576D01*
X303480Y248385D01*
Y240104D01*
X303430Y240070D01*
X303102Y239579D01*
X302987Y239000D01*
X303102Y238421D01*
X303430Y237930D01*
X303921Y237602D01*
X304500Y237487D01*
X305079Y237602D01*
X305570Y237930D01*
X305898Y238421D01*
X306013Y239000D01*
X305898Y239579D01*
X305570Y240070D01*
X305520Y240104D01*
Y242827D01*
X307730D01*
Y247777D01*
Y252727D01*
X305520D01*
Y254078D01*
X308221Y256779D01*
X308442Y257110D01*
X308520Y257500D01*
Y262309D01*
X308442Y262699D01*
X308221Y263030D01*
X305907Y265344D01*
X306226Y265732D01*
X306421Y265602D01*
X307000Y265487D01*
X307579Y265602D01*
X308070Y265930D01*
X308104Y265980D01*
X336396D01*
X336430Y265930D01*
X336921Y265602D01*
X337500Y265487D01*
X338079Y265602D01*
X338570Y265930D01*
X338898Y266421D01*
X339013Y267000D01*
X338898Y267579D01*
X338570Y268070D01*
X338079Y268398D01*
X337500Y268513D01*
X336921Y268398D01*
X336430Y268070D01*
X336396Y268020D01*
X308104D01*
X308070Y268070D01*
X307579Y268398D01*
X307000Y268513D01*
X306421Y268398D01*
X305930Y268070D01*
X305602Y267579D01*
X305487Y267000D01*
X305602Y266421D01*
X305732Y266226D01*
X305344Y265907D01*
X302079Y269172D01*
X301748Y269393D01*
X301715Y269400D01*
Y270701D01*
X292815D01*
Y266201D01*
X301715D01*
Y266201D01*
X302034Y266333D01*
X302929Y265438D01*
X302683Y264977D01*
X302500Y265013D01*
X302215Y264957D01*
X301715Y265316D01*
Y265701D01*
X292815D01*
Y261201D01*
X301715D01*
Y261684D01*
X302215Y262043D01*
X302500Y261987D01*
X303079Y262102D01*
X303570Y262430D01*
X303898Y262921D01*
X304013Y263500D01*
X303977Y263683D01*
X304438Y263930D01*
X306480Y261887D01*
Y257922D01*
X304482Y255924D01*
X304020Y256115D01*
Y257865D01*
X303942Y258256D01*
X303721Y258586D01*
X303135Y259172D01*
X302804Y259393D01*
X302414Y259471D01*
X301715D01*
Y260701D01*
X292815D01*
Y256201D01*
X301196D01*
X301333Y256007D01*
X301150Y255701D01*
X292815D01*
Y251201D01*
X294606D01*
X294797Y250739D01*
X294078Y250020D01*
X289115D01*
X288924Y250482D01*
X290440Y251998D01*
X290500Y251987D01*
X291079Y252102D01*
X291570Y252430D01*
X291898Y252921D01*
X292013Y253500D01*
X291898Y254079D01*
X291570Y254570D01*
X291520Y254604D01*
Y257140D01*
X291564Y257362D01*
Y271122D01*
X292353Y271911D01*
X292815Y271720D01*
Y271201D01*
X301715D01*
Y275701D01*
D02*
G37*
G36*
X368644Y270701D02*
X359744D01*
Y269471D01*
X355672D01*
X355630Y269532D01*
X355581Y269581D01*
X355085Y269913D01*
X354500Y270029D01*
X353915Y269913D01*
X353419Y269581D01*
X353087Y269085D01*
X352971Y268500D01*
X353087Y267915D01*
X353419Y267419D01*
X353467Y267370D01*
X353964Y267038D01*
X354549Y266922D01*
X355134Y267038D01*
X355630Y267370D01*
X355672Y267431D01*
X359744D01*
Y266201D01*
X368644D01*
Y270701D01*
D02*
G37*
G36*
Y265701D02*
X359744D01*
Y264520D01*
X357604D01*
X357570Y264570D01*
X357079Y264898D01*
X356500Y265013D01*
X355921Y264898D01*
X355430Y264570D01*
X355102Y264079D01*
X354987Y263500D01*
X355102Y262921D01*
X355430Y262430D01*
X355921Y262102D01*
X356500Y261987D01*
X357079Y262102D01*
X357570Y262430D01*
X357604Y262480D01*
X359744D01*
Y261201D01*
X368644D01*
Y265701D01*
D02*
G37*
G36*
Y260701D02*
X359744D01*
Y258461D01*
X359244Y258310D01*
X359070Y258570D01*
X358579Y258898D01*
X358000Y259013D01*
X357421Y258898D01*
X356930Y258570D01*
X356896Y258520D01*
X345604D01*
X345570Y258570D01*
X345079Y258898D01*
X344500Y259013D01*
X343921Y258898D01*
X343430Y258570D01*
X343102Y258079D01*
X342987Y257500D01*
X343102Y256921D01*
X343430Y256430D01*
X343921Y256102D01*
X344500Y255987D01*
X345079Y256102D01*
X345570Y256430D01*
X345604Y256480D01*
X356896D01*
X356930Y256430D01*
X357421Y256102D01*
X358000Y255987D01*
X358579Y256102D01*
X359070Y256430D01*
X359244Y256690D01*
X359744Y256539D01*
Y256201D01*
X368644D01*
Y257480D01*
X369396D01*
X369430Y257430D01*
X369921Y257102D01*
X370500Y256987D01*
X371079Y257102D01*
X371570Y257430D01*
X371898Y257921D01*
X372013Y258500D01*
X371898Y259079D01*
X371570Y259570D01*
X371079Y259898D01*
X370500Y260013D01*
X369921Y259898D01*
X369430Y259570D01*
X369396Y259520D01*
X368644D01*
Y260701D01*
D02*
G37*
G36*
X377000Y258875D02*
X375842Y258723D01*
X374762Y258276D01*
X373835Y257564D01*
X373124Y256638D01*
X372677Y255558D01*
X372659Y255420D01*
X368644D01*
Y255701D01*
X359744D01*
Y254471D01*
X340971D01*
X339502Y255940D01*
X339513Y256000D01*
X339398Y256579D01*
X339070Y257070D01*
X338579Y257398D01*
X338000Y257513D01*
X337421Y257398D01*
X336930Y257070D01*
X336602Y256579D01*
X336487Y256000D01*
X336602Y255421D01*
X336930Y254930D01*
X337421Y254602D01*
X338000Y254487D01*
X338060Y254499D01*
X339828Y252730D01*
X339832Y252727D01*
X339681Y252227D01*
X335980D01*
Y243327D01*
X337210D01*
Y231652D01*
X332060Y226501D01*
X332000Y226513D01*
X331421Y226398D01*
X330930Y226070D01*
X330602Y225579D01*
X330487Y225000D01*
X330602Y224421D01*
X330930Y223930D01*
X331421Y223602D01*
X332000Y223487D01*
X332579Y223602D01*
X333070Y223930D01*
X333398Y224421D01*
X333513Y225000D01*
X333502Y225060D01*
X338950Y230508D01*
X339172Y230839D01*
X339249Y231229D01*
Y243327D01*
X340479D01*
Y251447D01*
X340973Y251925D01*
X340980Y251925D01*
Y243327D01*
X342210D01*
Y234152D01*
X341279Y233221D01*
X341058Y232890D01*
X340980Y232500D01*
Y225604D01*
X340930Y225570D01*
X340602Y225079D01*
X340487Y224500D01*
X340602Y223921D01*
X340930Y223430D01*
X341421Y223102D01*
X342000Y222987D01*
X342579Y223102D01*
X343070Y223430D01*
X343398Y223921D01*
X343513Y224500D01*
X343398Y225079D01*
X343070Y225570D01*
X343020Y225604D01*
Y229785D01*
X343520Y229835D01*
X343548Y229691D01*
X343602Y229421D01*
X343930Y228930D01*
X344421Y228602D01*
X344764Y228264D01*
X344764Y228063D01*
Y222933D01*
X351669D01*
Y223770D01*
X352768D01*
Y222630D01*
X357114D01*
Y227370D01*
X352768D01*
Y226829D01*
X351669D01*
Y228043D01*
X351963Y228437D01*
X352071Y228501D01*
X352579Y228602D01*
X353070Y228930D01*
X353398Y229421D01*
X353513Y230000D01*
X353398Y230579D01*
X353070Y231070D01*
X352579Y231398D01*
X352000Y231513D01*
X351421Y231398D01*
X350930Y231070D01*
X350602Y230579D01*
X350487Y230000D01*
X350602Y229421D01*
X350930Y228930D01*
X351179Y228764D01*
X351027Y228264D01*
X349236D01*
Y228783D01*
X349159Y229174D01*
X348938Y229504D01*
X348106Y230336D01*
X348095Y230390D01*
X347874Y230721D01*
X347543Y230942D01*
X347153Y231020D01*
X346104D01*
X346070Y231070D01*
X345579Y231398D01*
X345000Y231513D01*
X344421Y231398D01*
X343930Y231070D01*
X343602Y230579D01*
X343548Y230309D01*
X343520Y230166D01*
X343020Y230215D01*
Y232078D01*
X343951Y233009D01*
X344172Y233339D01*
X344249Y233730D01*
Y243327D01*
X345479D01*
Y251648D01*
X345729Y251791D01*
X345979Y251648D01*
Y243327D01*
X346980D01*
Y236604D01*
X346930Y236570D01*
X346602Y236079D01*
X346487Y235500D01*
X346602Y234921D01*
X346930Y234430D01*
X347421Y234102D01*
X348000Y233987D01*
X348579Y234102D01*
X349070Y234430D01*
X349398Y234921D01*
X349513Y235500D01*
X349398Y236079D01*
X349070Y236570D01*
X349020Y236604D01*
Y243327D01*
X350480D01*
Y251648D01*
X350729Y251791D01*
X350979Y251648D01*
Y243327D01*
X352210D01*
Y240586D01*
X352288Y240196D01*
X352508Y239865D01*
X353094Y239279D01*
X353425Y239058D01*
X353815Y238980D01*
X364996D01*
X365030Y238930D01*
X365521Y238602D01*
X366100Y238487D01*
X366679Y238602D01*
X367170Y238930D01*
X367498Y239421D01*
X367613Y240000D01*
X367498Y240579D01*
X367170Y241070D01*
X366679Y241398D01*
X366100Y241513D01*
X365521Y241398D01*
X365030Y241070D01*
X364996Y241020D01*
X354249D01*
Y243327D01*
X355480D01*
Y251932D01*
X355480Y252227D01*
X355895Y252432D01*
X359744D01*
Y251201D01*
X368644D01*
Y253380D01*
X372659D01*
X372677Y253242D01*
X373124Y252162D01*
X373835Y251236D01*
X374762Y250524D01*
X375842Y250077D01*
X377000Y249925D01*
X378158Y250077D01*
X379238Y250524D01*
X380165Y251236D01*
X380876Y252162D01*
X381323Y253242D01*
X381475Y254400D01*
X381323Y255558D01*
X380876Y256638D01*
X380165Y257564D01*
X379238Y258276D01*
X378158Y258723D01*
X377000Y258875D01*
D02*
G37*
G36*
X83295Y256846D02*
X77874D01*
Y253000D01*
X83295D01*
Y256846D01*
D02*
G37*
G36*
X76874D02*
X71453D01*
Y253000D01*
X76874D01*
Y256846D01*
D02*
G37*
G36*
X313000Y259513D02*
X312421Y259398D01*
X311930Y259070D01*
X311602Y258579D01*
X311487Y258000D01*
X311602Y257421D01*
X311930Y256930D01*
X311980Y256896D01*
Y252227D01*
X310980D01*
Y252727D01*
X308730D01*
Y247777D01*
Y242827D01*
X310980D01*
Y243327D01*
X315479D01*
Y252227D01*
X314020D01*
Y256896D01*
X314070Y256930D01*
X314398Y257421D01*
X314513Y258000D01*
X314398Y258579D01*
X314070Y259070D01*
X313579Y259398D01*
X313000Y259513D01*
D02*
G37*
G36*
X83295Y252000D02*
X77874D01*
Y248153D01*
X83295D01*
Y252000D01*
D02*
G37*
G36*
X76874D02*
X71453D01*
Y248153D01*
X76874D01*
Y252000D01*
D02*
G37*
G36*
X285535Y246772D02*
X283461D01*
Y244500D01*
X285535D01*
Y246772D01*
D02*
G37*
G36*
X335479Y252227D02*
X330979D01*
Y243327D01*
X335479D01*
Y252227D01*
D02*
G37*
G36*
X330480D02*
X325979D01*
Y243327D01*
X330480D01*
Y252227D01*
D02*
G37*
G36*
X325480D02*
X320979D01*
Y243327D01*
X325480D01*
Y252227D01*
D02*
G37*
G36*
X320479D02*
X315980D01*
Y243327D01*
X320479D01*
Y252227D01*
D02*
G37*
G36*
X164838Y243772D02*
X162763D01*
Y241500D01*
X164838D01*
Y243772D01*
D02*
G37*
G36*
X285535Y243500D02*
X283461D01*
Y241228D01*
X285535D01*
Y243500D01*
D02*
G37*
G36*
X377000Y248875D02*
X375842Y248723D01*
X374762Y248276D01*
X373835Y247565D01*
X373124Y246638D01*
X372677Y245558D01*
X372525Y244400D01*
X372677Y243242D01*
X373124Y242162D01*
X373835Y241235D01*
X374762Y240524D01*
X375842Y240077D01*
X377000Y239925D01*
X378158Y240077D01*
X379238Y240524D01*
X380165Y241235D01*
X380876Y242162D01*
X381323Y243242D01*
X381475Y244400D01*
X381323Y245558D01*
X380876Y246638D01*
X380165Y247565D01*
X379238Y248276D01*
X378158Y248723D01*
X377000Y248875D01*
D02*
G37*
G36*
X92730Y240964D02*
X85824D01*
Y239520D01*
X84500D01*
X84110Y239442D01*
X83779Y239221D01*
X83078Y238520D01*
X82232D01*
Y239870D01*
X77886D01*
Y235130D01*
X82232D01*
Y236480D01*
X83500D01*
X83890Y236558D01*
X84221Y236779D01*
X84922Y237480D01*
X85824D01*
Y235633D01*
X92730D01*
Y240964D01*
D02*
G37*
G36*
X164838Y240500D02*
X162763D01*
Y238228D01*
X164838D01*
Y240500D01*
D02*
G37*
G36*
X19969Y245875D02*
X16032D01*
X14873Y245723D01*
X13794Y245276D01*
X12867Y244565D01*
X12156Y243638D01*
X11709Y242558D01*
X11556Y241400D01*
X11709Y240242D01*
X12156Y239162D01*
X12867Y238235D01*
X13794Y237524D01*
X14873Y237077D01*
X16032Y236925D01*
X19969D01*
X21127Y237077D01*
X22206Y237524D01*
X23133Y238235D01*
X23844Y239162D01*
X24291Y240242D01*
X24444Y241400D01*
X24291Y242558D01*
X23844Y243638D01*
X23133Y244565D01*
X22206Y245276D01*
X21127Y245723D01*
X19969Y245875D01*
D02*
G37*
G36*
X127769Y240964D02*
X120864D01*
Y235633D01*
X127769D01*
Y237279D01*
X130279D01*
X130779Y236779D01*
X131110Y236558D01*
X131500Y236480D01*
X132448D01*
Y235456D01*
X136597D01*
Y239605D01*
X132448D01*
Y238520D01*
X131922D01*
X131422Y239019D01*
X131092Y239240D01*
X130702Y239318D01*
X127769D01*
Y240964D01*
D02*
G37*
G36*
X377000Y238875D02*
X375842Y238723D01*
X374762Y238276D01*
X373835Y237564D01*
X373124Y236638D01*
X372677Y235558D01*
X372659Y235420D01*
X368427D01*
X366626Y237221D01*
X366295Y237442D01*
X365905Y237520D01*
X359604D01*
X359570Y237570D01*
X359079Y237898D01*
X358500Y238013D01*
X357921Y237898D01*
X357430Y237570D01*
X357102Y237079D01*
X356987Y236500D01*
X357102Y235921D01*
X357430Y235430D01*
X357921Y235102D01*
X358500Y234987D01*
X359079Y235102D01*
X359570Y235430D01*
X359604Y235480D01*
X365482D01*
X367284Y233679D01*
X367615Y233458D01*
X368005Y233380D01*
X372659D01*
X372677Y233242D01*
X373124Y232162D01*
X373835Y231236D01*
X374762Y230524D01*
X375842Y230077D01*
X377000Y229925D01*
X378158Y230077D01*
X379238Y230524D01*
X380165Y231236D01*
X380876Y232162D01*
X381323Y233242D01*
X381475Y234400D01*
X381323Y235558D01*
X380876Y236638D01*
X380165Y237564D01*
X379238Y238276D01*
X378158Y238723D01*
X377000Y238875D01*
D02*
G37*
G36*
X56000Y242174D02*
X55103Y241995D01*
X54342Y241487D01*
X53834Y240726D01*
X53655Y239828D01*
X53834Y238931D01*
X54342Y238170D01*
X55103Y237662D01*
X56000Y237483D01*
X56897Y237662D01*
X57658Y238170D01*
X57744Y238299D01*
X67538D01*
X67971Y237866D01*
Y229086D01*
Y219672D01*
X68087Y219086D01*
X68419Y218590D01*
X70393Y216615D01*
X70890Y216284D01*
X71475Y216167D01*
X72768D01*
Y215130D01*
X77114D01*
Y219870D01*
X72768D01*
Y219226D01*
X72108D01*
X71029Y220305D01*
Y225924D01*
X71086Y225971D01*
X72768D01*
Y225130D01*
X77114D01*
Y229870D01*
X72768D01*
Y229029D01*
X71719D01*
X71029Y229719D01*
Y235971D01*
X72768D01*
Y235130D01*
X77114D01*
Y239870D01*
X72768D01*
Y239029D01*
X71134D01*
X69253Y240910D01*
X68757Y241241D01*
X68172Y241358D01*
X57744D01*
X57658Y241487D01*
X56897Y241995D01*
X56000Y242174D01*
D02*
G37*
G36*
X142503Y239605D02*
X138353D01*
Y235456D01*
X139408D01*
Y234520D01*
X93204D01*
X93170Y234570D01*
X92679Y234898D01*
X92100Y235013D01*
X91521Y234898D01*
X91030Y234570D01*
X90702Y234079D01*
X90587Y233500D01*
X90702Y232921D01*
X91030Y232430D01*
X91521Y232102D01*
X92100Y231987D01*
X92679Y232102D01*
X93170Y232430D01*
X93204Y232480D01*
X171396D01*
X171430Y232430D01*
X171921Y232102D01*
X172500Y231987D01*
X173079Y232102D01*
X173570Y232430D01*
X173898Y232921D01*
X174013Y233500D01*
X173898Y234079D01*
X173570Y234570D01*
X173079Y234898D01*
X172500Y235013D01*
X171921Y234898D01*
X171430Y234570D01*
X171396Y234520D01*
X141447D01*
Y235456D01*
X142503D01*
Y239605D01*
D02*
G37*
G36*
X268500Y237921D02*
Y234500D01*
X271921D01*
X271851Y235032D01*
X271453Y235993D01*
X270819Y236819D01*
X269993Y237453D01*
X269032Y237851D01*
X268500Y237921D01*
D02*
G37*
G36*
X267500D02*
X266968Y237851D01*
X266007Y237453D01*
X265181Y236819D01*
X264547Y235993D01*
X264149Y235032D01*
X264079Y234500D01*
X267500D01*
Y237921D01*
D02*
G37*
G36*
X19969Y236380D02*
X18500D01*
Y231900D01*
X24882D01*
X24778Y232689D01*
X24281Y233890D01*
X23490Y234921D01*
X22458Y235713D01*
X21257Y236210D01*
X19969Y236380D01*
D02*
G37*
G36*
X17500D02*
X16032D01*
X14743Y236210D01*
X13542Y235713D01*
X12510Y234921D01*
X11719Y233890D01*
X11222Y232689D01*
X11118Y231900D01*
X17500D01*
Y236380D01*
D02*
G37*
G36*
X92730Y230964D02*
X85824D01*
Y229520D01*
X84000D01*
X83610Y229442D01*
X83279Y229221D01*
X82732Y228674D01*
X82232Y228881D01*
Y229870D01*
X77886D01*
Y225130D01*
X82232D01*
Y226480D01*
X83000D01*
X83390Y226558D01*
X83721Y226779D01*
X84422Y227480D01*
X85824D01*
Y225633D01*
X92730D01*
Y230964D01*
D02*
G37*
G36*
X316630Y228264D02*
X309724D01*
Y226520D01*
X307104D01*
X307070Y226570D01*
X306579Y226898D01*
X306000Y227013D01*
X305421Y226898D01*
X304930Y226570D01*
X304602Y226079D01*
X304487Y225500D01*
X304602Y224921D01*
X304930Y224430D01*
X305421Y224102D01*
X306000Y223987D01*
X306579Y224102D01*
X307070Y224430D01*
X307104Y224480D01*
X309724D01*
Y222933D01*
X316630D01*
Y228264D01*
D02*
G37*
G36*
X24882Y230900D02*
X18500D01*
Y226420D01*
X19969D01*
X21257Y226590D01*
X22458Y227087D01*
X23490Y227879D01*
X24281Y228910D01*
X24778Y230111D01*
X24882Y230900D01*
D02*
G37*
G36*
X17500D02*
X11118D01*
X11222Y230111D01*
X11719Y228910D01*
X12510Y227879D01*
X13542Y227087D01*
X14743Y226590D01*
X16032Y226420D01*
X17500D01*
Y230900D01*
D02*
G37*
G36*
X377000Y228875D02*
X375842Y228723D01*
X374762Y228276D01*
X373835Y227565D01*
X373124Y226638D01*
X372677Y225558D01*
X372666Y225470D01*
X367420D01*
X367398Y225579D01*
X367070Y226070D01*
X366579Y226398D01*
X366000Y226513D01*
X365421Y226398D01*
X364930Y226070D01*
X364602Y225579D01*
X364487Y225000D01*
X364602Y224421D01*
X364930Y223930D01*
X365421Y223602D01*
X366000Y223487D01*
X366148Y223516D01*
X366160Y223508D01*
X366550Y223430D01*
X372652D01*
X372677Y223242D01*
X373124Y222162D01*
X373835Y221235D01*
X374762Y220524D01*
X375842Y220077D01*
X377000Y219925D01*
X378158Y220077D01*
X379238Y220524D01*
X380165Y221235D01*
X380876Y222162D01*
X381323Y223242D01*
X381475Y224400D01*
X381323Y225558D01*
X380876Y226638D01*
X380165Y227565D01*
X379238Y228276D01*
X378158Y228723D01*
X377000Y228875D01*
D02*
G37*
G36*
X127769Y230964D02*
X120864D01*
Y225633D01*
X127769D01*
Y227480D01*
X129078D01*
X129779Y226779D01*
X130110Y226558D01*
X130500Y226480D01*
X132783D01*
Y225425D01*
X136933D01*
Y229575D01*
X132783D01*
Y228520D01*
X130922D01*
X130221Y229221D01*
X129890Y229442D01*
X129500Y229520D01*
X127769D01*
Y230964D01*
D02*
G37*
G36*
X195570Y227039D02*
X193298D01*
Y224965D01*
X195570D01*
Y227039D01*
D02*
G37*
G36*
X180298D02*
X178027D01*
Y224965D01*
X180298D01*
Y227039D01*
D02*
G37*
G36*
X225614Y222370D02*
X221268D01*
Y220989D01*
X217053D01*
Y222044D01*
X212903D01*
Y217895D01*
X217053D01*
Y218950D01*
X221268D01*
Y217630D01*
X225614D01*
Y222370D01*
D02*
G37*
G36*
X92730Y220964D02*
X85824D01*
Y219520D01*
X84000D01*
X83610Y219442D01*
X83279Y219221D01*
X82732Y218674D01*
X82232Y218881D01*
Y219870D01*
X77886D01*
Y215130D01*
X82232D01*
Y216480D01*
X83000D01*
X83390Y216558D01*
X83721Y216779D01*
X84422Y217480D01*
X85824D01*
Y215633D01*
X92730D01*
Y220964D01*
D02*
G37*
G36*
X47437Y222437D02*
X43000D01*
Y218000D01*
X47437D01*
Y222437D01*
D02*
G37*
G36*
X42000D02*
X37563D01*
Y218000D01*
X42000D01*
Y222437D01*
D02*
G37*
G36*
X211147Y222044D02*
X206997D01*
Y220989D01*
X204469D01*
X204079Y220911D01*
X203748Y220690D01*
X198693Y215635D01*
X198472Y215304D01*
X198395Y214914D01*
Y207902D01*
X198433Y207708D01*
Y202176D01*
X198340Y202076D01*
X197933Y201835D01*
X197780Y201866D01*
X197189D01*
X196879Y201804D01*
X196616Y201628D01*
X196384D01*
X196121Y201804D01*
X195811Y201866D01*
X195220D01*
X194910Y201804D01*
X194903Y201800D01*
X194532Y201669D01*
X194160Y201800D01*
X194153Y201804D01*
X193842Y201866D01*
X193252D01*
X192942Y201804D01*
X192679Y201628D01*
X192447D01*
X192184Y201804D01*
X191874Y201866D01*
X191284D01*
X190973Y201804D01*
X190710Y201628D01*
X190534Y201365D01*
X190473Y201055D01*
Y198483D01*
X190302Y198198D01*
X190017Y198027D01*
X187445D01*
X187135Y197966D01*
X186872Y197790D01*
X186696Y197527D01*
X186634Y197216D01*
Y196626D01*
X186665Y196472D01*
X186424Y196065D01*
X186324Y195972D01*
X184970D01*
X184002Y196940D01*
X184013Y197000D01*
X183898Y197579D01*
X183570Y198070D01*
X183079Y198398D01*
X182500Y198513D01*
X181921Y198398D01*
X181430Y198070D01*
X181102Y197579D01*
X180987Y197000D01*
X181102Y196421D01*
X181430Y195930D01*
X181921Y195602D01*
X182087Y195569D01*
X182146Y195453D01*
X181921Y194898D01*
X181430Y194570D01*
X181102Y194079D01*
X180987Y193500D01*
X181102Y192921D01*
X181360Y192535D01*
X181233Y192163D01*
X181138Y192035D01*
X177907D01*
X177898Y192079D01*
X177649Y192451D01*
Y193268D01*
X180370D01*
Y197614D01*
X175630D01*
Y194366D01*
X175610Y194268D01*
Y192691D01*
X175430Y192570D01*
X175102Y192079D01*
X174987Y191500D01*
X175102Y190921D01*
X175370Y190520D01*
X175267Y190192D01*
X175148Y190020D01*
X173009D01*
X172898Y190579D01*
X172570Y191070D01*
X172520Y191104D01*
Y193268D01*
X173870D01*
Y197614D01*
X169130D01*
Y193268D01*
X170480D01*
Y191104D01*
X170430Y191070D01*
X170102Y190579D01*
X169987Y190000D01*
X170102Y189421D01*
X170430Y188930D01*
X170921Y188602D01*
X171500Y188487D01*
X171560Y188498D01*
X171779Y188279D01*
X172110Y188058D01*
X172500Y187980D01*
X186292D01*
X186378Y187918D01*
X186655Y187480D01*
X186634Y187374D01*
Y186784D01*
X186696Y186473D01*
X186872Y186210D01*
X187135Y186034D01*
X187445Y185973D01*
X190201D01*
X190488Y185737D01*
Y182150D01*
X192226D01*
X192318Y182011D01*
X192747Y181725D01*
X193047Y181665D01*
Y184323D01*
X194047D01*
Y181509D01*
X194394Y181224D01*
Y163980D01*
X191633Y161219D01*
X191000Y161345D01*
X190103Y161167D01*
X189342Y160658D01*
X188833Y159897D01*
X188655Y159000D01*
X188833Y158103D01*
X189342Y157342D01*
X190103Y156833D01*
X191000Y156655D01*
X191897Y156833D01*
X192658Y157342D01*
X193167Y158103D01*
X193345Y159000D01*
X193219Y159633D01*
X193932Y160346D01*
X194394Y160155D01*
Y136984D01*
X194394Y136984D01*
X194480Y136555D01*
X194723Y136191D01*
X197878Y133035D01*
Y116965D01*
X197267Y116353D01*
X196879Y116672D01*
X197167Y117103D01*
X197345Y118000D01*
X197167Y118897D01*
X196658Y119658D01*
X195897Y120167D01*
X195000Y120345D01*
X194103Y120167D01*
X193342Y119658D01*
X192833Y118897D01*
X192655Y118000D01*
X192781Y117367D01*
X192142Y116728D01*
X191642Y116935D01*
Y122118D01*
X192142Y122385D01*
X192416Y122202D01*
X193110Y122064D01*
X193805Y122202D01*
X194393Y122595D01*
X194787Y123184D01*
X194925Y123878D01*
X194787Y124572D01*
X194393Y125161D01*
X193805Y125554D01*
X193110Y125692D01*
X192642Y125599D01*
X192142Y125927D01*
Y126415D01*
X193209D01*
X194009Y126520D01*
X194755Y126829D01*
X195396Y127321D01*
X195888Y127961D01*
X196197Y128707D01*
X196236Y129008D01*
X191142D01*
X186047D01*
X186087Y128707D01*
X186396Y127961D01*
X186535Y127779D01*
X186289Y127279D01*
X185614D01*
Y125598D01*
X188878D01*
Y124598D01*
X185614D01*
Y123659D01*
X183133D01*
X181529Y125263D01*
Y128000D01*
Y157079D01*
X183121Y158670D01*
X183452Y159167D01*
X183569Y159752D01*
Y160252D01*
X185252D01*
Y167748D01*
X179331D01*
Y160252D01*
X179723D01*
X179914Y159790D01*
X178919Y158794D01*
X178587Y158298D01*
X178471Y157713D01*
Y128633D01*
X173419Y123581D01*
X173087Y123085D01*
X172971Y122500D01*
Y104042D01*
X173087Y103456D01*
X173419Y102960D01*
X174590Y101789D01*
X175086Y101457D01*
X175672Y101341D01*
X185614D01*
Y100402D01*
X188878D01*
Y99402D01*
X185614D01*
Y97720D01*
X186289D01*
X186535Y97220D01*
X186396Y97039D01*
X186087Y96293D01*
X186047Y95992D01*
X191142D01*
X196236D01*
X196197Y96293D01*
X195888Y97039D01*
X195396Y97680D01*
X194755Y98171D01*
X194009Y98480D01*
X193209Y98585D01*
X192142D01*
Y99073D01*
X192642Y99401D01*
X193110Y99308D01*
X193805Y99446D01*
X194393Y99839D01*
X194787Y100428D01*
X194925Y101122D01*
X194787Y101816D01*
X194393Y102405D01*
X193805Y102798D01*
X193110Y102936D01*
X192416Y102798D01*
X192142Y102615D01*
X191642Y102882D01*
Y106488D01*
Y110394D01*
X196516D01*
X196516Y110394D01*
X196945Y110480D01*
X197309Y110723D01*
X202367Y115781D01*
X203000Y115655D01*
X203897Y115833D01*
X204658Y116342D01*
X205167Y117103D01*
X205345Y118000D01*
X205167Y118897D01*
X204658Y119658D01*
X203897Y120167D01*
X203000Y120345D01*
X202367Y120219D01*
X201822Y120765D01*
Y134300D01*
X201822Y134300D01*
X201736Y134729D01*
X201493Y135093D01*
X201493Y135093D01*
X198606Y137980D01*
Y163691D01*
X210723D01*
X211650Y162764D01*
Y156116D01*
X211521Y156091D01*
X211298Y155942D01*
X211149Y155719D01*
X211097Y155456D01*
Y150686D01*
X211149Y150423D01*
X211298Y150200D01*
X211521Y150051D01*
X211785Y149999D01*
X213759D01*
X214022Y150051D01*
X214245Y150200D01*
X214394Y150423D01*
X214446Y150686D01*
Y155456D01*
X214394Y155719D01*
X214245Y155942D01*
X214022Y156091D01*
X213893Y156116D01*
Y163228D01*
X213808Y163657D01*
X213565Y164021D01*
X213565Y164021D01*
X211980Y165606D01*
X211616Y165849D01*
X211187Y165934D01*
X211187Y165934D01*
X198652D01*
X198606Y165980D01*
Y181801D01*
X199106Y182144D01*
X199158Y182134D01*
X199748D01*
X200058Y182196D01*
X200321Y182371D01*
X200553D01*
X200816Y182196D01*
X201126Y182134D01*
X201716D01*
X202027Y182196D01*
X202290Y182371D01*
X202466Y182635D01*
X202527Y182945D01*
Y183303D01*
X206400D01*
X206480Y183223D01*
Y180125D01*
X206127Y179772D01*
X205425Y179772D01*
X205153Y180159D01*
Y180272D01*
X203079D01*
Y177500D01*
Y174728D01*
X205153D01*
Y174841D01*
X205207Y174917D01*
X205840Y174966D01*
X205931Y174875D01*
Y172625D01*
X205808Y172502D01*
X205192Y172548D01*
X205114Y172659D01*
Y172772D01*
X203039D01*
Y170000D01*
Y167228D01*
X205114D01*
Y167341D01*
X205386Y167728D01*
X205614Y167728D01*
X209535D01*
Y171971D01*
X212756D01*
X212842Y171842D01*
X213603Y171333D01*
X214500Y171155D01*
X215397Y171333D01*
X216158Y171842D01*
X216244Y171971D01*
X233756D01*
X233842Y171842D01*
X234603Y171333D01*
X235500Y171155D01*
X236397Y171333D01*
X237158Y171842D01*
X237667Y172603D01*
X237845Y173500D01*
X237667Y174397D01*
X237158Y175158D01*
X236397Y175667D01*
X235500Y175845D01*
X234603Y175667D01*
X233842Y175158D01*
X233756Y175029D01*
X216244D01*
X216158Y175158D01*
X215397Y175667D01*
X214500Y175845D01*
X213603Y175667D01*
X212842Y175158D01*
X212756Y175029D01*
X209992D01*
X209575Y175228D01*
Y179772D01*
X208520D01*
Y183646D01*
X208442Y184036D01*
X208221Y184367D01*
X207544Y185044D01*
X207213Y185265D01*
X206823Y185342D01*
X203099D01*
X202967Y185498D01*
X202972Y185634D01*
X203185Y185973D01*
X204100D01*
X204177Y185957D01*
X204255Y185973D01*
X205555D01*
X205865Y186034D01*
X206129Y186210D01*
X206304Y186473D01*
X206366Y186784D01*
Y187374D01*
X206356Y187426D01*
X206698Y187926D01*
X212047D01*
X212047Y187926D01*
X212476Y188011D01*
X212840Y188254D01*
X213465Y188878D01*
X215268D01*
Y187630D01*
X217481D01*
X217688Y187130D01*
X216779Y186221D01*
X216558Y185890D01*
X216480Y185500D01*
Y185272D01*
X215465D01*
Y184529D01*
X213744D01*
X213658Y184658D01*
X212897Y185167D01*
X212000Y185345D01*
X211103Y185167D01*
X210342Y184658D01*
X209833Y183897D01*
X209655Y183000D01*
X209833Y182103D01*
X210342Y181342D01*
X211103Y180833D01*
X212000Y180655D01*
X212897Y180833D01*
X213658Y181342D01*
X213744Y181471D01*
X215465D01*
Y180728D01*
X219614D01*
X219886Y180341D01*
Y180228D01*
X221961D01*
Y183000D01*
X222461D01*
Y183500D01*
X225035D01*
Y185772D01*
X222991D01*
X222784Y186272D01*
X223377Y186865D01*
X223598Y187196D01*
X223675Y187586D01*
Y187630D01*
X224732D01*
Y191687D01*
X225119Y192005D01*
X225209Y191987D01*
X225268Y191999D01*
X226835Y190432D01*
X227165Y190211D01*
X227556Y190134D01*
X228294D01*
X228430Y189930D01*
X228921Y189602D01*
X229500Y189487D01*
X230079Y189602D01*
X230480Y189870D01*
X230808Y189767D01*
X230980Y189648D01*
Y189104D01*
X230930Y189070D01*
X230602Y188579D01*
X230487Y188000D01*
X230602Y187421D01*
X230930Y186930D01*
X231421Y186602D01*
X232000Y186487D01*
X232579Y186602D01*
X233070Y186930D01*
X233398Y187421D01*
X233513Y188000D01*
X233398Y188579D01*
X233070Y189070D01*
X233020Y189104D01*
Y196414D01*
X232942Y196804D01*
X232721Y197135D01*
X232135Y197721D01*
X231804Y197942D01*
X231414Y198020D01*
X228104D01*
X228070Y198070D01*
X227579Y198398D01*
X227000Y198513D01*
X226421Y198398D01*
X225930Y198070D01*
X225732Y197774D01*
X225232Y197926D01*
Y199870D01*
X223059D01*
Y197000D01*
X222059D01*
Y199870D01*
X219886D01*
Y199758D01*
X219614Y199370D01*
X219386Y199370D01*
X215268D01*
Y194630D01*
X216319D01*
Y192370D01*
X215268D01*
Y191122D01*
X213415D01*
X213208Y191622D01*
X213293Y191707D01*
X213293Y191707D01*
X213536Y192071D01*
X213622Y192500D01*
X213621Y192500D01*
Y202833D01*
X213667Y202878D01*
X215268D01*
Y201630D01*
X219614D01*
Y206370D01*
X215268D01*
Y205121D01*
X213203D01*
X213203Y205122D01*
X212774Y205036D01*
X212410Y204793D01*
X212410Y204793D01*
X211707Y204090D01*
X211464Y203726D01*
X211378Y203297D01*
X211379Y203297D01*
Y192965D01*
X210551Y192137D01*
X206698D01*
X206356Y192637D01*
X206366Y192689D01*
Y193280D01*
X206304Y193590D01*
X206299Y193597D01*
X206169Y193968D01*
X206299Y194340D01*
X206304Y194347D01*
X206366Y194658D01*
Y195248D01*
X206304Y195558D01*
X206129Y195821D01*
Y196053D01*
X206304Y196316D01*
X206366Y196626D01*
Y197216D01*
X206304Y197527D01*
X206129Y197790D01*
X205865Y197966D01*
X205555Y198027D01*
X202983D01*
X202698Y198198D01*
X202527Y198483D01*
Y201055D01*
X202466Y201365D01*
X202441Y201403D01*
Y210499D01*
X202922Y210980D01*
X207661D01*
Y209925D01*
X211811D01*
Y214075D01*
X207661D01*
Y213020D01*
X202500D01*
X202110Y212942D01*
X201779Y212721D01*
X200934Y211876D01*
X200434Y212083D01*
Y214492D01*
X204892Y218950D01*
X206997D01*
Y217895D01*
X211147D01*
Y222044D01*
D02*
G37*
G36*
X228500Y227345D02*
X227603Y227167D01*
X226842Y226658D01*
X226333Y225897D01*
X226155Y225000D01*
X226333Y224103D01*
X226842Y223342D01*
X227000Y223236D01*
Y222370D01*
X226386D01*
Y217630D01*
X230732D01*
Y222370D01*
X230059D01*
Y223275D01*
X230158Y223342D01*
X230667Y224103D01*
X230845Y225000D01*
X230667Y225897D01*
X230158Y226658D01*
X229397Y227167D01*
X228500Y227345D01*
D02*
G37*
G36*
X127769Y220964D02*
X120864D01*
Y215633D01*
X127769D01*
Y217279D01*
X129279D01*
X129779Y216779D01*
X130110Y216558D01*
X130500Y216480D01*
X132472D01*
Y215425D01*
X136622D01*
Y219575D01*
X132472D01*
Y218520D01*
X130922D01*
X130422Y219019D01*
X130092Y219240D01*
X129702Y219318D01*
X127769D01*
Y220964D01*
D02*
G37*
G36*
X225614Y214370D02*
X221268D01*
Y213020D01*
X217717D01*
Y214075D01*
X213567D01*
Y209925D01*
X217717D01*
Y210980D01*
X221268D01*
Y209630D01*
X225614D01*
Y214370D01*
D02*
G37*
G36*
X351669Y218264D02*
X344764D01*
Y212933D01*
X351669D01*
Y213770D01*
X352768D01*
Y212630D01*
X352768D01*
X352954Y212180D01*
X352240Y211466D01*
X352000Y211513D01*
X351421Y211398D01*
X350930Y211070D01*
X350602Y210579D01*
X350487Y210000D01*
X350602Y209421D01*
X350930Y208930D01*
X351179Y208764D01*
X351027Y208264D01*
X344764D01*
Y202933D01*
X351669D01*
Y208043D01*
X351963Y208437D01*
X352071Y208501D01*
X352579Y208602D01*
X353070Y208930D01*
X353398Y209421D01*
X353477Y209819D01*
X355437Y211779D01*
X355659Y212110D01*
X355736Y212500D01*
Y212630D01*
X357114D01*
Y217370D01*
X352768D01*
Y216829D01*
X351669D01*
Y218264D01*
D02*
G37*
G36*
X47437Y217000D02*
X43000D01*
Y212563D01*
X47437D01*
Y217000D01*
D02*
G37*
G36*
X42000D02*
X37563D01*
Y212563D01*
X42000D01*
Y217000D01*
D02*
G37*
G36*
X230732Y214370D02*
X226386D01*
Y209630D01*
X226971D01*
Y207633D01*
X225737Y206399D01*
X223232D01*
X223084Y206370D01*
X220386D01*
Y201630D01*
X224732D01*
Y203341D01*
X226370D01*
X226955Y203457D01*
X227451Y203789D01*
X229581Y205919D01*
X229913Y206415D01*
X230029Y207000D01*
Y209630D01*
X230732D01*
Y210471D01*
X237256D01*
X237342Y210342D01*
X238103Y209833D01*
X239000Y209655D01*
X239897Y209833D01*
X240658Y210342D01*
X241167Y211103D01*
X241345Y212000D01*
X241167Y212897D01*
X240658Y213658D01*
X239897Y214167D01*
X239000Y214345D01*
X238103Y214167D01*
X237342Y213658D01*
X237256Y213529D01*
X230732D01*
Y214370D01*
D02*
G37*
G36*
X178500Y217013D02*
X177921Y216898D01*
X177430Y216570D01*
X177396Y216520D01*
X170256D01*
X169866Y216442D01*
X169535Y216221D01*
X165767Y212453D01*
X164791D01*
Y209405D01*
X167209D01*
Y211011D01*
X169046Y212848D01*
X169507Y212602D01*
X169487Y212500D01*
X169602Y211921D01*
X169930Y211430D01*
X170421Y211102D01*
X171000Y210987D01*
X171579Y211102D01*
X172070Y211430D01*
X172104Y211480D01*
X182772D01*
Y211138D01*
X182791Y211039D01*
Y209405D01*
X185209D01*
Y212453D01*
X184634D01*
X184512Y212635D01*
X183926Y213221D01*
X183596Y213442D01*
X183205Y213520D01*
X178788D01*
X178711Y213555D01*
X178665Y214020D01*
X178809Y214048D01*
X179079Y214102D01*
X179570Y214430D01*
X179898Y214921D01*
X180013Y215500D01*
X179898Y216079D01*
X179570Y216570D01*
X179079Y216898D01*
X178500Y217013D01*
D02*
G37*
G36*
X174000Y210513D02*
X173421Y210398D01*
X172930Y210070D01*
X172896Y210020D01*
X169504D01*
X169114Y209942D01*
X168783Y209721D01*
X167676Y208614D01*
X167606D01*
X167508Y208594D01*
X166543D01*
Y206020D01*
X165476D01*
Y207039D01*
X165457Y207138D01*
Y208594D01*
X163394D01*
Y205547D01*
X163438D01*
X163515Y205164D01*
X163736Y204833D01*
X164290Y204279D01*
X164621Y204058D01*
X165011Y203980D01*
X169578D01*
X169980Y203578D01*
Y202732D01*
X169130D01*
Y198386D01*
X173870D01*
Y202732D01*
X172020D01*
Y204000D01*
X171942Y204390D01*
X171721Y204721D01*
X170721Y205721D01*
X170390Y205942D01*
X170000Y206020D01*
X168606D01*
Y206731D01*
X168819Y206873D01*
X169926Y207980D01*
X172896D01*
X172930Y207930D01*
X173421Y207602D01*
X174000Y207487D01*
X174579Y207602D01*
X175070Y207930D01*
X175398Y208421D01*
X175513Y209000D01*
X175398Y209579D01*
X175070Y210070D01*
X174579Y210398D01*
X174000Y210513D01*
D02*
G37*
G36*
X16969Y209479D02*
X15500D01*
Y205992D01*
X20889D01*
X20820Y206524D01*
X20421Y207486D01*
X19788Y208311D01*
X18962Y208945D01*
X18000Y209343D01*
X16969Y209479D01*
D02*
G37*
G36*
X14500D02*
X13032D01*
X12000Y209343D01*
X11038Y208945D01*
X10212Y208311D01*
X9579Y207486D01*
X9181Y206524D01*
X9110Y205992D01*
X14500D01*
Y209479D01*
D02*
G37*
G36*
X83295Y209347D02*
X77874D01*
Y205500D01*
X83295D01*
Y209347D01*
D02*
G37*
G36*
X76874D02*
X71453D01*
Y205500D01*
X76874D01*
Y209347D01*
D02*
G37*
G36*
X186606Y208594D02*
X184543D01*
Y205547D01*
X186606D01*
Y205980D01*
X188396D01*
X188430Y205930D01*
X188921Y205602D01*
X189500Y205487D01*
X190079Y205602D01*
X190570Y205930D01*
X190898Y206421D01*
X191013Y207000D01*
X190898Y207579D01*
X190570Y208070D01*
X190079Y208398D01*
X189500Y208513D01*
X188921Y208398D01*
X188430Y208070D01*
X188396Y208020D01*
X186606D01*
Y208594D01*
D02*
G37*
G36*
X316630Y208264D02*
X309724D01*
Y202933D01*
X316630D01*
Y208264D01*
D02*
G37*
G36*
X160000Y203013D02*
X159421Y202898D01*
X158930Y202570D01*
X158896Y202520D01*
X145104D01*
X145070Y202570D01*
X144579Y202898D01*
X144000Y203013D01*
X143421Y202898D01*
X142930Y202570D01*
X142602Y202079D01*
X142487Y201500D01*
X142602Y200921D01*
X142930Y200430D01*
X143421Y200102D01*
X144000Y199987D01*
X144579Y200102D01*
X145070Y200430D01*
X145104Y200480D01*
X158896D01*
X158930Y200430D01*
X159421Y200102D01*
X160000Y199987D01*
X160579Y200102D01*
X161070Y200430D01*
X161398Y200921D01*
X161513Y201500D01*
X161398Y202079D01*
X161070Y202570D01*
X160579Y202898D01*
X160000Y203013D01*
D02*
G37*
G36*
X377000Y218875D02*
X375842Y218723D01*
X374762Y218276D01*
X373835Y217565D01*
X373124Y216638D01*
X372677Y215558D01*
X372606Y215020D01*
X368586D01*
X368196Y214942D01*
X367865Y214721D01*
X367279Y214135D01*
X367058Y213804D01*
X366980Y213414D01*
Y206422D01*
X362078Y201520D01*
X343422D01*
X343020Y201922D01*
Y214396D01*
X343070Y214430D01*
X343398Y214921D01*
X343513Y215500D01*
X343398Y216079D01*
X343070Y216570D01*
X342579Y216898D01*
X342000Y217013D01*
X341421Y216898D01*
X340930Y216570D01*
X340602Y216079D01*
X340487Y215500D01*
X340602Y214921D01*
X340930Y214430D01*
X340980Y214396D01*
Y201500D01*
X341058Y201110D01*
X341279Y200779D01*
X342279Y199779D01*
X342610Y199558D01*
X343000Y199480D01*
X362500D01*
X362890Y199558D01*
X363221Y199779D01*
X368721Y205279D01*
X368942Y205610D01*
X369020Y206000D01*
Y212980D01*
X372785D01*
X373124Y212162D01*
X373835Y211235D01*
X374762Y210524D01*
X375842Y210077D01*
X377000Y209925D01*
X378158Y210077D01*
X379238Y210524D01*
X380165Y211235D01*
X380876Y212162D01*
X381323Y213242D01*
X381475Y214400D01*
X381323Y215558D01*
X380876Y216638D01*
X380165Y217565D01*
X379238Y218276D01*
X378158Y218723D01*
X377000Y218875D01*
D02*
G37*
G36*
X83295Y204500D02*
X77874D01*
Y200654D01*
X83295D01*
Y204500D01*
D02*
G37*
G36*
X76874D02*
X71453D01*
Y200654D01*
X76874D01*
Y204500D01*
D02*
G37*
G36*
X61626Y213387D02*
X61047Y213272D01*
X60556Y212944D01*
X60228Y212453D01*
X60113Y211874D01*
X60228Y211295D01*
X60556Y210804D01*
X60606Y210770D01*
Y208846D01*
X56205D01*
Y206020D01*
X54172D01*
X53781Y205942D01*
X53451Y205721D01*
X47014Y199284D01*
X46523Y199381D01*
X46376Y199738D01*
X45665Y200664D01*
X44738Y201376D01*
X43658Y201823D01*
X42500Y201975D01*
X41342Y201823D01*
X40262Y201376D01*
X39336Y200664D01*
X38624Y199738D01*
X38177Y198658D01*
X38167Y198579D01*
X20308D01*
X19985Y199359D01*
X19431Y200081D01*
X18710Y200634D01*
X17870Y200982D01*
X17347Y201051D01*
Y201555D01*
X18000Y201641D01*
X18962Y202039D01*
X19788Y202673D01*
X20421Y203499D01*
X20820Y204460D01*
X20889Y204992D01*
X15000D01*
X9110D01*
X9181Y204460D01*
X9579Y203499D01*
X10212Y202673D01*
X11038Y202039D01*
X12000Y201641D01*
X12653Y201555D01*
Y201051D01*
X12130Y200982D01*
X11290Y200634D01*
X10569Y200081D01*
X10016Y199359D01*
X9668Y198520D01*
X9549Y197618D01*
X9668Y196717D01*
X10016Y195877D01*
X10569Y195156D01*
X11290Y194602D01*
X12130Y194254D01*
X13032Y194136D01*
X16969D01*
X17870Y194254D01*
X18710Y194602D01*
X19431Y195156D01*
X19985Y195877D01*
X20259Y196539D01*
X38151D01*
X38177Y196342D01*
X38624Y195262D01*
X39336Y194335D01*
X40262Y193624D01*
X41342Y193177D01*
X42500Y193025D01*
X43658Y193177D01*
X44738Y193624D01*
X45665Y194335D01*
X46376Y195262D01*
X46823Y196342D01*
X46846Y196515D01*
X47062Y196558D01*
X47392Y196779D01*
X54594Y203980D01*
X56205D01*
Y201153D01*
X67047D01*
Y208846D01*
X62646D01*
Y210770D01*
X62696Y210804D01*
X63024Y211295D01*
X63139Y211874D01*
X63024Y212453D01*
X62696Y212944D01*
X62205Y213272D01*
X61626Y213387D01*
D02*
G37*
G36*
X183457Y208594D02*
X181394D01*
Y207138D01*
X181374Y207039D01*
Y206020D01*
X178586D01*
X178196Y205942D01*
X177865Y205721D01*
X177279Y205135D01*
X177058Y204804D01*
X176980Y204414D01*
Y202732D01*
X175630D01*
Y198386D01*
X180370D01*
Y202732D01*
X179020D01*
Y203980D01*
X181808D01*
X182198Y204058D01*
X182529Y204279D01*
X183115Y204865D01*
X183336Y205196D01*
X183406Y205547D01*
X183457D01*
Y208594D01*
D02*
G37*
G36*
X377000Y208875D02*
X375842Y208723D01*
X374762Y208276D01*
X373835Y207564D01*
X373124Y206638D01*
X372677Y205558D01*
X372525Y204400D01*
X372677Y203242D01*
X373124Y202162D01*
X373166Y202108D01*
X368578Y197520D01*
X336422D01*
X333502Y200440D01*
X333513Y200500D01*
X333398Y201079D01*
X333070Y201570D01*
X332579Y201898D01*
X332000Y202013D01*
X331421Y201898D01*
X330930Y201570D01*
X330602Y201079D01*
X330487Y200500D01*
X330602Y199921D01*
X330930Y199430D01*
X331421Y199102D01*
X332000Y198987D01*
X332060Y198998D01*
X335279Y195779D01*
X335610Y195558D01*
X336000Y195480D01*
X369000D01*
X369390Y195558D01*
X369721Y195779D01*
X374595Y200653D01*
X374762Y200524D01*
X375842Y200077D01*
X377000Y199925D01*
X378158Y200077D01*
X379238Y200524D01*
X380165Y201236D01*
X380876Y202162D01*
X381323Y203242D01*
X381475Y204400D01*
X381323Y205558D01*
X380876Y206638D01*
X380165Y207564D01*
X379238Y208276D01*
X378158Y208723D01*
X377000Y208875D01*
D02*
G37*
G36*
X100000Y198513D02*
X99421Y198398D01*
X98930Y198070D01*
X98896Y198020D01*
X62500D01*
X62110Y197942D01*
X61779Y197721D01*
X60905Y196847D01*
X60684Y196516D01*
X60606Y196126D01*
Y193846D01*
X56205D01*
Y191020D01*
X54000D01*
X53610Y190942D01*
X53279Y190721D01*
X51065Y188507D01*
X51000Y188520D01*
X46841D01*
X46823Y188658D01*
X46376Y189738D01*
X45665Y190665D01*
X44738Y191376D01*
X43658Y191823D01*
X42500Y191975D01*
X41342Y191823D01*
X40262Y191376D01*
X39465Y190764D01*
X20283D01*
X19985Y191485D01*
X19431Y192207D01*
X18710Y192760D01*
X17870Y193108D01*
X16969Y193227D01*
X13032D01*
X12130Y193108D01*
X11290Y192760D01*
X10569Y192207D01*
X10016Y191485D01*
X9668Y190646D01*
X9549Y189744D01*
X9668Y188843D01*
X10016Y188003D01*
X10569Y187282D01*
X11290Y186728D01*
X12130Y186380D01*
X13032Y186262D01*
X16969D01*
X17870Y186380D01*
X18710Y186728D01*
X19431Y187282D01*
X19985Y188003D01*
X20283Y188725D01*
X37682D01*
X38120Y188224D01*
X38025Y187500D01*
X38177Y186342D01*
X38624Y185262D01*
X39336Y184335D01*
X40262Y183624D01*
X41342Y183177D01*
X42500Y183025D01*
X43658Y183177D01*
X44738Y183624D01*
X45665Y184335D01*
X46376Y185262D01*
X46823Y186342D01*
X46841Y186480D01*
X50683D01*
X50696Y186472D01*
X51086Y186395D01*
X51414D01*
X51804Y186472D01*
X52135Y186693D01*
X54422Y188980D01*
X56205D01*
Y186153D01*
X67047D01*
Y193846D01*
X62646D01*
Y195704D01*
X62922Y195980D01*
X98896D01*
X98930Y195930D01*
X99421Y195602D01*
X100000Y195487D01*
X100579Y195602D01*
X101070Y195930D01*
X101398Y196421D01*
X101513Y197000D01*
X101398Y197579D01*
X101070Y198070D01*
X100579Y198398D01*
X100000Y198513D01*
D02*
G37*
G36*
X83295Y194346D02*
X77874D01*
Y190500D01*
X83295D01*
Y194346D01*
D02*
G37*
G36*
X76874D02*
X71453D01*
Y190500D01*
X76874D01*
Y194346D01*
D02*
G37*
G36*
X369870Y189732D02*
X365130D01*
Y188579D01*
X356557D01*
X356079Y188898D01*
X355500Y189013D01*
X354921Y188898D01*
X354430Y188570D01*
X354102Y188079D01*
X353987Y187500D01*
X354102Y186921D01*
X354430Y186430D01*
X354921Y186102D01*
X355500Y185987D01*
X356079Y186102D01*
X356570Y186430D01*
X356643Y186539D01*
X358373D01*
X358525Y186039D01*
X358342Y185917D01*
X357833Y185157D01*
X357655Y184259D01*
X357833Y183362D01*
X358342Y182601D01*
X359103Y182092D01*
X360000Y181914D01*
X360513Y182016D01*
X361170Y181360D01*
X361666Y181028D01*
X362251Y180912D01*
X365130D01*
Y180268D01*
X369870D01*
Y180912D01*
X372630D01*
Y180268D01*
X377370D01*
Y184614D01*
X372630D01*
Y183970D01*
X369870D01*
Y184614D01*
X365130D01*
Y183970D01*
X362885D01*
X362283Y184572D01*
X362167Y185157D01*
X361658Y185917D01*
X361475Y186039D01*
X361627Y186539D01*
X365130D01*
Y185386D01*
X369870D01*
Y189732D01*
D02*
G37*
G36*
X83295Y189500D02*
X77874D01*
Y185653D01*
X83295D01*
Y189500D01*
D02*
G37*
G36*
X76874D02*
X71453D01*
Y185653D01*
X76874D01*
Y189500D01*
D02*
G37*
G36*
X335000Y188513D02*
X334421Y188398D01*
X333930Y188070D01*
X333896Y188020D01*
X316586D01*
X316196Y187942D01*
X315865Y187721D01*
X315279Y187135D01*
X315058Y186804D01*
X314980Y186414D01*
Y166520D01*
X294104D01*
X294070Y166570D01*
X293579Y166898D01*
X293000Y167013D01*
X292421Y166898D01*
X291930Y166570D01*
X291602Y166079D01*
X291487Y165500D01*
X291602Y164921D01*
X291930Y164430D01*
X292421Y164102D01*
X293000Y163987D01*
X293579Y164102D01*
X294070Y164430D01*
X294104Y164480D01*
X295712D01*
X295789Y164445D01*
X295834Y163980D01*
X295691Y163952D01*
X295421Y163898D01*
X294930Y163570D01*
X294602Y163079D01*
X294487Y162500D01*
X294602Y161921D01*
X294870Y161520D01*
X294767Y161192D01*
X294649Y161020D01*
X229000D01*
X228610Y160942D01*
X228279Y160721D01*
X227060Y159502D01*
X227000Y159513D01*
X226421Y159398D01*
X225930Y159070D01*
X225602Y158579D01*
X225487Y158000D01*
X225602Y157421D01*
X225930Y156930D01*
X226421Y156602D01*
X227000Y156487D01*
X227579Y156602D01*
X227833Y156772D01*
X227947Y156848D01*
X228308Y156487D01*
X228238Y156383D01*
X228102Y156179D01*
X227987Y155600D01*
X228102Y155021D01*
X228430Y154530D01*
X228445Y154520D01*
X228294Y154020D01*
X220104D01*
X220070Y154070D01*
X219579Y154398D01*
X219000Y154513D01*
X218421Y154398D01*
X217930Y154070D01*
X217602Y153579D01*
X217487Y153000D01*
X217602Y152421D01*
X217930Y151930D01*
X218421Y151602D01*
X219000Y151487D01*
X219579Y151602D01*
X220070Y151930D01*
X220104Y151980D01*
X230500D01*
X230890Y152058D01*
X231221Y152279D01*
X232422Y153480D01*
X257751D01*
X258154Y153246D01*
X258154Y152980D01*
Y150929D01*
X257172D01*
X256586Y150813D01*
X256090Y150481D01*
X254919Y149310D01*
X254587Y148814D01*
X254471Y148228D01*
Y140633D01*
X254046Y140208D01*
X253546Y140416D01*
Y140635D01*
X249002D01*
Y136485D01*
X253546D01*
Y136971D01*
X254500D01*
X255085Y137087D01*
X255581Y137419D01*
X257081Y138919D01*
X257413Y139415D01*
X257529Y140000D01*
Y147229D01*
X257653Y147312D01*
X258154Y147045D01*
Y145554D01*
X265846D01*
Y152980D01*
X265846Y153246D01*
X266249Y153480D01*
X270493D01*
X270593Y152980D01*
X270060Y152760D01*
X269257Y152143D01*
X268640Y151340D01*
X268253Y150404D01*
X268120Y149400D01*
X268253Y148396D01*
X268640Y147460D01*
X269257Y146657D01*
X270060Y146040D01*
X270471Y145870D01*
Y143633D01*
X266419Y139581D01*
X266087Y139085D01*
X265971Y138500D01*
Y134732D01*
X265130D01*
Y130386D01*
X269870D01*
Y134732D01*
X269029D01*
Y137866D01*
X273081Y141919D01*
X273413Y142415D01*
X273529Y143000D01*
Y145870D01*
X273940Y146040D01*
X274743Y146657D01*
X275360Y147460D01*
X275747Y148396D01*
X275880Y149400D01*
X275747Y150404D01*
X275360Y151340D01*
X274743Y152143D01*
X273940Y152760D01*
X273407Y152980D01*
X273507Y153480D01*
X281149D01*
X281267Y153308D01*
X281370Y152980D01*
X281102Y152579D01*
X280987Y152000D01*
X281102Y151421D01*
X281430Y150930D01*
X281921Y150602D01*
X282500Y150487D01*
X283079Y150602D01*
X283570Y150930D01*
X283604Y150980D01*
X301500D01*
X301890Y151058D01*
X302221Y151279D01*
X305922Y154980D01*
X326228D01*
Y152961D01*
X329000D01*
Y151961D01*
X326228D01*
Y149886D01*
X326341D01*
X326728Y149614D01*
Y148020D01*
X323500D01*
X323110Y147942D01*
X322779Y147721D01*
X321157Y146099D01*
X321048Y145935D01*
X320772Y145550D01*
X318500D01*
Y143565D01*
X317500D01*
Y145550D01*
X315228D01*
Y145404D01*
X312165D01*
Y145372D01*
X305035D01*
Y146772D01*
X301114D01*
X300886Y146772D01*
X300614Y147159D01*
Y147272D01*
X298539D01*
Y144500D01*
Y141728D01*
X300614D01*
Y141841D01*
X300886Y142228D01*
X300971D01*
X301426Y141912D01*
X301453Y141413D01*
X299419Y139379D01*
X299087Y138882D01*
X298971Y138297D01*
Y128970D01*
X269870D01*
Y129614D01*
X265130D01*
Y125268D01*
X269870D01*
Y125912D01*
X324577D01*
X325162Y126028D01*
X325658Y126359D01*
X336581Y137283D01*
X336913Y137779D01*
X337029Y138364D01*
Y148256D01*
X337158Y148342D01*
X337667Y149103D01*
X337825Y149899D01*
X338129Y150100D01*
X338321Y150168D01*
X338421Y150102D01*
X339000Y149987D01*
X339579Y150102D01*
X340070Y150430D01*
X340398Y150921D01*
X340513Y151500D01*
X340398Y152079D01*
X340070Y152570D01*
X339579Y152898D01*
X339000Y153013D01*
X338940Y153001D01*
X335924Y156018D01*
X336115Y156480D01*
X338896D01*
X338930Y156430D01*
X339421Y156102D01*
X340000Y155987D01*
X340579Y156102D01*
X341070Y156430D01*
X341398Y156921D01*
X341513Y157500D01*
X341398Y158079D01*
X341130Y158480D01*
X341233Y158808D01*
X341352Y158980D01*
X347500D01*
X347890Y159058D01*
X348221Y159279D01*
X349940Y160998D01*
X350000Y160987D01*
X350579Y161102D01*
X351070Y161430D01*
X351398Y161921D01*
X351513Y162500D01*
X351398Y163079D01*
X351070Y163570D01*
X350579Y163898D01*
X350000Y164013D01*
X349421Y163898D01*
X348930Y163570D01*
X348602Y163079D01*
X348487Y162500D01*
X348499Y162440D01*
X347078Y161020D01*
X305807D01*
X305689Y161192D01*
X305586Y161520D01*
X305854Y161921D01*
X305969Y162500D01*
X305854Y163079D01*
X305526Y163570D01*
X305035Y163898D01*
X304764Y163952D01*
X304621Y163980D01*
X304667Y164445D01*
X304743Y164480D01*
X315414D01*
X315804Y164558D01*
X316135Y164779D01*
X316721Y165365D01*
X316942Y165696D01*
X317020Y166086D01*
Y185980D01*
X333896D01*
X333930Y185930D01*
X334421Y185602D01*
X335000Y185487D01*
X335579Y185602D01*
X336070Y185930D01*
X336398Y186421D01*
X336513Y187000D01*
X336398Y187579D01*
X336070Y188070D01*
X335579Y188398D01*
X335000Y188513D01*
D02*
G37*
G36*
X225035Y182500D02*
X222961D01*
Y180228D01*
X225035D01*
Y182500D01*
D02*
G37*
G36*
X124240Y200390D02*
X115760D01*
Y185610D01*
X115971D01*
Y182608D01*
X115360Y182140D01*
X114880Y181513D01*
X114577Y180783D01*
X114474Y180000D01*
X114577Y179217D01*
X114880Y178487D01*
X115360Y177860D01*
X115987Y177380D01*
X116717Y177077D01*
X117500Y176974D01*
X118283Y177077D01*
X119013Y177380D01*
X119640Y177860D01*
X120121Y178487D01*
X120423Y179217D01*
X120526Y180000D01*
X120520Y180045D01*
X120945Y180471D01*
X121195D01*
X121912Y179754D01*
Y176870D01*
X121268D01*
Y172130D01*
X121912D01*
Y165870D01*
X121268D01*
Y161130D01*
X125614D01*
Y165870D01*
X124970D01*
Y172130D01*
X125614D01*
Y176870D01*
X124970D01*
Y180387D01*
X125039Y180471D01*
X166756D01*
X166842Y180342D01*
X167603Y179833D01*
X168500Y179655D01*
X169397Y179833D01*
X170158Y180342D01*
X170667Y181103D01*
X170845Y182000D01*
X170667Y182897D01*
X170158Y183658D01*
X169397Y184167D01*
X168500Y184345D01*
X167603Y184167D01*
X166842Y183658D01*
X166756Y183529D01*
X120312D01*
X119727Y183413D01*
X119529Y183281D01*
X119029Y183548D01*
Y185610D01*
X124240D01*
Y200390D01*
D02*
G37*
G36*
X202079Y180272D02*
X200004D01*
Y178000D01*
X202079D01*
Y180272D01*
D02*
G37*
G36*
X83295Y179347D02*
X77874D01*
Y175500D01*
X83295D01*
Y179347D01*
D02*
G37*
G36*
X76874D02*
X71453D01*
Y175500D01*
X76874D01*
Y179347D01*
D02*
G37*
G36*
X202079Y177000D02*
X200004D01*
Y174728D01*
X202079D01*
Y177000D01*
D02*
G37*
G36*
X165039Y176772D02*
X162965D01*
Y174500D01*
X165039D01*
Y176772D01*
D02*
G37*
G36*
X313610Y177543D02*
X304646D01*
Y173500D01*
X313610D01*
Y177543D01*
D02*
G37*
G36*
X303646D02*
X294681D01*
Y173500D01*
X303646D01*
Y177543D01*
D02*
G37*
G36*
X130732Y176870D02*
X126386D01*
Y172130D01*
X130732D01*
Y173480D01*
X132896D01*
X132930Y173430D01*
X133421Y173102D01*
X134000Y172987D01*
X134579Y173102D01*
X135070Y173430D01*
X135398Y173921D01*
X135513Y174500D01*
X135398Y175079D01*
X135070Y175570D01*
X134579Y175898D01*
X134000Y176013D01*
X133421Y175898D01*
X132930Y175570D01*
X132896Y175520D01*
X130732D01*
Y176870D01*
D02*
G37*
G36*
X165039Y173500D02*
X162965D01*
Y171228D01*
X165039D01*
Y173500D01*
D02*
G37*
G36*
X83295Y174500D02*
X77874D01*
Y170653D01*
X83295D01*
Y174500D01*
D02*
G37*
G36*
X76874D02*
X71453D01*
Y170653D01*
X76874D01*
Y174500D01*
D02*
G37*
G36*
X202039Y172772D02*
X199965D01*
Y170500D01*
X202039D01*
Y172772D01*
D02*
G37*
G36*
X335000Y184345D02*
X334103Y184167D01*
X333342Y183658D01*
X332833Y182897D01*
X332655Y182000D01*
X332833Y181103D01*
X333342Y180342D01*
X333471Y180256D01*
Y177043D01*
X325890D01*
Y168957D01*
X343819D01*
Y177043D01*
X336529D01*
Y180256D01*
X336658Y180342D01*
X337167Y181103D01*
X337345Y182000D01*
X337167Y182897D01*
X336658Y183658D01*
X335897Y184167D01*
X335000Y184345D01*
D02*
G37*
G36*
X313610Y172500D02*
X304646D01*
Y168457D01*
X313610D01*
Y172500D01*
D02*
G37*
G36*
X303646D02*
X294681D01*
Y168457D01*
X303646D01*
Y172500D01*
D02*
G37*
G36*
X202039Y169500D02*
X199965D01*
Y167228D01*
X202039D01*
Y169500D01*
D02*
G37*
G36*
X179500Y187013D02*
X178921Y186898D01*
X178430Y186570D01*
X178102Y186079D01*
X177987Y185500D01*
X178102Y184921D01*
X178430Y184430D01*
X178921Y184102D01*
X179500Y183987D01*
X180079Y184102D01*
X180570Y184430D01*
X180604Y184480D01*
X183078D01*
X188480Y179078D01*
Y169604D01*
X188430Y169570D01*
X188102Y169079D01*
X187987Y168500D01*
X188102Y167921D01*
X188430Y167430D01*
X188921Y167102D01*
X189500Y166987D01*
X190079Y167102D01*
X190570Y167430D01*
X190898Y167921D01*
X191013Y168500D01*
X190898Y169079D01*
X190570Y169570D01*
X190520Y169604D01*
Y179500D01*
X190442Y179890D01*
X190221Y180221D01*
X184221Y186221D01*
X183890Y186442D01*
X183500Y186520D01*
X180604D01*
X180570Y186570D01*
X180079Y186898D01*
X179500Y187013D01*
D02*
G37*
G36*
X266885Y219047D02*
X263738Y218870D01*
X260631Y218342D01*
X257603Y217470D01*
X254691Y216264D01*
X251933Y214739D01*
X249363Y212915D01*
X247013Y210815D01*
X244913Y208465D01*
X243089Y205895D01*
X241564Y203137D01*
X240358Y200225D01*
X239486Y197197D01*
X238958Y194090D01*
X238781Y190943D01*
X238958Y187797D01*
X239486Y184690D01*
X240358Y181661D01*
X241564Y178750D01*
X243089Y175991D01*
X244913Y173421D01*
X247013Y171071D01*
X249363Y168971D01*
X251933Y167148D01*
X254691Y165623D01*
X257603Y164417D01*
X260631Y163545D01*
X263738Y163017D01*
X266885Y162840D01*
X270031Y163017D01*
X273138Y163545D01*
X276167Y164417D01*
X279078Y165623D01*
X281837Y167148D01*
X284407Y168971D01*
X286757Y171071D01*
X288857Y173421D01*
X290680Y175991D01*
X292205Y178750D01*
X293411Y181661D01*
X294283Y184690D01*
X294811Y187797D01*
X294988Y190943D01*
X294811Y194090D01*
X294283Y197197D01*
X293411Y200225D01*
X292205Y203137D01*
X290680Y205895D01*
X288857Y208465D01*
X286757Y210815D01*
X284407Y212915D01*
X281837Y214739D01*
X279078Y216264D01*
X276167Y217470D01*
X273138Y218342D01*
X270031Y218870D01*
X266885Y219047D01*
D02*
G37*
G36*
X216000Y170013D02*
X215421Y169898D01*
X214930Y169570D01*
X214602Y169079D01*
X214487Y168500D01*
X214602Y167921D01*
X214930Y167430D01*
X215421Y167102D01*
X216000Y166987D01*
X216060Y166999D01*
X220279Y162779D01*
X220610Y162558D01*
X221000Y162480D01*
X239896D01*
X239930Y162430D01*
X240421Y162102D01*
X241000Y161987D01*
X241579Y162102D01*
X242070Y162430D01*
X242398Y162921D01*
X242513Y163500D01*
X242398Y164079D01*
X242070Y164570D01*
X241579Y164898D01*
X241000Y165013D01*
X240421Y164898D01*
X239930Y164570D01*
X239896Y164520D01*
X221422D01*
X217501Y168440D01*
X217513Y168500D01*
X217398Y169079D01*
X217070Y169570D01*
X216579Y169898D01*
X216000Y170013D01*
D02*
G37*
G36*
X83295Y164347D02*
X77874D01*
Y160500D01*
X83295D01*
Y164347D01*
D02*
G37*
G36*
X76874D02*
X71453D01*
Y160500D01*
X76874D01*
Y164347D01*
D02*
G37*
G36*
X130732Y165870D02*
X126386D01*
Y161130D01*
X127540D01*
Y160520D01*
X115500D01*
X115110Y160442D01*
X114779Y160221D01*
X113578Y159020D01*
X111448D01*
X111348Y159775D01*
X111000Y160615D01*
X110447Y161337D01*
X109725Y161890D01*
X108886Y162238D01*
X107984Y162356D01*
X106016D01*
X105114Y162238D01*
X104274Y161890D01*
X103553Y161337D01*
X103000Y160615D01*
X102652Y159775D01*
X102533Y158874D01*
X102652Y157973D01*
X103000Y157133D01*
X103553Y156412D01*
X104274Y155858D01*
X105114Y155510D01*
X106016Y155392D01*
X107984D01*
X108886Y155510D01*
X109725Y155858D01*
X110447Y156412D01*
X110883Y156980D01*
X114000D01*
X114390Y157058D01*
X114721Y157279D01*
X115922Y158480D01*
X120313D01*
X120768Y158370D01*
X120768Y157980D01*
Y156000D01*
X123441D01*
Y155500D01*
X123941D01*
Y152630D01*
X126114D01*
Y152742D01*
X126386Y153130D01*
X126614Y153130D01*
X130732D01*
Y157870D01*
X129579D01*
Y161130D01*
X130732D01*
Y165870D01*
D02*
G37*
G36*
X374503Y161139D02*
X367303D01*
Y157689D01*
X374503D01*
Y161139D01*
D02*
G37*
G36*
X83295Y159500D02*
X77874D01*
Y155654D01*
X83295D01*
Y159500D01*
D02*
G37*
G36*
X76874D02*
X71453D01*
Y155654D01*
X76874D01*
Y159500D01*
D02*
G37*
G36*
X374503Y156689D02*
X367303D01*
Y153239D01*
X374503D01*
Y156689D01*
D02*
G37*
G36*
X122941Y155000D02*
X120768D01*
Y152630D01*
X122941D01*
Y155000D01*
D02*
G37*
G36*
X136500Y154513D02*
X135921Y154398D01*
X135430Y154070D01*
X135102Y153579D01*
X134987Y153000D01*
X135102Y152421D01*
X135430Y151930D01*
X135921Y151602D01*
X136500Y151487D01*
X136734Y151533D01*
X137000Y151480D01*
X163896D01*
X163930Y151430D01*
X164421Y151102D01*
X165000Y150987D01*
X165579Y151102D01*
X166070Y151430D01*
X166398Y151921D01*
X166513Y152500D01*
X166398Y153079D01*
X166070Y153570D01*
X165579Y153898D01*
X165000Y154013D01*
X164421Y153898D01*
X163930Y153570D01*
X163896Y153520D01*
X137910D01*
X137898Y153579D01*
X137570Y154070D01*
X137079Y154398D01*
X136500Y154513D01*
D02*
G37*
G36*
X205500Y162345D02*
X204603Y162167D01*
X203842Y161658D01*
X203333Y160897D01*
X203155Y160000D01*
X203333Y159103D01*
X203842Y158342D01*
X204235Y158079D01*
Y156143D01*
X204225D01*
X203962Y156091D01*
X203739Y155942D01*
X203590Y155719D01*
X203538Y155456D01*
Y150686D01*
X203590Y150423D01*
X203739Y150200D01*
X203962Y150051D01*
X204225Y149999D01*
X206200D01*
X206463Y150051D01*
X206686Y150200D01*
X206835Y150423D01*
X206887Y150686D01*
Y155456D01*
X206835Y155719D01*
X206686Y155942D01*
X206478Y156081D01*
Y157887D01*
X207158Y158342D01*
X207667Y159103D01*
X207845Y160000D01*
X207667Y160897D01*
X207158Y161658D01*
X206397Y162167D01*
X205500Y162345D01*
D02*
G37*
G36*
X207657Y148584D02*
X206500D01*
Y145500D01*
X208974D01*
Y147267D01*
X208874Y147771D01*
X208588Y148198D01*
X208161Y148484D01*
X207657Y148584D01*
D02*
G37*
G36*
X205500D02*
X204344D01*
X203839Y148484D01*
X203412Y148198D01*
X203126Y147771D01*
X203026Y147267D01*
Y145500D01*
X205500D01*
Y148584D01*
D02*
G37*
G36*
X83295Y149346D02*
X77874D01*
Y145500D01*
X83295D01*
Y149346D01*
D02*
G37*
G36*
X76874D02*
X71453D01*
Y145500D01*
X76874D01*
Y149346D01*
D02*
G37*
G36*
X297539Y147272D02*
X295465D01*
Y145000D01*
X297539D01*
Y147272D01*
D02*
G37*
G36*
Y144000D02*
X295465D01*
Y141728D01*
X297539D01*
Y144000D01*
D02*
G37*
G36*
X208974Y144500D02*
X206500D01*
Y141416D01*
X207657D01*
X208161Y141516D01*
X208588Y141802D01*
X208874Y142229D01*
X208974Y142733D01*
Y144500D01*
D02*
G37*
G36*
X205500D02*
X203026D01*
Y142733D01*
X203126Y142229D01*
X203412Y141802D01*
X203839Y141516D01*
X204344Y141416D01*
X205500D01*
Y144500D01*
D02*
G37*
G36*
X83295Y144500D02*
X77874D01*
Y140654D01*
X83295D01*
Y144500D01*
D02*
G37*
G36*
X76874D02*
X71453D01*
Y140654D01*
X76874D01*
Y144500D01*
D02*
G37*
G36*
X235000Y148013D02*
X234421Y147898D01*
X233930Y147570D01*
X233602Y147079D01*
X233487Y146500D01*
X233602Y145921D01*
X233930Y145430D01*
X233980Y145396D01*
Y142732D01*
X232630D01*
Y138614D01*
X232630Y138386D01*
X232242Y138114D01*
X232130D01*
Y135941D01*
X235000D01*
Y135441D01*
D01*
Y135941D01*
X237870D01*
Y138114D01*
X237758D01*
X237370Y138386D01*
X237370Y138614D01*
Y139480D01*
X238500D01*
X238890Y139558D01*
X239221Y139779D01*
X240422Y140980D01*
X241128D01*
Y140225D01*
X245672D01*
Y144375D01*
X241128D01*
Y143020D01*
X240000D01*
X239610Y142942D01*
X239279Y142721D01*
X238078Y141520D01*
X237370D01*
Y142732D01*
X236020D01*
Y145396D01*
X236070Y145430D01*
X236398Y145921D01*
X236513Y146500D01*
X236398Y147079D01*
X236070Y147570D01*
X235579Y147898D01*
X235000Y148013D01*
D02*
G37*
G36*
X222500Y151345D02*
X221603Y151167D01*
X220842Y150658D01*
X220333Y149897D01*
X220155Y149000D01*
X220333Y148103D01*
X220842Y147342D01*
X220971Y147256D01*
Y136529D01*
X215691D01*
X214415Y137805D01*
Y142459D01*
X214446Y142615D01*
Y147385D01*
X214394Y147648D01*
X214245Y147871D01*
X214022Y148020D01*
X213759Y148072D01*
X211785D01*
X211521Y148020D01*
X211298Y147871D01*
X211149Y147648D01*
X211097Y147385D01*
Y142615D01*
X211149Y142352D01*
X211298Y142129D01*
X211356Y142090D01*
Y137172D01*
X211473Y136586D01*
X211804Y136090D01*
X213976Y133919D01*
X214472Y133587D01*
X215057Y133471D01*
X220201D01*
X220333Y132803D01*
X220842Y132042D01*
X221603Y131533D01*
X222500Y131355D01*
X223397Y131533D01*
X224158Y132042D01*
X224667Y132803D01*
X224845Y133700D01*
X224667Y134597D01*
X224158Y135358D01*
X224029Y135444D01*
Y140803D01*
X224159Y141249D01*
X224160Y141249D01*
Y141249D01*
X224529Y141285D01*
X224539Y141235D01*
X224602Y140921D01*
X224930Y140430D01*
X225421Y140102D01*
X226000Y139987D01*
X226579Y140102D01*
X227070Y140430D01*
X227398Y140921D01*
X227513Y141500D01*
X227398Y142079D01*
X227070Y142570D01*
X226579Y142898D01*
X226000Y143013D01*
X225421Y142898D01*
X224930Y142570D01*
X224602Y142079D01*
X224539Y141765D01*
X224529Y141715D01*
X224160Y141751D01*
Y141751D01*
X224159Y141751D01*
X224029Y142197D01*
Y147256D01*
X224158Y147342D01*
X224667Y148103D01*
X224845Y149000D01*
X224667Y149897D01*
X224158Y150658D01*
X223397Y151167D01*
X222500Y151345D01*
D02*
G37*
G36*
X246172Y137394D02*
X243900D01*
Y135320D01*
X246172D01*
Y137394D01*
D02*
G37*
G36*
X242900D02*
X240628D01*
Y135320D01*
X242900D01*
Y137394D01*
D02*
G37*
G36*
X16969Y177479D02*
X13032D01*
X12130Y177360D01*
X11290Y177012D01*
X10569Y176459D01*
X10016Y175737D01*
X9668Y174897D01*
X9549Y173996D01*
X9668Y173095D01*
X10016Y172255D01*
X10569Y171534D01*
X11290Y170980D01*
X12130Y170632D01*
X13032Y170513D01*
X16969D01*
X17870Y170632D01*
X18710Y170980D01*
X19431Y171534D01*
X19985Y172255D01*
X20285Y172980D01*
X29578D01*
X35279Y167279D01*
X35610Y167058D01*
X36000Y166980D01*
X38093D01*
X38177Y166342D01*
X38624Y165262D01*
X39336Y164336D01*
X40262Y163624D01*
X41342Y163177D01*
X42500Y163025D01*
X43658Y163177D01*
X44738Y163624D01*
X45665Y164336D01*
X46376Y165262D01*
X46473Y165497D01*
X46963Y165595D01*
X53279Y159279D01*
X53610Y159058D01*
X54000Y158980D01*
X56205D01*
Y156154D01*
X67047D01*
Y163847D01*
X62990D01*
X62788Y164347D01*
X64922Y166480D01*
X81578D01*
X82889Y165169D01*
X83220Y164948D01*
X83610Y164870D01*
X86760D01*
Y152110D01*
X89980D01*
Y147000D01*
X90058Y146610D01*
X90279Y146279D01*
X102879Y133679D01*
X103210Y133458D01*
X103600Y133380D01*
X143274D01*
X143308Y133330D01*
X143799Y133002D01*
X144378Y132887D01*
X144957Y133002D01*
X145448Y133330D01*
X145776Y133821D01*
X145891Y134400D01*
X145776Y134979D01*
X145448Y135470D01*
X144957Y135798D01*
X144378Y135913D01*
X143799Y135798D01*
X143308Y135470D01*
X143274Y135420D01*
X104022D01*
X92020Y147422D01*
Y152110D01*
X95240D01*
Y166890D01*
X87858D01*
X87760Y166909D01*
X84033D01*
X82721Y168221D01*
X82390Y168442D01*
X82000Y168520D01*
X64500D01*
X64110Y168442D01*
X63779Y168221D01*
X60905Y165347D01*
X60684Y165016D01*
X60606Y164626D01*
Y163847D01*
X56205D01*
Y161020D01*
X54422D01*
X46829Y168613D01*
X46823Y168658D01*
X46376Y169738D01*
X45665Y170665D01*
X44738Y171376D01*
X43658Y171823D01*
X42500Y171975D01*
X41342Y171823D01*
X40262Y171376D01*
X39336Y170665D01*
X38624Y169738D01*
X38327Y169020D01*
X36422D01*
X30721Y174721D01*
X30390Y174942D01*
X30000Y175020D01*
X20282D01*
X19985Y175737D01*
X19431Y176459D01*
X18710Y177012D01*
X17870Y177360D01*
X16969Y177479D01*
D02*
G37*
G36*
X237870Y134941D02*
X235500D01*
Y132768D01*
X237870D01*
Y134941D01*
D02*
G37*
G36*
X234500D02*
X232130D01*
Y132768D01*
X234500D01*
Y134941D01*
D02*
G37*
G36*
X246172Y134320D02*
X243900D01*
Y132245D01*
X246172D01*
Y134320D01*
D02*
G37*
G36*
X242900D02*
X240628D01*
Y132245D01*
X242900D01*
Y134320D01*
D02*
G37*
G36*
X168114Y176772D02*
X166039D01*
Y174000D01*
Y171228D01*
X168114D01*
Y171341D01*
X168120Y171350D01*
X168799Y171457D01*
X168931Y171360D01*
Y170805D01*
X167627Y169501D01*
X167296Y169005D01*
X167179Y168420D01*
Y167748D01*
X165748D01*
Y160252D01*
X167179D01*
Y142738D01*
X164419Y139977D01*
X164087Y139481D01*
X163971Y138896D01*
Y135444D01*
X163842Y135358D01*
X163333Y134597D01*
X163155Y133700D01*
X163333Y132803D01*
X163842Y132042D01*
X164603Y131533D01*
X165500Y131355D01*
X166397Y131533D01*
X167158Y132042D01*
X167667Y132803D01*
X167845Y133700D01*
X167667Y134597D01*
X167158Y135358D01*
X167029Y135444D01*
Y138262D01*
X169790Y141023D01*
X170122Y141519D01*
X170238Y142104D01*
Y160252D01*
X171669D01*
Y167748D01*
X170907D01*
X170700Y168248D01*
X171542Y169090D01*
X171874Y169586D01*
X171990Y170172D01*
Y171728D01*
X172535D01*
Y176272D01*
X168614D01*
X168386Y176272D01*
X168114Y176659D01*
Y176772D01*
D02*
G37*
G36*
X363828Y150486D02*
X352365D01*
X351867Y150387D01*
X344965D01*
Y145487D01*
X351867D01*
X352365Y145388D01*
X362451D01*
Y135056D01*
X359292Y131897D01*
X355119D01*
X354143Y131703D01*
X353316Y131151D01*
X348645Y126479D01*
X348217Y126423D01*
X347487Y126120D01*
X346860Y125640D01*
X346379Y125013D01*
X346077Y124283D01*
X345974Y123500D01*
X346077Y122717D01*
X346379Y121987D01*
X346451Y121894D01*
Y118240D01*
X341610D01*
Y109760D01*
X356390D01*
Y118240D01*
X351549D01*
Y121894D01*
X351621Y121987D01*
X351803Y122428D01*
X356175Y126799D01*
X360348D01*
X361324Y126993D01*
X362151Y127546D01*
X366802Y132198D01*
X366824Y132230D01*
X367303Y132085D01*
Y131311D01*
X374503D01*
Y134761D01*
X367549D01*
Y146765D01*
X367355Y147741D01*
X366802Y148568D01*
X365631Y149739D01*
X364804Y150292D01*
X363828Y150486D01*
D02*
G37*
G36*
X20421Y138079D02*
X9579D01*
Y131173D01*
X20421D01*
Y138079D01*
D02*
G37*
G36*
X76874Y134346D02*
X71453D01*
Y130500D01*
X76874D01*
Y134346D01*
D02*
G37*
G36*
X193209Y132601D02*
X191642D01*
Y130008D01*
X196236D01*
X196197Y130308D01*
X195888Y131055D01*
X195396Y131695D01*
X194755Y132187D01*
X194009Y132496D01*
X193209Y132601D01*
D02*
G37*
G36*
X209567Y132502D02*
X208099D01*
Y130008D01*
X212495D01*
X212459Y130283D01*
X212160Y131005D01*
X211684Y131625D01*
X211064Y132101D01*
X210342Y132400D01*
X209567Y132502D01*
D02*
G37*
G36*
X207099D02*
X205630D01*
X204855Y132400D01*
X204133Y132101D01*
X203513Y131625D01*
X203037Y131005D01*
X202738Y130283D01*
X202702Y130008D01*
X207099D01*
Y132502D01*
D02*
G37*
G36*
X190642Y132601D02*
X189075D01*
X188274Y132496D01*
X187528Y132187D01*
X186887Y131695D01*
X186396Y131055D01*
X186087Y130308D01*
X186047Y130008D01*
X190642D01*
Y132601D01*
D02*
G37*
G36*
X176000Y143013D02*
X175421Y142898D01*
X174930Y142570D01*
X174602Y142079D01*
X174487Y141500D01*
X174602Y140921D01*
X174930Y140430D01*
X174980Y140396D01*
Y131904D01*
X174930Y131870D01*
X174602Y131379D01*
X174487Y130800D01*
X174602Y130221D01*
X174930Y129730D01*
X175421Y129402D01*
X176000Y129287D01*
X176579Y129402D01*
X177070Y129730D01*
X177398Y130221D01*
X177513Y130800D01*
X177398Y131379D01*
X177070Y131870D01*
X177020Y131904D01*
Y140396D01*
X177070Y140430D01*
X177398Y140921D01*
X177513Y141500D01*
X177398Y142079D01*
X177070Y142570D01*
X176579Y142898D01*
X176000Y143013D01*
D02*
G37*
G36*
X16969Y169605D02*
X13032D01*
X12130Y169486D01*
X11290Y169138D01*
X10569Y168585D01*
X10016Y167863D01*
X9668Y167023D01*
X9549Y166122D01*
X9668Y165221D01*
X10016Y164381D01*
X10569Y163660D01*
X11290Y163106D01*
X12130Y162758D01*
X13032Y162639D01*
X16969D01*
X17870Y162758D01*
X18710Y163106D01*
X19431Y163660D01*
X19985Y164381D01*
X20283Y165103D01*
X32455D01*
X38389Y159169D01*
X38177Y158658D01*
X38025Y157500D01*
X38177Y156342D01*
X38624Y155262D01*
X39336Y154335D01*
X40262Y153624D01*
X41342Y153177D01*
X42500Y153025D01*
X43658Y153177D01*
X44169Y153389D01*
X53278Y144279D01*
X53609Y144058D01*
X53999Y143980D01*
X56205D01*
Y141154D01*
X60606D01*
Y139374D01*
X60684Y138984D01*
X60905Y138653D01*
X63279Y136279D01*
X63610Y136058D01*
X64000Y135980D01*
X81578D01*
X82750Y134808D01*
X82558Y134346D01*
X77874D01*
Y130500D01*
X83295D01*
Y133609D01*
X83757Y133801D01*
X87879Y129679D01*
X88210Y129458D01*
X88600Y129380D01*
X153274D01*
X153308Y129330D01*
X153799Y129002D01*
X154378Y128887D01*
X154957Y129002D01*
X155448Y129330D01*
X155776Y129821D01*
X155891Y130400D01*
X155776Y130979D01*
X155448Y131470D01*
X154957Y131798D01*
X154378Y131913D01*
X153799Y131798D01*
X153308Y131470D01*
X153274Y131420D01*
X89022D01*
X82721Y137721D01*
X82390Y137942D01*
X82000Y138020D01*
X64422D01*
X62646Y139796D01*
Y141154D01*
X67047D01*
Y148846D01*
X56205D01*
Y146020D01*
X54422D01*
X45856Y154585D01*
X46376Y155262D01*
X46823Y156342D01*
X46975Y157500D01*
X46823Y158658D01*
X46376Y159738D01*
X45665Y160664D01*
X44738Y161376D01*
X43658Y161823D01*
X42500Y161975D01*
X41342Y161823D01*
X40262Y161376D01*
X39585Y160856D01*
X33598Y166843D01*
X33267Y167064D01*
X32877Y167142D01*
X20283D01*
X19985Y167863D01*
X19431Y168585D01*
X18710Y169138D01*
X17870Y169486D01*
X16969Y169605D01*
D02*
G37*
G36*
X172500Y146513D02*
X171921Y146398D01*
X171430Y146070D01*
X171102Y145579D01*
X170987Y145000D01*
X171102Y144421D01*
X171430Y143930D01*
X171480Y143896D01*
Y129422D01*
X169078Y127020D01*
X147535D01*
Y127465D01*
X147500Y127500D01*
X126567D01*
X126500Y127513D01*
X126433Y127500D01*
X110000D01*
Y119996D01*
X99620D01*
X99570Y120070D01*
X99079Y120398D01*
X98500Y120513D01*
X97921Y120398D01*
X97430Y120070D01*
X97102Y119579D01*
X96987Y119000D01*
X97102Y118421D01*
X97430Y117930D01*
X97921Y117602D01*
X98500Y117487D01*
X99079Y117602D01*
X99570Y117930D01*
X99588Y117957D01*
X102133D01*
X102215Y117850D01*
X102354Y117457D01*
X102102Y117079D01*
X101987Y116500D01*
X102102Y115921D01*
X102430Y115430D01*
X102921Y115102D01*
X103500Y114987D01*
X104079Y115102D01*
X104570Y115430D01*
X104898Y115921D01*
X104910Y115980D01*
X106712D01*
X106789Y115945D01*
X106834Y115480D01*
X106691Y115452D01*
X106421Y115398D01*
X105930Y115070D01*
X105602Y114579D01*
X105487Y114000D01*
X105602Y113421D01*
X105930Y112930D01*
X106421Y112602D01*
X107000Y112487D01*
X107579Y112602D01*
X108070Y112930D01*
X108258Y113211D01*
X108260Y113211D01*
X108590Y113432D01*
X109155Y113996D01*
X110000D01*
Y105000D01*
X110480D01*
Y94000D01*
X110558Y93610D01*
X110779Y93279D01*
X113779Y90279D01*
X114110Y90058D01*
X114500Y89980D01*
X139000D01*
X139390Y90058D01*
X139721Y90279D01*
X143721Y94279D01*
X143942Y94610D01*
X144020Y95000D01*
Y102578D01*
X147422Y105980D01*
X167896D01*
X167930Y105930D01*
X168421Y105602D01*
X169000Y105487D01*
X169579Y105602D01*
X170070Y105930D01*
X170398Y106421D01*
X170513Y107000D01*
X170398Y107579D01*
X170070Y108070D01*
X169579Y108398D01*
X169000Y108513D01*
X168421Y108398D01*
X167930Y108070D01*
X167896Y108020D01*
X148095D01*
X147971Y108044D01*
X147846Y108020D01*
X147000D01*
X146610Y107942D01*
X146279Y107721D01*
X142279Y103721D01*
X142058Y103390D01*
X141980Y103000D01*
Y95422D01*
X138578Y92020D01*
X114922D01*
X112520Y94422D01*
Y105000D01*
X122980D01*
Y103535D01*
X121728D01*
Y102760D01*
X119431D01*
X119140Y103140D01*
X118513Y103621D01*
X117783Y103923D01*
X117000Y104026D01*
X116217Y103923D01*
X115487Y103621D01*
X114860Y103140D01*
X114380Y102513D01*
X114077Y101783D01*
X113974Y101000D01*
X114077Y100217D01*
X114380Y99487D01*
X114860Y98860D01*
X115487Y98379D01*
X116217Y98077D01*
X117000Y97974D01*
X117783Y98077D01*
X118513Y98379D01*
X119140Y98860D01*
X119621Y99487D01*
X119709Y99701D01*
X121307D01*
X121334Y99614D01*
X121228Y99114D01*
X121228D01*
Y97039D01*
X124000D01*
X126772D01*
Y99114D01*
X126659D01*
X126272Y99386D01*
X126272Y99614D01*
Y103535D01*
X125020D01*
Y105000D01*
X134471D01*
Y103608D01*
X133860Y103140D01*
X133379Y102513D01*
X133077Y101783D01*
X132974Y101000D01*
X133077Y100217D01*
X133379Y99487D01*
X133860Y98860D01*
X134487Y98379D01*
X135217Y98077D01*
X136000Y97974D01*
X136783Y98077D01*
X137513Y98379D01*
X138140Y98860D01*
X138620Y99487D01*
X138923Y100217D01*
X139026Y101000D01*
X138923Y101783D01*
X138620Y102513D01*
X138140Y103140D01*
X137529Y103608D01*
Y105000D01*
X138039D01*
Y110728D01*
X142114D01*
X142386Y110341D01*
Y110228D01*
X144461D01*
Y113000D01*
X144961D01*
Y113500D01*
X147535D01*
Y115772D01*
Y124980D01*
X160260D01*
Y118000D01*
X165000D01*
X169740D01*
Y125028D01*
X169890Y125058D01*
X170221Y125279D01*
X173221Y128279D01*
X173442Y128610D01*
X173520Y129000D01*
Y143896D01*
X173570Y143930D01*
X173898Y144421D01*
X174013Y145000D01*
X173898Y145579D01*
X173570Y146070D01*
X173079Y146398D01*
X172500Y146513D01*
D02*
G37*
G36*
X374503Y130311D02*
X367303D01*
Y126861D01*
X374503D01*
Y130311D01*
D02*
G37*
G36*
X212495Y129008D02*
X208099D01*
Y126514D01*
X209567D01*
X210342Y126616D01*
X211064Y126915D01*
X211684Y127391D01*
X212160Y128011D01*
X212459Y128733D01*
X212495Y129008D01*
D02*
G37*
G36*
X207099D02*
X202702D01*
X202738Y128733D01*
X203037Y128011D01*
X203513Y127391D01*
X204133Y126915D01*
X204855Y126616D01*
X205630Y126514D01*
X207099D01*
Y129008D01*
D02*
G37*
G36*
X16969Y161731D02*
X13032D01*
X12130Y161612D01*
X11290Y161264D01*
X10569Y160711D01*
X10016Y159989D01*
X9668Y159149D01*
X9549Y158248D01*
X9668Y157347D01*
X10016Y156507D01*
X10569Y155786D01*
X11290Y155232D01*
X12130Y154884D01*
X13032Y154765D01*
X16969D01*
X17870Y154884D01*
X18710Y155232D01*
X19431Y155786D01*
X19985Y156507D01*
X20283Y157228D01*
X29744D01*
X38217Y148755D01*
X38177Y148658D01*
X38025Y147500D01*
X38177Y146342D01*
X38624Y145262D01*
X39336Y144335D01*
X40262Y143624D01*
X41342Y143177D01*
X42500Y143025D01*
X43658Y143177D01*
X44738Y143624D01*
X45415Y144144D01*
X50980Y138578D01*
Y133163D01*
X51058Y132773D01*
X51279Y132442D01*
X54442Y129279D01*
X54773Y129058D01*
X55163Y128980D01*
X56205D01*
Y126154D01*
X67047D01*
Y133846D01*
X56205D01*
Y131020D01*
X55585D01*
X53020Y133585D01*
Y139000D01*
X52942Y139390D01*
X52721Y139721D01*
X46611Y145831D01*
X46823Y146342D01*
X46975Y147500D01*
X46823Y148658D01*
X46376Y149738D01*
X45665Y150664D01*
X44738Y151376D01*
X43658Y151823D01*
X42500Y151975D01*
X41342Y151823D01*
X40262Y151376D01*
X39336Y150664D01*
X39200Y150656D01*
X30887Y158969D01*
X30556Y159190D01*
X30166Y159268D01*
X20283D01*
X19985Y159989D01*
X19431Y160711D01*
X18710Y161264D01*
X17870Y161612D01*
X16969Y161731D01*
D02*
G37*
G36*
X83295Y129500D02*
X77874D01*
Y125654D01*
X83295D01*
Y129500D01*
D02*
G37*
G36*
X76874D02*
X71453D01*
Y125654D01*
X76874D01*
Y129500D01*
D02*
G37*
G36*
X352365Y142612D02*
X347515D01*
X347017Y142513D01*
X344965D01*
Y141118D01*
X335198Y131350D01*
X334645Y130524D01*
X334451Y129548D01*
Y125101D01*
X333951Y125069D01*
X333923Y125283D01*
X333621Y126013D01*
X333140Y126640D01*
X332513Y127120D01*
X331783Y127423D01*
X331000Y127526D01*
X330217Y127423D01*
X329487Y127120D01*
X328860Y126640D01*
X328380Y126013D01*
X328077Y125283D01*
X327974Y124500D01*
X328016Y124180D01*
X325668Y121832D01*
X325602Y121732D01*
X324630D01*
Y117386D01*
X329370D01*
Y118324D01*
X332802Y121757D01*
X333355Y122584D01*
X333370Y122661D01*
X333621Y122987D01*
X333923Y123717D01*
X333951Y123931D01*
X334451Y123898D01*
Y111606D01*
X334380Y111513D01*
X334077Y110783D01*
X333974Y110000D01*
X334077Y109217D01*
X334380Y108487D01*
X334860Y107860D01*
X335254Y107558D01*
X335389Y107357D01*
X341610Y101135D01*
Y96260D01*
X356390D01*
Y104740D01*
X345215D01*
X340018Y109938D01*
X340026Y110000D01*
X339923Y110783D01*
X339620Y111513D01*
X339549Y111606D01*
Y128492D01*
X348571Y137514D01*
X352365D01*
X352863Y137613D01*
X359765D01*
Y142513D01*
X352863D01*
X352365Y142612D01*
D02*
G37*
G36*
X308000Y124026D02*
X307217Y123923D01*
X306487Y123620D01*
X305860Y123140D01*
X305380Y122513D01*
X305077Y121783D01*
X304974Y121000D01*
X305077Y120217D01*
X305380Y119487D01*
X305860Y118860D01*
X306487Y118379D01*
X307217Y118077D01*
X308000Y117974D01*
X308783Y118077D01*
X309224Y118260D01*
X311630D01*
Y117386D01*
X316370D01*
Y121732D01*
X315408D01*
X315361Y121802D01*
X314553Y122611D01*
X313726Y123164D01*
X312750Y123358D01*
X309856D01*
X309513Y123620D01*
X308783Y123923D01*
X308000Y124026D01*
D02*
G37*
G36*
X83295Y119346D02*
X77874D01*
Y115500D01*
X83295D01*
Y119346D01*
D02*
G37*
G36*
X76874D02*
X71453D01*
Y115500D01*
X76874D01*
Y119346D01*
D02*
G37*
G36*
X42500Y121975D02*
X41342Y121823D01*
X40262Y121376D01*
X39336Y120665D01*
X38624Y119738D01*
X38177Y118658D01*
X38025Y117500D01*
X38177Y116342D01*
X38624Y115262D01*
X39336Y114336D01*
X40262Y113624D01*
X41342Y113177D01*
X42500Y113025D01*
X43658Y113177D01*
X44738Y113624D01*
X45665Y114336D01*
X46376Y115262D01*
X46823Y116342D01*
X46975Y117500D01*
X46823Y118658D01*
X46376Y119738D01*
X45665Y120665D01*
X44738Y121376D01*
X43658Y121823D01*
X42500Y121975D01*
D02*
G37*
G36*
X16969Y153857D02*
X13032D01*
X12130Y153738D01*
X11290Y153390D01*
X10569Y152837D01*
X10016Y152115D01*
X9668Y151275D01*
X9549Y150374D01*
X9668Y149473D01*
X10016Y148633D01*
X10569Y147912D01*
X11290Y147358D01*
X12130Y147010D01*
X13032Y146891D01*
X16969D01*
X17870Y147010D01*
X18710Y147358D01*
X19431Y147912D01*
X19985Y148633D01*
X20332Y149473D01*
X20333Y149480D01*
X28078D01*
X38389Y139169D01*
X38177Y138658D01*
X38025Y137500D01*
X38177Y136342D01*
X38624Y135262D01*
X39336Y134335D01*
X40262Y133624D01*
X41342Y133177D01*
X42500Y133025D01*
X43658Y133177D01*
X44738Y133624D01*
X45415Y134144D01*
X48480Y131078D01*
Y127500D01*
X48558Y127110D01*
X48779Y126779D01*
X53480Y122078D01*
Y116500D01*
X53558Y116110D01*
X53779Y115779D01*
X55279Y114279D01*
X55610Y114058D01*
X56000Y113980D01*
X56205D01*
Y111153D01*
X67047D01*
Y118846D01*
X56205D01*
Y117237D01*
X55705Y116989D01*
X55520Y117129D01*
Y122500D01*
X55442Y122890D01*
X55221Y123221D01*
X50520Y127922D01*
Y131500D01*
X50442Y131890D01*
X50221Y132221D01*
X46611Y135831D01*
X46823Y136342D01*
X46975Y137500D01*
X46823Y138658D01*
X46376Y139738D01*
X45665Y140665D01*
X44738Y141376D01*
X43658Y141823D01*
X42500Y141975D01*
X41342Y141823D01*
X40262Y141376D01*
X39586Y140856D01*
X29221Y151221D01*
X28890Y151442D01*
X28500Y151520D01*
X20231D01*
X19985Y152115D01*
X19431Y152837D01*
X18710Y153390D01*
X17870Y153738D01*
X16969Y153857D01*
D02*
G37*
G36*
X83295Y114500D02*
X77874D01*
Y110653D01*
X83295D01*
Y114500D01*
D02*
G37*
G36*
X76874D02*
X71453D01*
Y110653D01*
X76874D01*
Y114500D01*
D02*
G37*
G36*
X147535Y112500D02*
X145461D01*
Y110228D01*
X147535D01*
Y112500D01*
D02*
G37*
G36*
X169740Y117000D02*
X165500D01*
Y109610D01*
X169740D01*
Y117000D01*
D02*
G37*
G36*
X164500D02*
X160260D01*
Y109610D01*
X164500D01*
Y117000D01*
D02*
G37*
G36*
X316370Y116614D02*
X311630D01*
Y112268D01*
X312980D01*
Y109716D01*
X311925D01*
Y105567D01*
X316075D01*
Y109716D01*
X315020D01*
Y112268D01*
X316370D01*
Y116614D01*
D02*
G37*
G36*
X329370D02*
X324630D01*
Y112268D01*
X326011D01*
Y109053D01*
X324956D01*
Y104903D01*
X329105D01*
Y109053D01*
X328050D01*
Y112268D01*
X329370D01*
Y116614D01*
D02*
G37*
G36*
X42500Y111975D02*
X41342Y111823D01*
X40262Y111376D01*
X39336Y110664D01*
X38624Y109738D01*
X38177Y108658D01*
X38025Y107500D01*
X38177Y106342D01*
X38624Y105262D01*
X39336Y104335D01*
X40262Y103624D01*
X41342Y103177D01*
X42500Y103025D01*
X43658Y103177D01*
X44738Y103624D01*
X45665Y104335D01*
X46376Y105262D01*
X46823Y106342D01*
X46975Y107500D01*
X46823Y108658D01*
X46376Y109738D01*
X45665Y110664D01*
X44738Y111376D01*
X43658Y111823D01*
X42500Y111975D01*
D02*
G37*
G36*
X316575Y104311D02*
X314500D01*
Y102236D01*
X316575D01*
Y104311D01*
D02*
G37*
G36*
X313500D02*
X311425D01*
Y102236D01*
X313500D01*
Y104311D01*
D02*
G37*
G36*
X329606Y103647D02*
X327531D01*
Y101572D01*
X329606D01*
Y103647D01*
D02*
G37*
G36*
X326531D02*
X324456D01*
Y101572D01*
X326531D01*
Y103647D01*
D02*
G37*
G36*
X83295Y104347D02*
X77874D01*
Y100500D01*
X83295D01*
Y104347D01*
D02*
G37*
G36*
X76874D02*
X71453D01*
Y100500D01*
X76874D01*
Y104347D01*
D02*
G37*
G36*
X316575Y101236D02*
X314500D01*
Y99161D01*
X316575D01*
Y101236D01*
D02*
G37*
G36*
X313500D02*
X311425D01*
Y99161D01*
X313500D01*
Y101236D01*
D02*
G37*
G36*
X329606Y100572D02*
X327531D01*
Y98497D01*
X329606D01*
Y100572D01*
D02*
G37*
G36*
X326531D02*
X324456D01*
Y98497D01*
X326531D01*
Y100572D01*
D02*
G37*
G36*
X16969Y145983D02*
X13032D01*
X12130Y145864D01*
X11290Y145516D01*
X10569Y144963D01*
X10016Y144241D01*
X9668Y143401D01*
X9549Y142500D01*
X9668Y141599D01*
X10016Y140759D01*
X10569Y140038D01*
X11290Y139484D01*
X12130Y139136D01*
X13032Y139017D01*
X16969D01*
X17870Y139136D01*
X18710Y139484D01*
X19431Y140038D01*
X19985Y140759D01*
X20283Y141480D01*
X27078D01*
X38709Y129849D01*
X38624Y129738D01*
X38177Y128658D01*
X38025Y127500D01*
X38177Y126342D01*
X38624Y125262D01*
X39336Y124336D01*
X40262Y123624D01*
X41342Y123177D01*
X42500Y123025D01*
X43658Y123177D01*
X44738Y123624D01*
X45415Y124144D01*
X48980Y120578D01*
Y105000D01*
X49058Y104610D01*
X49279Y104279D01*
X54279Y99279D01*
X54610Y99058D01*
X55000Y98980D01*
X56205D01*
Y96153D01*
X67047D01*
Y103847D01*
X56205D01*
Y101020D01*
X55422D01*
X51020Y105422D01*
Y121000D01*
X50942Y121390D01*
X50721Y121721D01*
X46611Y125831D01*
X46823Y126342D01*
X46975Y127500D01*
X46823Y128658D01*
X46376Y129738D01*
X45665Y130665D01*
X44738Y131376D01*
X43658Y131823D01*
X42500Y131975D01*
X41342Y131823D01*
X40262Y131376D01*
X40151Y131291D01*
X28221Y143221D01*
X27890Y143442D01*
X27500Y143520D01*
X20283D01*
X19985Y144241D01*
X19431Y144963D01*
X18710Y145516D01*
X17870Y145864D01*
X16969Y145983D01*
D02*
G37*
G36*
X209567Y98486D02*
X208099D01*
Y95992D01*
X212495D01*
X212459Y96267D01*
X212160Y96989D01*
X211684Y97609D01*
X211064Y98085D01*
X210342Y98384D01*
X209567Y98486D01*
D02*
G37*
G36*
X207099D02*
X205630D01*
X204855Y98384D01*
X204133Y98085D01*
X203513Y97609D01*
X203037Y96989D01*
X202738Y96267D01*
X202702Y95992D01*
X207099D01*
Y98486D01*
D02*
G37*
G36*
X83295Y99500D02*
X77874D01*
Y95653D01*
X83295D01*
Y99500D01*
D02*
G37*
G36*
X76874D02*
X71453D01*
Y95653D01*
X76874D01*
Y99500D01*
D02*
G37*
G36*
X168890Y103240D02*
X154110D01*
Y100549D01*
X152172D01*
X151196Y100355D01*
X150369Y99802D01*
X149198Y98631D01*
X148645Y97804D01*
X148451Y96828D01*
Y84549D01*
X111000D01*
X110024Y84355D01*
X109198Y83802D01*
X105698Y80302D01*
X105145Y79475D01*
X104951Y78500D01*
Y71543D01*
X98536D01*
Y70049D01*
X79556D01*
X77549Y72056D01*
Y75465D01*
X82980D01*
Y84339D01*
X67020D01*
Y75465D01*
X72451D01*
Y71000D01*
Y59535D01*
X71547D01*
Y50661D01*
X78453D01*
Y59535D01*
X77549D01*
Y64746D01*
X77935Y65063D01*
X78500Y64951D01*
X98536D01*
Y63457D01*
X116465D01*
Y71543D01*
X110049D01*
Y77444D01*
X112056Y79451D01*
X149394D01*
X149487Y79379D01*
X150217Y79077D01*
X151000Y78974D01*
X151783Y79077D01*
X152513Y79379D01*
X153140Y79860D01*
X153621Y80487D01*
X153923Y81217D01*
X154026Y82000D01*
X153923Y82783D01*
X153621Y83513D01*
X153549Y83606D01*
Y95451D01*
X154110D01*
Y94760D01*
X168890D01*
Y103240D01*
D02*
G37*
G36*
X126772Y96039D02*
X124500D01*
Y93965D01*
X126772D01*
Y96039D01*
D02*
G37*
G36*
X123500D02*
X121228D01*
Y93965D01*
X123500D01*
Y96039D01*
D02*
G37*
G36*
X196236Y94992D02*
X191642D01*
Y92399D01*
X193209D01*
X194009Y92504D01*
X194755Y92813D01*
X195396Y93305D01*
X195888Y93945D01*
X196197Y94691D01*
X196236Y94992D01*
D02*
G37*
G36*
X190642D02*
X186047D01*
X186087Y94691D01*
X186396Y93945D01*
X186887Y93305D01*
X187528Y92813D01*
X188274Y92504D01*
X189075Y92399D01*
X190642D01*
Y94992D01*
D02*
G37*
G36*
X190503Y88139D02*
X183303D01*
Y84689D01*
X190503D01*
Y88139D01*
D02*
G37*
G36*
Y83689D02*
X183303D01*
Y80239D01*
X190503D01*
Y83689D01*
D02*
G37*
G36*
X176265Y77887D02*
X168865D01*
Y75437D01*
X176265D01*
Y77887D01*
D02*
G37*
G36*
X167865D02*
X160465D01*
Y75437D01*
X167865D01*
Y77887D01*
D02*
G37*
G36*
X176265Y74437D02*
X168865D01*
Y71987D01*
X176265D01*
Y74437D01*
D02*
G37*
G36*
X167865D02*
X160465D01*
Y71987D01*
X167865D01*
Y74437D01*
D02*
G37*
G36*
X24110Y72043D02*
X15146D01*
Y68000D01*
X24110D01*
Y72043D01*
D02*
G37*
G36*
X147673D02*
X138709D01*
Y68000D01*
X147673D01*
Y72043D01*
D02*
G37*
G36*
X137709D02*
X128744D01*
Y68000D01*
X137709D01*
Y72043D01*
D02*
G37*
G36*
X14146D02*
X5181D01*
Y68000D01*
X14146D01*
Y72043D01*
D02*
G37*
G36*
X147673Y67000D02*
X138709D01*
Y62957D01*
X147673D01*
Y67000D01*
D02*
G37*
G36*
X137709D02*
X128744D01*
Y62957D01*
X137709D01*
Y67000D01*
D02*
G37*
G36*
X24110D02*
X15146D01*
Y62957D01*
X24110D01*
Y67000D01*
D02*
G37*
G36*
X14146D02*
X5181D01*
Y62957D01*
X14146D01*
Y67000D01*
D02*
G37*
G36*
X190503Y61761D02*
X183303D01*
Y58311D01*
X190503D01*
Y61761D01*
D02*
G37*
G36*
X69898Y60035D02*
X66445D01*
Y55598D01*
X69898D01*
Y60035D01*
D02*
G37*
G36*
X65445D02*
X61992D01*
Y55598D01*
X65445D01*
Y60035D01*
D02*
G37*
G36*
X190503Y57311D02*
X183303D01*
Y53861D01*
X190503D01*
Y57311D01*
D02*
G37*
G36*
X69898Y54598D02*
X66445D01*
Y50161D01*
X69898D01*
Y54598D01*
D02*
G37*
G36*
X65445D02*
X61992D01*
Y50161D01*
X65445D01*
Y54598D01*
D02*
G37*
G36*
X82980Y39339D02*
X67020D01*
Y36529D01*
X61608D01*
X61140Y37140D01*
X60513Y37620D01*
X59783Y37923D01*
X59000Y38026D01*
X58217Y37923D01*
X57487Y37620D01*
X56860Y37140D01*
X56379Y36513D01*
X56077Y35783D01*
X55974Y35000D01*
X56077Y34217D01*
X56379Y33487D01*
X56860Y32860D01*
X57487Y32379D01*
X58217Y32077D01*
X59000Y31974D01*
X59783Y32077D01*
X60513Y32379D01*
X61140Y32860D01*
X61608Y33471D01*
X67020D01*
Y30465D01*
X82980D01*
Y39339D01*
D02*
G37*
G36*
X24110Y27043D02*
X15146D01*
Y23000D01*
X24110D01*
Y27043D01*
D02*
G37*
G36*
X142319D02*
X133354D01*
Y23000D01*
X142319D01*
Y27043D01*
D02*
G37*
G36*
X132354D02*
X123390D01*
Y23000D01*
X132354D01*
Y27043D01*
D02*
G37*
G36*
X14146D02*
X5181D01*
Y23000D01*
X14146D01*
Y27043D01*
D02*
G37*
G36*
X164000Y48324D02*
X161759Y48147D01*
X159574Y47623D01*
X157497Y46762D01*
X155581Y45588D01*
X153872Y44128D01*
X152412Y42419D01*
X151237Y40503D01*
X150377Y38426D01*
X149853Y36241D01*
X149676Y34000D01*
X149853Y31759D01*
X150377Y29574D01*
X151237Y27497D01*
X152412Y25581D01*
X153872Y23872D01*
X155581Y22412D01*
X157497Y21238D01*
X159574Y20377D01*
X161759Y19853D01*
X164000Y19676D01*
X166241Y19853D01*
X168426Y20377D01*
X170503Y21238D01*
X172419Y22412D01*
X174128Y23872D01*
X175588Y25581D01*
X176762Y27497D01*
X177623Y29574D01*
X178147Y31759D01*
X178324Y34000D01*
X178147Y36241D01*
X177623Y38426D01*
X176762Y40503D01*
X175588Y42419D01*
X174128Y44128D01*
X172419Y45588D01*
X170503Y46762D01*
X168426Y47623D01*
X166241Y48147D01*
X164000Y48324D01*
D02*
G37*
G36*
X111110Y26543D02*
X93181D01*
Y18457D01*
X111110D01*
Y20471D01*
X114392D01*
X114860Y19860D01*
X115487Y19379D01*
X116217Y19077D01*
X117000Y18974D01*
X117783Y19077D01*
X118513Y19379D01*
X119140Y19860D01*
X119621Y20487D01*
X119923Y21217D01*
X120026Y22000D01*
X119923Y22783D01*
X119621Y23513D01*
X119140Y24140D01*
X118513Y24621D01*
X117783Y24923D01*
X117000Y25026D01*
X116217Y24923D01*
X115487Y24621D01*
X114860Y24140D01*
X114392Y23529D01*
X111110D01*
Y26543D01*
D02*
G37*
G36*
X168365Y69549D02*
X168184Y69513D01*
X160965D01*
Y64613D01*
X165816D01*
Y59635D01*
X166010Y58660D01*
X166563Y57833D01*
X184451Y39944D01*
Y27761D01*
X180676Y23986D01*
X179961D01*
X179556Y23905D01*
X175721D01*
Y18969D01*
X179556D01*
X179961Y18888D01*
X181732D01*
X182137Y18969D01*
X184201D01*
Y20301D01*
X188802Y24902D01*
X189355Y25729D01*
X189549Y26705D01*
Y41000D01*
X189355Y41976D01*
X188802Y42802D01*
X170914Y60691D01*
Y64613D01*
X175765D01*
Y69513D01*
X168546D01*
X168365Y69549D01*
D02*
G37*
G36*
X142319Y22000D02*
X133354D01*
Y17957D01*
X142319D01*
Y22000D01*
D02*
G37*
G36*
X132354D02*
X123390D01*
Y17957D01*
X132354D01*
Y22000D01*
D02*
G37*
G36*
X24110D02*
X15146D01*
Y17957D01*
X24110D01*
Y22000D01*
D02*
G37*
G36*
X14146D02*
X5181D01*
Y17957D01*
X14146D01*
Y22000D01*
D02*
G37*
G36*
X184201Y16032D02*
X175721D01*
Y11095D01*
X184201D01*
Y16032D01*
D02*
G37*
G36*
X69898Y15035D02*
X66445D01*
Y10598D01*
X69898D01*
Y15035D01*
D02*
G37*
G36*
X65445D02*
X61992D01*
Y10598D01*
X65445D01*
Y15035D01*
D02*
G37*
G36*
X69898Y9598D02*
X66445D01*
Y5161D01*
X69898D01*
Y9598D01*
D02*
G37*
G36*
X65445D02*
X61992D01*
Y5161D01*
X65445D01*
Y9598D01*
D02*
G37*
%LPD*%
G36*
X266246Y298326D02*
X266363Y297971D01*
X266102Y297579D01*
X265987Y297000D01*
X266102Y296421D01*
X266430Y295930D01*
X266921Y295602D01*
X267500Y295487D01*
X268079Y295602D01*
X268570Y295930D01*
X268604Y295980D01*
X269728D01*
Y292386D01*
X269341Y292114D01*
X269228D01*
Y290039D01*
X272000D01*
X274772D01*
Y291138D01*
X275272Y291290D01*
X275279Y291279D01*
X277279Y289279D01*
X277610Y289058D01*
X278000Y288980D01*
X279480D01*
Y282949D01*
X274992Y278461D01*
X274370D01*
Y279614D01*
X269835D01*
X269697Y279817D01*
X269657Y280010D01*
X270010Y280386D01*
X274370D01*
Y284732D01*
X271793D01*
X270022Y286503D01*
X270214Y286965D01*
X271500D01*
Y289039D01*
X269228D01*
Y287950D01*
X268766Y287759D01*
X266444Y290081D01*
X265948Y290413D01*
X265362Y290529D01*
X248529D01*
Y294866D01*
X252133Y298471D01*
X266142D01*
X266246Y298326D01*
D02*
G37*
%LPC*%
G36*
X274772Y289039D02*
X272500D01*
Y286965D01*
X274772D01*
Y289039D01*
D02*
G37*
%LPD*%
G36*
X333971Y142236D02*
Y138997D01*
X323943Y128970D01*
X312271D01*
X312131Y129470D01*
X312640Y129860D01*
X313121Y130487D01*
X313423Y131217D01*
X313526Y132000D01*
X313423Y132783D01*
X313121Y133513D01*
X312640Y134140D01*
X312013Y134620D01*
X311283Y134923D01*
X311275Y134924D01*
Y137238D01*
X311368Y137311D01*
X312014Y137244D01*
X312426Y136969D01*
X312913Y136872D01*
X313622D01*
Y138447D01*
X314622D01*
Y136872D01*
X315331D01*
X315818Y136969D01*
X316231Y137244D01*
X316235Y137250D01*
X317500D01*
Y139235D01*
X318500D01*
Y137250D01*
X320772D01*
Y137381D01*
X323087D01*
X323319Y137428D01*
X324025D01*
X324480Y136972D01*
Y135104D01*
X324430Y135070D01*
X324102Y134579D01*
X323987Y134000D01*
X324102Y133421D01*
X324430Y132930D01*
X324921Y132602D01*
X325500Y132487D01*
X326079Y132602D01*
X326570Y132930D01*
X326898Y133421D01*
X327013Y134000D01*
X326898Y134579D01*
X326570Y135070D01*
X326520Y135104D01*
Y137395D01*
X326442Y137785D01*
X326221Y138116D01*
X325441Y138896D01*
X325648Y139396D01*
X327445D01*
X327523Y139319D01*
X327602Y138921D01*
X327930Y138430D01*
X328421Y138102D01*
X329000Y137987D01*
X329579Y138102D01*
X330070Y138430D01*
X330398Y138921D01*
X330513Y139500D01*
X330398Y140079D01*
X330070Y140570D01*
X330026Y140599D01*
X329911Y141278D01*
X329976Y141365D01*
X331028D01*
X331421Y141102D01*
X332000Y140987D01*
X332579Y141102D01*
X333070Y141430D01*
X333398Y141921D01*
X333471Y142285D01*
X333971Y142236D01*
D02*
G37*
G36*
X305579Y136937D02*
X305562Y136890D01*
X305548Y136828D01*
X305535Y136753D01*
X305516Y136559D01*
X305504Y136308D01*
X305500Y136000D01*
X304500D01*
X304499Y136161D01*
X304452Y136828D01*
X304438Y136890D01*
X304421Y136937D01*
X304403Y136969D01*
X305597D01*
X305579Y136937D01*
D02*
G37*
%LPC*%
G36*
X167928Y342100D02*
X163490D01*
Y338057D01*
X167928D01*
Y342100D01*
D02*
G37*
G36*
X162490D02*
X158054D01*
Y338057D01*
X162490D01*
Y342100D01*
D02*
G37*
G36*
X167928Y337057D02*
X163490D01*
Y333013D01*
X167928D01*
Y337057D01*
D02*
G37*
G36*
X162490D02*
X158054D01*
Y333013D01*
X162490D01*
Y337057D01*
D02*
G37*
G36*
X159620Y320135D02*
X157349D01*
Y318061D01*
X159620D01*
Y320135D01*
D02*
G37*
G36*
X156349D02*
X154077D01*
Y318061D01*
X156349D01*
Y320135D01*
D02*
G37*
G36*
X185644Y342100D02*
X181207D01*
Y338057D01*
X185644D01*
Y342100D01*
D02*
G37*
G36*
X180207D02*
X175770D01*
Y338057D01*
X180207D01*
Y342100D01*
D02*
G37*
G36*
X185644Y337057D02*
X181207D01*
Y333013D01*
X185644D01*
Y337057D01*
D02*
G37*
G36*
X180207D02*
X175770D01*
Y333013D01*
X180207D01*
Y337057D01*
D02*
G37*
G36*
X191772Y320035D02*
X189500D01*
Y317961D01*
X191772D01*
Y320035D01*
D02*
G37*
G36*
X188500D02*
X186228D01*
Y317961D01*
X188500D01*
Y320035D01*
D02*
G37*
%LPD*%
D10*
X215057Y135000D02*
X222500D01*
X195933Y274500D02*
X195966Y274534D01*
Y293967D02*
X196000Y294000D01*
X195966Y274534D02*
Y293967D01*
X200000Y271500D02*
X208500D01*
X200000D02*
X201951Y273451D01*
Y276539D01*
X198933Y271500D02*
X200000D01*
X195933Y274500D02*
X198933Y271500D01*
X196000Y294000D02*
Y304500D01*
X194000Y236500D02*
X235798D01*
X225976Y271524D02*
Y276515D01*
X238797Y233500D02*
X239000D01*
X225976Y271524D02*
X226000Y271500D01*
X235798Y236500D02*
X238797Y233500D01*
X188500Y236500D02*
X194000D01*
X225951Y276539D02*
X225976Y276515D01*
X226000Y271500D02*
X233000D01*
X216500D02*
X226000D01*
X209951Y272951D02*
Y276539D01*
X208500Y271500D02*
X216500D01*
X217951Y272951D02*
Y276539D01*
X208500Y271500D02*
X209951Y272951D01*
X216500Y271500D02*
X217951Y272951D01*
X233000Y271500D02*
X239500D01*
X120312Y182000D02*
X121828D01*
X117500Y180000D02*
X118312D01*
X117500Y190500D02*
X120000Y193000D01*
X117500Y180000D02*
Y190500D01*
X118312Y180000D02*
X120312Y182000D01*
X186250Y236500D02*
X188500D01*
X184000D02*
X186250D01*
X168709Y142104D02*
Y164000D01*
X165500Y138896D02*
X168709Y142104D01*
Y168420D02*
X170461Y170172D01*
X168709Y164000D02*
Y168420D01*
X182039Y163748D02*
X182291Y164000D01*
X182039Y159752D02*
Y163748D01*
X180000Y157713D02*
X182039Y159752D01*
X180000Y128000D02*
Y157713D01*
X123000Y314559D02*
X123879D01*
X136000Y101000D02*
Y112047D01*
X137000Y113047D02*
X139992D01*
X136000Y112047D02*
X137000Y113047D01*
X324577Y127441D02*
X335500Y138364D01*
X299941Y127441D02*
X324577D01*
X335500Y138364D02*
Y150000D01*
X300500Y138297D02*
X303000Y140797D01*
X300500Y128000D02*
Y138297D01*
X299941Y127441D02*
X300500Y128000D01*
X303000Y140797D02*
Y144235D01*
X229500Y289000D02*
X247000D01*
X266961Y299961D02*
X280000D01*
X360000Y184259D02*
X360433D01*
X362251Y182441D01*
X302961Y144500D02*
X303000Y144461D01*
X302774Y144235D02*
X303000Y144461D01*
X335500Y149023D02*
Y150000D01*
X360059Y209000D02*
Y215000D01*
X240500Y226500D02*
X298500D01*
X239000Y228000D02*
X240500Y226500D01*
X239000Y228000D02*
Y233500D01*
X298500Y226500D02*
X304500Y220500D01*
X265362Y289000D02*
X271803Y282559D01*
X247000Y289000D02*
X265362D01*
X266921Y300000D02*
X266961Y299961D01*
X251500Y300000D02*
X266921D01*
X247000Y289000D02*
Y295500D01*
X251500Y300000D01*
X248928Y277343D02*
X249000Y277272D01*
Y274500D02*
Y277272D01*
X245157Y277343D02*
X248928D01*
X245000Y277500D02*
X245157Y277343D01*
X248928D02*
X253500D01*
X243799Y280600D02*
X244500D01*
X241550Y280886D02*
X243513D01*
X240976Y281461D02*
X241550Y280886D01*
X243513D02*
X243799Y280600D01*
X233951Y281461D02*
X240976D01*
X225951D02*
X233951D01*
X326776Y287176D02*
Y294400D01*
Y279951D02*
Y287176D01*
X319551D02*
Y294400D01*
Y279951D02*
Y287176D01*
X326776D02*
X334000D01*
X319551D02*
X326776D01*
X319551Y294400D02*
X326776D01*
X334000Y287176D02*
Y294400D01*
Y279951D02*
Y287176D01*
X326776Y294400D02*
X334000D01*
X326776Y279951D02*
X334000D01*
X319551D02*
X326776D01*
X212000Y183000D02*
X217539D01*
X207461Y173500D02*
X214500D01*
X235500D01*
X207461D02*
Y177461D01*
Y170000D02*
Y173500D01*
X222500Y133700D02*
Y135000D01*
X165500Y133700D02*
Y138896D01*
X212886Y137172D02*
X215057Y135000D01*
X222500D02*
Y149000D01*
X182500Y122130D02*
X188697D01*
X180000Y124630D02*
Y128000D01*
X174500Y122500D02*
X180000Y128000D01*
Y124630D02*
X182500Y122130D01*
X175672Y102870D02*
X188697D01*
X174500Y104042D02*
Y122500D01*
Y104042D02*
X175672Y102870D01*
X335000Y182000D02*
X335461Y181539D01*
X334854Y173000D02*
X335000Y173146D01*
Y182000D01*
X278000Y234000D02*
X329500D01*
X277539Y244000D02*
X277770Y243770D01*
X206000Y315500D02*
Y326828D01*
X196000Y304500D02*
Y305500D01*
X206000Y315500D01*
X207172Y328000D02*
X213170D01*
X206000Y326828D02*
X207172Y328000D01*
X187000Y235000D02*
X188500Y236500D01*
X181500D02*
X184000D01*
X180798Y235798D02*
X181500Y236500D01*
X193000Y235500D02*
X194000Y236500D01*
X271803Y282559D02*
X272000D01*
X125000Y294000D02*
X130500D01*
X122500Y291500D02*
X125000Y294000D01*
X71475Y217697D02*
X74941D01*
X56000Y291500D02*
X122500D01*
X304500Y220500D02*
X358559D01*
X121828Y182000D02*
X168500D01*
X239500Y271500D02*
X277000D01*
X117000Y147000D02*
X117250Y147250D01*
X123191D02*
X123441Y147500D01*
X117250Y147250D02*
X123191D01*
X212886Y137172D02*
Y144886D01*
X212772Y145000D02*
X212886Y144886D01*
X187000Y232662D02*
Y235000D01*
X367500Y182441D02*
X375000D01*
X362251D02*
X367500D01*
X180798Y232461D02*
Y235798D01*
X193000Y232662D02*
Y235500D01*
X192798Y232461D02*
X193000Y232662D01*
X186798Y232461D02*
X187000Y232662D01*
X69500Y238500D02*
X70500Y237500D01*
X68172Y239828D02*
X69500Y238500D01*
X70500Y237500D02*
X74941D01*
X71086Y227500D02*
X74941D01*
X69500Y229086D02*
Y238500D01*
Y219672D02*
Y229086D01*
X71086Y227500D01*
X69500Y219672D02*
X71475Y217697D01*
X74941Y217500D02*
Y217697D01*
X56000Y239828D02*
X68172D01*
X358559Y220500D02*
X360059Y219000D01*
X354500Y268500D02*
X354549Y268451D01*
X349500Y278500D02*
X349549Y278451D01*
X348217Y215598D02*
X348516Y215299D01*
X354642D01*
X354941Y215000D01*
X348217Y225598D02*
X348516Y225299D01*
X354642D01*
X354941Y225000D01*
X360059Y215000D02*
Y219000D01*
X267500Y127441D02*
X299941D01*
X360059Y219000D02*
Y225000D01*
X277770Y234230D02*
X278000Y234000D01*
X277770Y234230D02*
Y243770D01*
X228530Y220029D02*
Y224971D01*
X228500Y225000D02*
X228530Y224971D01*
Y220029D02*
X228559Y220000D01*
X233951Y272451D02*
Y276539D01*
X233000Y271500D02*
X233951Y272451D01*
X239500Y271500D02*
X240976Y272976D01*
Y276539D01*
X228559Y212000D02*
X239000D01*
X228500Y211941D02*
X228559Y212000D01*
X228500Y207000D02*
Y211941D01*
X222559Y204000D02*
Y204197D01*
X223232Y204870D01*
X226370D01*
X228500Y207000D01*
X105354Y302000D02*
X114000D01*
X116000Y304000D02*
Y313000D01*
X114000Y302000D02*
X116000Y304000D01*
X105354Y299000D02*
X106000Y299646D01*
Y318828D01*
X95000Y320000D02*
X104828D01*
X106000Y318828D01*
X188697Y102870D02*
X188878Y103051D01*
X188697Y122130D02*
X188878Y121949D01*
X272000Y143000D02*
Y149400D01*
X267500Y132559D02*
Y138500D01*
X272000Y143000D01*
X251334Y138500D02*
X254500D01*
X251274Y138560D02*
X251334Y138500D01*
X254500D02*
X256000Y140000D01*
X257172Y149400D02*
X262000D01*
X256000Y148228D02*
X257172Y149400D01*
X256000Y140000D02*
Y148228D01*
X170461Y170172D02*
Y174000D01*
X117230Y101230D02*
X123770D01*
X117000Y101000D02*
X117230Y101230D01*
X123441Y163500D02*
Y174500D01*
Y180387D01*
X121828Y182000D02*
X123441Y180387D01*
X102146Y22500D02*
X102646Y22000D01*
X117000D01*
X74902Y35000D02*
X75000Y34902D01*
X59000Y35000D02*
X74902D01*
X59000Y18000D02*
X73828D01*
X75000Y16828D01*
Y10098D02*
Y16828D01*
X116000Y313000D02*
X117559Y314559D01*
X123000D01*
Y315438D02*
X123879Y314559D01*
X140000D01*
X123000Y315438D02*
Y323110D01*
X175323Y306285D02*
X187828D01*
X159353Y306596D02*
X168786D01*
X187828Y306285D02*
X189000Y307457D01*
Y312539D01*
X156849Y309100D02*
Y312639D01*
Y309100D02*
X159353Y306596D01*
D12*
X369500Y273000D02*
Y286115D01*
Y273000D02*
X377000Y265500D01*
X368414Y287201D02*
X369500Y286115D01*
X221653Y186583D02*
X222656Y187586D01*
X218583Y186583D02*
X221653D01*
X217500Y185500D02*
X218583Y186583D01*
X222656Y187586D02*
Y189903D01*
X222559Y190000D02*
X222656Y189903D01*
X217500Y183039D02*
X217539Y183000D01*
X217500Y183039D02*
Y185500D01*
X62500Y197000D02*
X100000D01*
X98500Y119000D02*
X98524Y118976D01*
X103500Y116500D02*
X103717D01*
X104217Y117000D01*
X98524Y118976D02*
X121713D01*
X254427Y283643D02*
X265070D01*
Y283446D02*
Y283643D01*
X270774Y277500D02*
X271416Y276857D01*
X273893Y297000D02*
X276000Y294893D01*
X267500Y297000D02*
X273893D01*
X276000Y292000D02*
Y294893D01*
X248713Y283573D02*
X248786Y283500D01*
X254500D01*
X140500Y262500D02*
Y267500D01*
X141200Y268200D02*
X274300D01*
X140500Y267500D02*
X141200Y268200D01*
X274300D02*
X275500Y267000D01*
X199500Y228000D02*
X205000Y233500D01*
X230000D01*
X214000Y240400D02*
X227600D01*
X218500Y253000D02*
X286500D01*
X186250Y236500D02*
X187783Y238033D01*
X184000Y236500D02*
X185814Y238314D01*
Y241398D01*
X185575Y207031D02*
Y207071D01*
Y207031D02*
X185606Y207000D01*
X189500D01*
X43500Y127500D02*
X50000Y121000D01*
Y105000D02*
Y121000D01*
Y105000D02*
X55000Y100000D01*
X54500Y116500D02*
Y122500D01*
X49500Y127500D02*
X54500Y122500D01*
X49500Y127500D02*
Y131500D01*
X44523Y136477D02*
X49500Y131500D01*
X54500Y116500D02*
X56000Y115000D01*
X42500Y127500D02*
X43500D01*
X42000Y157000D02*
X53999Y145000D01*
X32877Y166122D02*
X42000Y157000D01*
X36000Y168000D02*
X46000D01*
X54000Y160000D01*
X15004Y174000D02*
X30000D01*
X36000Y168000D01*
X31500Y181500D02*
X35500Y177500D01*
X15370Y181500D02*
X31500D01*
X35500Y177500D02*
X42500D01*
X65500Y182500D02*
X91000D01*
X40256Y189744D02*
X42500Y187500D01*
X15000Y189744D02*
X40256D01*
X250000Y258414D02*
X250586Y259000D01*
X27500Y142500D02*
X42500Y127500D01*
X15000Y142500D02*
X27500D01*
X39977Y148437D02*
X41563D01*
X52000Y133163D02*
Y139000D01*
X43500Y147500D02*
X52000Y139000D01*
X42500Y147500D02*
X43500D01*
X18000Y261400D02*
Y268500D01*
X19500Y270000D01*
X61500D01*
X55000Y100000D02*
X61626D01*
X43523Y136477D02*
X44523D01*
X56000Y115000D02*
X61626D01*
X55163Y130000D02*
X61626D01*
X52000Y133163D02*
X55163Y130000D01*
X15000Y150374D02*
X15126Y150500D01*
X28500D01*
X41500Y137500D01*
X42500D01*
X43523Y136477D01*
X15000Y158248D02*
X30166D01*
X39977Y148437D01*
X41563D02*
X42500Y147500D01*
X53999Y145000D02*
X61626D01*
X15000Y166122D02*
X32877D01*
X15000Y173996D02*
X15004Y174000D01*
X54000Y160000D02*
X61626D01*
X15000Y181870D02*
X15370Y181500D01*
X42500Y177500D02*
X49000D01*
X51500Y175000D02*
X61626D01*
X49000Y177500D02*
X51500Y175000D01*
X54000Y190000D02*
X61626D01*
X51086Y187414D02*
X51414D01*
X54000Y190000D01*
X51000Y187500D02*
X51086Y187414D01*
X42500Y187500D02*
X51000D01*
X15059Y197559D02*
X42441D01*
X15000Y197618D02*
X15059Y197559D01*
X42441D02*
X42500Y197500D01*
X46672D01*
X33750Y209250D02*
Y248500D01*
Y209250D02*
X35500Y207500D01*
X42500D01*
X166086Y243889D02*
X185213D01*
X169000Y290000D02*
Y296994D01*
X154506D02*
X169000D01*
X175002Y300000D02*
Y301000D01*
Y299000D02*
Y300000D01*
X171065Y299000D02*
X175002D01*
X165921Y301000D02*
X168651D01*
X168895Y300756D01*
Y299000D02*
Y300756D01*
Y299000D02*
X171065D01*
Y294868D02*
Y299000D01*
X175002Y293887D02*
Y299000D01*
X169000Y296994D02*
Y298895D01*
X168895Y299000D02*
X169000Y298895D01*
X165853Y301068D02*
X165921Y301000D01*
X173034Y288034D02*
Y294868D01*
X30850Y251400D02*
X60526D01*
X30850D02*
X33750Y248500D01*
X18000Y251400D02*
X30850D01*
X60526D02*
X61626Y252500D01*
X165011Y205000D02*
X170000D01*
X164457Y205554D02*
X165011Y205000D01*
X170000D02*
X171000Y204000D01*
X113000Y167672D02*
Y178500D01*
X107500Y184000D02*
X113000Y178500D01*
X107500Y184000D02*
Y203000D01*
X108500Y204000D02*
X134000D01*
X107500Y203000D02*
X108500Y204000D01*
X91000Y183000D02*
X101500D01*
X105000Y186500D01*
Y204500D01*
X111000Y210500D01*
X137000Y152500D02*
X165000D01*
X136500Y153000D02*
X137000Y152500D01*
X347500Y160000D02*
X350000Y162500D01*
X368000Y206000D02*
Y213414D01*
X368586Y214000D01*
X376600D01*
X377000Y214400D01*
X325500Y134000D02*
Y137395D01*
X324448Y138447D02*
X325500Y137395D01*
X321878Y138447D02*
X324448D01*
X362500Y200500D02*
X368000Y206000D01*
X342000Y201500D02*
X343000Y200500D01*
X362500D01*
X353815Y240000D02*
X366100D01*
X366000Y225000D02*
X366550Y224450D01*
X376900Y204400D02*
X377000D01*
X369000Y196500D02*
X376900Y204400D01*
X336000Y196500D02*
X369000D01*
X306500Y192000D02*
X348000D01*
X304902Y193598D02*
X306500Y192000D01*
X332000Y200500D02*
X336000Y196500D01*
X338229Y231229D02*
Y247777D01*
X332000Y225000D02*
X338229Y231229D01*
X342000Y201500D02*
Y215500D01*
Y224500D02*
Y232500D01*
X343230Y233730D02*
Y247777D01*
X342000Y232500D02*
X343230Y233730D01*
X376950Y224450D02*
X377000Y224400D01*
X366550Y224450D02*
X376950D01*
X368005Y234400D02*
X377000D01*
X365905Y236500D02*
X368005Y234400D01*
X358500Y236500D02*
X365905D01*
X353229Y240586D02*
X353815Y240000D01*
X353229Y240586D02*
Y247777D01*
X364194Y253451D02*
X365143Y254400D01*
X377000D01*
X364243Y258500D02*
X370500D01*
X364194Y258451D02*
X364243Y258500D01*
X311951Y273451D02*
X364194D01*
X345000Y230000D02*
X347153D01*
X348217Y225598D02*
Y228783D01*
X347153Y229847D02*
X348217Y228783D01*
X311715Y140416D02*
X314122D01*
X309961Y142384D02*
X314122D01*
X305000Y136000D02*
Y137423D01*
X327868Y140416D02*
X328783Y139500D01*
X275414Y277441D02*
X280500Y282527D01*
X278000Y290000D02*
X279914D01*
X280500Y282527D02*
Y289414D01*
X279914Y290000D02*
X280500Y289414D01*
X297265Y283451D02*
X297314Y283500D01*
X302500D02*
X303500Y284500D01*
X297314Y283500D02*
X302500D01*
X303500Y284500D02*
Y290500D01*
X306500Y283000D02*
Y292865D01*
X305914Y293451D02*
X306500Y292865D01*
X297265Y293451D02*
X305914D01*
X243500Y292000D02*
Y299424D01*
X288000Y288500D02*
X288049Y288451D01*
X297265D01*
X165338Y241000D02*
X165500Y241162D01*
Y243303D01*
X166086Y243889D01*
X185213D02*
X185798Y244475D01*
Y246086D01*
X174000Y246217D02*
Y246400D01*
X173284Y245500D02*
X174000Y246217D01*
X126500Y104500D02*
Y112221D01*
Y104500D02*
X128000Y103000D01*
X126500Y112221D02*
X128469D01*
X109000Y142500D02*
X111153Y140347D01*
X119715D02*
X119868Y140500D01*
X111153Y140347D02*
X119715D01*
X105500Y142500D02*
X109000D01*
X100000Y148000D02*
X105500Y142500D01*
X100000Y148000D02*
Y173500D01*
X106622Y175000D02*
X107000Y174622D01*
X101500Y175000D02*
X106622D01*
X100000Y173500D02*
X101500Y175000D01*
X112414Y167086D02*
X113000Y167672D01*
X107338Y167086D02*
X112414D01*
X107000Y166748D02*
X107338Y167086D01*
X304902Y215598D02*
X313177D01*
X304902Y193598D02*
Y215598D01*
X340549Y293451D02*
X364194D01*
X364243Y293500D01*
X369500Y290000D02*
Y292914D01*
X364243Y293500D02*
X368914D01*
X369500Y292914D01*
Y290000D02*
X371000Y288500D01*
X355500Y187500D02*
X355559Y187559D01*
X367500D01*
X229000Y160000D02*
X347500D01*
X348000Y192000D02*
X374000D01*
X333126Y147000D02*
X335149Y149023D01*
X335500D01*
X334500Y156000D02*
X339000Y151500D01*
X305500Y156000D02*
X334500D01*
X344500Y257500D02*
X358000D01*
X340549Y253451D02*
X364194D01*
X338000Y256000D02*
X340549Y253451D01*
X364194Y288451D02*
X365444Y287201D01*
X368414D01*
X371000Y280400D02*
Y288500D01*
X355549Y298451D02*
X364194D01*
X377000Y284400D02*
Y285050D01*
X371000Y291050D02*
Y297865D01*
Y291050D02*
X377000Y285050D01*
X364194Y298451D02*
X370414D01*
X371000Y297865D01*
X377000Y264400D02*
Y265500D01*
X371000Y280400D02*
X377000Y274400D01*
X364145Y303500D02*
X364203Y303442D01*
X377000Y294400D02*
Y295500D01*
X364203Y303442D02*
X369058D01*
X377000Y295500D01*
X364194Y308451D02*
X372949D01*
X377000Y304400D01*
X142000Y222000D02*
X192500D01*
X140500Y220500D02*
X142000Y222000D01*
X183498Y245700D02*
X183687Y245889D01*
X185798Y246086D02*
Y248000D01*
X183687Y245889D02*
X185602D01*
X185798Y246086D01*
X257000Y244000D02*
X261894D01*
X266894Y249000D01*
X205500Y248000D02*
X262500D01*
X203500Y246000D02*
X205500Y248000D01*
X194600Y250600D02*
X287600D01*
X290500Y253500D01*
X193500Y249500D02*
X194600Y250600D01*
X252500Y239500D02*
X257000Y244000D01*
X294500Y249000D02*
X297265Y251765D01*
X266894Y249000D02*
X294500D01*
X297265Y251765D02*
Y253451D01*
X290500Y253500D02*
Y257318D01*
X290544Y257362D01*
X88600Y130400D02*
X154378D01*
X82000Y137000D02*
X88600Y130400D01*
X103600Y134400D02*
X144378D01*
X91000Y147000D02*
X103600Y134400D01*
X128559Y142414D02*
Y147500D01*
X128559Y147500D01*
X128559Y139500D02*
Y142414D01*
X111500Y143000D02*
X127973D01*
X128559Y142414D01*
X107000Y147500D02*
X111500Y143000D01*
X107000Y147500D02*
Y151000D01*
X91000Y147000D02*
Y159500D01*
X296100Y224400D02*
X304902Y215598D01*
X260305Y224400D02*
X296100D01*
X295284Y221000D02*
X295500D01*
X294284Y222000D02*
X295284Y221000D01*
X259405Y223500D02*
X260305Y224400D01*
X245000Y223500D02*
X259405D01*
X273500Y222000D02*
X294284D01*
X283000Y278500D02*
X297216D01*
X269086Y277500D02*
X270774D01*
X268500Y278086D02*
X269086Y277500D01*
X268500Y278086D02*
Y280016D01*
X265070Y283446D02*
X268500Y280016D01*
X207461Y177461D02*
X207500Y177500D01*
Y183646D01*
X206823Y184323D02*
X207500Y183646D01*
X201421Y184323D02*
X206823D01*
X144000Y201500D02*
X160000D01*
X111000Y210500D02*
X157000D01*
X176000Y130800D02*
Y141500D01*
X331884Y142384D02*
X332000Y142500D01*
X321878Y142384D02*
X331884D01*
X328783Y139500D02*
X329000D01*
X321878Y140416D02*
X327868D01*
X323500Y147000D02*
X333126D01*
X61626Y190000D02*
Y196126D01*
X62500Y197000D01*
X188799Y107500D02*
X188878Y107579D01*
X184000Y107500D02*
X188799D01*
X182153Y107857D02*
X183643D01*
X184000Y107500D01*
X182000Y108010D02*
X182153Y107857D01*
X179500Y106196D02*
X180086Y105610D01*
X179500Y115000D02*
X182000Y117500D01*
X179500Y106196D02*
Y115000D01*
X180086Y105610D02*
X188878D01*
X182000Y117500D02*
X188799D01*
X179500Y119000D02*
X179890Y119390D01*
X188878D01*
X188799Y117500D02*
X188878Y117421D01*
X140764Y227500D02*
X144500D01*
X145000Y228000D01*
X147500D01*
X278000Y256500D02*
X279856Y258356D01*
X147500Y256500D02*
X278000Y256500D01*
X279856Y258356D02*
X288144D01*
X250586Y259000D02*
X275500D01*
X287394Y261000D02*
X289000Y262606D01*
X275500Y259000D02*
X277500Y261000D01*
X287394D01*
X290544Y257362D02*
Y271544D01*
X292451Y273451D01*
X289000Y262606D02*
Y273500D01*
X313000Y248007D02*
X313229Y247777D01*
X313000Y248007D02*
Y258000D01*
X199500Y221500D02*
Y228000D01*
X197500Y219500D02*
X199500Y221500D01*
X140500Y217547D02*
Y220500D01*
X140453Y217500D02*
X140500Y217547D01*
X179500Y185500D02*
X183500D01*
X176500Y191500D02*
X176630Y191630D01*
Y194268D01*
X177803Y195441D01*
X176716Y191500D02*
X177201Y191016D01*
X177803Y195441D02*
X178000D01*
X177201Y191016D02*
X188823D01*
X176500Y191500D02*
X176716D01*
X171500Y190000D02*
X172500Y189000D01*
X188776D01*
X188823Y189047D01*
X169504Y209000D02*
X174000D01*
X183500Y185500D02*
X189500Y179500D01*
Y168500D02*
Y179500D01*
X216000Y168500D02*
X221000Y163500D01*
X241000D01*
X282500Y152000D02*
X301500D01*
X305500Y156000D01*
X231400Y157500D02*
X340000D01*
X229500Y155600D02*
X231400Y157500D01*
X293000Y165500D02*
X315414D01*
X227000Y197000D02*
X231414D01*
X232000Y188000D02*
Y196414D01*
X231414Y197000D02*
X232000Y196414D01*
X229347Y191153D02*
X229500Y191000D01*
X227556Y191153D02*
X229347D01*
X225209Y193500D02*
X227556Y191153D01*
X232000Y154500D02*
X300000D01*
X230500Y153000D02*
X232000Y154500D01*
X227000Y158000D02*
X229000Y160000D01*
X315414Y165500D02*
X316000Y166086D01*
Y186414D01*
X316586Y187000D01*
X335000D01*
X219000Y153000D02*
X230500D01*
X296000Y162500D02*
X304456D01*
X182500Y197000D02*
X184547Y194953D01*
X188823D01*
X182717Y193500D02*
X183232Y192984D01*
X188823D01*
X182500Y193500D02*
X182717D01*
X111500Y207000D02*
X136500D01*
X126500Y126000D02*
X169500D01*
X172500Y129000D01*
X154000Y219500D02*
X197500D01*
X226000Y141500D02*
X226153Y141653D01*
X172500Y129000D02*
Y145000D01*
X228500Y239500D02*
X252500D01*
X227600Y240400D02*
X228500Y239500D01*
X230000Y242000D02*
X250000D01*
X214655Y243500D02*
X215755Y244600D01*
X245000D01*
X194000Y246000D02*
X203500D01*
X187783Y238033D02*
Y241398D01*
X139842Y233500D02*
X172500D01*
X98500Y245500D02*
X173284D01*
X89500Y223500D02*
X140000D01*
X61626Y160000D02*
Y164626D01*
X64500Y167500D01*
X82000D01*
X91000Y159500D02*
Y162650D01*
X87760Y165890D02*
X91000Y162650D01*
X83610Y165890D02*
X87760D01*
X82000Y167500D02*
X83610Y165890D01*
X61500Y175126D02*
Y178500D01*
Y175126D02*
X61626Y175000D01*
X61500Y178500D02*
X65500Y182500D01*
X276000Y292000D02*
X278000Y290000D01*
X272000Y277441D02*
X275414D01*
X297216Y278500D02*
X297265Y278451D01*
X221504Y286081D02*
X221657Y285928D01*
X223476D02*
X224404Y285000D01*
X236000D01*
X221657Y285928D02*
X223476D01*
X236000Y285000D02*
X237000Y286000D01*
X348000Y235500D02*
Y247548D01*
X192000Y248000D02*
X193500Y249500D01*
X190098Y248000D02*
X192000D01*
X292451Y273451D02*
X297265D01*
X275500Y267000D02*
X286500D01*
X277000Y263500D02*
X286500D01*
X170659Y241400D02*
X183498D01*
X170259Y241000D02*
X170659Y241400D01*
X169500Y259000D02*
X236500D01*
X171000Y212500D02*
X183205D01*
X168098Y207594D02*
X169504Y209000D01*
X167575Y207071D02*
Y207563D01*
X167606Y207594D01*
X168098D01*
X196500Y261500D02*
X275000Y261500D01*
X270284Y264500D02*
X270783Y265000D01*
X199000Y264500D02*
X270284D01*
X270783Y265000D02*
X271000D01*
X183499Y248001D02*
Y250499D01*
X183498Y248000D02*
X183499Y248001D01*
Y250499D02*
X183500Y250500D01*
X122500Y253500D02*
X185000D01*
X100586D02*
X122500D01*
X115500Y275000D02*
X157500D01*
X115000D02*
X115500D01*
X159500Y273000D02*
X183500D01*
X157500Y275000D02*
X159500Y273000D01*
X196283Y241000D02*
X196500D01*
X198281Y243653D02*
X198847D01*
X202000Y243500D02*
X214655D01*
X193783Y246100D02*
X194000D01*
X198847Y243653D02*
X198900Y243600D01*
X190098Y243700D02*
X198234D01*
X195884Y241400D02*
X196283Y241000D01*
X198234Y243700D02*
X198281Y243653D01*
X193384Y245700D02*
X193783Y246100D01*
X190098Y245700D02*
X193384D01*
X190098Y241400D02*
X195884D01*
X275000Y261500D02*
X277000Y263500D01*
X297265Y263451D02*
X302451D01*
X302500Y263500D01*
X307500Y257500D02*
Y262309D01*
X301358Y268451D02*
X307500Y262309D01*
X304500Y254500D02*
X307500Y257500D01*
X304500Y239000D02*
Y254500D01*
X185000Y253500D02*
X202000D01*
X238000Y307000D02*
X242914D01*
X237500Y307500D02*
X238000Y307000D01*
X258586Y229500D02*
X284000D01*
X335000Y303500D02*
X364145D01*
X324500Y300000D02*
X354000D01*
X355549Y298451D01*
X307000Y267000D02*
X337500D01*
X314086Y308500D02*
X364145D01*
X313500Y307914D02*
X314086Y308500D01*
X313500Y286586D02*
Y307914D01*
X288500Y307500D02*
X288717D01*
X289668Y308451D01*
X166000Y211244D02*
X170256Y215500D01*
X178500D01*
X166000Y210929D02*
Y211244D01*
X183791Y211138D02*
X184000Y210929D01*
X183791Y211138D02*
Y211914D01*
X183205Y212500D02*
X183791Y211914D01*
X171500Y190000D02*
Y195441D01*
X164457Y205554D02*
Y207039D01*
X164425Y207071D02*
X164457Y207039D01*
X171000Y201059D02*
X171500Y200559D01*
X171000Y201059D02*
Y204000D01*
X178000Y200559D02*
Y204414D01*
X178586Y205000D02*
X181808D01*
X178000Y204414D02*
X178586Y205000D01*
X181808D02*
X182394Y205586D01*
Y207039D01*
X182425Y207071D01*
X301000Y248000D02*
X303000Y250000D01*
Y257865D01*
X302414Y258451D02*
X303000Y257865D01*
X297265Y258451D02*
X302414D01*
X193638Y189138D02*
X196500Y192000D01*
X193547Y184323D02*
X193638Y184413D01*
Y189138D01*
X193000Y180500D02*
X193547Y181047D01*
Y184323D01*
X215642Y212000D02*
X223441D01*
X214978Y219969D02*
X223410D01*
X223441Y220000D01*
X199414Y207902D02*
X199453Y207863D01*
X199414Y207902D02*
Y214914D01*
X204469Y219969D01*
X199453Y199677D02*
Y207863D01*
X204469Y219969D02*
X209072D01*
X202500Y212000D02*
X209736D01*
X201421Y210921D02*
X202500Y212000D01*
X201421Y199677D02*
Y210921D01*
X340500Y293500D02*
X340549Y293451D01*
X139000Y118000D02*
X140500D01*
X136016Y115016D02*
X139000Y118000D01*
X131264Y115016D02*
X136016D01*
X123946Y122500D02*
X124531Y121914D01*
X122500Y123086D02*
X123086Y122500D01*
X122500Y123086D02*
Y124000D01*
X124531Y119780D02*
Y121914D01*
X123086Y122500D02*
X123946D01*
X135784Y118500D02*
X136000D01*
X131264Y116984D02*
X134268D01*
X135784Y118500D01*
X128559Y159500D02*
Y163500D01*
Y155500D02*
Y159500D01*
X107874Y158000D02*
X114000D01*
X107000Y158874D02*
X107874Y158000D01*
X115500Y159500D02*
X128559D01*
X114000Y158000D02*
X115500Y159500D01*
X128559Y163500D02*
X128559Y163500D01*
Y174500D02*
X134000D01*
X131264Y118953D02*
X131953D01*
X134000Y121000D01*
Y122500D01*
X364145Y308500D02*
X364194Y308451D01*
X130000Y281500D02*
X154500D01*
X128469Y122545D02*
X129271Y123347D01*
X128469Y119780D02*
Y122545D01*
X126500Y119780D02*
Y126000D01*
X139992Y113047D02*
X140039Y113000D01*
X147000Y107000D02*
X147946D01*
X114500Y91000D02*
X139000D01*
X111500Y94000D02*
X114500Y91000D01*
X139000D02*
X143000Y95000D01*
Y103000D02*
X147000Y107000D01*
X143000Y95000D02*
Y103000D01*
X111500Y110647D02*
X113900Y113047D01*
X111500Y94000D02*
Y110647D01*
X147946Y107000D02*
X169000D01*
X147946D02*
X147971Y107025D01*
X104217Y117000D02*
X121721D01*
X107153Y114153D02*
X107870D01*
X108732Y115016D02*
X121736D01*
X107000Y114000D02*
X107153Y114153D01*
X107870D02*
X108732Y115016D01*
X66500Y275000D02*
X115000D01*
X348000Y247548D02*
X348230Y247777D01*
X344549Y283451D02*
X364194D01*
X344500Y283500D02*
X344549Y283451D01*
X89076Y238500D02*
X89277Y238298D01*
X84500Y238500D02*
X89076D01*
X80059Y237500D02*
X83500D01*
X84500Y238500D01*
X84000Y228500D02*
X89076D01*
X89277Y228298D01*
X80059Y227500D02*
X83000D01*
X84000Y228500D01*
X89076Y218500D02*
X89277Y218298D01*
X84000Y218500D02*
X89076D01*
X80059Y217500D02*
X83000D01*
X84000Y218500D01*
X130500Y217500D02*
X134547D01*
X129702Y218298D02*
X130500Y217500D01*
X124317Y218298D02*
X129702D01*
X124518Y228500D02*
X129500D01*
X124317Y228298D02*
X124518Y228500D01*
X129500D02*
X130500Y227500D01*
X134858D01*
X131500Y237500D02*
X134492D01*
X134522Y237531D01*
X130702Y238298D02*
X131500Y237500D01*
X124317Y238298D02*
X130702D01*
X139500Y212500D02*
X140453Y213453D01*
Y217500D01*
X87000Y212500D02*
X139500D01*
X140000Y223500D02*
X140764Y224264D01*
Y227500D01*
X140428Y234086D02*
Y237531D01*
X139842Y233500D02*
X140428Y234086D01*
X92100Y233500D02*
X139842D01*
X258000Y230086D02*
Y234000D01*
Y230086D02*
X258586Y229500D01*
X185000Y253500D02*
X187798Y250702D01*
Y248000D02*
Y250702D01*
X100000Y254086D02*
Y265000D01*
Y254086D02*
X100586Y253500D01*
X64000Y137000D02*
X82000D01*
X61626Y139374D02*
X64000Y137000D01*
X61626Y139374D02*
Y145000D01*
X311500Y273000D02*
X311951Y273451D01*
X117000Y265000D02*
Y273500D01*
X115500Y275000D02*
X117000Y273500D01*
X61500Y270000D02*
X66500Y275000D01*
X61626Y205000D02*
Y211874D01*
X354716Y214775D02*
X354941Y215000D01*
X354716Y212500D02*
Y214775D01*
X352217Y210000D02*
X354716Y212500D01*
X352000Y210000D02*
X352217D01*
X356500Y263500D02*
X364145D01*
X364194Y263451D01*
X354549Y268451D02*
X364194D01*
X349549Y278451D02*
X364194D01*
X374000Y192000D02*
X375000Y191000D01*
Y187559D02*
Y191000D01*
X364194Y313451D02*
X369951D01*
X370900Y314400D02*
X377000D01*
X369951Y313451D02*
X370900Y314400D01*
X321878Y145378D02*
X323500Y147000D01*
X321878Y144353D02*
Y145378D01*
X303000Y144353D02*
X314122D01*
X327000Y114441D02*
X327031Y114410D01*
Y106978D02*
Y114410D01*
X314000Y107642D02*
Y114441D01*
X313559Y120000D02*
X314000Y119559D01*
X313079Y225500D02*
X313177Y225598D01*
X306000Y225500D02*
X313079D01*
X61626Y252500D02*
Y263828D01*
X62798Y265000D02*
X100000D01*
X61626Y263828D02*
X62798Y265000D01*
X113900Y113047D02*
X121736D01*
X121713Y118976D02*
X121736Y118953D01*
X121721Y117000D02*
X121736Y116984D01*
X124531Y110531D02*
Y112221D01*
X124000Y110000D02*
X124531Y110531D01*
X124000Y101461D02*
Y110000D01*
X131264Y113047D02*
X137000D01*
X272000Y294461D02*
X275414D01*
X275847Y294893D01*
X271416Y276857D02*
X272000Y277441D01*
X235000Y140559D02*
Y146500D01*
X289668Y308451D02*
X297265D01*
X199453Y184323D02*
X201421D01*
X243100Y142000D02*
X243400Y142300D01*
X240000Y142000D02*
X243100D01*
X238500Y140500D02*
X240000Y142000D01*
X235059Y140500D02*
X238500D01*
X235000Y140559D02*
X235059Y140500D01*
X123770Y101230D02*
X124000Y101461D01*
X46672Y197500D02*
X54172Y205000D01*
X61626D01*
X173200Y312000D02*
X173250Y311950D01*
X173223Y305490D02*
Y309073D01*
X173250Y309100D01*
X173034Y305301D02*
X173223Y305490D01*
X171100Y305335D02*
Y310300D01*
X171065Y305301D02*
X171100Y305335D01*
D20*
X123441Y139500D02*
D03*
X128559D02*
D03*
X128559Y147500D02*
D03*
X123441D02*
D03*
X123441Y155500D02*
D03*
X128559D02*
D03*
X128559Y163500D02*
D03*
X123441D02*
D03*
X128559Y174500D02*
D03*
X123441D02*
D03*
X217441Y204000D02*
D03*
X222559D02*
D03*
X217441Y190000D02*
D03*
X222559D02*
D03*
X354941Y215000D02*
D03*
X360059D02*
D03*
X228559Y220000D02*
D03*
X223441D02*
D03*
X228559Y212000D02*
D03*
X223441D02*
D03*
X217441Y197000D02*
D03*
X222559D02*
D03*
X74941Y227500D02*
D03*
X80059D02*
D03*
X354941Y225000D02*
D03*
X360059D02*
D03*
X74941Y217500D02*
D03*
X80059D02*
D03*
X74941Y237500D02*
D03*
X80059D02*
D03*
D21*
X61626Y115000D02*
D03*
X77374D02*
D03*
Y130000D02*
D03*
X61626D02*
D03*
X77374Y145000D02*
D03*
X61626D02*
D03*
X77374Y160000D02*
D03*
X61626D02*
D03*
Y175000D02*
D03*
X77374D02*
D03*
Y190000D02*
D03*
X61626D02*
D03*
X77374Y205000D02*
D03*
X61626D02*
D03*
X77374Y100000D02*
D03*
X61626D02*
D03*
X77374Y252500D02*
D03*
X61626D02*
D03*
D22*
X334000Y279951D02*
D03*
X326776D02*
D03*
X319551D02*
D03*
X334000Y294400D02*
D03*
X326776D02*
D03*
X319551D02*
D03*
X334000Y287176D02*
D03*
X326776D02*
D03*
X319551D02*
D03*
D23*
X353229Y247777D02*
D03*
X348230D02*
D03*
X343230D02*
D03*
X338229D02*
D03*
X333229D02*
D03*
X328229D02*
D03*
X323230D02*
D03*
X318230D02*
D03*
X313229D02*
D03*
X308229D02*
D03*
D24*
X364194Y253451D02*
D03*
Y258451D02*
D03*
Y263451D02*
D03*
Y268451D02*
D03*
Y273451D02*
D03*
Y278451D02*
D03*
Y283451D02*
D03*
Y288451D02*
D03*
Y293451D02*
D03*
Y298451D02*
D03*
Y303451D02*
D03*
Y308451D02*
D03*
Y313451D02*
D03*
Y318451D02*
D03*
X297265Y253451D02*
D03*
Y258451D02*
D03*
Y263451D02*
D03*
Y268451D02*
D03*
Y273451D02*
D03*
Y278451D02*
D03*
Y283451D02*
D03*
Y288451D02*
D03*
Y293451D02*
D03*
Y298451D02*
D03*
Y303451D02*
D03*
Y308451D02*
D03*
Y313451D02*
D03*
Y318451D02*
D03*
D25*
X123000Y323110D02*
D03*
Y336890D02*
D03*
D26*
X191003Y84189D02*
D03*
Y57811D02*
D03*
X375003Y157189D02*
D03*
Y130811D02*
D03*
D27*
X168365Y74937D02*
D03*
Y67063D02*
D03*
X352365Y147937D02*
D03*
Y140063D02*
D03*
D28*
X154000Y10000D02*
D03*
X161500Y99000D02*
D03*
X349000Y100500D02*
D03*
Y114000D02*
D03*
D29*
X217539Y183000D02*
D03*
X222461D02*
D03*
X207461Y170000D02*
D03*
X202539D02*
D03*
X165539Y174000D02*
D03*
X170461D02*
D03*
X202579Y177500D02*
D03*
X207500D02*
D03*
X282961Y244000D02*
D03*
X278039D02*
D03*
X139961Y302500D02*
D03*
X135039D02*
D03*
X191309Y285100D02*
D03*
X186388D02*
D03*
X298039Y144500D02*
D03*
X302961D02*
D03*
X144961Y113000D02*
D03*
X140039D02*
D03*
X165338Y241000D02*
D03*
X170259D02*
D03*
D30*
X304146Y173000D02*
D03*
X334854D02*
D03*
X74646Y299000D02*
D03*
X105354D02*
D03*
X14646Y67500D02*
D03*
X45354D02*
D03*
X138209D02*
D03*
X107500D02*
D03*
X132854Y22500D02*
D03*
X102146D02*
D03*
X14646D02*
D03*
X45354D02*
D03*
D31*
X171500Y195441D02*
D03*
Y200559D02*
D03*
X272000Y282559D02*
D03*
Y277441D02*
D03*
X178000Y200559D02*
D03*
Y195441D02*
D03*
X237500Y314882D02*
D03*
Y320000D02*
D03*
Y302382D02*
D03*
Y307500D02*
D03*
X375000Y187559D02*
D03*
Y182441D02*
D03*
X367500Y187559D02*
D03*
Y182441D02*
D03*
X267500Y127441D02*
D03*
Y132559D02*
D03*
X235000Y140559D02*
D03*
Y135441D02*
D03*
X140000Y309441D02*
D03*
Y314559D02*
D03*
X166349Y277041D02*
D03*
Y282159D02*
D03*
X314000Y114441D02*
D03*
Y119559D02*
D03*
X327000Y114441D02*
D03*
Y119559D02*
D03*
D32*
X164425Y207071D02*
D03*
X167575D02*
D03*
X185575D02*
D03*
X182425D02*
D03*
D33*
X166000Y210929D02*
D03*
X184000D02*
D03*
D34*
X313177Y225598D02*
D03*
X348217D02*
D03*
X313177Y215598D02*
D03*
X348217D02*
D03*
X313177Y205598D02*
D03*
X348217D02*
D03*
X89277Y238298D02*
D03*
X124317D02*
D03*
X89277Y228298D02*
D03*
X124317D02*
D03*
X89277Y218298D02*
D03*
X124317D02*
D03*
D35*
X188878Y99902D02*
D03*
Y125098D02*
D03*
Y103051D02*
D03*
Y121949D02*
D03*
D36*
Y113484D02*
D03*
Y111516D02*
D03*
Y115453D02*
D03*
Y117421D02*
D03*
Y119390D02*
D03*
Y109547D02*
D03*
Y107579D02*
D03*
Y105610D02*
D03*
D37*
X189000Y317461D02*
D03*
Y312539D02*
D03*
X280000Y299961D02*
D03*
Y295039D02*
D03*
X288000Y299961D02*
D03*
Y295039D02*
D03*
X272000Y294461D02*
D03*
Y289539D02*
D03*
X240976Y281461D02*
D03*
Y276539D02*
D03*
X225951Y281461D02*
D03*
Y276539D02*
D03*
X233951Y281461D02*
D03*
Y276539D02*
D03*
X217951D02*
D03*
Y281461D02*
D03*
X156849Y312639D02*
D03*
Y317561D02*
D03*
X201951Y276539D02*
D03*
Y281461D02*
D03*
X209951Y276539D02*
D03*
Y281461D02*
D03*
X173000Y282461D02*
D03*
Y277539D02*
D03*
X329000Y152461D02*
D03*
Y147539D02*
D03*
X124000Y96539D02*
D03*
Y101461D02*
D03*
X186798Y227539D02*
D03*
Y232461D02*
D03*
X192798Y227539D02*
D03*
Y232461D02*
D03*
X180798Y227539D02*
D03*
Y232461D02*
D03*
D38*
X314122Y144353D02*
D03*
D39*
Y142384D02*
D03*
Y140416D02*
D03*
Y138447D02*
D03*
X321878D02*
D03*
Y140416D02*
D03*
Y142384D02*
D03*
Y144353D02*
D03*
D40*
X168709Y164000D02*
D03*
X182291D02*
D03*
D41*
X122500Y291500D02*
D03*
X120000Y193000D02*
D03*
X165000Y117500D02*
D03*
X91000Y183000D02*
D03*
X117000Y265000D02*
D03*
X100000D02*
D03*
X91000Y159500D02*
D03*
D42*
X191579Y184323D02*
D03*
D43*
X193547D02*
D03*
X195516D02*
D03*
X197484D02*
D03*
X199453D02*
D03*
X201421D02*
D03*
Y199677D02*
D03*
X199453D02*
D03*
X197484D02*
D03*
X195516D02*
D03*
X193547D02*
D03*
X191579D02*
D03*
D44*
X204177Y187079D02*
D03*
Y189047D02*
D03*
Y191016D02*
D03*
Y192984D02*
D03*
Y194953D02*
D03*
Y196921D02*
D03*
X188823D02*
D03*
Y194953D02*
D03*
Y192984D02*
D03*
Y191016D02*
D03*
Y189047D02*
D03*
Y187079D02*
D03*
D45*
X196500Y192000D02*
D03*
D46*
X214978Y219969D02*
D03*
X209072D02*
D03*
X209736Y212000D02*
D03*
X215642D02*
D03*
X134858Y227500D02*
D03*
X140764D02*
D03*
X134522Y237531D02*
D03*
X140428D02*
D03*
X140453Y217500D02*
D03*
X134547D02*
D03*
D47*
X205213Y153071D02*
D03*
X212772D02*
D03*
Y145000D02*
D03*
D48*
X206000D02*
D03*
D49*
X121736Y118953D02*
D03*
Y116984D02*
D03*
Y115016D02*
D03*
Y113047D02*
D03*
X131264D02*
D03*
Y115016D02*
D03*
Y116984D02*
D03*
Y118953D02*
D03*
D50*
X124531Y112221D02*
D03*
X126500D02*
D03*
X128469D02*
D03*
Y119780D02*
D03*
X126500D02*
D03*
X124531D02*
D03*
D51*
X248428Y283643D02*
D03*
X264570D02*
D03*
X248428Y277343D02*
D03*
X264570D02*
D03*
D52*
X243400Y142300D02*
D03*
Y134820D02*
D03*
X251274Y138560D02*
D03*
D53*
X179961Y21437D02*
D03*
Y13563D02*
D03*
Y5689D02*
D03*
D54*
X162990Y337557D02*
D03*
X180707D02*
D03*
D55*
X213024Y297146D02*
D03*
Y327854D02*
D03*
D56*
X171065Y305301D02*
D03*
X173034D02*
D03*
Y294868D02*
D03*
X171065D02*
D03*
D57*
X169097Y306285D02*
D03*
X175002D02*
D03*
Y293887D02*
D03*
X169097D02*
D03*
D58*
X178447Y297131D02*
D03*
X178349Y299100D02*
D03*
Y301068D02*
D03*
Y303037D02*
D03*
X165853Y297131D02*
D03*
Y299100D02*
D03*
Y301068D02*
D03*
D59*
X166243Y303037D02*
D03*
D60*
X75000Y79902D02*
D03*
Y34902D02*
D03*
D61*
X84055Y55098D02*
D03*
X75000D02*
D03*
X65945D02*
D03*
X84055Y10098D02*
D03*
X75000D02*
D03*
X65945D02*
D03*
D62*
X314000Y101736D02*
D03*
Y107642D02*
D03*
X327031Y101072D02*
D03*
Y106978D02*
D03*
D63*
X185798Y248000D02*
D03*
X185814Y241398D02*
D03*
X187798Y248000D02*
D03*
D64*
X183498Y243700D02*
D03*
Y245700D02*
D03*
X190098Y243700D02*
D03*
Y245700D02*
D03*
D65*
X183498Y241400D02*
D03*
X190098D02*
D03*
X183498Y248000D02*
D03*
X190098D02*
D03*
D66*
X187783Y241398D02*
D03*
D116*
X272000Y149400D02*
D03*
D117*
X262000D02*
D03*
D131*
X318000Y141400D02*
D03*
D132*
X337000Y129548D02*
X347515Y140063D01*
X337000Y110000D02*
Y129548D01*
Y110000D02*
X337191Y109809D01*
Y109159D02*
Y109809D01*
Y109159D02*
X346350Y100000D01*
X331000Y123559D02*
Y124500D01*
X347515Y140063D02*
X352365D01*
X327470Y120029D02*
X331000Y123559D01*
X346350Y100000D02*
X348000D01*
X175000Y6000D02*
X181500D01*
X50500Y24000D02*
X78000D01*
X49000Y22500D02*
X50500Y24000D01*
X45354Y22500D02*
X49000D01*
X171000Y10000D02*
X175000Y6000D01*
X154000Y10000D02*
X171000D01*
X312750Y120809D02*
X313559Y120000D01*
X308000Y121000D02*
X308191Y120809D01*
X312750D01*
X349000Y114000D02*
Y123500D01*
X355119Y129348D02*
X360348D01*
X365000Y134000D01*
X349000Y123500D02*
X349271D01*
X355119Y129348D01*
X365000Y134000D02*
Y146765D01*
X352365Y147937D02*
X363828D01*
X365000Y146765D01*
X160500Y98000D02*
X161500Y99000D01*
X152172Y98000D02*
X160500D01*
X151000Y82000D02*
Y96828D01*
X152172Y98000D01*
X84153Y55000D02*
X95000D01*
X84055Y55098D02*
X84153Y55000D01*
X111000Y82000D02*
X151000D01*
X107500Y78500D02*
X111000Y82000D01*
X107500Y67500D02*
Y78500D01*
X78500Y67500D02*
X107500D01*
X78000Y24000D02*
X84000Y18000D01*
Y49000D02*
X88000Y45000D01*
X84000Y18000D02*
X88000Y22000D01*
Y45000D01*
X75000Y55098D02*
Y71000D01*
X78500Y67500D01*
X75000Y71000D02*
Y79902D01*
X84000Y49000D02*
Y55043D01*
X84055Y55098D01*
X45354Y22500D02*
Y67500D01*
X168365Y59635D02*
Y67000D01*
Y59635D02*
X187000Y41000D01*
Y26705D02*
Y41000D01*
X179961Y21437D02*
X181732D01*
X187000Y26705D01*
X84055Y10098D02*
X153902D01*
X84000Y10153D02*
Y18000D01*
Y10153D02*
X84055Y10098D01*
D133*
X205356Y153356D02*
Y159856D01*
X205106Y153106D02*
X205356Y153356D01*
Y159856D02*
X205500Y160000D01*
X172500Y287500D02*
X173034Y288034D01*
X184000Y110260D02*
Y112781D01*
X184703Y109557D02*
X188868D01*
X184000Y112781D02*
X184703Y113484D01*
X188878D01*
X184000Y110260D02*
X184703Y109557D01*
X211187Y164813D02*
X212772Y163228D01*
Y153071D02*
Y163228D01*
X198187Y164813D02*
X211187D01*
X197484Y165516D02*
X198187Y164813D01*
X204177Y191016D02*
X211016D01*
X212500Y203297D02*
X213203Y204000D01*
X217441D01*
X212500Y192500D02*
Y203297D01*
X211016Y191016D02*
X212500Y192500D01*
X217441Y190000D02*
Y197000D01*
X217441Y197000D01*
X213000Y190000D02*
X217441D01*
X204177Y189047D02*
X212047D01*
X213000Y190000D01*
X204177Y187079D02*
Y189047D01*
X195516Y163516D02*
Y184323D01*
Y136984D02*
Y163516D01*
X191000Y159000D02*
X195516Y163516D01*
X197484Y137516D02*
X200700Y134300D01*
X197484Y137516D02*
Y165516D01*
X195516Y136984D02*
X199000Y133500D01*
X197484Y165516D02*
Y184323D01*
X200700Y120300D02*
X203000Y118000D01*
X200700Y120300D02*
Y134300D01*
X188878Y111516D02*
X196516D01*
X203000Y118000D01*
X195984Y113484D02*
X199000Y116500D01*
X188878Y113484D02*
X195984D01*
X199000Y116500D02*
Y133500D01*
X188878Y115453D02*
X192453D01*
X195000Y118000D01*
X188868Y109557D02*
X188878Y109547D01*
X173250Y309100D02*
Y311950D01*
D134*
X175002Y300000D02*
X182500D01*
D135*
X155849Y299100D02*
X165853D01*
D136*
X173034Y282494D02*
Y288034D01*
X167520Y287500D02*
X172500D01*
X310000Y132500D02*
Y138700D01*
Y132500D02*
X310500Y132000D01*
X310000Y138700D02*
X311715Y140416D01*
X305000Y137423D02*
X309961Y142384D01*
X145500Y307000D02*
X147347Y305153D01*
X145500Y307000D02*
Y313680D01*
X147347Y305153D02*
X153347D01*
X144621Y314559D02*
X145500Y313680D01*
X140000Y314559D02*
X144621D01*
X153347Y305153D02*
X155463Y303037D01*
X166243D01*
X152449Y302500D02*
X155849Y299100D01*
X139961Y302500D02*
X152449D01*
X178349Y303037D02*
X194537D01*
X280000Y303500D02*
X287121D01*
X288000Y302621D01*
Y300461D02*
Y302621D01*
X194537Y303037D02*
X196000Y304500D01*
X280000Y303500D02*
X289951Y313451D01*
X297265D01*
X280000Y299961D02*
Y303500D01*
X237500Y307500D02*
Y314882D01*
X213170Y328000D02*
X236000D01*
X237500Y326500D01*
Y320000D02*
Y326500D01*
X139980Y309421D02*
X140000Y309441D01*
X139961Y302500D02*
X139980Y302520D01*
Y309421D01*
X166349Y286328D02*
X167520Y287500D01*
X166349Y282159D02*
Y286328D01*
X178349Y294600D02*
X180849Y292100D01*
Y286600D02*
Y292100D01*
Y286600D02*
X182349Y285100D01*
X186388D01*
X178349Y294600D02*
Y296616D01*
D137*
X318000Y143565D02*
D03*
Y139235D02*
D03*
X100000Y197000D02*
D03*
X103500Y116500D02*
D03*
X98500Y119000D02*
D03*
X267500Y297000D02*
D03*
X254500Y283500D02*
D03*
X214000Y240400D02*
D03*
X218500Y253000D02*
D03*
X189500Y207000D02*
D03*
X165000Y152500D02*
D03*
X350000Y162500D02*
D03*
X325500Y134000D02*
D03*
X366100Y240000D02*
D03*
X366000Y225000D02*
D03*
X348000Y192000D02*
D03*
X332000Y200500D02*
D03*
Y225000D02*
D03*
X342000Y215500D02*
D03*
Y224500D02*
D03*
X358500Y236500D02*
D03*
X370500Y258500D02*
D03*
X352000Y230000D02*
D03*
X303500Y290500D02*
D03*
X243500Y292000D02*
D03*
X288000Y288500D02*
D03*
X306500Y283000D02*
D03*
X174000Y246400D02*
D03*
X355500Y187500D02*
D03*
X339000Y151500D02*
D03*
X358000Y257500D02*
D03*
X344500D02*
D03*
X192500Y222000D02*
D03*
X276500Y282500D02*
D03*
X262500Y248000D02*
D03*
X290500Y253500D02*
D03*
X119868Y140500D02*
D03*
X154378Y130400D02*
D03*
X144378Y134400D02*
D03*
X273500Y222000D02*
D03*
X283000Y278500D02*
D03*
X140500Y262500D02*
D03*
X144000Y201500D02*
D03*
X160000D02*
D03*
X157000Y210500D02*
D03*
X176000Y130800D02*
D03*
X332000Y142500D02*
D03*
X329000Y139500D02*
D03*
X111500Y207000D02*
D03*
X182000Y108010D02*
D03*
X179500Y119000D02*
D03*
X147500Y228000D02*
D03*
Y256500D02*
D03*
X286500Y253000D02*
D03*
X288144Y258356D02*
D03*
X313000Y258000D02*
D03*
X179500Y185500D02*
D03*
X176500Y191500D02*
D03*
X174000Y209000D02*
D03*
X189500Y168500D02*
D03*
X216000D02*
D03*
X241000Y163500D02*
D03*
X282500Y152000D02*
D03*
X338000Y256000D02*
D03*
X293000Y165500D02*
D03*
X232000Y188000D02*
D03*
X229500Y191000D02*
D03*
X335000Y187000D02*
D03*
X219000Y153000D02*
D03*
X225209Y193500D02*
D03*
X227000Y197000D02*
D03*
X296000Y162500D02*
D03*
X304456D02*
D03*
X300000Y154500D02*
D03*
X229500Y155600D02*
D03*
X182500Y197000D02*
D03*
Y193500D02*
D03*
X136500Y153000D02*
D03*
Y207000D02*
D03*
X126500Y126000D02*
D03*
X154000Y219500D02*
D03*
X226000Y141500D02*
D03*
X176000D02*
D03*
X172500Y145000D02*
D03*
X250000Y242000D02*
D03*
X230000D02*
D03*
X245000Y244600D02*
D03*
X172500Y233500D02*
D03*
X98500Y245500D02*
D03*
X89500Y223500D02*
D03*
X242914Y307000D02*
D03*
X243500Y299207D02*
D03*
X221504Y286081D02*
D03*
X237000Y286000D02*
D03*
X348000Y235500D02*
D03*
X193500Y249500D02*
D03*
X250000Y259000D02*
D03*
X286500Y267000D02*
D03*
Y263500D02*
D03*
X169500Y259000D02*
D03*
X171000Y212500D02*
D03*
X236500Y259000D02*
D03*
X183500Y250500D02*
D03*
Y273000D02*
D03*
X202000Y243500D02*
D03*
X196500Y241000D02*
D03*
X198900Y243600D02*
D03*
X194000Y246100D02*
D03*
X196500Y261500D02*
D03*
X302500Y263500D02*
D03*
X199000Y264500D02*
D03*
X202000Y253500D02*
D03*
X271000Y265000D02*
D03*
X284000Y229500D02*
D03*
X295500Y221000D02*
D03*
X335000Y303500D02*
D03*
X324500Y300000D02*
D03*
X307000Y267000D02*
D03*
X313500Y286586D02*
D03*
X288500Y307500D02*
D03*
X337500Y267000D02*
D03*
X171500Y190000D02*
D03*
X178500Y215500D02*
D03*
X301000Y248000D02*
D03*
X304500Y239000D02*
D03*
X340500Y293500D02*
D03*
X140500Y118000D02*
D03*
X122500Y124000D02*
D03*
X136000Y118500D02*
D03*
X134000Y204000D02*
D03*
Y174500D02*
D03*
Y122500D02*
D03*
X154500Y281500D02*
D03*
X130000D02*
D03*
Y123500D02*
D03*
X122500Y253500D02*
D03*
X169000Y107000D02*
D03*
X227000Y158000D02*
D03*
X107000Y114000D02*
D03*
X340000Y157500D02*
D03*
X345000Y230000D02*
D03*
X344500Y283500D02*
D03*
X92100Y233500D02*
D03*
X87000Y212500D02*
D03*
X115000Y275000D02*
D03*
X230000Y233500D02*
D03*
X289000Y273500D02*
D03*
X245000Y223500D02*
D03*
X311500Y273000D02*
D03*
X61500Y270000D02*
D03*
X61626Y211874D02*
D03*
X352000Y210000D02*
D03*
X354500Y268500D02*
D03*
X349500Y278500D02*
D03*
X356500Y263500D02*
D03*
X306000Y225500D02*
D03*
X235000Y146500D02*
D03*
D138*
X266886Y322707D02*
D03*
D139*
X266885Y190943D02*
D03*
D140*
X68000Y334400D02*
D03*
X371252Y110201D02*
D03*
X164000Y34000D02*
D03*
D141*
X207598Y95492D02*
D03*
Y129508D02*
D03*
X191142Y95492D02*
D03*
Y129508D02*
D03*
D142*
X193110Y123878D02*
D03*
Y101122D02*
D03*
D143*
X107000Y158874D02*
D03*
Y166748D02*
D03*
Y151000D02*
D03*
D144*
Y174622D02*
D03*
D145*
X195905Y29803D02*
D03*
Y5197D02*
D03*
D146*
X278000Y234000D02*
D03*
X268000D02*
D03*
D147*
X258000D02*
D03*
D148*
X18000Y251400D02*
D03*
Y231400D02*
D03*
Y261400D02*
D03*
Y241400D02*
D03*
D149*
X13000Y289463D02*
D03*
X15000Y134626D02*
D03*
D150*
X13000Y297337D02*
D03*
X15000Y205492D02*
D03*
Y197618D02*
D03*
Y181870D02*
D03*
Y173996D02*
D03*
Y142500D02*
D03*
Y150374D02*
D03*
Y158248D02*
D03*
Y166122D02*
D03*
Y189744D02*
D03*
D151*
X23059Y326424D02*
D03*
D152*
X13059D02*
D03*
D153*
X42500Y207500D02*
D03*
Y197500D02*
D03*
Y187500D02*
D03*
Y177500D02*
D03*
Y167500D02*
D03*
Y157500D02*
D03*
Y147500D02*
D03*
Y137500D02*
D03*
Y127500D02*
D03*
Y117500D02*
D03*
Y107500D02*
D03*
X377000Y304400D02*
D03*
Y294400D02*
D03*
Y284400D02*
D03*
Y274400D02*
D03*
Y264400D02*
D03*
Y254400D02*
D03*
Y244400D02*
D03*
Y234400D02*
D03*
Y224400D02*
D03*
Y214400D02*
D03*
Y204400D02*
D03*
D154*
X42500Y217500D02*
D03*
X377000Y314400D02*
D03*
D155*
X51000Y155500D02*
D03*
X57000Y81500D02*
D03*
X205500Y160000D02*
D03*
X195933Y274500D02*
D03*
X196000Y294000D02*
D03*
X320000Y211000D02*
D03*
X360000Y184259D02*
D03*
X335500Y150000D02*
D03*
X374500Y145000D02*
D03*
X212000Y183000D02*
D03*
X214500Y173500D02*
D03*
X165500Y133700D02*
D03*
X222500D02*
D03*
X335000Y182000D02*
D03*
X329500Y234000D02*
D03*
X235500Y173500D02*
D03*
X222500Y149000D02*
D03*
X126500Y307500D02*
D03*
X237000Y340500D02*
D03*
X130500Y294000D02*
D03*
X56000Y291500D02*
D03*
X168500Y182000D02*
D03*
X277000Y271500D02*
D03*
X216500Y161500D02*
D03*
X239000Y212000D02*
D03*
Y233500D02*
D03*
X56000Y239828D02*
D03*
X360000Y209000D02*
D03*
X228500Y225000D02*
D03*
X191000Y159000D02*
D03*
X203000Y118000D02*
D03*
X195000D02*
D03*
D156*
X337000Y110000D02*
D03*
X331000Y124500D02*
D03*
X117500Y180000D02*
D03*
X310500Y132000D02*
D03*
X308000Y121000D02*
D03*
X349000Y123500D02*
D03*
X305000Y136000D02*
D03*
X229500Y289000D02*
D03*
X117000Y147000D02*
D03*
X59000Y18000D02*
D03*
X136000Y101000D02*
D03*
X95000Y320000D02*
D03*
Y55000D02*
D03*
X151000Y82000D02*
D03*
X117000Y101000D02*
D03*
Y22000D02*
D03*
X59000Y35000D02*
D03*
M02*
