G04*
G04 #@! TF.GenerationSoftware,Altium Limited,Altium Designer,22.7.1 (60)*
G04*
G04 Layer_Color=8454143*
%FSLAX25Y25*%
%MOIN*%
G70*
G04*
G04 #@! TF.SameCoordinates,3A20C243-D036-4456-A015-6CD0820CEA74*
G04*
G04*
G04 #@! TF.FilePolarity,Positive*
G04*
G01*
G75*
%ADD10C,0.02000*%
%ADD11C,0.00787*%
%ADD12C,0.01000*%
%ADD13C,0.02500*%
%ADD14C,0.00394*%
%ADD15C,0.00984*%
%ADD16C,0.00591*%
%ADD17C,0.00600*%
%ADD18C,0.00500*%
%ADD19C,0.00800*%
G36*
X29083Y321424D02*
X27744D01*
Y322093D01*
X28531Y322880D01*
X29083D01*
Y321424D01*
D02*
G37*
G36*
X37657Y223248D02*
Y219705D01*
X41201Y223248D01*
X37657D01*
D02*
G37*
G36*
X372158Y320148D02*
Y316605D01*
X375701Y320148D01*
X372158D01*
D02*
G37*
D10*
X291305Y319591D02*
G03*
X291305Y317311I975J-1140D01*
G01*
D11*
X353728Y203906D02*
G03*
X353728Y203906I-394J0D01*
G01*
X206130Y140768D02*
G03*
X206130Y140768I-394J0D01*
G01*
X256893Y279017D02*
G03*
X256893Y279017I-394J0D01*
G01*
X129828Y216605D02*
G03*
X129828Y216605I-394J0D01*
G01*
X63583Y60413D02*
G03*
X61811Y62185I-1772J0D01*
G01*
X29083Y322880D02*
G03*
X27744Y321542I0J-1339D01*
G01*
X63583Y15413D02*
G03*
X61811Y17185I-1772J0D01*
G01*
X181050Y247928D02*
G03*
X181050Y247928I-394J0D01*
G01*
X70681Y115000D02*
X71469D01*
X67532D02*
X67925D01*
X70681Y113425D02*
Y116969D01*
X67925Y115000D02*
X70681Y116969D01*
X67925Y115000D02*
X70681Y113425D01*
X67925Y113031D02*
Y116969D01*
X54736Y116000D02*
Y121500D01*
X84000D01*
X54736Y116000D02*
X55500D01*
Y121500D01*
Y108500D02*
Y114000D01*
X54736D02*
X55500D01*
X84000Y119626D02*
Y121500D01*
X54736Y108500D02*
Y114000D01*
X84000Y108500D02*
Y110374D01*
X54736Y108500D02*
X84000D01*
X54736Y123500D02*
X84000D01*
Y125374D01*
X54736Y123500D02*
Y129000D01*
X84000Y134626D02*
Y136500D01*
X54736Y129000D02*
X55500D01*
Y123500D02*
Y129000D01*
Y131000D02*
Y136500D01*
X54736Y131000D02*
X55500D01*
X54736Y136500D02*
X84000D01*
X54736Y131000D02*
Y136500D01*
X67925Y128032D02*
Y131968D01*
Y130000D02*
X70681Y128425D01*
X67925Y130000D02*
X70681Y131968D01*
Y128425D02*
Y131968D01*
X67532Y130000D02*
X67925D01*
X70681D02*
X71469D01*
X54736Y138500D02*
X84000D01*
Y140374D01*
X54736Y138500D02*
Y144000D01*
X84000Y149626D02*
Y151500D01*
X54736Y144000D02*
X55500D01*
Y138500D02*
Y144000D01*
Y146000D02*
Y151500D01*
X54736Y146000D02*
X55500D01*
X54736Y151500D02*
X84000D01*
X54736Y146000D02*
Y151500D01*
X67925Y143032D02*
Y146968D01*
Y145000D02*
X70681Y143425D01*
X67925Y145000D02*
X70681Y146968D01*
Y143425D02*
Y146968D01*
X67532Y145000D02*
X67925D01*
X70681D02*
X71469D01*
X54736Y153500D02*
X84000D01*
Y155374D01*
X54736Y153500D02*
Y159000D01*
X84000Y164626D02*
Y166500D01*
X54736Y159000D02*
X55500D01*
Y153500D02*
Y159000D01*
Y161000D02*
Y166500D01*
X54736Y161000D02*
X55500D01*
X54736Y166500D02*
X84000D01*
X54736Y161000D02*
Y166500D01*
X67925Y158031D02*
Y161969D01*
Y160000D02*
X70681Y158425D01*
X67925Y160000D02*
X70681Y161969D01*
Y158425D02*
Y161969D01*
X67532Y160000D02*
X67925D01*
X70681D02*
X71469D01*
X70681Y175000D02*
X71469D01*
X67532D02*
X67925D01*
X70681Y173425D02*
Y176969D01*
X67925Y175000D02*
X70681Y176969D01*
X67925Y175000D02*
X70681Y173425D01*
X67925Y173031D02*
Y176969D01*
X54736Y176000D02*
Y181500D01*
X84000D01*
X54736Y176000D02*
X55500D01*
Y181500D01*
Y168500D02*
Y174000D01*
X54736D02*
X55500D01*
X84000Y179626D02*
Y181500D01*
X54736Y168500D02*
Y174000D01*
X84000Y168500D02*
Y170374D01*
X54736Y168500D02*
X84000D01*
X54736Y183500D02*
X84000D01*
Y185374D01*
X54736Y183500D02*
Y189000D01*
X84000Y194626D02*
Y196500D01*
X54736Y189000D02*
X55500D01*
Y183500D02*
Y189000D01*
Y191000D02*
Y196500D01*
X54736Y191000D02*
X55500D01*
X54736Y196500D02*
X84000D01*
X54736Y191000D02*
Y196500D01*
X67925Y188031D02*
Y191969D01*
Y190000D02*
X70681Y188425D01*
X67925Y190000D02*
X70681Y191969D01*
Y188425D02*
Y191969D01*
X67532Y190000D02*
X67925D01*
X70681D02*
X71469D01*
X54736Y198500D02*
X84000D01*
Y200374D01*
X54736Y198500D02*
Y204000D01*
X84000Y209626D02*
Y211500D01*
X54736Y204000D02*
X55500D01*
Y198500D02*
Y204000D01*
Y206000D02*
Y211500D01*
X54736Y206000D02*
X55500D01*
X54736Y211500D02*
X84000D01*
X54736Y206000D02*
Y211500D01*
X67925Y203031D02*
Y206968D01*
Y205000D02*
X70681Y203425D01*
X67925Y205000D02*
X70681Y206968D01*
Y203425D02*
Y206968D01*
X67532Y205000D02*
X67925D01*
X70681D02*
X71469D01*
X114339Y339055D02*
X118669D01*
X114339Y324488D02*
Y339055D01*
Y324488D02*
X117291Y321535D01*
X118669D01*
X127376Y338978D02*
X131707D01*
Y324411D02*
Y338978D01*
X128754Y321458D02*
X131707Y324411D01*
X127376Y321458D02*
X128754D01*
X303162Y156661D02*
X331902D01*
X303162Y189339D02*
X331902D01*
Y156661D02*
X335839Y160599D01*
X331902Y189339D02*
X335839Y185401D01*
X303162Y156661D02*
Y168276D01*
Y177724D02*
Y189339D01*
X335839Y160599D02*
Y168276D01*
Y177724D02*
Y185401D01*
X167821Y210575D02*
X168362D01*
Y209394D02*
Y210575D01*
X163638Y209394D02*
Y210575D01*
X164179D01*
X212795Y93642D02*
X217835D01*
Y131358D01*
X212795D02*
X217835D01*
X197165Y93642D02*
X202087D01*
X197165Y131358D02*
X202087D01*
X102276Y178559D02*
X111724D01*
X102276Y179347D02*
X111724D01*
X102276Y146276D02*
Y179347D01*
Y146276D02*
X111724D01*
Y179347D01*
X172350Y166854D02*
X178650D01*
X172350Y161146D02*
X178650D01*
X54736Y93500D02*
X84000D01*
Y95374D01*
X54736Y93500D02*
Y99000D01*
X84000Y104626D02*
Y106500D01*
X54736Y99000D02*
X55500D01*
Y93500D02*
Y99000D01*
Y101000D02*
Y106500D01*
X54736Y101000D02*
X55500D01*
X54736Y106500D02*
X84000D01*
X54736Y101000D02*
Y106500D01*
X67925Y98032D02*
Y101969D01*
Y100000D02*
X70681Y98425D01*
X67925Y100000D02*
X70681Y101969D01*
Y98425D02*
Y101969D01*
X67532Y100000D02*
X67925D01*
X70681D02*
X71469D01*
X181638Y210575D02*
X182179D01*
X181638Y209394D02*
Y210575D01*
X186362Y209394D02*
Y210575D01*
X185821D02*
X186362D01*
X256499Y281969D02*
X258369Y279804D01*
X252562Y283938D02*
X260436D01*
X256499Y281969D02*
Y283938D01*
Y277048D02*
Y279017D01*
X252562Y277048D02*
X260436D01*
X251775Y286005D02*
X261223D01*
X251775Y274981D02*
X261223D01*
X246237Y144465D02*
X250093D01*
Y141316D02*
Y144465D01*
X246237Y132654D02*
X250093D01*
Y135860D01*
X184095Y34626D02*
X195905D01*
X184095Y374D02*
X195905D01*
Y10610D02*
X203780D01*
Y16516D01*
X195905D02*
X203780D01*
X184095Y374D02*
Y2539D01*
Y24587D02*
Y34626D01*
X195905Y374D02*
Y1555D01*
Y8839D02*
Y10610D01*
Y16516D02*
Y26161D01*
Y33445D02*
Y34626D01*
X73662Y282662D02*
X102401D01*
X73662Y315338D02*
X102401D01*
Y282662D02*
X106339Y286598D01*
X102401Y315338D02*
X106339Y311402D01*
X73662Y282662D02*
Y294276D01*
Y303724D02*
Y315338D01*
X106339Y286598D02*
Y294276D01*
Y303724D02*
Y311402D01*
X162006Y347793D02*
X181691D01*
X162006Y327321D02*
X181691D01*
X162006Y342675D02*
Y347793D01*
X181691Y342675D02*
Y347793D01*
X162006Y327321D02*
Y332439D01*
X181691Y327321D02*
Y332439D01*
X229363Y296162D02*
Y324902D01*
X196686Y296162D02*
Y324902D01*
X225426Y328838D02*
X229363Y324902D01*
X196686D02*
X200623Y328838D01*
X217749Y296162D02*
X229363D01*
X196686D02*
X208300D01*
X217749Y328838D02*
X225426D01*
X200623D02*
X208300D01*
X61811Y61102D02*
Y74783D01*
Y61102D02*
X62697Y60216D01*
X88189D01*
X63583D02*
Y60413D01*
X88189Y60216D02*
Y74783D01*
X61811D02*
X88189D01*
X260500Y229000D02*
X283016D01*
X253000D02*
Y239000D01*
Y229000D02*
X260500D01*
X283016D02*
Y239000D01*
X253000D02*
X260500D01*
X283016D01*
X7000Y266400D02*
X29000D01*
X7000Y226400D02*
Y266400D01*
Y226400D02*
X29000D01*
X27000Y230400D02*
X29000D01*
X27000D02*
Y262400D01*
X29000D01*
Y226400D02*
Y266400D01*
X6307Y281786D02*
X24024D01*
Y305014D01*
X6307D02*
X24024D01*
X6307Y281786D02*
Y305014D01*
X27744Y321424D02*
Y321542D01*
X29083Y321424D02*
Y331424D01*
X7035D02*
X29083D01*
X7035Y321424D02*
Y331424D01*
Y321424D02*
X29083D01*
X8307Y126752D02*
X26024D01*
Y213366D01*
X8307D02*
X26024D01*
X8307Y126752D02*
Y213366D01*
X37500Y101870D02*
Y223130D01*
Y101870D02*
X47500D01*
Y223130D01*
X37500D02*
X47500D01*
X372000Y198770D02*
Y320030D01*
Y198770D02*
X382000D01*
Y320030D01*
X372000D02*
X382000D01*
X13661Y51161D02*
X42401D01*
X13661Y83838D02*
X42401D01*
Y51161D02*
X46338Y55098D01*
X42401Y83838D02*
X46338Y79901D01*
X13661Y51161D02*
Y62776D01*
Y72224D02*
Y83838D01*
X46338Y55098D02*
Y62776D01*
Y72224D02*
Y79901D01*
X110453Y83838D02*
X139193D01*
X110453Y51161D02*
X139193D01*
X106516Y79901D02*
X110453Y83838D01*
X106516Y55098D02*
X110453Y51161D01*
X139193Y72224D02*
Y83838D01*
Y51161D02*
Y62776D01*
X106516Y72224D02*
Y79901D01*
Y55098D02*
Y62776D01*
X61811Y16102D02*
Y29783D01*
Y16102D02*
X62697Y15216D01*
X88189D01*
X63583D02*
Y15413D01*
X88189Y15216D02*
Y29783D01*
X61811D02*
X88189D01*
X105098Y38838D02*
X133839D01*
X105098Y6161D02*
X133839D01*
X101162Y34901D02*
X105098Y38838D01*
X101162Y10098D02*
X105098Y6161D01*
X133839Y27224D02*
Y38838D01*
Y6161D02*
Y17776D01*
X101162Y27224D02*
Y34901D01*
Y10098D02*
Y17776D01*
X13661Y6161D02*
X42401D01*
X13661Y38838D02*
X42401D01*
Y6161D02*
X46338Y10098D01*
X42401Y38838D02*
X46338Y34901D01*
X13661Y6161D02*
Y17776D01*
Y27224D02*
Y38838D01*
X46338Y10098D02*
Y17776D01*
Y27224D02*
Y34901D01*
X54736Y246000D02*
X84000D01*
Y247874D01*
X54736Y246000D02*
Y251500D01*
X84000Y257126D02*
Y259000D01*
X54736Y251500D02*
X55500D01*
Y246000D02*
Y251500D01*
Y253500D02*
Y259000D01*
X54736Y253500D02*
X55500D01*
X54736Y259000D02*
X84000D01*
X54736Y253500D02*
Y259000D01*
X67925Y250532D02*
Y254468D01*
Y252500D02*
X70681Y250925D01*
X67925Y252500D02*
X70681Y254468D01*
Y250925D02*
Y254468D01*
X67532Y252500D02*
X67925D01*
X70681D02*
X71469D01*
D12*
X310896Y146321D02*
G03*
X310896Y146321I-278J0D01*
G01*
X257983Y142387D02*
G03*
X257983Y156413I9017J7013D01*
G01*
X165050Y307584D02*
G03*
X165050Y307584I-500J0D01*
G01*
X258000Y142400D02*
Y156400D01*
X178152Y293982D02*
Y306187D01*
X165947Y293982D02*
X178152D01*
X165947Y306187D02*
X178152D01*
X165947Y293982D02*
Y306187D01*
D13*
X189500Y179000D02*
G03*
X189500Y179000I-500J0D01*
G01*
D14*
X118429Y119937D02*
G03*
X118429Y119937I-197J0D01*
G01*
X211336Y219969D02*
X212714Y218985D01*
Y219969D01*
X211336Y219083D02*
Y219969D01*
Y220855D01*
X212714Y219969D02*
Y220953D01*
X211336Y219969D02*
X212714Y220953D01*
X212000Y212000D02*
X213378Y212984D01*
Y212000D02*
Y212984D01*
X212000Y212000D02*
Y212886D01*
Y211114D02*
Y212000D01*
X213378Y211016D02*
Y212000D01*
X212000D02*
X213378Y211016D01*
X137122Y226516D02*
X138500Y227500D01*
X137122Y226516D02*
Y227500D01*
X138500Y226614D02*
Y227500D01*
Y228386D01*
X137122Y227500D02*
Y228484D01*
X138500Y227500D01*
X136786Y238515D02*
X138164Y237531D01*
X136786D02*
Y238515D01*
X138164Y237531D02*
Y238417D01*
Y236645D02*
Y237531D01*
X136786Y236546D02*
Y237531D01*
Y236546D02*
X138164Y237531D01*
X136811Y216516D02*
X138189Y217500D01*
X136811Y216516D02*
Y217500D01*
X138189Y216614D02*
Y217500D01*
Y218386D01*
X136811Y217500D02*
Y218484D01*
X138189Y217500D01*
X314000Y104000D02*
X314984Y105378D01*
X314000D02*
X314984D01*
X314000Y104000D02*
X314886D01*
X313114D02*
X314000D01*
X313016Y105378D02*
X314000D01*
X313016D02*
X314000Y104000D01*
X326046Y104714D02*
X327031Y103336D01*
X326046Y104714D02*
X327031D01*
X326145Y103336D02*
X327031D01*
X327917D01*
X327031Y104714D02*
X328015D01*
X327031Y103336D02*
X328015Y104714D01*
D15*
X61319Y55098D02*
G03*
X61319Y55098I-492J0D01*
G01*
Y10098D02*
G03*
X61319Y10098I-492J0D01*
G01*
D16*
X126000Y136744D02*
Y142256D01*
X121000Y141500D02*
Y142256D01*
X131000D01*
Y141500D02*
Y142256D01*
Y136744D02*
Y137500D01*
X121000Y136744D02*
X131000D01*
X121000D02*
Y137500D01*
X126000Y144744D02*
Y150256D01*
X131000Y144744D02*
Y145500D01*
X121000Y144744D02*
X131000D01*
X121000D02*
Y145500D01*
Y149500D02*
Y150256D01*
X131000D01*
Y149500D02*
Y150256D01*
X126000Y152744D02*
Y158256D01*
X121000Y157500D02*
Y158256D01*
X131000D01*
Y157500D02*
Y158256D01*
Y152744D02*
Y153500D01*
X121000Y152744D02*
X131000D01*
X121000D02*
Y153500D01*
X126000Y160744D02*
Y166256D01*
X131000Y160744D02*
Y161500D01*
X121000Y160744D02*
X131000D01*
X121000D02*
Y161500D01*
Y165500D02*
Y166256D01*
X131000D01*
Y165500D02*
Y166256D01*
X126000Y171744D02*
Y177256D01*
X131000Y171744D02*
Y172500D01*
X121000Y171744D02*
X131000D01*
X121000D02*
Y172500D01*
Y176500D02*
Y177256D01*
X131000D01*
Y176500D02*
Y177256D01*
X220000Y180539D02*
Y185461D01*
X224724Y180539D02*
Y181228D01*
X215276Y180539D02*
X224724D01*
X215276D02*
Y181228D01*
Y184772D02*
Y185461D01*
X224724D01*
Y184772D02*
Y185461D01*
X205000Y167539D02*
Y172461D01*
X200276Y171772D02*
Y172461D01*
X209724D01*
Y171772D02*
Y172461D01*
Y167539D02*
Y168228D01*
X200276Y167539D02*
X209724D01*
X200276D02*
Y168228D01*
X168744Y203000D02*
X169500D01*
X168744Y193000D02*
Y203000D01*
Y193000D02*
X169500D01*
X173500D02*
X174256D01*
Y203000D01*
X173500D02*
X174256D01*
X168744Y198000D02*
X174256D01*
X274000Y275000D02*
X274756D01*
Y285000D01*
X274000D02*
X274756D01*
X269244D02*
X270000D01*
X269244Y275000D02*
Y285000D01*
Y275000D02*
X270000D01*
X269244Y280000D02*
X274756D01*
X220000Y201244D02*
Y206756D01*
X215000Y206000D02*
Y206756D01*
X225000D01*
Y206000D02*
Y206756D01*
Y201244D02*
Y202000D01*
X215000Y201244D02*
X225000D01*
X215000D02*
Y202000D01*
X220000Y187244D02*
Y192756D01*
X215000Y192000D02*
Y192756D01*
X225000D01*
Y192000D02*
Y192756D01*
Y187244D02*
Y188000D01*
X215000Y187244D02*
X225000D01*
X215000D02*
Y188000D01*
X357500Y212244D02*
Y217756D01*
X352500Y217000D02*
Y217756D01*
X362500D01*
Y217000D02*
Y217756D01*
Y212244D02*
Y213000D01*
X352500Y212244D02*
X362500D01*
X352500D02*
Y213000D01*
X186539Y319724D02*
X187228D01*
X186539Y310276D02*
Y319724D01*
Y310276D02*
X187228D01*
X190772D02*
X191461D01*
Y319724D01*
X190772D02*
X191461D01*
X186539Y315000D02*
X191461D01*
X163276Y171539D02*
Y172228D01*
Y171539D02*
X172724D01*
Y172228D01*
Y175772D02*
Y176461D01*
X163276D02*
X172724D01*
X163276Y175772D02*
Y176461D01*
X168000Y171539D02*
Y176461D01*
X200315Y175039D02*
Y175728D01*
Y175039D02*
X209764D01*
Y175728D01*
Y179272D02*
Y179961D01*
X200315D02*
X209764D01*
X200315Y179272D02*
Y179961D01*
X205039Y175039D02*
Y179961D01*
X218025Y217213D02*
Y217969D01*
X206119Y217213D02*
X218025D01*
X206525D02*
Y218969D01*
Y220969D02*
Y222725D01*
X206119D02*
X218025D01*
Y221969D02*
Y222725D01*
X212025Y221347D02*
Y222725D01*
Y217213D02*
Y218591D01*
X221000Y217244D02*
Y218000D01*
Y217244D02*
X231000D01*
Y218000D01*
Y222000D02*
Y222756D01*
X221000D02*
X231000D01*
X221000Y222000D02*
Y222756D01*
X226000Y217244D02*
Y222756D01*
X221000Y209244D02*
Y210000D01*
Y209244D02*
X231000D01*
Y210000D01*
Y214000D02*
Y214756D01*
X221000D02*
X231000D01*
X221000Y214000D02*
Y214756D01*
X226000Y209244D02*
Y214756D01*
X218689Y214000D02*
Y214756D01*
X207177D02*
X218689D01*
X207189Y213000D02*
Y214756D01*
Y209244D02*
Y211000D01*
X206784Y209244D02*
X218689D01*
Y210000D01*
X212689Y209244D02*
Y210622D01*
X206689Y214756D02*
X207189D01*
X206689Y213000D02*
Y214756D01*
Y213000D02*
X207189D01*
X206689Y209244D02*
X207189D01*
X206689D02*
Y211000D01*
X207189D01*
X212689Y213378D02*
Y214756D01*
X225000Y199000D02*
Y199756D01*
X215000D02*
X225000D01*
X215000Y199000D02*
Y199756D01*
Y194244D02*
Y195000D01*
Y194244D02*
X225000D01*
Y195000D01*
X220000Y194244D02*
Y199756D01*
X82500Y229500D02*
Y230256D01*
X72500D02*
X82500D01*
X72500Y229500D02*
Y230256D01*
Y224744D02*
Y225500D01*
Y224744D02*
X82500D01*
Y225500D01*
X77500Y224744D02*
Y230256D01*
X277539Y297500D02*
X282461D01*
X277539Y292776D02*
X278228D01*
X277539D02*
Y302224D01*
X278228D01*
X281772D02*
X282461D01*
Y292776D02*
Y302224D01*
X281772Y292776D02*
X282461D01*
X285539Y297500D02*
X290461D01*
X285539Y292776D02*
X286228D01*
X285539D02*
Y302224D01*
X286228D01*
X289772D02*
X290461D01*
Y292776D02*
Y302224D01*
X289772Y292776D02*
X290461D01*
X269539Y292000D02*
X274461D01*
X269539Y287276D02*
X270228D01*
X269539D02*
Y296724D01*
X270228D01*
X273772D02*
X274461D01*
Y287276D02*
Y296724D01*
X273772Y287276D02*
X274461D01*
X175244Y198000D02*
X180756D01*
X180000Y203000D02*
X180756D01*
Y193000D02*
Y203000D01*
X180000Y193000D02*
X180756D01*
X175244D02*
X176000D01*
X175244D02*
Y203000D01*
X176000D01*
X234744Y317441D02*
X240256D01*
X234744Y312441D02*
X235500D01*
X234744D02*
Y322441D01*
X235500D01*
X239500D02*
X240256D01*
Y312441D02*
Y322441D01*
X239500Y312441D02*
X240256D01*
X234744Y304941D02*
X240256D01*
X234744Y299941D02*
X235500D01*
X234744D02*
Y309941D01*
X235500D01*
X239500D02*
X240256D01*
Y299941D02*
Y309941D01*
X239500Y299941D02*
X240256D01*
X372244Y185000D02*
X377756D01*
X377000Y190000D02*
X377756D01*
Y180000D02*
Y190000D01*
X377000Y180000D02*
X377756D01*
X372244D02*
X373000D01*
X372244D02*
Y190000D01*
X373000D01*
X364744Y185000D02*
X370256D01*
X369500Y190000D02*
X370256D01*
Y180000D02*
Y190000D01*
X369500Y180000D02*
X370256D01*
X364744D02*
X365500D01*
X364744D02*
Y190000D01*
X365500D01*
X357500Y222244D02*
Y227756D01*
X352500Y227000D02*
Y227756D01*
X362500D01*
Y227000D02*
Y227756D01*
Y222244D02*
Y223000D01*
X352500Y222244D02*
X362500D01*
X352500D02*
Y223000D01*
X137811Y228878D02*
Y230256D01*
Y224744D02*
Y226122D01*
X143311Y228500D02*
X143811D01*
Y230256D01*
X143311D02*
X143811D01*
X143311Y226500D02*
X143811D01*
Y224744D02*
Y226500D01*
X143311Y224744D02*
X143811D01*
X131811Y229500D02*
Y230256D01*
X143717D01*
X143311Y228500D02*
Y230256D01*
Y224744D02*
Y226500D01*
X131811Y224744D02*
X143717D01*
X131811D02*
Y225500D01*
X131475Y239531D02*
Y240287D01*
X143380D01*
X142975Y238531D02*
Y240287D01*
Y234775D02*
Y236531D01*
X131475Y234775D02*
X143380D01*
X131475D02*
Y235531D01*
X137475Y234775D02*
Y236153D01*
Y238909D02*
Y240287D01*
X137500Y218878D02*
Y220256D01*
Y214744D02*
Y216122D01*
X131500Y214744D02*
Y215500D01*
Y214744D02*
X143405D01*
X143000D02*
Y216500D01*
Y218500D02*
Y220256D01*
X131500D02*
X143405D01*
X131500Y219500D02*
Y220256D01*
X143000Y214744D02*
X143500D01*
Y216500D01*
X143000D02*
X143500D01*
X143000Y220256D02*
X143500D01*
Y218500D02*
Y220256D01*
X143000Y218500D02*
X143500D01*
X82500Y219500D02*
Y220256D01*
X72500D02*
X82500D01*
X72500Y219500D02*
Y220256D01*
Y214744D02*
Y215500D01*
Y214744D02*
X82500D01*
Y215500D01*
X77500Y214744D02*
Y220256D01*
X82500Y239500D02*
Y240256D01*
X72500D02*
X82500D01*
X72500Y239500D02*
Y240256D01*
Y234744D02*
Y235500D01*
Y234744D02*
X82500D01*
Y235500D01*
X77500Y234744D02*
Y240256D01*
X264744Y135000D02*
X265500D01*
X264744Y125000D02*
Y135000D01*
Y125000D02*
X265500D01*
X269500D02*
X270256D01*
Y135000D01*
X269500D02*
X270256D01*
X264744Y130000D02*
X270256D01*
X237000Y133000D02*
X237756D01*
Y143000D01*
X237000D02*
X237756D01*
X232244D02*
X233000D01*
X232244Y133000D02*
Y143000D01*
Y133000D02*
X233000D01*
X232244Y138000D02*
X237756D01*
X285224Y245772D02*
Y246461D01*
X275776D02*
X285224D01*
X275776Y245772D02*
Y246461D01*
Y241539D02*
Y242228D01*
Y241539D02*
X285224D01*
Y242228D01*
X280500Y241539D02*
Y246461D01*
X238515Y279000D02*
X243436D01*
X238515Y274276D02*
X239204D01*
X238515D02*
Y283724D01*
X239204D01*
X242747D02*
X243436D01*
Y274276D02*
Y283724D01*
X242747Y274276D02*
X243436D01*
X223491Y279000D02*
X228412D01*
X223491Y274276D02*
X224180D01*
X223491D02*
Y283724D01*
X224180D01*
X227723D02*
X228412D01*
Y274276D02*
Y283724D01*
X227723Y274276D02*
X228412D01*
X231491Y279000D02*
X236412D01*
X231491Y274276D02*
X232180D01*
X231491D02*
Y283724D01*
X232180D01*
X235723D02*
X236412D01*
Y274276D02*
Y283724D01*
X235723Y274276D02*
X236412D01*
X215491Y279000D02*
X220412D01*
X219723Y283724D02*
X220412D01*
Y274276D02*
Y283724D01*
X219723Y274276D02*
X220412D01*
X215491D02*
X216180D01*
X215491D02*
Y283724D01*
X216180D01*
X137500Y300039D02*
Y304961D01*
X132776Y304272D02*
Y304961D01*
X142224D01*
Y304272D02*
Y304961D01*
Y300039D02*
Y300728D01*
X132776Y300039D02*
X142224D01*
X132776D02*
Y300728D01*
X137244Y312000D02*
X142756D01*
X137244Y307000D02*
X138000D01*
X137244D02*
Y317000D01*
X138000D01*
X142000D02*
X142756D01*
Y307000D02*
Y317000D01*
X142000Y307000D02*
X142756D01*
X188849Y282639D02*
Y287561D01*
X184124Y286872D02*
Y287561D01*
X193573D01*
Y286872D02*
Y287561D01*
Y282639D02*
Y283328D01*
X184124Y282639D02*
X193573D01*
X184124D02*
Y283328D01*
X154388Y315100D02*
X159309D01*
X158620Y319824D02*
X159309D01*
Y310376D02*
Y319824D01*
X158620Y310376D02*
X159309D01*
X154388D02*
X155077D01*
X154388D02*
Y319824D01*
X155077D01*
X199491Y279000D02*
X204412D01*
X203723Y283724D02*
X204412D01*
Y274276D02*
Y283724D01*
X203723Y274276D02*
X204412D01*
X199491D02*
X200180D01*
X199491D02*
Y283724D01*
X200180D01*
X207491Y279000D02*
X212412D01*
X211723Y283724D02*
X212412D01*
Y274276D02*
Y283724D01*
X211723Y274276D02*
X212412D01*
X207491D02*
X208180D01*
X207491D02*
Y283724D01*
X208180D01*
X163593Y279600D02*
X169105D01*
X163593Y274600D02*
X164349D01*
X163593D02*
Y284600D01*
X164349D01*
X168349D02*
X169105D01*
Y274600D02*
Y284600D01*
X168349Y274600D02*
X169105D01*
X170539Y280000D02*
X175461D01*
X170539Y275276D02*
X171228D01*
X170539D02*
Y284724D01*
X171228D01*
X174772D02*
X175461D01*
Y275276D02*
Y284724D01*
X174772Y275276D02*
X175461D01*
X311244Y110689D02*
X312000D01*
X311244Y98783D02*
Y110689D01*
Y99189D02*
X313000D01*
X315000D02*
X316756D01*
Y98783D02*
Y110689D01*
X316000D02*
X316756D01*
X311244Y98689D02*
Y99189D01*
Y98689D02*
X313000D01*
Y99189D01*
X316756Y98689D02*
Y99189D01*
X315000Y98689D02*
X316756D01*
X315000D02*
Y99189D01*
X311244Y104689D02*
X312622D01*
X315378D02*
X316756D01*
X311244Y117000D02*
X316756D01*
X311244Y112000D02*
X312000D01*
X311244D02*
Y122000D01*
X312000D01*
X316000D02*
X316756D01*
Y112000D02*
Y122000D01*
X316000Y112000D02*
X316756D01*
X324244Y117000D02*
X329756D01*
X324244Y112000D02*
X325000D01*
X324244D02*
Y122000D01*
X325000D01*
X329000D02*
X329756D01*
Y112000D02*
Y122000D01*
X329000Y112000D02*
X329756D01*
X328409Y104025D02*
X329787D01*
X324275D02*
X325653D01*
X324275Y110025D02*
X325031D01*
X324275Y98119D02*
Y110025D01*
Y98525D02*
X326031D01*
X328031D02*
X329787D01*
Y98119D02*
Y110025D01*
X329031D02*
X329787D01*
X326539Y154724D02*
X327228D01*
X326539Y145276D02*
Y154724D01*
Y145276D02*
X327228D01*
X330772D02*
X331461D01*
Y154724D01*
X330772D02*
X331461D01*
X326539Y150000D02*
X331461D01*
X295776Y142039D02*
Y142728D01*
Y142039D02*
X305224D01*
Y142728D01*
Y146272D02*
Y146961D01*
X295776D02*
X305224D01*
X295776Y146272D02*
Y146961D01*
X300500Y142039D02*
Y146961D01*
X147224Y114772D02*
Y115461D01*
X137776D02*
X147224D01*
X137776Y114772D02*
Y115461D01*
Y110539D02*
Y111228D01*
Y110539D02*
X147224D01*
Y111228D01*
X142500Y110539D02*
Y115461D01*
X125772Y94276D02*
X126461D01*
Y103724D01*
X125772D02*
X126461D01*
X121539D02*
X122228D01*
X121539Y94276D02*
Y103724D01*
Y94276D02*
X122228D01*
X121539Y99000D02*
X126461D01*
X188570Y225276D02*
X189259D01*
Y234724D01*
X188570D02*
X189259D01*
X184338D02*
X185027D01*
X184338Y225276D02*
Y234724D01*
Y225276D02*
X185027D01*
X184338Y230000D02*
X189259D01*
X194570Y225276D02*
X195259D01*
Y234724D01*
X194570D02*
X195259D01*
X190338D02*
X191027D01*
X190338Y225276D02*
Y234724D01*
Y225276D02*
X191027D01*
X190338Y230000D02*
X195259D01*
X163074Y238539D02*
Y239228D01*
Y238539D02*
X172523D01*
Y239228D01*
Y242772D02*
Y243461D01*
X163074D02*
X172523D01*
X163074Y242772D02*
Y243461D01*
X167798Y238539D02*
Y243461D01*
X182570Y225276D02*
X183259D01*
Y234724D01*
X182570D02*
X183259D01*
X178338D02*
X179027D01*
X178338Y225276D02*
Y234724D01*
Y225276D02*
X179027D01*
X178338Y230000D02*
X183259D01*
D17*
X356290Y245296D02*
X366680D01*
Y321511D02*
Y346696D01*
X294779Y245296D02*
Y250391D01*
Y321511D02*
Y346696D01*
X366680D01*
Y245296D02*
Y250391D01*
X294779Y245296D02*
X305170D01*
X162550Y70323D02*
Y71677D01*
Y54950D02*
Y63803D01*
Y54950D02*
X182993D01*
X162550Y78197D02*
Y87050D01*
X182993D01*
X197450Y62071D02*
Y79929D01*
X346550Y143323D02*
Y144677D01*
Y127950D02*
Y136803D01*
Y127950D02*
X366993D01*
X346550Y151197D02*
Y160050D01*
X366993D01*
X381450Y135071D02*
Y152929D01*
X133168Y136501D02*
Y140499D01*
X135167D01*
X135834Y139833D01*
Y138500D01*
X135167Y137833D01*
X133168D01*
X134501D02*
X135834Y136501D01*
X139832Y140499D02*
X137167D01*
Y138500D01*
X138499Y139166D01*
X139166D01*
X139832Y138500D01*
Y137167D01*
X139166Y136501D01*
X137833D01*
X137167Y137167D01*
X133168Y145001D02*
Y148999D01*
X135167D01*
X135834Y148333D01*
Y147000D01*
X135167Y146334D01*
X133168D01*
X134501D02*
X135834Y145001D01*
X139832D02*
X137167D01*
X139832Y147667D01*
Y148333D01*
X139166Y148999D01*
X137833D01*
X137167Y148333D01*
X133168Y152901D02*
Y156899D01*
X135167D01*
X135834Y156233D01*
Y154900D01*
X135167Y154234D01*
X133168D01*
X134501D02*
X135834Y152901D01*
X139166D02*
Y156899D01*
X137167Y154900D01*
X139832D01*
X133034Y161501D02*
Y165499D01*
X135034D01*
X135700Y164833D01*
Y163500D01*
X135034Y162833D01*
X133034D01*
X134367D02*
X135700Y161501D01*
X137033D02*
X138366D01*
X137700D01*
Y165499D01*
X137033Y164833D01*
X133168Y171501D02*
Y175499D01*
X135167D01*
X135834Y174833D01*
Y173500D01*
X135167Y172834D01*
X133168D01*
X134501D02*
X135834Y171501D01*
X137167Y174833D02*
X137833Y175499D01*
X139166D01*
X139832Y174833D01*
Y174167D01*
X139166Y173500D01*
X138499D01*
X139166D01*
X139832Y172834D01*
Y172167D01*
X139166Y171501D01*
X137833D01*
X137167Y172167D01*
X85000Y100999D02*
Y97000D01*
X86999D01*
X87666Y97666D01*
Y100332D01*
X86999Y100999D01*
X85000D01*
X88999Y97000D02*
X90332D01*
X89665D01*
Y100999D01*
X88999Y100332D01*
X92331Y97000D02*
X93664D01*
X92997D01*
Y100999D01*
X92331Y100332D01*
X95663Y98999D02*
X98329D01*
X99662Y97000D02*
X100995D01*
X100328D01*
Y100999D01*
X99662Y100332D01*
X102994D02*
X103661Y100999D01*
X104994D01*
X105660Y100332D01*
Y99666D01*
X104994Y98999D01*
X105660Y98333D01*
Y97666D01*
X104994Y97000D01*
X103661D01*
X102994Y97666D01*
Y98333D01*
X103661Y98999D01*
X102994Y99666D01*
Y100332D01*
X103661Y98999D02*
X104994D01*
X201333Y141999D02*
X200001D01*
X200667D01*
Y138667D01*
X200001Y138001D01*
X199334D01*
X198668Y138667D01*
X205332Y138001D02*
X202666D01*
X205332Y140666D01*
Y141333D01*
X204666Y141999D01*
X203333D01*
X202666Y141333D01*
X354668Y205501D02*
Y209499D01*
X356668D01*
X357334Y208833D01*
Y207500D01*
X356668Y206834D01*
X354668D01*
X356001D02*
X357334Y205501D01*
X361333D02*
X358667D01*
X361333Y208166D01*
Y208833D01*
X360666Y209499D01*
X359334D01*
X358667Y208833D01*
X362666D02*
X363332Y209499D01*
X364665D01*
X365332Y208833D01*
Y208166D01*
X364665Y207500D01*
X365332Y206834D01*
Y206167D01*
X364665Y205501D01*
X363332D01*
X362666Y206167D01*
Y206834D01*
X363332Y207500D01*
X362666Y208166D01*
Y208833D01*
X363332Y207500D02*
X364665D01*
X342668Y119501D02*
Y123499D01*
X344001Y122167D01*
X345334Y123499D01*
Y119501D01*
X346667Y121500D02*
X349332D01*
X342668Y105501D02*
Y109499D01*
X344001Y108167D01*
X345334Y109499D01*
Y105501D01*
X346667Y107500D02*
X349332D01*
X347999Y108833D02*
Y106167D01*
X54900Y266099D02*
Y262100D01*
X56899D01*
X57566Y262766D01*
Y265432D01*
X56899Y266099D01*
X54900D01*
X58899Y262100D02*
X60232D01*
X59565D01*
Y266099D01*
X58899Y265432D01*
X62231D02*
X62897Y266099D01*
X64230D01*
X64897Y265432D01*
Y262766D01*
X64230Y262100D01*
X62897D01*
X62231Y262766D01*
Y265432D01*
X279168Y346999D02*
Y343667D01*
X279834Y343001D01*
X281167D01*
X281834Y343667D01*
Y346999D01*
X283167Y346333D02*
X283833Y346999D01*
X285166D01*
X285832Y346333D01*
Y345666D01*
X285166Y345000D01*
X285832Y344334D01*
Y343667D01*
X285166Y343001D01*
X283833D01*
X283167Y343667D01*
Y344334D01*
X283833Y345000D01*
X283167Y345666D01*
Y346333D01*
X283833Y345000D02*
X285166D01*
X61668Y46999D02*
Y43667D01*
X62334Y43001D01*
X63667D01*
X64334Y43667D01*
Y46999D01*
X65667D02*
X68332D01*
Y46333D01*
X65667Y43667D01*
Y43001D01*
X57668Y88999D02*
Y85667D01*
X58334Y85001D01*
X59667D01*
X60334Y85667D01*
Y88999D01*
X64332D02*
X62999Y88333D01*
X61667Y87000D01*
Y85667D01*
X62333Y85001D01*
X63666D01*
X64332Y85667D01*
Y86334D01*
X63666Y87000D01*
X61667D01*
X157017Y293599D02*
Y290267D01*
X157683Y289601D01*
X159016D01*
X159682Y290267D01*
Y293599D01*
X163681D02*
X161015D01*
Y291600D01*
X162348Y292266D01*
X163015D01*
X163681Y291600D01*
Y290267D01*
X163015Y289601D01*
X161682D01*
X161015Y290267D01*
X314668Y133234D02*
Y129902D01*
X315334Y129235D01*
X316667D01*
X317334Y129902D01*
Y133234D01*
X320666Y129235D02*
Y133234D01*
X318667Y131235D01*
X321332D01*
X205168Y206999D02*
Y203667D01*
X205834Y203001D01*
X207167D01*
X207834Y203667D01*
Y206999D01*
X209167Y206333D02*
X209833Y206999D01*
X211166D01*
X211832Y206333D01*
Y205666D01*
X211166Y205000D01*
X210499D01*
X211166D01*
X211832Y204333D01*
Y203667D01*
X211166Y203001D01*
X209833D01*
X209167Y203667D01*
X180500Y256599D02*
Y253266D01*
X181167Y252600D01*
X182499D01*
X183166Y253266D01*
Y256599D01*
X187164Y252600D02*
X184499D01*
X187164Y255266D01*
Y255932D01*
X186498Y256599D01*
X185165D01*
X184499Y255932D01*
X125334Y132499D02*
Y129167D01*
X126001Y128501D01*
X127333D01*
X128000Y129167D01*
Y132499D01*
X129333Y128501D02*
X130666D01*
X129999D01*
Y132499D01*
X129333Y131833D01*
X111834Y293499D02*
X109168D01*
Y291500D01*
X110501Y292166D01*
X111167D01*
X111834Y291500D01*
Y290167D01*
X111167Y289501D01*
X109834D01*
X109168Y290167D01*
X113166Y293499D02*
Y290834D01*
X114499Y289501D01*
X115832Y290834D01*
Y293499D01*
X116668Y206333D02*
X117335Y206999D01*
X118668D01*
X119334Y206333D01*
Y205666D01*
X118668Y205000D01*
X118001D01*
X118668D01*
X119334Y204333D01*
Y203667D01*
X118668Y203001D01*
X117335D01*
X116668Y203667D01*
X120667Y206999D02*
Y204333D01*
X122000Y203001D01*
X123333Y204333D01*
Y206999D01*
X124666Y206333D02*
X125332Y206999D01*
X126665D01*
X127332Y206333D01*
Y205666D01*
X126665Y205000D01*
X125999D01*
X126665D01*
X127332Y204333D01*
Y203667D01*
X126665Y203001D01*
X125332D01*
X124666Y203667D01*
X154669Y109666D02*
Y107000D01*
X156002Y105667D01*
X157335Y107000D01*
Y109666D01*
X161334D02*
X158668D01*
Y105667D01*
X161334D01*
X158668Y107667D02*
X160001D01*
X162666Y105667D02*
X164666D01*
X165332Y106333D01*
X164666Y107000D01*
X163333D01*
X162666Y107667D01*
X163333Y108333D01*
X165332D01*
X166665Y104334D02*
Y108333D01*
X168665D01*
X169331Y107667D01*
Y106333D01*
X168665Y105667D01*
X166665D01*
X146835Y19499D02*
Y16834D01*
X148168Y15501D01*
X149501Y16834D01*
Y19499D01*
X150834D02*
Y15501D01*
X152833D01*
X153500Y16167D01*
Y16834D01*
X152833Y17500D01*
X150834D01*
X152833D01*
X153500Y18167D01*
Y18833D01*
X152833Y19499D01*
X150834D01*
X155499Y18167D02*
X156832D01*
X157499Y17500D01*
Y15501D01*
X155499D01*
X154833Y16167D01*
X155499Y16834D01*
X157499D01*
X159498Y18833D02*
Y18167D01*
X158832D01*
X160164D01*
X159498D01*
Y16167D01*
X160164Y15501D01*
X160834Y129333D02*
X160168Y129999D01*
X158835D01*
X158168Y129333D01*
Y126667D01*
X158835Y126001D01*
X160168D01*
X160834Y126667D01*
Y128000D01*
X159501D01*
X162167Y126001D02*
Y129999D01*
X164833Y126001D01*
Y129999D01*
X166166D02*
Y126001D01*
X168165D01*
X168832Y126667D01*
Y129333D01*
X168165Y129999D01*
X166166D01*
X99999Y153002D02*
X96001D01*
X97334Y154335D01*
X96001Y155668D01*
X99999D01*
X96001Y157001D02*
Y158334D01*
Y157667D01*
X99999D01*
Y157001D01*
Y158334D01*
X96667Y162999D02*
X96001Y162333D01*
Y161000D01*
X96667Y160333D01*
X97334D01*
X98000Y161000D01*
Y162333D01*
X98666Y162999D01*
X99333D01*
X99999Y162333D01*
Y161000D01*
X99333Y160333D01*
X96001Y166331D02*
Y164998D01*
X96667Y164332D01*
X99333D01*
X99999Y164998D01*
Y166331D01*
X99333Y166998D01*
X96667D01*
X96001Y166331D01*
X100499Y177336D02*
X96501D01*
X97834Y178668D01*
X96501Y180001D01*
X100499D01*
X96501Y183334D02*
Y182001D01*
X97167Y181334D01*
X99833D01*
X100499Y182001D01*
Y183334D01*
X99833Y184000D01*
X97167D01*
X96501Y183334D01*
X97167Y187999D02*
X96501Y187332D01*
Y185999D01*
X97167Y185333D01*
X97834D01*
X98500Y185999D01*
Y187332D01*
X99166Y187999D01*
X99833D01*
X100499Y187332D01*
Y185999D01*
X99833Y185333D01*
X96501Y189332D02*
Y190665D01*
Y189998D01*
X100499D01*
Y189332D01*
Y190665D01*
X126334Y268333D02*
X125668Y268999D01*
X124335D01*
X123668Y268333D01*
Y267666D01*
X124335Y267000D01*
X125668D01*
X126334Y266334D01*
Y265667D01*
X125668Y265001D01*
X124335D01*
X123668Y265667D01*
X130333Y268333D02*
X129666Y268999D01*
X128333D01*
X127667Y268333D01*
Y265667D01*
X128333Y265001D01*
X129666D01*
X130333Y265667D01*
X131666Y268999D02*
Y265001D01*
X134332D01*
X97834Y278333D02*
X97168Y278999D01*
X95835D01*
X95168Y278333D01*
Y277666D01*
X95835Y277000D01*
X97168D01*
X97834Y276334D01*
Y275667D01*
X97168Y275001D01*
X95835D01*
X95168Y275667D01*
X99167Y278999D02*
Y275001D01*
X101166D01*
X101833Y275667D01*
Y278333D01*
X101166Y278999D01*
X99167D01*
X103166Y275001D02*
Y277666D01*
X104499Y278999D01*
X105832Y277666D01*
Y275001D01*
Y277000D01*
X103166D01*
X250334Y271833D02*
X249667Y272499D01*
X248334D01*
X247668Y271833D01*
Y271166D01*
X248334Y270500D01*
X249667D01*
X250334Y269834D01*
Y269167D01*
X249667Y268501D01*
X248334D01*
X247668Y269167D01*
X253666Y268501D02*
Y272499D01*
X251666Y270500D01*
X254332D01*
X88466Y252232D02*
X87799Y252899D01*
X86466D01*
X85800Y252232D01*
Y251566D01*
X86466Y250899D01*
X87799D01*
X88466Y250233D01*
Y249566D01*
X87799Y248900D01*
X86466D01*
X85800Y249566D01*
X89799Y252232D02*
X90465Y252899D01*
X91798D01*
X92465Y252232D01*
Y251566D01*
X91798Y250899D01*
X91132D01*
X91798D01*
X92465Y250233D01*
Y249566D01*
X91798Y248900D01*
X90465D01*
X89799Y249566D01*
X183334Y41433D02*
X182667Y42099D01*
X181334D01*
X180668Y41433D01*
Y40766D01*
X181334Y40100D01*
X182667D01*
X183334Y39434D01*
Y38767D01*
X182667Y38101D01*
X181334D01*
X180668Y38767D01*
X187332Y38101D02*
X184667D01*
X187332Y40766D01*
Y41433D01*
X186666Y42099D01*
X185333D01*
X184667Y41433D01*
X341000Y239833D02*
X340334Y240499D01*
X339001D01*
X338334Y239833D01*
Y239166D01*
X339001Y238500D01*
X340334D01*
X341000Y237834D01*
Y237167D01*
X340334Y236501D01*
X339001D01*
X338334Y237167D01*
X342333Y236501D02*
X343666D01*
X342999D01*
Y240499D01*
X342333Y239833D01*
X354668Y230501D02*
Y234499D01*
X356668D01*
X357334Y233833D01*
Y232500D01*
X356668Y231834D01*
X354668D01*
X356001D02*
X357334Y230501D01*
X361333D02*
X358667D01*
X361333Y233166D01*
Y233833D01*
X360666Y234499D01*
X359334D01*
X358667Y233833D01*
X362666Y234499D02*
X365332D01*
Y233833D01*
X362666Y231167D01*
Y230501D01*
X369499Y167168D02*
X365501D01*
Y169168D01*
X366167Y169834D01*
X367500D01*
X368166Y169168D01*
Y167168D01*
Y168501D02*
X369499Y169834D01*
Y173833D02*
Y171167D01*
X366833Y173833D01*
X366167D01*
X365501Y173167D01*
Y171834D01*
X366167Y171167D01*
X365501Y177832D02*
X366167Y176499D01*
X367500Y175166D01*
X368833D01*
X369499Y175832D01*
Y177165D01*
X368833Y177832D01*
X368166D01*
X367500Y177165D01*
Y175166D01*
X376999Y167168D02*
X373001D01*
Y169168D01*
X373667Y169834D01*
X375000D01*
X375666Y169168D01*
Y167168D01*
Y168501D02*
X376999Y169834D01*
Y173833D02*
Y171167D01*
X374334Y173833D01*
X373667D01*
X373001Y173167D01*
Y171834D01*
X373667Y171167D01*
X373001Y177832D02*
Y175166D01*
X375000D01*
X374334Y176499D01*
Y177165D01*
X375000Y177832D01*
X376333D01*
X376999Y177165D01*
Y175832D01*
X376333Y175166D01*
X266168Y266501D02*
Y270499D01*
X268168D01*
X268834Y269833D01*
Y268500D01*
X268168Y267834D01*
X266168D01*
X267501D02*
X268834Y266501D01*
X272833D02*
X270167D01*
X272833Y269166D01*
Y269833D01*
X272166Y270499D01*
X270834D01*
X270167Y269833D01*
X276165Y266501D02*
Y270499D01*
X274166Y268500D01*
X276832D01*
X173999Y206168D02*
X170001D01*
Y208168D01*
X170667Y208834D01*
X172000D01*
X172666Y208168D01*
Y206168D01*
Y207501D02*
X173999Y208834D01*
Y212833D02*
Y210167D01*
X171334Y212833D01*
X170667D01*
X170001Y212167D01*
Y210834D01*
X170667Y210167D01*
Y214166D02*
X170001Y214832D01*
Y216165D01*
X170667Y216832D01*
X171334D01*
X172000Y216165D01*
Y215499D01*
Y216165D01*
X172666Y216832D01*
X173333D01*
X173999Y216165D01*
Y214832D01*
X173333Y214166D01*
X179999Y206168D02*
X176001D01*
Y208168D01*
X176667Y208834D01*
X178000D01*
X178666Y208168D01*
Y206168D01*
Y207501D02*
X179999Y208834D01*
Y212833D02*
Y210167D01*
X177333Y212833D01*
X176667D01*
X176001Y212167D01*
Y210834D01*
X176667Y210167D01*
X179999Y216832D02*
Y214166D01*
X177333Y216832D01*
X176667D01*
X176001Y216165D01*
Y214832D01*
X176667Y214166D01*
X232835Y292942D02*
Y296940D01*
X234834D01*
X235501Y296274D01*
Y294941D01*
X234834Y294274D01*
X232835D01*
X234168D02*
X235501Y292942D01*
X239499D02*
X236834D01*
X239499Y295607D01*
Y296274D01*
X238833Y296940D01*
X237500D01*
X236834Y296274D01*
X240832Y292942D02*
X242165D01*
X241499D01*
Y296940D01*
X240832Y296274D01*
X232168Y325442D02*
Y329440D01*
X234168D01*
X234834Y328774D01*
Y327441D01*
X234168Y326775D01*
X232168D01*
X233501D02*
X234834Y325442D01*
X238833D02*
X236167D01*
X238833Y328107D01*
Y328774D01*
X238166Y329440D01*
X236834D01*
X236167Y328774D01*
X240166D02*
X240832Y329440D01*
X242165D01*
X242832Y328774D01*
Y326108D01*
X242165Y325442D01*
X240832D01*
X240166Y326108D01*
Y328774D01*
X60002Y215501D02*
Y219499D01*
X62001D01*
X62667Y218833D01*
Y217500D01*
X62001Y216834D01*
X60002D01*
X61335D02*
X62667Y215501D01*
X64000D02*
X65333D01*
X64667D01*
Y219499D01*
X64000Y218833D01*
X67333Y216167D02*
X67999Y215501D01*
X69332D01*
X69998Y216167D01*
Y218833D01*
X69332Y219499D01*
X67999D01*
X67333Y218833D01*
Y218166D01*
X67999Y217500D01*
X69998D01*
X60002Y225501D02*
Y229499D01*
X62001D01*
X62667Y228833D01*
Y227500D01*
X62001Y226834D01*
X60002D01*
X61335D02*
X62667Y225501D01*
X64000D02*
X65333D01*
X64667D01*
Y229499D01*
X64000Y228833D01*
X67333D02*
X67999Y229499D01*
X69332D01*
X69998Y228833D01*
Y228166D01*
X69332Y227500D01*
X69998Y226834D01*
Y226167D01*
X69332Y225501D01*
X67999D01*
X67333Y226167D01*
Y226834D01*
X67999Y227500D01*
X67333Y228166D01*
Y228833D01*
X67999Y227500D02*
X69332D01*
X60002Y235501D02*
Y239499D01*
X62001D01*
X62667Y238833D01*
Y237500D01*
X62001Y236834D01*
X60002D01*
X61335D02*
X62667Y235501D01*
X64000D02*
X65333D01*
X64667D01*
Y239499D01*
X64000Y238833D01*
X67333Y239499D02*
X69998D01*
Y238833D01*
X67333Y236167D01*
Y235501D01*
X229002Y126001D02*
Y129999D01*
X231001D01*
X231667Y129333D01*
Y128000D01*
X231001Y127333D01*
X229002D01*
X230334D02*
X231667Y126001D01*
X233000D02*
X234333D01*
X233667D01*
Y129999D01*
X233000Y129333D01*
X238998Y129999D02*
X237666Y129333D01*
X236333Y128000D01*
Y126667D01*
X236999Y126001D01*
X238332D01*
X238998Y126667D01*
Y127333D01*
X238332Y128000D01*
X236333D01*
X274002Y128001D02*
Y131999D01*
X276001D01*
X276667Y131333D01*
Y130000D01*
X276001Y129333D01*
X274002D01*
X275335D02*
X276667Y128001D01*
X278000D02*
X279333D01*
X278667D01*
Y131999D01*
X278000Y131333D01*
X283998Y131999D02*
X281333D01*
Y130000D01*
X282665Y130666D01*
X283332D01*
X283998Y130000D01*
Y128667D01*
X283332Y128001D01*
X281999D01*
X281333Y128667D01*
X157502Y268501D02*
Y272499D01*
X159501D01*
X160167Y271833D01*
Y270500D01*
X159501Y269834D01*
X157502D01*
X158835D02*
X160167Y268501D01*
X161500D02*
X162833D01*
X162167D01*
Y272499D01*
X161500Y271833D01*
X166832Y268501D02*
Y272499D01*
X164833Y270500D01*
X167498D01*
X135502Y319001D02*
Y322999D01*
X137501D01*
X138167Y322333D01*
Y321000D01*
X137501Y320334D01*
X135502D01*
X136835D02*
X138167Y319001D01*
X139500D02*
X140833D01*
X140167D01*
Y322999D01*
X139500Y322333D01*
X142833D02*
X143499Y322999D01*
X144832D01*
X145498Y322333D01*
Y321666D01*
X144832Y321000D01*
X144166D01*
X144832D01*
X145498Y320334D01*
Y319667D01*
X144832Y319001D01*
X143499D01*
X142833Y319667D01*
X335499Y113301D02*
X331501D01*
Y115301D01*
X332167Y115967D01*
X333500D01*
X334166Y115301D01*
Y113301D01*
Y114634D02*
X335499Y115967D01*
Y117300D02*
Y118633D01*
Y117966D01*
X331501D01*
X332167Y117300D01*
X335499Y123298D02*
Y120632D01*
X332834Y123298D01*
X332167D01*
X331501Y122632D01*
Y121299D01*
X332167Y120632D01*
X322499Y113168D02*
X318501D01*
Y115167D01*
X319167Y115834D01*
X320500D01*
X321166Y115167D01*
Y113168D01*
Y114501D02*
X322499Y115834D01*
Y117167D02*
Y118500D01*
Y117833D01*
X318501D01*
X319167Y117167D01*
X322499Y120499D02*
Y121832D01*
Y121166D01*
X318501D01*
X319167Y120499D01*
X227002Y195001D02*
Y198999D01*
X229001D01*
X229667Y198333D01*
Y197000D01*
X229001Y196334D01*
X227002D01*
X228334D02*
X229667Y195001D01*
X231000D02*
X232333D01*
X231667D01*
Y198999D01*
X231000Y198333D01*
X234333D02*
X234999Y198999D01*
X236332D01*
X236998Y198333D01*
Y195667D01*
X236332Y195001D01*
X234999D01*
X234333Y195667D01*
Y198333D01*
X234168Y217501D02*
Y221499D01*
X236167D01*
X236834Y220833D01*
Y219500D01*
X236167Y218834D01*
X234168D01*
X235501D02*
X236834Y217501D01*
X238166Y218167D02*
X238833Y217501D01*
X240166D01*
X240832Y218167D01*
Y220833D01*
X240166Y221499D01*
X238833D01*
X238166Y220833D01*
Y220166D01*
X238833Y219500D01*
X240832D01*
X234226Y224559D02*
Y228557D01*
X236225D01*
X236892Y227891D01*
Y226558D01*
X236225Y225892D01*
X234226D01*
X235559D02*
X236892Y224559D01*
X238225Y227891D02*
X238891Y228557D01*
X240224D01*
X240890Y227891D01*
Y227224D01*
X240224Y226558D01*
X240890Y225892D01*
Y225225D01*
X240224Y224559D01*
X238891D01*
X238225Y225225D01*
Y225892D01*
X238891Y226558D01*
X238225Y227224D01*
Y227891D01*
X238891Y226558D02*
X240224D01*
X226668Y188001D02*
Y191999D01*
X228668D01*
X229334Y191333D01*
Y190000D01*
X228668Y189333D01*
X226668D01*
X228001D02*
X229334Y188001D01*
X230667Y191999D02*
X233333D01*
Y191333D01*
X230667Y188667D01*
Y188001D01*
X226668Y202001D02*
Y205999D01*
X228668D01*
X229334Y205333D01*
Y204000D01*
X228668Y203333D01*
X226668D01*
X228001D02*
X229334Y202001D01*
X233333Y205999D02*
X232000Y205333D01*
X230667Y204000D01*
Y202667D01*
X231334Y202001D01*
X232666D01*
X233333Y202667D01*
Y203333D01*
X232666Y204000D01*
X230667D01*
X153333Y205167D02*
Y207833D01*
X152667Y208499D01*
X151334D01*
X150668Y207833D01*
Y205167D01*
X151334Y204501D01*
X152667D01*
X152001Y205834D02*
X153333Y204501D01*
X152667D02*
X153333Y205167D01*
X156666Y204501D02*
Y208499D01*
X154666Y206500D01*
X157332D01*
X190833Y210167D02*
Y212833D01*
X190167Y213499D01*
X188834D01*
X188168Y212833D01*
Y210167D01*
X188834Y209501D01*
X190167D01*
X189501Y210834D02*
X190833Y209501D01*
X190167D02*
X190833Y210167D01*
X192166Y212833D02*
X192833Y213499D01*
X194166D01*
X194832Y212833D01*
Y212166D01*
X194166Y211500D01*
X193499D01*
X194166D01*
X194832Y210834D01*
Y210167D01*
X194166Y209501D01*
X192833D01*
X192166Y210167D01*
X247334Y126667D02*
Y129333D01*
X246667Y129999D01*
X245334D01*
X244668Y129333D01*
Y126667D01*
X245334Y126001D01*
X246667D01*
X246001Y127333D02*
X247334Y126001D01*
X246667D02*
X247334Y126667D01*
X251332Y126001D02*
X248667D01*
X251332Y128666D01*
Y129333D01*
X250666Y129999D01*
X249333D01*
X248667Y129333D01*
X290500Y232667D02*
Y235333D01*
X289834Y235999D01*
X288501D01*
X287834Y235333D01*
Y232667D01*
X288501Y232001D01*
X289834D01*
X289167Y233334D02*
X290500Y232001D01*
X289834D02*
X290500Y232667D01*
X291833Y232001D02*
X293166D01*
X292499D01*
Y235999D01*
X291833Y235333D01*
X147834Y340799D02*
Y336801D01*
X150500D01*
X151833D02*
X153166D01*
X152499D01*
Y340799D01*
X151833Y340133D01*
X6866Y276399D02*
X5533D01*
X6199D01*
Y273066D01*
X5533Y272400D01*
X4866D01*
X4200Y273066D01*
X8199Y272400D02*
X9532D01*
X8865D01*
Y276399D01*
X8199Y275732D01*
X14197Y272400D02*
X11531D01*
X14197Y275066D01*
Y275732D01*
X13530Y276399D01*
X12197D01*
X11531Y275732D01*
X7966Y340499D02*
X6633D01*
X7299D01*
Y337166D01*
X6633Y336500D01*
X5966D01*
X5300Y337166D01*
X9299Y336500D02*
X10632D01*
X9965D01*
Y340499D01*
X9299Y339832D01*
X12631Y336500D02*
X13964D01*
X13297D01*
Y340499D01*
X12631Y339832D01*
X7566Y313799D02*
X6233D01*
X6899D01*
Y310466D01*
X6233Y309800D01*
X5566D01*
X4900Y310466D01*
X8899Y309800D02*
X10232D01*
X9565D01*
Y313799D01*
X8899Y313132D01*
X12231D02*
X12897Y313799D01*
X14230D01*
X14897Y313132D01*
Y310466D01*
X14230Y309800D01*
X12897D01*
X12231Y310466D01*
Y313132D01*
X7732Y219999D02*
X6399D01*
X7066D01*
Y216667D01*
X6399Y216001D01*
X5733D01*
X5066Y216667D01*
X9065D02*
X9732Y216001D01*
X11065D01*
X11731Y216667D01*
Y219333D01*
X11065Y219999D01*
X9732D01*
X9065Y219333D01*
Y218666D01*
X9732Y218000D01*
X11731D01*
X389334Y317399D02*
X388001D01*
X388667D01*
Y314067D01*
X388001Y313401D01*
X387334D01*
X386668Y314067D01*
X390667Y317399D02*
X393332D01*
Y316733D01*
X390667Y314067D01*
Y313401D01*
X40334Y230999D02*
X39001D01*
X39667D01*
Y227667D01*
X39001Y227001D01*
X38334D01*
X37668Y227667D01*
X44332Y230999D02*
X42999Y230333D01*
X41666Y229000D01*
Y227667D01*
X42333Y227001D01*
X43666D01*
X44332Y227667D01*
Y228334D01*
X43666Y229000D01*
X41666D01*
X147168Y59999D02*
Y56001D01*
X149168D01*
X149834Y56667D01*
Y57334D01*
X149168Y58000D01*
X147168D01*
X149168D01*
X149834Y58666D01*
Y59333D01*
X149168Y59999D01*
X147168D01*
X151167Y56001D02*
Y58666D01*
X152500Y59999D01*
X153833Y58666D01*
Y56001D01*
Y58000D01*
X151167D01*
X155166Y59999D02*
X157832D01*
X156499D01*
Y56001D01*
X347466Y167999D02*
X346133D01*
X346799D01*
Y164666D01*
X346133Y164000D01*
X345466D01*
X344800Y164666D01*
X350798Y164000D02*
Y167999D01*
X348799Y165999D01*
X351465D01*
X116000Y176499D02*
X114667D01*
X115333D01*
Y173167D01*
X114667Y172501D01*
X114001D01*
X113334Y173167D01*
X117333Y172501D02*
X118666D01*
X117999D01*
Y176499D01*
X117333Y175833D01*
X160500Y164999D02*
X157834D01*
Y163000D01*
X159167D01*
X157834D01*
Y161001D01*
X161833D02*
X163166D01*
X162499D01*
Y164999D01*
X161833Y164333D01*
X146668Y219499D02*
Y215501D01*
X148667D01*
X149334Y216167D01*
Y218833D01*
X148667Y219499D01*
X146668D01*
X150666Y216167D02*
X151333Y215501D01*
X152666D01*
X153332Y216167D01*
Y218833D01*
X152666Y219499D01*
X151333D01*
X150666Y218833D01*
Y218166D01*
X151333Y217500D01*
X153332D01*
X146668Y229499D02*
Y225501D01*
X148667D01*
X149334Y226167D01*
Y228833D01*
X148667Y229499D01*
X146668D01*
X150666Y228833D02*
X151333Y229499D01*
X152666D01*
X153332Y228833D01*
Y228166D01*
X152666Y227500D01*
X153332Y226834D01*
Y226167D01*
X152666Y225501D01*
X151333D01*
X150666Y226167D01*
Y226834D01*
X151333Y227500D01*
X150666Y228166D01*
Y228833D01*
X151333Y227500D02*
X152666D01*
X146668Y239499D02*
Y235501D01*
X148667D01*
X149334Y236167D01*
Y238833D01*
X148667Y239499D01*
X146668D01*
X150666D02*
X153332D01*
Y238833D01*
X150666Y236167D01*
Y235501D01*
X282668Y161499D02*
Y157501D01*
X284667D01*
X285334Y158167D01*
Y160833D01*
X284667Y161499D01*
X282668D01*
X289332D02*
X287999Y160833D01*
X286666Y159500D01*
Y158167D01*
X287333Y157501D01*
X288666D01*
X289332Y158167D01*
Y158834D01*
X288666Y159500D01*
X286666D01*
X331501Y99168D02*
X335499D01*
Y101167D01*
X334833Y101834D01*
X332167D01*
X331501Y101167D01*
Y99168D01*
Y105832D02*
Y103166D01*
X333500D01*
X332834Y104499D01*
Y105166D01*
X333500Y105832D01*
X334833D01*
X335499Y105166D01*
Y103833D01*
X334833Y103166D01*
X318501Y99168D02*
X322499D01*
Y101167D01*
X321833Y101834D01*
X319167D01*
X318501Y101167D01*
Y99168D01*
X322499Y105166D02*
X318501D01*
X320500Y103166D01*
Y105832D01*
X197668Y213999D02*
Y210001D01*
X199667D01*
X200333Y210667D01*
Y213333D01*
X199667Y213999D01*
X197668D01*
X201666Y213333D02*
X202333Y213999D01*
X203666D01*
X204332Y213333D01*
Y212666D01*
X203666Y212000D01*
X202999D01*
X203666D01*
X204332Y211334D01*
Y210667D01*
X203666Y210001D01*
X202333D01*
X201666Y210667D01*
X197668Y221999D02*
Y218001D01*
X199667D01*
X200333Y218667D01*
Y221333D01*
X199667Y221999D01*
X197668D01*
X204332Y218001D02*
X201666D01*
X204332Y220666D01*
Y221333D01*
X203666Y221999D01*
X202333D01*
X201666Y221333D01*
X208334Y161499D02*
Y157501D01*
X210334D01*
X211000Y158167D01*
Y160833D01*
X210334Y161499D01*
X208334D01*
X212333Y157501D02*
X213666D01*
X212999D01*
Y161499D01*
X212333Y160833D01*
X286667Y282334D02*
X286001Y281668D01*
Y280335D01*
X286667Y279668D01*
X289333D01*
X289999Y280335D01*
Y281668D01*
X289333Y282334D01*
X286667Y283667D02*
X286001Y284334D01*
Y285666D01*
X286667Y286333D01*
X287333D01*
X288000Y285666D01*
Y285000D01*
Y285666D01*
X288666Y286333D01*
X289333D01*
X289999Y285666D01*
Y284334D01*
X289333Y283667D01*
X286001Y290332D02*
Y287666D01*
X288000D01*
X287333Y288999D01*
Y289665D01*
X288000Y290332D01*
X289333D01*
X289999Y289665D01*
Y288332D01*
X289333Y287666D01*
X278667Y282334D02*
X278001Y281668D01*
Y280335D01*
X278667Y279668D01*
X281333D01*
X281999Y280335D01*
Y281668D01*
X281333Y282334D01*
X278667Y283667D02*
X278001Y284334D01*
Y285666D01*
X278667Y286333D01*
X279333D01*
X280000Y285666D01*
Y285000D01*
Y285666D01*
X280666Y286333D01*
X281333D01*
X281999Y285666D01*
Y284334D01*
X281333Y283667D01*
X281999Y289665D02*
X278001D01*
X280000Y287666D01*
Y290332D01*
X258834Y297833D02*
X258168Y298499D01*
X256835D01*
X256168Y297833D01*
Y295167D01*
X256835Y294501D01*
X258168D01*
X258834Y295167D01*
X260167Y297833D02*
X260834Y298499D01*
X262166D01*
X262833Y297833D01*
Y297166D01*
X262166Y296500D01*
X261500D01*
X262166D01*
X262833Y295834D01*
Y295167D01*
X262166Y294501D01*
X260834D01*
X260167Y295167D01*
X264166Y297833D02*
X264832Y298499D01*
X266165D01*
X266832Y297833D01*
Y297166D01*
X266165Y296500D01*
X265499D01*
X266165D01*
X266832Y295834D01*
Y295167D01*
X266165Y294501D01*
X264832D01*
X264166Y295167D01*
X281834Y250833D02*
X281168Y251499D01*
X279835D01*
X279168Y250833D01*
Y248167D01*
X279835Y247501D01*
X281168D01*
X281834Y248167D01*
X283167Y250833D02*
X283834Y251499D01*
X285166D01*
X285833Y250833D01*
Y250166D01*
X285166Y249500D01*
X284500D01*
X285166D01*
X285833Y248834D01*
Y248167D01*
X285166Y247501D01*
X283834D01*
X283167Y248167D01*
X289832Y247501D02*
X287166D01*
X289832Y250166D01*
Y250833D01*
X289165Y251499D01*
X287832D01*
X287166Y250833D01*
X109501Y44833D02*
X108834Y45499D01*
X107501D01*
X106835Y44833D01*
Y42167D01*
X107501Y41501D01*
X108834D01*
X109501Y42167D01*
X110834Y44833D02*
X111500Y45499D01*
X112833D01*
X113499Y44833D01*
Y44166D01*
X112833Y43500D01*
X112167D01*
X112833D01*
X113499Y42834D01*
Y42167D01*
X112833Y41501D01*
X111500D01*
X110834Y42167D01*
X114832Y41501D02*
X116165D01*
X115499D01*
Y45499D01*
X114832Y44833D01*
X12334Y46333D02*
X11668Y46999D01*
X10335D01*
X9668Y46333D01*
Y43667D01*
X10335Y43001D01*
X11668D01*
X12334Y43667D01*
X13667Y46333D02*
X14333Y46999D01*
X15666D01*
X16333Y46333D01*
Y45666D01*
X15666Y45000D01*
X15000D01*
X15666D01*
X16333Y44334D01*
Y43667D01*
X15666Y43001D01*
X14333D01*
X13667Y43667D01*
X17666Y46333D02*
X18332Y46999D01*
X19665D01*
X20332Y46333D01*
Y43667D01*
X19665Y43001D01*
X18332D01*
X17666Y43667D01*
Y46333D01*
X95334Y76833D02*
X94668Y77499D01*
X93335D01*
X92668Y76833D01*
Y74167D01*
X93335Y73501D01*
X94668D01*
X95334Y74167D01*
X99333Y73501D02*
X96667D01*
X99333Y76166D01*
Y76833D01*
X98666Y77499D01*
X97334D01*
X96667Y76833D01*
X100666Y74167D02*
X101332Y73501D01*
X102665D01*
X103332Y74167D01*
Y76833D01*
X102665Y77499D01*
X101332D01*
X100666Y76833D01*
Y76166D01*
X101332Y75500D01*
X103332D01*
X12334Y91333D02*
X11668Y91999D01*
X10335D01*
X9668Y91333D01*
Y88667D01*
X10335Y88001D01*
X11668D01*
X12334Y88667D01*
X16333Y88001D02*
X13667D01*
X16333Y90666D01*
Y91333D01*
X15666Y91999D01*
X14333D01*
X13667Y91333D01*
X17666D02*
X18332Y91999D01*
X19665D01*
X20332Y91333D01*
Y90666D01*
X19665Y90000D01*
X20332Y89334D01*
Y88667D01*
X19665Y88001D01*
X18332D01*
X17666Y88667D01*
Y89334D01*
X18332Y90000D01*
X17666Y90666D01*
Y91333D01*
X18332Y90000D02*
X19665D01*
X174834Y271833D02*
X174168Y272499D01*
X172835D01*
X172168Y271833D01*
Y269167D01*
X172835Y268501D01*
X174168D01*
X174834Y269167D01*
X178833Y268501D02*
X176167D01*
X178833Y271166D01*
Y271833D01*
X178166Y272499D01*
X176833D01*
X176167Y271833D01*
X180166Y272499D02*
X182832D01*
Y271833D01*
X180166Y269167D01*
Y268501D01*
X185834Y279833D02*
X185168Y280499D01*
X183835D01*
X183168Y279833D01*
Y277167D01*
X183835Y276501D01*
X185168D01*
X185834Y277167D01*
X189833Y276501D02*
X187167D01*
X189833Y279166D01*
Y279833D01*
X189166Y280499D01*
X187833D01*
X187167Y279833D01*
X193832Y280499D02*
X192499Y279833D01*
X191166Y278500D01*
Y277167D01*
X191832Y276501D01*
X193165D01*
X193832Y277167D01*
Y277834D01*
X193165Y278500D01*
X191166D01*
X239643Y260334D02*
X238976Y259668D01*
Y258335D01*
X239643Y257668D01*
X242308D01*
X242975Y258335D01*
Y259668D01*
X242308Y260334D01*
X242975Y264333D02*
Y261667D01*
X240309Y264333D01*
X239643D01*
X238976Y263667D01*
Y262334D01*
X239643Y261667D01*
X238976Y268332D02*
Y265666D01*
X240976D01*
X240309Y266999D01*
Y267665D01*
X240976Y268332D01*
X242308D01*
X242975Y267665D01*
Y266332D01*
X242308Y265666D01*
X232618Y260334D02*
X231952Y259668D01*
Y258335D01*
X232618Y257668D01*
X235284D01*
X235951Y258335D01*
Y259668D01*
X235284Y260334D01*
X235951Y264333D02*
Y261667D01*
X233285Y264333D01*
X232618D01*
X231952Y263667D01*
Y262334D01*
X232618Y261667D01*
X235951Y267665D02*
X231952D01*
X233951Y265666D01*
Y268332D01*
X224618Y260334D02*
X223952Y259668D01*
Y258335D01*
X224618Y257668D01*
X227284D01*
X227951Y258335D01*
Y259668D01*
X227284Y260334D01*
X227951Y264333D02*
Y261667D01*
X225285Y264333D01*
X224618D01*
X223952Y263667D01*
Y262334D01*
X224618Y261667D01*
Y265666D02*
X223952Y266332D01*
Y267665D01*
X224618Y268332D01*
X225285D01*
X225951Y267665D01*
Y266999D01*
Y267665D01*
X226618Y268332D01*
X227284D01*
X227951Y267665D01*
Y266332D01*
X227284Y265666D01*
X243334Y346833D02*
X242668Y347499D01*
X241335D01*
X240668Y346833D01*
Y344167D01*
X241335Y343501D01*
X242668D01*
X243334Y344167D01*
X247333Y343501D02*
X244667D01*
X247333Y346166D01*
Y346833D01*
X246666Y347499D01*
X245334D01*
X244667Y346833D01*
X251332Y343501D02*
X248666D01*
X251332Y346166D01*
Y346833D01*
X250665Y347499D01*
X249332D01*
X248666Y346833D01*
X216618Y262001D02*
X215952Y261334D01*
Y260001D01*
X216618Y259335D01*
X219284D01*
X219951Y260001D01*
Y261334D01*
X219284Y262001D01*
X219951Y265999D02*
Y263334D01*
X217285Y265999D01*
X216618D01*
X215952Y265333D01*
Y264000D01*
X216618Y263334D01*
X219951Y267332D02*
Y268665D01*
Y267999D01*
X215952D01*
X216618Y267332D01*
X208618Y260334D02*
X207952Y259668D01*
Y258335D01*
X208618Y257668D01*
X211284D01*
X211951Y258335D01*
Y259668D01*
X211284Y260334D01*
X211951Y264333D02*
Y261667D01*
X209285Y264333D01*
X208618D01*
X207952Y263667D01*
Y262334D01*
X208618Y261667D01*
Y265666D02*
X207952Y266332D01*
Y267665D01*
X208618Y268332D01*
X211284D01*
X211951Y267665D01*
Y266332D01*
X211284Y265666D01*
X208618D01*
X200618Y260667D02*
X199952Y260001D01*
Y258668D01*
X200618Y258002D01*
X203284D01*
X203951Y258668D01*
Y260001D01*
X203284Y260667D01*
X203951Y262000D02*
Y263333D01*
Y262667D01*
X199952D01*
X200618Y262000D01*
X203284Y265333D02*
X203951Y265999D01*
Y267332D01*
X203284Y267998D01*
X200618D01*
X199952Y267332D01*
Y265999D01*
X200618Y265333D01*
X201285D01*
X201951Y265999D01*
Y267998D01*
X186667Y324833D02*
X186001Y325499D01*
X184668D01*
X184002Y324833D01*
Y322167D01*
X184668Y321501D01*
X186001D01*
X186667Y322167D01*
X188000Y321501D02*
X189333D01*
X188667D01*
Y325499D01*
X188000Y324833D01*
X191333D02*
X191999Y325499D01*
X193332D01*
X193998Y324833D01*
Y324166D01*
X193332Y323500D01*
X193998Y322834D01*
Y322167D01*
X193332Y321501D01*
X191999D01*
X191333Y322167D01*
Y322834D01*
X191999Y323500D01*
X191333Y324166D01*
Y324833D01*
X191999Y323500D02*
X193332D01*
X138843Y296233D02*
X138177Y296899D01*
X136844D01*
X136177Y296233D01*
Y293567D01*
X136844Y292901D01*
X138177D01*
X138843Y293567D01*
X140176Y292901D02*
X141509D01*
X140842D01*
Y296899D01*
X140176Y296233D01*
X143508Y296899D02*
X146174D01*
Y296233D01*
X143508Y293567D01*
Y292901D01*
X108667Y345333D02*
X108001Y345999D01*
X106668D01*
X106002Y345333D01*
Y342667D01*
X106668Y342001D01*
X108001D01*
X108667Y342667D01*
X110000Y342001D02*
X111333D01*
X110667D01*
Y345999D01*
X110000Y345333D01*
X115998Y345999D02*
X114665Y345333D01*
X113333Y344000D01*
Y342667D01*
X113999Y342001D01*
X115332D01*
X115998Y342667D01*
Y343334D01*
X115332Y344000D01*
X113333D01*
X75167Y277833D02*
X74501Y278499D01*
X73168D01*
X72502Y277833D01*
Y275167D01*
X73168Y274501D01*
X74501D01*
X75167Y275167D01*
X76500Y274501D02*
X77833D01*
X77167D01*
Y278499D01*
X76500Y277833D01*
X82498Y278499D02*
X79833D01*
Y276500D01*
X81165Y277166D01*
X81832D01*
X82498Y276500D01*
Y275167D01*
X81832Y274501D01*
X80499D01*
X79833Y275167D01*
X155167Y324833D02*
X154501Y325499D01*
X153168D01*
X152502Y324833D01*
Y322167D01*
X153168Y321501D01*
X154501D01*
X155167Y322167D01*
X156500Y321501D02*
X157833D01*
X157167D01*
Y325499D01*
X156500Y324833D01*
X161832Y321501D02*
Y325499D01*
X159833Y323500D01*
X162498D01*
X316667Y151833D02*
X316001Y152499D01*
X314668D01*
X314002Y151833D01*
Y149167D01*
X314668Y148501D01*
X316001D01*
X316667Y149167D01*
X318000Y148501D02*
X319333D01*
X318667D01*
Y152499D01*
X318000Y151833D01*
X321333D02*
X321999Y152499D01*
X323332D01*
X323998Y151833D01*
Y151166D01*
X323332Y150500D01*
X322666D01*
X323332D01*
X323998Y149834D01*
Y149167D01*
X323332Y148501D01*
X321999D01*
X321333Y149167D01*
X297167Y152333D02*
X296501Y152999D01*
X295168D01*
X294502Y152333D01*
Y149667D01*
X295168Y149001D01*
X296501D01*
X297167Y149667D01*
X298500Y149001D02*
X299833D01*
X299167D01*
Y152999D01*
X298500Y152333D01*
X304498Y149001D02*
X301833D01*
X304498Y151666D01*
Y152333D01*
X303832Y152999D01*
X302499D01*
X301833Y152333D01*
X306834Y196333D02*
X306167Y196999D01*
X304835D01*
X304168Y196333D01*
Y193667D01*
X304835Y193001D01*
X306167D01*
X306834Y193667D01*
X308167Y193001D02*
X309500D01*
X308833D01*
Y196999D01*
X308167Y196333D01*
X311499Y193001D02*
X312832D01*
X312165D01*
Y196999D01*
X311499Y196333D01*
X189667Y175333D02*
X189001Y175999D01*
X187668D01*
X187002Y175333D01*
Y172667D01*
X187668Y172001D01*
X189001D01*
X189667Y172667D01*
X191000Y172001D02*
X192333D01*
X191667D01*
Y175999D01*
X191000Y175333D01*
X194333D02*
X194999Y175999D01*
X196332D01*
X196998Y175333D01*
Y172667D01*
X196332Y172001D01*
X194999D01*
X194333Y172667D01*
Y175333D01*
X196834Y165333D02*
X196167Y165999D01*
X194834D01*
X194168Y165333D01*
Y162667D01*
X194834Y162001D01*
X196167D01*
X196834Y162667D01*
X198167D02*
X198833Y162001D01*
X200166D01*
X200832Y162667D01*
Y165333D01*
X200166Y165999D01*
X198833D01*
X198167Y165333D01*
Y164666D01*
X198833Y164000D01*
X200832D01*
X161334Y181333D02*
X160667Y181999D01*
X159334D01*
X158668Y181333D01*
Y178667D01*
X159334Y178001D01*
X160667D01*
X161334Y178667D01*
X162666Y181333D02*
X163333Y181999D01*
X164666D01*
X165332Y181333D01*
Y180666D01*
X164666Y180000D01*
X165332Y179333D01*
Y178667D01*
X164666Y178001D01*
X163333D01*
X162666Y178667D01*
Y179333D01*
X163333Y180000D01*
X162666Y180666D01*
Y181333D01*
X163333Y180000D02*
X164666D01*
X229334Y184833D02*
X228668Y185499D01*
X227335D01*
X226668Y184833D01*
Y182167D01*
X227335Y181501D01*
X228668D01*
X229334Y182167D01*
X230667Y185499D02*
X233333D01*
Y184833D01*
X230667Y182167D01*
Y181501D01*
X201132Y231333D02*
X200465Y231999D01*
X199133D01*
X198466Y231333D01*
Y228667D01*
X199133Y228001D01*
X200465D01*
X201132Y228667D01*
X205131Y231999D02*
X203798Y231333D01*
X202465Y230000D01*
Y228667D01*
X203131Y228001D01*
X204464D01*
X205131Y228667D01*
Y229334D01*
X204464Y230000D01*
X202465D01*
X185667Y218834D02*
X185001Y218167D01*
Y216834D01*
X185667Y216168D01*
X188333D01*
X188999Y216834D01*
Y218167D01*
X188333Y218834D01*
X185001Y222832D02*
Y220166D01*
X187000D01*
X186334Y221499D01*
Y222166D01*
X187000Y222832D01*
X188333D01*
X188999Y222166D01*
Y220833D01*
X188333Y220166D01*
X171132Y231333D02*
X170466Y231999D01*
X169133D01*
X168466Y231333D01*
Y228667D01*
X169133Y228001D01*
X170466D01*
X171132Y228667D01*
X174464Y228001D02*
Y231999D01*
X172465Y230000D01*
X175131D01*
X167132Y249333D02*
X166465Y249999D01*
X165133D01*
X164466Y249333D01*
Y246667D01*
X165133Y246001D01*
X166465D01*
X167132Y246667D01*
X168465Y249333D02*
X169131Y249999D01*
X170464D01*
X171131Y249333D01*
Y248666D01*
X170464Y248000D01*
X169798D01*
X170464D01*
X171131Y247334D01*
Y246667D01*
X170464Y246001D01*
X169131D01*
X168465Y246667D01*
X121834Y91333D02*
X121167Y91999D01*
X119834D01*
X119168Y91333D01*
Y88667D01*
X119834Y88001D01*
X121167D01*
X121834Y88667D01*
X125832Y88001D02*
X123167D01*
X125832Y90666D01*
Y91333D01*
X125166Y91999D01*
X123833D01*
X123167Y91333D01*
X146500Y120333D02*
X145834Y120999D01*
X144501D01*
X143834Y120333D01*
Y117667D01*
X144501Y117001D01*
X145834D01*
X146500Y117667D01*
X147833Y117001D02*
X149166D01*
X148499D01*
Y120999D01*
X147833Y120333D01*
D18*
X342902Y198630D02*
Y232567D01*
X318492D02*
X342902D01*
X318492Y198630D02*
Y232567D01*
Y198630D02*
X342902D01*
X314063Y146164D02*
X321937D01*
X314063Y136636D02*
X321937D01*
X214583Y146280D02*
X214976D01*
X214583Y151791D02*
X214976D01*
X203008Y146280D02*
X203402D01*
X203008Y151791D02*
X203402D01*
X214976Y146280D02*
Y151791D01*
X203008Y146280D02*
Y151791D01*
X131028Y110882D02*
X132602D01*
X120398D02*
X121972D01*
X131028Y121118D02*
X132602D01*
X120398D02*
X121972D01*
X119002Y211330D02*
Y245267D01*
X94592D02*
X119002D01*
X94592Y211330D02*
Y245267D01*
Y211330D02*
X119002D01*
D19*
X250000Y232000D02*
X251333D01*
X250666D01*
Y235999D01*
X250000Y235332D01*
M02*
