G04*
G04 #@! TF.GenerationSoftware,Altium Limited,Altium Designer,22.7.1 (60)*
G04*
G04 Layer_Color=255*
%FSLAX25Y25*%
%MOIN*%
G70*
G04*
G04 #@! TF.SameCoordinates,3A20C243-D036-4456-A015-6CD0820CEA74*
G04*
G04*
G04 #@! TF.FilePolarity,Positive*
G04*
G01*
G75*
%ADD116C,0.06693*%
%ADD117R,0.06693X0.06693*%
%ADD137C,0.01968*%
%ADD138C,0.39370*%
%ADD139C,0.55118*%
%ADD140C,0.27559*%
%ADD141O,0.08268X0.04134*%
%ADD142C,0.02559*%
%ADD143O,0.07874X0.05906*%
%ADD144R,0.07874X0.05906*%
%ADD145C,0.05118*%
%ADD146C,0.05906*%
%ADD147R,0.05906X0.05906*%
%ADD148O,0.11811X0.07874*%
%ADD149R,0.09843X0.05906*%
%ADD150O,0.09843X0.05906*%
%ADD151R,0.06299X0.08858*%
%ADD152O,0.06299X0.08858*%
%ADD153C,0.07874*%
%ADD154R,0.07874X0.07874*%
D116*
X272000Y149400D02*
D03*
D117*
X262000D02*
D03*
D137*
X318000Y143565D02*
D03*
Y139235D02*
D03*
D138*
X266886Y322707D02*
D03*
D139*
X266885Y190943D02*
D03*
D140*
X68000Y334400D02*
D03*
X371252Y110201D02*
D03*
X164000Y34000D02*
D03*
D141*
X207598Y95492D02*
D03*
Y129508D02*
D03*
X191142Y95492D02*
D03*
Y129508D02*
D03*
D142*
X193110Y123878D02*
D03*
Y101122D02*
D03*
D143*
X107000Y158874D02*
D03*
Y166748D02*
D03*
Y151000D02*
D03*
D144*
Y174622D02*
D03*
D145*
X195905Y29803D02*
D03*
Y5197D02*
D03*
D146*
X278000Y234000D02*
D03*
X268000D02*
D03*
D147*
X258000D02*
D03*
D148*
X18000Y251400D02*
D03*
Y231400D02*
D03*
Y261400D02*
D03*
Y241400D02*
D03*
D149*
X13000Y289463D02*
D03*
X15000Y134626D02*
D03*
D150*
X13000Y297337D02*
D03*
X15000Y205492D02*
D03*
Y197618D02*
D03*
Y181870D02*
D03*
Y173996D02*
D03*
Y142500D02*
D03*
Y150374D02*
D03*
Y158248D02*
D03*
Y166122D02*
D03*
Y189744D02*
D03*
D151*
X23059Y326424D02*
D03*
D152*
X13059D02*
D03*
D153*
X42500Y207500D02*
D03*
Y197500D02*
D03*
Y187500D02*
D03*
Y177500D02*
D03*
Y167500D02*
D03*
Y157500D02*
D03*
Y147500D02*
D03*
Y137500D02*
D03*
Y127500D02*
D03*
Y117500D02*
D03*
Y107500D02*
D03*
X377000Y304400D02*
D03*
Y294400D02*
D03*
Y284400D02*
D03*
Y274400D02*
D03*
Y264400D02*
D03*
Y254400D02*
D03*
Y244400D02*
D03*
Y234400D02*
D03*
Y224400D02*
D03*
Y214400D02*
D03*
Y204400D02*
D03*
D154*
X42500Y217500D02*
D03*
X377000Y314400D02*
D03*
M02*
