G04*
G04 #@! TF.GenerationSoftware,Altium Limited,Altium Designer,22.7.1 (60)*
G04*
G04 Layer_Color=65280*
%FSLAX25Y25*%
%MOIN*%
G70*
G04*
G04 #@! TF.SameCoordinates,3A20C243-D036-4456-A015-6CD0820CEA74*
G04*
G04*
G04 #@! TF.FilePolarity,Negative*
G04*
G01*
G75*
%ADD24R,0.07900X0.03500*%
%ADD27R,0.13800X0.03900*%
%ADD67R,0.04343X0.07099*%
%ADD68R,0.04147X0.04540*%
%ADD69R,0.10642X0.07493*%
%ADD70R,0.06000X0.06000*%
%ADD71R,0.04300X0.08700*%
%ADD72R,0.07099X0.10642*%
%ADD73R,0.14200X0.06700*%
%ADD74R,0.14580X0.08280*%
%ADD75R,0.03950X0.04343*%
%ADD76R,0.17729X0.07887*%
%ADD77R,0.04540X0.04147*%
%ADD78R,0.01863X0.02847*%
%ADD79R,0.02217X0.02847*%
%ADD80R,0.06706X0.05131*%
%ADD81R,0.05328X0.03162*%
%ADD82R,0.05328X0.01981*%
%ADD83R,0.04343X0.03950*%
%ADD84R,0.03713X0.01902*%
G04:AMPARAMS|DCode=85|XSize=37.13mil|YSize=19.02mil|CornerRadius=6.48mil|HoleSize=0mil|Usage=FLASHONLY|Rotation=0.000|XOffset=0mil|YOffset=0mil|HoleType=Round|Shape=RoundedRectangle|*
%AMROUNDEDRECTD85*
21,1,0.03713,0.00606,0,0,0.0*
21,1,0.02417,0.01902,0,0,0.0*
1,1,0.01296,0.01209,-0.00303*
1,1,0.01296,-0.01209,-0.00303*
1,1,0.01296,-0.01209,0.00303*
1,1,0.01296,0.01209,0.00303*
%
%ADD85ROUNDEDRECTD85*%
%ADD86R,0.05721X0.07296*%
%ADD87R,0.08280X0.14580*%
%ADD88R,0.01981X0.04147*%
G04:AMPARAMS|DCode=89|XSize=41.47mil|YSize=19.81mil|CornerRadius=6.95mil|HoleSize=0mil|Usage=FLASHONLY|Rotation=90.000|XOffset=0mil|YOffset=0mil|HoleType=Round|Shape=RoundedRectangle|*
%AMROUNDEDRECTD89*
21,1,0.04147,0.00591,0,0,90.0*
21,1,0.02756,0.01981,0,0,90.0*
1,1,0.01391,0.00295,0.01378*
1,1,0.01391,0.00295,-0.01378*
1,1,0.01391,-0.00295,-0.01378*
1,1,0.01391,-0.00295,0.01378*
%
%ADD89ROUNDEDRECTD89*%
G04:AMPARAMS|DCode=90|XSize=41.47mil|YSize=19.81mil|CornerRadius=6.95mil|HoleSize=0mil|Usage=FLASHONLY|Rotation=180.000|XOffset=0mil|YOffset=0mil|HoleType=Round|Shape=RoundedRectangle|*
%AMROUNDEDRECTD90*
21,1,0.04147,0.00591,0,0,180.0*
21,1,0.02756,0.01981,0,0,180.0*
1,1,0.01391,-0.01378,0.00295*
1,1,0.01391,0.01378,0.00295*
1,1,0.01391,0.01378,-0.00295*
1,1,0.01391,-0.01378,-0.00295*
%
%ADD90ROUNDEDRECTD90*%
G04:AMPARAMS|DCode=91|XSize=108.39mil|YSize=108.39mil|CornerRadius=29.1mil|HoleSize=0mil|Usage=FLASHONLY|Rotation=180.000|XOffset=0mil|YOffset=0mil|HoleType=Round|Shape=RoundedRectangle|*
%AMROUNDEDRECTD91*
21,1,0.10839,0.05020,0,0,180.0*
21,1,0.05020,0.10839,0,0,180.0*
1,1,0.05820,-0.02510,0.02510*
1,1,0.05820,0.02510,0.02510*
1,1,0.05820,0.02510,-0.02510*
1,1,0.05820,-0.02510,-0.02510*
%
%ADD91ROUNDEDRECTD91*%
%ADD92R,0.03950X0.03950*%
G04:AMPARAMS|DCode=93|XSize=31.23mil|YSize=59.18mil|CornerRadius=5.74mil|HoleSize=0mil|Usage=FLASHONLY|Rotation=0.000|XOffset=0mil|YOffset=0mil|HoleType=Round|Shape=RoundedRectangle|*
%AMROUNDEDRECTD93*
21,1,0.03123,0.04770,0,0,0.0*
21,1,0.01974,0.05918,0,0,0.0*
1,1,0.01148,0.00987,-0.02385*
1,1,0.01148,-0.00987,-0.02385*
1,1,0.01148,-0.00987,0.02385*
1,1,0.01148,0.00987,0.02385*
%
%ADD93ROUNDEDRECTD93*%
G04:AMPARAMS|DCode=94|XSize=46.98mil|YSize=59.18mil|CornerRadius=6.92mil|HoleSize=0mil|Usage=FLASHONLY|Rotation=0.000|XOffset=0mil|YOffset=0mil|HoleType=Round|Shape=RoundedRectangle|*
%AMROUNDEDRECTD94*
21,1,0.04698,0.04534,0,0,0.0*
21,1,0.03313,0.05918,0,0,0.0*
1,1,0.01385,0.01657,-0.02267*
1,1,0.01385,-0.01657,-0.02267*
1,1,0.01385,-0.01657,0.02267*
1,1,0.01385,0.01657,0.02267*
%
%ADD94ROUNDEDRECTD94*%
%ADD95R,0.03556X0.02178*%
%ADD96R,0.02178X0.03556*%
%ADD97R,0.04331X0.04724*%
%ADD98R,0.04343X0.03950*%
%ADD99R,0.08280X0.04737*%
%ADD100R,0.08674X0.07887*%
%ADD101R,0.07887X0.17729*%
G04:AMPARAMS|DCode=102|XSize=63.12mil|YSize=21.78mil|CornerRadius=7.45mil|HoleSize=0mil|Usage=FLASHONLY|Rotation=90.000|XOffset=0mil|YOffset=0mil|HoleType=Round|Shape=RoundedRectangle|*
%AMROUNDEDRECTD102*
21,1,0.06312,0.00689,0,0,90.0*
21,1,0.04823,0.02178,0,0,90.0*
1,1,0.01489,0.00345,0.02411*
1,1,0.01489,0.00345,-0.02411*
1,1,0.01489,-0.00345,-0.02411*
1,1,0.01489,-0.00345,0.02411*
%
%ADD102ROUNDEDRECTD102*%
G04:AMPARAMS|DCode=103|XSize=43.43mil|YSize=21.78mil|CornerRadius=7.45mil|HoleSize=0mil|Usage=FLASHONLY|Rotation=90.000|XOffset=0mil|YOffset=0mil|HoleType=Round|Shape=RoundedRectangle|*
%AMROUNDEDRECTD103*
21,1,0.04343,0.00689,0,0,90.0*
21,1,0.02854,0.02178,0,0,90.0*
1,1,0.01489,0.00345,0.01427*
1,1,0.01489,0.00345,-0.01427*
1,1,0.01489,-0.00345,-0.01427*
1,1,0.01489,-0.00345,0.01427*
%
%ADD103ROUNDEDRECTD103*%
G04:AMPARAMS|DCode=104|XSize=43.43mil|YSize=21.78mil|CornerRadius=7.45mil|HoleSize=0mil|Usage=FLASHONLY|Rotation=180.000|XOffset=0mil|YOffset=0mil|HoleType=Round|Shape=RoundedRectangle|*
%AMROUNDEDRECTD104*
21,1,0.04343,0.00689,0,0,180.0*
21,1,0.02854,0.02178,0,0,180.0*
1,1,0.01489,-0.01427,0.00345*
1,1,0.01489,0.01427,0.00345*
1,1,0.01489,0.01427,-0.00345*
1,1,0.01489,-0.01427,-0.00345*
%
%ADD104ROUNDEDRECTD104*%
%ADD105R,0.05131X0.02178*%
%ADD106R,0.15761X0.08674*%
%ADD107R,0.06706X0.08674*%
%ADD108R,0.03950X0.03950*%
%ADD109C,0.40170*%
%ADD110C,0.55918*%
%ADD111C,0.28359*%
%ADD112O,0.09068X0.04934*%
%ADD113C,0.03359*%
%ADD114O,0.08674X0.06706*%
%ADD115R,0.08674X0.06706*%
%ADD116C,0.06693*%
%ADD117R,0.06693X0.06693*%
%ADD118C,0.05918*%
%ADD119C,0.06706*%
%ADD120R,0.06706X0.06706*%
%ADD121O,0.12611X0.08674*%
%ADD122R,0.10642X0.06706*%
%ADD123O,0.10642X0.06706*%
%ADD124R,0.07099X0.09658*%
%ADD125O,0.07099X0.09658*%
%ADD126C,0.08674*%
%ADD127R,0.08674X0.08674*%
%ADD128C,0.02769*%
%ADD129C,0.04400*%
%ADD130C,0.05800*%
G36*
X184731Y242830D02*
X182298D01*
Y244602D01*
X184731D01*
Y242830D01*
D02*
G37*
G36*
X186700Y240200D02*
X184928D01*
Y242633D01*
X186700D01*
Y240200D01*
D02*
G37*
G36*
X184731D02*
X182298D01*
Y242633D01*
X184731D01*
Y240200D01*
D02*
G37*
G36*
Y244798D02*
X182298D01*
Y246570D01*
X184731D01*
Y244798D01*
D02*
G37*
G36*
Y246767D02*
X182298D01*
Y249200D01*
X184731D01*
Y246767D01*
D02*
G37*
G36*
X186700D02*
X184928D01*
Y249200D01*
X186700D01*
Y246767D01*
D02*
G37*
G36*
X188669Y240200D02*
X186897D01*
Y242633D01*
X188669D01*
Y240200D01*
D02*
G37*
G36*
X191298D02*
X188865D01*
Y242633D01*
X191298D01*
Y240200D01*
D02*
G37*
G36*
Y242830D02*
X188865D01*
Y244602D01*
X191298D01*
Y242830D01*
D02*
G37*
G36*
X188669Y246767D02*
X186897D01*
Y249200D01*
X188669D01*
Y246767D01*
D02*
G37*
G36*
X191298D02*
X188865D01*
Y249200D01*
X191298D01*
Y246767D01*
D02*
G37*
G36*
Y244798D02*
X188865D01*
Y246570D01*
X191298D01*
Y244798D01*
D02*
G37*
D24*
X364194Y253451D02*
D03*
Y258451D02*
D03*
Y263451D02*
D03*
Y268451D02*
D03*
Y273451D02*
D03*
Y278451D02*
D03*
Y283451D02*
D03*
Y288451D02*
D03*
Y293451D02*
D03*
Y298451D02*
D03*
Y303451D02*
D03*
Y308451D02*
D03*
Y313451D02*
D03*
Y318451D02*
D03*
X297265Y253451D02*
D03*
Y258451D02*
D03*
Y263451D02*
D03*
Y268451D02*
D03*
Y273451D02*
D03*
Y278451D02*
D03*
Y283451D02*
D03*
Y288451D02*
D03*
Y293451D02*
D03*
Y298451D02*
D03*
Y303451D02*
D03*
Y308451D02*
D03*
Y313451D02*
D03*
Y318451D02*
D03*
D27*
X168365Y74937D02*
D03*
Y67063D02*
D03*
X352365Y147937D02*
D03*
Y140063D02*
D03*
D67*
X318000Y141400D02*
D03*
D68*
X123441Y139500D02*
D03*
X128559D02*
D03*
X128559Y147500D02*
D03*
X123441D02*
D03*
X123441Y155500D02*
D03*
X128559D02*
D03*
X128559Y163500D02*
D03*
X123441D02*
D03*
X128559Y174500D02*
D03*
X123441D02*
D03*
X217441Y204000D02*
D03*
X222559D02*
D03*
X217441Y190000D02*
D03*
X222559D02*
D03*
X354941Y215000D02*
D03*
X360059D02*
D03*
X228559Y220000D02*
D03*
X223441D02*
D03*
X228559Y212000D02*
D03*
X223441D02*
D03*
X217441Y197000D02*
D03*
X222559D02*
D03*
X74941Y227500D02*
D03*
X80059D02*
D03*
X354941Y225000D02*
D03*
X360059D02*
D03*
X74941Y217500D02*
D03*
X80059D02*
D03*
X74941Y237500D02*
D03*
X80059D02*
D03*
D69*
X61626Y115000D02*
D03*
X77374D02*
D03*
Y130000D02*
D03*
X61626D02*
D03*
X77374Y145000D02*
D03*
X61626D02*
D03*
X77374Y160000D02*
D03*
X61626D02*
D03*
Y175000D02*
D03*
X77374D02*
D03*
Y190000D02*
D03*
X61626D02*
D03*
X77374Y205000D02*
D03*
X61626D02*
D03*
X77374Y100000D02*
D03*
X61626D02*
D03*
X77374Y252500D02*
D03*
X61626D02*
D03*
D70*
X334000Y279951D02*
D03*
X326776D02*
D03*
X319551D02*
D03*
X334000Y294400D02*
D03*
X326776D02*
D03*
X319551D02*
D03*
X334000Y287176D02*
D03*
X326776D02*
D03*
X319551D02*
D03*
D71*
X353229Y247777D02*
D03*
X348230D02*
D03*
X343230D02*
D03*
X338229D02*
D03*
X333229D02*
D03*
X328229D02*
D03*
X323230D02*
D03*
X318230D02*
D03*
X313229D02*
D03*
X308229D02*
D03*
D72*
X123000Y323110D02*
D03*
Y336890D02*
D03*
D73*
X191003Y84189D02*
D03*
Y57811D02*
D03*
X375003Y157189D02*
D03*
Y130811D02*
D03*
D74*
X154000Y10000D02*
D03*
X161500Y99000D02*
D03*
X349000Y100500D02*
D03*
Y114000D02*
D03*
D75*
X217539Y183000D02*
D03*
X222461D02*
D03*
X207461Y170000D02*
D03*
X202539D02*
D03*
X165539Y174000D02*
D03*
X170461D02*
D03*
X202579Y177500D02*
D03*
X207500D02*
D03*
X282961Y244000D02*
D03*
X278039D02*
D03*
X139961Y302500D02*
D03*
X135039D02*
D03*
X191309Y285100D02*
D03*
X186388D02*
D03*
X298039Y144500D02*
D03*
X302961D02*
D03*
X144961Y113000D02*
D03*
X140039D02*
D03*
X165338Y241000D02*
D03*
X170259D02*
D03*
D76*
X304146Y173000D02*
D03*
X334854D02*
D03*
X74646Y299000D02*
D03*
X105354D02*
D03*
X14646Y67500D02*
D03*
X45354D02*
D03*
X138209D02*
D03*
X107500D02*
D03*
X132854Y22500D02*
D03*
X102146D02*
D03*
X14646D02*
D03*
X45354D02*
D03*
D77*
X171500Y195441D02*
D03*
Y200559D02*
D03*
X272000Y282559D02*
D03*
Y277441D02*
D03*
X178000Y200559D02*
D03*
Y195441D02*
D03*
X237500Y314882D02*
D03*
Y320000D02*
D03*
Y302382D02*
D03*
Y307500D02*
D03*
X375000Y187559D02*
D03*
Y182441D02*
D03*
X367500Y187559D02*
D03*
Y182441D02*
D03*
X267500Y127441D02*
D03*
Y132559D02*
D03*
X235000Y140559D02*
D03*
Y135441D02*
D03*
X140000Y309441D02*
D03*
Y314559D02*
D03*
X166349Y277041D02*
D03*
Y282159D02*
D03*
X314000Y114441D02*
D03*
Y119559D02*
D03*
X327000Y114441D02*
D03*
Y119559D02*
D03*
D78*
X164425Y207071D02*
D03*
X167575D02*
D03*
X185575D02*
D03*
X182425D02*
D03*
D79*
X166000Y210929D02*
D03*
X184000D02*
D03*
D80*
X313177Y225598D02*
D03*
X348217D02*
D03*
X313177Y215598D02*
D03*
X348217D02*
D03*
X313177Y205598D02*
D03*
X348217D02*
D03*
X89277Y238298D02*
D03*
X124317D02*
D03*
X89277Y228298D02*
D03*
X124317D02*
D03*
X89277Y218298D02*
D03*
X124317D02*
D03*
D81*
X188878Y99902D02*
D03*
Y125098D02*
D03*
Y103051D02*
D03*
Y121949D02*
D03*
D82*
Y113484D02*
D03*
Y111516D02*
D03*
Y115453D02*
D03*
Y117421D02*
D03*
Y119390D02*
D03*
Y109547D02*
D03*
Y107579D02*
D03*
Y105610D02*
D03*
D83*
X189000Y317461D02*
D03*
Y312539D02*
D03*
X280000Y299961D02*
D03*
Y295039D02*
D03*
X288000Y299961D02*
D03*
Y295039D02*
D03*
X272000Y294461D02*
D03*
Y289539D02*
D03*
X240976Y281461D02*
D03*
Y276539D02*
D03*
X225951Y281461D02*
D03*
Y276539D02*
D03*
X233951Y281461D02*
D03*
Y276539D02*
D03*
X217951D02*
D03*
Y281461D02*
D03*
X156849Y312639D02*
D03*
Y317561D02*
D03*
X201951Y276539D02*
D03*
Y281461D02*
D03*
X209951Y276539D02*
D03*
Y281461D02*
D03*
X173000Y282461D02*
D03*
Y277539D02*
D03*
X329000Y152461D02*
D03*
Y147539D02*
D03*
X124000Y96539D02*
D03*
Y101461D02*
D03*
X186798Y227539D02*
D03*
Y232461D02*
D03*
X192798Y227539D02*
D03*
Y232461D02*
D03*
X180798Y227539D02*
D03*
Y232461D02*
D03*
D84*
X314122Y144353D02*
D03*
D85*
Y142384D02*
D03*
Y140416D02*
D03*
Y138447D02*
D03*
X321878D02*
D03*
Y140416D02*
D03*
Y142384D02*
D03*
Y144353D02*
D03*
D86*
X168709Y164000D02*
D03*
X182291D02*
D03*
D87*
X122500Y291500D02*
D03*
X120000Y193000D02*
D03*
X165000Y117500D02*
D03*
X91000Y183000D02*
D03*
X117000Y265000D02*
D03*
X100000D02*
D03*
X91000Y159500D02*
D03*
D88*
X191579Y184323D02*
D03*
D89*
X193547D02*
D03*
X195516D02*
D03*
X197484D02*
D03*
X199453D02*
D03*
X201421D02*
D03*
Y199677D02*
D03*
X199453D02*
D03*
X197484D02*
D03*
X195516D02*
D03*
X193547D02*
D03*
X191579D02*
D03*
D90*
X204177Y187079D02*
D03*
Y189047D02*
D03*
Y191016D02*
D03*
Y192984D02*
D03*
Y194953D02*
D03*
Y196921D02*
D03*
X188823D02*
D03*
Y194953D02*
D03*
Y192984D02*
D03*
Y191016D02*
D03*
Y189047D02*
D03*
Y187079D02*
D03*
D91*
X196500Y192000D02*
D03*
D92*
X214978Y219969D02*
D03*
X209072D02*
D03*
X209736Y212000D02*
D03*
X215642D02*
D03*
X134858Y227500D02*
D03*
X140764D02*
D03*
X134522Y237531D02*
D03*
X140428D02*
D03*
X140453Y217500D02*
D03*
X134547D02*
D03*
D93*
X205213Y153071D02*
D03*
X212772D02*
D03*
Y145000D02*
D03*
D94*
X206000D02*
D03*
D95*
X121736Y118953D02*
D03*
Y116984D02*
D03*
Y115016D02*
D03*
Y113047D02*
D03*
X131264D02*
D03*
Y115016D02*
D03*
Y116984D02*
D03*
Y118953D02*
D03*
D96*
X124531Y112221D02*
D03*
X126500D02*
D03*
X128469D02*
D03*
Y119780D02*
D03*
X126500D02*
D03*
X124531D02*
D03*
D97*
X248428Y283643D02*
D03*
X264570D02*
D03*
X248428Y277343D02*
D03*
X264570D02*
D03*
D98*
X243400Y142300D02*
D03*
Y134820D02*
D03*
X251274Y138560D02*
D03*
D99*
X179961Y21437D02*
D03*
Y13563D02*
D03*
Y5689D02*
D03*
D100*
X162990Y337557D02*
D03*
X180707D02*
D03*
D101*
X213024Y297146D02*
D03*
Y327854D02*
D03*
D102*
X171065Y305301D02*
D03*
X173034D02*
D03*
Y294868D02*
D03*
X171065D02*
D03*
D103*
X169097Y306285D02*
D03*
X175002D02*
D03*
Y293887D02*
D03*
X169097D02*
D03*
D104*
X178447Y297131D02*
D03*
X178349Y299100D02*
D03*
Y301068D02*
D03*
Y303037D02*
D03*
X165853Y297131D02*
D03*
Y299100D02*
D03*
Y301068D02*
D03*
D105*
X166243Y303037D02*
D03*
D106*
X75000Y79902D02*
D03*
Y34902D02*
D03*
D107*
X84055Y55098D02*
D03*
X75000D02*
D03*
X65945D02*
D03*
X84055Y10098D02*
D03*
X75000D02*
D03*
X65945D02*
D03*
D108*
X314000Y101736D02*
D03*
Y107642D02*
D03*
X327031Y101072D02*
D03*
Y106978D02*
D03*
D109*
X266886Y322707D02*
D03*
D110*
X266885Y190943D02*
D03*
D111*
X68000Y334400D02*
D03*
X371252Y110201D02*
D03*
X164000Y34000D02*
D03*
D112*
X207598Y95492D02*
D03*
Y129508D02*
D03*
X191142Y95492D02*
D03*
Y129508D02*
D03*
D113*
X193110Y123878D02*
D03*
Y101122D02*
D03*
D114*
X107000Y158874D02*
D03*
Y166748D02*
D03*
Y151000D02*
D03*
D115*
Y174622D02*
D03*
D116*
X272000Y149400D02*
D03*
D117*
X262000D02*
D03*
D118*
X195905Y29803D02*
D03*
Y5197D02*
D03*
D119*
X278000Y234000D02*
D03*
X268000D02*
D03*
D120*
X258000D02*
D03*
D121*
X18000Y251400D02*
D03*
Y231400D02*
D03*
Y261400D02*
D03*
Y241400D02*
D03*
D122*
X13000Y289463D02*
D03*
X15000Y134626D02*
D03*
D123*
X13000Y297337D02*
D03*
X15000Y205492D02*
D03*
Y197618D02*
D03*
Y181870D02*
D03*
Y173996D02*
D03*
Y142500D02*
D03*
Y150374D02*
D03*
Y158248D02*
D03*
Y166122D02*
D03*
Y189744D02*
D03*
D124*
X23059Y326424D02*
D03*
D125*
X13059D02*
D03*
D126*
X42500Y207500D02*
D03*
Y197500D02*
D03*
Y187500D02*
D03*
Y177500D02*
D03*
Y167500D02*
D03*
Y157500D02*
D03*
Y147500D02*
D03*
Y137500D02*
D03*
Y127500D02*
D03*
Y117500D02*
D03*
Y107500D02*
D03*
X377000Y304400D02*
D03*
Y294400D02*
D03*
Y284400D02*
D03*
Y274400D02*
D03*
Y264400D02*
D03*
Y254400D02*
D03*
Y244400D02*
D03*
Y234400D02*
D03*
Y224400D02*
D03*
Y214400D02*
D03*
Y204400D02*
D03*
D127*
X42500Y217500D02*
D03*
X377000Y314400D02*
D03*
D128*
X100000Y197000D02*
D03*
X103500Y116500D02*
D03*
X98500Y119000D02*
D03*
X267500Y297000D02*
D03*
X254500Y283500D02*
D03*
X214000Y240400D02*
D03*
X218500Y253000D02*
D03*
X189500Y207000D02*
D03*
X165000Y152500D02*
D03*
X350000Y162500D02*
D03*
X325500Y134000D02*
D03*
X366100Y240000D02*
D03*
X366000Y225000D02*
D03*
X348000Y192000D02*
D03*
X332000Y200500D02*
D03*
Y225000D02*
D03*
X342000Y215500D02*
D03*
Y224500D02*
D03*
X358500Y236500D02*
D03*
X370500Y258500D02*
D03*
X352000Y230000D02*
D03*
X303500Y290500D02*
D03*
X243500Y292000D02*
D03*
X288000Y288500D02*
D03*
X306500Y283000D02*
D03*
X174000Y246400D02*
D03*
X355500Y187500D02*
D03*
X339000Y151500D02*
D03*
X358000Y257500D02*
D03*
X344500D02*
D03*
X192500Y222000D02*
D03*
X276500Y282500D02*
D03*
X262500Y248000D02*
D03*
X290500Y253500D02*
D03*
X119868Y140500D02*
D03*
X154378Y130400D02*
D03*
X144378Y134400D02*
D03*
X273500Y222000D02*
D03*
X283000Y278500D02*
D03*
X140500Y262500D02*
D03*
X144000Y201500D02*
D03*
X160000D02*
D03*
X157000Y210500D02*
D03*
X176000Y130800D02*
D03*
X332000Y142500D02*
D03*
X329000Y139500D02*
D03*
X111500Y207000D02*
D03*
X182000Y108010D02*
D03*
X179500Y119000D02*
D03*
X147500Y228000D02*
D03*
Y256500D02*
D03*
X286500Y253000D02*
D03*
X288144Y258356D02*
D03*
X313000Y258000D02*
D03*
X179500Y185500D02*
D03*
X176500Y191500D02*
D03*
X174000Y209000D02*
D03*
X189500Y168500D02*
D03*
X216000D02*
D03*
X241000Y163500D02*
D03*
X282500Y152000D02*
D03*
X338000Y256000D02*
D03*
X293000Y165500D02*
D03*
X232000Y188000D02*
D03*
X229500Y191000D02*
D03*
X335000Y187000D02*
D03*
X219000Y153000D02*
D03*
X225209Y193500D02*
D03*
X227000Y197000D02*
D03*
X296000Y162500D02*
D03*
X304456D02*
D03*
X300000Y154500D02*
D03*
X229500Y155600D02*
D03*
X182500Y197000D02*
D03*
Y193500D02*
D03*
X136500Y153000D02*
D03*
Y207000D02*
D03*
X126500Y126000D02*
D03*
X154000Y219500D02*
D03*
X226000Y141500D02*
D03*
X176000D02*
D03*
X172500Y145000D02*
D03*
X250000Y242000D02*
D03*
X230000D02*
D03*
X245000Y244600D02*
D03*
X172500Y233500D02*
D03*
X98500Y245500D02*
D03*
X89500Y223500D02*
D03*
X242914Y307000D02*
D03*
X243500Y299207D02*
D03*
X221504Y286081D02*
D03*
X237000Y286000D02*
D03*
X348000Y235500D02*
D03*
X193500Y249500D02*
D03*
X250000Y259000D02*
D03*
X286500Y267000D02*
D03*
Y263500D02*
D03*
X169500Y259000D02*
D03*
X171000Y212500D02*
D03*
X236500Y259000D02*
D03*
X183500Y250500D02*
D03*
Y273000D02*
D03*
X202000Y243500D02*
D03*
X196500Y241000D02*
D03*
X198900Y243600D02*
D03*
X194000Y246100D02*
D03*
X196500Y261500D02*
D03*
X302500Y263500D02*
D03*
X199000Y264500D02*
D03*
X202000Y253500D02*
D03*
X271000Y265000D02*
D03*
X284000Y229500D02*
D03*
X295500Y221000D02*
D03*
X335000Y303500D02*
D03*
X324500Y300000D02*
D03*
X307000Y267000D02*
D03*
X313500Y286586D02*
D03*
X288500Y307500D02*
D03*
X337500Y267000D02*
D03*
X171500Y190000D02*
D03*
X178500Y215500D02*
D03*
X301000Y248000D02*
D03*
X304500Y239000D02*
D03*
X340500Y293500D02*
D03*
X140500Y118000D02*
D03*
X122500Y124000D02*
D03*
X136000Y118500D02*
D03*
X134000Y204000D02*
D03*
Y174500D02*
D03*
Y122500D02*
D03*
X154500Y281500D02*
D03*
X130000D02*
D03*
Y123500D02*
D03*
X122500Y253500D02*
D03*
X169000Y107000D02*
D03*
X227000Y158000D02*
D03*
X107000Y114000D02*
D03*
X340000Y157500D02*
D03*
X345000Y230000D02*
D03*
X344500Y283500D02*
D03*
X92100Y233500D02*
D03*
X87000Y212500D02*
D03*
X115000Y275000D02*
D03*
X230000Y233500D02*
D03*
X289000Y273500D02*
D03*
X245000Y223500D02*
D03*
X311500Y273000D02*
D03*
X61500Y270000D02*
D03*
X61626Y211874D02*
D03*
X352000Y210000D02*
D03*
X354500Y268500D02*
D03*
X349500Y278500D02*
D03*
X356500Y263500D02*
D03*
X306000Y225500D02*
D03*
X235000Y146500D02*
D03*
D129*
X51000Y155500D02*
D03*
X57000Y81500D02*
D03*
X205500Y160000D02*
D03*
X195933Y274500D02*
D03*
X196000Y294000D02*
D03*
X320000Y211000D02*
D03*
X360000Y184259D02*
D03*
X335500Y150000D02*
D03*
X374500Y145000D02*
D03*
X212000Y183000D02*
D03*
X214500Y173500D02*
D03*
X165500Y133700D02*
D03*
X222500D02*
D03*
X335000Y182000D02*
D03*
X329500Y234000D02*
D03*
X235500Y173500D02*
D03*
X222500Y149000D02*
D03*
X126500Y307500D02*
D03*
X237000Y340500D02*
D03*
X130500Y294000D02*
D03*
X56000Y291500D02*
D03*
X168500Y182000D02*
D03*
X277000Y271500D02*
D03*
X216500Y161500D02*
D03*
X239000Y212000D02*
D03*
Y233500D02*
D03*
X56000Y239828D02*
D03*
X360000Y209000D02*
D03*
X228500Y225000D02*
D03*
X191000Y159000D02*
D03*
X203000Y118000D02*
D03*
X195000D02*
D03*
D130*
X337000Y110000D02*
D03*
X331000Y124500D02*
D03*
X117500Y180000D02*
D03*
X310500Y132000D02*
D03*
X308000Y121000D02*
D03*
X349000Y123500D02*
D03*
X305000Y136000D02*
D03*
X229500Y289000D02*
D03*
X117000Y147000D02*
D03*
X59000Y18000D02*
D03*
X136000Y101000D02*
D03*
X95000Y320000D02*
D03*
Y55000D02*
D03*
X151000Y82000D02*
D03*
X117000Y101000D02*
D03*
Y22000D02*
D03*
X59000Y35000D02*
D03*
M02*
