G04*
G04 #@! TF.GenerationSoftware,Altium Limited,Altium Designer,23.3.1 (30)*
G04*
G04 Layer_Physical_Order=2*
G04 Layer_Color=16711680*
%FSLAX44Y44*%
%MOMM*%
G71*
G04*
G04 #@! TF.SameCoordinates,049E622D-B5B7-477E-837E-60E0A1272B7F*
G04*
G04*
G04 #@! TF.FilePolarity,Positive*
G04*
G01*
G75*
%ADD10C,0.5080*%
%ADD63C,1.3970*%
%ADD64O,1.2700X1.9558*%
%ADD76C,1.2192*%
%ADD77C,0.2540*%
%ADD79R,1.5000X1.5000*%
%ADD80C,1.5000*%
%ADD81C,2.0000*%
%ADD82O,1.7500X2.5000*%
%ADD83R,1.7500X2.5000*%
%ADD84C,1.1000*%
%ADD85R,1.1000X1.1000*%
%ADD86C,3.3020*%
%ADD87R,2.0000X2.0000*%
%ADD88C,0.5080*%
%ADD89C,1.0160*%
%ADD90C,0.6604*%
G36*
X666910Y458470D02*
X679450D01*
Y457200D01*
X680720D01*
Y444660D01*
X689560D01*
Y439223D01*
X688290Y438792D01*
X687488Y439838D01*
X685134Y441644D01*
X682392Y442780D01*
X679450Y443167D01*
X676508Y442780D01*
X673766Y441644D01*
X671412Y439838D01*
X669606Y437484D01*
X668470Y434742D01*
X668424Y434390D01*
X653324D01*
X652869Y435660D01*
X654886Y437314D01*
X657266Y440215D01*
X659035Y443525D01*
X660124Y447116D01*
X660367Y449580D01*
X641350D01*
Y452120D01*
X660367D01*
X660124Y454585D01*
X659035Y458175D01*
X657266Y461485D01*
X654886Y464386D01*
X652869Y466040D01*
X653324Y467310D01*
X666910D01*
Y458470D01*
D02*
G37*
G36*
X314168Y411593D02*
X314571Y410621D01*
X315543Y410218D01*
X620343D01*
X621315Y410621D01*
X621718Y411593D01*
Y445569D01*
X622988Y445758D01*
X623665Y443525D01*
X625434Y440215D01*
X627814Y437314D01*
X630715Y434934D01*
X633648Y433366D01*
X634060Y431982D01*
X628089Y426011D01*
X627527Y425171D01*
X627330Y424180D01*
Y412553D01*
X622297Y407519D01*
X529701D01*
X529596Y407676D01*
X528336Y408518D01*
X526849Y408814D01*
X525363Y408518D01*
X524103Y407676D01*
X523260Y406416D01*
X522965Y404929D01*
X523234Y403577D01*
X523153Y403206D01*
X522673Y402307D01*
X409992D01*
X409887Y402464D01*
X408627Y403306D01*
X407140Y403602D01*
X405654Y403306D01*
X404394Y402464D01*
X403716Y401451D01*
X402324Y401047D01*
X400574Y402797D01*
X399314Y403639D01*
X397827Y403935D01*
X367106D01*
X366607Y404585D01*
X365068Y405766D01*
X363276Y406508D01*
X361353Y406761D01*
X359431Y406508D01*
X357639Y405766D01*
X356100Y404585D01*
X354919Y403046D01*
X354177Y401254D01*
X353924Y399331D01*
X354177Y397408D01*
X354919Y395617D01*
X356100Y394078D01*
X357639Y392897D01*
X359431Y392155D01*
X361353Y391902D01*
X363276Y392155D01*
X365068Y392897D01*
X366607Y394078D01*
X367788Y395617D01*
X368015Y396165D01*
X396218D01*
X404011Y388372D01*
X405271Y387530D01*
X406758Y387235D01*
X530509D01*
X530894Y385965D01*
X530433Y385656D01*
X529590Y384396D01*
X529295Y382909D01*
X529332Y382724D01*
X380866Y234258D01*
X380304Y233418D01*
X380107Y232427D01*
Y191783D01*
X379950Y191678D01*
X379108Y190418D01*
X378812Y188931D01*
X379108Y187445D01*
X379950Y186184D01*
X381020Y185470D01*
X380968Y184655D01*
X380808Y184200D01*
X370643D01*
X368350Y186493D01*
Y258768D01*
X368507Y258873D01*
X369349Y260133D01*
X369645Y261620D01*
X369349Y263107D01*
X368507Y264367D01*
X367247Y265209D01*
X365760Y265505D01*
X364273Y265209D01*
X363013Y264367D01*
X362171Y263107D01*
X361875Y261620D01*
X362171Y260133D01*
X363013Y258873D01*
X363170Y258768D01*
Y185420D01*
X362118Y184200D01*
X249993D01*
X235765Y198427D01*
X234925Y198989D01*
X233934Y199186D01*
X162692D01*
X161290Y199465D01*
X159803Y199169D01*
X158543Y198327D01*
X157701Y197067D01*
X157405Y195580D01*
X157701Y194093D01*
X158543Y192833D01*
X159803Y191991D01*
X161290Y191695D01*
X162777Y191991D01*
X164037Y192833D01*
X164821Y194006D01*
X174113D01*
X174720Y192736D01*
X173906Y191675D01*
X173164Y189883D01*
X172910Y187960D01*
X173164Y186037D01*
X173906Y184245D01*
X175086Y182707D01*
X176625Y181526D01*
X178417Y180784D01*
X180340Y180530D01*
X182263Y180784D01*
X184055Y181526D01*
X185593Y182707D01*
X186644Y184075D01*
X229531D01*
X247443Y166163D01*
X248703Y165321D01*
X250190Y165025D01*
X334056D01*
X335107Y163657D01*
X336438Y162635D01*
X336324Y161824D01*
X336097Y161365D01*
X240227D01*
X231110Y170482D01*
X231272Y171300D01*
X230780Y173778D01*
X229376Y175878D01*
X227276Y177282D01*
X224798Y177774D01*
X222320Y177282D01*
X220220Y175878D01*
X218816Y173778D01*
X218324Y171300D01*
X218816Y168822D01*
X220220Y166722D01*
X222320Y165318D01*
X224798Y164826D01*
X225616Y164988D01*
X235871Y154733D01*
X237131Y153891D01*
X237993Y153720D01*
X237868Y152450D01*
X143313D01*
X135928Y159835D01*
X135965Y160020D01*
X135669Y161507D01*
X134827Y162767D01*
X133567Y163609D01*
X132080Y163905D01*
X130593Y163609D01*
X129333Y162767D01*
X128491Y161507D01*
X128195Y160020D01*
X128491Y158533D01*
X129333Y157273D01*
X130593Y156431D01*
X132080Y156135D01*
X132265Y156172D01*
X140382Y148056D01*
X140378Y147939D01*
X139983Y146786D01*
X131197D01*
X125768Y152215D01*
X125805Y152400D01*
X125509Y153887D01*
X124667Y155147D01*
X123407Y155989D01*
X121920Y156285D01*
X120433Y155989D01*
X119455Y155335D01*
X118473Y155679D01*
X118185Y155898D01*
Y234996D01*
X119553Y236047D01*
X120734Y237585D01*
X121476Y239377D01*
X121730Y241300D01*
X121476Y243223D01*
X120734Y245015D01*
X119553Y246553D01*
X118015Y247734D01*
X116223Y248476D01*
X114300Y248730D01*
X112377Y248476D01*
X110585Y247734D01*
X109046Y246553D01*
X107866Y245015D01*
X107124Y243223D01*
X106870Y241300D01*
X107124Y239377D01*
X107866Y237585D01*
X109046Y236047D01*
X110415Y234996D01*
Y144999D01*
X110501Y144566D01*
X109696Y143585D01*
X74026D01*
X72539Y143289D01*
X71279Y142447D01*
X68303Y139471D01*
X67461Y138211D01*
X67165Y136724D01*
Y101887D01*
X65997Y101403D01*
X63904Y99796D01*
X62298Y97703D01*
X61288Y95266D01*
X60944Y92650D01*
Y85150D01*
X61288Y82534D01*
X62298Y80097D01*
X63904Y78004D01*
X65997Y76398D01*
X68434Y75388D01*
X71050Y75044D01*
X73666Y75388D01*
X76103Y76398D01*
X78196Y78004D01*
X79802Y80097D01*
X80812Y82534D01*
X81157Y85150D01*
Y92650D01*
X80812Y95266D01*
X79802Y97703D01*
X78196Y99796D01*
X76103Y101403D01*
X74935Y101887D01*
Y135115D01*
X75635Y135815D01*
X111370D01*
X112421Y134446D01*
X113959Y133266D01*
X115751Y132524D01*
X117674Y132270D01*
X119597Y132524D01*
X121389Y133266D01*
X121685Y133493D01*
X135151D01*
X136771Y131873D01*
X138032Y131031D01*
X139518Y130735D01*
X184196D01*
X185247Y129367D01*
X186785Y128186D01*
X188577Y127444D01*
X190500Y127190D01*
X192423Y127444D01*
X194215Y128186D01*
X195753Y129367D01*
X196934Y130905D01*
X197676Y132697D01*
X197930Y134620D01*
X197676Y136543D01*
X196934Y138335D01*
X195753Y139874D01*
X195150Y140336D01*
X195581Y141606D01*
X380435D01*
X380540Y141449D01*
X381801Y140607D01*
X383287Y140311D01*
X384774Y140607D01*
X386034Y141449D01*
X386876Y142710D01*
X387172Y144196D01*
X386876Y145683D01*
X387018Y145979D01*
X387668Y146784D01*
X389254D01*
X389683Y146141D01*
X390943Y145299D01*
X392430Y145003D01*
X393917Y145299D01*
X395177Y146141D01*
X396019Y147401D01*
X396315Y148888D01*
X396019Y150374D01*
X395177Y151634D01*
X394143Y152325D01*
X394282Y153411D01*
X394354Y153595D01*
X396536D01*
X396539Y153593D01*
X396726Y153556D01*
X398012Y151632D01*
X400112Y150228D01*
X402590Y149736D01*
X405068Y150228D01*
X407168Y151632D01*
X408572Y153732D01*
X409064Y156210D01*
X408572Y158688D01*
X407168Y160788D01*
X405068Y162192D01*
X402590Y162684D01*
X400112Y162192D01*
X398612Y161189D01*
X397728Y161365D01*
X344623D01*
X344396Y161824D01*
X344282Y162635D01*
X345614Y163657D01*
X346664Y165025D01*
X585288D01*
X586775Y165321D01*
X588035Y166163D01*
X602649Y180777D01*
X604520Y180530D01*
X606443Y180784D01*
X608235Y181526D01*
X609773Y182707D01*
X610954Y184245D01*
X611696Y186037D01*
X611950Y187960D01*
X611696Y189883D01*
X610954Y191675D01*
X609773Y193214D01*
X608235Y194394D01*
X606443Y195136D01*
X604520Y195390D01*
X602597Y195136D01*
X600805Y194394D01*
X599267Y193214D01*
X598086Y191675D01*
X597344Y189883D01*
X597090Y187960D01*
X597295Y186410D01*
X583679Y172795D01*
X346664D01*
X345614Y174163D01*
X344075Y175344D01*
X342283Y176086D01*
X340360Y176340D01*
X338437Y176086D01*
X336645Y175344D01*
X335107Y174163D01*
X334056Y172795D01*
X251799D01*
X233887Y190707D01*
X232627Y191549D01*
X231140Y191845D01*
X186723D01*
X186016Y192855D01*
X186567Y194006D01*
X232861D01*
X247089Y179779D01*
X247929Y179217D01*
X248920Y179020D01*
X519430D01*
X520421Y179217D01*
X521261Y179779D01*
X540823Y199340D01*
X668850D01*
X669606Y197516D01*
X671412Y195162D01*
X673766Y193356D01*
X676508Y192220D01*
X679450Y191833D01*
X682392Y192220D01*
X685134Y193356D01*
X687488Y195162D01*
X688290Y196208D01*
X689560Y195777D01*
Y185223D01*
X688290Y184792D01*
X687488Y185838D01*
X685134Y187644D01*
X682392Y188780D01*
X679450Y189167D01*
X676508Y188780D01*
X673766Y187644D01*
X671412Y185838D01*
X669606Y183484D01*
X668470Y180742D01*
X668083Y177800D01*
X668470Y174858D01*
X669606Y172116D01*
X671412Y169762D01*
X673766Y167956D01*
X676508Y166820D01*
X679450Y166433D01*
X682392Y166820D01*
X685134Y167956D01*
X687488Y169762D01*
X688290Y170808D01*
X689560Y170377D01*
Y15290D01*
X135040D01*
Y19959D01*
X127000D01*
X118960D01*
Y15290D01*
X96546D01*
X96179Y15928D01*
X96030Y16560D01*
X96993Y17815D01*
X97675Y19462D01*
X97907Y21229D01*
X97675Y22996D01*
X96993Y24643D01*
X95907Y26057D01*
X94493Y27143D01*
X92846Y27825D01*
X91079Y28057D01*
X89312Y27825D01*
X87665Y27143D01*
X86251Y26057D01*
X85166Y24643D01*
X84483Y22996D01*
X84251Y21229D01*
X84483Y19462D01*
X85166Y17815D01*
X86129Y16560D01*
X85979Y15928D01*
X85612Y15290D01*
X43724D01*
X43269Y16560D01*
X45286Y18214D01*
X47666Y21115D01*
X49435Y24425D01*
X50524Y28015D01*
X50767Y30480D01*
X31750D01*
Y31750D01*
X30480D01*
Y50767D01*
X28016Y50524D01*
X24425Y49435D01*
X21115Y47666D01*
X18214Y45286D01*
X16560Y43269D01*
X15290Y43724D01*
Y467310D01*
X314168D01*
Y411593D01*
D02*
G37*
%LPC*%
G36*
X678180Y455930D02*
X666910D01*
Y444660D01*
X678180D01*
Y455930D01*
D02*
G37*
G36*
X86360Y460966D02*
X84071Y460664D01*
X81937Y459781D01*
X80105Y458375D01*
X78699Y456543D01*
X78477Y456005D01*
X68843D01*
X68621Y456543D01*
X67215Y458375D01*
X65383Y459781D01*
X63249Y460664D01*
X60960Y460966D01*
X58671Y460664D01*
X56537Y459781D01*
X54705Y458375D01*
X53299Y456543D01*
X52416Y454409D01*
X52114Y452120D01*
X52416Y449831D01*
X53299Y447697D01*
X54705Y445865D01*
X56537Y444459D01*
X57075Y444236D01*
Y183219D01*
X52511Y178654D01*
X50800Y178880D01*
X48877Y178626D01*
X47085Y177884D01*
X45546Y176703D01*
X44366Y175165D01*
X43624Y173373D01*
X43370Y171450D01*
X43624Y169527D01*
X44366Y167735D01*
X45546Y166196D01*
X47085Y165016D01*
X48877Y164274D01*
X50800Y164020D01*
X52723Y164274D01*
X54515Y165016D01*
X56054Y166196D01*
X57234Y167735D01*
X57976Y169527D01*
X58230Y171450D01*
X58004Y173161D01*
X63707Y178863D01*
X64549Y180123D01*
X64845Y181610D01*
Y444236D01*
X65383Y444459D01*
X67215Y445865D01*
X68621Y447697D01*
X68843Y448235D01*
X78477D01*
X78699Y447697D01*
X80105Y445865D01*
X81937Y444459D01*
X84071Y443576D01*
X86360Y443274D01*
X88649Y443576D01*
X90783Y444459D01*
X92615Y445865D01*
X94021Y447697D01*
X94904Y449831D01*
X95206Y452120D01*
X94904Y454409D01*
X94021Y456543D01*
X92615Y458375D01*
X90783Y459781D01*
X88649Y460664D01*
X86360Y460966D01*
D02*
G37*
G36*
X113030Y462079D02*
Y453390D01*
X121719D01*
X121542Y454741D01*
X120530Y457183D01*
X118921Y459281D01*
X116823Y460890D01*
X114381Y461902D01*
X113030Y462079D01*
D02*
G37*
G36*
X138430D02*
Y453390D01*
X147119D01*
X146942Y454741D01*
X145930Y457183D01*
X144321Y459281D01*
X142223Y460890D01*
X139781Y461902D01*
X138430Y462079D01*
D02*
G37*
G36*
X110490D02*
X109139Y461902D01*
X106697Y460890D01*
X104599Y459281D01*
X102990Y457183D01*
X101978Y454741D01*
X101801Y453390D01*
X110490D01*
Y462079D01*
D02*
G37*
G36*
X135890D02*
X134539Y461902D01*
X132097Y460890D01*
X129999Y459281D01*
X128390Y457183D01*
X127378Y454741D01*
X127201Y453390D01*
X135890D01*
Y462079D01*
D02*
G37*
G36*
X196730Y460890D02*
X179190D01*
Y443350D01*
X196730D01*
Y460890D01*
D02*
G37*
G36*
X162560Y460966D02*
X160271Y460664D01*
X158137Y459781D01*
X156305Y458375D01*
X154899Y456543D01*
X154016Y454409D01*
X153714Y452120D01*
X154016Y449831D01*
X154899Y447697D01*
X156305Y445865D01*
X158137Y444459D01*
X160271Y443576D01*
X162560Y443274D01*
X164849Y443576D01*
X166983Y444459D01*
X168815Y445865D01*
X170221Y447697D01*
X171104Y449831D01*
X171406Y452120D01*
X171104Y454409D01*
X170221Y456543D01*
X168815Y458375D01*
X166983Y459781D01*
X164849Y460664D01*
X162560Y460966D01*
D02*
G37*
G36*
X147119Y450850D02*
X138430D01*
Y442161D01*
X139781Y442338D01*
X142223Y443350D01*
X144321Y444959D01*
X145930Y447057D01*
X146942Y449499D01*
X147119Y450850D01*
D02*
G37*
G36*
X121719D02*
X113030D01*
Y442161D01*
X114381Y442338D01*
X116823Y443350D01*
X118921Y444959D01*
X120530Y447057D01*
X121542Y449499D01*
X121719Y450850D01*
D02*
G37*
G36*
X135890D02*
X127201D01*
X127378Y449499D01*
X128390Y447057D01*
X129999Y444959D01*
X132097Y443350D01*
X134539Y442338D01*
X135890Y442161D01*
Y450850D01*
D02*
G37*
G36*
X110490D02*
X101801D01*
X101978Y449499D01*
X102990Y447057D01*
X104599Y444959D01*
X106697Y443350D01*
X109139Y442338D01*
X110490Y442161D01*
Y450850D01*
D02*
G37*
G36*
X457360Y381074D02*
X455874Y380779D01*
X454613Y379937D01*
X454509Y379780D01*
X404889D01*
X404784Y379937D01*
X403524Y380779D01*
X402038Y381074D01*
X400551Y380779D01*
X399291Y379937D01*
X398449Y378676D01*
X398153Y377190D01*
X398449Y375703D01*
X399291Y374443D01*
X400551Y373601D01*
X402038Y373305D01*
X403524Y373601D01*
X404784Y374443D01*
X404889Y374600D01*
X454509D01*
X454613Y374443D01*
X455874Y373601D01*
X457360Y373305D01*
X458847Y373601D01*
X460107Y374443D01*
X460949Y375703D01*
X461245Y377190D01*
X460949Y378676D01*
X460107Y379937D01*
X458847Y380779D01*
X457360Y381074D01*
D02*
G37*
G36*
X355600Y329005D02*
X354113Y328709D01*
X352853Y327867D01*
X352011Y326607D01*
X351715Y325120D01*
X352011Y323633D01*
X352853Y322373D01*
X353010Y322268D01*
Y312223D01*
X308807Y268020D01*
X287332D01*
X287227Y268177D01*
X285967Y269019D01*
X284480Y269315D01*
X282993Y269019D01*
X281733Y268177D01*
X280891Y266917D01*
X280595Y265430D01*
X280891Y263943D01*
X281562Y262940D01*
X281256Y262025D01*
X280999Y261670D01*
X157792D01*
X157687Y261827D01*
X156427Y262669D01*
X154940Y262965D01*
X153453Y262669D01*
X152193Y261827D01*
X151351Y260567D01*
X151055Y259080D01*
X151298Y257860D01*
X150611Y256590D01*
X148902D01*
X148797Y256747D01*
X147537Y257589D01*
X146050Y257885D01*
X144563Y257589D01*
X143303Y256747D01*
X142461Y255487D01*
X142165Y254000D01*
X142461Y252513D01*
X143303Y251253D01*
X144563Y250411D01*
X146050Y250115D01*
X147537Y250411D01*
X148797Y251253D01*
X148902Y251410D01*
X166693D01*
X167002Y250268D01*
X167003Y250261D01*
X166153Y249969D01*
X165919Y249812D01*
X164893Y249127D01*
X164051Y247867D01*
X163755Y246380D01*
X164051Y244893D01*
X164893Y243633D01*
X166153Y242791D01*
X167640Y242495D01*
X169127Y242791D01*
X170387Y243633D01*
X170492Y243790D01*
X325120D01*
X326111Y243987D01*
X326255Y244084D01*
X327065Y243097D01*
X288487Y204520D01*
X263743D01*
X263637Y204678D01*
X262377Y205520D01*
X260890Y205816D01*
X259403Y205520D01*
X258143Y204678D01*
X257301Y203418D01*
X257005Y201931D01*
X257301Y200445D01*
X258143Y199184D01*
X259403Y198342D01*
X260890Y198047D01*
X262377Y198342D01*
X263637Y199184D01*
X263741Y199340D01*
X289560D01*
X290551Y199537D01*
X291391Y200099D01*
X342703Y251410D01*
X346398D01*
X346503Y251253D01*
X347763Y250411D01*
X349250Y250115D01*
X350737Y250411D01*
X351997Y251253D01*
X352839Y252513D01*
X353135Y254000D01*
X352839Y255487D01*
X351997Y256747D01*
X350737Y257589D01*
X349250Y257885D01*
X347763Y257589D01*
X346503Y256747D01*
X346398Y256590D01*
X341630D01*
X340639Y256393D01*
X340495Y256296D01*
X339685Y257283D01*
X354254Y271852D01*
X354559Y271912D01*
X355600Y271705D01*
X357087Y272001D01*
X358347Y272843D01*
X359189Y274103D01*
X359485Y275590D01*
X359189Y277076D01*
X358347Y278337D01*
X357087Y279179D01*
X355600Y279475D01*
X354114Y279179D01*
X352853Y278337D01*
X352011Y277076D01*
X351919Y276612D01*
X351229Y276151D01*
X324047Y248970D01*
X170492D01*
X170387Y249127D01*
X169361Y249812D01*
X169127Y249969D01*
X168277Y250261D01*
X168278Y250268D01*
X168587Y251410D01*
X321310D01*
X322301Y251607D01*
X323142Y252169D01*
X355415Y284442D01*
X355600Y284405D01*
X357087Y284701D01*
X358347Y285543D01*
X359189Y286803D01*
X359485Y288290D01*
X359189Y289776D01*
X358347Y291037D01*
X357087Y291879D01*
X355600Y292174D01*
X354114Y291879D01*
X352853Y291037D01*
X352011Y289776D01*
X351716Y288290D01*
X351752Y288105D01*
X320238Y256590D01*
X316658D01*
X316133Y257860D01*
X355415Y297142D01*
X355600Y297105D01*
X357087Y297401D01*
X358347Y298243D01*
X359189Y299503D01*
X359485Y300990D01*
X359189Y302477D01*
X358347Y303737D01*
X357087Y304579D01*
X355600Y304874D01*
X354580Y304672D01*
X353955Y305842D01*
X357431Y309319D01*
X357993Y310159D01*
X358190Y311150D01*
Y322268D01*
X358347Y322373D01*
X359189Y323633D01*
X359485Y325120D01*
X359189Y326607D01*
X358347Y327867D01*
X357087Y328709D01*
X355600Y329005D01*
D02*
G37*
G36*
X571500Y142050D02*
X569577Y141796D01*
X567785Y141054D01*
X566246Y139874D01*
X565196Y138505D01*
X236402D01*
X234915Y138209D01*
X233655Y137367D01*
X217771Y121483D01*
X215900Y121730D01*
X213977Y121476D01*
X212185Y120734D01*
X210646Y119553D01*
X209466Y118015D01*
X208724Y116223D01*
X208470Y114300D01*
X208724Y112377D01*
X209466Y110585D01*
X210646Y109046D01*
X212185Y107866D01*
X213977Y107124D01*
X215900Y106870D01*
X217823Y107124D01*
X219615Y107866D01*
X221154Y109046D01*
X222334Y110585D01*
X223076Y112377D01*
X223330Y114300D01*
X223125Y115850D01*
X238011Y130735D01*
X565196D01*
X566246Y129367D01*
X567785Y128186D01*
X569577Y127444D01*
X571500Y127190D01*
X573423Y127444D01*
X575215Y128186D01*
X576754Y129367D01*
X577934Y130905D01*
X578676Y132697D01*
X578930Y134620D01*
X578676Y136543D01*
X577934Y138335D01*
X576754Y139874D01*
X575215Y141054D01*
X573423Y141796D01*
X571500Y142050D01*
D02*
G37*
G36*
X413358Y116523D02*
X411871Y116227D01*
X410611Y115385D01*
X409769Y114124D01*
X409473Y112638D01*
X409769Y111151D01*
X410611Y109891D01*
X411871Y109049D01*
X413358Y108753D01*
X414844Y109049D01*
X416105Y109891D01*
X416209Y110048D01*
X430358D01*
X431766Y108639D01*
X431946Y107733D01*
X432586Y106777D01*
X432441Y106488D01*
X431770Y105742D01*
X430555Y105984D01*
X429068Y105688D01*
X427808Y104846D01*
X427369Y104190D01*
X416872D01*
X416767Y104347D01*
X415507Y105189D01*
X414020Y105485D01*
X412533Y105189D01*
X411273Y104347D01*
X410431Y103087D01*
X410135Y101600D01*
X410431Y100113D01*
X411273Y98853D01*
X412533Y98011D01*
X414020Y97715D01*
X415507Y98011D01*
X416767Y98853D01*
X416872Y99010D01*
X428320D01*
X429068Y98511D01*
X430555Y98215D01*
X432041Y98511D01*
X433302Y99353D01*
X434144Y100613D01*
X434439Y102100D01*
X434144Y103586D01*
X433504Y104543D01*
X433649Y104831D01*
X434320Y105577D01*
X435535Y105335D01*
X437022Y105631D01*
X438282Y106473D01*
X439124Y107733D01*
X439420Y109220D01*
X439124Y110707D01*
X438282Y111967D01*
X437022Y112809D01*
X435535Y113105D01*
X434777Y112954D01*
X433261Y114469D01*
X432421Y115030D01*
X431430Y115228D01*
X416209D01*
X416105Y115385D01*
X414844Y116227D01*
X413358Y116523D01*
D02*
G37*
G36*
X327660Y114110D02*
X325737Y113856D01*
X323945Y113114D01*
X322407Y111933D01*
X321356Y110565D01*
X315396D01*
X313909Y110269D01*
X312649Y109427D01*
X309673Y106451D01*
X308831Y105191D01*
X308535Y103704D01*
Y61087D01*
X308831Y59600D01*
X309673Y58340D01*
X312649Y55364D01*
X313909Y54522D01*
X315396Y54226D01*
X318107D01*
X318191Y52956D01*
X317941Y52923D01*
X316691Y52759D01*
X314837Y51991D01*
X313245Y50770D01*
X312024Y49178D01*
X311256Y47324D01*
X310994Y45335D01*
Y38477D01*
X311256Y36488D01*
X312024Y34634D01*
X313205Y33095D01*
X313135Y32645D01*
X312857Y31825D01*
X306024D01*
X304974Y33194D01*
X303435Y34374D01*
X301643Y35116D01*
X299720Y35370D01*
X297797Y35116D01*
X296005Y34374D01*
X294466Y33194D01*
X293286Y31655D01*
X292544Y29863D01*
X292290Y27940D01*
X292544Y26017D01*
X293286Y24225D01*
X294466Y22687D01*
X296005Y21506D01*
X297797Y20764D01*
X299720Y20510D01*
X301643Y20764D01*
X303435Y21506D01*
X304974Y22687D01*
X306024Y24055D01*
X392511D01*
X393998Y24351D01*
X395258Y25193D01*
X396660Y26595D01*
X511856D01*
X512906Y25227D01*
X514445Y24046D01*
X516237Y23304D01*
X518160Y23050D01*
X520083Y23304D01*
X521875Y24046D01*
X523414Y25227D01*
X524594Y26765D01*
X525336Y28557D01*
X525590Y30480D01*
X525336Y32403D01*
X524594Y34195D01*
X523414Y35733D01*
X521875Y36914D01*
X520083Y37656D01*
X518160Y37910D01*
X516237Y37656D01*
X514445Y36914D01*
X512906Y35733D01*
X511856Y34365D01*
X396599D01*
X395751Y35635D01*
X396104Y36488D01*
X396366Y38477D01*
Y45335D01*
X396104Y47324D01*
X395336Y49178D01*
X394115Y50770D01*
X392523Y51991D01*
X390669Y52759D01*
X388680Y53021D01*
X386691Y52759D01*
X384837Y51991D01*
X383245Y50770D01*
X382024Y49178D01*
X381256Y47324D01*
X380994Y45335D01*
Y38477D01*
X381256Y36488D01*
X382024Y34634D01*
X383205Y33095D01*
X383135Y32645D01*
X382857Y31825D01*
X324503D01*
X324225Y32645D01*
X324155Y33095D01*
X325336Y34634D01*
X326104Y36488D01*
X326366Y38477D01*
Y45335D01*
X326104Y47324D01*
X325336Y49178D01*
X324115Y50770D01*
X322523Y51991D01*
X320669Y52759D01*
X319419Y52923D01*
X319169Y52956D01*
X319253Y54226D01*
X383152D01*
X384638Y54522D01*
X384658Y54535D01*
X399711D01*
X411986Y42260D01*
X413247Y41418D01*
X414733Y41122D01*
X462646D01*
X464132Y41418D01*
X465393Y42260D01*
X470561Y47428D01*
X472440Y47180D01*
X474363Y47434D01*
X476155Y48176D01*
X477693Y49356D01*
X478874Y50895D01*
X479616Y52687D01*
X479870Y54610D01*
X479616Y56533D01*
X478874Y58325D01*
X477693Y59864D01*
X476155Y61044D01*
X474363Y61786D01*
X472440Y62040D01*
X470517Y61786D01*
X468725Y61044D01*
X467187Y59864D01*
X466006Y58325D01*
X465264Y56533D01*
X465010Y54610D01*
X465214Y53068D01*
X461037Y48891D01*
X416342D01*
X404067Y61167D01*
X402807Y62009D01*
X401320Y62305D01*
X385621D01*
X384994Y63575D01*
X385891Y64743D01*
X386723Y66751D01*
X387006Y68906D01*
X386723Y71061D01*
X385891Y73069D01*
X384568Y74794D01*
X382843Y76117D01*
X380835Y76948D01*
X378680Y77232D01*
X376525Y76948D01*
X374517Y76117D01*
X372793Y74794D01*
X371469Y73069D01*
X370638Y71061D01*
X370354Y68906D01*
X370638Y66751D01*
X371469Y64743D01*
X372603Y63266D01*
X372217Y61996D01*
X335143D01*
X334757Y63266D01*
X335891Y64743D01*
X336723Y66751D01*
X337006Y68906D01*
X336723Y71061D01*
X335891Y73069D01*
X334568Y74794D01*
X332843Y76117D01*
X330835Y76948D01*
X328680Y77232D01*
X326525Y76948D01*
X324517Y76117D01*
X322793Y74794D01*
X321469Y73069D01*
X320638Y71061D01*
X320354Y68906D01*
X320638Y66751D01*
X321469Y64743D01*
X322603Y63266D01*
X322217Y61996D01*
X317005D01*
X316305Y62696D01*
Y102095D01*
X317005Y102795D01*
X321356D01*
X322407Y101426D01*
X323945Y100246D01*
X325737Y99504D01*
X327660Y99250D01*
X329583Y99504D01*
X331375Y100246D01*
X332914Y101426D01*
X334094Y102965D01*
X334836Y104757D01*
X335090Y106680D01*
X334836Y108603D01*
X334094Y110395D01*
X332914Y111933D01*
X331375Y113114D01*
X329583Y113856D01*
X327660Y114110D01*
D02*
G37*
G36*
X97320Y103870D02*
Y90170D01*
X107437D01*
Y92650D01*
X107050Y95597D01*
X105912Y98344D01*
X104102Y100702D01*
X101744Y102512D01*
X98997Y103649D01*
X97320Y103870D01*
D02*
G37*
G36*
X94780Y103870D02*
X93103Y103649D01*
X90356Y102512D01*
X87998Y100702D01*
X86188Y98344D01*
X85051Y95597D01*
X84663Y92650D01*
Y90170D01*
X94780D01*
Y103870D01*
D02*
G37*
G36*
X156070Y102670D02*
X136030D01*
Y75130D01*
X156070D01*
Y102670D01*
D02*
G37*
G36*
X121050Y102757D02*
X118434Y102412D01*
X115997Y101403D01*
X113904Y99796D01*
X112298Y97703D01*
X111288Y95266D01*
X110944Y92650D01*
Y85150D01*
X111288Y82534D01*
X112298Y80097D01*
X113904Y78004D01*
X115997Y76398D01*
X118434Y75388D01*
X121050Y75044D01*
X123666Y75388D01*
X126103Y76398D01*
X128196Y78004D01*
X129803Y80097D01*
X130812Y82534D01*
X131157Y85150D01*
Y92650D01*
X130812Y95266D01*
X129803Y97703D01*
X128196Y99796D01*
X126103Y101403D01*
X123666Y102412D01*
X121050Y102757D01*
D02*
G37*
G36*
X107437Y87630D02*
X97320D01*
Y73930D01*
X98997Y74151D01*
X101744Y75288D01*
X104102Y77098D01*
X105912Y79456D01*
X107050Y82203D01*
X107437Y85150D01*
Y87630D01*
D02*
G37*
G36*
X94780D02*
X84663D01*
Y85150D01*
X85051Y82203D01*
X86188Y79456D01*
X87998Y77098D01*
X90356Y75288D01*
X93103Y74151D01*
X94780Y73930D01*
Y87630D01*
D02*
G37*
G36*
X127000Y63978D02*
X125233Y63746D01*
X123586Y63064D01*
X122172Y61978D01*
X121087Y60564D01*
X120404Y58917D01*
X120172Y57150D01*
X120404Y55383D01*
X121087Y53736D01*
X122172Y52322D01*
X123586Y51236D01*
X125233Y50554D01*
X127000Y50322D01*
X128767Y50554D01*
X130414Y51236D01*
X131828Y52322D01*
X132914Y53736D01*
X133596Y55383D01*
X133828Y57150D01*
X133596Y58917D01*
X132914Y60564D01*
X131828Y61978D01*
X130414Y63064D01*
X128767Y63746D01*
X127000Y63978D01*
D02*
G37*
G36*
X91079D02*
X89312Y63746D01*
X87665Y63064D01*
X86251Y61978D01*
X85166Y60564D01*
X84483Y58917D01*
X84251Y57150D01*
X84483Y55383D01*
X85166Y53736D01*
X86251Y52322D01*
X87665Y51236D01*
X89312Y50554D01*
X91079Y50322D01*
X92846Y50554D01*
X94493Y51236D01*
X95907Y52322D01*
X96993Y53736D01*
X97675Y55383D01*
X97907Y57150D01*
X97675Y58917D01*
X96993Y60564D01*
X95907Y61978D01*
X94493Y63064D01*
X92846Y63746D01*
X91079Y63978D01*
D02*
G37*
G36*
X33020Y50767D02*
Y33020D01*
X50767D01*
X50524Y35484D01*
X49435Y39075D01*
X47666Y42385D01*
X45286Y45286D01*
X42385Y47666D01*
X39076Y49435D01*
X35484Y50524D01*
X33020Y50767D01*
D02*
G37*
G36*
X135040Y29269D02*
X128270D01*
Y22499D01*
X135040D01*
Y29269D01*
D02*
G37*
G36*
X125730D02*
X118960D01*
Y22499D01*
X125730D01*
Y29269D01*
D02*
G37*
%LPD*%
D10*
X414733Y45007D02*
X462646D01*
X472249Y54610D01*
X472440D01*
X653655Y391119D02*
X659130Y385644D01*
Y335190D02*
Y385644D01*
X406758Y391119D02*
X629628D01*
X657860Y317813D02*
Y333920D01*
X629628Y391119D02*
X653655D01*
X657860Y333920D02*
X659130Y335190D01*
X362072Y400050D02*
X397827D01*
X361353Y399331D02*
X362072Y400050D01*
X397827D02*
X406758Y391119D01*
X60960Y452120D02*
X86360D01*
X60960Y181610D02*
Y452120D01*
X50800Y171450D02*
X60960Y181610D01*
X139518Y134620D02*
X190500D01*
X136760Y137378D02*
X139518Y134620D01*
X119996Y137378D02*
X136760D01*
X250190Y168910D02*
X340360D01*
X585288D01*
X604338Y187960D01*
X180340D02*
X231140D01*
X250190Y168910D01*
X224798Y171300D02*
X238618Y157480D01*
X397728D02*
X398026Y157182D01*
X401618D02*
X402590Y156210D01*
X398026Y157182D02*
X401618D01*
X238618Y157480D02*
X397728D01*
X604338Y187960D02*
X604520D01*
X299720Y27940D02*
X392511D01*
X395051Y30480D01*
X518160D01*
X216082Y114300D02*
X236402Y134620D01*
X571500D01*
X215900Y114300D02*
X216082D01*
X315396Y106680D02*
X327660D01*
X312420Y61087D02*
Y103704D01*
X315396Y106680D01*
Y58111D02*
X383152D01*
X312420Y61087D02*
X315396Y58111D01*
X383152D02*
X383461Y58420D01*
X401320D01*
X414733Y45007D01*
X117674Y139700D02*
Y141624D01*
X74026Y139700D02*
X117674D01*
X114300Y144999D02*
X117674Y141624D01*
X114300Y144999D02*
Y241300D01*
X71050Y136724D02*
X74026Y139700D01*
X71050Y88900D02*
Y136724D01*
D63*
X328680Y68906D02*
D03*
X378680D02*
D03*
D64*
X318680Y41906D02*
D03*
X388680D02*
D03*
D76*
X472440Y54610D02*
D03*
X361353Y399331D02*
D03*
X629628Y391119D02*
D03*
X190500Y134620D02*
D03*
X340360Y168910D02*
D03*
X657860Y317813D02*
D03*
X299720Y27940D02*
D03*
X518160Y30480D02*
D03*
X571500Y134620D02*
D03*
X327660Y106680D02*
D03*
X604520Y187960D02*
D03*
X117674Y139700D02*
D03*
X180340Y187960D02*
D03*
X50800Y171450D02*
D03*
X114300Y241300D02*
D03*
X215900Y114300D02*
D03*
D77*
X121920Y152400D02*
X130124Y144196D01*
X383287D01*
X382697Y188931D02*
Y232427D01*
X533179Y382909D01*
X431430Y112638D02*
X434848Y109220D01*
X413358Y112638D02*
X431430D01*
X434848Y109220D02*
X435535D01*
X635973Y339090D02*
X647426Y327637D01*
X648249Y334432D02*
Y343754D01*
X609301Y339090D02*
X635973D01*
X648032Y334215D02*
X648249Y334432D01*
X647426Y311424D02*
Y327637D01*
X644204Y347799D02*
X648249Y343754D01*
X587211Y347799D02*
X644204D01*
X587030Y347980D02*
X587211Y347799D01*
X260890Y201931D02*
X260891Y201930D01*
X289560D01*
X529590Y334010D02*
X576631Y381051D01*
X638475D01*
X577320Y336036D02*
X606246D01*
X609301Y339090D01*
X407140Y399717D02*
X623545D01*
X630228Y406400D01*
X402038Y377190D02*
X457360D01*
X650875Y262890D02*
X651510Y262255D01*
X495300Y203200D02*
Y255270D01*
X509270Y269240D01*
X577850Y262890D02*
X650875D01*
X509270Y269240D02*
X632460D01*
X414020Y101600D02*
X430055D01*
X430555Y102100D01*
X496570Y290830D02*
Y308610D01*
X461010Y255270D02*
X496570Y290830D01*
X462369Y191770D02*
Y235039D01*
X501650Y274320D01*
X598170D01*
X496570Y308610D02*
X521970Y334010D01*
X529590D01*
X519031Y318770D02*
X621030D01*
X630228Y406400D02*
X679450D01*
X629920Y411480D02*
Y424180D01*
X623369Y404929D02*
X629920Y411480D01*
X526849Y404929D02*
X623369D01*
X341630Y254000D02*
X349250D01*
X289560Y201930D02*
X341630Y254000D01*
X353643Y274320D02*
X354913Y275590D01*
X167640Y246380D02*
X325120D01*
X354913Y275590D02*
X355600D01*
X325120Y246380D02*
X353060Y274320D01*
X353643D01*
X355600Y311150D02*
Y325120D01*
X309880Y265430D02*
X355600Y311150D01*
X284480Y265430D02*
X309880D01*
X146050Y254000D02*
X321310D01*
X355600Y288290D01*
X154940Y259080D02*
X313690D01*
X355600Y300990D01*
X162306Y196596D02*
X233934D01*
X161290Y195580D02*
X162306Y196596D01*
X132080Y160020D02*
X142240Y149860D01*
X386914D02*
X387401Y149373D01*
X391944D02*
X392430Y148888D01*
X387401Y149373D02*
X391944D01*
X142240Y149860D02*
X386914D01*
X233934Y196596D02*
X248920Y181610D01*
X369570D01*
X519430D01*
X365760Y185420D02*
X369570Y181610D01*
X365760Y185420D02*
Y261620D01*
X392430Y189230D02*
Y234615D01*
X425450Y205740D02*
X444500Y186690D01*
X518160D02*
X543560Y212090D01*
X444500Y186690D02*
X518160D01*
X519430Y181610D02*
X539750Y201930D01*
X678180D02*
X679450Y203200D01*
X539750Y201930D02*
X678180D01*
X543560Y212090D02*
Y223520D01*
X546100Y226060D01*
X664210Y238760D02*
X679450Y254000D01*
X575310Y238760D02*
X664210D01*
X676910Y226060D02*
X679450Y228600D01*
X546100Y226060D02*
X676910D01*
X392430Y234615D02*
X531914Y374099D01*
X637540Y431800D02*
X679450D01*
X629920Y424180D02*
X637540Y431800D01*
X444500Y276860D02*
X532130Y364490D01*
X444500Y205740D02*
Y276860D01*
X453856Y273516D02*
X532130Y351790D01*
X453856Y199351D02*
Y273516D01*
X621030Y318770D02*
X627583Y325323D01*
X647426Y311424D02*
X679450Y279400D01*
D79*
X187960Y452120D02*
D03*
D80*
X162560D02*
D03*
X137160D02*
D03*
X111760D02*
D03*
X86360D02*
D03*
X60960D02*
D03*
D81*
X679450Y254000D02*
D03*
Y228600D02*
D03*
Y203200D02*
D03*
Y431800D02*
D03*
Y406400D02*
D03*
Y381000D02*
D03*
Y355600D02*
D03*
Y330200D02*
D03*
Y304800D02*
D03*
Y279400D02*
D03*
Y177800D02*
D03*
D82*
X96050Y88900D02*
D03*
X121050D02*
D03*
X71050D02*
D03*
D83*
X146050D02*
D03*
D84*
X91079Y21229D02*
D03*
Y57150D02*
D03*
X127000D02*
D03*
D85*
Y21229D02*
D03*
D86*
X31750Y31750D02*
D03*
X641350Y450850D02*
D03*
D87*
X679450Y457200D02*
D03*
D88*
X383287Y144196D02*
D03*
X382697Y188931D02*
D03*
X413358Y112638D02*
D03*
X648032Y334215D02*
D03*
X260890Y201931D02*
D03*
X638475Y381051D02*
D03*
X577320Y336036D02*
D03*
X533179Y382909D02*
D03*
X407140Y399717D02*
D03*
X402038Y377190D02*
D03*
X577850Y262890D02*
D03*
X435535Y109220D02*
D03*
X430555Y102100D02*
D03*
X457360Y377190D02*
D03*
X461010Y255270D02*
D03*
X519031Y318770D02*
D03*
X349250Y254000D02*
D03*
X355600Y325120D02*
D03*
X284480Y265430D02*
D03*
X146050Y254000D02*
D03*
X154940Y259080D02*
D03*
X161290Y195580D02*
D03*
X355600Y288290D02*
D03*
X167640Y246380D02*
D03*
X355600Y300990D02*
D03*
Y275590D02*
D03*
X365760Y261620D02*
D03*
X392430Y189230D02*
D03*
Y148888D02*
D03*
X462369Y191770D02*
D03*
X425450Y205740D02*
D03*
X575310Y238760D02*
D03*
X587030Y347980D02*
D03*
X526849Y404929D02*
D03*
X532130Y364490D02*
D03*
X531914Y374099D02*
D03*
X627583Y325323D02*
D03*
X532130Y351790D02*
D03*
X598170Y274320D02*
D03*
X651510Y262255D02*
D03*
X632460Y269240D02*
D03*
X495300Y203200D02*
D03*
X444500Y205740D02*
D03*
X453856Y199351D02*
D03*
X414020Y101600D02*
D03*
X132080Y160020D02*
D03*
X121920Y152400D02*
D03*
D89*
X402590Y156210D02*
D03*
X224798Y171300D02*
D03*
D90*
X318680Y38477D02*
Y45335D01*
X388680Y38477D02*
Y45335D01*
M02*
