M48
;Layer_Color=9474304
;FILE_FORMAT=4:4
METRIC,LZ
;TYPE=PLATED
T1F00S00C0.3048
T2F00S00C0.5080
T3F00S00C0.6604
T5F00S00C0.7000
T6F00S00C0.8890
T7F00S00C0.9000
T8F00S00C1.1000
T9F00S00C2.0320
%
T01
X0012192Y001524
X0013208Y0016002
X0016129Y0019558
X0016764Y0024638
X0015494Y0025908
X0014605Y00254
X0028448Y0026543
X0034925Y00254
X0036576Y0026162
X003556Y0027559
Y0028829
Y0030099
X003556Y0032512
X00382697Y00188931
X0039243Y0018923
Y00148888
X00383287Y00144196
X00413358Y00112638
X0041402Y001016
X00430555Y001021
X00435535Y0010922
X004445Y0020574
X00453856Y00199351
X00462369Y0019177
X004953Y002032
X0042545Y0020574
X0046101Y0025527
X0026089Y00201931
X0057531Y0023876
X0057785Y0026289
X0059817Y0027432
X0063246Y0026924
X0065151Y00262255
X00648032Y00334215
X00627583Y00325323
X0057732Y00336036
X0058703Y0034798
X0053213Y0035179
X0053213Y0036449
X00519031Y0031877
X00531914Y00374099
X00533179Y00382909
X00526849Y00404929
X00638475Y00381051
X0045736Y0037719
X00402038
X0040714Y00399717
T02
X00224798Y001713
X0040259Y0015621
T03
X000508Y0017145
X00117674Y001397
X001905Y0013462
X002159Y001143
X0018034Y0018796
X001143Y002413
X0034036Y0016891
X0032766Y0010668
X0029972Y0002794
X0047244Y0005461
X0051816Y0003048
X005715Y0013462
X0060452Y0018796
X0065786Y00317813
X00629628Y00391119
X00361353Y00399331
T05
X00091079Y00021229
Y0005715
X00127
Y00021229
T06
X0032868Y00068906
X0037868
T07
X0007105Y000889
X0009605
X0012105
X0014605
X0013716Y0045212
X0016256
X0018796
X0011176
X0008636
X0006096
T08
X0067945Y001778
Y002032
Y002286
Y00254
Y002794
Y003048
Y003302
Y003556
Y00381
Y004064
Y004318
Y004572
T09
X0003175Y0003175
X0064135Y0045085
M30
