G04*
G04 #@! TF.GenerationSoftware,Altium Limited,Altium Designer,23.3.1 (30)*
G04*
G04 Layer_Color=8355584*
%FSLAX44Y44*%
%MOMM*%
G71*
G04*
G04 #@! TF.SameCoordinates,049E622D-B5B7-477E-837E-60E0A1272B7F*
G04*
G04*
G04 #@! TF.FilePolarity,Positive*
G04*
G01*
G75*
%ADD17R,0.4572X1.3970*%
%ADD18R,1.5494X1.9558*%
%ADD19R,0.4064X1.2192*%
%ADD20R,2.0066X0.8890*%
%ADD21R,0.8890X2.0066*%
%ADD22R,1.3208X1.3208*%
%ADD23R,1.4986X3.4036*%
%ADD24R,0.9906X3.5052*%
%ADD25R,0.6096X1.0414*%
%ADD26R,0.4000X0.5000*%
%ADD27R,0.8500X0.9500*%
%ADD28R,0.9000X1.0000*%
%ADD29R,0.9500X0.8500*%
%ADD30R,0.9000X0.8000*%
%ADD31R,0.5334X1.1430*%
%ADD32R,0.6096X1.1430*%
%ADD33R,0.8000X0.9000*%
%ADD34R,0.8000X0.8000*%
%ADD35R,0.4064X0.5080*%
%ADD36R,1.5240X0.5588*%
%ADD37R,1.0000X0.9000*%
%ADD38R,1.2500X1.6500*%
%ADD39R,0.8000X0.8000*%
%ADD40R,0.5588X1.3208*%
%ADD41R,1.2000X1.2000*%
%ADD42R,1.2000X1.2000*%
%ADD43R,0.0254X0.0254*%
%ADD44R,0.2540X0.8128*%
%ADD45R,0.8128X0.2540*%
G36*
X90551Y216789D02*
X85598Y212344D01*
Y209296D01*
X79502D01*
Y212344D01*
X74549Y216789D01*
Y248158D01*
X90551D01*
Y216789D01*
D02*
G37*
G36*
X482870Y88956D02*
X470900D01*
Y100926D01*
X482870D01*
Y88956D01*
D02*
G37*
G36*
X468900D02*
X456930D01*
Y100926D01*
X468900D01*
Y88956D01*
D02*
G37*
G36*
X482870Y74986D02*
X470900D01*
Y86956D01*
X482870D01*
Y74986D01*
D02*
G37*
G36*
X468900D02*
X456930D01*
Y86956D01*
X468900D01*
Y74986D01*
D02*
G37*
D17*
X340680Y68906D02*
D03*
X347180D02*
D03*
X353680D02*
D03*
X360180D02*
D03*
X366680D02*
D03*
D18*
X343680Y41906D02*
D03*
X363680D02*
D03*
D19*
X637460Y311531D02*
D03*
X627460D02*
D03*
X632460Y295529D02*
D03*
X600710D02*
D03*
X595710Y311531D02*
D03*
X605710D02*
D03*
D20*
X382943Y402590D02*
D03*
Y389890D02*
D03*
Y377190D02*
D03*
Y364490D02*
D03*
Y351790D02*
D03*
Y339090D02*
D03*
Y326390D02*
D03*
Y313690D02*
D03*
Y300990D02*
D03*
Y288290D02*
D03*
Y275590D02*
D03*
Y262890D02*
D03*
Y250190D02*
D03*
Y237490D02*
D03*
X552943Y402590D02*
D03*
Y389890D02*
D03*
Y377190D02*
D03*
Y364490D02*
D03*
Y351790D02*
D03*
Y339090D02*
D03*
Y326390D02*
D03*
Y313690D02*
D03*
Y300990D02*
D03*
Y288290D02*
D03*
Y275590D02*
D03*
Y262890D02*
D03*
Y250190D02*
D03*
Y237490D02*
D03*
D21*
X410793Y223078D02*
D03*
X423493D02*
D03*
X436193D02*
D03*
X448893D02*
D03*
X461593D02*
D03*
X474293D02*
D03*
X486993D02*
D03*
X499693D02*
D03*
X512393D02*
D03*
X525093D02*
D03*
D22*
X439550Y323150D02*
D03*
X457900D02*
D03*
X476250D02*
D03*
X439550Y341500D02*
D03*
X457900D02*
D03*
X476250D02*
D03*
X439550Y304800D02*
D03*
X457900D02*
D03*
X476250D02*
D03*
D23*
X281150Y29203D02*
D03*
X214150D02*
D03*
D24*
X257650Y86703D02*
D03*
X237650D02*
D03*
D25*
X174202Y171450D02*
D03*
X143298D02*
D03*
X67098D02*
D03*
X98002D02*
D03*
X631402Y31750D02*
D03*
X600498D02*
D03*
D26*
X108140Y114920D02*
D03*
X100140D02*
D03*
Y128920D02*
D03*
X108140D02*
D03*
D27*
X209400Y152400D02*
D03*
X222400D02*
D03*
X222400Y133350D02*
D03*
X209400D02*
D03*
X342750Y222250D02*
D03*
X355750D02*
D03*
X660550Y127000D02*
D03*
X647550D02*
D03*
X609270Y214610D02*
D03*
X596270D02*
D03*
X600560Y382270D02*
D03*
X613560D02*
D03*
X600560Y401320D02*
D03*
X613560D02*
D03*
D28*
X208098Y217532D02*
D03*
X249098D02*
D03*
X208098Y201532D02*
D03*
X249098D02*
D03*
X636453Y347618D02*
D03*
X595453D02*
D03*
X636453Y363618D02*
D03*
X595453D02*
D03*
D29*
X209550Y184300D02*
D03*
Y171300D02*
D03*
X120650Y190650D02*
D03*
Y177650D02*
D03*
X501650Y31600D02*
D03*
Y44600D02*
D03*
X553720Y90020D02*
D03*
Y103020D02*
D03*
X654050Y37950D02*
D03*
Y50950D02*
D03*
X600710Y252580D02*
D03*
Y265580D02*
D03*
X619760Y252580D02*
D03*
Y265580D02*
D03*
X425450Y158900D02*
D03*
Y145900D02*
D03*
X539750Y158600D02*
D03*
Y171600D02*
D03*
X615950Y158600D02*
D03*
Y171600D02*
D03*
X577850Y349100D02*
D03*
Y362100D02*
D03*
D30*
X133350Y228700D02*
D03*
Y241200D02*
D03*
X44450Y190600D02*
D03*
Y203100D02*
D03*
X81280Y128170D02*
D03*
Y115670D02*
D03*
X575310Y202030D02*
D03*
Y214530D02*
D03*
X457200Y31850D02*
D03*
Y44350D02*
D03*
X438150Y31850D02*
D03*
Y44350D02*
D03*
X654050Y361850D02*
D03*
Y349350D02*
D03*
X132080Y128170D02*
D03*
Y115670D02*
D03*
D31*
X67550Y240919D02*
D03*
X97550D02*
D03*
Y203581D02*
D03*
X67550D02*
D03*
D32*
X82550D02*
D03*
D33*
X330300Y381000D02*
D03*
X342800D02*
D03*
X330300Y400050D02*
D03*
X342800D02*
D03*
X571400Y38100D02*
D03*
X558900D02*
D03*
X412850Y87956D02*
D03*
X425350D02*
D03*
X412850Y72716D02*
D03*
X425350D02*
D03*
D34*
X482678Y30663D02*
D03*
Y45663D02*
D03*
X425450Y191650D02*
D03*
Y176650D02*
D03*
D35*
X565300Y74041D02*
D03*
X552300D02*
D03*
X558800Y52959D02*
D03*
D36*
X612394Y53500D02*
D03*
Y73500D02*
D03*
X590550Y63500D02*
D03*
D37*
X646068Y68397D02*
D03*
Y109397D02*
D03*
X662068Y68397D02*
D03*
Y109397D02*
D03*
D38*
X588750Y120650D02*
D03*
X554250D02*
D03*
D39*
X643770Y214610D02*
D03*
X628770D02*
D03*
X357540Y241300D02*
D03*
X342540D02*
D03*
D40*
X587350Y151608D02*
D03*
X568350D02*
D03*
Y173512D02*
D03*
X577850D02*
D03*
X587350D02*
D03*
D41*
X392950Y94306D02*
D03*
X313610D02*
D03*
D42*
X364350D02*
D03*
X342210D02*
D03*
D43*
X469900Y87956D02*
D03*
D44*
X457397Y107895D02*
D03*
X462398D02*
D03*
X467399D02*
D03*
X472401D02*
D03*
X477402D02*
D03*
X482403D02*
D03*
Y68017D02*
D03*
X477402D02*
D03*
X472401D02*
D03*
X467399D02*
D03*
X462398D02*
D03*
X457397D02*
D03*
D45*
X489839Y100459D02*
D03*
Y95458D02*
D03*
Y90457D02*
D03*
Y85455D02*
D03*
Y80454D02*
D03*
Y75453D02*
D03*
X449961D02*
D03*
Y80454D02*
D03*
Y85455D02*
D03*
Y90457D02*
D03*
Y95458D02*
D03*
Y100459D02*
D03*
M02*
