G04*
G04 #@! TF.GenerationSoftware,Altium Limited,Altium Designer,23.3.1 (30)*
G04*
G04 Layer_Color=32639*
%FSLAX44Y44*%
%MOMM*%
G71*
G04*
G04 #@! TF.SameCoordinates,049E622D-B5B7-477E-837E-60E0A1272B7F*
G04*
G04*
G04 #@! TF.FilePolarity,Negative*
G04*
G01*
G75*
%ADD63C,1.3970*%
%ADD64O,1.2700X1.9558*%
%ADD65R,1.7032X1.7032*%
%ADD66C,1.7032*%
%ADD67C,2.2032*%
%ADD68O,1.9532X2.7032*%
%ADD69R,1.9532X2.7032*%
%ADD70C,1.3032*%
%ADD71R,1.3032X1.3032*%
%ADD72C,3.5052*%
%ADD73R,2.2032X2.2032*%
%ADD74C,0.7112*%
%ADD75C,1.4224*%
%ADD76C,1.2192*%
D63*
X328680Y68906D02*
D03*
X378680D02*
D03*
D64*
X318680Y41906D02*
D03*
X388680D02*
D03*
D65*
X187960Y452120D02*
D03*
D66*
X162560D02*
D03*
X137160D02*
D03*
X111760D02*
D03*
X86360D02*
D03*
X60960D02*
D03*
D67*
X679450Y254000D02*
D03*
Y228600D02*
D03*
Y203200D02*
D03*
Y431800D02*
D03*
Y406400D02*
D03*
Y381000D02*
D03*
Y355600D02*
D03*
Y330200D02*
D03*
Y304800D02*
D03*
Y279400D02*
D03*
Y177800D02*
D03*
D68*
X96050Y88900D02*
D03*
X121050D02*
D03*
X71050D02*
D03*
D69*
X146050D02*
D03*
D70*
X91079Y21229D02*
D03*
Y57150D02*
D03*
X127000D02*
D03*
D71*
Y21229D02*
D03*
D72*
X31750Y31750D02*
D03*
X641350Y450850D02*
D03*
D73*
X679450Y457200D02*
D03*
D74*
X383287Y144196D02*
D03*
X382697Y188931D02*
D03*
X413358Y112638D02*
D03*
X648032Y334215D02*
D03*
X260890Y201931D02*
D03*
X638475Y381051D02*
D03*
X577320Y336036D02*
D03*
X533179Y382909D02*
D03*
X407140Y399717D02*
D03*
X402038Y377190D02*
D03*
X577850Y262890D02*
D03*
X435535Y109220D02*
D03*
X430555Y102100D02*
D03*
X457360Y377190D02*
D03*
X461010Y255270D02*
D03*
X519031Y318770D02*
D03*
X349250Y254000D02*
D03*
X355600Y325120D02*
D03*
X284480Y265430D02*
D03*
X146050Y254000D02*
D03*
X154940Y259080D02*
D03*
X161290Y195580D02*
D03*
X355600Y288290D02*
D03*
X167640Y246380D02*
D03*
X355600Y300990D02*
D03*
Y275590D02*
D03*
X365760Y261620D02*
D03*
X392430Y189230D02*
D03*
Y148888D02*
D03*
X462369Y191770D02*
D03*
X425450Y205740D02*
D03*
X575310Y238760D02*
D03*
X587030Y347980D02*
D03*
X526849Y404929D02*
D03*
X532130Y364490D02*
D03*
X531914Y374099D02*
D03*
X627583Y325323D02*
D03*
X532130Y351790D02*
D03*
X598170Y274320D02*
D03*
X651510Y262255D02*
D03*
X632460Y269240D02*
D03*
X495300Y203200D02*
D03*
X444500Y205740D02*
D03*
X453856Y199351D02*
D03*
X414020Y101600D02*
D03*
X132080Y160020D02*
D03*
X121920Y152400D02*
D03*
D75*
X472440Y54610D02*
D03*
X361353Y399331D02*
D03*
X629628Y391119D02*
D03*
X190500Y134620D02*
D03*
X340360Y168910D02*
D03*
X657860Y317813D02*
D03*
X299720Y27940D02*
D03*
X518160Y30480D02*
D03*
X571500Y134620D02*
D03*
X327660Y106680D02*
D03*
X604520Y187960D02*
D03*
X117674Y139700D02*
D03*
X180340Y187960D02*
D03*
X50800Y171450D02*
D03*
X114300Y241300D02*
D03*
X215900Y114300D02*
D03*
D76*
X402590Y156210D02*
D03*
X224798Y171300D02*
D03*
M02*
