G04*
G04 #@! TF.GenerationSoftware,Altium Limited,Altium Designer,22.7.1 (60)*
G04*
G04 Layer_Color=32639*
%FSLAX44Y44*%
%MOMM*%
G71*
G04*
G04 #@! TF.SameCoordinates,D0082332-17C0-48B4-9EBD-708ECFB17097*
G04*
G04*
G04 #@! TF.FilePolarity,Negative*
G04*
G01*
G75*
%ADD109C,7.2032*%
%ADD110O,2.3032X1.2532*%
%ADD111C,0.8532*%
%ADD112O,2.2032X1.7032*%
%ADD113R,2.2032X1.7032*%
%ADD114C,1.7000*%
%ADD115R,1.7000X1.7000*%
%ADD116C,1.5032*%
%ADD117C,1.7032*%
%ADD118R,1.7032X1.7032*%
%ADD119O,3.2032X2.2032*%
%ADD120R,2.7032X1.7032*%
%ADD121O,2.7032X1.7032*%
%ADD122R,1.8032X2.4532*%
%ADD123O,1.8032X2.4532*%
%ADD124C,2.2032*%
%ADD125R,2.2032X2.2032*%
%ADD126C,0.7032*%
%ADD127C,1.1176*%
%ADD128C,1.4732*%
D109*
X172720Y849376D02*
D03*
X942980Y279910D02*
D03*
X416560Y86360D02*
D03*
D110*
X527300Y242550D02*
D03*
Y328950D02*
D03*
X485500Y242550D02*
D03*
Y328950D02*
D03*
D111*
X490500Y314650D02*
D03*
Y256850D02*
D03*
D112*
X271780Y403540D02*
D03*
Y423540D02*
D03*
Y383540D02*
D03*
D113*
Y443540D02*
D03*
D114*
X690880Y379476D02*
D03*
D115*
X665480D02*
D03*
D116*
X497600Y75700D02*
D03*
Y13200D02*
D03*
D117*
X706120Y594360D02*
D03*
X680720D02*
D03*
D118*
X655320D02*
D03*
D119*
X45720Y638556D02*
D03*
Y587756D02*
D03*
Y663956D02*
D03*
Y613156D02*
D03*
D120*
X33020Y735236D02*
D03*
X38100Y341950D02*
D03*
D121*
X33020Y755236D02*
D03*
X38100Y521950D02*
D03*
Y501950D02*
D03*
Y461950D02*
D03*
Y441950D02*
D03*
Y361950D02*
D03*
Y381950D02*
D03*
Y401950D02*
D03*
Y421950D02*
D03*
Y481950D02*
D03*
D122*
X58570Y829116D02*
D03*
D123*
X33170D02*
D03*
D124*
X107950Y527050D02*
D03*
Y501650D02*
D03*
Y476250D02*
D03*
Y450850D02*
D03*
Y425450D02*
D03*
Y400050D02*
D03*
Y374650D02*
D03*
Y349250D02*
D03*
Y323850D02*
D03*
Y298450D02*
D03*
Y273050D02*
D03*
X957580Y773176D02*
D03*
Y747776D02*
D03*
Y722376D02*
D03*
Y696976D02*
D03*
Y671576D02*
D03*
Y646176D02*
D03*
Y620776D02*
D03*
Y595376D02*
D03*
Y569976D02*
D03*
Y544576D02*
D03*
Y519176D02*
D03*
D125*
X107950Y552450D02*
D03*
X957580Y798576D02*
D03*
D126*
X254000Y500380D02*
D03*
X262890Y295910D02*
D03*
X250190Y302260D02*
D03*
X679450Y754380D02*
D03*
X646430Y720090D02*
D03*
X543560Y610616D02*
D03*
X554990Y642620D02*
D03*
X481330Y525780D02*
D03*
X419100Y387350D02*
D03*
X889000Y412750D02*
D03*
X826770Y340360D02*
D03*
X929894Y609600D02*
D03*
X929640Y571500D02*
D03*
X883920Y487680D02*
D03*
X843280Y509270D02*
D03*
Y571500D02*
D03*
X868680Y547370D02*
D03*
Y570230D02*
D03*
X910590Y600710D02*
D03*
X941070Y656590D02*
D03*
X894080Y584200D02*
D03*
X770890Y737870D02*
D03*
X618490Y741680D02*
D03*
X731520Y732790D02*
D03*
X778510Y718820D02*
D03*
X441960Y625856D02*
D03*
X902970Y476250D02*
D03*
X861060Y384810D02*
D03*
X909320Y654050D02*
D03*
X875030D02*
D03*
X488950Y563880D02*
D03*
X702310Y717550D02*
D03*
X666750Y629920D02*
D03*
X737870Y643890D02*
D03*
X304464Y356870D02*
D03*
X392120Y331216D02*
D03*
X366720Y341376D02*
D03*
X694690Y563880D02*
D03*
X718820Y707390D02*
D03*
X356870Y666750D02*
D03*
X365760Y511810D02*
D03*
X406400D02*
D03*
X398780Y534670D02*
D03*
X447040Y332232D02*
D03*
X843280Y361950D02*
D03*
X835660Y354330D02*
D03*
X283210Y525780D02*
D03*
X462280Y274346D02*
D03*
X455930Y302260D02*
D03*
X374650Y579120D02*
D03*
Y651510D02*
D03*
X727710Y642620D02*
D03*
X731886Y656224D02*
D03*
X795020Y655320D02*
D03*
X455930Y471170D02*
D03*
X448310Y486410D02*
D03*
X441960Y530860D02*
D03*
X481330Y427990D02*
D03*
X548640D02*
D03*
X612140Y415290D02*
D03*
X717550Y386080D02*
D03*
X858520Y650240D02*
D03*
X744220Y420370D02*
D03*
X589280Y477520D02*
D03*
X582930Y485140D02*
D03*
X850900Y474980D02*
D03*
X556260Y388620D02*
D03*
X572030Y491490D02*
D03*
X576580Y500380D02*
D03*
X751840Y412750D02*
D03*
X773317D02*
D03*
X762000Y392430D02*
D03*
X582930Y395224D02*
D03*
X463550Y500380D02*
D03*
Y491490D02*
D03*
X346710Y388620D02*
D03*
Y525780D02*
D03*
X321310Y320040D02*
D03*
X391160Y557530D02*
D03*
X574040Y359410D02*
D03*
X447040D02*
D03*
X438150Y368300D02*
D03*
X635000Y614680D02*
D03*
X584200D02*
D03*
X622300Y621284D02*
D03*
X438150Y593090D02*
D03*
X250190Y623570D02*
D03*
X227330Y567690D02*
D03*
X617002Y779780D02*
D03*
X618490Y759986D02*
D03*
X562621Y726647D02*
D03*
X601980Y726440D02*
D03*
X883920Y598170D02*
D03*
X491490Y633730D02*
D03*
X635000Y657860D02*
D03*
X727710Y678180D02*
D03*
Y669290D02*
D03*
X430530Y657860D02*
D03*
X434340Y539750D02*
D03*
X600710Y657860D02*
D03*
X466090Y636270D02*
D03*
Y693420D02*
D03*
X513080Y618490D02*
D03*
X499110Y612140D02*
D03*
X505206Y618744D02*
D03*
X492760Y625094D02*
D03*
X499110Y664210D02*
D03*
X768350Y669290D02*
D03*
X505460Y671830D02*
D03*
X513080Y643890D02*
D03*
X688340Y673100D02*
D03*
X721360Y582930D02*
D03*
X750570Y561340D02*
D03*
X850900Y770890D02*
D03*
X824230Y762000D02*
D03*
X779780Y678180D02*
D03*
X796290Y727928D02*
D03*
X732790Y781050D02*
D03*
X857250Y678180D02*
D03*
X435610Y482600D02*
D03*
X453390Y547370D02*
D03*
X764540Y629920D02*
D03*
X773430Y607060D02*
D03*
X864870Y745490D02*
D03*
X356870Y299720D02*
D03*
X311150Y314960D02*
D03*
X345440Y300990D02*
D03*
X340360Y518160D02*
D03*
Y443230D02*
D03*
Y311150D02*
D03*
X392430Y715010D02*
D03*
X330200D02*
D03*
Y313690D02*
D03*
X311150Y643890D02*
D03*
X429260Y271780D02*
D03*
X576580Y401320D02*
D03*
X271780Y289560D02*
D03*
X863600Y400050D02*
D03*
X876300Y584200D02*
D03*
X875030Y720090D02*
D03*
X233934Y593090D02*
D03*
X220980Y539750D02*
D03*
X292100Y698500D02*
D03*
X584200Y593090D02*
D03*
X734060Y694690D02*
D03*
X622300Y567690D02*
D03*
X791210Y693420D02*
D03*
X156210Y685800D02*
D03*
X156530Y538160D02*
D03*
X894080Y533400D02*
D03*
X900430Y681990D02*
D03*
X887730Y707390D02*
D03*
X905510Y669290D02*
D03*
X777240Y572770D02*
D03*
X596900Y372110D02*
D03*
D127*
X129540Y394970D02*
D03*
X144780Y207010D02*
D03*
X521970Y406400D02*
D03*
X497670Y697230D02*
D03*
X497840Y746760D02*
D03*
X812800Y535940D02*
D03*
X914400Y468018D02*
D03*
X852170Y381000D02*
D03*
X951230Y368300D02*
D03*
X538480Y464820D02*
D03*
X544830Y440690D02*
D03*
X420370Y339598D02*
D03*
X565150D02*
D03*
X850900Y462280D02*
D03*
X836930Y594360D02*
D03*
X598170Y440690D02*
D03*
X565150Y378460D02*
D03*
X321310Y781050D02*
D03*
X601980Y864870D02*
D03*
X331470Y746760D02*
D03*
X142240Y740410D02*
D03*
X427990Y462280D02*
D03*
X703580Y689610D02*
D03*
X549910Y410210D02*
D03*
X607060Y538480D02*
D03*
Y593090D02*
D03*
X142240Y609164D02*
D03*
X914400Y530860D02*
D03*
X580390Y571500D02*
D03*
X485140Y403860D02*
D03*
X515620Y299720D02*
D03*
X495300D02*
D03*
D128*
X855980Y279400D02*
D03*
X840740Y316230D02*
D03*
X298450Y457200D02*
D03*
X788670Y335280D02*
D03*
X782320Y307340D02*
D03*
X886460Y313690D02*
D03*
X774700Y345440D02*
D03*
X582930Y734060D02*
D03*
X297180Y373380D02*
D03*
X149860Y45720D02*
D03*
X345440Y256540D02*
D03*
X241300Y812800D02*
D03*
Y139700D02*
D03*
X383540Y208280D02*
D03*
X297180Y256540D02*
D03*
Y55880D02*
D03*
X149860Y88900D02*
D03*
M02*
