M48
;Layer_Color=9474304
;FILE_FORMAT=4:4
METRIC,LZ
;TYPE=PLATED
T1F00S00C0.3000
T2F00S00C0.5080
T4F00S00C0.7000
T5F00S00C0.8000
T6F00S00C0.9500
T7F00S00C1.1000
T8F00S00C1.1000
T9F00S00C1.2000
T10F00S00C3.0000
;TYPE=NON_PLATED
T11F00S00C0.6500
%
T01
X008636Y0038608
X0086483Y0040005
X00889Y0041275
X0084328Y0036195
X0083566Y0035433
X0082677Y0034036
X0080772Y00353656
Y00364656
X00762Y0039243
X0075184Y0041275
X0074422Y0042037
X00773317Y0041275
X0071755Y0038608
X0061214Y0041529
X0058293Y00395224
X0057658Y0040132
X0055626Y0038862
X0054864Y0042799
X0048133
X0045593Y0030226
X0046228Y00274346
X0057404Y0035941
X005969Y0037211
X0044704Y0035941
X0043815Y003683
X004191Y0038735
X0034671Y0038862
X0036672Y00341376
X0039212Y00331216
X0044704Y00332232
X0042926Y0027178
X0035687Y0029972
X0034544Y0030099
X0034036Y0031115
X003302Y0031369
X0032131Y0032004
X0031115Y0031496
X00304464Y0035687
X0027178Y0028956
X0026289Y0029591
X0025019Y0030226
X00254Y0050038
X0028321Y0052578
X0034671
X0034036Y0051816
X0036576Y0051181
X004064
X0039878Y0053467
X0039116Y0055753
X0037465Y0057912
Y0065151
X0035687Y0066675
X0031115Y0064389
X002921Y006985
X003302Y0071501
X0039243
X0043053Y0065786
X0044196Y00625856
X0043815Y0059309
X0043434Y0053975
X0044196Y0053086
X0045339Y0054737
X0044831Y0048641
X0043561Y004826
X0034036Y0044323
X0022098Y0053975
X0022733Y0056769
X00233934Y0059309
X0025019Y0062357
X0015621Y006858
X0015653Y0053816
X0048133Y0052578
X0046355Y0050038
Y0049149
X0045593Y0047117
X0048895Y0056388
X0049911Y0061214
X00505206Y00618744
X0051308Y0061849
Y0064389
X0049149Y0063373
X0049276Y00625094
X0046609Y0063627
Y0069342
X0050546Y0067183
X0049911Y0066421
X0055499Y0064262
X0054356Y00610616
X005842Y0061468
Y0059309
X006223Y0056769
Y00621284
X00635Y0061468
Y0065786
X0060071
X0060198Y0072644
X0061849Y0074168
Y00759986
X00617002Y0077978
X0067945Y0075438
X0070231Y0071755
X0071882Y0070739
X0073406Y0069469
X0072771Y0067818
Y0066929
X00731886Y00656224
X0072771Y0064262
X0073787Y0064389
X0076454Y0062992
X0077343Y0060706
X0077724Y0057277
X0075057Y0056134
X0072136Y0058293
X0069469Y0056388
X0066675Y0062992
X0068834Y006731
X0076835Y0066929
X0077978Y0067818
X0079121Y0069342
X0077851Y0071882
X0077089Y0073787
X0079629Y00727928
X0082423Y00762
X0073279Y0078105
X0073152Y0073279
X0064643Y0072009
X00562621Y00722803
X0057658Y0050038
X0057203Y0049149
X0058293Y0048514
X0058928Y0047752
X0084328Y0050927
Y005715
X0079502Y0065532
X0085852Y0065024
X0087503Y0065405
X0090932
X0090551Y0066929
X0090043Y0068199
X0088773Y0070739
X0087503Y0072009
X0086487Y0074549
X008509Y0077089
X0085725Y0067818
X0094107Y0065659
X00929894Y006096
X0091059Y0060071
X0088392Y0059817
X008763Y005842
X0086868Y0057023
Y0054737
X0089408Y005334
X0088392Y0048768
X0090297Y0047625
X008509Y0047498
X0092964Y005715
T02
X0085217Y00381
X0095123Y003683
X0056515Y0037846
Y00339598
X0054991Y0041021
X0052197Y004064
X0048514Y0040386
X004953Y0029972
X0051562
X0042037Y00339598
X0012954Y0039497
X0014478Y0020701
X0014224Y00609164
Y0074041
X0033147Y0074676
X0032131Y0078105
X0042799Y0046228
X0053848Y0046482
X0054483Y0044069
X0059817
X0060706Y0053848
Y0059309
X0058039Y005715
X0049767Y0069723
X0049784Y0074676
X0070358Y0068961
X0083693Y0059436
X008128Y0053594
X009144Y0053086
Y00468018
X008509Y0046228
X0060198Y0086487
T04
X0085598Y002794
X0088646Y0031369
X0084074Y0031623
X0078232Y0030734
X0078867Y0033528
X007747Y0034544
X0029718Y0037338
Y0025654
X0034544
X0038354Y0020828
X002413Y001397
X0029718Y0005588
X0014986Y0004572
Y000889
X000381Y0034195
Y0036195
Y0038195
Y0040195
Y0042195
Y0044195
Y0046195
Y0048195
Y0050195
Y0052195
X0003302Y00735236
Y00755236
X002413Y008128
X0029845Y004572
X0058293Y0073406
T05
X004976Y000132
Y000757
X0027178Y0038354
Y0040354
Y0042354
Y0044354
T06
X0003317Y00829116
X0005857
X0065532Y0059436
X0068072
X0070612
T07
X0010795Y0027305
Y0029845
Y0032385
Y0034925
Y0037465
Y0040005
Y0042545
Y0045085
Y0047625
Y0050165
Y0052705
Y0055245
X0095758Y00544576
Y00569976
Y00595376
Y00620776
Y00646176
Y00671576
Y00696976
Y00722376
Y00747776
Y00773176
Y00798576
Y00519176
T08
X0066548Y00379476
X0069088
T09
X0004572Y00587756
Y00613156
Y00638556
Y00663956
T10
X0094298Y0027991
X0041656Y0008636
X0017272Y00849376
T11
X004905Y0025685
Y0031465
M30
