G04*
G04 #@! TF.GenerationSoftware,Altium Limited,Altium Designer,20.1.14 (287)*
G04*
G04 Layer_Color=16711935*
%FSLAX44Y44*%
%MOMM*%
G71*
G04*
G04 #@! TF.SameCoordinates,BADDABE7-1401-4436-ABD5-2416E089B5D3*
G04*
G04*
G04 #@! TF.FilePolarity,Positive*
G04*
G01*
G75*
%ADD12C,0.2540*%
D12*
X748071Y484996D02*
G03*
X748071Y484932I-70184J-64D01*
G01*
X728174Y819676D02*
G03*
X728174Y819676I-50284J0D01*
G01*
X975252Y816610D02*
X975252Y237620D01*
X7620Y892810D02*
X736600D01*
X689606Y869545D02*
Y892742D01*
Y869545D02*
X690904Y868246D01*
X728980Y816356D02*
X736600D01*
X689606Y892742D02*
X697226D01*
X770492Y237620D02*
X975252D01*
X770492D02*
Y307620D01*
X555252D02*
X770492D01*
X555252Y237620D02*
Y307620D01*
X505252Y237620D02*
X555252D01*
X7620Y7620D02*
Y892810D01*
X505252Y7620D02*
Y237620D01*
X7620Y7620D02*
X505252D01*
X762872Y230000D02*
X982872D01*
X562872Y300000D02*
X762872D01*
X982872Y230000D02*
Y816356D01*
X562872Y230000D02*
Y300000D01*
X512872Y230000D02*
X562872D01*
X512872Y0D02*
Y230000D01*
X0Y0D02*
X512872D01*
X-0Y900000D02*
X736600D01*
Y816356D02*
Y900000D01*
Y816356D02*
X982872Y816356D01*
X762872Y230000D02*
Y300000D01*
X-0Y900000D02*
X0Y0D01*
M02*
