G04*
G04 #@! TF.GenerationSoftware,Altium Limited,Altium Designer,22.7.1 (60)*
G04*
G04 Layer_Physical_Order=2*
G04 Layer_Color=16711680*
%FSLAX44Y44*%
%MOMM*%
G71*
G04*
G04 #@! TF.SameCoordinates,D0082332-17C0-48B4-9EBD-708ECFB17097*
G04*
G04*
G04 #@! TF.FilePolarity,Positive*
G04*
G01*
G75*
%ADD10C,0.2540*%
%ADD11C,0.5080*%
%ADD114C,1.7000*%
%ADD115R,1.7000X1.7000*%
%ADD130C,1.0160*%
%ADD131C,0.3048*%
%ADD135C,0.5000*%
%ADD136C,7.0000*%
%ADD137O,2.1000X1.0500*%
%ADD138C,0.6500*%
%ADD139O,2.0000X1.5000*%
%ADD140R,2.0000X1.5000*%
%ADD141C,1.3000*%
%ADD142C,1.5000*%
%ADD143R,1.5000X1.5000*%
%ADD144O,3.0000X2.0000*%
%ADD145R,2.5000X1.5000*%
%ADD146O,2.5000X1.5000*%
%ADD147R,1.6000X2.2500*%
%ADD148O,1.6000X2.2500*%
%ADD149C,2.0000*%
%ADD150R,2.0000X2.0000*%
%ADD151C,0.9144*%
%ADD152C,1.2700*%
G36*
X686278Y871639D02*
X685323Y870801D01*
X681365Y871322D01*
X681273Y871298D01*
X681186Y871334D01*
X674594D01*
X674507Y871298D01*
X674415Y871322D01*
X667880Y870462D01*
X667797Y870415D01*
X667703Y870427D01*
X661336Y868721D01*
X661261Y868663D01*
X661166D01*
X655076Y866141D01*
X655009Y866074D01*
X654915Y866061D01*
X649207Y862765D01*
X649149Y862690D01*
X649057Y862665D01*
X643828Y858653D01*
X643780Y858571D01*
X643693Y858534D01*
X639032Y853873D01*
X638995Y853786D01*
X638913Y853738D01*
X634901Y848509D01*
X634876Y848417D01*
X634801Y848359D01*
X631505Y842651D01*
X631492Y842557D01*
X631425Y842490D01*
X628903Y836400D01*
Y836305D01*
X628845Y836230D01*
X627139Y829863D01*
X627151Y829769D01*
X627104Y829686D01*
X626244Y823151D01*
X626268Y823059D01*
X626232Y822972D01*
Y816380D01*
X626268Y816292D01*
X626244Y816201D01*
X627104Y809666D01*
X627151Y809584D01*
X627139Y809489D01*
X628845Y803122D01*
X628903Y803047D01*
Y802952D01*
X631425Y796862D01*
X631492Y796795D01*
X631505Y796701D01*
X634801Y790993D01*
X634876Y790935D01*
X634901Y790843D01*
X638913Y785614D01*
X638995Y785566D01*
X639032Y785479D01*
X643693Y780818D01*
X643780Y780781D01*
X643828Y780699D01*
X649057Y776686D01*
X649149Y776662D01*
X649207Y776587D01*
X654915Y773291D01*
X655009Y773278D01*
X655076Y773211D01*
X661166Y770689D01*
X661261D01*
X661336Y770631D01*
X667703Y768925D01*
X667797Y768937D01*
X667880Y768890D01*
X674415Y768030D01*
X674507Y768054D01*
X674594Y768018D01*
X681186D01*
X681273Y768054D01*
X681365Y768030D01*
X687900Y768890D01*
X687982Y768937D01*
X688077Y768925D01*
X694444Y770631D01*
X694519Y770689D01*
X694614D01*
X700704Y773211D01*
X700771Y773278D01*
X700865Y773291D01*
X706573Y776587D01*
X706631Y776662D01*
X706723Y776686D01*
X711952Y780699D01*
X712000Y780781D01*
X712087Y780818D01*
X716748Y785479D01*
X716785Y785566D01*
X716867Y785614D01*
X720880Y790843D01*
X720904Y790935D01*
X720979Y790993D01*
X724275Y796701D01*
X724288Y796795D01*
X724355Y796862D01*
X726877Y802952D01*
Y803047D01*
X726935Y803122D01*
X728641Y809489D01*
X728629Y809584D01*
X728676Y809666D01*
X729161Y813350D01*
X730523Y813967D01*
X730529Y813963D01*
X731520Y813766D01*
X972770D01*
X972770Y302833D01*
X971500Y302365D01*
X968706Y305636D01*
X964365Y309344D01*
X959497Y312327D01*
X954223Y314512D01*
X948671Y315844D01*
X942980Y316292D01*
X937289Y315844D01*
X931737Y314512D01*
X926463Y312327D01*
X921595Y309344D01*
X917254Y305636D01*
X913546Y301295D01*
X910563Y296427D01*
X908379Y291153D01*
X907046Y285601D01*
X906598Y279910D01*
X907046Y274219D01*
X908379Y268667D01*
X910563Y263393D01*
X913546Y258525D01*
X917254Y254184D01*
X921595Y250476D01*
X926463Y247493D01*
X931737Y245308D01*
X937289Y243976D01*
X942980Y243528D01*
X948671Y243976D01*
X954223Y245308D01*
X959497Y247493D01*
X964365Y250476D01*
X968706Y254184D01*
X971500Y257455D01*
X972770Y256987D01*
Y240080D01*
X773226Y240080D01*
Y304970D01*
X774496Y305702D01*
X774879Y305480D01*
X774896Y305351D01*
X775664Y303497D01*
X776885Y301905D01*
X778477Y300684D01*
X780331Y299916D01*
X780627Y299877D01*
X805682Y274822D01*
X807782Y273418D01*
X810260Y272926D01*
X851900D01*
X852137Y272744D01*
X853991Y271976D01*
X855980Y271714D01*
X857969Y271976D01*
X859823Y272744D01*
X861415Y273965D01*
X862636Y275557D01*
X863404Y277411D01*
X863666Y279400D01*
X863404Y281389D01*
X862636Y283243D01*
X861415Y284835D01*
X859823Y286056D01*
X857969Y286824D01*
X855980Y287086D01*
X853991Y286824D01*
X852137Y286056D01*
X851900Y285874D01*
X812942D01*
X789783Y309033D01*
X789744Y309329D01*
X788976Y311183D01*
X787755Y312775D01*
X786163Y313996D01*
X785044Y314459D01*
X781174Y318329D01*
Y330445D01*
X782444Y330876D01*
X783235Y329845D01*
X784827Y328624D01*
X786681Y327856D01*
X786977Y327817D01*
X803142Y311652D01*
X805242Y310248D01*
X807720Y309756D01*
X836660D01*
X836897Y309574D01*
X838751Y308806D01*
X840740Y308544D01*
X842729Y308806D01*
X844583Y309574D01*
X844820Y309756D01*
X879874D01*
X881025Y308255D01*
X882617Y307034D01*
X884471Y306266D01*
X886460Y306004D01*
X888449Y306266D01*
X890303Y307034D01*
X891895Y308255D01*
X893116Y309847D01*
X893884Y311701D01*
X894146Y313690D01*
X893884Y315679D01*
X893116Y317533D01*
X891895Y319125D01*
X890303Y320346D01*
X888449Y321114D01*
X887084Y321294D01*
X885710Y322212D01*
X883233Y322704D01*
X844820D01*
X844583Y322886D01*
X842729Y323654D01*
X840740Y323916D01*
X838751Y323654D01*
X836897Y322886D01*
X836660Y322704D01*
X810402D01*
X796133Y336973D01*
X796094Y337269D01*
X795326Y339123D01*
X794105Y340715D01*
X792513Y341936D01*
X790659Y342704D01*
X788670Y342966D01*
X786681Y342704D01*
X784827Y341936D01*
X783235Y340715D01*
X782444Y339684D01*
X781174Y340115D01*
Y341360D01*
X781356Y341597D01*
X782124Y343451D01*
X782386Y345440D01*
X782124Y347429D01*
X781356Y349283D01*
X780135Y350875D01*
X778543Y352096D01*
X776689Y352864D01*
X774700Y353126D01*
X772711Y352864D01*
X770857Y352096D01*
X769265Y350875D01*
X768044Y349283D01*
X767276Y347429D01*
X767014Y345440D01*
X767276Y343451D01*
X768044Y341597D01*
X768226Y341360D01*
Y315647D01*
X768718Y313170D01*
X769865Y311454D01*
X769416Y310377D01*
X769219Y310184D01*
X555244Y310184D01*
X554253Y309987D01*
X553413Y309425D01*
X552851Y308585D01*
X552654Y307594D01*
Y240080D01*
X541242D01*
X540304Y241280D01*
X527300D01*
X514296D01*
X513358Y240080D01*
X505206D01*
X504215Y239883D01*
X503375Y239321D01*
X502813Y238481D01*
X502616Y237490D01*
Y83049D01*
X501346Y82558D01*
X499628Y83270D01*
X497600Y83537D01*
X495572Y83270D01*
X493681Y82487D01*
X492058Y81242D01*
X490813Y79619D01*
X490030Y77728D01*
X489763Y75700D01*
X490030Y73672D01*
X490813Y71782D01*
X492058Y70158D01*
X493681Y68913D01*
X495572Y68130D01*
X497600Y67863D01*
X499628Y68130D01*
X501346Y68842D01*
X502616Y68351D01*
Y20549D01*
X501346Y20059D01*
X499628Y20770D01*
X497600Y21037D01*
X495572Y20770D01*
X493681Y19987D01*
X492058Y18742D01*
X490813Y17119D01*
X490030Y15228D01*
X489763Y13200D01*
X489989Y11480D01*
X489230Y10210D01*
X10210D01*
X10210Y889712D01*
X686278D01*
Y871639D01*
D02*
G37*
%LPC*%
G36*
X172720Y885758D02*
X167029Y885310D01*
X161477Y883978D01*
X156203Y881793D01*
X151335Y878810D01*
X146994Y875102D01*
X143286Y870761D01*
X140303Y865893D01*
X138118Y860619D01*
X136786Y855067D01*
X136338Y849376D01*
X136786Y843685D01*
X138118Y838133D01*
X140303Y832859D01*
X143286Y827991D01*
X146994Y823650D01*
X151335Y819942D01*
X156203Y816959D01*
X161477Y814774D01*
X167029Y813442D01*
X172720Y812994D01*
X178411Y813442D01*
X183963Y814774D01*
X189237Y816959D01*
X194105Y819942D01*
X198446Y823650D01*
X202154Y827991D01*
X205137Y832859D01*
X207321Y838133D01*
X208654Y843685D01*
X209102Y849376D01*
X208654Y855067D01*
X207321Y860619D01*
X205137Y865893D01*
X202154Y870761D01*
X198446Y875102D01*
X194105Y878810D01*
X189237Y881793D01*
X183963Y883978D01*
X178411Y885310D01*
X172720Y885758D01*
D02*
G37*
G36*
X968850Y809846D02*
X946310D01*
Y801420D01*
X942340D01*
X941349Y801223D01*
X940509Y800661D01*
X921459Y781611D01*
X920897Y780771D01*
X920700Y779780D01*
Y534232D01*
X919430Y533847D01*
X918612Y535072D01*
X916679Y536363D01*
X914400Y536816D01*
X912121Y536363D01*
X910188Y535072D01*
X908897Y533139D01*
X908444Y530860D01*
X908897Y528581D01*
X910188Y526648D01*
X910515Y526429D01*
Y472449D01*
X910188Y472230D01*
X908897Y470298D01*
X908444Y468018D01*
X908897Y465739D01*
X910188Y463806D01*
X910653Y463496D01*
X910267Y462226D01*
X900326D01*
X899335Y462029D01*
X898495Y461467D01*
X893519Y456491D01*
X892957Y455651D01*
X892860Y455160D01*
X891590Y455285D01*
Y461207D01*
X902819Y472436D01*
X902970Y472406D01*
X904441Y472699D01*
X905688Y473532D01*
X906521Y474779D01*
X906814Y476250D01*
X906521Y477721D01*
X905688Y478968D01*
X904544Y479733D01*
Y651977D01*
X905720Y652527D01*
X905814Y652512D01*
X906602Y651332D01*
X907849Y650499D01*
X908000Y650469D01*
Y603514D01*
X907872Y603428D01*
X907039Y602181D01*
X906746Y600710D01*
X907039Y599239D01*
X907872Y597992D01*
X909119Y597159D01*
X910590Y596866D01*
X912061Y597159D01*
X913308Y597992D01*
X914141Y599239D01*
X914434Y600710D01*
X914141Y602181D01*
X913308Y603428D01*
X913180Y603514D01*
Y652780D01*
X913046Y653455D01*
X913164Y654050D01*
X912871Y655521D01*
X912038Y656768D01*
X910791Y657601D01*
X909320Y657894D01*
X907849Y657601D01*
X906602Y656768D01*
X905814Y655588D01*
X905720Y655573D01*
X904544Y656123D01*
Y664610D01*
X905487Y665451D01*
X905510Y665446D01*
X906981Y665739D01*
X908228Y666572D01*
X909061Y667819D01*
X909354Y669290D01*
X909061Y670761D01*
X908228Y672008D01*
X906981Y672841D01*
X905510Y673134D01*
X904290Y672891D01*
X903414Y673360D01*
X903020Y673688D01*
Y679186D01*
X903148Y679272D01*
X903981Y680519D01*
X904274Y681990D01*
X903981Y683461D01*
X903148Y684708D01*
X901901Y685541D01*
X900430Y685834D01*
X898959Y685541D01*
X897712Y684708D01*
X896879Y683461D01*
X896586Y681990D01*
X896879Y680519D01*
X897712Y679272D01*
X897840Y679186D01*
Y673904D01*
X892249Y668312D01*
X891687Y667472D01*
X891590Y666981D01*
X890320Y667106D01*
Y704586D01*
X890448Y704672D01*
X891281Y705919D01*
X891574Y707390D01*
X891281Y708861D01*
X890448Y710108D01*
X889201Y710941D01*
X887730Y711234D01*
X886259Y710941D01*
X885012Y710108D01*
X884179Y708861D01*
X883886Y707390D01*
X884179Y705919D01*
X885012Y704672D01*
X885140Y704586D01*
Y612312D01*
X874469Y601640D01*
X873907Y600800D01*
X873710Y599809D01*
Y587004D01*
X873582Y586918D01*
X872749Y585671D01*
X872456Y584200D01*
X872749Y582729D01*
X873582Y581482D01*
X873710Y581396D01*
Y570961D01*
X873620Y570767D01*
X872440Y570650D01*
X872368Y571014D01*
X872231Y571701D01*
X871398Y572948D01*
X870151Y573781D01*
X868680Y574074D01*
X867209Y573781D01*
X865962Y572948D01*
X865129Y571701D01*
X864992Y571014D01*
X864920Y570650D01*
X863740Y570767D01*
X863650Y570961D01*
Y603447D01*
X876861Y616659D01*
X877423Y617499D01*
X877620Y618490D01*
Y651246D01*
X877748Y651332D01*
X878581Y652579D01*
X878874Y654050D01*
X878581Y655521D01*
X877748Y656768D01*
X877620Y656854D01*
Y717286D01*
X877748Y717372D01*
X878581Y718619D01*
X878874Y720090D01*
X878581Y721561D01*
X877748Y722808D01*
X876501Y723641D01*
X875030Y723934D01*
X873559Y723641D01*
X872312Y722808D01*
X871479Y721561D01*
X871186Y720090D01*
X871479Y718619D01*
X872312Y717372D01*
X872440Y717286D01*
Y656854D01*
X872312Y656768D01*
X871479Y655521D01*
X871186Y654050D01*
X871479Y652579D01*
X872312Y651332D01*
X872440Y651246D01*
Y619563D01*
X862283Y609406D01*
X861110Y609892D01*
Y647436D01*
X861238Y647522D01*
X862071Y648769D01*
X862364Y650240D01*
X862071Y651711D01*
X861238Y652958D01*
X859991Y653791D01*
X858520Y654084D01*
X857049Y653791D01*
X855802Y652958D01*
X854969Y651711D01*
X854832Y651024D01*
X854760Y650660D01*
X853580Y650777D01*
X853490Y650971D01*
Y674747D01*
X853928Y675048D01*
X854760Y675310D01*
X855779Y674629D01*
X857250Y674336D01*
X858721Y674629D01*
X859968Y675462D01*
X860801Y676709D01*
X861094Y678180D01*
X861064Y678331D01*
X866701Y683969D01*
X867263Y684809D01*
X867460Y685800D01*
Y742686D01*
X867588Y742772D01*
X868421Y744019D01*
X868714Y745490D01*
X868421Y746961D01*
X867588Y748208D01*
X866341Y749041D01*
X864870Y749334D01*
X863399Y749041D01*
X862152Y748208D01*
X861319Y746961D01*
X861026Y745490D01*
X861319Y744019D01*
X862152Y742772D01*
X862280Y742686D01*
Y686873D01*
X857401Y681994D01*
X857250Y682024D01*
X855779Y681731D01*
X854760Y681050D01*
X853928Y681312D01*
X853490Y681613D01*
Y768086D01*
X853618Y768172D01*
X854451Y769419D01*
X854744Y770890D01*
X854451Y772361D01*
X853618Y773608D01*
X852371Y774441D01*
X850900Y774734D01*
X849429Y774441D01*
X848182Y773608D01*
X847349Y772361D01*
X847056Y770890D01*
X847349Y769419D01*
X848182Y768172D01*
X848310Y768086D01*
X848310Y572231D01*
X848220Y572037D01*
X847040Y571921D01*
X846968Y572284D01*
X846831Y572971D01*
X845998Y574218D01*
X844751Y575051D01*
X843280Y575344D01*
X841809Y575051D01*
X841069Y574557D01*
X839799Y575188D01*
Y589251D01*
X841142Y590148D01*
X842433Y592081D01*
X842887Y594360D01*
X842433Y596639D01*
X841142Y598572D01*
X839209Y599863D01*
X836930Y600317D01*
X834651Y599863D01*
X832718Y598572D01*
X831427Y596639D01*
X830974Y594360D01*
X831427Y592081D01*
X832029Y591179D01*
Y477266D01*
X832325Y475779D01*
X833167Y474519D01*
X845020Y462666D01*
X844943Y462280D01*
X845397Y460001D01*
X846688Y458068D01*
X847650Y457425D01*
Y384751D01*
X846667Y383279D01*
X846214Y381000D01*
X846322Y380452D01*
X845152Y379827D01*
X844687Y380291D01*
X843847Y380853D01*
X842856Y381050D01*
X726440D01*
X725449Y380853D01*
X724609Y380291D01*
X706317Y362000D01*
X588010D01*
X587019Y361803D01*
X586179Y361241D01*
X585226Y362085D01*
X585323Y362229D01*
X585520Y363220D01*
Y379105D01*
X586790Y379230D01*
X586887Y378739D01*
X587449Y377899D01*
X593086Y372261D01*
X593056Y372110D01*
X593349Y370639D01*
X594182Y369392D01*
X595429Y368559D01*
X596900Y368266D01*
X598371Y368559D01*
X599618Y369392D01*
X600451Y370639D01*
X600744Y372110D01*
X600451Y373581D01*
X599618Y374828D01*
X598371Y375661D01*
X596900Y375954D01*
X596749Y375924D01*
X591870Y380803D01*
Y397510D01*
X591673Y398501D01*
X591111Y399341D01*
X579424Y411029D01*
Y421692D01*
X579539Y421738D01*
X580694Y421903D01*
X581099Y421297D01*
X582587Y419809D01*
X583427Y419247D01*
X584418Y419050D01*
X608707D01*
X609008Y418612D01*
X609270Y417780D01*
X608589Y416761D01*
X608296Y415290D01*
X608589Y413819D01*
X609422Y412572D01*
X610669Y411739D01*
X612140Y411446D01*
X613611Y411739D01*
X614858Y412572D01*
X614944Y412700D01*
X617417D01*
X639519Y390599D01*
X640359Y390037D01*
X641350Y389840D01*
X654686D01*
X655710Y389246D01*
X655710Y388570D01*
Y369706D01*
X675250D01*
Y388570D01*
X675250Y389246D01*
X676274Y389840D01*
X687053D01*
X687305Y388570D01*
X685953Y388010D01*
X683912Y386444D01*
X682346Y384403D01*
X681361Y382026D01*
X681026Y379476D01*
X681361Y376926D01*
X682346Y374549D01*
X683912Y372508D01*
X685953Y370942D01*
X688329Y369958D01*
X690880Y369622D01*
X693430Y369958D01*
X695807Y370942D01*
X697848Y372508D01*
X699414Y374549D01*
X700398Y376926D01*
X700734Y379476D01*
X700398Y382026D01*
X699414Y384403D01*
X697848Y386444D01*
X695807Y388010D01*
X694455Y388570D01*
X694707Y389840D01*
X714117D01*
X714418Y389402D01*
X714680Y388570D01*
X713999Y387551D01*
X713706Y386080D01*
X713999Y384609D01*
X714832Y383362D01*
X716079Y382529D01*
X717550Y382236D01*
X719021Y382529D01*
X720268Y383362D01*
X721101Y384609D01*
X721394Y386080D01*
X721101Y387551D01*
X720268Y388798D01*
X720140Y388884D01*
Y390942D01*
X719943Y391933D01*
X719381Y392773D01*
X717893Y394261D01*
X717053Y394823D01*
X716062Y395020D01*
X642423D01*
X641207Y396236D01*
X641218Y396330D01*
X641778Y397460D01*
X750352D01*
X751343Y397657D01*
X752183Y398219D01*
X753671Y399707D01*
X754233Y400547D01*
X754430Y401538D01*
Y409946D01*
X754558Y410032D01*
X755391Y411279D01*
X755684Y412750D01*
X755391Y414221D01*
X754558Y415468D01*
X753311Y416301D01*
X751840Y416594D01*
X750369Y416301D01*
X749122Y415468D01*
X748289Y414221D01*
X748152Y413534D01*
X748080Y413170D01*
X746900Y413287D01*
X746810Y413481D01*
Y417566D01*
X746938Y417652D01*
X747771Y418899D01*
X748064Y420370D01*
X747771Y421841D01*
X746938Y423088D01*
X745691Y423921D01*
X744220Y424214D01*
X742749Y423921D01*
X741502Y423088D01*
X740669Y421841D01*
X740376Y420370D01*
X740669Y418899D01*
X741502Y417652D01*
X741630Y417566D01*
Y408990D01*
X643693D01*
X624131Y428551D01*
X623291Y429113D01*
X622300Y429310D01*
X592893D01*
X591870Y430333D01*
Y437318D01*
X593140Y437703D01*
X593958Y436478D01*
X595891Y435187D01*
X598170Y434734D01*
X600449Y435187D01*
X602382Y436478D01*
X603673Y438411D01*
X604127Y440690D01*
X603673Y442969D01*
X602382Y444902D01*
X602055Y445121D01*
Y524171D01*
X609807Y531923D01*
X610649Y533183D01*
X610802Y533954D01*
X611272Y534268D01*
X612563Y536201D01*
X613017Y538480D01*
X612563Y540759D01*
X611272Y542692D01*
X610945Y542910D01*
Y588660D01*
X611272Y588878D01*
X612563Y590811D01*
X613017Y593090D01*
X612563Y595369D01*
X611272Y597302D01*
X609339Y598593D01*
X607060Y599047D01*
X604781Y598593D01*
X602848Y597302D01*
X601557Y595369D01*
X601104Y593090D01*
X601557Y590811D01*
X602848Y588878D01*
X603175Y588660D01*
Y542910D01*
X602848Y542692D01*
X601557Y540759D01*
X601104Y538480D01*
X601557Y536201D01*
X602174Y535277D01*
X595423Y528527D01*
X594581Y527267D01*
X594285Y525780D01*
Y479291D01*
X593955Y478158D01*
X593955Y478158D01*
Y478158D01*
X593015Y478065D01*
X592990Y478193D01*
X592831Y478991D01*
X591998Y480238D01*
X590751Y481071D01*
X589280Y481364D01*
X587809Y481071D01*
X586790Y480390D01*
X585958Y480652D01*
X585520Y480953D01*
Y482336D01*
X585648Y482422D01*
X586481Y483669D01*
X586774Y485140D01*
X586481Y486611D01*
X585648Y487858D01*
X584401Y488691D01*
X583274Y488915D01*
X582816Y489882D01*
X582774Y490211D01*
X584761Y492199D01*
X585323Y493039D01*
X585520Y494030D01*
Y549747D01*
X594921Y559149D01*
X595483Y559989D01*
X595680Y560980D01*
Y657129D01*
X595770Y657323D01*
X596950Y657440D01*
X597022Y657076D01*
X597159Y656389D01*
X597992Y655142D01*
X599239Y654309D01*
X600710Y654016D01*
X602181Y654309D01*
X603428Y655142D01*
X604261Y656389D01*
X604554Y657860D01*
X604261Y659331D01*
X603428Y660578D01*
X603300Y660664D01*
Y698617D01*
X622183Y717500D01*
X643626D01*
X643712Y717372D01*
X644959Y716539D01*
X646430Y716246D01*
X647901Y716539D01*
X649148Y717372D01*
X649981Y718619D01*
X650274Y720090D01*
X649981Y721561D01*
X649300Y722580D01*
X649562Y723412D01*
X649863Y723850D01*
X777964D01*
X778090Y722580D01*
X777726Y722508D01*
X777039Y722371D01*
X775792Y721538D01*
X775706Y721410D01*
X742710D01*
X741718Y721213D01*
X740878Y720651D01*
X719529Y699302D01*
X718967Y698462D01*
X718770Y697470D01*
Y585734D01*
X718642Y585648D01*
X717809Y584401D01*
X717516Y582930D01*
X717809Y581459D01*
X718642Y580212D01*
X719889Y579379D01*
X721360Y579086D01*
X722831Y579379D01*
X724078Y580212D01*
X724911Y581459D01*
X725204Y582930D01*
X724911Y584401D01*
X724078Y585648D01*
X723950Y585734D01*
Y638149D01*
X723979Y638198D01*
X725220Y638762D01*
X725509Y638509D01*
Y637151D01*
X725706Y636160D01*
X726268Y635320D01*
X733499Y628089D01*
X734339Y627527D01*
X735330Y627330D01*
X761736D01*
X761822Y627202D01*
X763069Y626369D01*
X764540Y626076D01*
X766011Y626369D01*
X767258Y627202D01*
X768091Y628449D01*
X768384Y629920D01*
X768091Y631391D01*
X767258Y632638D01*
X766011Y633471D01*
X764540Y633764D01*
X763069Y633471D01*
X761822Y632638D01*
X761736Y632510D01*
X736403D01*
X730689Y638224D01*
Y640292D01*
X731261Y641149D01*
X731554Y642620D01*
X731261Y644091D01*
X730428Y645338D01*
X729181Y646171D01*
X727710Y646464D01*
X726239Y646171D01*
X725220Y645490D01*
X724388Y645752D01*
X723950Y646053D01*
Y665857D01*
X724388Y666158D01*
X725220Y666420D01*
X726239Y665739D01*
X727710Y665446D01*
X729181Y665739D01*
X730428Y666572D01*
X730514Y666700D01*
X765546D01*
X765632Y666572D01*
X766879Y665739D01*
X768350Y665446D01*
X769821Y665739D01*
X771068Y666572D01*
X771901Y667819D01*
X772194Y669290D01*
X771901Y670761D01*
X771068Y672008D01*
X769821Y672841D01*
X768350Y673134D01*
X766879Y672841D01*
X765632Y672008D01*
X765546Y671880D01*
X730514D01*
X730428Y672008D01*
X729181Y672841D01*
X727710Y673134D01*
X726239Y672841D01*
X725220Y672160D01*
X724388Y672422D01*
X723950Y672723D01*
Y674747D01*
X724388Y675048D01*
X725220Y675310D01*
X726239Y674629D01*
X727710Y674336D01*
X729181Y674629D01*
X730428Y675462D01*
X730514Y675590D01*
X776976D01*
X777062Y675462D01*
X778309Y674629D01*
X779780Y674336D01*
X781251Y674629D01*
X782498Y675462D01*
X783331Y676709D01*
X783624Y678180D01*
X783331Y679651D01*
X782498Y680898D01*
X781251Y681731D01*
X779780Y682024D01*
X778309Y681731D01*
X777062Y680898D01*
X776976Y680770D01*
X730514D01*
X730428Y680898D01*
X729181Y681731D01*
X727710Y682024D01*
X726239Y681731D01*
X725220Y681050D01*
X724388Y681312D01*
X723950Y681613D01*
Y696398D01*
X743782Y716230D01*
X775706D01*
X775792Y716102D01*
X777039Y715269D01*
X778510Y714976D01*
X779981Y715269D01*
X781228Y716102D01*
X782061Y717349D01*
X782354Y718820D01*
X782061Y720291D01*
X781228Y721538D01*
X779981Y722371D01*
X779294Y722508D01*
X778930Y722580D01*
X779055Y723850D01*
X794802D01*
X795793Y724047D01*
X795949Y724152D01*
X796290Y724084D01*
X797761Y724377D01*
X799008Y725210D01*
X799841Y726457D01*
X800134Y727928D01*
X799841Y729399D01*
X799008Y730646D01*
X797761Y731479D01*
X796290Y731772D01*
X794819Y731479D01*
X793572Y730646D01*
X792739Y729399D01*
X792665Y729030D01*
X734953D01*
X734652Y729468D01*
X734390Y730300D01*
X735071Y731319D01*
X735364Y732790D01*
X735071Y734261D01*
X734238Y735508D01*
X732991Y736341D01*
X731520Y736634D01*
X730049Y736341D01*
X728802Y735508D01*
X728716Y735380D01*
X621080D01*
Y738876D01*
X621208Y738962D01*
X622041Y740209D01*
X622334Y741680D01*
X622041Y743151D01*
X621208Y744398D01*
X621169Y744424D01*
X621554Y745694D01*
X759403D01*
X767076Y738021D01*
X767046Y737870D01*
X767339Y736399D01*
X768172Y735152D01*
X769419Y734319D01*
X770890Y734026D01*
X772361Y734319D01*
X773608Y735152D01*
X774441Y736399D01*
X774734Y737870D01*
X774441Y739341D01*
X773608Y740588D01*
X772361Y741421D01*
X770890Y741714D01*
X770739Y741684D01*
X762307Y750115D01*
X761467Y750677D01*
X760476Y750874D01*
X718986D01*
X718940Y750989D01*
X718775Y752144D01*
X719381Y752549D01*
X734621Y767789D01*
X735183Y768629D01*
X735380Y769620D01*
Y778246D01*
X735508Y778332D01*
X736341Y779579D01*
X736634Y781050D01*
X736341Y782521D01*
X735508Y783768D01*
X734261Y784601D01*
X732790Y784894D01*
X731319Y784601D01*
X730072Y783768D01*
X729239Y782521D01*
X728946Y781050D01*
X729239Y779579D01*
X730072Y778332D01*
X730200Y778246D01*
Y770693D01*
X716477Y756970D01*
X682254D01*
X682168Y757098D01*
X680921Y757931D01*
X679450Y758224D01*
X677979Y757931D01*
X676732Y757098D01*
X675899Y755851D01*
X675606Y754380D01*
X675899Y752909D01*
X676410Y752144D01*
X675800Y750874D01*
X603504D01*
X602513Y750677D01*
X601673Y750115D01*
X591259Y739701D01*
X590697Y738861D01*
X590632Y738533D01*
X589289Y738290D01*
X588365Y739495D01*
X586773Y740716D01*
X584919Y741484D01*
X582930Y741746D01*
X580941Y741484D01*
X579087Y740716D01*
X577495Y739495D01*
X576306Y737945D01*
X386516D01*
X385029Y737649D01*
X383769Y736807D01*
X380793Y733831D01*
X379951Y732571D01*
X379655Y731084D01*
Y653281D01*
X379325Y652148D01*
X379325Y652148D01*
Y652148D01*
X378385Y652056D01*
X378360Y652183D01*
X378201Y652981D01*
X377368Y654228D01*
X376121Y655061D01*
X374650Y655354D01*
X373179Y655061D01*
X371932Y654228D01*
X371099Y652981D01*
X370806Y651510D01*
X371099Y650039D01*
X371932Y648792D01*
X372060Y648706D01*
Y581924D01*
X371932Y581838D01*
X371099Y580591D01*
X370806Y579120D01*
X371099Y577649D01*
X371932Y576402D01*
X373179Y575569D01*
X374650Y575276D01*
X376121Y575569D01*
X377368Y576402D01*
X378201Y577649D01*
X378360Y578447D01*
X378385Y578574D01*
X379325Y578482D01*
Y578482D01*
X379325Y578482D01*
X379655Y577349D01*
Y214904D01*
X378105Y213715D01*
X376884Y212123D01*
X376116Y210269D01*
X375854Y208280D01*
X376116Y206291D01*
X376884Y204437D01*
X378105Y202845D01*
X379697Y201624D01*
X381551Y200856D01*
X383540Y200594D01*
X385529Y200856D01*
X387383Y201624D01*
X388975Y202845D01*
X390196Y204437D01*
X390964Y206291D01*
X391226Y208280D01*
X390964Y210269D01*
X390196Y212123D01*
X388975Y213715D01*
X387425Y214904D01*
Y329345D01*
X387895Y329510D01*
X388695Y329557D01*
X389402Y328498D01*
X390649Y327665D01*
X392120Y327372D01*
X393591Y327665D01*
X394838Y328498D01*
X395671Y329745D01*
X395964Y331216D01*
X395671Y332687D01*
X394838Y333934D01*
X394710Y334020D01*
Y443699D01*
X394513Y444690D01*
X393951Y445530D01*
X393750Y445731D01*
Y533939D01*
X393840Y534133D01*
X395020Y534250D01*
X395092Y533886D01*
X395229Y533199D01*
X396062Y531952D01*
X396190Y531866D01*
Y349468D01*
X396387Y348477D01*
X396949Y347637D01*
X398437Y346149D01*
X399277Y345587D01*
X400268Y345390D01*
X416237D01*
X416623Y344120D01*
X416158Y343810D01*
X414867Y341877D01*
X414413Y339598D01*
X414867Y337319D01*
X416158Y335386D01*
X418091Y334095D01*
X420370Y333642D01*
X422649Y334095D01*
X424582Y335386D01*
X424800Y335713D01*
X443352D01*
X443983Y334443D01*
X443489Y333703D01*
X443196Y332232D01*
X443489Y330761D01*
X444322Y329514D01*
X444450Y329428D01*
Y290633D01*
X429411Y275594D01*
X429260Y275624D01*
X427789Y275331D01*
X426542Y274498D01*
X425709Y273251D01*
X425416Y271780D01*
X425709Y270309D01*
X426542Y269062D01*
X427789Y268229D01*
X429260Y267936D01*
X430731Y268229D01*
X431978Y269062D01*
X432811Y270309D01*
X433104Y271780D01*
X433074Y271931D01*
X448871Y287729D01*
X449433Y288569D01*
X449630Y289560D01*
Y329428D01*
X449758Y329514D01*
X450591Y330761D01*
X450884Y332232D01*
X450591Y333703D01*
X450097Y334443D01*
X450728Y335713D01*
X474292D01*
X474575Y334881D01*
X474646Y334443D01*
X473446Y332879D01*
X472660Y330984D01*
X472560Y330220D01*
X485500D01*
X498440D01*
X498340Y330984D01*
X497555Y332879D01*
X496354Y334443D01*
X496425Y334881D01*
X496708Y335713D01*
X516092D01*
X516375Y334881D01*
X516446Y334443D01*
X515246Y332879D01*
X514460Y330984D01*
X514360Y330220D01*
X527300D01*
X540240D01*
X540140Y330984D01*
X539355Y332879D01*
X538154Y334443D01*
X538225Y334881D01*
X538508Y335713D01*
X560719D01*
X560938Y335386D01*
X562871Y334095D01*
X565150Y333642D01*
X567429Y334095D01*
X569362Y335386D01*
X570653Y337319D01*
X571106Y339598D01*
X570653Y341877D01*
X569362Y343810D01*
X568897Y344120D01*
X569283Y345390D01*
X703580D01*
X704571Y345587D01*
X705411Y346149D01*
X727139Y367876D01*
X802463D01*
X803062Y366756D01*
X802972Y366623D01*
X802834Y365926D01*
X812606D01*
X812468Y366623D01*
X812378Y366756D01*
X812977Y367876D01*
X832365D01*
X832502Y367739D01*
X832673Y367625D01*
X834083Y366215D01*
X834923Y365653D01*
X835914Y365456D01*
X839630D01*
X840240Y364186D01*
X839729Y363421D01*
X839436Y361950D01*
X839729Y360479D01*
X840562Y359232D01*
X841809Y358399D01*
X842496Y358262D01*
X842860Y358190D01*
X842743Y357010D01*
X842549Y356920D01*
X838464D01*
X838378Y357048D01*
X837131Y357881D01*
X835660Y358174D01*
X834189Y357881D01*
X832942Y357048D01*
X832109Y355801D01*
X831816Y354330D01*
X832109Y352859D01*
X832942Y351612D01*
X834189Y350779D01*
X835660Y350486D01*
X837131Y350779D01*
X838378Y351612D01*
X838464Y351740D01*
X864870D01*
X865861Y351937D01*
X866701Y352499D01*
X895911Y381709D01*
X896473Y382549D01*
X896670Y383540D01*
Y400247D01*
X902261Y405839D01*
X902823Y406679D01*
X903020Y407670D01*
Y452070D01*
X928152D01*
X929143Y452267D01*
X929983Y452829D01*
X931471Y454317D01*
X932033Y455157D01*
X932230Y456148D01*
Y568696D01*
X932358Y568782D01*
X933191Y570029D01*
X933484Y571500D01*
X933191Y572971D01*
X932484Y574030D01*
Y606796D01*
X932612Y606882D01*
X933445Y608129D01*
X933738Y609600D01*
X933445Y611071D01*
X932612Y612318D01*
X931365Y613151D01*
X929894Y613444D01*
X928423Y613151D01*
X927176Y612318D01*
X927150Y612279D01*
X925880Y612664D01*
Y778707D01*
X943413Y796240D01*
X946310D01*
Y787306D01*
X968850D01*
Y809846D01*
D02*
G37*
G36*
X957580Y784543D02*
X954638Y784156D01*
X951896Y783020D01*
X949542Y781214D01*
X947736Y778860D01*
X946600Y776118D01*
X946213Y773176D01*
X946600Y770234D01*
X947736Y767492D01*
X949542Y765138D01*
X951896Y763332D01*
X954638Y762196D01*
X957580Y761809D01*
X960522Y762196D01*
X963264Y763332D01*
X965618Y765138D01*
X967424Y767492D01*
X968560Y770234D01*
X968947Y773176D01*
X968560Y776118D01*
X967424Y778860D01*
X965618Y781214D01*
X963264Y783020D01*
X960522Y784156D01*
X957580Y784543D01*
D02*
G37*
G36*
X617002Y783624D02*
X615531Y783331D01*
X614284Y782498D01*
X613451Y781251D01*
X613158Y779780D01*
X613451Y778309D01*
X614284Y777062D01*
X615531Y776229D01*
X615900Y776155D01*
Y762790D01*
X615772Y762704D01*
X614939Y761457D01*
X614646Y759986D01*
X614939Y758515D01*
X615772Y757268D01*
X617019Y756435D01*
X618490Y756142D01*
X619961Y756435D01*
X621208Y757268D01*
X622041Y758515D01*
X622334Y759986D01*
X622041Y761457D01*
X621208Y762704D01*
X621080Y762790D01*
Y777742D01*
X620883Y778733D01*
X620694Y779016D01*
X620846Y779780D01*
X620553Y781251D01*
X619720Y782498D01*
X618473Y783331D01*
X617002Y783624D01*
D02*
G37*
G36*
X497840Y752717D02*
X495561Y752263D01*
X493628Y750972D01*
X493410Y750645D01*
X335900D01*
X335682Y750972D01*
X333749Y752263D01*
X331470Y752717D01*
X329191Y752263D01*
X327258Y750972D01*
X325967Y749039D01*
X325513Y746760D01*
X325967Y744481D01*
X327258Y742548D01*
X329191Y741257D01*
X331470Y740804D01*
X333749Y741257D01*
X335682Y742548D01*
X335900Y742875D01*
X493410D01*
X493628Y742548D01*
X495561Y741257D01*
X497840Y740804D01*
X500119Y741257D01*
X502052Y742548D01*
X503343Y744481D01*
X503797Y746760D01*
X503343Y749039D01*
X502052Y750972D01*
X500119Y752263D01*
X497840Y752717D01*
D02*
G37*
G36*
X33170Y841716D02*
X30750Y841397D01*
X28495Y840463D01*
X26558Y838978D01*
X25072Y837041D01*
X24138Y834786D01*
X23820Y832366D01*
Y825866D01*
X24138Y823446D01*
X25072Y821191D01*
X26558Y819255D01*
X28495Y817769D01*
X29210Y817472D01*
Y764082D01*
X28020D01*
X25731Y763780D01*
X23597Y762897D01*
X21765Y761491D01*
X20359Y759659D01*
X19476Y757525D01*
X19174Y755236D01*
X19476Y752947D01*
X20359Y750813D01*
X21765Y748981D01*
X23597Y747575D01*
X25731Y746692D01*
X28020Y746390D01*
X38020D01*
X40309Y746692D01*
X42443Y747575D01*
X44275Y748981D01*
X45681Y750813D01*
X46564Y752947D01*
X46866Y755236D01*
X46564Y757525D01*
X45681Y759659D01*
X44275Y761491D01*
X42443Y762897D01*
X40309Y763780D01*
X38020Y764082D01*
X36979D01*
Y817411D01*
X37845Y817769D01*
X39781Y819255D01*
X41267Y821191D01*
X42201Y823446D01*
X42519Y825866D01*
Y832366D01*
X42201Y834786D01*
X41267Y837041D01*
X39781Y838978D01*
X37845Y840463D01*
X35589Y841397D01*
X33170Y841716D01*
D02*
G37*
G36*
X67839Y841636D02*
X49300D01*
Y816596D01*
X54685D01*
Y740899D01*
X52907Y739121D01*
X46790D01*
Y744006D01*
X19250D01*
Y726466D01*
X46790D01*
Y731351D01*
X54516D01*
X56003Y731647D01*
X57263Y732489D01*
X61316Y736543D01*
X62158Y737803D01*
X62454Y739290D01*
Y816596D01*
X67839D01*
Y841636D01*
D02*
G37*
G36*
X957580Y759143D02*
X954638Y758756D01*
X951896Y757620D01*
X949542Y755814D01*
X947736Y753460D01*
X946600Y750718D01*
X946213Y747776D01*
X946600Y744834D01*
X947736Y742092D01*
X949542Y739738D01*
X951896Y737932D01*
X954638Y736796D01*
X957580Y736409D01*
X960522Y736796D01*
X963264Y737932D01*
X965618Y739738D01*
X967424Y742092D01*
X968560Y744834D01*
X968947Y747776D01*
X968560Y750718D01*
X967424Y753460D01*
X965618Y755814D01*
X963264Y757620D01*
X960522Y758756D01*
X957580Y759143D01*
D02*
G37*
G36*
Y733743D02*
X954638Y733356D01*
X951896Y732220D01*
X949542Y730414D01*
X947736Y728060D01*
X946600Y725318D01*
X946213Y722376D01*
X946600Y719434D01*
X947736Y716692D01*
X949542Y714338D01*
X951896Y712532D01*
X954638Y711396D01*
X957580Y711009D01*
X960522Y711396D01*
X963264Y712532D01*
X965618Y714338D01*
X967424Y716692D01*
X968560Y719434D01*
X968947Y722376D01*
X968560Y725318D01*
X967424Y728060D01*
X965618Y730414D01*
X963264Y732220D01*
X960522Y733356D01*
X957580Y733743D01*
D02*
G37*
G36*
X718820Y711234D02*
X717349Y710941D01*
X716102Y710108D01*
X715819Y709684D01*
X705104D01*
X704113Y709487D01*
X703273Y708925D01*
X687779Y693431D01*
X687217Y692591D01*
X687020Y691600D01*
Y676681D01*
X686869Y676651D01*
X685622Y675818D01*
X684789Y674571D01*
X684496Y673100D01*
X684789Y671629D01*
X685622Y670382D01*
X686869Y669549D01*
X688340Y669256D01*
X689811Y669549D01*
X691058Y670382D01*
X691891Y671629D01*
X691980Y672075D01*
X692003Y672109D01*
X692200Y673100D01*
Y690527D01*
X706177Y704504D01*
X716353D01*
X717349Y703839D01*
X718820Y703546D01*
X720291Y703839D01*
X721538Y704672D01*
X722371Y705919D01*
X722664Y707390D01*
X722371Y708861D01*
X721538Y710108D01*
X720291Y710941D01*
X718820Y711234D01*
D02*
G37*
G36*
X734060Y698534D02*
X732589Y698241D01*
X731342Y697408D01*
X730509Y696161D01*
X730216Y694690D01*
X730509Y693219D01*
X731342Y691972D01*
X732589Y691139D01*
X734060Y690846D01*
X735531Y691139D01*
X736778Y691972D01*
X736864Y692100D01*
X787629D01*
X787659Y691949D01*
X788492Y690702D01*
X789739Y689869D01*
X791210Y689576D01*
X792681Y689869D01*
X793928Y690702D01*
X794761Y691949D01*
X795054Y693420D01*
X794761Y694891D01*
X793928Y696138D01*
X792681Y696971D01*
X791210Y697264D01*
X790340Y697091D01*
X789390Y697280D01*
X736864D01*
X736778Y697408D01*
X735531Y698241D01*
X734060Y698534D01*
D02*
G37*
G36*
X957580Y708343D02*
X954638Y707956D01*
X951896Y706820D01*
X949542Y705014D01*
X947736Y702660D01*
X946600Y699918D01*
X946213Y696976D01*
X946600Y694034D01*
X947736Y691292D01*
X949542Y688938D01*
X951896Y687132D01*
X954638Y685996D01*
X957580Y685609D01*
X960522Y685996D01*
X963264Y687132D01*
X965618Y688938D01*
X967424Y691292D01*
X968560Y694034D01*
X968947Y696976D01*
X968560Y699918D01*
X967424Y702660D01*
X965618Y705014D01*
X963264Y706820D01*
X960522Y707956D01*
X957580Y708343D01*
D02*
G37*
G36*
Y682943D02*
X954638Y682556D01*
X951896Y681420D01*
X949542Y679614D01*
X947736Y677260D01*
X946600Y674518D01*
X946213Y671576D01*
X946600Y668634D01*
X947736Y665892D01*
X949542Y663538D01*
X951896Y661732D01*
X954638Y660596D01*
X957580Y660209D01*
X960522Y660596D01*
X963264Y661732D01*
X965618Y663538D01*
X967424Y665892D01*
X968560Y668634D01*
X968947Y671576D01*
X968560Y674518D01*
X967424Y677260D01*
X965618Y679614D01*
X963264Y681420D01*
X960522Y682556D01*
X957580Y682943D01*
D02*
G37*
G36*
X50720Y675323D02*
X40720D01*
X37778Y674936D01*
X35036Y673800D01*
X32682Y671994D01*
X30876Y669640D01*
X29740Y666898D01*
X29353Y663956D01*
X29740Y661014D01*
X30876Y658272D01*
X32682Y655918D01*
X35036Y654112D01*
X37778Y652976D01*
X40720Y652589D01*
X50720D01*
X53662Y652976D01*
X56404Y654112D01*
X58758Y655918D01*
X60564Y658272D01*
X61700Y661014D01*
X62087Y663956D01*
X61700Y666898D01*
X60564Y669640D01*
X58758Y671994D01*
X56404Y673800D01*
X53662Y674936D01*
X50720Y675323D01*
D02*
G37*
G36*
X731886Y660068D02*
X730415Y659775D01*
X729168Y658942D01*
X728335Y657695D01*
X728042Y656224D01*
X728335Y654753D01*
X729168Y653506D01*
X730415Y652673D01*
X731886Y652380D01*
X733357Y652673D01*
X734604Y653506D01*
X734690Y653634D01*
X761734D01*
X761879Y653489D01*
X762720Y652927D01*
X763711Y652730D01*
X792216D01*
X792302Y652602D01*
X793549Y651769D01*
X795020Y651476D01*
X796491Y651769D01*
X797738Y652602D01*
X798571Y653849D01*
X798864Y655320D01*
X798571Y656791D01*
X797738Y658038D01*
X796491Y658871D01*
X795020Y659164D01*
X793549Y658871D01*
X792302Y658038D01*
X792216Y657910D01*
X764783D01*
X764638Y658055D01*
X763798Y658617D01*
X762807Y658814D01*
X734690D01*
X734604Y658942D01*
X733357Y659775D01*
X731886Y660068D01*
D02*
G37*
G36*
X737870Y647734D02*
X736399Y647441D01*
X735152Y646608D01*
X734319Y645361D01*
X734026Y643890D01*
X734319Y642419D01*
X735152Y641172D01*
X736399Y640339D01*
X737870Y640046D01*
X739341Y640339D01*
X740588Y641172D01*
X741421Y642419D01*
X741714Y643890D01*
X741421Y645361D01*
X740588Y646608D01*
X739341Y647441D01*
X737870Y647734D01*
D02*
G37*
G36*
X957580Y657543D02*
X954638Y657156D01*
X951896Y656020D01*
X949542Y654214D01*
X947736Y651860D01*
X946600Y649118D01*
X946213Y646176D01*
X946600Y643234D01*
X947736Y640492D01*
X949542Y638138D01*
X951896Y636332D01*
X954638Y635196D01*
X957580Y634809D01*
X960522Y635196D01*
X963264Y636332D01*
X965618Y638138D01*
X967424Y640492D01*
X968560Y643234D01*
X968947Y646176D01*
X968560Y649118D01*
X967424Y651860D01*
X965618Y654214D01*
X963264Y656020D01*
X960522Y657156D01*
X957580Y657543D01*
D02*
G37*
G36*
X50720Y649923D02*
X40720D01*
X37778Y649536D01*
X35036Y648400D01*
X32682Y646594D01*
X30876Y644240D01*
X29740Y641498D01*
X29353Y638556D01*
X29740Y635614D01*
X30876Y632872D01*
X32682Y630518D01*
X35036Y628712D01*
X37778Y627576D01*
X40720Y627189D01*
X50720D01*
X53662Y627576D01*
X56404Y628712D01*
X58758Y630518D01*
X60564Y632872D01*
X61700Y635614D01*
X62087Y638556D01*
X61700Y641498D01*
X60564Y644240D01*
X58758Y646594D01*
X56404Y648400D01*
X53662Y649536D01*
X50720Y649923D01*
D02*
G37*
G36*
X635000Y661704D02*
X633529Y661411D01*
X632282Y660578D01*
X631449Y659331D01*
X631156Y657860D01*
X631449Y656389D01*
X632282Y655142D01*
X632410Y655056D01*
Y617484D01*
X632282Y617398D01*
X631449Y616151D01*
X631156Y614680D01*
X631449Y613209D01*
X632282Y611962D01*
X633529Y611129D01*
X635000Y610836D01*
X636471Y611129D01*
X637718Y611962D01*
X638551Y613209D01*
X638844Y614680D01*
X638551Y616151D01*
X637718Y617398D01*
X637590Y617484D01*
Y655056D01*
X637718Y655142D01*
X638551Y656389D01*
X638844Y657860D01*
X638551Y659331D01*
X637718Y660578D01*
X636471Y661411D01*
X635000Y661704D01*
D02*
G37*
G36*
X941070Y660434D02*
X939599Y660141D01*
X938352Y659308D01*
X937519Y658061D01*
X937226Y656590D01*
X937519Y655119D01*
X938352Y653872D01*
X938480Y653786D01*
Y626110D01*
Y391210D01*
X915670D01*
X914679Y391013D01*
X913839Y390451D01*
X866337Y342950D01*
X829574D01*
X829488Y343078D01*
X828241Y343911D01*
X826770Y344204D01*
X825299Y343911D01*
X824052Y343078D01*
X823219Y341831D01*
X822926Y340360D01*
X823219Y338889D01*
X824052Y337642D01*
X825299Y336809D01*
X826770Y336516D01*
X828241Y336809D01*
X829488Y337642D01*
X829574Y337770D01*
X867410D01*
X868401Y337967D01*
X869241Y338529D01*
X916743Y386030D01*
X939582D01*
X940573Y386227D01*
X941413Y386789D01*
X942901Y388277D01*
X943463Y389117D01*
X943660Y390108D01*
Y620730D01*
X943770Y620820D01*
X946174D01*
X946213Y620776D01*
X946600Y617834D01*
X947736Y615092D01*
X949542Y612738D01*
X951896Y610932D01*
X954638Y609796D01*
X957580Y609409D01*
X960522Y609796D01*
X963264Y610932D01*
X965618Y612738D01*
X967424Y615092D01*
X968560Y617834D01*
X968947Y620776D01*
X968560Y623718D01*
X967424Y626460D01*
X965618Y628814D01*
X963264Y630620D01*
X960522Y631756D01*
X957580Y632143D01*
X954638Y631756D01*
X951896Y630620D01*
X949542Y628814D01*
X947736Y626460D01*
X947545Y626000D01*
X944843D01*
X943660Y627183D01*
Y653786D01*
X943788Y653872D01*
X944621Y655119D01*
X944914Y656590D01*
X944621Y658061D01*
X943788Y659308D01*
X942541Y660141D01*
X941070Y660434D01*
D02*
G37*
G36*
X773430Y610904D02*
X771959Y610611D01*
X770712Y609778D01*
X770626Y609650D01*
X746760D01*
X745769Y609453D01*
X744929Y608891D01*
X742389Y606351D01*
X741827Y605511D01*
X741630Y604520D01*
Y548640D01*
X741827Y547649D01*
X742389Y546809D01*
X759410Y529787D01*
Y395234D01*
X759282Y395148D01*
X758449Y393901D01*
X758156Y392430D01*
X758449Y390959D01*
X759282Y389712D01*
X760529Y388879D01*
X762000Y388586D01*
X763471Y388879D01*
X764718Y389712D01*
X765551Y390959D01*
X765844Y392430D01*
X765551Y393901D01*
X764718Y395148D01*
X764590Y395234D01*
Y530860D01*
X764393Y531851D01*
X763831Y532691D01*
X746810Y549713D01*
Y557907D01*
X747248Y558208D01*
X748080Y558470D01*
X749099Y557789D01*
X750570Y557496D01*
X752041Y557789D01*
X753288Y558622D01*
X754121Y559869D01*
X754414Y561340D01*
X754121Y562811D01*
X753288Y564058D01*
X753160Y564144D01*
Y567887D01*
X755453Y570180D01*
X774436D01*
X774522Y570052D01*
X775769Y569219D01*
X777240Y568926D01*
X778711Y569219D01*
X779958Y570052D01*
X780791Y571299D01*
X781084Y572770D01*
X780791Y574241D01*
X779958Y575488D01*
X778711Y576321D01*
X777240Y576614D01*
X775769Y576321D01*
X774522Y575488D01*
X774436Y575360D01*
X754380D01*
X753389Y575163D01*
X752549Y574601D01*
X748739Y570791D01*
X748177Y569951D01*
X748080Y569460D01*
X746810Y569585D01*
Y603447D01*
X747833Y604470D01*
X770626D01*
X770712Y604342D01*
X771959Y603509D01*
X773430Y603216D01*
X774901Y603509D01*
X776148Y604342D01*
X776981Y605589D01*
X777274Y607060D01*
X776981Y608531D01*
X776148Y609778D01*
X774901Y610611D01*
X773430Y610904D01*
D02*
G37*
G36*
X703580Y695566D02*
X701301Y695113D01*
X699368Y693822D01*
X698077Y691889D01*
X697624Y689610D01*
X698077Y687331D01*
X699368Y685398D01*
X701301Y684107D01*
X702235Y683921D01*
Y602243D01*
X701697Y602021D01*
X699865Y600615D01*
X698550Y598901D01*
X698154Y598905D01*
X697280Y599254D01*
Y615950D01*
X697083Y616941D01*
X696521Y617781D01*
X682551Y631751D01*
X681711Y632313D01*
X680720Y632510D01*
X669554D01*
X669468Y632638D01*
X668221Y633471D01*
X666750Y633764D01*
X665279Y633471D01*
X664032Y632638D01*
X663199Y631391D01*
X662906Y629920D01*
X663199Y628449D01*
X664032Y627202D01*
X665279Y626369D01*
X666750Y626076D01*
X668221Y626369D01*
X669468Y627202D01*
X669554Y627330D01*
X679647D01*
X692100Y614877D01*
Y594568D01*
X690830Y594484D01*
X690705Y595432D01*
X690502Y596981D01*
X689490Y599423D01*
X687881Y601521D01*
X685783Y603130D01*
X683341Y604142D01*
X681990Y604319D01*
Y594360D01*
Y584401D01*
X683341Y584578D01*
X685783Y585590D01*
X687881Y587199D01*
X689490Y589297D01*
X690502Y591739D01*
X690705Y593288D01*
X690830Y594235D01*
X692100Y594152D01*
Y566684D01*
X691972Y566598D01*
X691139Y565351D01*
X690846Y563880D01*
X691139Y562409D01*
X691972Y561162D01*
X693219Y560329D01*
X694690Y560036D01*
X696161Y560329D01*
X697408Y561162D01*
X698241Y562409D01*
X698534Y563880D01*
X698241Y565351D01*
X697408Y566598D01*
X697280Y566684D01*
Y589467D01*
X698154Y589815D01*
X698550Y589819D01*
X699865Y588105D01*
X701697Y586699D01*
X703831Y585816D01*
X706120Y585514D01*
X708409Y585816D01*
X710543Y586699D01*
X712375Y588105D01*
X713781Y589937D01*
X714664Y592071D01*
X714966Y594360D01*
X714664Y596649D01*
X713781Y598783D01*
X712375Y600615D01*
X710543Y602021D01*
X710005Y602243D01*
Y685970D01*
X709709Y687457D01*
X709246Y688150D01*
X709537Y689610D01*
X709083Y691889D01*
X707792Y693822D01*
X705859Y695113D01*
X703580Y695566D01*
D02*
G37*
G36*
X241300Y824305D02*
X239813Y824009D01*
X238553Y823167D01*
X237711Y821907D01*
X237415Y820420D01*
Y819424D01*
X235865Y818235D01*
X234644Y816643D01*
X233876Y814789D01*
X233614Y812800D01*
X233876Y810811D01*
X234644Y808957D01*
X235865Y807365D01*
X237415Y806176D01*
Y596778D01*
X236145Y596147D01*
X235405Y596641D01*
X233934Y596934D01*
X232463Y596641D01*
X231216Y595808D01*
X230383Y594561D01*
X230090Y593090D01*
X230383Y591619D01*
X231216Y590372D01*
X231344Y590286D01*
Y570754D01*
X230074Y570369D01*
X230048Y570408D01*
X228801Y571241D01*
X227330Y571534D01*
X225859Y571241D01*
X224612Y570408D01*
X223779Y569161D01*
X223486Y567690D01*
X223779Y566219D01*
X224612Y564972D01*
X224740Y564886D01*
Y543183D01*
X224302Y542882D01*
X223470Y542620D01*
X222451Y543301D01*
X220980Y543594D01*
X219509Y543301D01*
X218262Y542468D01*
X217429Y541221D01*
X217136Y539750D01*
X217429Y538279D01*
X218262Y537032D01*
X218390Y536946D01*
Y434482D01*
X218587Y433491D01*
X219149Y432651D01*
X219660Y432139D01*
Y329567D01*
X216533Y326440D01*
X148393D01*
X128320Y346513D01*
Y369518D01*
X128123Y370509D01*
X127561Y371349D01*
X122429Y376481D01*
X121589Y377043D01*
X120598Y377240D01*
X118976D01*
X118930Y377592D01*
X117794Y380334D01*
X115988Y382688D01*
X113634Y384494D01*
X110892Y385630D01*
X107950Y386017D01*
X105008Y385630D01*
X102266Y384494D01*
X99912Y382688D01*
X98106Y380334D01*
X96970Y377592D01*
X96583Y374650D01*
X96970Y371708D01*
X98106Y368966D01*
X99912Y366612D01*
X102266Y364806D01*
X105008Y363670D01*
X107950Y363283D01*
X110892Y363670D01*
X113634Y364806D01*
X115988Y366612D01*
X117794Y368966D01*
X118681Y371108D01*
X120050Y371468D01*
X120136Y371450D01*
X123140Y368446D01*
Y345440D01*
X123337Y344449D01*
X123899Y343609D01*
X144878Y322630D01*
X144352Y321360D01*
X138233D01*
X117027Y342566D01*
X117794Y343566D01*
X118930Y346308D01*
X119317Y349250D01*
X118930Y352192D01*
X117794Y354934D01*
X115988Y357288D01*
X113634Y359094D01*
X110892Y360230D01*
X107950Y360617D01*
X105008Y360230D01*
X102266Y359094D01*
X99912Y357288D01*
X98106Y354934D01*
X96970Y352192D01*
X96583Y349250D01*
X96970Y346308D01*
X98106Y343566D01*
X99912Y341212D01*
X102266Y339406D01*
X105008Y338270D01*
X107950Y337883D01*
X110892Y338270D01*
X113088Y339180D01*
X134561Y317707D01*
X134101Y316535D01*
X133018Y316414D01*
X123751Y325681D01*
X122911Y326243D01*
X121920Y326440D01*
X118976D01*
X118930Y326792D01*
X117794Y329534D01*
X115988Y331888D01*
X113634Y333694D01*
X110892Y334830D01*
X107950Y335217D01*
X105008Y334830D01*
X102266Y333694D01*
X99912Y331888D01*
X98106Y329534D01*
X96970Y326792D01*
X96583Y323850D01*
X96970Y320908D01*
X98106Y318166D01*
X99912Y315812D01*
X102266Y314006D01*
X105008Y312870D01*
X107950Y312483D01*
X110892Y312870D01*
X113634Y314006D01*
X115988Y315812D01*
X117794Y318166D01*
X118930Y320908D01*
X118976Y321260D01*
X120847D01*
X130249Y311859D01*
X131089Y311297D01*
X132080Y311100D01*
X222250D01*
X223241Y311297D01*
X224081Y311859D01*
X235765Y323543D01*
X236145Y324112D01*
X237415Y323842D01*
Y146324D01*
X235865Y145135D01*
X234644Y143543D01*
X233876Y141689D01*
X233614Y139700D01*
X233876Y137711D01*
X234644Y135857D01*
X235865Y134265D01*
X237457Y133044D01*
X239311Y132276D01*
X241300Y132014D01*
X243289Y132276D01*
X245143Y133044D01*
X246735Y134265D01*
X247956Y135857D01*
X248724Y137711D01*
X248986Y139700D01*
X248724Y141689D01*
X247956Y143543D01*
X246735Y145135D01*
X245185Y146324D01*
Y301589D01*
X246455Y301714D01*
X246639Y300789D01*
X247472Y299542D01*
X248719Y298709D01*
X250190Y298416D01*
X251661Y298709D01*
X252908Y299542D01*
X253741Y300789D01*
X254034Y302260D01*
X253741Y303731D01*
X252908Y304978D01*
X251661Y305811D01*
X250650Y306012D01*
X250494Y306169D01*
Y496730D01*
X251764Y497340D01*
X252529Y496829D01*
X254000Y496536D01*
X255471Y496829D01*
X256718Y497662D01*
X257551Y498909D01*
X257844Y500380D01*
X257814Y500531D01*
X280084Y522801D01*
X280882D01*
X281739Y522229D01*
X283210Y521936D01*
X284681Y522229D01*
X285928Y523062D01*
X286761Y524309D01*
X287054Y525780D01*
X286761Y527251D01*
X285928Y528498D01*
X284681Y529331D01*
X283210Y529624D01*
X281739Y529331D01*
X280492Y528498D01*
X280147Y527981D01*
X279011D01*
X278020Y527784D01*
X277180Y527222D01*
X254151Y504194D01*
X254000Y504224D01*
X252529Y503931D01*
X251764Y503420D01*
X250494Y504030D01*
Y558222D01*
X252021Y559749D01*
X252583Y560589D01*
X252780Y561581D01*
Y620766D01*
X252908Y620852D01*
X253741Y622099D01*
X254034Y623570D01*
X253741Y625041D01*
X252908Y626288D01*
X251661Y627121D01*
X250190Y627414D01*
X248719Y627121D01*
X247472Y626288D01*
X246639Y625041D01*
X246480Y624243D01*
X246455Y624115D01*
X245515Y624208D01*
Y624208D01*
X245515Y624208D01*
X245185Y625341D01*
Y806176D01*
X246735Y807365D01*
X247956Y808957D01*
X248724Y810811D01*
X248986Y812800D01*
X248724Y814789D01*
X247956Y816643D01*
X246735Y818235D01*
X245185Y819424D01*
Y820420D01*
X244889Y821907D01*
X244047Y823167D01*
X242787Y824009D01*
X241300Y824305D01*
D02*
G37*
G36*
X679450Y604319D02*
X678099Y604142D01*
X675657Y603130D01*
X673559Y601521D01*
X671950Y599423D01*
X670938Y596981D01*
X670761Y595630D01*
X679450D01*
Y604319D01*
D02*
G37*
G36*
X50720Y600404D02*
X46990D01*
Y589026D01*
X63201D01*
X62937Y591030D01*
X61674Y594080D01*
X59664Y596700D01*
X57044Y598710D01*
X53994Y599973D01*
X50720Y600404D01*
D02*
G37*
G36*
X44450D02*
X40720D01*
X37446Y599973D01*
X34396Y598710D01*
X31776Y596700D01*
X29766Y594080D01*
X28503Y591030D01*
X28239Y589026D01*
X44450D01*
Y600404D01*
D02*
G37*
G36*
X664090Y603130D02*
X646550D01*
Y585590D01*
X664090D01*
Y603130D01*
D02*
G37*
G36*
X679450Y593090D02*
X670761D01*
X670938Y591739D01*
X671950Y589297D01*
X673559Y587199D01*
X675657Y585590D01*
X678099Y584578D01*
X679450Y584401D01*
Y593090D01*
D02*
G37*
G36*
X957580Y606743D02*
X954638Y606356D01*
X951896Y605220D01*
X949542Y603414D01*
X947736Y601060D01*
X946600Y598318D01*
X946213Y595376D01*
X946600Y592434D01*
X947736Y589692D01*
X949542Y587338D01*
X951896Y585532D01*
X954638Y584396D01*
X957580Y584009D01*
X960522Y584396D01*
X963264Y585532D01*
X965618Y587338D01*
X967424Y589692D01*
X968560Y592434D01*
X968947Y595376D01*
X968560Y598318D01*
X967424Y601060D01*
X965618Y603414D01*
X963264Y605220D01*
X960522Y606356D01*
X957580Y606743D01*
D02*
G37*
G36*
X142240Y746367D02*
X139961Y745913D01*
X138028Y744622D01*
X136737Y742689D01*
X136284Y740410D01*
X136737Y738131D01*
X138028Y736198D01*
X138355Y735980D01*
Y613595D01*
X138028Y613376D01*
X136737Y611444D01*
X136284Y609164D01*
X136737Y606885D01*
X138028Y604952D01*
X138355Y604734D01*
Y576085D01*
X137655Y575385D01*
X82625D01*
Y609164D01*
X82329Y610651D01*
X81487Y611911D01*
X77495Y615903D01*
X76235Y616745D01*
X74748Y617041D01*
X61309D01*
X60564Y618840D01*
X58758Y621194D01*
X56404Y623000D01*
X53662Y624136D01*
X50720Y624523D01*
X40720D01*
X37778Y624136D01*
X35036Y623000D01*
X32682Y621194D01*
X30876Y618840D01*
X29740Y616098D01*
X29353Y613156D01*
X29740Y610214D01*
X30876Y607472D01*
X32682Y605118D01*
X35036Y603312D01*
X37778Y602176D01*
X40720Y601789D01*
X50720D01*
X53662Y602176D01*
X56404Y603312D01*
X58758Y605118D01*
X60564Y607472D01*
X61309Y609271D01*
X73139D01*
X74855Y607555D01*
Y571500D01*
Y346535D01*
X74155Y345835D01*
X51870D01*
Y350720D01*
X24330D01*
Y333180D01*
X51870D01*
Y338065D01*
X74855D01*
Y278130D01*
X75151Y276643D01*
X75993Y275383D01*
X81073Y270303D01*
X82333Y269461D01*
X83820Y269165D01*
X97360D01*
X98106Y267366D01*
X99912Y265012D01*
X102266Y263206D01*
X105008Y262070D01*
X107950Y261683D01*
X110892Y262070D01*
X113634Y263206D01*
X115988Y265012D01*
X117794Y267366D01*
X118930Y270108D01*
X119317Y273050D01*
X118930Y275992D01*
X117794Y278734D01*
X115988Y281088D01*
X113634Y282894D01*
X110892Y284030D01*
X107950Y284417D01*
X105008Y284030D01*
X102266Y282894D01*
X99912Y281088D01*
X98106Y278734D01*
X97360Y276935D01*
X85429D01*
X82625Y279739D01*
Y344926D01*
Y567615D01*
X139264D01*
X140751Y567911D01*
X142011Y568753D01*
X144987Y571729D01*
X145829Y572989D01*
X146125Y574476D01*
Y604734D01*
X146452Y604952D01*
X147743Y606885D01*
X148196Y609164D01*
X147743Y611444D01*
X146452Y613376D01*
X146125Y613595D01*
Y735980D01*
X146452Y736198D01*
X147743Y738131D01*
X148196Y740410D01*
X147743Y742689D01*
X146452Y744622D01*
X144519Y745913D01*
X142240Y746367D01*
D02*
G37*
G36*
X63201Y586486D02*
X46990D01*
Y575108D01*
X50720D01*
X53994Y575539D01*
X57044Y576802D01*
X59664Y578812D01*
X61674Y581432D01*
X62937Y584482D01*
X63201Y586486D01*
D02*
G37*
G36*
X44450D02*
X28239D01*
X28503Y584482D01*
X29766Y581432D01*
X31776Y578812D01*
X34396Y576802D01*
X37446Y575539D01*
X40720Y575108D01*
X44450D01*
Y586486D01*
D02*
G37*
G36*
X622300Y625128D02*
X620829Y624835D01*
X619582Y624002D01*
X618749Y622755D01*
X618456Y621284D01*
X618749Y619813D01*
X619582Y618566D01*
X619710Y618480D01*
Y570494D01*
X619582Y570408D01*
X618749Y569161D01*
X618456Y567690D01*
X618749Y566219D01*
X619582Y564972D01*
X620829Y564139D01*
X622300Y563846D01*
X623771Y564139D01*
X625018Y564972D01*
X625851Y566219D01*
X626144Y567690D01*
X625851Y569161D01*
X625018Y570408D01*
X624890Y570494D01*
Y618480D01*
X625018Y618566D01*
X625851Y619813D01*
X626144Y621284D01*
X625851Y622755D01*
X625018Y624002D01*
X623771Y624835D01*
X622300Y625128D01*
D02*
G37*
G36*
X957580Y581343D02*
X954638Y580956D01*
X951896Y579820D01*
X949542Y578014D01*
X947736Y575660D01*
X946600Y572918D01*
X946213Y569976D01*
X946600Y567034D01*
X947736Y564292D01*
X949542Y561938D01*
X951896Y560132D01*
X954638Y558996D01*
X957580Y558609D01*
X960522Y558996D01*
X963264Y560132D01*
X965618Y561938D01*
X967424Y564292D01*
X968560Y567034D01*
X968947Y569976D01*
X968560Y572918D01*
X967424Y575660D01*
X965618Y578014D01*
X963264Y579820D01*
X960522Y580956D01*
X957580Y581343D01*
D02*
G37*
G36*
X681335Y556555D02*
X674439D01*
X674373Y556527D01*
X674304Y556548D01*
X667442Y555872D01*
X667378Y555838D01*
X667308Y555852D01*
X660545Y554507D01*
X660485Y554467D01*
X660414Y554474D01*
X653815Y552472D01*
X653760Y552427D01*
X653688D01*
X647317Y549788D01*
X647267Y549737D01*
X647195Y549730D01*
X641114Y546480D01*
X641068Y546424D01*
X640998Y546410D01*
X635264Y542579D01*
X635225Y542520D01*
X635156Y542499D01*
X629826Y538124D01*
X629792Y538061D01*
X629725Y538034D01*
X624849Y533158D01*
X624822Y533091D01*
X624759Y533058D01*
X620384Y527727D01*
X620363Y527658D01*
X620304Y527619D01*
X616473Y521885D01*
X616459Y521815D01*
X616403Y521769D01*
X613153Y515688D01*
X613146Y515616D01*
X613095Y515566D01*
X610456Y509195D01*
Y509123D01*
X610411Y509068D01*
X608409Y502469D01*
X608416Y502398D01*
X608376Y502338D01*
X607031Y495575D01*
X607045Y495504D01*
X607011Y495441D01*
X606335Y488579D01*
X606356Y488510D01*
X606329Y488444D01*
Y481548D01*
X606356Y481482D01*
X606335Y481413D01*
X607011Y474551D01*
X607045Y474487D01*
X607031Y474417D01*
X608376Y467654D01*
X608416Y467594D01*
X608409Y467523D01*
X610411Y460924D01*
X610456Y460869D01*
Y460797D01*
X613095Y454426D01*
X613146Y454376D01*
X613153Y454304D01*
X616403Y448223D01*
X616459Y448177D01*
X616473Y448107D01*
X620304Y442373D01*
X620363Y442334D01*
X620384Y442265D01*
X624759Y436935D01*
X624822Y436901D01*
X624849Y436834D01*
X629725Y431958D01*
X629792Y431931D01*
X629826Y431868D01*
X635156Y427493D01*
X635225Y427472D01*
X635264Y427413D01*
X640998Y423582D01*
X641068Y423568D01*
X641114Y423512D01*
X647195Y420262D01*
X647267Y420255D01*
X647317Y420204D01*
X653688Y417565D01*
X653760D01*
X653815Y417520D01*
X660414Y415518D01*
X660485Y415525D01*
X660545Y415485D01*
X667308Y414140D01*
X667379Y414154D01*
X667442Y414120D01*
X674304Y413444D01*
X674373Y413465D01*
X674439Y413438D01*
X681335D01*
X681401Y413465D01*
X681470Y413444D01*
X688332Y414120D01*
X688395Y414154D01*
X688466Y414140D01*
X695229Y415485D01*
X695289Y415525D01*
X695360Y415518D01*
X701959Y417520D01*
X702014Y417565D01*
X702086D01*
X708457Y420204D01*
X708507Y420255D01*
X708579Y420262D01*
X714660Y423512D01*
X714706Y423568D01*
X714776Y423582D01*
X720510Y427413D01*
X720549Y427472D01*
X720618Y427493D01*
X725948Y431868D01*
X725982Y431931D01*
X726049Y431958D01*
X730925Y436834D01*
X730952Y436901D01*
X731015Y436935D01*
X735390Y442265D01*
X735411Y442334D01*
X735470Y442373D01*
X739301Y448107D01*
X739315Y448177D01*
X739371Y448223D01*
X742621Y454304D01*
X742628Y454376D01*
X742679Y454426D01*
X745318Y460797D01*
Y460869D01*
X745363Y460924D01*
X747365Y467523D01*
X747358Y467594D01*
X747398Y467654D01*
X748743Y474417D01*
X748729Y474488D01*
X748763Y474551D01*
X749439Y481413D01*
X749418Y481482D01*
X749446Y481548D01*
Y488444D01*
X749418Y488510D01*
X749439Y488579D01*
X748763Y495441D01*
X748729Y495504D01*
X748743Y495575D01*
X747398Y502338D01*
X747358Y502398D01*
X747365Y502469D01*
X745363Y509068D01*
X745318Y509123D01*
Y509195D01*
X742679Y515566D01*
X742628Y515616D01*
X742621Y515688D01*
X739371Y521769D01*
X739315Y521815D01*
X739301Y521885D01*
X735470Y527619D01*
X735411Y527658D01*
X735390Y527727D01*
X731015Y533058D01*
X730952Y533091D01*
X730925Y533158D01*
X726049Y538034D01*
X725982Y538061D01*
X725948Y538124D01*
X720618Y542499D01*
X720549Y542520D01*
X720510Y542579D01*
X714776Y546410D01*
X714706Y546424D01*
X714660Y546480D01*
X708579Y549730D01*
X708507Y549737D01*
X708457Y549788D01*
X702086Y552427D01*
X702014D01*
X701959Y552472D01*
X695360Y554474D01*
X695289Y554467D01*
X695229Y554507D01*
X688466Y555852D01*
X688395Y555838D01*
X688332Y555872D01*
X681470Y556548D01*
X681401Y556527D01*
X681335Y556555D01*
D02*
G37*
G36*
X120490Y564990D02*
X109220D01*
Y553720D01*
X120490D01*
Y564990D01*
D02*
G37*
G36*
X106680D02*
X95410D01*
Y553720D01*
X106680D01*
Y564990D01*
D02*
G37*
G36*
X120490Y551180D02*
X109220D01*
Y539910D01*
X120490D01*
Y551180D01*
D02*
G37*
G36*
X106680D02*
X95410D01*
Y539910D01*
X106680D01*
Y551180D01*
D02*
G37*
G36*
X156210Y689644D02*
X154739Y689351D01*
X153492Y688518D01*
X152659Y687271D01*
X152366Y685800D01*
X152659Y684329D01*
X153492Y683082D01*
X153940Y682783D01*
Y540964D01*
X153812Y540878D01*
X152979Y539631D01*
X152686Y538160D01*
X152979Y536689D01*
X153812Y535442D01*
X155059Y534609D01*
X156530Y534316D01*
X158001Y534609D01*
X159248Y535442D01*
X160081Y536689D01*
X160374Y538160D01*
X160081Y539631D01*
X159248Y540878D01*
X159120Y540964D01*
Y683369D01*
X159761Y684329D01*
X160054Y685800D01*
X159761Y687271D01*
X158928Y688518D01*
X157681Y689351D01*
X156210Y689644D01*
D02*
G37*
G36*
X957580Y555943D02*
X954638Y555556D01*
X951896Y554420D01*
X949542Y552614D01*
X947736Y550260D01*
X946600Y547518D01*
X946213Y544576D01*
X946600Y541634D01*
X947736Y538892D01*
X949542Y536538D01*
X951896Y534732D01*
X954638Y533596D01*
X957580Y533209D01*
X960522Y533596D01*
X963264Y534732D01*
X965618Y536538D01*
X967424Y538892D01*
X968560Y541634D01*
X968947Y544576D01*
X968560Y547518D01*
X967424Y550260D01*
X965618Y552614D01*
X963264Y554420D01*
X960522Y555556D01*
X957580Y555943D01*
D02*
G37*
G36*
X43100Y532077D02*
X39370D01*
Y523220D01*
X53059D01*
X52882Y524571D01*
X51870Y527013D01*
X50261Y529111D01*
X48163Y530720D01*
X45721Y531732D01*
X43100Y532077D01*
D02*
G37*
G36*
X36830D02*
X33100D01*
X30479Y531732D01*
X28037Y530720D01*
X25939Y529111D01*
X24330Y527013D01*
X23318Y524571D01*
X23141Y523220D01*
X36830D01*
Y532077D01*
D02*
G37*
G36*
X346710Y529624D02*
X345239Y529331D01*
X343992Y528498D01*
X343159Y527251D01*
X342866Y525780D01*
X343159Y524309D01*
X343992Y523062D01*
X344120Y522976D01*
Y521593D01*
X343682Y521292D01*
X342850Y521030D01*
X341831Y521711D01*
X340360Y522004D01*
X338889Y521711D01*
X337642Y520878D01*
X336809Y519631D01*
X336516Y518160D01*
X336809Y516689D01*
X337642Y515442D01*
X337770Y515356D01*
Y446034D01*
X337642Y445948D01*
X336809Y444701D01*
X336516Y443230D01*
X336809Y441759D01*
X337642Y440512D01*
X337770Y440426D01*
Y313954D01*
X337642Y313868D01*
X336809Y312621D01*
X336516Y311150D01*
X336809Y309679D01*
X337642Y308432D01*
X338889Y307599D01*
X340360Y307306D01*
X341831Y307599D01*
X343078Y308432D01*
X343911Y309679D01*
X344204Y311150D01*
X343911Y312621D01*
X343078Y313868D01*
X342950Y313954D01*
Y385187D01*
X343388Y385488D01*
X344220Y385750D01*
X345239Y385069D01*
X346710Y384776D01*
X348181Y385069D01*
X349428Y385902D01*
X350261Y387149D01*
X350554Y388620D01*
X350261Y390091D01*
X349428Y391338D01*
X349300Y391424D01*
Y522976D01*
X349428Y523062D01*
X350261Y524309D01*
X350554Y525780D01*
X350261Y527251D01*
X349428Y528498D01*
X348181Y529331D01*
X346710Y529624D01*
D02*
G37*
G36*
X107950Y538417D02*
X105008Y538030D01*
X102266Y536894D01*
X99912Y535088D01*
X98106Y532734D01*
X96970Y529992D01*
X96583Y527050D01*
X96970Y524108D01*
X98106Y521366D01*
X99912Y519012D01*
X102266Y517206D01*
X105008Y516070D01*
X107950Y515683D01*
X110892Y516070D01*
X113634Y517206D01*
X115988Y519012D01*
X117794Y521366D01*
X118930Y524108D01*
X119317Y527050D01*
X118930Y529992D01*
X117794Y532734D01*
X115988Y535088D01*
X113634Y536894D01*
X110892Y538030D01*
X107950Y538417D01*
D02*
G37*
G36*
X957580Y530543D02*
X954638Y530156D01*
X951896Y529020D01*
X949542Y527214D01*
X947736Y524860D01*
X946600Y522118D01*
X946213Y519176D01*
X946600Y516234D01*
X947736Y513492D01*
X949542Y511138D01*
X951896Y509332D01*
X954638Y508196D01*
X957580Y507809D01*
X960522Y508196D01*
X963264Y509332D01*
X965618Y511138D01*
X967424Y513492D01*
X968560Y516234D01*
X968947Y519176D01*
X968560Y522118D01*
X967424Y524860D01*
X965618Y527214D01*
X963264Y529020D01*
X960522Y530156D01*
X957580Y530543D01*
D02*
G37*
G36*
X53059Y520680D02*
X38100D01*
X23141D01*
X23318Y519329D01*
X24330Y516887D01*
X25939Y514789D01*
X28037Y513180D01*
X30479Y512169D01*
X32138Y511950D01*
Y510669D01*
X30811Y510494D01*
X28677Y509611D01*
X26845Y508205D01*
X25439Y506373D01*
X24556Y504240D01*
X24254Y501950D01*
X24556Y499661D01*
X25439Y497527D01*
X26845Y495695D01*
X28677Y494290D01*
X30811Y493406D01*
X33100Y493104D01*
X43100D01*
X45389Y493406D01*
X47523Y494290D01*
X49355Y495695D01*
X50761Y497527D01*
X51644Y499661D01*
X51946Y501950D01*
X51644Y504240D01*
X50761Y506373D01*
X49355Y508205D01*
X47523Y509611D01*
X45389Y510494D01*
X44062Y510669D01*
Y511950D01*
X45721Y512169D01*
X48163Y513180D01*
X50261Y514789D01*
X51870Y516887D01*
X52882Y519329D01*
X53059Y520680D01*
D02*
G37*
G36*
X107950Y513017D02*
X105008Y512630D01*
X102266Y511494D01*
X99912Y509688D01*
X98106Y507334D01*
X96970Y504592D01*
X96583Y501650D01*
X96970Y498708D01*
X98106Y495966D01*
X99912Y493612D01*
X102266Y491806D01*
X105008Y490670D01*
X107950Y490283D01*
X110892Y490670D01*
X113634Y491806D01*
X115988Y493612D01*
X117794Y495966D01*
X118930Y498708D01*
X119317Y501650D01*
X118930Y504592D01*
X117794Y507334D01*
X115988Y509688D01*
X113634Y511494D01*
X110892Y512630D01*
X107950Y513017D01*
D02*
G37*
G36*
X43100Y490796D02*
X33100D01*
X30811Y490494D01*
X28677Y489611D01*
X26845Y488205D01*
X25439Y486373D01*
X24556Y484240D01*
X24254Y481950D01*
X24556Y479661D01*
X25439Y477527D01*
X26845Y475695D01*
X28677Y474290D01*
X30811Y473406D01*
X33100Y473104D01*
X43100D01*
X45389Y473406D01*
X47523Y474290D01*
X49355Y475695D01*
X50761Y477527D01*
X51644Y479661D01*
X51946Y481950D01*
X51644Y484240D01*
X50761Y486373D01*
X49355Y488205D01*
X47523Y489611D01*
X45389Y490494D01*
X43100Y490796D01*
D02*
G37*
G36*
X107950Y487617D02*
X105008Y487230D01*
X102266Y486094D01*
X99912Y484288D01*
X98106Y481934D01*
X96970Y479192D01*
X96583Y476250D01*
X96970Y473308D01*
X98106Y470566D01*
X99912Y468212D01*
X102266Y466406D01*
X105008Y465270D01*
X107950Y464883D01*
X110892Y465270D01*
X113634Y466406D01*
X115988Y468212D01*
X117794Y470566D01*
X118930Y473308D01*
X119317Y476250D01*
X118930Y479192D01*
X117794Y481934D01*
X115988Y484288D01*
X113634Y486094D01*
X110892Y487230D01*
X107950Y487617D01*
D02*
G37*
G36*
X43100Y470796D02*
X33100D01*
X30811Y470494D01*
X28677Y469611D01*
X26845Y468205D01*
X25439Y466373D01*
X24556Y464240D01*
X24254Y461950D01*
X24556Y459661D01*
X25439Y457527D01*
X26845Y455695D01*
X28677Y454290D01*
X30811Y453406D01*
X33100Y453104D01*
X43100D01*
X45389Y453406D01*
X47523Y454290D01*
X49355Y455695D01*
X50761Y457527D01*
X51644Y459661D01*
X51946Y461950D01*
X51644Y464240D01*
X50761Y466373D01*
X49355Y468205D01*
X47523Y469611D01*
X45389Y470494D01*
X43100Y470796D01*
D02*
G37*
G36*
X107950Y462217D02*
X105008Y461830D01*
X102266Y460694D01*
X99912Y458888D01*
X98106Y456534D01*
X96970Y453792D01*
X96583Y450850D01*
X96970Y447908D01*
X98106Y445166D01*
X99912Y442812D01*
X102266Y441006D01*
X105008Y439870D01*
X107950Y439483D01*
X110892Y439870D01*
X113634Y441006D01*
X115988Y442812D01*
X117794Y445166D01*
X118930Y447908D01*
X119317Y450850D01*
X118930Y453792D01*
X117794Y456534D01*
X115988Y458888D01*
X113634Y460694D01*
X110892Y461830D01*
X107950Y462217D01*
D02*
G37*
G36*
X283050Y452310D02*
X260510D01*
Y434770D01*
X283050D01*
Y452310D01*
D02*
G37*
G36*
X43100Y450796D02*
X33100D01*
X30811Y450494D01*
X28677Y449611D01*
X26845Y448205D01*
X25439Y446373D01*
X24556Y444240D01*
X24254Y441950D01*
X24556Y439661D01*
X25439Y437527D01*
X26845Y435695D01*
X28677Y434290D01*
X30811Y433406D01*
X33100Y433104D01*
X43100D01*
X45389Y433406D01*
X47523Y434290D01*
X49355Y435695D01*
X50761Y437527D01*
X51644Y439661D01*
X51946Y441950D01*
X51644Y444240D01*
X50761Y446373D01*
X49355Y448205D01*
X47523Y449611D01*
X45389Y450494D01*
X43100Y450796D01*
D02*
G37*
G36*
X824230Y765844D02*
X822759Y765551D01*
X821512Y764718D01*
X820679Y763471D01*
X820386Y762000D01*
X820679Y760529D01*
X821512Y759282D01*
X821640Y759196D01*
Y415340D01*
X776121D01*
X776036Y415468D01*
X774789Y416301D01*
X773317Y416594D01*
X771846Y416301D01*
X770600Y415468D01*
X769766Y414221D01*
X769474Y412750D01*
X769766Y411279D01*
X770600Y410032D01*
X771846Y409199D01*
X773317Y408906D01*
X774789Y409199D01*
X776036Y410032D01*
X776121Y410160D01*
X822742D01*
X823733Y410357D01*
X824573Y410919D01*
X826061Y412407D01*
X826623Y413247D01*
X826820Y414238D01*
Y759196D01*
X826948Y759282D01*
X827781Y760529D01*
X828074Y762000D01*
X827781Y763471D01*
X826948Y764718D01*
X825701Y765551D01*
X824230Y765844D01*
D02*
G37*
G36*
X274280Y432386D02*
X269280D01*
X266991Y432084D01*
X264857Y431200D01*
X263025Y429795D01*
X261619Y427963D01*
X260736Y425829D01*
X260434Y423540D01*
X260736Y421250D01*
X261619Y419117D01*
X263025Y417285D01*
X264857Y415879D01*
X266991Y414996D01*
X269280Y414694D01*
X274280D01*
X276569Y414996D01*
X278703Y415879D01*
X280535Y417285D01*
X281941Y419117D01*
X282824Y421250D01*
X283126Y423540D01*
X282824Y425829D01*
X281941Y427963D01*
X280535Y429795D01*
X278703Y431200D01*
X276569Y432084D01*
X274280Y432386D01*
D02*
G37*
G36*
X107950Y436817D02*
X105008Y436430D01*
X102266Y435294D01*
X99912Y433488D01*
X98106Y431134D01*
X96970Y428392D01*
X96583Y425450D01*
X96970Y422508D01*
X98106Y419766D01*
X99912Y417412D01*
X102266Y415606D01*
X105008Y414470D01*
X107950Y414083D01*
X110892Y414470D01*
X113634Y415606D01*
X115988Y417412D01*
X117794Y419766D01*
X118930Y422508D01*
X119317Y425450D01*
X118930Y428392D01*
X117794Y431134D01*
X115988Y433488D01*
X113634Y435294D01*
X110892Y436430D01*
X107950Y436817D01*
D02*
G37*
G36*
X43100Y430796D02*
X33100D01*
X30811Y430494D01*
X28677Y429611D01*
X26845Y428205D01*
X25439Y426373D01*
X24556Y424240D01*
X24254Y421950D01*
X24556Y419661D01*
X25439Y417527D01*
X26845Y415695D01*
X28677Y414290D01*
X30811Y413406D01*
X33100Y413104D01*
X43100D01*
X45389Y413406D01*
X47523Y414290D01*
X49355Y415695D01*
X50761Y417527D01*
X51644Y419661D01*
X51946Y421950D01*
X51644Y424240D01*
X50761Y426373D01*
X49355Y428205D01*
X47523Y429611D01*
X45389Y430494D01*
X43100Y430796D01*
D02*
G37*
G36*
X274280Y412386D02*
X269280D01*
X266991Y412084D01*
X264857Y411200D01*
X263025Y409795D01*
X261619Y407963D01*
X260736Y405829D01*
X260434Y403540D01*
X260645Y401939D01*
X258992Y400286D01*
X258615Y400211D01*
X257775Y399649D01*
X255979Y397853D01*
X255417Y397013D01*
X255220Y396022D01*
Y373380D01*
X255417Y372389D01*
X255979Y371549D01*
X260300Y367227D01*
Y298714D01*
X260172Y298628D01*
X259339Y297381D01*
X259046Y295910D01*
X259339Y294439D01*
X260172Y293192D01*
X261419Y292359D01*
X262890Y292066D01*
X264361Y292359D01*
X265608Y293192D01*
X266441Y294439D01*
X266734Y295910D01*
X266441Y297381D01*
X265608Y298628D01*
X265480Y298714D01*
Y368300D01*
X265283Y369291D01*
X264721Y370131D01*
X260400Y374453D01*
Y378517D01*
X261538Y379060D01*
X261670Y379052D01*
X263025Y377285D01*
X264857Y375879D01*
X266991Y374996D01*
X269190Y374706D01*
Y292364D01*
X269062Y292278D01*
X268229Y291031D01*
X267936Y289560D01*
X268229Y288089D01*
X269062Y286842D01*
X270309Y286009D01*
X271780Y285716D01*
X273251Y286009D01*
X274498Y286842D01*
X275331Y288089D01*
X275624Y289560D01*
X275331Y291031D01*
X274498Y292278D01*
X274370Y292364D01*
Y374706D01*
X276569Y374996D01*
X278703Y375879D01*
X280535Y377285D01*
X281941Y379117D01*
X282824Y381251D01*
X283126Y383540D01*
X282824Y385829D01*
X281941Y387963D01*
X280535Y389795D01*
X278703Y391201D01*
X276569Y392084D01*
X274280Y392386D01*
X269280D01*
X266991Y392084D01*
X264857Y391201D01*
X263025Y389795D01*
X261670Y388028D01*
X261538Y388020D01*
X260400Y388563D01*
Y394949D01*
X260801Y395351D01*
X261178Y395425D01*
X262018Y395987D01*
X263190Y397159D01*
X264857Y395879D01*
X266991Y394996D01*
X269280Y394694D01*
X274280D01*
X276569Y394996D01*
X278703Y395879D01*
X280535Y397285D01*
X281941Y399117D01*
X282824Y401251D01*
X283126Y403540D01*
X282824Y405829D01*
X281941Y407963D01*
X280535Y409795D01*
X278703Y411200D01*
X276569Y412084D01*
X274280Y412386D01*
D02*
G37*
G36*
X43100Y410796D02*
X33100D01*
X30811Y410494D01*
X28677Y409611D01*
X26845Y408205D01*
X25439Y406373D01*
X24556Y404240D01*
X24254Y401950D01*
X24556Y399661D01*
X25439Y397527D01*
X26845Y395695D01*
X28677Y394290D01*
X30811Y393406D01*
X33100Y393104D01*
X43100D01*
X45389Y393406D01*
X47523Y394290D01*
X49355Y395695D01*
X50761Y397527D01*
X51644Y399661D01*
X51946Y401950D01*
X51644Y404240D01*
X50761Y406373D01*
X49355Y408205D01*
X47523Y409611D01*
X45389Y410494D01*
X43100Y410796D01*
D02*
G37*
G36*
X107950Y411417D02*
X105008Y411030D01*
X102266Y409894D01*
X99912Y408088D01*
X98106Y405734D01*
X96970Y402992D01*
X96583Y400050D01*
X96970Y397108D01*
X98106Y394366D01*
X99912Y392012D01*
X102266Y390206D01*
X105008Y389070D01*
X107950Y388683D01*
X110892Y389070D01*
X113634Y390206D01*
X115988Y392012D01*
X117794Y394366D01*
X118930Y397108D01*
X119317Y400050D01*
X118930Y402992D01*
X117794Y405734D01*
X115988Y408088D01*
X113634Y409894D01*
X110892Y411030D01*
X107950Y411417D01*
D02*
G37*
G36*
X43100Y390796D02*
X33100D01*
X30811Y390494D01*
X28677Y389611D01*
X26845Y388205D01*
X25439Y386373D01*
X24556Y384239D01*
X24254Y381950D01*
X24556Y379661D01*
X25439Y377527D01*
X26845Y375695D01*
X28677Y374289D01*
X30811Y373406D01*
X33100Y373104D01*
X43100D01*
X45389Y373406D01*
X47523Y374289D01*
X49355Y375695D01*
X50761Y377527D01*
X51644Y379661D01*
X51946Y381950D01*
X51644Y384239D01*
X50761Y386373D01*
X49355Y388205D01*
X47523Y389611D01*
X45389Y390494D01*
X43100Y390796D01*
D02*
G37*
G36*
X311150Y647734D02*
X309679Y647441D01*
X308432Y646608D01*
X307599Y645361D01*
X307306Y643890D01*
X307599Y642419D01*
X308432Y641172D01*
X308560Y641086D01*
Y359811D01*
X307290Y359426D01*
X307182Y359588D01*
X305935Y360421D01*
X304464Y360714D01*
X302993Y360421D01*
X302335Y359981D01*
X301065Y360660D01*
Y366756D01*
X302615Y367945D01*
X303836Y369537D01*
X304604Y371391D01*
X304866Y373380D01*
X304604Y375369D01*
X303836Y377223D01*
X302615Y378815D01*
X301700Y379517D01*
Y450298D01*
X302293Y450544D01*
X303885Y451765D01*
X305106Y453357D01*
X305874Y455211D01*
X306136Y457200D01*
X305874Y459189D01*
X305106Y461043D01*
X303885Y462635D01*
X302293Y463856D01*
X300439Y464624D01*
X298450Y464886D01*
X296461Y464624D01*
X294607Y463856D01*
X293015Y462635D01*
X291794Y461043D01*
X291026Y459189D01*
X290764Y457200D01*
X291026Y455211D01*
X291794Y453357D01*
X293015Y451765D01*
X293930Y451063D01*
Y380282D01*
X293337Y380036D01*
X291745Y378815D01*
X290524Y377223D01*
X289756Y375369D01*
X289494Y373380D01*
X289756Y371391D01*
X290524Y369537D01*
X291745Y367945D01*
X293295Y366756D01*
Y359740D01*
X293213Y359328D01*
Y309735D01*
X293295Y309323D01*
Y263164D01*
X291745Y261975D01*
X290524Y260383D01*
X289756Y258529D01*
X289494Y256540D01*
X289756Y254551D01*
X290524Y252697D01*
X291745Y251105D01*
X293295Y249916D01*
Y62504D01*
X291745Y61315D01*
X290524Y59723D01*
X289756Y57869D01*
X289494Y55880D01*
X289749Y53943D01*
X285411Y49605D01*
X156484D01*
X155295Y51155D01*
X153745Y52344D01*
Y82276D01*
X155295Y83465D01*
X156516Y85057D01*
X157284Y86911D01*
X157546Y88900D01*
X157284Y90889D01*
X156516Y92743D01*
X155295Y94335D01*
X153703Y95556D01*
X151849Y96324D01*
X149860Y96586D01*
X147871Y96324D01*
X146017Y95556D01*
X144425Y94335D01*
X143204Y92743D01*
X142436Y90889D01*
X142174Y88900D01*
X142436Y86911D01*
X143204Y85057D01*
X144425Y83465D01*
X145975Y82276D01*
Y52344D01*
X144425Y51155D01*
X143204Y49563D01*
X142436Y47709D01*
X142174Y45720D01*
X142436Y43731D01*
X143204Y41877D01*
X144425Y40285D01*
X146017Y39064D01*
X147871Y38296D01*
X149860Y38034D01*
X151849Y38296D01*
X153703Y39064D01*
X155295Y40285D01*
X156484Y41835D01*
X287020D01*
X288507Y42131D01*
X289767Y42973D01*
X295243Y48449D01*
X297180Y48194D01*
X299169Y48456D01*
X301023Y49224D01*
X302615Y50445D01*
X303836Y52037D01*
X304604Y53891D01*
X304866Y55880D01*
X304604Y57869D01*
X303836Y59723D01*
X302615Y61315D01*
X301065Y62504D01*
Y249916D01*
X302615Y251105D01*
X303804Y252655D01*
X338816D01*
X340005Y251105D01*
X341597Y249884D01*
X343451Y249116D01*
X345440Y248854D01*
X347429Y249116D01*
X349283Y249884D01*
X350875Y251105D01*
X352096Y252697D01*
X352864Y254551D01*
X353126Y256540D01*
X352864Y258529D01*
X352096Y260383D01*
X350875Y261975D01*
X349283Y263196D01*
X347429Y263964D01*
X345440Y264226D01*
X343451Y263964D01*
X341597Y263196D01*
X340005Y261975D01*
X338816Y260425D01*
X303804D01*
X302615Y261975D01*
X301065Y263164D01*
Y304792D01*
X302335Y305062D01*
X302715Y304493D01*
X308049Y299159D01*
X308889Y298597D01*
X309880Y298400D01*
X342636D01*
X342722Y298272D01*
X343969Y297439D01*
X345440Y297146D01*
X346911Y297439D01*
X348158Y298272D01*
X348991Y299519D01*
X349284Y300990D01*
X348991Y302461D01*
X348158Y303708D01*
X346911Y304541D01*
X345440Y304834D01*
X343969Y304541D01*
X342722Y303708D01*
X342636Y303580D01*
X310953D01*
X307136Y307397D01*
Y311896D01*
X308406Y312281D01*
X308432Y312242D01*
X309679Y311409D01*
X311150Y311116D01*
X312621Y311409D01*
X313868Y312242D01*
X314701Y313489D01*
X314994Y314960D01*
X314701Y316431D01*
X313868Y317678D01*
X313740Y317764D01*
Y641086D01*
X313868Y641172D01*
X314701Y642419D01*
X314994Y643890D01*
X314701Y645361D01*
X313868Y646608D01*
X312621Y647441D01*
X311150Y647734D01*
D02*
G37*
G36*
X812606Y363386D02*
X802834D01*
X802972Y362690D01*
X804086Y361022D01*
X805753Y359908D01*
X806281Y359803D01*
Y358509D01*
X805753Y358404D01*
X804086Y357290D01*
X802972Y355622D01*
X802834Y354926D01*
X812606D01*
X812468Y355622D01*
X811354Y357290D01*
X809687Y358404D01*
X809159Y358509D01*
Y359803D01*
X809687Y359908D01*
X811354Y361022D01*
X812468Y362690D01*
X812606Y363386D01*
D02*
G37*
G36*
X43100Y370796D02*
X33100D01*
X30811Y370494D01*
X28677Y369611D01*
X26845Y368205D01*
X25439Y366373D01*
X24556Y364239D01*
X24254Y361950D01*
X24556Y359661D01*
X25439Y357527D01*
X26845Y355695D01*
X28677Y354289D01*
X30811Y353406D01*
X33100Y353104D01*
X43100D01*
X45389Y353406D01*
X47523Y354289D01*
X49355Y355695D01*
X50761Y357527D01*
X51644Y359661D01*
X51946Y361950D01*
X51644Y364239D01*
X50761Y366373D01*
X49355Y368205D01*
X47523Y369611D01*
X45389Y370494D01*
X43100Y370796D01*
D02*
G37*
G36*
X812606Y352386D02*
X808990D01*
Y348770D01*
X809687Y348908D01*
X811354Y350022D01*
X812468Y351689D01*
X812606Y352386D01*
D02*
G37*
G36*
X806450D02*
X802834D01*
X802972Y351689D01*
X804086Y350022D01*
X805753Y348908D01*
X806450Y348770D01*
Y352386D01*
D02*
G37*
G36*
X365760Y515654D02*
X364289Y515361D01*
X363042Y514528D01*
X362209Y513281D01*
X361916Y511810D01*
X362209Y510339D01*
X363042Y509092D01*
X363170Y509006D01*
Y426879D01*
X363367Y425887D01*
X363929Y425047D01*
X364130Y424846D01*
Y344180D01*
X364002Y344094D01*
X363169Y342847D01*
X362876Y341376D01*
X363169Y339905D01*
X364002Y338658D01*
X365249Y337825D01*
X366720Y337532D01*
X368191Y337825D01*
X369438Y338658D01*
X370271Y339905D01*
X370564Y341376D01*
X370271Y342847D01*
X369438Y344094D01*
X369310Y344180D01*
Y425919D01*
X369113Y426910D01*
X368551Y427750D01*
X368350Y427951D01*
Y509006D01*
X368478Y509092D01*
X369311Y510339D01*
X369604Y511810D01*
X369311Y513281D01*
X368478Y514528D01*
X367231Y515361D01*
X365760Y515654D01*
D02*
G37*
G36*
X540240Y327680D02*
X528570D01*
Y321093D01*
X532550D01*
X534584Y321361D01*
X536479Y322146D01*
X538106Y323394D01*
X539355Y325021D01*
X540140Y326916D01*
X540240Y327680D01*
D02*
G37*
G36*
X526030D02*
X514360D01*
X514460Y326916D01*
X515246Y325021D01*
X516494Y323394D01*
X518121Y322146D01*
X520016Y321361D01*
X522050Y321093D01*
X526030D01*
Y327680D01*
D02*
G37*
G36*
X498440D02*
X486770D01*
Y321093D01*
X490750D01*
X492784Y321361D01*
X494679Y322146D01*
X496306Y323394D01*
X497555Y325021D01*
X498340Y326916D01*
X498440Y327680D01*
D02*
G37*
G36*
X484230D02*
X472560D01*
X472660Y326916D01*
X473446Y325021D01*
X474694Y323394D01*
X476321Y322146D01*
X478216Y321361D01*
X480250Y321093D01*
X484230D01*
Y327680D01*
D02*
G37*
G36*
X292100Y702344D02*
X290629Y702051D01*
X289382Y701218D01*
X288549Y699971D01*
X288256Y698500D01*
X288549Y697029D01*
X289382Y695782D01*
X290629Y694949D01*
X292100Y694656D01*
X293571Y694949D01*
X294818Y695782D01*
X294904Y695910D01*
X317697D01*
X318720Y694887D01*
Y322844D01*
X318592Y322758D01*
X317759Y321511D01*
X317466Y320040D01*
X317759Y318569D01*
X318592Y317322D01*
X319839Y316489D01*
X321310Y316196D01*
X322781Y316489D01*
X324028Y317322D01*
X324861Y318569D01*
X325154Y320040D01*
X324861Y321511D01*
X324028Y322758D01*
X323900Y322844D01*
Y695960D01*
X323703Y696951D01*
X323141Y697791D01*
X320601Y700331D01*
X319761Y700893D01*
X318770Y701090D01*
X294904D01*
X294818Y701218D01*
X293571Y702051D01*
X292100Y702344D01*
D02*
G37*
G36*
X490500Y319258D02*
X488736Y318908D01*
X487241Y317909D01*
X486242Y316414D01*
X485891Y314650D01*
X486242Y312886D01*
X487241Y311391D01*
X488736Y310392D01*
X490500Y310041D01*
X492264Y310392D01*
X493759Y311391D01*
X494758Y312886D01*
X495109Y314650D01*
X494758Y316414D01*
X493759Y317909D01*
X492264Y318908D01*
X490500Y319258D01*
D02*
G37*
G36*
X330200Y718854D02*
X328729Y718561D01*
X327482Y717728D01*
X326649Y716481D01*
X326356Y715010D01*
X326649Y713539D01*
X327482Y712292D01*
X327610Y712206D01*
Y316494D01*
X327482Y316408D01*
X326649Y315161D01*
X326356Y313690D01*
X326649Y312219D01*
X327482Y310972D01*
X328729Y310139D01*
X330200Y309846D01*
X331671Y310139D01*
X332918Y310972D01*
X333751Y312219D01*
X334044Y313690D01*
X333751Y315161D01*
X332918Y316408D01*
X332790Y316494D01*
Y712206D01*
X332918Y712292D01*
X333751Y713539D01*
X334044Y715010D01*
X333751Y716481D01*
X332918Y717728D01*
X331671Y718561D01*
X330200Y718854D01*
D02*
G37*
G36*
X515620Y305676D02*
X513341Y305223D01*
X511408Y303932D01*
X510497Y302569D01*
X500423D01*
X499512Y303932D01*
X497579Y305223D01*
X495300Y305676D01*
X493021Y305223D01*
X491088Y303932D01*
X489797Y301999D01*
X489343Y299720D01*
X489797Y297441D01*
X491088Y295508D01*
X493021Y294217D01*
X495300Y293764D01*
X497579Y294217D01*
X499512Y295508D01*
X500423Y296871D01*
X510497D01*
X511408Y295508D01*
X513341Y294217D01*
X515620Y293764D01*
X517899Y294217D01*
X519832Y295508D01*
X521123Y297441D01*
X521576Y299720D01*
X521123Y301999D01*
X519832Y303932D01*
X517899Y305223D01*
X515620Y305676D01*
D02*
G37*
G36*
X356870Y670594D02*
X355399Y670301D01*
X354152Y669468D01*
X353319Y668221D01*
X353026Y666750D01*
X353319Y665279D01*
X354152Y664032D01*
X354280Y663946D01*
Y302524D01*
X354152Y302438D01*
X353319Y301191D01*
X353026Y299720D01*
X353319Y298249D01*
X354152Y297002D01*
X355399Y296169D01*
X356870Y295876D01*
X358341Y296169D01*
X359588Y297002D01*
X360421Y298249D01*
X360714Y299720D01*
X360421Y301191D01*
X359588Y302438D01*
X359460Y302524D01*
Y663946D01*
X359588Y664032D01*
X360421Y665279D01*
X360714Y666750D01*
X360421Y668221D01*
X359588Y669468D01*
X358341Y670301D01*
X356870Y670594D01*
D02*
G37*
G36*
X107950Y309817D02*
X105008Y309430D01*
X102266Y308294D01*
X99912Y306488D01*
X98106Y304134D01*
X96970Y301392D01*
X96583Y298450D01*
X96970Y295508D01*
X98106Y292766D01*
X99912Y290412D01*
X102266Y288606D01*
X105008Y287470D01*
X107950Y287083D01*
X110892Y287470D01*
X113634Y288606D01*
X115988Y290412D01*
X117794Y292766D01*
X118930Y295508D01*
X119317Y298450D01*
X118930Y301392D01*
X117794Y304134D01*
X115988Y306488D01*
X113634Y308294D01*
X110892Y309430D01*
X107950Y309817D01*
D02*
G37*
G36*
X455930Y306104D02*
X454459Y305811D01*
X453212Y304978D01*
X452379Y303731D01*
X452086Y302260D01*
X452379Y300789D01*
X453212Y299542D01*
X453340Y299456D01*
Y280696D01*
X453537Y279705D01*
X454099Y278865D01*
X458466Y274497D01*
X458436Y274346D01*
X458729Y272875D01*
X459562Y271628D01*
X460809Y270795D01*
X462280Y270502D01*
X463751Y270795D01*
X464998Y271628D01*
X465831Y272875D01*
X466124Y274346D01*
X465831Y275817D01*
X464998Y277064D01*
X463751Y277897D01*
X462280Y278190D01*
X462129Y278160D01*
X458520Y281769D01*
Y299456D01*
X458648Y299542D01*
X459481Y300789D01*
X459774Y302260D01*
X459481Y303731D01*
X458648Y304978D01*
X457401Y305811D01*
X455930Y306104D01*
D02*
G37*
G36*
X490500Y261459D02*
X488736Y261108D01*
X487241Y260109D01*
X486242Y258614D01*
X485891Y256850D01*
X486242Y255086D01*
X487241Y253591D01*
X488736Y252592D01*
X490500Y252241D01*
X492264Y252592D01*
X493759Y253591D01*
X494758Y255086D01*
X495109Y256850D01*
X494758Y258614D01*
X493759Y260109D01*
X492264Y261108D01*
X490500Y261459D01*
D02*
G37*
G36*
X490750Y250407D02*
X486770D01*
Y243820D01*
X498440D01*
X498340Y244584D01*
X497555Y246479D01*
X496306Y248106D01*
X494679Y249354D01*
X492784Y250140D01*
X490750Y250407D01*
D02*
G37*
G36*
X532550D02*
X528570D01*
Y243820D01*
X540240D01*
X540140Y244584D01*
X539355Y246479D01*
X538106Y248106D01*
X536479Y249354D01*
X534584Y250140D01*
X532550Y250407D01*
D02*
G37*
G36*
X526030D02*
X522050D01*
X520016Y250140D01*
X518121Y249354D01*
X516494Y248106D01*
X515246Y246479D01*
X514460Y244584D01*
X514360Y243820D01*
X526030D01*
Y250407D01*
D02*
G37*
G36*
X484230D02*
X480250D01*
X478216Y250140D01*
X476321Y249354D01*
X474694Y248106D01*
X473446Y246479D01*
X472660Y244584D01*
X472560Y243820D01*
X484230D01*
Y250407D01*
D02*
G37*
G36*
X498440Y241280D02*
X486770D01*
Y234693D01*
X490750D01*
X492784Y234960D01*
X494679Y235746D01*
X496306Y236994D01*
X497555Y238621D01*
X498340Y240516D01*
X498440Y241280D01*
D02*
G37*
G36*
X484230D02*
X472560D01*
X472660Y240516D01*
X473446Y238621D01*
X474694Y236994D01*
X476321Y235746D01*
X478216Y234960D01*
X480250Y234693D01*
X484230D01*
Y241280D01*
D02*
G37*
G36*
X416560Y122742D02*
X410869Y122294D01*
X405317Y120962D01*
X400043Y118777D01*
X395175Y115794D01*
X390834Y112086D01*
X387126Y107745D01*
X384143Y102877D01*
X381959Y97603D01*
X380626Y92051D01*
X380178Y86360D01*
X380626Y80669D01*
X381959Y75117D01*
X384143Y69843D01*
X387126Y64975D01*
X390834Y60634D01*
X395175Y56926D01*
X400043Y53943D01*
X405317Y51758D01*
X410869Y50426D01*
X416560Y49978D01*
X422251Y50426D01*
X427803Y51758D01*
X433077Y53943D01*
X437945Y56926D01*
X442286Y60634D01*
X445994Y64975D01*
X448977Y69843D01*
X451161Y75117D01*
X452494Y80669D01*
X452942Y86360D01*
X452494Y92051D01*
X451161Y97603D01*
X448977Y102877D01*
X445994Y107745D01*
X442286Y112086D01*
X437945Y115794D01*
X433077Y118777D01*
X427803Y120962D01*
X422251Y122294D01*
X416560Y122742D01*
D02*
G37*
%LPD*%
G36*
X577495Y728625D02*
X579087Y727404D01*
X580941Y726636D01*
X582930Y726374D01*
X584919Y726636D01*
X586773Y727404D01*
X588365Y728625D01*
X589230Y729753D01*
X590500Y729322D01*
Y562053D01*
X581099Y552651D01*
X580537Y551811D01*
X580340Y550820D01*
Y503813D01*
X579902Y503512D01*
X579070Y503250D01*
X578051Y503931D01*
X576580Y504224D01*
X575109Y503931D01*
X573862Y503098D01*
X573776Y502970D01*
X466354D01*
X466268Y503098D01*
X465021Y503931D01*
X463550Y504224D01*
X462079Y503931D01*
X460832Y503098D01*
X459999Y501851D01*
X459790Y500800D01*
X458520Y500925D01*
Y517087D01*
X464623Y523190D01*
X478526D01*
X478612Y523062D01*
X479859Y522229D01*
X481330Y521936D01*
X482801Y522229D01*
X484048Y523062D01*
X484881Y524309D01*
X485174Y525780D01*
X484881Y527251D01*
X484048Y528498D01*
X482801Y529331D01*
X481330Y529624D01*
X479859Y529331D01*
X478612Y528498D01*
X478526Y528370D01*
X463550D01*
X462559Y528173D01*
X461719Y527611D01*
X454099Y519991D01*
X453537Y519151D01*
X453340Y518160D01*
Y486955D01*
X452070Y486830D01*
X451998Y487194D01*
X451861Y487881D01*
X451028Y489128D01*
X450900Y489214D01*
Y541217D01*
X453239Y543556D01*
X453390Y543526D01*
X454861Y543819D01*
X456108Y544652D01*
X456941Y545899D01*
X457234Y547370D01*
X456941Y548841D01*
X456108Y550088D01*
X454861Y550921D01*
X453390Y551214D01*
X451919Y550921D01*
X450672Y550088D01*
X449839Y548841D01*
X449546Y547370D01*
X449576Y547219D01*
X446479Y544121D01*
X445917Y543281D01*
X445820Y542790D01*
X444550Y542915D01*
Y561340D01*
X444353Y562331D01*
X443791Y563171D01*
X439981Y566981D01*
X439141Y567543D01*
X438150Y567740D01*
X434361D01*
X433120Y568981D01*
Y592545D01*
X434390Y592670D01*
X434462Y592306D01*
X434599Y591619D01*
X435432Y590372D01*
X436679Y589539D01*
X438150Y589246D01*
X439621Y589539D01*
X440868Y590372D01*
X440954Y590500D01*
X526034D01*
X527025Y590697D01*
X527865Y591259D01*
X543409Y606802D01*
X543560Y606772D01*
X545031Y607065D01*
X546278Y607898D01*
X547111Y609145D01*
X547404Y610616D01*
X547111Y612087D01*
X546278Y613334D01*
X545031Y614167D01*
X543560Y614460D01*
X542089Y614167D01*
X540842Y613334D01*
X540009Y612087D01*
X539716Y610616D01*
X539746Y610465D01*
X524961Y595680D01*
X440954D01*
X440868Y595808D01*
X439621Y596641D01*
X438150Y596934D01*
X436679Y596641D01*
X435432Y595808D01*
X434599Y594561D01*
X434462Y593874D01*
X434390Y593510D01*
X433120Y593635D01*
Y655056D01*
X433248Y655142D01*
X434081Y656389D01*
X434374Y657860D01*
X434081Y659331D01*
X433248Y660578D01*
X432001Y661411D01*
X430530Y661704D01*
X429059Y661411D01*
X427812Y660578D01*
X426979Y659331D01*
X426686Y657860D01*
X426979Y656389D01*
X427812Y655142D01*
X427940Y655056D01*
Y567908D01*
X428137Y566917D01*
X428699Y566077D01*
X431457Y563319D01*
X432297Y562757D01*
X433288Y562560D01*
X437077D01*
X439370Y560267D01*
Y540295D01*
X438100Y540170D01*
X437891Y541221D01*
X437058Y542468D01*
X435811Y543301D01*
X434340Y543594D01*
X432869Y543301D01*
X431622Y542468D01*
X430789Y541221D01*
X430496Y539750D01*
X430789Y538279D01*
X431622Y537032D01*
X432869Y536199D01*
X433020Y536169D01*
Y485404D01*
X432892Y485318D01*
X432059Y484071D01*
X431766Y482600D01*
X432059Y481129D01*
X432892Y479882D01*
X434139Y479049D01*
X435610Y478756D01*
X437081Y479049D01*
X438328Y479882D01*
X439161Y481129D01*
X439454Y482600D01*
X439161Y484071D01*
X438328Y485318D01*
X438200Y485404D01*
Y527427D01*
X438638Y527728D01*
X439470Y527990D01*
X440489Y527309D01*
X441960Y527016D01*
X443431Y527309D01*
X444450Y527990D01*
X445282Y527728D01*
X445720Y527427D01*
Y489214D01*
X445592Y489128D01*
X444759Y487881D01*
X444466Y486410D01*
X444759Y484939D01*
X445592Y483692D01*
X446839Y482859D01*
X448310Y482566D01*
X449781Y482859D01*
X451028Y483692D01*
X451861Y484939D01*
X451998Y485626D01*
X452070Y485990D01*
X453340Y485864D01*
Y473974D01*
X453212Y473888D01*
X452379Y472641D01*
X452086Y471170D01*
X452379Y469699D01*
X453212Y468452D01*
X454459Y467619D01*
X455930Y467326D01*
X457401Y467619D01*
X458648Y468452D01*
X459481Y469699D01*
X459774Y471170D01*
X459481Y472641D01*
X458648Y473888D01*
X458520Y473974D01*
Y490945D01*
X459790Y491070D01*
X459999Y490019D01*
X460832Y488772D01*
X462079Y487939D01*
X463550Y487646D01*
X465021Y487939D01*
X466268Y488772D01*
X466354Y488900D01*
X569226D01*
X569312Y488772D01*
X570559Y487939D01*
X572030Y487646D01*
X573013Y487842D01*
X573074Y487833D01*
X574077Y487140D01*
X574244Y486908D01*
Y409956D01*
X574441Y408965D01*
X575003Y408125D01*
X576736Y406391D01*
X576694Y406062D01*
X576236Y405095D01*
X575109Y404871D01*
X573862Y404038D01*
X573029Y402791D01*
X572736Y401320D01*
X573029Y399849D01*
X573862Y398602D01*
X573990Y398516D01*
Y373401D01*
X571479Y370890D01*
X440954D01*
X440868Y371018D01*
X439621Y371851D01*
X438150Y372144D01*
X436679Y371851D01*
X435432Y371018D01*
X434599Y369771D01*
X434306Y368300D01*
X434599Y366829D01*
X435432Y365582D01*
X436679Y364749D01*
X438150Y364456D01*
X439621Y364749D01*
X440868Y365582D01*
X440954Y365710D01*
X572552D01*
X573543Y365907D01*
X574383Y366469D01*
X578411Y370497D01*
X578973Y371337D01*
X579070Y371828D01*
X580340Y371702D01*
Y364293D01*
X578436Y362389D01*
X576368D01*
X575511Y362961D01*
X574040Y363254D01*
X572569Y362961D01*
X571322Y362128D01*
X571236Y362000D01*
X449844D01*
X449758Y362128D01*
X448511Y362961D01*
X447040Y363254D01*
X445569Y362961D01*
X444322Y362128D01*
X443489Y360881D01*
X443196Y359410D01*
X443489Y357939D01*
X444170Y356920D01*
X443908Y356088D01*
X443607Y355650D01*
X408990D01*
Y509006D01*
X409118Y509092D01*
X409951Y510339D01*
X410244Y511810D01*
X409951Y513281D01*
X409118Y514528D01*
X407871Y515361D01*
X406400Y515654D01*
X404929Y515361D01*
X403682Y514528D01*
X402849Y513281D01*
X402640Y512230D01*
X401370Y512355D01*
Y531866D01*
X401498Y531952D01*
X402331Y533199D01*
X402624Y534670D01*
X402331Y536141D01*
X401498Y537388D01*
X400251Y538221D01*
X398780Y538514D01*
X397309Y538221D01*
X396062Y537388D01*
X395229Y536141D01*
X395092Y535454D01*
X395020Y535090D01*
X393840Y535207D01*
X393750Y535401D01*
Y554726D01*
X393878Y554812D01*
X394711Y556059D01*
X395004Y557530D01*
X394711Y559001D01*
X393878Y560248D01*
X392631Y561081D01*
X391160Y561374D01*
X389689Y561081D01*
X388695Y560417D01*
X387791Y560716D01*
X387425Y560979D01*
Y714339D01*
X388695Y714464D01*
X388879Y713539D01*
X389712Y712292D01*
X390959Y711459D01*
X392430Y711166D01*
X393901Y711459D01*
X395148Y712292D01*
X395981Y713539D01*
X396274Y715010D01*
X396244Y715161D01*
X405140Y724057D01*
X559817D01*
X559903Y723929D01*
X561150Y723096D01*
X562621Y722803D01*
X564092Y723096D01*
X565339Y723929D01*
X566172Y725176D01*
X566465Y726647D01*
X566172Y728118D01*
X565646Y728905D01*
X566238Y730175D01*
X576306D01*
X577495Y728625D01*
D02*
G37*
%LPC*%
G36*
X505460Y675674D02*
X503989Y675381D01*
X502742Y674548D01*
X501909Y673301D01*
X501616Y671830D01*
X501909Y670359D01*
X502742Y669112D01*
X502743Y669111D01*
Y667728D01*
X502623Y667622D01*
X501473Y667165D01*
X500581Y667761D01*
X499110Y668054D01*
X497639Y667761D01*
X496392Y666928D01*
X495559Y665681D01*
X495266Y664210D01*
X495559Y662739D01*
X496392Y661492D01*
X496520Y661406D01*
Y634461D01*
X496430Y634267D01*
X495250Y634150D01*
X495178Y634514D01*
X495041Y635201D01*
X494208Y636448D01*
X492961Y637281D01*
X491490Y637574D01*
X490019Y637281D01*
X488772Y636448D01*
X487939Y635201D01*
X487646Y633730D01*
X487939Y632259D01*
X488772Y631012D01*
X490019Y630179D01*
X491490Y629886D01*
X491499Y628904D01*
X490550Y628152D01*
X490042Y627812D01*
X489956Y627684D01*
X445273D01*
X444678Y628574D01*
X443431Y629407D01*
X441960Y629700D01*
X440489Y629407D01*
X439242Y628574D01*
X438409Y627327D01*
X438116Y625856D01*
X438409Y624385D01*
X439242Y623138D01*
X440489Y622305D01*
X441960Y622012D01*
X443431Y622305D01*
X443730Y622504D01*
X489956D01*
X490042Y622376D01*
X491289Y621543D01*
X492760Y621250D01*
X494231Y621543D01*
X495250Y622224D01*
X496082Y621962D01*
X496520Y621661D01*
Y614944D01*
X496392Y614858D01*
X495559Y613611D01*
X495266Y612140D01*
X495559Y610669D01*
X496392Y609422D01*
X497639Y608589D01*
X499110Y608296D01*
X500581Y608589D01*
X501828Y609422D01*
X502661Y610669D01*
X502954Y612140D01*
X502661Y613611D01*
X502390Y614016D01*
X502509Y614484D01*
X503735Y615193D01*
X505206Y614900D01*
X506677Y615193D01*
X507924Y616026D01*
X508353Y616667D01*
X508507Y616714D01*
X509817Y616587D01*
X510362Y615772D01*
X511609Y614939D01*
X513080Y614646D01*
X514551Y614939D01*
X515798Y615772D01*
X516631Y617019D01*
X516924Y618490D01*
X516631Y619961D01*
X515798Y621208D01*
X515670Y621294D01*
Y641086D01*
X515798Y641172D01*
X516631Y642419D01*
X516924Y643890D01*
X516631Y645361D01*
X515798Y646608D01*
X514551Y647441D01*
X513080Y647734D01*
X511609Y647441D01*
X510362Y646608D01*
X509529Y645361D01*
X509236Y643890D01*
X509529Y642419D01*
X510362Y641172D01*
X510490Y641086D01*
Y621471D01*
X509661Y620670D01*
X508364Y620804D01*
X507924Y621462D01*
X507923Y621463D01*
Y668941D01*
X508178Y669112D01*
X509011Y670359D01*
X509304Y671830D01*
X509011Y673301D01*
X508178Y674548D01*
X506931Y675381D01*
X505460Y675674D01*
D02*
G37*
G36*
X466090Y697264D02*
X464619Y696971D01*
X463372Y696138D01*
X462539Y694891D01*
X462246Y693420D01*
X462539Y691949D01*
X463372Y690702D01*
X463500Y690616D01*
Y639074D01*
X463372Y638988D01*
X462539Y637741D01*
X462246Y636270D01*
X462539Y634799D01*
X463372Y633552D01*
X464619Y632719D01*
X466090Y632426D01*
X467561Y632719D01*
X468808Y633552D01*
X469641Y634799D01*
X469934Y636270D01*
X469641Y637741D01*
X468808Y638988D01*
X468680Y639074D01*
Y690616D01*
X468808Y690702D01*
X469641Y691949D01*
X469934Y693420D01*
X469641Y694891D01*
X468808Y696138D01*
X467561Y696971D01*
X466090Y697264D01*
D02*
G37*
G36*
X584200Y618524D02*
X582729Y618231D01*
X581482Y617398D01*
X580649Y616151D01*
X580356Y614680D01*
X580649Y613209D01*
X581482Y611962D01*
X581610Y611876D01*
Y595894D01*
X581482Y595808D01*
X580649Y594561D01*
X580356Y593090D01*
X580649Y591619D01*
X581482Y590372D01*
X582729Y589539D01*
X584200Y589246D01*
X585671Y589539D01*
X586918Y590372D01*
X587751Y591619D01*
X588044Y593090D01*
X587751Y594561D01*
X586918Y595808D01*
X586790Y595894D01*
Y611876D01*
X586918Y611962D01*
X587751Y613209D01*
X588044Y614680D01*
X587751Y616151D01*
X586918Y617398D01*
X585671Y618231D01*
X584200Y618524D01*
D02*
G37*
G36*
X554990Y646464D02*
X553519Y646171D01*
X552272Y645338D01*
X551439Y644091D01*
X551146Y642620D01*
X551439Y641149D01*
X552272Y639902D01*
X552400Y639816D01*
Y578923D01*
X550107Y576630D01*
X499110D01*
X498119Y576433D01*
X497279Y575871D01*
X489101Y567694D01*
X488950Y567724D01*
X487479Y567431D01*
X486232Y566598D01*
X485399Y565351D01*
X485106Y563880D01*
X485399Y562409D01*
X486232Y561162D01*
X487479Y560329D01*
X488950Y560036D01*
X490421Y560329D01*
X491668Y561162D01*
X492501Y562409D01*
X492794Y563880D01*
X492764Y564031D01*
X500183Y571450D01*
X551180D01*
X552171Y571647D01*
X553011Y572209D01*
X556821Y576019D01*
X557383Y576859D01*
X557580Y577850D01*
Y639816D01*
X557708Y639902D01*
X558541Y641149D01*
X558834Y642620D01*
X558541Y644091D01*
X557708Y645338D01*
X556461Y646171D01*
X554990Y646464D01*
D02*
G37*
G36*
X497670Y703186D02*
X495390Y702733D01*
X493458Y701442D01*
X492167Y699509D01*
X491713Y697230D01*
X492167Y694951D01*
X493458Y693018D01*
X495390Y691727D01*
X497670Y691273D01*
X499949Y691727D01*
X501882Y693018D01*
X502100Y693345D01*
X543221D01*
X566345Y670221D01*
Y581660D01*
X566641Y580173D01*
X567483Y578913D01*
X574510Y571886D01*
X574434Y571500D01*
X574887Y569221D01*
X576178Y567288D01*
X578111Y565997D01*
X580390Y565544D01*
X582669Y565997D01*
X584602Y567288D01*
X585893Y569221D01*
X586347Y571500D01*
X585893Y573779D01*
X584602Y575712D01*
X582669Y577003D01*
X580390Y577457D01*
X580004Y577380D01*
X574115Y583269D01*
Y671830D01*
X573819Y673317D01*
X572977Y674577D01*
X547577Y699977D01*
X546317Y700819D01*
X544830Y701115D01*
X502100D01*
X501882Y701442D01*
X499949Y702733D01*
X497670Y703186D01*
D02*
G37*
G36*
X427990Y468237D02*
X425711Y467783D01*
X423778Y466492D01*
X422487Y464559D01*
X422034Y462280D01*
X422487Y460001D01*
X423778Y458068D01*
X425711Y456777D01*
X427990Y456324D01*
X430269Y456777D01*
X432202Y458068D01*
X432421Y458395D01*
X449241D01*
X469693Y437943D01*
X470953Y437101D01*
X472440Y436805D01*
X540400D01*
X540618Y436478D01*
X542551Y435187D01*
X544830Y434734D01*
X547109Y435187D01*
X549042Y436478D01*
X550333Y438411D01*
X550787Y440690D01*
X550333Y442969D01*
X549042Y444902D01*
X547109Y446193D01*
X544830Y446646D01*
X542551Y446193D01*
X540618Y444902D01*
X540400Y444575D01*
X474049D01*
X453597Y465027D01*
X452337Y465869D01*
X450850Y466165D01*
X432421D01*
X432202Y466492D01*
X430269Y467783D01*
X427990Y468237D01*
D02*
G37*
G36*
X548640Y431834D02*
X547169Y431541D01*
X545922Y430708D01*
X545836Y430580D01*
X484134D01*
X484048Y430708D01*
X482801Y431541D01*
X481330Y431834D01*
X479859Y431541D01*
X478612Y430708D01*
X477779Y429461D01*
X477486Y427990D01*
X477779Y426519D01*
X478612Y425272D01*
X479859Y424439D01*
X481330Y424146D01*
X482801Y424439D01*
X484048Y425272D01*
X484134Y425400D01*
X545836D01*
X545922Y425272D01*
X547169Y424439D01*
X548640Y424146D01*
X550111Y424439D01*
X551358Y425272D01*
X552191Y426519D01*
X552484Y427990D01*
X552191Y429461D01*
X551358Y430708D01*
X550111Y431541D01*
X548640Y431834D01*
D02*
G37*
G36*
X521970Y412356D02*
X519691Y411903D01*
X517758Y410612D01*
X516467Y408679D01*
X516075Y406709D01*
X490263D01*
X489352Y408072D01*
X487419Y409363D01*
X485140Y409817D01*
X482861Y409363D01*
X480928Y408072D01*
X479637Y406139D01*
X479184Y403860D01*
X479637Y401581D01*
X480928Y399648D01*
X482861Y398357D01*
X485140Y397904D01*
X487419Y398357D01*
X489352Y399648D01*
X490263Y401011D01*
X517780D01*
X517780Y401011D01*
X518871Y401228D01*
X519033Y401337D01*
X519691Y400897D01*
X521970Y400443D01*
X524249Y400897D01*
X526182Y402188D01*
X527473Y404121D01*
X527926Y406400D01*
X527473Y408679D01*
X526182Y410612D01*
X524249Y411903D01*
X521970Y412356D01*
D02*
G37*
G36*
X538480Y470776D02*
X536201Y470323D01*
X534268Y469032D01*
X532977Y467099D01*
X532523Y464820D01*
X532977Y462541D01*
X534268Y460608D01*
X536201Y459317D01*
X538480Y458863D01*
X540759Y459317D01*
X542692Y460608D01*
X542910Y460935D01*
X548301D01*
X561265Y447971D01*
Y390391D01*
X560935Y389258D01*
X560935Y389258D01*
Y389258D01*
X559995Y389165D01*
X559970Y389293D01*
X559811Y390091D01*
X558978Y391338D01*
X557731Y392171D01*
X556260Y392464D01*
X554789Y392171D01*
X553542Y391338D01*
X552709Y390091D01*
X552679Y389940D01*
X421904D01*
X421818Y390068D01*
X420571Y390901D01*
X419100Y391194D01*
X417629Y390901D01*
X416382Y390068D01*
X415549Y388821D01*
X415256Y387350D01*
X415549Y385879D01*
X416382Y384632D01*
X417629Y383799D01*
X419100Y383506D01*
X420571Y383799D01*
X421818Y384632D01*
X421904Y384760D01*
X554990D01*
X555665Y384894D01*
X556260Y384776D01*
X557731Y385069D01*
X558978Y385902D01*
X559811Y387149D01*
X559970Y387947D01*
X559995Y388074D01*
X560935Y387982D01*
Y387982D01*
X560935Y387982D01*
X561265Y386849D01*
Y382891D01*
X560938Y382672D01*
X559647Y380739D01*
X559193Y378460D01*
X559647Y376181D01*
X560938Y374248D01*
X562871Y372957D01*
X565150Y372504D01*
X567429Y372957D01*
X569362Y374248D01*
X570653Y376181D01*
X571106Y378460D01*
X570653Y380739D01*
X569362Y382672D01*
X569035Y382891D01*
Y449580D01*
X568739Y451067D01*
X567897Y452327D01*
X552657Y467567D01*
X551397Y468409D01*
X549910Y468705D01*
X542910D01*
X542692Y469032D01*
X540759Y470323D01*
X538480Y470776D01*
D02*
G37*
%LPD*%
D10*
X254000Y500380D02*
X279011Y525391D01*
X247904Y305096D02*
X250190Y302810D01*
X247904Y305096D02*
Y559295D01*
X262890Y295910D02*
Y368300D01*
X250190Y302260D02*
Y302810D01*
X679450Y754380D02*
X717550D01*
X732790Y769620D01*
Y781050D01*
X600710Y699689D02*
X621110Y720090D01*
X646430D01*
X554990Y577850D02*
Y642620D01*
X499110Y574040D02*
X551180D01*
X554990Y577850D01*
X526034Y593090D02*
X543560Y610616D01*
X600710Y657860D02*
Y699689D01*
X463550Y525780D02*
X481330D01*
X107950Y323850D02*
X121920D01*
X132080Y313690D01*
X137160Y318770D02*
X219710D01*
X107950Y347980D02*
X137160Y318770D01*
X107950Y347980D02*
Y349250D01*
Y374650D02*
X120598D01*
X125730Y369518D01*
Y345440D02*
Y369518D01*
Y345440D02*
X147320Y323850D01*
X876300Y584200D02*
Y599809D01*
Y386043D02*
Y584200D01*
X247904Y559295D02*
X250190Y561581D01*
Y623570D01*
X282821Y525391D02*
X283210Y525780D01*
X279011Y525391D02*
X282821D01*
X222250Y313690D02*
X233934Y325374D01*
Y593090D01*
X419100Y387350D02*
X554990D01*
X556260Y388620D01*
X915670D02*
X939582D01*
X867410Y340360D02*
X915670Y388620D01*
X941070Y390108D02*
Y626110D01*
X939582Y388620D02*
X941070Y390108D01*
X864870Y354330D02*
X894080Y383540D01*
X900430Y407670D02*
Y453172D01*
X894080Y383540D02*
Y401320D01*
X900430Y407670D01*
Y453172D02*
X901918Y454660D01*
X928152D01*
X895350D02*
X900326Y459636D01*
X866140Y361950D02*
X889000Y384810D01*
X895350Y410210D02*
Y454660D01*
X889000Y384810D02*
Y403860D01*
X895350Y410210D01*
X882823Y386253D02*
Y473883D01*
X889000Y412750D02*
Y462280D01*
X864616Y368046D02*
X882823Y386253D01*
Y473883D02*
X894080Y485140D01*
X826770Y340360D02*
X867410D01*
X929894Y570561D02*
Y609600D01*
X923290Y482600D02*
Y779780D01*
X922782Y482092D02*
X923290Y482600D01*
X922782Y464546D02*
Y482092D01*
X917872Y459636D02*
X922782Y464546D01*
X923290Y779780D02*
X942340Y798830D01*
X929640Y456148D02*
Y571500D01*
X928152Y454660D02*
X929640Y456148D01*
X883920Y487680D02*
Y598170D01*
X843280Y509270D02*
Y571500D01*
X850900Y474980D02*
X850900Y770890D01*
X861060Y500020D02*
Y604520D01*
X875030Y618490D01*
X861060Y500020D02*
X863600Y497480D01*
X868680Y547370D02*
Y570230D01*
X910590Y600710D02*
Y652780D01*
X909320Y654050D02*
X910590Y652780D01*
X941070Y626110D02*
Y656590D01*
X954946Y623410D02*
X957580Y620776D01*
X943770Y623410D02*
X954946D01*
X941070Y626110D02*
X943770Y623410D01*
X894080Y584200D02*
Y666481D01*
Y533400D02*
Y584200D01*
X901954Y665734D02*
X905510Y669290D01*
X901954Y477266D02*
Y665734D01*
Y477266D02*
X902970Y476250D01*
X760476Y748284D02*
X770890Y737870D01*
X603504Y748284D02*
X760476D01*
X593090Y737870D02*
X603504Y748284D01*
X618490Y734278D02*
Y741680D01*
X593090Y560980D02*
Y737870D01*
X619978Y732790D02*
X731520D01*
X721360Y697470D02*
X742710Y718820D01*
X778510D01*
X601980Y726440D02*
X794802D01*
X796290Y727928D01*
X618490Y734278D02*
X619978Y732790D01*
X442722Y625094D02*
X492760D01*
X441960Y625856D02*
X442722Y625094D01*
X835914Y368046D02*
X864616D01*
X862875Y372618D02*
X876300Y386043D01*
X848698Y372618D02*
X862875D01*
X843280Y361950D02*
X866140D01*
X835660Y354330D02*
X864870D01*
X900326Y459636D02*
X917872D01*
X889000Y462280D02*
X902970Y476250D01*
X894080Y485140D02*
Y533400D01*
X842856Y378460D02*
X848698Y372618D01*
X861060Y384810D02*
Y386080D01*
X894080Y666481D02*
X900430Y672831D01*
X750570Y561340D02*
Y568960D01*
X754380Y572770D01*
X777240D01*
X875030Y654050D02*
Y720090D01*
Y618490D02*
Y654050D01*
X488950Y563880D02*
X499110Y574040D01*
X680720Y629920D02*
X694690Y615950D01*
X666750Y629920D02*
X680720D01*
X304546Y306324D02*
Y356788D01*
X304464Y356870D02*
X304546Y356788D01*
X392120Y331216D02*
Y443699D01*
X391160Y444659D02*
Y557530D01*
Y444659D02*
X392120Y443699D01*
X366720Y341376D02*
Y425919D01*
X365760Y426879D02*
Y511810D01*
Y426879D02*
X366720Y425919D01*
X304546Y306324D02*
X309880Y300990D01*
X132080Y313690D02*
X222250D01*
X219710Y318770D02*
X227330Y326390D01*
Y567690D01*
X694690Y563880D02*
Y615950D01*
X705104Y707094D02*
X718524D01*
X718820Y707390D01*
X356870Y299720D02*
Y666750D01*
X406400Y354548D02*
X407888Y353060D01*
X406400Y354548D02*
Y511810D01*
X407888Y353060D02*
X581660D01*
X398780Y349468D02*
Y534670D01*
Y349468D02*
X400268Y347980D01*
X703580D01*
X581660Y353060D02*
X588010Y359410D01*
X447040Y289560D02*
Y332232D01*
X703580Y347980D02*
X726066Y370466D01*
X588010Y359410D02*
X707390D01*
X726440Y378460D01*
X842856D01*
X834390Y369570D02*
X835914Y368046D01*
X726066Y370466D02*
X833437D01*
X834333Y369570D01*
X834390D01*
X857504Y389636D02*
Y430749D01*
Y389636D02*
X861060Y386080D01*
X455930Y280696D02*
X462280Y274346D01*
X455930Y280696D02*
Y302260D01*
X374650Y579120D02*
Y651510D01*
X727710Y642620D02*
X728099Y642231D01*
Y637151D02*
Y642231D01*
Y637151D02*
X735330Y629920D01*
X721360Y582930D02*
Y697470D01*
X763711Y655320D02*
X795020D01*
X762807Y656224D02*
X763711Y655320D01*
X731886Y656224D02*
X762807D01*
X735330Y629920D02*
X764540D01*
X455930Y518160D02*
X463550Y525780D01*
X455930Y471170D02*
Y518160D01*
X448310Y542290D02*
X453390Y547370D01*
X448310Y486410D02*
Y542290D01*
X434340Y539200D02*
X435610Y537930D01*
X434340Y539200D02*
Y539750D01*
X441960Y530860D02*
Y561340D01*
X435610Y482600D02*
Y537930D01*
X481330Y427990D02*
X548640D01*
X612140Y415290D02*
X618490D01*
X641350Y392430D01*
X582930Y423128D02*
Y485140D01*
Y423128D02*
X584418Y421640D01*
X641350Y400050D02*
X750352D01*
X619760Y421640D02*
X641350Y400050D01*
X584418Y421640D02*
X619760D01*
X642620Y406400D02*
X742732D01*
X589280Y429260D02*
X591820Y426720D01*
X622300D02*
X642620Y406400D01*
X591820Y426720D02*
X622300D01*
X589280Y429260D02*
Y477520D01*
X717550Y386080D02*
Y390942D01*
X716062Y392430D02*
X717550Y390942D01*
X641350Y392430D02*
X716062D01*
X750352Y400050D02*
X751840Y401538D01*
Y412750D01*
X744220Y407888D02*
Y420370D01*
X742732Y406400D02*
X744220Y407888D01*
X858520Y466514D02*
X859282Y465752D01*
Y432527D02*
Y465752D01*
X857504Y430749D02*
X859282Y432527D01*
X855980Y483870D02*
X858520Y481330D01*
Y466514D02*
Y481330D01*
Y607368D02*
Y650240D01*
X855980Y604828D02*
X858520Y607368D01*
X855980Y483870D02*
Y604828D01*
X576834Y409956D02*
X589280Y397510D01*
X577850Y488681D02*
Y488950D01*
X576834Y487665D02*
X577850Y488681D01*
X576834Y409956D02*
Y487665D01*
X577850Y488950D02*
X582930Y494030D01*
Y550820D01*
X463550Y491490D02*
X463550Y491490D01*
X572030D01*
X463550Y500380D02*
X576580D01*
X582930Y550820D02*
X593090Y560980D01*
X589280Y379730D02*
Y397510D01*
X824230Y414238D02*
Y762000D01*
X773317Y412750D02*
X822742D01*
X824230Y414238D01*
X762000Y392430D02*
Y530860D01*
X744220Y548640D02*
X762000Y530860D01*
X582930Y363220D02*
Y395224D01*
X346710Y388620D02*
Y525780D01*
X321310Y320040D02*
Y695960D01*
X574429Y359799D02*
X579509D01*
X582930Y363220D01*
X447040Y359410D02*
X574040D01*
X438150Y368300D02*
X572552D01*
X576580Y372328D01*
Y401320D01*
X635000Y614680D02*
Y656372D01*
X584200Y593090D02*
Y614680D01*
X622300Y567690D02*
Y621284D01*
X438150Y593090D02*
X526034D01*
X617002Y779230D02*
Y779780D01*
Y779230D02*
X618490Y777742D01*
Y762059D02*
Y777742D01*
X689610Y691600D02*
X705104Y707094D01*
X392430Y715010D02*
X404067Y726647D01*
X562621D01*
X887730Y611239D02*
Y707390D01*
X876300Y599809D02*
X887730Y611239D01*
X499110Y612140D02*
Y664210D01*
X513080Y618490D02*
Y643890D01*
X505333Y618871D02*
Y671703D01*
X505206Y618744D02*
X505333Y618871D01*
Y671703D02*
X505460Y671830D01*
X727710Y669290D02*
X768350D01*
X727710Y678180D02*
X779780D01*
X430530Y567908D02*
X433288Y565150D01*
X430530Y567908D02*
Y657860D01*
X433288Y565150D02*
X438150D01*
X441960Y561340D01*
X466090Y636270D02*
Y693420D01*
X689610Y673100D02*
Y691600D01*
X744220Y548640D02*
Y604520D01*
X746760Y607060D01*
X773430D01*
X857250Y678180D02*
X864870Y685800D01*
Y745490D01*
X589280Y379730D02*
X596900Y372110D01*
X271780Y289560D02*
Y383540D01*
X257810Y373380D02*
X262890Y368300D01*
X257810Y396022D02*
X259606Y397818D01*
X257810Y373380D02*
Y396022D01*
X311150Y314960D02*
Y643890D01*
X309880Y300990D02*
X345440D01*
X340360Y443230D02*
Y518160D01*
Y311150D02*
Y443230D01*
X330200Y313690D02*
Y715010D01*
X429260Y271780D02*
X447040Y289560D01*
X863600Y400050D02*
Y497480D01*
X220980Y434482D02*
Y539750D01*
X222250Y328494D02*
Y433212D01*
X220980Y434482D02*
X222250Y433212D01*
X217388Y323632D02*
X222250Y328494D01*
X217170Y323850D02*
X217388Y323632D01*
X147320Y323850D02*
X217170D01*
X292100Y698500D02*
X318770D01*
X321310Y695960D01*
X789390Y694690D02*
X790660Y693420D01*
X734060Y694690D02*
X789390D01*
X790660Y693420D02*
X791210D01*
X265908Y403540D02*
X271780D01*
X260187Y397818D02*
X265908Y403540D01*
X259606Y397818D02*
X260187D01*
X156210Y685800D02*
X156530Y685480D01*
Y538160D02*
Y685480D01*
X900430Y672831D02*
Y681990D01*
X942340Y798830D02*
X957326D01*
X957580Y798576D01*
D11*
X241300Y139700D02*
Y820420D01*
X497670Y697230D02*
X544830D01*
X570230Y671830D01*
Y581660D02*
Y671830D01*
Y581660D02*
X580390Y571500D01*
X297815Y456565D02*
X298450Y457200D01*
X297815Y374015D02*
Y456565D01*
X297180Y373380D02*
X297815Y374015D01*
X297180Y359410D02*
Y373380D01*
X78740Y278130D02*
X83820Y273050D01*
X107950D01*
X78740Y278130D02*
Y344926D01*
X331470Y746760D02*
X497840D01*
X835914Y477266D02*
X850900Y462280D01*
X835914Y477266D02*
Y593344D01*
X836930Y594360D01*
X914400Y468018D02*
Y530710D01*
X851535Y460575D02*
X852070Y461110D01*
X851535Y381635D02*
X852170Y381000D01*
X851535Y381635D02*
Y460575D01*
X383540Y208280D02*
Y731084D01*
X386516Y734060D01*
X297098Y309735D02*
X297180Y309653D01*
X297098Y359328D02*
X297180Y359410D01*
X297098Y309735D02*
Y359328D01*
X297180Y256540D02*
Y309653D01*
X607060Y534670D02*
Y538480D01*
X598170Y525780D02*
X607060Y534670D01*
X598170Y440690D02*
Y525780D01*
X538480Y464820D02*
X549910D01*
X565150Y378460D02*
Y449580D01*
X549910Y464820D02*
X565150Y449580D01*
X420370Y339598D02*
X565150D01*
X472440Y440690D02*
X544830D01*
X386516Y734060D02*
X582930D01*
X706120Y594360D02*
Y685970D01*
X142240Y609164D02*
Y740410D01*
Y574476D02*
Y609164D01*
X427990Y462280D02*
X450850D01*
X472440Y440690D01*
X607060Y538480D02*
Y593090D01*
X297180Y256540D02*
X345440D01*
X297180Y55880D02*
Y256540D01*
X287020Y45720D02*
X297180Y55880D01*
X78740Y571500D02*
Y609164D01*
Y344926D02*
Y571500D01*
X139264D02*
X142240Y574476D01*
X78740Y571500D02*
X139264D01*
X54516Y735236D02*
X58570Y739290D01*
Y829116D01*
X33020Y735236D02*
X54516D01*
X33020Y755236D02*
X33095Y755311D01*
Y829041D01*
X33170Y829116D01*
X38100Y341950D02*
X75764D01*
X45720Y613156D02*
X74748D01*
X78740Y609164D01*
X75764Y341950D02*
X78740Y344926D01*
X149860Y45720D02*
Y88900D01*
Y45720D02*
X287020D01*
D114*
X690880Y379476D02*
D03*
D115*
X665480D02*
D03*
D130*
X810260Y279400D02*
X855980D01*
X782320Y307340D02*
X810260Y279400D01*
X788670Y335280D02*
X807720Y316230D01*
X883233D01*
X782320Y307340D02*
Y308027D01*
X774700Y315647D02*
X782320Y308027D01*
X774700Y315647D02*
Y345440D01*
X883233Y316230D02*
X885773Y313690D01*
X886460D01*
D131*
X517780Y403860D02*
X520320Y406400D01*
X521970D01*
X485140Y403860D02*
X517780D01*
X495300Y299720D02*
X515620D01*
D135*
X807720Y364656D02*
D03*
Y353656D02*
D03*
X254000Y500380D02*
D03*
X262890Y295910D02*
D03*
X250190Y302260D02*
D03*
X679450Y754380D02*
D03*
X646430Y720090D02*
D03*
X543560Y610616D02*
D03*
X554990Y642620D02*
D03*
X481330Y525780D02*
D03*
X419100Y387350D02*
D03*
X889000Y412750D02*
D03*
X826770Y340360D02*
D03*
X929894Y609600D02*
D03*
X929640Y571500D02*
D03*
X883920Y487680D02*
D03*
X843280Y509270D02*
D03*
Y571500D02*
D03*
X868680Y547370D02*
D03*
Y570230D02*
D03*
X910590Y600710D02*
D03*
X941070Y656590D02*
D03*
X894080Y584200D02*
D03*
X770890Y737870D02*
D03*
X618490Y741680D02*
D03*
X731520Y732790D02*
D03*
X778510Y718820D02*
D03*
X441960Y625856D02*
D03*
X902970Y476250D02*
D03*
X861060Y384810D02*
D03*
X909320Y654050D02*
D03*
X875030D02*
D03*
X488950Y563880D02*
D03*
X702310Y717550D02*
D03*
X666750Y629920D02*
D03*
X737870Y643890D02*
D03*
X304464Y356870D02*
D03*
X392120Y331216D02*
D03*
X366720Y341376D02*
D03*
X694690Y563880D02*
D03*
X718820Y707390D02*
D03*
X356870Y666750D02*
D03*
X365760Y511810D02*
D03*
X406400D02*
D03*
X398780Y534670D02*
D03*
X447040Y332232D02*
D03*
X843280Y361950D02*
D03*
X835660Y354330D02*
D03*
X283210Y525780D02*
D03*
X462280Y274346D02*
D03*
X455930Y302260D02*
D03*
X374650Y579120D02*
D03*
Y651510D02*
D03*
X727710Y642620D02*
D03*
X731886Y656224D02*
D03*
X795020Y655320D02*
D03*
X455930Y471170D02*
D03*
X448310Y486410D02*
D03*
X441960Y530860D02*
D03*
X481330Y427990D02*
D03*
X548640D02*
D03*
X612140Y415290D02*
D03*
X717550Y386080D02*
D03*
X858520Y650240D02*
D03*
X744220Y420370D02*
D03*
X589280Y477520D02*
D03*
X582930Y485140D02*
D03*
X850900Y474980D02*
D03*
X556260Y388620D02*
D03*
X572030Y491490D02*
D03*
X576580Y500380D02*
D03*
X751840Y412750D02*
D03*
X773317D02*
D03*
X762000Y392430D02*
D03*
X582930Y395224D02*
D03*
X463550Y500380D02*
D03*
Y491490D02*
D03*
X346710Y388620D02*
D03*
Y525780D02*
D03*
X321310Y320040D02*
D03*
X391160Y557530D02*
D03*
X574040Y359410D02*
D03*
X447040D02*
D03*
X438150Y368300D02*
D03*
X635000Y614680D02*
D03*
X584200D02*
D03*
X622300Y621284D02*
D03*
X438150Y593090D02*
D03*
X250190Y623570D02*
D03*
X227330Y567690D02*
D03*
X617002Y779780D02*
D03*
X618490Y759986D02*
D03*
X562621Y726647D02*
D03*
X601980Y726440D02*
D03*
X883920Y598170D02*
D03*
X491490Y633730D02*
D03*
X635000Y657860D02*
D03*
X727710Y678180D02*
D03*
Y669290D02*
D03*
X430530Y657860D02*
D03*
X434340Y539750D02*
D03*
X600710Y657860D02*
D03*
X466090Y636270D02*
D03*
Y693420D02*
D03*
X513080Y618490D02*
D03*
X499110Y612140D02*
D03*
X505206Y618744D02*
D03*
X492760Y625094D02*
D03*
X499110Y664210D02*
D03*
X768350Y669290D02*
D03*
X505460Y671830D02*
D03*
X513080Y643890D02*
D03*
X688340Y673100D02*
D03*
X721360Y582930D02*
D03*
X750570Y561340D02*
D03*
X850900Y770890D02*
D03*
X824230Y762000D02*
D03*
X779780Y678180D02*
D03*
X796290Y727928D02*
D03*
X732790Y781050D02*
D03*
X857250Y678180D02*
D03*
X435610Y482600D02*
D03*
X453390Y547370D02*
D03*
X764540Y629920D02*
D03*
X773430Y607060D02*
D03*
X864870Y745490D02*
D03*
X356870Y299720D02*
D03*
X311150Y314960D02*
D03*
X345440Y300990D02*
D03*
X340360Y518160D02*
D03*
Y443230D02*
D03*
Y311150D02*
D03*
X392430Y715010D02*
D03*
X330200D02*
D03*
Y313690D02*
D03*
X311150Y643890D02*
D03*
X429260Y271780D02*
D03*
X576580Y401320D02*
D03*
X271780Y289560D02*
D03*
X863600Y400050D02*
D03*
X876300Y584200D02*
D03*
X875030Y720090D02*
D03*
X233934Y593090D02*
D03*
X220980Y539750D02*
D03*
X292100Y698500D02*
D03*
X584200Y593090D02*
D03*
X734060Y694690D02*
D03*
X622300Y567690D02*
D03*
X791210Y693420D02*
D03*
X156210Y685800D02*
D03*
X156530Y538160D02*
D03*
X894080Y533400D02*
D03*
X900430Y681990D02*
D03*
X887730Y707390D02*
D03*
X905510Y669290D02*
D03*
X777240Y572770D02*
D03*
X596900Y372110D02*
D03*
D136*
X172720Y849376D02*
D03*
X942980Y279910D02*
D03*
X416560Y86360D02*
D03*
D137*
X527300Y242550D02*
D03*
Y328950D02*
D03*
X485500Y242550D02*
D03*
Y328950D02*
D03*
D138*
X490500Y314650D02*
D03*
Y256850D02*
D03*
D139*
X271780Y403540D02*
D03*
Y423540D02*
D03*
Y383540D02*
D03*
D140*
Y443540D02*
D03*
D141*
X497600Y75700D02*
D03*
Y13200D02*
D03*
D142*
X706120Y594360D02*
D03*
X680720D02*
D03*
D143*
X655320D02*
D03*
D144*
X45720Y638556D02*
D03*
Y587756D02*
D03*
Y663956D02*
D03*
Y613156D02*
D03*
D145*
X33020Y735236D02*
D03*
X38100Y341950D02*
D03*
D146*
X33020Y755236D02*
D03*
X38100Y521950D02*
D03*
Y501950D02*
D03*
Y461950D02*
D03*
Y441950D02*
D03*
Y361950D02*
D03*
Y381950D02*
D03*
Y401950D02*
D03*
Y421950D02*
D03*
Y481950D02*
D03*
D147*
X58570Y829116D02*
D03*
D148*
X33170D02*
D03*
D149*
X107950Y527050D02*
D03*
Y501650D02*
D03*
Y476250D02*
D03*
Y450850D02*
D03*
Y425450D02*
D03*
Y400050D02*
D03*
Y374650D02*
D03*
Y349250D02*
D03*
Y323850D02*
D03*
Y298450D02*
D03*
Y273050D02*
D03*
X957580Y773176D02*
D03*
Y747776D02*
D03*
Y722376D02*
D03*
Y696976D02*
D03*
Y671576D02*
D03*
Y646176D02*
D03*
Y620776D02*
D03*
Y595376D02*
D03*
Y569976D02*
D03*
Y544576D02*
D03*
Y519176D02*
D03*
D150*
X107950Y552450D02*
D03*
X957580Y798576D02*
D03*
D151*
X129540Y394970D02*
D03*
X144780Y207010D02*
D03*
X521970Y406400D02*
D03*
X497670Y697230D02*
D03*
X497840Y746760D02*
D03*
X812800Y535940D02*
D03*
X914400Y468018D02*
D03*
X852170Y381000D02*
D03*
X951230Y368300D02*
D03*
X538480Y464820D02*
D03*
X544830Y440690D02*
D03*
X420370Y339598D02*
D03*
X565150D02*
D03*
X850900Y462280D02*
D03*
X836930Y594360D02*
D03*
X598170Y440690D02*
D03*
X565150Y378460D02*
D03*
X321310Y781050D02*
D03*
X601980Y864870D02*
D03*
X331470Y746760D02*
D03*
X142240Y740410D02*
D03*
X427990Y462280D02*
D03*
X703580Y689610D02*
D03*
X549910Y410210D02*
D03*
X607060Y538480D02*
D03*
Y593090D02*
D03*
X142240Y609164D02*
D03*
X914400Y530860D02*
D03*
X580390Y571500D02*
D03*
X485140Y403860D02*
D03*
X515620Y299720D02*
D03*
X495300D02*
D03*
D152*
X855980Y279400D02*
D03*
X840740Y316230D02*
D03*
X298450Y457200D02*
D03*
X788670Y335280D02*
D03*
X782320Y307340D02*
D03*
X886460Y313690D02*
D03*
X774700Y345440D02*
D03*
X582930Y734060D02*
D03*
X297180Y373380D02*
D03*
X149860Y45720D02*
D03*
X345440Y256540D02*
D03*
X241300Y812800D02*
D03*
Y139700D02*
D03*
X383540Y208280D02*
D03*
X297180Y256540D02*
D03*
Y55880D02*
D03*
X149860Y88900D02*
D03*
M02*
