G04*
G04 #@! TF.GenerationSoftware,Altium Limited,Altium Designer,23.3.1 (30)*
G04*
G04 Layer_Color=65280*
%FSLAX44Y44*%
%MOMM*%
G71*
G04*
G04 #@! TF.SameCoordinates,049E622D-B5B7-477E-837E-60E0A1272B7F*
G04*
G04*
G04 #@! TF.FilePolarity,Negative*
G04*
G01*
G75*
%ADD17R,0.4572X1.3970*%
%ADD19R,0.4064X1.2192*%
%ADD20R,2.0066X0.8890*%
%ADD24R,0.9906X3.5052*%
%ADD25R,0.6096X1.0414*%
%ADD31R,0.5334X1.1430*%
%ADD32R,0.6096X1.1430*%
%ADD35R,0.4064X0.5080*%
%ADD36R,1.5240X0.5588*%
%ADD40R,0.5588X1.3208*%
%ADD44R,0.2540X0.8128*%
%ADD45R,0.8128X0.2540*%
%ADD46R,1.7526X2.1590*%
%ADD47R,1.0922X2.2098*%
%ADD48R,1.5240X1.5240*%
%ADD49R,1.7018X3.6068*%
%ADD50R,0.6032X0.7032*%
%ADD51R,1.0532X1.1532*%
%ADD52R,1.1000X1.2000*%
%ADD53R,1.1532X1.0532*%
%ADD54R,1.1032X1.0032*%
%ADD55R,1.0032X1.1032*%
%ADD56R,1.0032X1.0032*%
%ADD57R,1.2000X1.1000*%
%ADD58R,1.4532X1.8532*%
%ADD59R,1.0032X1.0032*%
%ADD60R,1.4032X1.4032*%
%ADD61R,1.4032X1.4032*%
%ADD62R,2.7940X2.7940*%
%ADD63C,1.3970*%
%ADD64O,1.2700X1.9558*%
%ADD65R,1.7032X1.7032*%
%ADD66C,1.7032*%
%ADD67C,2.2032*%
%ADD68O,1.9532X2.7032*%
%ADD69R,1.9532X2.7032*%
%ADD70C,1.3032*%
%ADD71R,1.3032X1.3032*%
%ADD72C,3.5052*%
%ADD73R,2.2032X2.2032*%
%ADD74C,0.7112*%
%ADD75C,1.4224*%
%ADD76C,1.2192*%
G36*
X85598Y209296D02*
X79502D01*
Y212344D01*
X74549Y216789D01*
Y248158D01*
X79883D01*
X85217D01*
X90551D01*
Y216789D01*
X85598Y212344D01*
Y209296D01*
D02*
G37*
D17*
X340680Y68906D02*
D03*
X347180D02*
D03*
X353680D02*
D03*
X360180D02*
D03*
X366680D02*
D03*
D19*
X637460Y311531D02*
D03*
X627460D02*
D03*
X632460Y295529D02*
D03*
X600710D02*
D03*
X595710Y311531D02*
D03*
X605710D02*
D03*
D20*
X382943Y402590D02*
D03*
Y389890D02*
D03*
Y377190D02*
D03*
Y364490D02*
D03*
Y351790D02*
D03*
Y339090D02*
D03*
Y326390D02*
D03*
Y313690D02*
D03*
Y300990D02*
D03*
Y288290D02*
D03*
Y275590D02*
D03*
Y262890D02*
D03*
Y250190D02*
D03*
Y237490D02*
D03*
X552943Y402590D02*
D03*
Y389890D02*
D03*
Y377190D02*
D03*
Y364490D02*
D03*
Y351790D02*
D03*
Y339090D02*
D03*
Y326390D02*
D03*
Y313690D02*
D03*
Y300990D02*
D03*
Y288290D02*
D03*
Y275590D02*
D03*
Y262890D02*
D03*
Y250190D02*
D03*
Y237490D02*
D03*
D24*
X257650Y86703D02*
D03*
X237650D02*
D03*
D25*
X174202Y171450D02*
D03*
X143298D02*
D03*
X67098D02*
D03*
X98002D02*
D03*
X631402Y31750D02*
D03*
X600498D02*
D03*
D31*
X67550Y240919D02*
D03*
X97550D02*
D03*
Y203581D02*
D03*
X67550D02*
D03*
D32*
X82550D02*
D03*
D35*
X565300Y74041D02*
D03*
X552300D02*
D03*
X558800Y52959D02*
D03*
D36*
X612394Y53500D02*
D03*
Y73500D02*
D03*
X590550Y63500D02*
D03*
D40*
X587350Y151608D02*
D03*
X568350D02*
D03*
Y173512D02*
D03*
X577850D02*
D03*
X587350D02*
D03*
D44*
X457397Y107895D02*
D03*
X462398D02*
D03*
X467399D02*
D03*
X472401D02*
D03*
X477402D02*
D03*
X482403D02*
D03*
Y68017D02*
D03*
X477402D02*
D03*
X472401D02*
D03*
X467399D02*
D03*
X462398D02*
D03*
X457397D02*
D03*
D45*
X489839Y100459D02*
D03*
Y95458D02*
D03*
Y90457D02*
D03*
Y85455D02*
D03*
Y80454D02*
D03*
Y75453D02*
D03*
X449961D02*
D03*
Y80454D02*
D03*
Y85455D02*
D03*
Y90457D02*
D03*
Y95458D02*
D03*
Y100459D02*
D03*
D46*
X343680Y41906D02*
D03*
X363680D02*
D03*
D47*
X410793Y223078D02*
D03*
X423493D02*
D03*
X436193D02*
D03*
X448893D02*
D03*
X461593D02*
D03*
X474293D02*
D03*
X486993D02*
D03*
X499693D02*
D03*
X512393D02*
D03*
X525093D02*
D03*
D48*
X439550Y323150D02*
D03*
X457900D02*
D03*
X476250D02*
D03*
X439550Y341500D02*
D03*
X457900D02*
D03*
X476250D02*
D03*
X439550Y304800D02*
D03*
X457900D02*
D03*
X476250D02*
D03*
D49*
X281150Y29203D02*
D03*
X214150D02*
D03*
D50*
X108140Y114920D02*
D03*
X100140D02*
D03*
Y128920D02*
D03*
X108140D02*
D03*
D51*
X209400Y152400D02*
D03*
X222400D02*
D03*
X222400Y133350D02*
D03*
X209400D02*
D03*
X342750Y222250D02*
D03*
X355750D02*
D03*
X660550Y127000D02*
D03*
X647550D02*
D03*
X609270Y214610D02*
D03*
X596270D02*
D03*
X600560Y382270D02*
D03*
X613560D02*
D03*
X600560Y401320D02*
D03*
X613560D02*
D03*
D52*
X208098Y217532D02*
D03*
X249098D02*
D03*
X208098Y201532D02*
D03*
X249098D02*
D03*
X636453Y347618D02*
D03*
X595453D02*
D03*
X636453Y363618D02*
D03*
X595453D02*
D03*
D53*
X209550Y184300D02*
D03*
Y171300D02*
D03*
X120650Y190650D02*
D03*
Y177650D02*
D03*
X501650Y31600D02*
D03*
Y44600D02*
D03*
X553720Y90020D02*
D03*
Y103020D02*
D03*
X654050Y37950D02*
D03*
Y50950D02*
D03*
X600710Y252580D02*
D03*
Y265580D02*
D03*
X619760Y252580D02*
D03*
Y265580D02*
D03*
X425450Y158900D02*
D03*
Y145900D02*
D03*
X539750Y158600D02*
D03*
Y171600D02*
D03*
X615950Y158600D02*
D03*
Y171600D02*
D03*
X577850Y349100D02*
D03*
Y362100D02*
D03*
D54*
X133350Y228700D02*
D03*
Y241200D02*
D03*
X44450Y190600D02*
D03*
Y203100D02*
D03*
X81280Y128170D02*
D03*
Y115670D02*
D03*
X575310Y202030D02*
D03*
Y214530D02*
D03*
X457200Y31850D02*
D03*
Y44350D02*
D03*
X438150Y31850D02*
D03*
Y44350D02*
D03*
X654050Y361850D02*
D03*
Y349350D02*
D03*
X132080Y128170D02*
D03*
Y115670D02*
D03*
D55*
X330300Y381000D02*
D03*
X342800D02*
D03*
X330300Y400050D02*
D03*
X342800D02*
D03*
X571400Y38100D02*
D03*
X558900D02*
D03*
X412850Y87956D02*
D03*
X425350D02*
D03*
X412850Y72716D02*
D03*
X425350D02*
D03*
D56*
X482678Y30663D02*
D03*
Y45663D02*
D03*
X425450Y191650D02*
D03*
Y176650D02*
D03*
D57*
X646068Y68397D02*
D03*
Y109397D02*
D03*
X662068Y68397D02*
D03*
Y109397D02*
D03*
D58*
X588750Y120650D02*
D03*
X554250D02*
D03*
D59*
X643770Y214610D02*
D03*
X628770D02*
D03*
X357540Y241300D02*
D03*
X342540D02*
D03*
D60*
X392950Y94306D02*
D03*
X313610D02*
D03*
D61*
X364350D02*
D03*
X342210D02*
D03*
D62*
X469900Y87956D02*
D03*
D63*
X328680Y68906D02*
D03*
X378680D02*
D03*
D64*
X318680Y41906D02*
D03*
X388680D02*
D03*
D65*
X187960Y452120D02*
D03*
D66*
X162560D02*
D03*
X137160D02*
D03*
X111760D02*
D03*
X86360D02*
D03*
X60960D02*
D03*
D67*
X679450Y254000D02*
D03*
Y228600D02*
D03*
Y203200D02*
D03*
Y431800D02*
D03*
Y406400D02*
D03*
Y381000D02*
D03*
Y355600D02*
D03*
Y330200D02*
D03*
Y304800D02*
D03*
Y279400D02*
D03*
Y177800D02*
D03*
D68*
X96050Y88900D02*
D03*
X121050D02*
D03*
X71050D02*
D03*
D69*
X146050D02*
D03*
D70*
X91079Y21229D02*
D03*
Y57150D02*
D03*
X127000D02*
D03*
D71*
Y21229D02*
D03*
D72*
X31750Y31750D02*
D03*
X641350Y450850D02*
D03*
D73*
X679450Y457200D02*
D03*
D74*
X383287Y144196D02*
D03*
X382697Y188931D02*
D03*
X413358Y112638D02*
D03*
X648032Y334215D02*
D03*
X260890Y201931D02*
D03*
X638475Y381051D02*
D03*
X577320Y336036D02*
D03*
X533179Y382909D02*
D03*
X407140Y399717D02*
D03*
X402038Y377190D02*
D03*
X577850Y262890D02*
D03*
X435535Y109220D02*
D03*
X430555Y102100D02*
D03*
X457360Y377190D02*
D03*
X461010Y255270D02*
D03*
X519031Y318770D02*
D03*
X349250Y254000D02*
D03*
X355600Y325120D02*
D03*
X284480Y265430D02*
D03*
X146050Y254000D02*
D03*
X154940Y259080D02*
D03*
X161290Y195580D02*
D03*
X355600Y288290D02*
D03*
X167640Y246380D02*
D03*
X355600Y300990D02*
D03*
Y275590D02*
D03*
X365760Y261620D02*
D03*
X392430Y189230D02*
D03*
Y148888D02*
D03*
X462369Y191770D02*
D03*
X425450Y205740D02*
D03*
X575310Y238760D02*
D03*
X587030Y347980D02*
D03*
X526849Y404929D02*
D03*
X532130Y364490D02*
D03*
X531914Y374099D02*
D03*
X627583Y325323D02*
D03*
X532130Y351790D02*
D03*
X598170Y274320D02*
D03*
X651510Y262255D02*
D03*
X632460Y269240D02*
D03*
X495300Y203200D02*
D03*
X444500Y205740D02*
D03*
X453856Y199351D02*
D03*
X414020Y101600D02*
D03*
X132080Y160020D02*
D03*
X121920Y152400D02*
D03*
D75*
X472440Y54610D02*
D03*
X361353Y399331D02*
D03*
X629628Y391119D02*
D03*
X190500Y134620D02*
D03*
X340360Y168910D02*
D03*
X657860Y317813D02*
D03*
X299720Y27940D02*
D03*
X518160Y30480D02*
D03*
X571500Y134620D02*
D03*
X327660Y106680D02*
D03*
X604520Y187960D02*
D03*
X117674Y139700D02*
D03*
X180340Y187960D02*
D03*
X50800Y171450D02*
D03*
X114300Y241300D02*
D03*
X215900Y114300D02*
D03*
D76*
X402590Y156210D02*
D03*
X224798Y171300D02*
D03*
M02*
