G04*
G04 #@! TF.GenerationSoftware,Altium Limited,Altium Designer,23.3.1 (30)*
G04*
G04 Layer_Color=65280*
%FSLAX44Y44*%
%MOMM*%
G71*
G04*
G04 #@! TF.SameCoordinates,725D518B-DDB2-488C-806C-357DE18E7640*
G04*
G04*
G04 #@! TF.FilePolarity,Negative*
G04*
G01*
G75*
%ADD21R,0.2540X0.8128*%
%ADD22R,0.8128X0.2540*%
%ADD23R,1.2192X0.4064*%
%ADD24R,0.5588X1.5240*%
%ADD25R,0.5080X0.4064*%
%ADD27R,1.1430X0.5334*%
%ADD28R,1.1430X0.6096*%
%ADD31R,1.3208X0.5588*%
%ADD34R,2.0066X0.8890*%
%ADD39R,0.7112X1.9050*%
%ADD43R,1.3970X0.4572*%
%ADD45R,3.5052X0.9906*%
%ADD48R,0.6096X1.0414*%
%ADD50R,0.3048X0.4572*%
%ADD54R,1.1032X1.0032*%
%ADD55R,2.7940X2.7940*%
%ADD56R,1.0532X1.1532*%
%ADD57R,1.9532X0.7832*%
G04:AMPARAMS|DCode=58|XSize=1.9532mm|YSize=0.7832mm|CornerRadius=0.2176mm|HoleSize=0mm|Usage=FLASHONLY|Rotation=0.000|XOffset=0mm|YOffset=0mm|HoleType=Round|Shape=RoundedRectangle|*
%AMROUNDEDRECTD58*
21,1,1.9532,0.3480,0,0,0.0*
21,1,1.5180,0.7832,0,0,0.0*
1,1,0.4352,0.7590,-0.1740*
1,1,0.4352,-0.7590,-0.1740*
1,1,0.4352,-0.7590,0.1740*
1,1,0.4352,0.7590,0.1740*
%
%ADD58ROUNDEDRECTD58*%
%ADD59R,1.5240X1.5240*%
%ADD60R,1.0922X2.2098*%
%ADD61R,1.2000X1.1000*%
%ADD62R,2.1032X1.2032*%
%ADD63R,1.1000X1.2000*%
%ADD64R,1.1532X1.0532*%
%ADD65R,1.9050X2.0066*%
%ADD66R,1.6002X2.7940*%
%ADD67R,2.1590X1.7526*%
%ADD68R,3.6068X1.7018*%
%ADD69R,1.4532X1.8532*%
%ADD70R,1.0032X1.0032*%
%ADD71R,1.0032X1.0032*%
%ADD72R,1.0032X1.1032*%
%ADD73R,2.0032X1.5032*%
%ADD74R,1.5032X2.0032*%
%ADD75C,2.2032*%
%ADD76C,1.9812*%
%ADD77C,1.5032*%
%ADD78C,5.2832*%
%ADD79C,1.7780*%
%ADD80R,1.7780X1.7780*%
%ADD81R,2.2032X2.2032*%
%ADD82R,2.2032X2.2032*%
%ADD83O,1.8032X2.4532*%
%ADD84R,1.8032X2.4532*%
%ADD85C,1.7018*%
%ADD86O,1.9558X1.2700*%
%ADD87C,1.3970*%
%ADD88C,0.7112*%
%ADD89C,1.4732*%
G36*
X238202Y250495D02*
Y256591D01*
X241250D01*
X245695Y261544D01*
X277064D01*
Y256210D01*
Y250876D01*
Y245542D01*
X245695D01*
X241250Y250495D01*
X238202D01*
D02*
G37*
D21*
X317557Y409939D02*
D03*
X322559D02*
D03*
X327560D02*
D03*
X332561D02*
D03*
X337562D02*
D03*
X342564D02*
D03*
Y370061D02*
D03*
X337562D02*
D03*
X332561D02*
D03*
X327560D02*
D03*
X322559D02*
D03*
X317557D02*
D03*
D22*
X350000Y402503D02*
D03*
Y397502D02*
D03*
Y392501D02*
D03*
Y387499D02*
D03*
Y382498D02*
D03*
Y377497D02*
D03*
X310122D02*
D03*
Y382498D02*
D03*
Y387499D02*
D03*
Y392501D02*
D03*
Y397502D02*
D03*
Y402503D02*
D03*
D23*
X239261Y404153D02*
D03*
Y414153D02*
D03*
X255263Y409153D02*
D03*
X173027Y403869D02*
D03*
Y413869D02*
D03*
X189028Y408869D02*
D03*
D24*
X334005Y208179D02*
D03*
X354005D02*
D03*
X344005Y230023D02*
D03*
D25*
X499999Y314960D02*
D03*
X521081Y321460D02*
D03*
Y308460D02*
D03*
D27*
X232487Y268543D02*
D03*
Y238543D02*
D03*
X269825D02*
D03*
Y268543D02*
D03*
D28*
X232487Y253543D02*
D03*
D31*
X290896Y149160D02*
D03*
Y130160D02*
D03*
X268992D02*
D03*
Y139660D02*
D03*
Y149160D02*
D03*
D34*
X350000Y547600D02*
D03*
Y560300D02*
D03*
Y573000D02*
D03*
Y585700D02*
D03*
Y598400D02*
D03*
Y611100D02*
D03*
Y623800D02*
D03*
Y636500D02*
D03*
Y649200D02*
D03*
Y661900D02*
D03*
Y674600D02*
D03*
Y687300D02*
D03*
Y700000D02*
D03*
Y712700D02*
D03*
X180000Y547600D02*
D03*
Y560300D02*
D03*
Y573000D02*
D03*
Y585700D02*
D03*
Y598400D02*
D03*
Y611100D02*
D03*
Y623800D02*
D03*
Y636500D02*
D03*
Y649200D02*
D03*
Y661900D02*
D03*
Y674600D02*
D03*
Y687300D02*
D03*
Y700000D02*
D03*
Y712700D02*
D03*
D39*
X693100Y179510D02*
D03*
X704100D02*
D03*
X715100D02*
D03*
X726100D02*
D03*
X737100D02*
D03*
X748100D02*
D03*
X759100D02*
D03*
X770100D02*
D03*
X781100D02*
D03*
D43*
X60000Y252000D02*
D03*
Y258500D02*
D03*
Y265000D02*
D03*
Y271500D02*
D03*
Y278000D02*
D03*
D45*
X79553Y110000D02*
D03*
Y130000D02*
D03*
D48*
X209480Y200000D02*
D03*
X178576D02*
D03*
X239411Y198819D02*
D03*
X270315D02*
D03*
D50*
X692922Y225967D02*
D03*
Y214029D02*
D03*
X760000Y226938D02*
D03*
Y215000D02*
D03*
X715000Y225969D02*
D03*
Y214031D02*
D03*
X737500Y226938D02*
D03*
Y215000D02*
D03*
X91440Y295529D02*
D03*
Y283591D02*
D03*
X83468Y239496D02*
D03*
Y251434D02*
D03*
D54*
X354083Y32808D02*
D03*
Y45308D02*
D03*
X77531Y327764D02*
D03*
Y315264D02*
D03*
X209712Y254971D02*
D03*
Y267471D02*
D03*
X138628Y699616D02*
D03*
Y712116D02*
D03*
X296635Y107727D02*
D03*
Y95227D02*
D03*
X297385Y221474D02*
D03*
Y233974D02*
D03*
X297385Y268666D02*
D03*
Y256166D02*
D03*
D55*
X330061Y390000D02*
D03*
D56*
X193342Y226626D02*
D03*
X180343D02*
D03*
X953802Y644277D02*
D03*
X966802D02*
D03*
X952445Y609036D02*
D03*
X965444D02*
D03*
X884096Y644277D02*
D03*
X897096D02*
D03*
X637934Y711625D02*
D03*
X650934D02*
D03*
X887176Y610453D02*
D03*
X900176D02*
D03*
X395523Y646967D02*
D03*
X382523D02*
D03*
X395523Y700132D02*
D03*
X382523D02*
D03*
X227480Y127000D02*
D03*
X214480D02*
D03*
X214498Y148964D02*
D03*
X227498D02*
D03*
X180343Y341325D02*
D03*
X193342D02*
D03*
X250221Y342075D02*
D03*
X237221D02*
D03*
X16386Y188387D02*
D03*
X29386D02*
D03*
D57*
X720000Y758100D02*
D03*
D58*
Y745400D02*
D03*
Y732700D02*
D03*
Y720000D02*
D03*
Y707300D02*
D03*
Y694600D02*
D03*
Y681900D02*
D03*
Y669200D02*
D03*
Y656500D02*
D03*
Y643800D02*
D03*
Y631100D02*
D03*
Y618400D02*
D03*
Y605700D02*
D03*
Y593000D02*
D03*
X813800D02*
D03*
Y605700D02*
D03*
Y618400D02*
D03*
Y631100D02*
D03*
Y643800D02*
D03*
Y656500D02*
D03*
Y669200D02*
D03*
Y681900D02*
D03*
Y694600D02*
D03*
Y707300D02*
D03*
Y720000D02*
D03*
Y732700D02*
D03*
Y745400D02*
D03*
Y758100D02*
D03*
D59*
X273307Y614910D02*
D03*
X254957D02*
D03*
X236607D02*
D03*
X273307Y651610D02*
D03*
X254957D02*
D03*
X236607D02*
D03*
X273307Y633260D02*
D03*
X254957D02*
D03*
X236607D02*
D03*
D60*
X322150Y533188D02*
D03*
X309450D02*
D03*
X296750D02*
D03*
X284050D02*
D03*
X271350D02*
D03*
X258650D02*
D03*
X245950D02*
D03*
X233250D02*
D03*
X220550D02*
D03*
X207850D02*
D03*
D61*
X965802Y720480D02*
D03*
Y679479D02*
D03*
X949802Y720480D02*
D03*
Y679479D02*
D03*
X20782Y374500D02*
D03*
Y415500D02*
D03*
X36781Y374500D02*
D03*
Y415500D02*
D03*
D62*
X1009911Y745225D02*
D03*
Y725225D02*
D03*
Y705225D02*
D03*
D63*
X288563Y46906D02*
D03*
X329563D02*
D03*
X288563Y30906D02*
D03*
X329563D02*
D03*
X181868Y47154D02*
D03*
X222868D02*
D03*
X181868Y31154D02*
D03*
X222868D02*
D03*
D64*
X344000Y266000D02*
D03*
Y253000D02*
D03*
X130000Y44000D02*
D03*
Y31000D02*
D03*
X620424Y582767D02*
D03*
Y595767D02*
D03*
X545000Y570500D02*
D03*
Y583500D02*
D03*
X501000Y771000D02*
D03*
Y758000D02*
D03*
X531000Y771000D02*
D03*
Y758000D02*
D03*
X256341Y45558D02*
D03*
Y32558D02*
D03*
X69837Y415496D02*
D03*
Y402496D02*
D03*
X180842Y267916D02*
D03*
Y254916D02*
D03*
X412747Y329630D02*
D03*
Y342630D02*
D03*
X413014Y290928D02*
D03*
Y303928D02*
D03*
D65*
X678100Y169990D02*
D03*
X836600D02*
D03*
D66*
X680600Y73990D02*
D03*
X837600D02*
D03*
D67*
X33000Y255000D02*
D03*
Y275000D02*
D03*
D68*
X22053Y86500D02*
D03*
Y153500D02*
D03*
D69*
X147250Y175000D02*
D03*
X112750D02*
D03*
D70*
X966923Y760095D02*
D03*
Y775095D02*
D03*
X501000Y701515D02*
D03*
Y716515D02*
D03*
X531000Y716710D02*
D03*
Y701710D02*
D03*
X151405Y29947D02*
D03*
Y44948D02*
D03*
D71*
X54097Y188387D02*
D03*
X69097D02*
D03*
D72*
X637484Y677250D02*
D03*
X649984D02*
D03*
X897546Y711173D02*
D03*
X885046D02*
D03*
X885046Y677349D02*
D03*
X897546D02*
D03*
X735430Y571500D02*
D03*
X747930D02*
D03*
X637484Y610000D02*
D03*
X649984D02*
D03*
X649984Y643625D02*
D03*
X637484D02*
D03*
X395274Y606405D02*
D03*
X382774D02*
D03*
X142126Y685016D02*
D03*
X129626D02*
D03*
X338348Y352779D02*
D03*
X350848D02*
D03*
X311258Y352764D02*
D03*
X298758D02*
D03*
D73*
X895641Y570612D02*
D03*
X857641D02*
D03*
X679000Y570000D02*
D03*
X641000D02*
D03*
X679000Y760000D02*
D03*
X641000D02*
D03*
X894030Y760496D02*
D03*
X856030D02*
D03*
D74*
X580413Y597180D02*
D03*
Y559180D02*
D03*
D75*
X626200Y20000D02*
D03*
X600800D02*
D03*
X575400D02*
D03*
X550000D02*
D03*
X524600D02*
D03*
X499200D02*
D03*
X20579Y748081D02*
D03*
Y722681D02*
D03*
Y697281D02*
D03*
Y671881D02*
D03*
Y646481D02*
D03*
Y621081D02*
D03*
Y595681D02*
D03*
Y570281D02*
D03*
Y544881D02*
D03*
Y519481D02*
D03*
Y494081D02*
D03*
X456343Y754041D02*
D03*
Y728641D02*
D03*
Y703241D02*
D03*
Y677841D02*
D03*
Y652441D02*
D03*
Y627041D02*
D03*
Y601641D02*
D03*
Y576241D02*
D03*
Y550841D02*
D03*
Y525441D02*
D03*
Y500041D02*
D03*
X893300Y332500D02*
D03*
X867900D02*
D03*
X842500D02*
D03*
X817100D02*
D03*
X791700D02*
D03*
X766300D02*
D03*
X740900D02*
D03*
X715500D02*
D03*
X690100D02*
D03*
X664700D02*
D03*
X639300D02*
D03*
X790000Y70000D02*
D03*
D76*
X940000Y101154D02*
D03*
X965400D02*
D03*
X940000Y126554D02*
D03*
X965400D02*
D03*
X940000Y151954D02*
D03*
X965400D02*
D03*
X940000Y177354D02*
D03*
X965400D02*
D03*
X940000Y202754D02*
D03*
X965400D02*
D03*
X940000Y228154D02*
D03*
X965400D02*
D03*
X940000Y253554D02*
D03*
X965400D02*
D03*
X940000Y278954D02*
D03*
X965400D02*
D03*
X940000Y304354D02*
D03*
X965400D02*
D03*
X940000Y329754D02*
D03*
X965400D02*
D03*
X940000Y355154D02*
D03*
X965400D02*
D03*
X940000Y380554D02*
D03*
X965400D02*
D03*
X940000Y405954D02*
D03*
X965400D02*
D03*
X940000Y431354D02*
D03*
X965400D02*
D03*
X940000Y456754D02*
D03*
X965400D02*
D03*
X940000Y482154D02*
D03*
X965400D02*
D03*
X940000Y507554D02*
D03*
X965400D02*
D03*
X940000Y532954D02*
D03*
X965400D02*
D03*
X940000Y558354D02*
D03*
X965400D02*
D03*
X940000Y583754D02*
D03*
X965400D02*
D03*
D77*
X1050411Y766475D02*
D03*
Y703975D02*
D03*
D78*
X83000Y37500D02*
D03*
X855000D02*
D03*
X83000Y661500D02*
D03*
D79*
X795400Y520000D02*
D03*
Y494600D02*
D03*
X770000Y520000D02*
D03*
Y494600D02*
D03*
X744600Y520000D02*
D03*
D80*
Y494600D02*
D03*
D81*
X20579Y468681D02*
D03*
X456343Y474641D02*
D03*
D82*
X613900Y332500D02*
D03*
D83*
X567450Y700060D02*
D03*
Y640060D02*
D03*
D84*
X592850Y700060D02*
D03*
Y640060D02*
D03*
D85*
X709600Y68990D02*
D03*
D86*
X33000Y230000D02*
D03*
Y300000D02*
D03*
D87*
X60000Y240000D02*
D03*
Y290000D02*
D03*
D88*
X367500Y430000D02*
D03*
X372500Y422500D02*
D03*
X353060Y420279D02*
D03*
X162560Y441960D02*
D03*
X172720Y436880D02*
D03*
Y449580D02*
D03*
X162560Y457200D02*
D03*
Y467360D02*
D03*
X172720D02*
D03*
X258486Y482600D02*
D03*
X172720Y477520D02*
D03*
X162560Y490220D02*
D03*
Y500380D02*
D03*
Y510540D02*
D03*
X175260D02*
D03*
X327806Y360890D02*
D03*
X271658Y409082D02*
D03*
X196332Y421575D02*
D03*
X248920Y281940D02*
D03*
X252730Y237490D02*
D03*
X153124Y684654D02*
D03*
X519434Y668541D02*
D03*
X924089Y406304D02*
D03*
X908908Y434302D02*
D03*
X914400Y480060D02*
D03*
X918865Y376800D02*
D03*
X907233Y383046D02*
D03*
X924560Y386080D02*
D03*
X531943Y395531D02*
D03*
X918930Y396883D02*
D03*
X155815Y634142D02*
D03*
X230000Y670000D02*
D03*
X210000Y650000D02*
D03*
X196501Y518111D02*
D03*
X250000Y510000D02*
D03*
X120000Y650000D02*
D03*
X283158Y298662D02*
D03*
X275088Y303575D02*
D03*
X980000Y717500D02*
D03*
X828829Y720109D02*
D03*
X387500Y620000D02*
D03*
Y562500D02*
D03*
X390000Y550000D02*
D03*
X380000Y410000D02*
D03*
X675000Y632500D02*
D03*
X692500Y702500D02*
D03*
X690000Y690000D02*
D03*
X705281Y682050D02*
D03*
X827500Y792500D02*
D03*
X608000Y787000D02*
D03*
X837498Y587499D02*
D03*
X829998Y644999D02*
D03*
X857500Y692500D02*
D03*
X572500Y444920D02*
D03*
X642282Y457262D02*
D03*
X562610Y445190D02*
D03*
X524778Y390576D02*
D03*
X514839Y410074D02*
D03*
X530728Y384538D02*
D03*
X373102Y667495D02*
D03*
X367030Y658685D02*
D03*
X295910Y431545D02*
D03*
X279400Y425195D02*
D03*
X414999Y469999D02*
D03*
X437499D02*
D03*
X346710Y503920D02*
D03*
X360000Y515000D02*
D03*
X129820Y651631D02*
D03*
X134620Y572770D02*
D03*
X162500Y614999D02*
D03*
X162192Y643039D02*
D03*
X857500Y727500D02*
D03*
X849558Y706844D02*
D03*
X872182Y720874D02*
D03*
X826647Y682090D02*
D03*
X850000Y612500D02*
D03*
X897500Y532500D02*
D03*
X895000Y477500D02*
D03*
X697500Y490000D02*
D03*
X705000Y482500D02*
D03*
X649754Y477690D02*
D03*
X712500Y472500D02*
D03*
X720000Y540000D02*
D03*
X692500Y360000D02*
D03*
X673633Y236958D02*
D03*
X706223Y247007D02*
D03*
X726448Y242493D02*
D03*
X750000Y237500D02*
D03*
X792500Y260000D02*
D03*
X782500Y257500D02*
D03*
X785714Y216981D02*
D03*
X902500Y442500D02*
D03*
X887500Y274669D02*
D03*
X459000Y249000D02*
D03*
X427000Y241000D02*
D03*
X169438Y38016D02*
D03*
X365000Y262500D02*
D03*
X608000Y727000D02*
D03*
X593827Y793130D02*
D03*
X593000Y728000D02*
D03*
X516250Y678195D02*
D03*
X446000Y335000D02*
D03*
X358000Y67000D02*
D03*
X367000Y206000D02*
D03*
X385000Y583000D02*
D03*
X478000Y439000D02*
D03*
X499480Y427915D02*
D03*
X393067Y468461D02*
D03*
X411554Y363779D02*
D03*
X406320Y375918D02*
D03*
X412640Y272398D02*
D03*
X396000Y232000D02*
D03*
X418999Y235000D02*
D03*
X308000Y173000D02*
D03*
X330061Y390000D02*
D03*
X874000Y631000D02*
D03*
X857190Y541000D02*
D03*
X868000Y527000D02*
D03*
X859000Y712000D02*
D03*
X615174Y608848D02*
D03*
X645000Y629000D02*
D03*
X671000Y610000D02*
D03*
X634000Y595000D02*
D03*
X927709Y617709D02*
D03*
X696000Y713000D02*
D03*
X981000Y747000D02*
D03*
X408210Y632460D02*
D03*
X382523Y669036D02*
D03*
X369570Y699770D02*
D03*
X993140Y787400D02*
D03*
X96790Y558800D02*
D03*
X160020Y547370D02*
D03*
X269240Y419100D02*
D03*
X124065Y586054D02*
D03*
X135890Y623570D02*
D03*
X118650Y596900D02*
D03*
X186690Y519430D02*
D03*
X125208Y663237D02*
D03*
X203861Y550571D02*
D03*
X210820Y571500D02*
D03*
X417830Y631190D02*
D03*
X436880Y556260D02*
D03*
X298812Y400003D02*
D03*
X297069Y390267D02*
D03*
X238199Y37733D02*
D03*
X189230Y123190D02*
D03*
D89*
X76971Y298084D02*
D03*
X119674Y705236D02*
D03*
X111891Y452917D02*
D03*
X407499Y687499D02*
D03*
X690000Y542500D02*
D03*
X142261Y153085D02*
D03*
X82500Y467500D02*
D03*
X128520Y64174D02*
D03*
X273050Y87630D02*
D03*
X256857Y61178D02*
D03*
X611000Y300000D02*
D03*
X372000Y164000D02*
D03*
X312513Y281783D02*
D03*
X231000Y167910D02*
D03*
X176000Y152000D02*
D03*
X269814Y175102D02*
D03*
X659000Y741000D02*
D03*
X318770Y698500D02*
D03*
X163830Y252730D02*
D03*
X100036Y198996D02*
D03*
M02*
