G04*
G04 #@! TF.GenerationSoftware,Altium Limited,Altium Designer,23.3.1 (30)*
G04*
G04 Layer_Color=8454143*
%FSLAX44Y44*%
%MOMM*%
G71*
G04*
G04 #@! TF.SameCoordinates,049E622D-B5B7-477E-837E-60E0A1272B7F*
G04*
G04*
G04 #@! TF.FilePolarity,Positive*
G04*
G01*
G75*
%ADD10C,0.5080*%
%ADD11C,0.1524*%
%ADD12C,0.1000*%
%ADD13C,0.2000*%
%ADD14C,0.1270*%
%ADD15C,0.1500*%
%ADD16C,0.0762*%
G36*
X474306Y61413D02*
X470496D01*
Y58873D01*
X474306D01*
Y61413D01*
D02*
G37*
G36*
X479307Y114499D02*
X475497D01*
Y117039D01*
X479307D01*
Y114499D01*
D02*
G37*
G36*
X667150Y471800D02*
Y462800D01*
X676150Y471800D01*
X667150D01*
D02*
G37*
D10*
X309865Y68906D02*
G03*
X309865Y68906I-3810J0D01*
G01*
X367805Y405486D02*
G03*
X367805Y399693I2475J-2896D01*
G01*
D11*
X638222Y325247D02*
G03*
X638222Y325247I-762J0D01*
G01*
X48133Y204597D02*
G03*
X48133Y204597I-1270J0D01*
G01*
X582803Y74549D02*
G03*
X582803Y74549I-1270J0D01*
G01*
X628396Y53500D02*
G03*
X628396Y53500I-762J0D01*
G01*
X606472Y325247D02*
G03*
X606472Y325247I-762J0D01*
G01*
X312405Y15240D02*
X394955D01*
Y31110D01*
X387227Y74676D02*
X394955D01*
X312405Y52702D02*
Y74676D01*
X320133D01*
X312405Y15240D02*
Y31110D01*
X394955Y52702D02*
Y74676D01*
X637820Y297815D02*
X641985D01*
X622935D02*
Y303231D01*
Y297815D02*
X627101D01*
X641985D02*
Y303231D01*
X376630Y216775D02*
X403021D01*
X559256D02*
Y229717D01*
X376630Y474331D02*
X559256D01*
X376630Y410362D02*
Y474331D01*
Y216775D02*
Y229717D01*
X559256Y410362D02*
Y474331D01*
X532865Y216775D02*
X559256D01*
X245931Y101473D02*
X249370D01*
X206883D02*
X229370D01*
X206883Y49548D02*
Y101473D01*
X265931D02*
X288417D01*
Y49548D02*
Y101473D01*
X224970Y12827D02*
X270330D01*
X143510Y182245D02*
X173990D01*
X143510Y160655D02*
X173990D01*
X67310D02*
X97790D01*
X67310Y182245D02*
X97790D01*
X103544Y208026D02*
X106807D01*
X88925D02*
X91556D01*
X73544D02*
X76175D01*
X58293D02*
Y236474D01*
X103544D02*
X106807D01*
Y208026D02*
Y236474D01*
X58293Y208026D02*
X61556D01*
X58293Y236474D02*
X61556D01*
X564160Y53721D02*
X570103D01*
X557659Y73279D02*
X559941D01*
X547497Y53721D02*
Y69659D01*
Y53721D02*
X553441D01*
X570103D02*
Y69659D01*
X593090Y46736D02*
Y57379D01*
X609854Y59621D02*
Y67379D01*
X593090Y80264D02*
X609854D01*
X593090Y69621D02*
Y80264D01*
Y46736D02*
X609854D01*
X600710Y42545D02*
X631190D01*
X600710Y20955D02*
X631190D01*
X593598Y153289D02*
Y171831D01*
X574472Y153289D02*
X581229D01*
X562102D02*
Y171831D01*
X491109Y105057D02*
Y109165D01*
X487001Y66747D02*
X491109D01*
X448691D02*
Y70855D01*
Y105057D02*
Y109165D01*
X487001D02*
X491109D01*
Y66747D02*
Y70855D01*
X448691Y66747D02*
X452799D01*
X448691Y109165D02*
X452799D01*
X610235Y297815D02*
Y303231D01*
X591185Y297815D02*
X595351D01*
X591185D02*
Y303231D01*
X606069Y297815D02*
X610235D01*
X54358Y433322D02*
X50803D01*
X52580D01*
Y424435D01*
X50803Y422658D01*
X49026D01*
X47248Y424435D01*
X57913Y422658D02*
Y433322D01*
X63245D01*
X65022Y431545D01*
Y427990D01*
X63245Y426213D01*
X57913D01*
X68577Y422658D02*
X72132D01*
X70354D01*
Y433322D01*
X68577Y431545D01*
X568963Y24382D02*
Y13718D01*
X574295D01*
X576073Y15495D01*
Y22605D01*
X574295Y24382D01*
X568963D01*
X584960Y13718D02*
Y24382D01*
X579627Y19050D01*
X586737D01*
X524513Y145032D02*
Y136145D01*
X526290Y134368D01*
X529845D01*
X531623Y136145D01*
Y145032D01*
X540510Y134368D02*
Y145032D01*
X535177Y139700D01*
X542287D01*
X340363Y475232D02*
Y466345D01*
X342140Y464568D01*
X345695D01*
X347473Y466345D01*
Y475232D01*
X351027Y473455D02*
X352805Y475232D01*
X356360D01*
X358137Y473455D01*
Y471677D01*
X356360Y469900D01*
X354582D01*
X356360D01*
X358137Y468123D01*
Y466345D01*
X356360Y464568D01*
X352805D01*
X351027Y466345D01*
X480063Y125982D02*
Y117095D01*
X481840Y115318D01*
X485395D01*
X487173Y117095D01*
Y125982D01*
X497837Y115318D02*
X490728D01*
X497837Y122427D01*
Y124205D01*
X496060Y125982D01*
X492505D01*
X490728Y124205D01*
X107190Y259332D02*
Y250445D01*
X108968Y248668D01*
X112522D01*
X114300Y250445D01*
Y259332D01*
X117855Y248668D02*
X121410D01*
X119632D01*
Y259332D01*
X117855Y257555D01*
X271273Y219455D02*
X269495Y221232D01*
X265940D01*
X264163Y219455D01*
Y217677D01*
X265940Y215900D01*
X269495D01*
X271273Y214123D01*
Y212345D01*
X269495Y210568D01*
X265940D01*
X264163Y212345D01*
X274827Y219455D02*
X276605Y221232D01*
X280160D01*
X281937Y219455D01*
Y217677D01*
X280160Y215900D01*
X278382D01*
X280160D01*
X281937Y214123D01*
Y212345D01*
X280160Y210568D01*
X276605D01*
X274827Y212345D01*
X614173Y333755D02*
X612395Y335532D01*
X608840D01*
X607063Y333755D01*
Y331977D01*
X608840Y330200D01*
X612395D01*
X614173Y328423D01*
Y326645D01*
X612395Y324868D01*
X608840D01*
X607063Y326645D01*
X624837Y324868D02*
X617728D01*
X624837Y331977D01*
Y333755D01*
X623060Y335532D01*
X619505D01*
X617728Y333755D01*
X685800Y73405D02*
X684023Y75182D01*
X680468D01*
X678690Y73405D01*
Y71627D01*
X680468Y69850D01*
X684023D01*
X685800Y68073D01*
Y66295D01*
X684023Y64518D01*
X680468D01*
X678690Y66295D01*
X689355Y64518D02*
X692910D01*
X691132D01*
Y75182D01*
X689355Y73405D01*
X437519Y147068D02*
Y157732D01*
X442852D01*
X444629Y155955D01*
Y152400D01*
X442852Y150623D01*
X437519D01*
X441074D02*
X444629Y147068D01*
X448184D02*
X451739D01*
X449961D01*
Y157732D01*
X448184Y155955D01*
X457071D02*
X458848Y157732D01*
X462403D01*
X464181Y155955D01*
Y154177D01*
X462403Y152400D01*
X464181Y150623D01*
Y148845D01*
X462403Y147068D01*
X458848D01*
X457071Y148845D01*
Y150623D01*
X458848Y152400D01*
X457071Y154177D01*
Y155955D01*
X458848Y152400D02*
X462403D01*
X335919Y197868D02*
Y208532D01*
X341252D01*
X343029Y206755D01*
Y203200D01*
X341252Y201423D01*
X335919D01*
X339474D02*
X343029Y197868D01*
X346584D02*
X350139D01*
X348361D01*
Y208532D01*
X346584Y206755D01*
X355471Y208532D02*
X362581D01*
Y206755D01*
X355471Y199645D01*
Y197868D01*
X221619Y177548D02*
Y188212D01*
X226952D01*
X228729Y186435D01*
Y182880D01*
X226952Y181103D01*
X221619D01*
X225174D02*
X228729Y177548D01*
X232284D02*
X235839D01*
X234061D01*
Y188212D01*
X232284Y186435D01*
X248281Y188212D02*
X244726Y186435D01*
X241171Y182880D01*
Y179325D01*
X242948Y177548D01*
X246503D01*
X248281Y179325D01*
Y181103D01*
X246503Y182880D01*
X241171D01*
X625479Y376938D02*
Y387602D01*
X630812D01*
X632589Y385825D01*
Y382270D01*
X630812Y380493D01*
X625479D01*
X629034D02*
X632589Y376938D01*
X636144D02*
X639699D01*
X637921D01*
Y387602D01*
X636144Y385825D01*
X652141Y387602D02*
X645031D01*
Y382270D01*
X648586Y384047D01*
X650363D01*
X652141Y382270D01*
Y378715D01*
X650363Y376938D01*
X646808D01*
X645031Y378715D01*
X625479Y395988D02*
Y406652D01*
X630812D01*
X632589Y404875D01*
Y401320D01*
X630812Y399543D01*
X625479D01*
X629034D02*
X632589Y395988D01*
X636144D02*
X639699D01*
X637921D01*
Y406652D01*
X636144Y404875D01*
X650363Y395988D02*
Y406652D01*
X645031Y401320D01*
X652141D01*
X589439Y228328D02*
Y238992D01*
X594772D01*
X596549Y237215D01*
Y233660D01*
X594772Y231883D01*
X589439D01*
X592994D02*
X596549Y228328D01*
X600104D02*
X603659D01*
X601881D01*
Y238992D01*
X600104Y237215D01*
X608991D02*
X610769Y238992D01*
X614323D01*
X616101Y237215D01*
Y235437D01*
X614323Y233660D01*
X612546D01*
X614323D01*
X616101Y231883D01*
Y230105D01*
X614323Y228328D01*
X610769D01*
X608991Y230105D01*
X501019Y166118D02*
Y176782D01*
X506352D01*
X508129Y175005D01*
Y171450D01*
X506352Y169673D01*
X501019D01*
X504574D02*
X508129Y166118D01*
X511684D02*
X515239D01*
X513461D01*
Y176782D01*
X511684Y175005D01*
X527681Y166118D02*
X520571D01*
X527681Y173227D01*
Y175005D01*
X525903Y176782D01*
X522349D01*
X520571Y175005D01*
X567567Y246128D02*
Y256792D01*
X572899D01*
X574676Y255015D01*
Y251460D01*
X572899Y249683D01*
X567567D01*
X571122D02*
X574676Y246128D01*
X578231D02*
X581786D01*
X580009D01*
Y256792D01*
X578231Y255015D01*
X587118Y246128D02*
X590673D01*
X588896D01*
Y256792D01*
X587118Y255015D01*
X630559Y244858D02*
Y255522D01*
X635892D01*
X637669Y253745D01*
Y250190D01*
X635892Y248413D01*
X630559D01*
X634114D02*
X637669Y244858D01*
X641224D02*
X644779D01*
X643001D01*
Y255522D01*
X641224Y253745D01*
X650111D02*
X651888Y255522D01*
X655443D01*
X657221Y253745D01*
Y246635D01*
X655443Y244858D01*
X651888D01*
X650111Y246635D01*
Y253745D01*
X575313Y324868D02*
Y335532D01*
X580645D01*
X582423Y333755D01*
Y330200D01*
X580645Y328423D01*
X575313D01*
X578868D02*
X582423Y324868D01*
X585978Y326645D02*
X587755Y324868D01*
X591310D01*
X593087Y326645D01*
Y333755D01*
X591310Y335532D01*
X587755D01*
X585978Y333755D01*
Y331977D01*
X587755Y330200D01*
X593087D01*
X645163Y13718D02*
Y24382D01*
X650495D01*
X652273Y22605D01*
Y19050D01*
X650495Y17273D01*
X645163D01*
X648718D02*
X652273Y13718D01*
X655827Y22605D02*
X657605Y24382D01*
X661160D01*
X662937Y22605D01*
Y20827D01*
X661160Y19050D01*
X662937Y17273D01*
Y15495D01*
X661160Y13718D01*
X657605D01*
X655827Y15495D01*
Y17273D01*
X657605Y19050D01*
X655827Y20827D01*
Y22605D01*
X657605Y19050D02*
X661160D01*
X676913Y121668D02*
Y132332D01*
X682245D01*
X684023Y130555D01*
Y127000D01*
X682245Y125223D01*
X676913D01*
X680468D02*
X684023Y121668D01*
X687578Y132332D02*
X694687D01*
Y130555D01*
X687578Y123445D01*
Y121668D01*
X626113Y166118D02*
Y176782D01*
X631445D01*
X633223Y175005D01*
Y171450D01*
X631445Y169673D01*
X626113D01*
X629668D02*
X633223Y166118D01*
X643887Y176782D02*
X640332Y175005D01*
X636777Y171450D01*
Y167895D01*
X638555Y166118D01*
X642110D01*
X643887Y167895D01*
Y169673D01*
X642110Y171450D01*
X636777D01*
X505463Y7874D02*
Y18539D01*
X510795D01*
X512573Y16761D01*
Y13206D01*
X510795Y11429D01*
X505463D01*
X509018D02*
X512573Y7874D01*
X523237Y18539D02*
X516128D01*
Y13206D01*
X519682Y14984D01*
X521460D01*
X523237Y13206D01*
Y9651D01*
X521460Y7874D01*
X517905D01*
X516128Y9651D01*
X118113Y204218D02*
Y214882D01*
X123445D01*
X125223Y213105D01*
Y209550D01*
X123445Y207773D01*
X118113D01*
X121668D02*
X125223Y204218D01*
X134110D02*
Y214882D01*
X128777Y209550D01*
X135887D01*
X234190Y146797D02*
Y157462D01*
X239523D01*
X241300Y155684D01*
Y152129D01*
X239523Y150352D01*
X234190D01*
X237745D02*
X241300Y146797D01*
X244855Y155684D02*
X246632Y157462D01*
X250187D01*
X251965Y155684D01*
Y153907D01*
X250187Y152129D01*
X248410D01*
X250187D01*
X251965Y150352D01*
Y148575D01*
X250187Y146797D01*
X246632D01*
X244855Y148575D01*
X519433Y103888D02*
Y114552D01*
X524765D01*
X526543Y112775D01*
Y109220D01*
X524765Y107443D01*
X519433D01*
X522988D02*
X526543Y103888D01*
X537207D02*
X530097D01*
X537207Y110997D01*
Y112775D01*
X535430Y114552D01*
X531875D01*
X530097Y112775D01*
X234190Y128018D02*
Y138682D01*
X239523D01*
X241300Y136905D01*
Y133350D01*
X239523Y131573D01*
X234190D01*
X237745D02*
X241300Y128018D01*
X244855D02*
X248410D01*
X246632D01*
Y138682D01*
X244855Y136905D01*
X649733Y280925D02*
Y288035D01*
X647955Y289812D01*
X644400D01*
X642623Y288035D01*
Y280925D01*
X644400Y279148D01*
X647955D01*
X646178Y282703D02*
X649733Y279148D01*
X647955D02*
X649733Y280925D01*
X658620Y279148D02*
Y289812D01*
X653288Y284480D01*
X660397D01*
X579883Y280925D02*
Y288035D01*
X578105Y289812D01*
X574550D01*
X572773Y288035D01*
Y280925D01*
X574550Y279148D01*
X578105D01*
X576328Y282703D02*
X579883Y279148D01*
X578105D02*
X579883Y280925D01*
X583438Y288035D02*
X585215Y289812D01*
X588770D01*
X590547Y288035D01*
Y286257D01*
X588770Y284480D01*
X586992D01*
X588770D01*
X590547Y282703D01*
Y280925D01*
X588770Y279148D01*
X585215D01*
X583438Y280925D01*
X588773Y98045D02*
Y105155D01*
X586995Y106932D01*
X583440D01*
X581663Y105155D01*
Y98045D01*
X583440Y96268D01*
X586995D01*
X585218Y99823D02*
X588773Y96268D01*
X586995D02*
X588773Y98045D01*
X599437Y96268D02*
X592327D01*
X599437Y103377D01*
Y105155D01*
X597660Y106932D01*
X594105D01*
X592327Y105155D01*
X533400Y53595D02*
Y60705D01*
X531623Y62482D01*
X528068D01*
X526290Y60705D01*
Y53595D01*
X528068Y51818D01*
X531623D01*
X529845Y55373D02*
X533400Y51818D01*
X531623D02*
X533400Y53595D01*
X536955Y51818D02*
X540510D01*
X538732D01*
Y62482D01*
X536955Y60705D01*
X677673Y157732D02*
X674118D01*
X675895D01*
Y148845D01*
X674118Y147068D01*
X672340D01*
X670563Y148845D01*
X688337Y157732D02*
X681227D01*
Y152400D01*
X684782Y154177D01*
X686560D01*
X688337Y152400D01*
Y148845D01*
X686560Y147068D01*
X683005D01*
X681227Y148845D01*
X102363Y152652D02*
X98808D01*
X100585D01*
Y143765D01*
X98808Y141988D01*
X97030D01*
X95253Y143765D01*
X111250Y141988D02*
Y152652D01*
X105917Y147320D01*
X113027D01*
X42673Y145032D02*
X39118D01*
X40895D01*
Y136145D01*
X39118Y134368D01*
X37340D01*
X35563Y136145D01*
X46227Y143255D02*
X48005Y145032D01*
X51560D01*
X53337Y143255D01*
Y141477D01*
X51560Y139700D01*
X49782D01*
X51560D01*
X53337Y137923D01*
Y136145D01*
X51560Y134368D01*
X48005D01*
X46227Y136145D01*
X404623Y18032D02*
X401068D01*
X402845D01*
Y9145D01*
X401068Y7368D01*
X399290D01*
X397513Y9145D01*
X415287Y7368D02*
X408177D01*
X415287Y14477D01*
Y16255D01*
X413510Y18032D01*
X409955D01*
X408177Y16255D01*
X279400Y125982D02*
X275845D01*
X277623D01*
Y117095D01*
X275845Y115318D01*
X274068D01*
X272290Y117095D01*
X282955Y115318D02*
X286510D01*
X284732D01*
Y125982D01*
X282955Y124205D01*
X609600Y125982D02*
X602490D01*
Y120650D01*
X606045D01*
X602490D01*
Y115318D01*
X613155D02*
X616710D01*
X614932D01*
Y125982D01*
X613155Y124205D01*
X441963Y189482D02*
Y178818D01*
X447295D01*
X449073Y180595D01*
Y187705D01*
X447295Y189482D01*
X441963D01*
X452627Y180595D02*
X454405Y178818D01*
X457960D01*
X459737Y180595D01*
Y187705D01*
X457960Y189482D01*
X454405D01*
X452627Y187705D01*
Y185927D01*
X454405Y184150D01*
X459737D01*
X340363Y265682D02*
Y255018D01*
X345695D01*
X347473Y256795D01*
Y263905D01*
X345695Y265682D01*
X340363D01*
X351027Y263905D02*
X352805Y265682D01*
X356360D01*
X358137Y263905D01*
Y262127D01*
X356360Y260350D01*
X358137Y258573D01*
Y256795D01*
X356360Y255018D01*
X352805D01*
X351027Y256795D01*
Y258573D01*
X352805Y260350D01*
X351027Y262127D01*
Y263905D01*
X352805Y260350D02*
X356360D01*
X625633Y238992D02*
Y228328D01*
X630965D01*
X632743Y230105D01*
Y237215D01*
X630965Y238992D01*
X625633D01*
X636297D02*
X643407D01*
Y237215D01*
X636297Y230105D01*
Y228328D01*
X326393Y125982D02*
Y115318D01*
X331725D01*
X333503Y117095D01*
Y124205D01*
X331725Y125982D01*
X326393D01*
X344167D02*
X340612Y124205D01*
X337057Y120650D01*
Y117095D01*
X338835Y115318D01*
X342390D01*
X344167Y117095D01*
Y118873D01*
X342390Y120650D01*
X337057D01*
X357093Y118688D02*
Y108024D01*
X362425D01*
X364203Y109801D01*
Y116911D01*
X362425Y118688D01*
X357093D01*
X374867D02*
X367757D01*
Y113356D01*
X371312Y115133D01*
X373090D01*
X374867Y113356D01*
Y109801D01*
X373090Y108024D01*
X369535D01*
X367757Y109801D01*
X162563Y151382D02*
Y140718D01*
X167895D01*
X169673Y142495D01*
Y149605D01*
X167895Y151382D01*
X162563D01*
X173227Y149605D02*
X175005Y151382D01*
X178560D01*
X180337Y149605D01*
Y147827D01*
X178560Y146050D01*
X176782D01*
X178560D01*
X180337Y144273D01*
Y142495D01*
X178560Y140718D01*
X175005D01*
X173227Y142495D01*
X480063Y18539D02*
Y7874D01*
X485395D01*
X487173Y9651D01*
Y16761D01*
X485395Y18539D01*
X480063D01*
X497837Y7874D02*
X490728D01*
X497837Y14984D01*
Y16761D01*
X496060Y18539D01*
X492505D01*
X490728Y16761D01*
X18290Y176782D02*
Y166118D01*
X23623D01*
X25400Y167895D01*
Y175005D01*
X23623Y176782D01*
X18290D01*
X28955Y166118D02*
X32510D01*
X30732D01*
Y176782D01*
X28955Y175005D01*
X132209Y150875D02*
X130432Y152652D01*
X126877D01*
X125099Y150875D01*
Y143765D01*
X126877Y141988D01*
X130432D01*
X132209Y143765D01*
X135764Y141988D02*
X139319D01*
X137541D01*
Y152652D01*
X135764Y150875D01*
X144651D02*
X146428Y152652D01*
X149983D01*
X151761Y150875D01*
Y149097D01*
X149983Y147320D01*
X148206D01*
X149983D01*
X151761Y145543D01*
Y143765D01*
X149983Y141988D01*
X146428D01*
X144651Y143765D01*
X68709Y150875D02*
X66932Y152652D01*
X63377D01*
X61599Y150875D01*
Y143765D01*
X63377Y141988D01*
X66932D01*
X68709Y143765D01*
X72264Y141988D02*
X75819D01*
X74041D01*
Y152652D01*
X72264Y150875D01*
X88261Y141988D02*
X81151D01*
X88261Y149097D01*
Y150875D01*
X86483Y152652D01*
X82928D01*
X81151Y150875D01*
X542926Y204215D02*
X541149Y205992D01*
X537594D01*
X535817Y204215D01*
Y197105D01*
X537594Y195328D01*
X541149D01*
X542926Y197105D01*
X546481Y195328D02*
X550036D01*
X548259D01*
Y205992D01*
X546481Y204215D01*
X555368Y195328D02*
X558923D01*
X557146D01*
Y205992D01*
X555368Y204215D01*
X298579Y403605D02*
X296802Y405382D01*
X293247D01*
X291469Y403605D01*
Y396495D01*
X293247Y394718D01*
X296802D01*
X298579Y396495D01*
X302134Y394718D02*
X305689D01*
X303911D01*
Y405382D01*
X302134Y403605D01*
X311021D02*
X312799Y405382D01*
X316353D01*
X318131Y403605D01*
Y396495D01*
X316353Y394718D01*
X312799D01*
X311021Y396495D01*
Y403605D01*
X309373Y384555D02*
X307595Y386332D01*
X304040D01*
X302263Y384555D01*
Y377445D01*
X304040Y375668D01*
X307595D01*
X309373Y377445D01*
X312927D02*
X314705Y375668D01*
X318260D01*
X320037Y377445D01*
Y384555D01*
X318260Y386332D01*
X314705D01*
X312927Y384555D01*
Y382777D01*
X314705Y381000D01*
X320037D01*
X645923Y333755D02*
X644145Y335532D01*
X640590D01*
X638813Y333755D01*
Y326645D01*
X640590Y324868D01*
X644145D01*
X645923Y326645D01*
X649477Y333755D02*
X651255Y335532D01*
X654810D01*
X656587Y333755D01*
Y331977D01*
X654810Y330200D01*
X656587Y328423D01*
Y326645D01*
X654810Y324868D01*
X651255D01*
X649477Y326645D01*
Y328423D01*
X651255Y330200D01*
X649477Y331977D01*
Y333755D01*
X651255Y330200D02*
X654810D01*
X460503Y19739D02*
X458725Y21516D01*
X455170D01*
X453393Y19739D01*
Y12629D01*
X455170Y10852D01*
X458725D01*
X460503Y12629D01*
X464058Y21516D02*
X471167D01*
Y19739D01*
X464058Y12629D01*
Y10852D01*
X410973Y60705D02*
X409195Y62482D01*
X405640D01*
X403863Y60705D01*
Y53595D01*
X405640Y51818D01*
X409195D01*
X410973Y53595D01*
X421637Y62482D02*
X418082Y60705D01*
X414528Y57150D01*
Y53595D01*
X416305Y51818D01*
X419860D01*
X421637Y53595D01*
Y55373D01*
X419860Y57150D01*
X414528D01*
X433833Y19739D02*
X432055Y21516D01*
X428500D01*
X426723Y19739D01*
Y12629D01*
X428500Y10852D01*
X432055D01*
X433833Y12629D01*
X444497Y21516D02*
X437388D01*
Y16184D01*
X440942Y17961D01*
X442720D01*
X444497Y16184D01*
Y12629D01*
X442720Y10852D01*
X439165D01*
X437388Y12629D01*
X23623Y200505D02*
X21845Y202282D01*
X18290D01*
X16513Y200505D01*
Y193395D01*
X18290Y191618D01*
X21845D01*
X23623Y193395D01*
X32510Y191618D02*
Y202282D01*
X27177Y196950D01*
X34287D01*
X134872Y263141D02*
X133094Y264918D01*
X129539D01*
X127762Y263141D01*
Y256031D01*
X129539Y254254D01*
X133094D01*
X134872Y256031D01*
X138427Y263141D02*
X140204Y264918D01*
X143759D01*
X145536Y263141D01*
Y261364D01*
X143759Y259586D01*
X141981D01*
X143759D01*
X145536Y257809D01*
Y256031D01*
X143759Y254254D01*
X140204D01*
X138427Y256031D01*
X417323Y121665D02*
X415545Y123442D01*
X411990D01*
X410213Y121665D01*
Y114555D01*
X411990Y112778D01*
X415545D01*
X417323Y114555D01*
X427987Y112778D02*
X420877D01*
X427987Y119887D01*
Y121665D01*
X426210Y123442D01*
X422655D01*
X420877Y121665D01*
X539750Y41655D02*
X537973Y43432D01*
X534418D01*
X532640Y41655D01*
Y34545D01*
X534418Y32768D01*
X537973D01*
X539750Y34545D01*
X543305Y32768D02*
X546860D01*
X545082D01*
Y43432D01*
X543305Y41655D01*
X50040Y13718D02*
Y20827D01*
X53595Y24382D01*
X57150Y20827D01*
Y13718D01*
Y19050D01*
X50040D01*
X60705Y13718D02*
X64260D01*
X62482D01*
Y24382D01*
X60705Y22605D01*
D12*
X112640Y131920D02*
G03*
X112640Y131920I-500J0D01*
G01*
X96640Y114920D02*
Y128920D01*
X111640Y114920D02*
Y128920D01*
X480178Y39913D02*
X482678Y36413D01*
X480178Y39913D02*
X482678D01*
X480428Y36413D02*
X482678D01*
X484928D01*
X482678Y39913D02*
X485178D01*
X482678Y36413D02*
X485178Y39913D01*
X634520Y214610D02*
X638020Y212110D01*
Y214610D01*
X634520Y212360D02*
Y214610D01*
Y216860D01*
X638020Y214610D02*
Y217110D01*
X634520Y214610D02*
X638020Y217110D01*
X425450Y185900D02*
X427950Y182400D01*
X425450D02*
X427950D01*
X425450Y185900D02*
X427700D01*
X423200D02*
X425450D01*
X422950Y182400D02*
X425450D01*
X422950D02*
X425450Y185900D01*
X348290Y243800D02*
X351790Y241300D01*
X348290D02*
Y243800D01*
X351790Y241300D02*
Y243550D01*
Y239050D02*
Y241300D01*
X348290Y238800D02*
Y241300D01*
Y238800D02*
X351790Y241300D01*
D13*
X229598Y205782D02*
G03*
X229598Y205782I-1000J0D01*
G01*
X147540Y1690D02*
G03*
X147540Y1690I-1000J0D01*
G01*
X658818Y88897D02*
G03*
X658818Y88897I-1000J0D01*
G01*
X616953Y359368D02*
G03*
X616953Y359368I-1000J0D01*
G01*
X297180Y261620D02*
Y464820D01*
X19050Y261620D02*
X297180D01*
X19050Y464820D02*
X297180D01*
X19050Y261620D02*
Y464820D01*
X46550Y65150D02*
X170550D01*
X46550D02*
Y122650D01*
X170550D01*
Y65150D02*
Y122650D01*
X228598Y213282D02*
X233348Y207782D01*
X218598Y218282D02*
X238598D01*
X228598Y213282D02*
Y218282D01*
Y200782D02*
Y205782D01*
X218598Y200782D02*
X238598D01*
X216598Y223532D02*
X240598D01*
X216598Y195532D02*
X240598D01*
X666750Y163500D02*
Y471500D01*
Y163500D02*
X692150D01*
Y471500D01*
X666750D02*
X692150D01*
X650318Y88897D02*
X655818Y93647D01*
X645318Y78898D02*
Y98897D01*
Y88897D02*
X650318D01*
X657818D02*
X662818D01*
Y78898D02*
Y98897D01*
X640068Y76898D02*
Y100898D01*
X668068Y76898D02*
Y100898D01*
X563500Y113400D02*
X579500D01*
X563500Y127900D02*
X579500D01*
X374650Y89306D02*
Y99306D01*
Y94306D02*
X381650Y90306D01*
X374650Y94306D02*
X381650Y99306D01*
Y90306D02*
Y99306D01*
X372650Y94306D02*
X374650D01*
X381650D02*
X384650D01*
X331910Y89306D02*
Y99306D01*
X324910Y98306D02*
X331910Y94306D01*
X324910Y89306D02*
X331910Y94306D01*
X324910Y89306D02*
Y98306D01*
X331910Y94306D02*
X333910D01*
X321910D02*
X324910D01*
X611203Y357368D02*
X615953Y351868D01*
X605953Y346868D02*
X625953D01*
X615953D02*
Y351868D01*
Y359368D02*
Y364368D01*
X605953D02*
X625953D01*
X603953Y341618D02*
X627953D01*
X603953Y369618D02*
X627953D01*
D14*
X155040Y39190D02*
G03*
X155040Y39190I-46000J0D01*
G01*
X165040Y33440D02*
G03*
X167540Y35940I0J2500D01*
G01*
Y42439D02*
G03*
X165040Y44939I-2500J0D01*
G01*
X155040Y33440D02*
X165040D01*
X155040Y44939D02*
X165040D01*
X167540Y35940D02*
Y42439D01*
D15*
X215900Y145400D02*
Y159400D01*
X203200Y157480D02*
Y159400D01*
X228600D01*
Y157480D02*
Y159400D01*
Y145400D02*
Y147320D01*
X203200Y145400D02*
X228600D01*
X203200D02*
Y147320D01*
X215900Y126350D02*
Y140350D01*
X228600Y126350D02*
Y128270D01*
X203200Y126350D02*
X228600D01*
X203200D02*
Y128270D01*
Y138430D02*
Y140350D01*
X228600D01*
Y138430D02*
Y140350D01*
X202550Y177800D02*
X216550D01*
X214630Y190500D02*
X216550D01*
Y165100D02*
Y190500D01*
X214630Y165100D02*
X216550D01*
X202550D02*
X204470D01*
X202550D02*
Y190500D01*
X204470D01*
X137850Y222950D02*
X139600D01*
Y246950D01*
X137850D02*
X139600D01*
X127100D02*
X128850D01*
X127100Y222950D02*
Y246950D01*
Y222950D02*
X128850D01*
X127100Y234950D02*
X139600D01*
X48950Y184850D02*
X50700D01*
Y208850D01*
X48950D02*
X50700D01*
X38200D02*
X39950D01*
X38200Y184850D02*
Y208850D01*
Y184850D02*
X39950D01*
X38200Y196850D02*
X50700D01*
X113650Y184150D02*
X127650D01*
X125730Y196850D02*
X127650D01*
Y171450D02*
Y196850D01*
X125730Y171450D02*
X127650D01*
X113650D02*
X115570D01*
X113650D02*
Y196850D01*
X115570D01*
X324550Y374750D02*
Y376500D01*
Y374750D02*
X348550D01*
Y376500D01*
Y385500D02*
Y387250D01*
X324550D02*
X348550D01*
X324550Y385500D02*
Y387250D01*
X336550Y374750D02*
Y387250D01*
X75030Y133920D02*
X76780D01*
X75030Y109920D02*
Y133920D01*
Y109920D02*
X76780D01*
X85780D02*
X87530D01*
Y133920D01*
X85780D02*
X87530D01*
X75030Y121920D02*
X87530D01*
X324550Y393800D02*
Y395550D01*
Y393800D02*
X348550D01*
Y395550D01*
Y404550D02*
Y406300D01*
X324550D02*
X348550D01*
X324550Y404550D02*
Y406300D01*
X336550Y393800D02*
Y406300D01*
X486178Y38163D02*
X489678D01*
X475678D02*
X479178D01*
X475678Y53403D02*
X477598D01*
X475678Y23163D02*
Y53403D01*
Y24193D02*
X480138D01*
X485218D02*
X489678D01*
Y23163D02*
Y53403D01*
X487758D02*
X489678D01*
X494650Y38100D02*
X508650D01*
X494650Y25400D02*
X496570D01*
X494650D02*
Y50800D01*
X496570D01*
X506730D02*
X508650D01*
Y25400D02*
Y50800D01*
X506730Y25400D02*
X508650D01*
X577150Y42600D02*
Y44350D01*
X553150D02*
X577150D01*
X553150Y42600D02*
Y44350D01*
Y31850D02*
Y33600D01*
Y31850D02*
X577150D01*
Y33600D01*
X565150Y31850D02*
Y44350D01*
X349250Y215250D02*
Y229250D01*
X336550Y227330D02*
Y229250D01*
X361950D01*
Y227330D02*
Y229250D01*
Y215250D02*
Y217170D01*
X336550Y215250D02*
X361950D01*
X336550D02*
Y217170D01*
X654050Y120000D02*
Y134000D01*
X666750Y120000D02*
Y121920D01*
X641350Y120000D02*
X666750D01*
X641350D02*
Y121920D01*
Y132080D02*
Y134000D01*
X666750D01*
Y132080D02*
Y134000D01*
X546720Y96520D02*
X560720D01*
X546720Y83820D02*
X548640D01*
X546720D02*
Y109220D01*
X548640D01*
X558800D02*
X560720D01*
Y83820D02*
Y109220D01*
X558800Y83820D02*
X560720D01*
X647050Y44450D02*
X661050D01*
X647050Y31750D02*
X648970D01*
X647050D02*
Y57150D01*
X648970D01*
X659130D02*
X661050D01*
Y31750D02*
Y57150D01*
X659130Y31750D02*
X661050D01*
X636270Y218110D02*
Y221610D01*
X621030Y212070D02*
X622300D01*
X621030Y207610D02*
Y212070D01*
Y207610D02*
X622300D01*
X621030Y217150D02*
X622300D01*
X621030D02*
Y221610D01*
X622300D01*
X636270Y207610D02*
Y211110D01*
X651510Y207610D02*
Y209530D01*
X621270Y207610D02*
X651510D01*
X622300D02*
Y212070D01*
Y217150D02*
Y221610D01*
X622270D02*
X651510D01*
Y219690D02*
Y221610D01*
X593710Y259080D02*
X607710D01*
X593710Y246380D02*
X595630D01*
X593710D02*
Y271780D01*
X595630D01*
X605790D02*
X607710D01*
Y246380D02*
Y271780D01*
X605790Y246380D02*
X607710D01*
X612760Y259080D02*
X626760D01*
X612760Y246380D02*
X614680D01*
X612760D02*
Y271780D01*
X614680D01*
X624840D02*
X626760D01*
Y246380D02*
Y271780D01*
X624840Y246380D02*
X626760D01*
X602770Y207610D02*
Y221610D01*
X615470Y207610D02*
Y209530D01*
X590070Y207610D02*
X615470D01*
X590070D02*
Y209530D01*
Y219690D02*
Y221610D01*
X615470D01*
Y219690D02*
Y221610D01*
X418450Y184150D02*
X421950D01*
X428950D02*
X432450D01*
X430530Y168910D02*
X432450D01*
Y199150D01*
X427990Y198120D02*
X432450D01*
X418450D02*
X422910D01*
X418450Y168910D02*
Y199150D01*
Y168910D02*
X420370D01*
X432450Y198120D02*
Y199390D01*
X427990D02*
X432450D01*
X427990Y198120D02*
Y199390D01*
X418450Y198120D02*
Y199390D01*
X422910D01*
Y198120D02*
Y199390D01*
X579810Y196280D02*
X581560D01*
Y220280D01*
X579810D02*
X581560D01*
X569060D02*
X570810D01*
X569060Y196280D02*
Y220280D01*
Y196280D02*
X570810D01*
X569060Y208280D02*
X581560D01*
X418450Y152400D02*
X432450D01*
X430530Y165100D02*
X432450D01*
Y139700D02*
Y165100D01*
X430530Y139700D02*
X432450D01*
X418450D02*
X420370D01*
X418450D02*
Y165100D01*
X420370D01*
X407100Y81706D02*
Y83456D01*
Y81706D02*
X431100D01*
Y83456D01*
Y92456D02*
Y94206D01*
X407100D02*
X431100D01*
X407100Y92456D02*
Y94206D01*
X419100Y81706D02*
Y94206D01*
X407100Y66466D02*
Y68216D01*
Y66466D02*
X431100D01*
Y68216D01*
Y77216D02*
Y78966D01*
X407100D02*
X431100D01*
X407100Y77216D02*
Y78966D01*
X419100Y66466D02*
Y78966D01*
X532750Y165100D02*
X546750D01*
X532750Y152400D02*
X534670D01*
X532750D02*
Y177800D01*
X534670D01*
X544830D02*
X546750D01*
Y152400D02*
Y177800D01*
X544830Y152400D02*
X546750D01*
X355790Y84146D02*
Y91766D01*
X354520D02*
X355790D01*
X354520Y84146D02*
Y91766D01*
Y84146D02*
X355790D01*
X354520Y104466D02*
X355790D01*
X354520Y96846D02*
Y104466D01*
Y96846D02*
X355790D01*
Y104466D01*
Y84146D02*
X402780D01*
X355790Y104466D02*
X402780D01*
Y84146D02*
Y87556D01*
Y101056D02*
Y104466D01*
X350770Y96846D02*
Y104466D01*
Y96846D02*
X352040D01*
Y104466D01*
X350770D02*
X352040D01*
X350770Y84146D02*
X352040D01*
Y91766D01*
X350770D02*
X352040D01*
X350770Y84146D02*
Y91766D01*
X303780Y104466D02*
X350770D01*
X303780Y84146D02*
X350770D01*
X303780Y101056D02*
Y104466D01*
Y84146D02*
Y87556D01*
X461700Y26100D02*
X463450D01*
Y50100D01*
X461700D02*
X463450D01*
X450950D02*
X452700D01*
X450950Y26100D02*
Y50100D01*
Y26100D02*
X452700D01*
X450950Y38100D02*
X463450D01*
X442650Y26100D02*
X444400D01*
Y50100D01*
X442650D02*
X444400D01*
X431900D02*
X433650D01*
X431900Y26100D02*
Y50100D01*
Y26100D02*
X433650D01*
X431900Y38100D02*
X444400D01*
X608950Y165100D02*
X622950D01*
X608950Y152400D02*
X610870D01*
X608950D02*
Y177800D01*
X610870D01*
X621030D02*
X622950D01*
Y152400D02*
Y177800D01*
X621030Y152400D02*
X622950D01*
X334800Y234300D02*
Y236220D01*
Y234300D02*
X365040D01*
X364010D02*
Y238760D01*
Y243840D02*
Y248300D01*
X334800D02*
X365040D01*
X334800Y246380D02*
Y248300D01*
X364010Y234300D02*
X365280D01*
Y238760D01*
X364010D02*
X365280D01*
X364010Y248300D02*
X365280D01*
Y243840D02*
Y248300D01*
X364010Y243840D02*
X365280D01*
X350040Y234300D02*
Y237800D01*
Y244800D02*
Y248300D01*
X647800Y367600D02*
X649550D01*
X647800Y343600D02*
Y367600D01*
Y343600D02*
X649550D01*
X658550D02*
X660300D01*
Y367600D01*
X658550D02*
X660300D01*
X647800Y355600D02*
X660300D01*
X125830Y133920D02*
X127580D01*
X125830Y109920D02*
Y133920D01*
Y109920D02*
X127580D01*
X136580D02*
X138330D01*
Y133920D01*
X136580D02*
X138330D01*
X125830Y121920D02*
X138330D01*
X607060Y375270D02*
Y389270D01*
X594360Y387350D02*
Y389270D01*
X619760D01*
Y387350D02*
Y389270D01*
Y375270D02*
Y377190D01*
X594360Y375270D02*
X619760D01*
X594360D02*
Y377190D01*
X607060Y394320D02*
Y408320D01*
X594360Y406400D02*
Y408320D01*
X619760D01*
Y406400D02*
Y408320D01*
Y394320D02*
Y396240D01*
X594360Y394320D02*
X619760D01*
X594360D02*
Y396240D01*
X570850Y355600D02*
X584850D01*
X570850Y342900D02*
X572770D01*
X570850D02*
Y368300D01*
X572770D01*
X582930D02*
X584850D01*
Y342900D02*
Y368300D01*
X582930Y342900D02*
X584850D01*
D16*
X602248Y179227D02*
X593784Y170763D01*
Y179227D02*
X602248Y170763D01*
X598016Y179227D02*
Y170763D01*
X593784Y174995D02*
X602248D01*
X436372Y107190D02*
X444836Y98726D01*
X436372D02*
X444836Y107190D01*
X436372Y102958D02*
X444836D01*
X440604Y98726D02*
Y107190D01*
M02*
